<svg xmlns="http://www.w3.org/2000/svg" viewBox="0 0 189.91 94.9"><defs><style>.cls-1{fill:#e40539;}</style></defs><g id="Слой_2" data-name="Слой 2"><g id="Слой_1-2" data-name="Слой 1"><path class="cls-1" d="M21,88c-3.34.35-3.36.34-5.23-3.64,1.62-.27,3.2-.92,4.69-.74,11.11,1.33,22.12,0,33.11-1.22,24.49-2.81,48.76-7.09,73-11.77.59-.11,1.17-.3,1.87-.48-.19-.3-.26-.57-.39-.6-4.19-.89-8.19-1.7-12.69-.7-13,2.89-26.22,5.13-39.34,7.7-2.31.45-4.09,0-5.31-2.06-1.36-2.35-3.17-2.56-5.78-2-12,2.74-24.09,5.21-36.14,7.77-.66.14-1.34.23-2.4.4.66-4.6,5.08-3,7.16-5.07-.24-.15-.49-.42-.76-.45-5.8-.67-9.9-4.13-13.67-8.19a6.57,6.57,0,0,0-2.19-1.88,17,17,0,0,0-3.75-.52l-.32.78Q17.93,73.26,23,81.15c-2.32,1-2.4,1-3.75-.86-3.48-4.8-7-9.57-10.41-14.42a2.31,2.31,0,0,0-3-1.07C4,65.39,2,65.81,0,66.31c-.1-3.55.34-4.16,3.39-5.08,2.54-.76,5.08-1.52,7.57-2.41.65-.23,1.13-.93,1.69-1.42l-.43-.68L4.3,59l-.41-.42c.49-.71.83-1.82,1.5-2.08a65,65,0,0,1,8-2.49,6.46,6.46,0,0,1,6.46,2.05c2.82,3,5.5,6.14,8.45,9a65,65,0,0,0,7.56,6.19,4.74,4.74,0,0,0,3.55.57c11.14-3,22.25-6.23,33.35-9.45.74-.21,1.3-1,1.94-1.56l-.42-.7L55.92,64.93c-1.05-2,.44-2.25,1.67-2.68L61.08,61c-1-3.16-1.44-3.42-4.3-2.62-5.15,1.44-10.3,2.9-15.66,4.41.94-3.77,2.17-6.74,6.46-7.62A110.26,110.26,0,0,0,59,51.74c2.28-.72,2.28-.75,2.09-3.54-1.78.42-3.49.91-5.25,1.21-.63.1-1.67,0-2-.41-2-2.77-3.8-5.65-5.82-8.71,4.61-3.38,9.54-4.34,14.73-2.66C79.85,43.16,96.89,48.85,114,54.48c4.43,1.46,8.87,2.92,13.28,4.43,3.33,1.15,3.45,1.6,1.33,4.72,2.26,1.33,4.47,2.74,6.79,3.92a3.84,3.84,0,0,0,2.44-.14C146.08,65,154.37,62.6,162.61,60c1.71-.53,2.94-.87,4,.93.56.93,1.48,1.57,2.73.35-.2-.62-.46-1.32-.64-2-1.52-6.07-3.12-12.13-4.5-18.24-.41-1.77-1.13-2.86-2.93-2.89a76.33,76.33,0,0,0-10.59.08c-13.68,1.69-26.84,5.64-39.85,10a7.53,7.53,0,0,1-4.77.12c-4.16-1.13-8.29-2.33-12.4-3.49a8.47,8.47,0,0,1,5.41-6.67c6-2.56,12-5,18.41-6.05a8.87,8.87,0,0,1,7.5,1.68c4,3.31,8.42,4,13.47,3.41,7.53-.85,15.12-1.2,22.69-1.73a22,22,0,0,1,2.92.09c3.27.24,5.36,1.81,6.16,5,1.37,5.47,2.71,11,3.81,16.48,1.14,5.82-.26,8.34-5.73,10.74-8.74,3.83-18,5.77-27.27,7.84-18.93,4.22-38.22,6-57.4,8.49-19.4,2.5-38.82,4.81-58.23,7.2C22.61,91.71,22.61,91.72,21,88ZM62.91,39.43l-.36.86c.57.3,1.12.64,1.71.88,2.31,1,4.64,1.88,7,2.81l49,19.67a5.44,5.44,0,0,0,6.94-2.94Zm37.13.91c3.32,1.4,6.19,2.34,9.61.88,3.14-1.34,6.58-2,10-2.91C115.05,33.58,105.82,36.67,100,40.34Zm17.21-6.09,6.4,4.2-.05.73a34.92,34.92,0,0,0-3.77,1.3c-.55.26-.88,1-1.32,1.49.63.16,1.31.59,1.86.46,1.9-.45,3.75-1.08,5.61-1.66,1.13-.36,2.26-.75,3.52-1.17C126.48,35.69,120.4,33,117.25,34.25Z"/><path class="cls-1" d="M176.47,55.09c.69-.41,1.54-.87,2.34-1.41s1.41-1.1,2.22-1.75a5.21,5.21,0,0,1,.46.73c4.7,12.07,8,24.44,8.36,37.49a4.44,4.44,0,0,1-.11,2,18.41,18.41,0,0,1-2,2.71,26.81,26.81,0,0,1-1.66-2.19c-.4-.64-.59-1.41-.94-2.09A73.84,73.84,0,0,1,176.47,55.09Zm4,18c-.82,2.11,5.1,17.22,7.38,19.89,1.35-1.3,1.07-2.76.37-4.22Q185,82.12,181.7,75.45C181.38,74.8,181,74.17,180.44,73.12Z"/><path class="cls-1" d="M178.3,41.7l-5.72-.55c-2.13-7.32-5.86-14.42-6.59-22.45-.42-4.72-.88-9.42-1.35-14.13A4.71,4.71,0,0,1,166.86,0C174.27,13,178.37,26.76,178.3,41.7Zm-4.36-19.42c1-2-5.14-17.6-7.31-19.82-1.13,1.68-1.26,2.05-.47,3.8,1.33,3,2.76,5.9,4.18,8.84C171.45,17.39,172.62,19.65,173.94,22.28Z"/><path class="cls-1" d="M145.6,52.56l-6.3,7.93-22.87-9c2.26-.48,4-.86,5.77-1.22,6.07-1.23,12.14-2.41,18.2-3.69a1.77,1.77,0,0,1,2.34,1C143.59,49.27,144.6,50.85,145.6,52.56Z"/><path class="cls-1" d="M148,44.59l2.54,4.51,3.92-7.57.37.12A42.63,42.63,0,0,1,153,48.28a6.24,6.24,0,0,0,.58,6.79,19.37,19.37,0,0,1,1.34,2.56c-3.14,2.1-3.05-1.37-4.57-2.56-1.36,3.32-3.56,5.5-7.28,5.4,1.63-2.33,3.29-4.76,5-7.14a2.41,2.41,0,0,0,.11-3c-.93-1.53-1.68-3.17-2.61-4.94Z"/><path class="cls-1" d="M175.8,54c-.88-3.71-1.71-7-2.38-10.29-.06-.32.93-1.25,1.3-1.18,2.86.53,5.69,1.22,8.53,1.88,1.15.28,1.52,1.09.88,2A21.94,21.94,0,0,1,175.8,54Zm7.2-8.13,0-.75-8.71-1.61c.36,1.61.64,2.85,1,4.2Z"/></g></g></svg>