<svg xmlns="http://www.w3.org/2000/svg" xmlns:xlink="http://www.w3.org/1999/xlink" width="162.48" height="123.45" viewBox="0 0 162.48 123.45">
  <defs>
    <style>
      .cls-1 {
        isolation: isolate;
      }

      .cls-2 {
        fill: #262626;
      }

      .cls-3 {
        fill: #474747;
      }

      .cls-4 {
        fill: #f4f4f4;
      }

      .cls-5 {
        fill: #dcddde;
      }

      .cls-29, .cls-42, .cls-6 {
        mix-blend-mode: multiply;
      }

      .cls-7 {
        fill: #c4c4c4;
      }

      .cls-8 {
        opacity: 0.91;
      }

      .cls-9 {
        fill: #c9c9c9;
      }

      .cls-10 {
        opacity: 0.82;
      }

      .cls-11 {
        fill: #cfcfcf;
      }

      .cls-12 {
        opacity: 0.73;
      }

      .cls-13 {
        fill: #d4d4d4;
      }

      .cls-14 {
        opacity: 0.64;
      }

      .cls-15, .cls-36 {
        fill: #d9d9d9;
      }

      .cls-16 {
        opacity: 0.55;
      }

      .cls-17 {
        fill: #dfdfdf;
      }

      .cls-18 {
        opacity: 0.45;
      }

      .cls-19 {
        fill: #e4e4e4;
      }

      .cls-20 {
        opacity: 0.36;
      }

      .cls-21 {
        fill: #eaeaea;
      }

      .cls-22 {
        opacity: 0.27;
      }

      .cls-23 {
        fill: #efefef;
      }

      .cls-24 {
        opacity: 0.18;
      }

      .cls-25 {
        opacity: 0.09;
      }

      .cls-26 {
        fill: #fafafa;
      }

      .cls-27, .cls-30, .cls-54 {
        opacity: 0;
      }

      .cls-28, .cls-30 {
        fill: #fff;
      }

      .cls-29 {
        fill: url(#linear-gradient);
      }

      .cls-31 {
        fill: #f9f9f9;
      }

      .cls-31, .cls-53 {
        opacity: 0.09;
      }

      .cls-32 {
        fill: #f2f2f2;
      }

      .cls-32, .cls-52 {
        opacity: 0.18;
      }

      .cls-33 {
        fill: #ececec;
      }

      .cls-33, .cls-56 {
        opacity: 0.27;
      }

      .cls-34 {
        fill: #e6e6e6;
      }

      .cls-34, .cls-50 {
        opacity: 0.36;
      }

      .cls-35 {
        fill: #e0e0e0;
      }

      .cls-35, .cls-49 {
        opacity: 0.45;
      }

      .cls-36, .cls-48 {
        opacity: 0.55;
      }

      .cls-37 {
        fill: #d3d3d3;
      }

      .cls-37, .cls-47 {
        opacity: 0.64;
      }

      .cls-38 {
        fill: #cdcdcd;
      }

      .cls-38, .cls-57 {
        opacity: 0.73;
      }

      .cls-39 {
        fill: #c7c7c7;
      }

      .cls-39, .cls-45 {
        opacity: 0.82;
      }

      .cls-40 {
        fill: silver;
      }

      .cls-40, .cls-44 {
        opacity: 0.91;
      }

      .cls-41 {
        fill: #bababa;
      }

      .cls-42, .cls-43 {
        opacity: 0.5;
      }

      .cls-42 {
        fill: url(#linear-gradient-2);
      }

      .cls-43, .cls-55 {
        mix-blend-mode: screen;
      }

      .cls-44 {
        fill: #e8e8e8;
      }

      .cls-45 {
        fill: #d1d1d1;
      }

      .cls-46, .cls-57 {
        fill: #b9b9b9;
      }

      .cls-46 {
        opacity: 0.73;
      }

      .cls-47 {
        fill: #a2a2a2;
      }

      .cls-48 {
        fill: #8b8b8b;
      }

      .cls-49 {
        fill: #747474;
      }

      .cls-50 {
        fill: #5d5d5d;
      }

      .cls-51, .cls-56 {
        fill: #464646;
      }

      .cls-51 {
        opacity: 0.27;
      }

      .cls-52 {
        fill: #2e2e2e;
      }

      .cls-53 {
        fill: #171717;
      }

      .cls-55 {
        opacity: 0.2;
      }
    </style>
    <linearGradient id="linear-gradient" x1="36.43" y1="394.61" x2="201.2" y2="394.61" gradientTransform="matrix(0.92, -0.4, 0.4, 0.92, -174.84, -232.05)" gradientUnits="userSpaceOnUse">
      <stop offset="0" stop-color="#d2d3d4"/>
      <stop offset="0.04" stop-color="#d9d9da"/>
      <stop offset="0.2" stop-color="#eeeeef"/>
      <stop offset="0.35" stop-color="#fbfbfb"/>
      <stop offset="0.5" stop-color="#fff"/>
      <stop offset="0.65" stop-color="#fbfbfb"/>
      <stop offset="0.8" stop-color="#f0f0f1"/>
      <stop offset="0.94" stop-color="#dddedf"/>
      <stop offset="1" stop-color="#d2d3d4"/>
    </linearGradient>
    <linearGradient id="linear-gradient-2" x1="219.37" y1="319.94" x2="219.37" y2="220.04" gradientTransform="translate(-253.9 -48.95) rotate(-33.61)" gradientUnits="userSpaceOnUse">
      <stop offset="0" stop-color="#dcddde"/>
      <stop offset="0.31" stop-color="#eeeeef"/>
      <stop offset="0.67" stop-color="#fbfbfb"/>
      <stop offset="1" stop-color="#fff"/>
    </linearGradient>
  </defs>
  <g class="cls-1">
    <g id="Слой_2" data-name="Слой 2">
      <g id="Слой_1-2" data-name="Слой 1">
        <g>
          <path class="cls-2" d="M24.81,105.07l-.8-.29-.14,0-.74-.28-.15-.06-.74-.3-.09,0-.74-.31-.06,0-.75-.33-.1,0-.72-.33-.12-.06-.71-.34-.06,0-.68-.35-.09,0-.67-.36-.14-.08-.65-.36-.1-.06c-.23-.13-.46-.26-.68-.4h0l-.66-.4-.11-.07-.62-.39-.12-.08-.6-.41-.09-.06-.58-.41-.06,0-.58-.43-.12-.09-.55-.43L11.68,98l-.57-.46,0,0-.54-.46L10.46,97l-.52-.46-.12-.1L9.32,96l-.07-.06-.52-.51h0l-.5-.51-.09-.09c-.16-.16-.31-.33-.46-.5l-.09-.1-.46-.51-.06-.08-.42-.49-.06-.07-.42-.53-.09-.11-.4-.53a.86.86,0,0,0-.07-.1l-.41-.57,0,0c-.12-.18-.25-.36-.37-.55l-.07-.1L4.38,90l-.08-.13L4,89.3A27.38,27.38,0,0,1,2.2,85.74l6,14.55a27.94,27.94,0,0,0,1.74,3.51h0l0,0,.35.58.06.1c.12.2.24.38.37.57l.06.09.36.54a.21.21,0,0,1,0,.06c.13.18.26.37.4.55a.76.76,0,0,0,.08.11c.13.18.26.36.4.53l.08.1.43.54,0,0,.43.51.07.08.45.51.09.1c.15.17.31.33.47.5l.08.09.5.51,0,0,.51.49a.23.23,0,0,0,.07.07l.51.48.11.1.52.46.08.07.54.45,0,0c.18.16.37.31.56.46l.1.08.57.44.1.07.59.44.07,0,.57.41.09.06.6.4.13.09.61.39.11.06.65.41h0l.65.38.12.07.65.36.12.07.67.36.11.06.65.32.09,0,.69.34.14.06.69.32.15.07.72.32.09,0,.67.28.15.06.72.29.16.06.73.27.16.07.75.26h0Z"/>
          <path class="cls-2" d="M103.61,96l-2.27,1-.85.38-.39.17-.73.32-.41.18-.74.32-.38.16-.82.34-.31.13-1.13.46-.17.07-.94.37-.38.15-.79.3-.35.13-.87.33-.28.1-1.14.42-.2.06-.95.34-.35.12-.85.29-.33.11-.6.2-.88.29-.52.17-.91.28-.51.16-1,.3-.43.12-1.42.42-1.18.33-.38.1-.82.22-.45.11-.8.21-.4.1-1.14.28-.18,0-1,.25-.43.1-.76.17-.45.1-.77.16-.44.09-.9.19-.26,0-1.18.23-.46.08-.76.14-.47.08-.74.13-.5.08-.68.11-.54.08-.67.1-.52.08-.66.09-.53.07-.66.09-.52.06-.47.06q-5.31.61-10.34.72l6,14.55c3.16-.07,6.41-.28,9.73-.65h0l.61-.07.34,0,.14,0,.5-.06.68-.09.53-.07.64-.09.54-.08.68-.1.5-.08.71-.11.5-.09.75-.12.44-.08.88-.16.34-.06,1.18-.23h0l.08,0L78.5,121l.38-.08.82-.17.4-.09.83-.18.38-.09,1.14-.27h0l1.18-.29.42-.11.78-.2.46-.12.33-.08.5-.14.34-.09,1.2-.34,1.42-.41.43-.13,1-.29.51-.16.92-.29.51-.16.91-.3.33-.11.22-.07.4-.13.76-.27.42-.14.84-.3.3-.1,1.12-.41.3-.11.83-.31.4-.15.76-.29.38-.15.85-.34.28-.11h0l1.1-.45.31-.13.82-.34.39-.16.73-.32.42-.18.73-.32.38-.17.85-.38.21-.1h0c.69-.31,1.38-.63,2.06-1Z"/>
          <path class="cls-2" d="M154.63,46.08a4.11,4.11,0,0,1-.15.46c-.06.2-.13.4-.2.61a1.21,1.21,0,0,1-.05.14c0,.16-.11.32-.17.47s0,.11-.05.16l-.2.54,0,.07-.24.62s0,.07,0,.11-.13.33-.2.49-.05.12-.08.19l-.2.47-.05.13c-.09.2-.17.4-.26.59l-.07.15-.21.48-.08.16c-.07.16-.15.32-.23.49l-.06.12c-.09.2-.19.39-.28.58l-.08.17-.24.47-.08.16-.24.46-.08.16-.33.61,0,.06-.3.53a2.12,2.12,0,0,0-.11.21c-.09.14-.17.29-.25.43l-.09.17-.34.56,0,0-.36.6-.12.2c-.08.14-.17.27-.26.41a2.39,2.39,0,0,1-.13.21c-.08.14-.18.28-.27.42a1.18,1.18,0,0,1-.11.19l-.39.59h0l-.4.6-.12.18-.29.43c0,.06-.09.13-.14.2l-.29.42-.12.17-.43.59-.06.09-.38.51-.14.19-.3.41-.15.19c-.12.17-.25.33-.38.5l-.06.08-.48.61-.08.1-.38.48-.16.2-.32.39-.17.21-.38.45a1.47,1.47,0,0,1-.1.13l-.5.58-.11.13-.39.45-.17.2-.35.39c0,.06-.11.12-.16.19L139.89,70l-.15.16-.38.41c-.06.06-.12.13-.19.19s-.25.27-.37.4l-.18.18-.54.56L138,72l-.46.47-.19.19L137,73l-.2.19-.48.47-.08.08-.59.57-.15.14-.43.41-.21.19-.42.39-.18.16-.51.47-.1.09-.6.54-.18.16-.45.39-.19.17-.45.39-.2.17-.59.5-.13.11-.55.46-.17.15-.48.39-.21.17-.49.4-.16.13-.67.53-.08.07-.58.45-.23.18-.45.35-.23.17-.54.41-.14.1-.68.51-.19.14-.5.37-.24.18c-.17.11-.33.23-.49.35l-.22.15c-.46.33-.92.66-1.39,1l-.82.57-.2.13-.81.55c-2.61,1.74-5.33,3.42-8.15,5l6,14.55c2.81-1.59,5.53-3.27,8.14-5l.17-.12h0l.65-.43.19-.14c.28-.18.55-.37.82-.56l.07,0,1.32-.94.22-.15.49-.36.24-.17.5-.37.19-.14.68-.51L132,97l.54-.41.23-.18.45-.35.24-.18.57-.44.08-.07.67-.53.16-.13.49-.4a1.84,1.84,0,0,1,.22-.17l.47-.4.17-.14.56-.46.12-.11.59-.5.2-.17.45-.39.19-.17.45-.39.18-.17c.21-.17.4-.35.6-.53l.1-.09.52-.47.17-.16.43-.39a1.8,1.8,0,0,1,.2-.19l.43-.41.16-.15.58-.56.08-.08c.17-.16.33-.31.48-.47l.2-.19.38-.38.19-.19.46-.47.1-.1c.18-.18.36-.36.53-.55l.18-.18.38-.4.18-.2.39-.41.14-.15c.36-.39.71-.77,1-1.16l.17-.18.34-.39.18-.2.39-.46.1-.12.5-.58.1-.13.38-.45.17-.21.32-.39.16-.2.39-.48a.39.39,0,0,1,.08-.1l.47-.61.06-.08.39-.5a2.43,2.43,0,0,1,.14-.2l.31-.4.14-.19.37-.51.07-.09.42-.59.12-.17.29-.42.14-.21.29-.42.13-.18c.13-.2.26-.4.4-.6h0l.38-.6.12-.18.27-.42a2.39,2.39,0,0,1,.13-.21l.25-.41.12-.2c.12-.2.25-.4.36-.6l0,0,.33-.57.09-.16c.08-.15.17-.29.25-.43a2.12,2.12,0,0,0,.11-.21l.3-.53,0-.06.33-.61.08-.16.16-.31a.8.8,0,0,0,.08-.16,1.09,1.09,0,0,0,.08-.15c.09-.16.17-.33.25-.49a.91.91,0,0,1,.07-.14l.29-.6,0-.09c.08-.17.17-.35.25-.53a.91.91,0,0,1,.07-.14l.21-.48a1,1,0,0,0,.07-.15l.27-.6,0-.09c.07-.17.15-.34.22-.52s.05-.11.07-.17.13-.31.19-.47l.06-.14c.08-.2.15-.41.23-.61l0-.08c.07-.18.13-.36.2-.53s0-.1.05-.15l.18-.51a.49.49,0,0,0,0-.11l.21-.62h0l.15-.44Z"/>
          <path class="cls-3" d="M131.7,3.84l-10.49,7.89a3.77,3.77,0,0,1-2.95.7,69,69,0,0,0-22.78-1.84c-1.06.07-1.8-.37-1.74-1.1L94.31.78A99.41,99.41,0,0,1,115.2.38c-12-1.12-25.82.21-40.41,4.35a139.74,139.74,0,0,0-19.31,7l1.74,8.06c.13.56-.33,1.25-1.09,1.76a114.47,114.47,0,0,0-12,6.94,94.1,94.1,0,0,0-10.12,7.77l-.41.32a3.8,3.8,0,0,1-2.54.64L20,35.51C11.31,44,5.05,53.21,2,62.39l12.21.17c1,0,1.61.57,1.44,1.32a25.47,25.47,0,0,0,1.15,16.31c.26.57-.16,1.36-1,1.93L3.92,89.18a28,28,0,0,1-2.84-6.73C4,93,12.55,100.77,24.81,105.07l10.48-7.88a3.82,3.82,0,0,1,3-.72A68.09,68.09,0,0,0,61,98.32c1.06-.08,1.8.37,1.75,1.1l-.58,8.7a100.55,100.55,0,0,1-20.79.42c12,1.1,25.77-.23,40.31-4.36A137.19,137.19,0,0,0,120.3,86.49c19.61-13.1,33.17-30.13,35.76-46.37a41.35,41.35,0,0,1-1.58,6.39l-12.22-.17c-1,0-1.6-.56-1.42-1.31a25.68,25.68,0,0,0-1.17-16.29c-.24-.59.15-1.37,1-1.95l11.9-7.07a28.6,28.6,0,0,1,3.54,9.92C154.21,17.47,145.16,8.56,131.7,3.84ZM22.69,92l-1,3.32a.88.88,0,0,1-.34.41,1.31,1.31,0,0,1-.59.21L16,96.45c-.41,0-.68-.15-.59-.45l1.05-3.32a.9.9,0,0,1,.33-.41,1.49,1.49,0,0,1,.59-.21l4.72-.53c.43,0,.7.16.59.45ZM71.16,10.6l3.27-3.15a.93.93,0,0,1,.15-.13,1.27,1.27,0,0,1,.94-.18l3.56,1.21c.32.1.35.41,0,.7l-3.26,3.13a1.09,1.09,0,0,1-.17.13,1.07,1.07,0,0,1-.92.18l-3.57-1.2c-.33-.1-.34-.43,0-.69ZM12.48,48.8l.19-.11,4.61-2.12c.4-.18.85-.16,1,.09l1.45,2.61c.12.19,0,.45-.31.64l-.2.12-4.59,2.11c-.42.19-.85.15-1-.08l-1.44-2.61c-.11-.2,0-.46.31-.65ZM85.36,98.31l-3.26,3.15-.14.11a1.23,1.23,0,0,1-1,.2l-3.58-1.2c-.29-.11-.32-.42,0-.7l3.27-3.15.14-.11a1.28,1.28,0,0,1,1-.2l3.57,1.21c.3.11.33.42,0,.69Zm34.92-11.82A133.12,133.12,0,0,1,101,97.13l-1.74-8a1.93,1.93,0,0,1,1.08-1.77l.46-.27a108.28,108.28,0,0,0,11.46-6.65,94.9,94.9,0,0,0,10.16-7.81l.38-.29a3.83,3.83,0,0,1,2.55-.66l11.17,1.75a112.89,112.89,0,0,1-16.27,13.1ZM144,60.12l-.2.11-4.6,2.1c-.42.2-.84.17-1-.08l-1.46-2.59c-.11-.21,0-.49.34-.69l.17-.1,4.6-2.1c.43-.19.86-.15,1,.08l1.47,2.61c.1.19,0,.47-.33.66ZM133.21,33.7a12,12,0,0,1,.37,1.34,20.73,20.73,0,0,1,.55,3.58q.06.87.06,1.74c0,.26,0,.39,0,.52s0,.19,0,.28a30.69,30.69,0,0,1-3.09,11.78,47.07,47.07,0,0,1-5.42,8.68,69.12,69.12,0,0,1-10.89,11c-2,1.64-4.15,3.22-6.4,4.72-.43.29-.87.58-1.32.86a3.28,3.28,0,0,1-.31.2l-.89.56-.88.55-.9.53c-.34.21-.61.36-.87.51l-.8.46-.65.36-.44.25A100.7,100.7,0,0,1,88.7,87.38c-1,.4-2.11.77-3.18,1.13l-.38.13-.47.15-.87.29c-1,.33-2,.63-3.06.92l-.85.24-.4.1-.43.12-1.8.46c-1.1.26-2,.47-2.93.66l-1.61.33A82.11,82.11,0,0,1,59.8,93.35h0c-1.81.05-3.58,0-5.31,0-1.88-.09-3.7-.27-5.46-.52l-.2,0-.12,0-.19,0-.12,0c-.94-.15-1.86-.31-2.76-.5a41.23,41.23,0,0,1-9.75-3.3l-.49-.25-.35-.18-.64-.35-.32-.18-.26-.15-.26-.16-.25-.15-.43-.27L32.63,87l-.23-.15-.26-.18-.39-.27-.25-.19-.22-.16L31,85.9l-.4-.3-.48-.4c-.29-.24-.44-.37-.59-.51s-.37-.33-.55-.5L29,84.13h0a21,21,0,0,1-5.16-7.56q-.27-.66-.48-1.35a20,20,0,0,1-.92-4.92,25.55,25.55,0,0,1,.19-5.23A32.77,32.77,0,0,1,25.45,56h0c.53-1.12,1.13-2.23,1.78-3.34l0-.07,0,0,.26-.42h0l.12-.19.05-.09.22-.34h0l.14-.22.08-.12.21-.33.12-.18,0,0,.31-.46.08-.12q1-1.47,2.13-2.91c.57-.73,1.17-1.46,1.79-2.18a73.14,73.14,0,0,1,9.61-9.14l.12-.09.7-.55.12-.09q1.55-1.2,3.18-2.34l0,0,.53-.38,1.12-.76c.83-.55,1.68-1.1,2.54-1.63l.76-.47.32-.19.42-.25.53-.32c.91-.53,1.65-.95,2.42-1.37,1.85-1,3.76-2,5.71-2.89l.11-.05,1-.44.28-.12.87-.39.38-.17.83-.35.42-.17.81-.33.46-.19.78-.3.5-.2.76-.29.52-.19.76-.28.54-.19.76-.26.52-.18.09,0,.71-.23.51-.17h0l.27-.09.51-.16.32-.1.19-.06.29-.09.5-.15.15,0h0l1-.3h0a86.43,86.43,0,0,1,20.94-3.35h.9a65,65,0,0,1,9.53.55A43.61,43.61,0,0,1,120.64,20h0l.53.27,0,0,.15.07.06,0,.34.19h0l.14.08.08,0,.41.23.22.13.32.19.22.13c.14.1.29.19.44.28l.23.15.27.18.23.16.41.28.22.17.27.19a1.56,1.56,0,0,1,.2.16l.41.31.16.13h0l.3.24.14.12.08.07a4.39,4.39,0,0,1,.36.32l0,0,.15.13.4.38.24.23.33.32.18.19.39.42.08.09a20.53,20.53,0,0,1,4.46,7.7Zm7.9-20.79-1.06,3.31a.77.77,0,0,1-.34.41,1.31,1.31,0,0,1-.58.21l-4.71.53c-.42.05-.69-.15-.6-.45l1.05-3.32a.77.77,0,0,1,.34-.39,1.29,1.29,0,0,1,.58-.23l4.72-.53c.43,0,.7.16.6.46ZM28.38,83.55h0ZM72.05,20l.39-.13ZM28.92,84.09l0,0h0ZM71.2,20.32h0Zm2.62-.84.21-.07-.22.07-.15.05Zm.81-.25.1,0-.12,0Z"/>
          <g>
            <path class="cls-4" d="M44.9,37.94l-3.16-1.62c2-1.66,4.22-3.26,6.5-4.79q1.24-.83,2.52-1.62l.08-.05.68-.42.32-.19.42-.25.53-.32.16-.09c.75-.44,1.49-.86,2.26-1.28l2.07,2.35c-1.48.81-2.93,1.66-4.33,2.54l-.05,0-.64.41-.14.09-.56.36-.38.25-.31.2Q47.72,35.66,44.9,37.94Z"/>
            <path class="cls-4" d="M83.36,20.27l-.14,0-.71.14-.2,0-.72.15h-.08Q78.8,21.23,76,22q-3.72,1.07-7.31,2.41l-.85-2.9q3.87-1.47,7.94-2.63t8-1.89Z"/>
            <path class="cls-4" d="M133.91,43.85l-4.86,1v-.1a23.41,23.41,0,0,0,.19-4.72,20.78,20.78,0,0,0-.85-4.52l4.82-1.78c.14.44.26.88.36,1.34a21.74,21.74,0,0,1,.55,3.58q.06.87.06,1.74v.14c0,.12,0,.25,0,.38s0,.19,0,.28,0,.14,0,.21A23.14,23.14,0,0,1,133.91,43.85Z"/>
            <path class="cls-4" d="M35.89,88.89l-.49-.25-.35-.18-.21-.11-.43-.24-.32-.18-.26-.15-.26-.16-.25-.15-.43-.27L32.63,87l-.23-.15-.26-.18-.39-.28-.25-.18-.22-.16L31,85.9l-.4-.3-.17-.15-.31-.25L30,85.09l-.46-.41a22.56,22.56,0,0,1-2.27-2.32l4.43-2.47a22.08,22.08,0,0,0,2.71,2.67l.19.15.19.16.4.31.1.07a28.05,28.05,0,0,0,4.33,2.64Z"/>
            <path class="cls-4" d="M123.7,64l-4-.79.1-.11.31-.36.17-.21.44-.52,0,0A44.62,44.62,0,0,0,126.48,53l4.61-.1a47.68,47.68,0,0,1-5.43,8.68C125,62.41,124.38,63.21,123.7,64Z"/>
            <path class="cls-4" d="M108.07,20A55.7,55.7,0,0,0,95,19l1.67-3.41h.17a60.26,60.26,0,0,1,14,1.18Z"/>
            <path class="cls-4" d="M30.05,55.87l-4.61.1c.53-1.12,1.13-2.23,1.78-3.34l0-.07.28-.47.12-.19.27-.44.14-.22c.1-.15.2-.3.29-.45l.12-.18.33-.49.08-.12a54.69,54.69,0,0,1,3.93-5.09l4,.8s0,0,0,0c-.15.17-.3.34-.44.52l-.08.09c-.15.17-.29.35-.44.53l-.06.08-.44.54-.06.07-.46.6c-.14.17-.27.35-.4.53l0,0-.42.57a43.39,43.39,0,0,0-3.15,5l-.09.19-.11.2C30.42,55.11,30.23,55.49,30.05,55.87Z"/>
            <path class="cls-4" d="M129.23,26.55,124.81,29a20.59,20.59,0,0,0-1.84-1.9.46.46,0,0,0-.07-.07c-.14-.12-.27-.25-.42-.37l-.17-.14-.19-.17-.26-.21-.13-.11-.43-.33-.06,0A27.64,27.64,0,0,0,116.88,23l3.76-3h0l.54.27.18.1.4.22.16.09.49.27.22.13.32.19.22.13.44.28.23.15.27.18.23.16.41.28.22.16.27.2a1.56,1.56,0,0,1,.2.16l.41.31.18.14.3.25.14.12.44.39,0,0A22.23,22.23,0,0,1,129.23,26.55Z"/>
            <path class="cls-4" d="M59.8,93.35A63.6,63.6,0,0,1,49,92.78l-.32,0-.31,0c-.94-.15-1.86-.31-2.75-.5l2.81-3.32.09,0,.54.11.34.06.27,0a55.61,55.61,0,0,0,11.79.83Z"/>
            <path class="cls-4" d="M111.31,71.22l-.24.19-.25.2-.43.33-.16.13-.13.1h0l-.49.38-.31.23-.09.07L109,73l-.58.43c-.88.65-1.79,1.28-2.72,1.9l-.29.19-.84.55-.44.28-1.18.74h0l-.05,0,0,0-.51.31-.46.27,0,0-.13.08h0c-.8.48-1.62.94-2.45,1.39h0l2.08,2.35.44-.25.4-.22.25-.14.69-.39.11-.07.79-.46.08,0c.27-.15.53-.31.79-.47l.11-.06.72-.45.16-.1.6-.37.29-.19a3.28,3.28,0,0,0,.31-.2c.45-.28.89-.57,1.32-.86,2.25-1.5,4.39-3.08,6.41-4.72L111.62,71Z"/>
            <path class="cls-4" d="M88.7,87.38c-1,.4-2.11.77-3.18,1.13l-.38.13-.47.15-.91.3c-1,.32-2,.62-3,.91l-.85.24-.4.1-.43.12-1.8.46-.18,0c-.92.22-1.84.43-2.75.62h0c-.52.11-1,.22-1.56.31l.44-3.26c2.41-.46,4.87-1,7.36-1.76s4.93-1.51,7.32-2.41Z"/>
            <path class="cls-4" d="M28.13,73.43,23.3,75.21a20.51,20.51,0,0,1-.91-4.92,24.34,24.34,0,0,1,.21-5.24l4.87-1c0,.06,0,.11,0,.17l0,.22c0,.11,0,.23,0,.34s0,.22,0,.33a1.49,1.49,0,0,1,0,.21,23.41,23.41,0,0,0-.05,3.55A20.2,20.2,0,0,0,28.13,73.43Z"/>
          </g>
          <path class="cls-5" d="M154.33,23.17c.07.17.14.34.2.52a1.17,1.17,0,0,0,.05.11l.19.51v0c.06.16.12.33.17.5s0,.09.05.13l.15.47,0,.06.15.52a.65.65,0,0,1,0,.13l.12.45,0,.09c.05.18.09.35.13.52s0,.1,0,.15.07.3.1.45l0,.09c0,.18.08.36.11.54l0,.14c0,.15.06.29.08.43l0,.15c0,.16,0,.32.08.48a1,1,0,0,0,.05.16l0-.08c0,.22.07.45.1.68l.06.51s0,.08,0,.12,0,.25,0,.38a1.1,1.1,0,0,0,0,.18c0,.11,0,.22,0,.33a1.49,1.49,0,0,1,0,.21c0,.1,0,.2,0,.3s0,.15,0,.22,0,.21,0,.31a1.34,1.34,0,0,1,0,.2c0,.12,0,.23,0,.34v.19c0,.15,0,.3,0,.44V35c0,.15,0,.29,0,.44a1.34,1.34,0,0,1,0,.2c0,.14,0,.27,0,.41s0,.14,0,.21,0,.27,0,.4,0,.15,0,.23l0,.38a1.94,1.94,0,0,1,0,.24l0,.39,0,.24c0,.13,0,.27,0,.4l0,.22c0,.21-.05.42-.08.63l-.06.41c0,.11,0,.23-.05.35s-.08.5-.13.75a2,2,0,0,1-.05.24c0,.18-.06.35-.1.53l-.06.28c0,.16-.06.32-.1.48s-.05.21-.07.31-.07.31-.11.46-.05.21-.08.32l-.12.46c0,.1-.05.21-.08.31s-.08.31-.13.46l-.09.33c-.05.15-.09.3-.14.45s-.06.22-.1.33-.14.45-.22.68l6,14.55.16-.52a.75.75,0,0,0,0-.16c0-.11.07-.22.11-.34s.09-.29.13-.44l.09-.33c.05-.15.09-.3.13-.45l.09-.33c0-.15.07-.3.11-.45s.06-.22.08-.33.07-.29.11-.43,0-.23.07-.34.07-.29.1-.44,0-.21.07-.32l.09-.5a2.38,2.38,0,0,0,.05-.26c0-.25.09-.5.13-.75s0-.2.05-.3v0l.06-.42.09-.63a1.64,1.64,0,0,1,0-.22c0-.14,0-.27.05-.4a2.11,2.11,0,0,1,0-.25l0-.38,0-.25,0-.35c0-.09,0-.18,0-.28s0-.23,0-.35,0-.16,0-.24,0-.25,0-.37v-.25c0-.12,0-.25,0-.38v-.8c0-.18,0-.36,0-.54v-.13c0-.13,0-.25,0-.38v-.2c0-.11,0-.21,0-.31s0-.15,0-.22,0-.2,0-.3,0-.14,0-.21l0-.33c0-.06,0-.12,0-.18s0-.26,0-.38,0-.08,0-.12-.05-.35-.07-.52l-.09-.67-.64-1.55c.22.5.43,1,.62,1.47,0-.16,0-.32-.08-.48v-.06a.29.29,0,0,0,0-.09c0-.14-.05-.29-.08-.43l0-.14c0-.18-.08-.36-.11-.54l0-.1c0-.14-.06-.29-.1-.44a.83.83,0,0,0,0-.15c0-.17-.08-.35-.13-.52l0-.1c0-.14-.08-.29-.13-.44a.5.5,0,0,0,0-.13l-.15-.52,0-.06-.15-.47a.65.65,0,0,1,0-.13l-.17-.47s0,0,0,0l0-.06-.17-.45-.06-.15c-.06-.17-.13-.33-.2-.5l-6-14.55Z"/>
          <g>
            <path class="cls-3" d="M32.82,44.91l4,.8s0,0,0,0a64.87,64.87,0,0,1,8.1-7.81l-3.12-1.6A72,72,0,0,0,32.82,44.91Z"/>
            <path class="cls-3" d="M55.21,27.31l2.07,2.35-.62.35a91.15,91.15,0,0,1,12-5.58l-.85-2.88A100.72,100.72,0,0,0,55.21,27.31Z"/>
            <path class="cls-3" d="M83.76,17l-.4,3.23-.14,0A74,74,0,0,1,95,19l1.67-3.41A82.88,82.88,0,0,0,83.76,17Z"/>
            <path class="cls-3" d="M110.86,16.74,108.07,20a37.09,37.09,0,0,1,8.81,3l3.76-3A40.58,40.58,0,0,0,110.86,16.74Z"/>
            <path class="cls-3" d="M129.06,44.72v.1l4.86-1q.15-.93.21-1.86a30.86,30.86,0,0,1-3,10.95l-4.6.1A29.22,29.22,0,0,0,129.06,44.72Z"/>
            <path class="cls-3" d="M119.79,63.09A64.55,64.55,0,0,1,111.62,71l3.15,1.63a71.73,71.73,0,0,0,8.92-8.6l-4-.79Z"/>
            <path class="cls-3" d="M31.72,79.89l-4.43,2.47a22.56,22.56,0,0,0,2.27,2.32,21,21,0,0,1-6.25-9.47l4.82-1.78a19.21,19.21,0,0,0,5.73,8.64A22,22,0,0,1,31.72,79.89Z"/>
            <path class="cls-3" d="M73.24,88.57a74,74,0,0,1-12,1.37,2.09,2.09,0,0,0,.25,0l-1.68,3.39A79.64,79.64,0,0,0,72.72,91.9l.44-3.26.11,0Z"/>
            <path class="cls-3" d="M99.23,79.24A89.12,89.12,0,0,1,87.81,84.4s0,0,0,.08h0l.86,2.91a100.7,100.7,0,0,0,12.61-5.79Z"/>
            <path class="cls-3" d="M27.45,64.26c0-.06,0-.11,0-.17l-4.87,1A32,32,0,0,1,25.45,56l4.6-.1A29.29,29.29,0,0,0,27.45,64.26Z"/>
            <path class="cls-3" d="M128.4,35.48A19.12,19.12,0,0,0,123,27.12a20.59,20.59,0,0,1,1.84,1.9l4.42-2.47a20.62,20.62,0,0,0-1.64-1.74,20.89,20.89,0,0,1,5.62,8.89Z"/>
            <path class="cls-3" d="M45.65,92.19a41.16,41.16,0,0,1-9.76-3.3l3.75-3a37.32,37.32,0,0,0,8.91,3l-.09,0Z"/>
          </g>
          <path class="cls-4" d="M33.65,36.63a3.8,3.8,0,0,1-2.54.64L20,35.51A112.87,112.87,0,0,1,36.22,22.42,133.34,133.34,0,0,1,55.48,11.78l1.74,8.06c.13.56-.33,1.25-1.09,1.76-.14.09-.28.18-.43.26a104.8,104.8,0,0,0-11.52,6.68,94.1,94.1,0,0,0-10.12,7.77Z"/>
          <path class="cls-4" d="M154.48,46.51l-12.22-.17c-1,0-1.6-.56-1.42-1.31a25.68,25.68,0,0,0-1.17-16.29c-.25-.59.15-1.37,1-1.95l.18-.11,11.72-7a28.6,28.6,0,0,1,3.54,9.92s0,.05,0,.08c0,.22.07.45.1.68a32.87,32.87,0,0,1-.07,9c0,.25-.07.5-.11.76A41.35,41.35,0,0,1,154.48,46.51Z"/>
          <path class="cls-4" d="M144,60.12l-.2.11-4.6,2.1c-.42.2-.84.17-1-.08l-1.46-2.59c-.11-.21,0-.49.34-.69l.17-.1,4.6-2.1c.43-.19.86-.15,1,.08l1.47,2.61C144.46,59.65,144.32,59.93,144,60.12Z"/>
          <path class="cls-4" d="M62.21,108.12a100.55,100.55,0,0,1-20.79.42,67.63,67.63,0,0,1-16.61-3.47l10.48-7.88.17-.12a3.68,3.68,0,0,1,2.8-.6A68.09,68.09,0,0,0,61,98.32c1.06-.08,1.8.37,1.75,1.1Z"/>
          <path class="cls-4" d="M120.29,86.49A133.77,133.77,0,0,1,101,97.13l-1.74-8a1.93,1.93,0,0,1,1.08-1.77l.46-.27a108.28,108.28,0,0,0,11.46-6.65,94.9,94.9,0,0,0,10.16-7.81l.38-.29a3.83,3.83,0,0,1,2.55-.66l11.17,1.75A113.34,113.34,0,0,1,120.29,86.49Z"/>
          <path class="cls-4" d="M75.7,12.31a1.07,1.07,0,0,1-.92.18l-3.57-1.2c-.33-.1-.34-.43,0-.69l3.27-3.15a.93.93,0,0,1,.15-.13,1.22,1.22,0,0,1,.94-.18l3.56,1.21c.32.1.35.41,0,.7l-3.26,3.13A1.09,1.09,0,0,1,75.7,12.31Z"/>
          <path class="cls-4" d="M19.4,49.91l-.2.12-4.59,2.11c-.42.19-.85.15-1-.08l-1.44-2.61c-.11-.2,0-.46.31-.65l.19-.11,4.61-2.12c.4-.18.85-.16,1,.09l1.45,2.61C19.83,49.46,19.69,49.72,19.4,49.91Z"/>
          <path class="cls-4" d="M121.05,11.85a3.66,3.66,0,0,1-2.79.58,69,69,0,0,0-22.78-1.84c-1.06.07-1.8-.37-1.74-1.1L94.31.78A99.41,99.41,0,0,1,115.2.38l.47,0,.35,0A67.11,67.11,0,0,1,131.7,3.84l-10.49,7.89Z"/>
          <path class="cls-4" d="M139.71,16.63a1.31,1.31,0,0,1-.58.21l-4.71.53c-.42.05-.69-.15-.6-.45l1.05-3.32a.77.77,0,0,1,.34-.39,1.29,1.29,0,0,1,.58-.23l4.72-.53c.43,0,.7.16.6.46l-1.05,3.31A.84.84,0,0,1,139.71,16.63Z"/>
          <path class="cls-4" d="M15.83,82.12l-.18.11-11.73,7A28,28,0,0,1,1.07,82.4c-.05-.17-.1-.34-.14-.51A34.5,34.5,0,0,1,2,62.39l12.21.17c1,0,1.61.57,1.44,1.32a25.47,25.47,0,0,0,1.15,16.31C17.1,80.76,16.68,81.55,15.83,82.12Z"/>
          <path class="cls-4" d="M21.31,95.71a1.31,1.31,0,0,1-.59.21L16,96.45c-.41,0-.68-.15-.59-.45l1.05-3.32a.9.9,0,0,1,.33-.41,1.49,1.49,0,0,1,.59-.21l4.72-.53c.43,0,.7.16.59.45l-1,3.32A.88.88,0,0,1,21.31,95.71Z"/>
          <path class="cls-4" d="M82,101.57a1.23,1.23,0,0,1-1,.2l-3.58-1.2c-.29-.11-.32-.42,0-.7l3.27-3.15.14-.11a1.28,1.28,0,0,1,1-.2l3.57,1.21c.3.11.33.42,0,.69l-3.26,3.15Z"/>
          <path class="cls-5" d="M129.39,98.87l.41-.29.62-.45.42-.31.61-.45.43-.32.6-.46.4-.3.77-.6.22-.17,1-.78.29-.23.66-.54.41-.34.54-.45.42-.35.53-.46.39-.34.55-.47.37-.33.55-.5.35-.32.56-.51.34-.31.56-.54c.11-.09.21-.19.31-.29l.86-.82-6-14.55-.86.83a3.07,3.07,0,0,1-.26.25l-.6.57-.35.32-.55.51-.35.31-.55.49-.38.34-.53.47-.4.34-.55.47-.39.33c-.19.17-.4.33-.6.5l-.35.29-.68.56-.28.23-1,.77a1.56,1.56,0,0,1-.2.16l-.79.62-.36.27-.65.49-.39.3-.63.46-.43.31-.61.45-.42.3-.63.44c-.14.11-.29.21-.44.31l-.69.48-.33.23-1,.7-1.07.7-.31.2-.75.48-.41.26c-.22.15-.45.29-.68.43l-.43.27-.66.41-.45.27-.66.4-.45.27-.68.4-.45.26-.77.44-.35.2-1.12.63-.24.13-.9.49-.4.22-.75.4-.44.23-.74.39-.43.22-.76.38-.43.22-.82.4-.36.18-1.18.57h0l-.46.22c-.69.33-1.39.65-2.1,1l6,14.55c.93-.42,1.86-.85,2.77-1.29l1-.46.44-.22.76-.37.44-.22.73-.37.48-.25.68-.35.49-.26.71-.38.42-.23.83-.45.33-.18,1.06-.59.05,0,.34-.2.78-.44.44-.26.68-.4.45-.27.67-.4c.15-.09.3-.18.44-.28l.64-.39.47-.29.66-.41.41-.27.76-.49.3-.19,1.07-.7,1-.71.32-.22.49-.33.21-.15.43-.31Z"/>
          <path class="cls-5" d="M58.84,123.39l2.27-.1.94-.06c2-.13,4.06-.31,6.13-.56l-6-14.55c-1,.12-1.94.22-2.9.31l-1.88.16-.81.06-1.65.1q-1,.06-2.1.09h-.42l-.89,0H50.17c-1.07,0-2.14,0-3.19,0s-2-.07-3-.13H43.9l-.35,0c-.71,0-1.42-.1-2.13-.17a67.63,67.63,0,0,1-16.61-3.47l6,14.54a67.25,67.25,0,0,0,16.62,3.48c1,.09,2,.16,2.93.21l2.06.1c1.24,0,2.49,0,3.76,0h1.38l.89,0Z"/>
          <g class="cls-6">
            <path class="cls-7" d="M108.32,77.35A98.25,98.25,0,0,1,80.74,90c-30.85,8.75-57-.07-58.37-19.7-.9-13.18,9.56-27.87,25.86-38.76A98,98,0,0,1,75.78,18.9c30.87-8.74,57,.08,58.35,19.72C135.06,51.79,124.61,66.47,108.32,77.35Z"/>
            <g class="cls-8">
              <path class="cls-9" d="M108.18,77.25A97.72,97.72,0,0,1,80.73,89.83C50,98.55,24,89.77,22.63,70.23c-.9-13.12,9.51-27.75,25.74-38.58A97.68,97.68,0,0,1,75.79,19.06c30.73-8.7,56.74.08,58.09,19.64C134.8,51.8,124.4,66.41,108.18,77.25Z"/>
            </g>
            <g class="cls-10">
              <path class="cls-11" d="M108,77.14A97.23,97.23,0,0,1,80.72,89.67c-30.57,8.67-56.47-.07-57.83-19.51C22,57.1,32.35,42.54,48.51,31.75A97.45,97.45,0,0,1,75.8,19.22c30.58-8.65,56.48.09,57.82,19.55C134.54,51.81,124.19,66.36,108,77.14Z"/>
            </g>
            <g class="cls-12">
              <path class="cls-13" d="M107.91,77a97.19,97.19,0,0,1-27.2,12.47c-30.43,8.63-56.21-.07-57.57-19.42-.89-13,9.43-27.5,25.5-38.23A96.85,96.85,0,0,1,75.81,19.39c30.44-8.62,56.22.08,57.55,19.45C134.27,51.82,124,66.3,107.91,77Z"/>
            </g>
            <g class="cls-14">
              <path class="cls-15" d="M107.77,76.93A96.48,96.48,0,0,1,80.69,89.35C50.41,97.94,24.75,89.28,23.4,70,22.51,57.07,32.78,42.65,48.78,32a96.62,96.62,0,0,1,27-12.41c30.3-8.58,56,.08,57.29,19.37C134,51.84,123.76,66.25,107.77,76.93Z"/>
            </g>
            <g class="cls-16">
              <path class="cls-17" d="M107.63,76.82A95.56,95.56,0,0,1,80.68,89.18c-30.14,8.55-55.68-.06-57-19.24C22.77,57.06,33,42.7,48.92,32.07A96,96,0,0,1,75.83,19.71c30.16-8.53,55.7.08,57,19.28C133.75,51.85,123.55,66.19,107.63,76.82Z"/>
            </g>
            <g class="cls-18">
              <path class="cls-19" d="M107.49,76.72A95.33,95.33,0,0,1,80.67,89c-30,8.51-55.42-.07-56.76-19.15C23,57.05,33.2,42.76,49.06,32.17A95.47,95.47,0,0,1,75.84,19.88c30-8.5,55.44.08,56.75,19.18C133.49,51.86,123.34,66.14,107.49,76.72Z"/>
            </g>
            <g class="cls-20">
              <path class="cls-21" d="M107.35,76.61A94.83,94.83,0,0,1,80.66,88.86C50.8,97.33,25.5,88.79,24.17,69.79c-.88-12.75,9.25-27,25-37.51A95.17,95.17,0,0,1,75.85,20c29.88-8.46,55.18.08,56.49,19.09C133.23,51.87,123.12,66.08,107.35,76.61Z"/>
            </g>
            <g class="cls-22">
              <path class="cls-23" d="M107.22,76.51A94.49,94.49,0,0,1,80.65,88.69c-29.72,8.43-54.9-.06-56.22-19-.88-12.69,9.2-26.85,24.9-37.34A94.87,94.87,0,0,1,75.87,20.2c29.73-8.41,54.91.08,56.21,19C133,51.88,122.91,66,107.22,76.51Z"/>
            </g>
            <g class="cls-24">
              <path class="cls-4" d="M107.08,76.4A94,94,0,0,1,80.64,88.53c-29.58,8.39-54.64-.07-56-18.88C23.81,57,33.84,42.92,49.47,32.49A94.08,94.08,0,0,1,75.88,20.37c29.59-8.38,54.65.08,55.94,18.91C132.71,51.9,122.7,66,107.08,76.4Z"/>
            </g>
            <g class="cls-25">
              <path class="cls-26" d="M106.94,76.3A93.64,93.64,0,0,1,80.63,88.37c-29.44,8.35-54.38-.07-55.69-18.79C24.07,57,34.05,43,49.61,32.59A93.85,93.85,0,0,1,75.89,20.53c29.45-8.34,54.39.08,55.68,18.82C132.45,51.91,122.49,65.92,106.94,76.3Z"/>
            </g>
            <g class="cls-27">
              <path class="cls-28" d="M106.8,76.19a92.78,92.78,0,0,1-26.19,12c-29.29,8.31-54.11-.06-55.42-18.7C24.33,57,34.27,43,49.75,32.7a93.35,93.35,0,0,1,26.15-12c29.31-8.29,54.13.08,55.41,18.73C132.19,51.92,122.27,65.86,106.8,76.19Z"/>
            </g>
          </g>
          <path class="cls-29" d="M154.53,23.68a.73.73,0,0,0,.05.12l.19.51a0,0,0,0,0,0,0c.06.16.12.33.17.5L155,25l.15.47,0,.06.15.52a.65.65,0,0,1,0,.13l.12.45,0,.09c.05.18.09.35.13.52s0,.1,0,.15.07.3.1.45a.29.29,0,0,1,0,.09l.12.54a.68.68,0,0,0,0,.14c0,.15.06.29.08.43l0,.15c0,.16,0,.32.08.48a1,1,0,0,0,.05.16l0-.08c0,.22.07.45.1.68l.06.51s0,.08,0,.12,0,.25,0,.38,0,.12,0,.18a1.84,1.84,0,0,1,0,.33,1.49,1.49,0,0,1,0,.21c0,.1,0,.2,0,.3s0,.15,0,.22,0,.21,0,.31a1.34,1.34,0,0,1,0,.2c0,.12,0,.23,0,.34v.19c0,.14,0,.3,0,.45V35c0,.15,0,.29,0,.44a1.34,1.34,0,0,1,0,.2c0,.14,0,.27,0,.41s0,.14,0,.21,0,.27,0,.4,0,.15,0,.23l0,.38a1.94,1.94,0,0,1,0,.24l0,.39,0,.24c0,.13,0,.27,0,.4l0,.23c0,.2-.05.41-.08.62l-.06.41c0,.11,0,.23-.05.35s-.08.5-.13.75a2,2,0,0,1-.05.24c0,.18-.06.35-.1.53l-.06.28c0,.16-.06.32-.1.48s-.05.21-.07.31-.07.3-.11.46-.05.21-.08.32l-.12.46c0,.1-.05.21-.08.31s-.08.31-.13.46l-.09.33c-.05.15-.09.3-.14.45s-.06.22-.1.33-.14.45-.22.68v0h0c-.06.2-.13.4-.2.61a1.21,1.21,0,0,1-.05.14c0,.16-.11.32-.17.47s0,.11-.05.16l-.2.54,0,.07-.24.62s0,.07,0,.11-.13.33-.2.49l-.08.18c-.06.16-.13.32-.2.48l-.05.13-.26.59-.06.15c-.08.15-.15.32-.22.48l-.08.16c-.07.16-.15.32-.23.49l-.06.12c-.09.2-.19.39-.28.58l-.08.17-.24.47-.08.16-.24.46-.08.16-.33.61,0,.06-.3.53-.11.21c-.09.14-.17.29-.25.43l-.09.17-.33.56,0,0-.36.6-.12.2-.25.41-.14.21c-.08.14-.18.28-.26.42l-.12.19-.39.59-.39.6-.13.18-.29.43c0,.06-.09.13-.14.2s-.19.28-.3.42a1.63,1.63,0,0,1-.11.17l-.43.59-.06.09-.38.51-.14.19-.3.41-.15.19c-.12.17-.25.33-.38.5l-.06.08-.48.61-.08.1-.38.48-.16.2-.32.39-.17.21-.38.45a1.47,1.47,0,0,1-.1.13l-.5.58-.11.13-.39.45c-.05.07-.11.13-.17.2l-.35.39c0,.06-.11.12-.16.19L139.89,70l-.15.16-.38.41-.18.19-.38.4-.18.18-.54.56L138,72l-.46.47-.19.19L137,73l-.2.19-.2.2h0l-.86.83-.26.25-.6.57-.35.32-.55.51-.35.31-.55.49-.38.34-.53.47-.4.34-.55.47-.39.33c-.19.17-.39.33-.6.5l-.35.29-.68.56-.28.23-1,.77-.2.16-.79.62-.36.27-.65.49-.39.3-.63.46-.43.31-.61.45-.42.3-.63.44c-.14.11-.29.21-.44.31l-.69.48-.33.22-1,.71-1.06.7-.31.2-.75.48-.41.26c-.22.15-.45.29-.68.43l-.43.27-.66.41-.45.27-.66.4-.45.27-.68.4-.45.26-.76.44-.36.2-1.12.63-.24.13-.9.49c-.13.08-.27.15-.41.22l-.74.4-.44.23-.74.39-.43.22-.76.38-.43.22-.82.4-.36.18-1.18.57h0l-.46.22c-.69.33-1.39.65-2.1,1h0l-.55.24-.39.17-.73.32-.41.18-.74.32-.38.16-.82.34-.31.13-1.13.46-.17.07-.94.37-.38.15-.79.3-.35.13-.87.33-.28.1-1.14.42-.2.07-.95.33-.35.12-.85.29-.33.11-.6.2-.88.29-.52.17-.91.28-.51.16-1,.3-.43.12-1.42.42-1.19.33-.37.1-.82.22-.45.11-.8.21-.4.1-1.14.28-.18,0-1,.25-.43.1-.76.17-.45.09-.77.17-.44.09-.9.19-.26,0-1.18.23-.46.08-.76.14-.47.08-.74.13-.5.08-.68.11-.54.08-.67.1-.52.08-.66.09-.53.07-.66.09-.52.06-.24,0v0c-1,.12-1.94.22-2.9.31l-1.87.16-.82.06-1.65.1q-1,.06-2.1.09h-.42l-.89,0H50.18c-1.08,0-2.15,0-3.2,0s-2-.07-3-.13H43.9l-.35,0c-.71,0-1.42-.09-2.13-.16a67.63,67.63,0,0,1-16.61-3.47l-.8-.29-.14,0-.73-.28-.16-.06-.74-.3-.09,0-.74-.31-.06,0-.75-.33-.1,0-.72-.33-.12-.06-.71-.34-.06,0-.68-.35-.09,0-.67-.36-.14-.08-.65-.36-.1-.06c-.23-.13-.46-.26-.68-.4h0l-.66-.4-.11-.07-.62-.4-.12-.07-.6-.41-.09-.06-.58-.41-.06,0-.58-.43-.12-.09-.55-.43L11.68,98l-.57-.46,0,0-.54-.46L10.46,97l-.52-.46-.12-.1L9.32,96l-.08-.06-.51-.51h0l-.5-.51-.09-.09c-.16-.16-.31-.33-.46-.5l-.09-.1-.46-.51-.06-.08-.42-.49-.06-.07-.42-.53-.09-.11-.4-.53a.86.86,0,0,0-.07-.1l-.41-.57s0,0,0,0c-.12-.18-.25-.36-.37-.55l-.07-.1L4.38,90l-.08-.13L4,89.3A27.38,27.38,0,0,1,2.2,85.74l6,14.55a27.94,27.94,0,0,0,1.74,3.51h0l0,0,.35.58.06.11.37.56.06.09.36.54,0,.06c.13.18.26.37.4.55a.76.76,0,0,0,.08.11c.13.18.26.36.4.53l.08.1.43.54,0,0,.43.51.07.08.45.51.09.1c.15.17.31.33.47.5l.08.09.5.51,0,0,.51.49.07.07.51.48.11.1.52.45a.6.6,0,0,0,.08.08l.54.45,0,0c.18.16.37.31.57.46l.09.08.57.44.1.07.59.44.07,0,.57.41.09.06.6.4.13.09.61.39.11.06.65.41h0l.65.38.12.07.65.36.12.07.67.36.11.06.65.32.09,0,.7.34.13.06.69.32.16.07.71.32.1,0,.66.28.15.06.73.29.15.06.73.27.16.07.75.26h0a67.71,67.71,0,0,0,16.62,3.48c1,.09,2,.16,2.93.21l2.06.1c1.24,0,2.49,0,3.76,0h1.46v0c3.16-.07,6.41-.28,9.73-.65h0l.61-.07.34,0,.14,0,.5-.06.68-.09.53-.07.64-.09.55-.08.67-.1.5-.08.71-.11.5-.09.75-.12.44-.08.88-.16.34-.06,1.18-.23h0l.08,0L78.5,121l.38-.09.82-.17.4-.09.83-.18.38-.09,1.15-.27h0l1.18-.29.42-.11.78-.2.46-.12.32-.08.51-.14.34-.09,1.2-.34,1.42-.41.43-.13,1-.29.51-.16.92-.29.51-.16.91-.3.33-.11.22-.07.4-.14.76-.26.42-.14.84-.3.3-.1,1.12-.41.3-.11.83-.31.4-.15.76-.29.39-.15.84-.34.28-.11h0l1.09-.45.31-.13.82-.34.39-.16.73-.32.42-.18.73-.32.38-.17.85-.38.21-.1c.69-.31,1.38-.63,2.06-1h0l.2-.09,1-.46.44-.22.76-.37.44-.22.73-.37.48-.25.68-.35.49-.26.72-.38.41-.23.83-.45.33-.18,1.06-.59,0,0h0c2.81-1.59,5.53-3.27,8.14-5l.17-.11.65-.44.19-.13.82-.57.07,0c.44-.31.89-.62,1.32-.94l.22-.15.49-.36.24-.17.5-.37.19-.14.68-.51L132,97l.54-.41.23-.18.46-.35.23-.18.57-.44.08-.07.67-.53.16-.13.49-.4a1.84,1.84,0,0,1,.22-.17l.47-.4.17-.14.56-.46.13-.11.58-.5.2-.17.45-.39.19-.17.45-.39.18-.17c.21-.17.4-.35.6-.53l.1-.09.52-.47.17-.16.43-.39a1.8,1.8,0,0,1,.2-.19l.43-.41.16-.15.58-.56.08-.08c.17-.16.33-.31.48-.47l.2-.19.38-.38.19-.19.46-.47.1-.1c.18-.18.36-.36.53-.55l.18-.18.38-.4.18-.2.39-.41.14-.15c.36-.39.71-.77,1-1.16l.17-.18.34-.39.18-.2.39-.46.1-.12.5-.58.1-.13.38-.45.17-.21.32-.39.16-.2.39-.48a.39.39,0,0,1,.08-.1l.47-.61.06-.08.39-.5a2.43,2.43,0,0,1,.14-.2c.11-.13.21-.27.31-.4l.14-.19.37-.51.06-.09.43-.59.12-.17.29-.42.14-.21.29-.42.13-.18c.13-.2.26-.4.4-.6l.38-.6.12-.18.27-.42a2.39,2.39,0,0,1,.13-.21l.25-.41.12-.2c.12-.2.25-.4.36-.6l0,0,.33-.57.09-.16.25-.43a2.12,2.12,0,0,0,.11-.21l.3-.53,0-.06.33-.61.08-.16.16-.31a.8.8,0,0,0,.08-.16,1.09,1.09,0,0,0,.08-.15l.25-.49.07-.14c.09-.2.19-.4.29-.6l0-.09c.08-.17.17-.35.25-.53s0-.09.07-.14l.21-.48a1,1,0,0,0,.07-.15l.27-.6,0-.09c.07-.17.15-.34.22-.52s.05-.11.07-.17.13-.31.19-.47l.06-.14c.08-.2.16-.41.23-.61l0-.08c.07-.18.14-.36.2-.53a.88.88,0,0,0,.05-.15l.18-.51a.49.49,0,0,0,0-.11l.21-.62h0l.15-.44v0l0-.07a.88.88,0,0,0,0-.15l.11-.35c0-.14.09-.29.13-.44s.06-.22.1-.33l.12-.45.09-.33c0-.15.07-.3.11-.45s.06-.22.08-.33.07-.29.11-.43a3.38,3.38,0,0,1,.08-.34l.09-.44c0-.1.05-.21.07-.32l.09-.5a2.38,2.38,0,0,0,.05-.26c0-.25.09-.5.13-.75s0-.2.05-.3v0a3,3,0,0,0,.06-.42c0-.21.06-.42.08-.63l0-.22c0-.14,0-.27.05-.4a2.11,2.11,0,0,1,0-.25c0-.13,0-.25,0-.38v-.25l0-.35c0-.09,0-.18,0-.28s0-.23,0-.34,0-.17,0-.25,0-.25,0-.38v-.24c0-.12,0-.25,0-.38v-.8c0-.18,0-.36,0-.54v-.13c0-.13,0-.25,0-.38a1.41,1.41,0,0,1,0-.2c0-.11,0-.21,0-.31s0-.15,0-.22,0-.2,0-.3,0-.14,0-.21l0-.33c0-.06,0-.12,0-.18s0-.26,0-.38,0-.08,0-.12,0-.35-.07-.52l-.09-.67-.64-1.55c.22.5.43,1,.62,1.47,0-.16,0-.32-.08-.48a.13.13,0,0,0,0-.06v-.09c0-.14-.06-.29-.08-.43a.89.89,0,0,1,0-.14l-.12-.54a.44.44,0,0,0,0-.1c0-.14-.06-.29-.1-.44a.83.83,0,0,0,0-.15c0-.18-.08-.35-.13-.52s0-.06,0-.1-.08-.29-.13-.44l0-.14c-.06-.17-.11-.34-.16-.51,0,0,0,0,0-.06l-.15-.47a.65.65,0,0,1,0-.13l-.17-.47v0a.14.14,0,0,1,0-.06c-.06-.15-.12-.3-.17-.45l-.06-.15c-.06-.17-.13-.34-.2-.5l-6-14.55h0C154.4,23.34,154.47,23.51,154.53,23.68Z"/>
          <g class="cls-6">
            <g>
              <g class="cls-27">
                <path class="cls-30" d="M123.24,24.42l.59.47.27.22.2.17.18.15.51.45a20,20,0,0,1,5.66,8.75,21.32,21.32,0,0,1,.9,4.72,24.76,24.76,0,0,1-.2,4.93,30.46,30.46,0,0,1-2.7,8.69,47,47,0,0,1-6,9.37l-.64.76-.32.38a68.41,68.41,0,0,1-8.54,8.23c-.47.39-1,.77-1.59,1.26l-.51.39-.65.49-.6.44c-.93.68-1.88,1.34-2.85,2s-1.89,1.24-3,1.9l-.53.32-.68.41c-.84.49-1.7,1-2.56,1.45a95.37,95.37,0,0,1-19.56,8c-11.89,3.37-23.05,4-32.21,2.33l-.28-.06-.35-.06-.57-.12a39.09,39.09,0,0,1-9.3-3.13,29.71,29.71,0,0,1-4.64-2.84l-.41-.32-.2-.16-.2-.16A20,20,0,0,1,25,69.56,23,23,0,0,1,25,65.85a1.64,1.64,0,0,1,0-.22c0-.11,0-.23,0-.34s0-.24,0-.36l0-.23a30.62,30.62,0,0,1,2.72-8.76c.19-.4.39-.8.81-1.61A43.17,43.17,0,0,1,32,49.06l.45-.61.42-.56.54-.69.53-.65.54-.65.46-.54A68,68,0,0,1,43.4,37.2q2.94-2.4,6.24-4.6l.32-.21.4-.27.73-.47.72-.45a92.48,92.48,0,0,1,16.44-8.12c2.5-.94,5-1.78,7.64-2.53,2-.54,3.87-1,5.85-1.45l1-.19.75-.15a77.09,77.09,0,0,1,12.34-1.39,57.87,57.87,0,0,1,13.62,1.12,39.09,39.09,0,0,1,9.21,3.11A29.53,29.53,0,0,1,123.24,24.42Z"/>
              </g>
              <path class="cls-31" d="M123.06,24.54l.59.46.27.22.2.17.18.15.5.46a19.68,19.68,0,0,1,5.64,8.71,20,20,0,0,1,.9,4.7,23.86,23.86,0,0,1-.19,4.91,30,30,0,0,1-2.7,8.66,45.91,45.91,0,0,1-6,9.32c-.14.19-.3.37-.63.77l-.32.37a67.12,67.12,0,0,1-8.5,8.2L111.4,72.9l-.51.39-.64.48-.6.45c-.93.67-1.87,1.33-2.84,2s-1.89,1.24-3,1.9l-.53.32-.68.4c-.84.49-1.69,1-2.55,1.45a93.48,93.48,0,0,1-19.48,7.95c-11.85,3.36-23,4-32.08,2.32l-.28,0-.35-.07-.57-.11a38.91,38.91,0,0,1-9.26-3.12,28.3,28.3,0,0,1-4.62-2.83L33,84l-.2-.16-.19-.16a20,20,0,0,1-6.56-9.51,21,21,0,0,1-.9-4.7,24,24,0,0,1,.06-3.69,1.79,1.79,0,0,1,0-.23l0-.33c0-.12,0-.24.05-.36l0-.23a30.1,30.1,0,0,1,2.71-8.73c.19-.4.38-.8.8-1.6a46.32,46.32,0,0,1,3.29-5.25l.45-.61.42-.55.54-.69.52-.65.54-.65c.15-.18.3-.36.46-.53a67.48,67.48,0,0,1,8.44-8.13q2.93-2.39,6.21-4.58l.32-.22.4-.26.72-.47.72-.45a92.11,92.11,0,0,1,16.38-8.08c2.49-.94,5-1.78,7.61-2.52,1.94-.55,3.86-1,5.83-1.45l1-.2.75-.14a76.62,76.62,0,0,1,12.29-1.39,58,58,0,0,1,13.57,1.12,38.31,38.31,0,0,1,9.17,3.1A28.84,28.84,0,0,1,123.06,24.54Z"/>
              <path class="cls-32" d="M122.88,24.66l.59.46.27.22.2.17.18.15c.14.12.29.25.5.45a19.63,19.63,0,0,1,5.62,8.68,20.31,20.31,0,0,1,.89,4.68,23.67,23.67,0,0,1-.19,4.89A29.91,29.91,0,0,1,128.25,53a45.71,45.71,0,0,1-6,9.29l-.63.76-.32.38a66.59,66.59,0,0,1-8.47,8.16c-.47.39-.95.77-1.58,1.26l-.51.39-.64.48-.6.44c-.91.67-1.86,1.33-2.82,2s-1.88,1.23-3,1.88l-.53.32-.68.41c-.83.49-1.68,1-2.53,1.44A93.35,93.35,0,0,1,80.6,88.08c-11.8,3.35-22.87,4-31.95,2.31l-.28,0L48,90.27l-.57-.11a38.65,38.65,0,0,1-9.23-3.11,29.07,29.07,0,0,1-4.59-2.81l-.42-.32-.2-.16-.19-.16a19.84,19.84,0,0,1-6.53-9.48,20.86,20.86,0,0,1-.9-4.68,25.17,25.17,0,0,1,.05-3.68l0-.22,0-.34c0-.11,0-.23.05-.35l0-.23a29.54,29.54,0,0,1,2.7-8.69c.18-.4.38-.8.8-1.6a45.88,45.88,0,0,1,3.27-5.23l.45-.6.41-.55c.16-.21.32-.42.54-.69l.53-.65.53-.65.46-.53a66.81,66.81,0,0,1,8.4-8.09c1.95-1.59,4-3.11,6.19-4.57l.32-.21.4-.26.72-.47.72-.45a91.68,91.68,0,0,1,16.31-8c2.48-.94,5-1.77,7.58-2.51,1.93-.54,3.84-1,5.81-1.44l.94-.2.75-.14a75.85,75.85,0,0,1,12.24-1.38,57.61,57.61,0,0,1,13.52,1.11,38.42,38.42,0,0,1,9.13,3.09A28.6,28.6,0,0,1,122.88,24.66Z"/>
              <path class="cls-33" d="M122.71,24.78l.58.46.27.21.2.17.17.15.51.45A19.5,19.5,0,0,1,130,34.86a20.22,20.22,0,0,1,.89,4.67,23.45,23.45,0,0,1-.19,4.87A29.7,29.7,0,0,1,128.05,53a45.56,45.56,0,0,1-6,9.25l-.63.76-.32.37a65.43,65.43,0,0,1-8.44,8.13c-.47.39-.95.77-1.57,1.25l-.51.39-.64.48-.59.44c-.91.67-1.85,1.32-2.81,2s-1.88,1.23-2.94,1.88l-.53.32-.67.4c-.83.49-1.67,1-2.53,1.44A92.59,92.59,0,0,1,80.59,88c-11.75,3.33-22.77,4-31.82,2.3l-.28,0-.36-.07L47.57,90a38.47,38.47,0,0,1-9.19-3.1,28.21,28.21,0,0,1-4.58-2.8l-.41-.32-.2-.16L33,83.48a19.92,19.92,0,0,1-6.51-9.43,20.87,20.87,0,0,1-.89-4.67,24.88,24.88,0,0,1,0-3.66l0-.22,0-.34c0-.12,0-.23,0-.35a1.85,1.85,0,0,1,0-.23,29.6,29.6,0,0,1,2.68-8.66c.19-.4.39-.79.8-1.59a45.56,45.56,0,0,1,3.26-5.21l.45-.6.41-.55.54-.68.52-.65c.15-.18.3-.37.54-.64s.29-.36.45-.53a66.33,66.33,0,0,1,8.37-8.06c1.94-1.58,4-3.1,6.16-4.55l.33-.22.39-.25.72-.47.71-.45a92,92,0,0,1,16.25-8c2.47-.93,5-1.76,7.55-2.5,1.92-.54,3.83-1,5.78-1.43l1-.2.74-.14a76.39,76.39,0,0,1,12.2-1.38,58.21,58.21,0,0,1,13.46,1.11A38.24,38.24,0,0,1,118.14,22,28.18,28.18,0,0,1,122.71,24.78Z"/>
              <path class="cls-34" d="M122.53,24.9c.15.11.3.22.58.45l.27.22.2.16.17.16c.15.12.29.25.5.44a19.52,19.52,0,0,1,5.58,8.61,20.6,20.6,0,0,1,.88,4.64,23.35,23.35,0,0,1-.19,4.86A29.56,29.56,0,0,1,127.86,53a46,46,0,0,1-5.94,9.21l-.62.76-.32.36a66.25,66.25,0,0,1-8.4,8.11L111,72.68l-.5.39-.64.48-.59.43c-.91.67-1.85,1.32-2.8,2s-1.87,1.22-2.93,1.87l-.53.32-.67.39c-.82.49-1.66,1-2.51,1.43a92.36,92.36,0,0,1-19.26,7.86c-11.7,3.32-22.68,4-31.7,2.3l-.27,0L48.25,90l-.56-.11a38.14,38.14,0,0,1-9.15-3.09A28.25,28.25,0,0,1,34,84l-.41-.32-.2-.16-.19-.15A19.83,19.83,0,0,1,26.7,74a20.61,20.61,0,0,1-.89-4.64,23.43,23.43,0,0,1,.05-3.65,1.79,1.79,0,0,0,0-.23c0-.11,0-.22,0-.33s0-.23,0-.35l0-.23a30,30,0,0,1,2.68-8.63c.19-.39.38-.79.79-1.58a45.35,45.35,0,0,1,3.26-5.19l.44-.6.41-.54.53-.68.52-.65.54-.64.45-.53a67.27,67.27,0,0,1,8.34-8c1.93-1.57,4-3.08,6.13-4.53l.33-.21.39-.26.71-.46.71-.45a91.65,91.65,0,0,1,16.19-8c2.46-.93,5-1.76,7.52-2.49,1.92-.54,3.81-1,5.76-1.43l.94-.2.74-.14A75.87,75.87,0,0,1,95.52,18a57.12,57.12,0,0,1,13.4,1.1A38.52,38.52,0,0,1,118,22.12,28.29,28.29,0,0,1,122.53,24.9Z"/>
              <path class="cls-35" d="M122.35,25l.58.46.27.21.2.17.17.15c.15.12.29.25.5.44A19.42,19.42,0,0,1,129.62,35a20.43,20.43,0,0,1,.89,4.62,23.87,23.87,0,0,1-.2,4.84A29.29,29.29,0,0,1,127.66,53a45.77,45.77,0,0,1-5.91,9.18l-.63.75c-.1.12-.2.25-.31.37a65.06,65.06,0,0,1-8.37,8.07c-.47.38-.94.76-1.56,1.24l-.5.38-.64.48-.59.44c-.9.66-1.84,1.31-2.79,1.94s-1.86,1.22-2.91,1.87l-.53.31-.66.4c-.83.48-1.66,1-2.51,1.42a91.39,91.39,0,0,1-19.18,7.83C68.91,91,58,91.61,49,90l-.28,0-.35-.07-.55-.12a37.89,37.89,0,0,1-9.12-3.07,27.83,27.83,0,0,1-4.55-2.78l-.4-.31-.2-.16-.19-.16a19.75,19.75,0,0,1-6.46-9.36A20.53,20.53,0,0,1,26,69.27a23.3,23.3,0,0,1,.05-3.64c0-.07,0-.15,0-.22s0-.22,0-.33,0-.24,0-.35l0-.23a29.77,29.77,0,0,1,2.67-8.59c.18-.4.38-.79.79-1.58a44,44,0,0,1,3.24-5.16c.13-.19.27-.38.44-.6l.41-.55.53-.68.52-.64.53-.64.45-.52a66.65,66.65,0,0,1,8.3-8Q47,35.19,50.2,33l.32-.21.39-.26.71-.46.71-.45A91.22,91.22,0,0,1,68.45,23.7c2.45-.93,4.94-1.75,7.49-2.48,1.91-.54,3.79-1,5.74-1.42l.93-.2.74-.14a75.15,75.15,0,0,1,12.1-1.37,57.27,57.27,0,0,1,13.35,1.1,38.18,38.18,0,0,1,9,3.06A27.57,27.57,0,0,1,122.35,25Z"/>
              <path class="cls-36" d="M122.18,25.13l.58.45.26.22.2.16.17.15c.14.13.29.25.5.45a19.38,19.38,0,0,1,5.53,8.54,20.82,20.82,0,0,1,.88,4.6,24.41,24.41,0,0,1-.19,4.82A29.73,29.73,0,0,1,127.46,53a45.62,45.62,0,0,1-5.88,9.14l-.63.75-.31.36a64.59,64.59,0,0,1-8.34,8c-.46.38-.94.76-1.55,1.24l-.5.38-.63.47-.59.44c-.9.66-1.83,1.3-2.78,1.94s-1.85,1.21-2.9,1.85l-.52.32-.67.39c-.82.48-1.65,1-2.5,1.42a91.71,91.71,0,0,1-19.1,7.8C69,90.84,58.06,91.46,49.12,89.82l-.28,0-.35-.06-.55-.12a37.41,37.41,0,0,1-9.08-3.06,27.82,27.82,0,0,1-4.53-2.76l-.41-.32-.19-.16-.19-.15a19.72,19.72,0,0,1-6.43-9.33,20.25,20.25,0,0,1-.88-4.6,23,23,0,0,1,.05-3.62c0-.08,0-.15,0-.22s0-.22,0-.34,0-.23,0-.34l0-.23a29.65,29.65,0,0,1,2.66-8.56c.18-.39.37-.78.78-1.57a44.5,44.5,0,0,1,3.23-5.14c.13-.19.27-.38.44-.6l.41-.54c.15-.2.31-.41.53-.68l.51-.64.53-.63.45-.52a65.46,65.46,0,0,1,8.27-8q2.88-2.34,6.09-4.5l.32-.21.39-.25c.19-.13.37-.25.71-.46l.7-.45a90.89,90.89,0,0,1,16.06-7.92c2.44-.92,4.92-1.74,7.46-2.47,1.9-.53,3.78-1,5.71-1.42l.93-.19.74-.14a75.64,75.64,0,0,1,12-1.36,56.85,56.85,0,0,1,13.3,1.09,37.41,37.41,0,0,1,9,3.05A27.86,27.86,0,0,1,122.18,25.13Z"/>
              <path class="cls-37" d="M122,25.25c.15.11.3.22.58.45l.26.21.2.17.17.15.49.44a19.27,19.27,0,0,1,5.51,8.5,20.84,20.84,0,0,1,.88,4.59,24.2,24.2,0,0,1-.19,4.8A29.15,29.15,0,0,1,127.26,53a45.32,45.32,0,0,1-5.86,9.11c-.14.18-.29.36-.62.74-.1.13-.21.25-.31.37a64.61,64.61,0,0,1-8.3,8c-.47.38-.94.76-1.55,1.23l-.5.38c-.13.11-.27.21-.63.48l-.58.43c-.9.66-1.83,1.3-2.77,1.93s-1.85,1.21-2.9,1.85l-.51.31-.67.4c-.81.48-1.64,1-2.48,1.41a91.39,91.39,0,0,1-19,7.77C69,90.7,58.14,91.31,49.23,89.68L49,89.63l-.35-.07-.55-.11a38.34,38.34,0,0,1-9.05-3,28.71,28.71,0,0,1-4.5-2.76l-.41-.32-.19-.15L33.72,83a19.64,19.64,0,0,1-6.41-9.29,20.08,20.08,0,0,1-.87-4.58,22.92,22.92,0,0,1,0-3.61,1.64,1.64,0,0,1,0-.22c0-.11,0-.22,0-.33s0-.23,0-.35l0-.22a29.57,29.57,0,0,1,2.64-8.52c.19-.39.38-.78.79-1.57a44.07,44.07,0,0,1,3.21-5.12c.13-.19.27-.37.44-.6l.4-.54.53-.67.52-.64c.14-.18.29-.36.52-.63l.45-.52a65,65,0,0,1,8.24-7.93c1.9-1.56,3.93-3,6.06-4.48l.32-.21.39-.25c.18-.13.37-.25.7-.46l.71-.45a90.46,90.46,0,0,1,16-7.89q3.63-1.36,7.43-2.45c1.89-.54,3.76-1,5.69-1.42l.93-.19.73-.14a75,75,0,0,1,12-1.36,57,57,0,0,1,13.25,1.09,38.12,38.12,0,0,1,9,3A28,28,0,0,1,122,25.25Z"/>
              <path class="cls-38" d="M121.83,25.37l.57.45.26.21.2.16.17.15.49.44A19.22,19.22,0,0,1,129,35.25a20,20,0,0,1,.87,4.57,24,24,0,0,1-.19,4.78A29.22,29.22,0,0,1,127.07,53a45.4,45.4,0,0,1-5.84,9.07l-.62.74-.31.36a64.2,64.2,0,0,1-8.27,8c-.46.37-.93.75-1.54,1.22l-.5.38-.62.47-.59.43c-.89.66-1.81,1.3-2.75,1.93s-1.84,1.2-2.89,1.84l-.51.31-.66.39c-.82.48-1.64,1-2.48,1.41a91.15,91.15,0,0,1-18.94,7.73C69,90.55,58.22,91.16,49.35,89.54l-.27-.05-.35-.07-.55-.11a37.56,37.56,0,0,1-9-3,27.83,27.83,0,0,1-4.49-2.75l-.4-.31-.19-.16-.2-.16a19.54,19.54,0,0,1-6.37-9.24,20,20,0,0,1-.87-4.57,22.67,22.67,0,0,1,.05-3.59,1.5,1.5,0,0,1,0-.22l0-.33c0-.12,0-.23.05-.35l0-.22a29.36,29.36,0,0,1,2.63-8.49c.18-.39.38-.78.78-1.56a43.75,43.75,0,0,1,3.2-5.1l.44-.59.4-.54.53-.67c.15-.19.29-.37.51-.63l.52-.64.45-.51a65.09,65.09,0,0,1,8.2-7.91c1.9-1.54,3.92-3,6-4.45l.32-.21.38-.26.71-.45.7-.44a89.77,89.77,0,0,1,15.93-7.86c2.41-.92,4.88-1.73,7.4-2.45,1.88-.53,3.75-1,5.66-1.41l.93-.19.73-.14a74.4,74.4,0,0,1,11.95-1.35,56.39,56.39,0,0,1,13.19,1.09,37.26,37.26,0,0,1,8.92,3A27.8,27.8,0,0,1,121.83,25.37Z"/>
              <path class="cls-39" d="M121.65,25.48l.57.45.26.21.19.17.18.14.49.44a19.06,19.06,0,0,1,5.46,8.44,19.82,19.82,0,0,1,.87,4.55,23.11,23.11,0,0,1-.19,4.76A29.17,29.17,0,0,1,126.87,53a44.39,44.39,0,0,1-5.82,9l-.61.74-.31.36a64.34,64.34,0,0,1-8.24,7.94c-.46.37-.92.75-1.53,1.22l-.5.38-.62.47-.58.42c-.89.66-1.81,1.29-2.75,1.92s-1.83,1.2-2.87,1.83l-.51.31-.66.4c-.81.47-1.63.94-2.46,1.4a91.25,91.25,0,0,1-18.87,7.7C69.06,90.4,58.3,91,49.47,89.4l-.27-.05-.35-.07-.55-.11a37.67,37.67,0,0,1-9-3,28.32,28.32,0,0,1-4.47-2.74l-.4-.31-.2-.16-.19-.15a19.61,19.61,0,0,1-6.35-9.21A20.36,20.36,0,0,1,26.86,69a22.55,22.55,0,0,1,0-3.58l0-.22,0-.32c0-.12,0-.23,0-.35l0-.22a29.49,29.49,0,0,1,2.63-8.46c.18-.38.37-.77.78-1.55a43.33,43.33,0,0,1,3.18-5.08l.44-.59c.13-.18.26-.36.4-.53s.31-.41.52-.67l.51-.63L36,46.2l.44-.52a65.26,65.26,0,0,1,8.17-7.87q2.84-2.31,6-4.44l.31-.21.38-.25.71-.45.69-.44a89.1,89.1,0,0,1,15.87-7.83q3.6-1.36,7.37-2.44c1.87-.53,3.73-1,5.64-1.4l.92-.19.72-.14a72.89,72.89,0,0,1,11.91-1.34,55.49,55.49,0,0,1,13.14,1.08,37.76,37.76,0,0,1,8.89,3A28.61,28.61,0,0,1,121.65,25.48Z"/>
              <path class="cls-40" d="M121.47,25.6l.57.45.26.21.19.16.18.15c.14.12.28.24.48.43a19.09,19.09,0,0,1,5.45,8.41,20.08,20.08,0,0,1,.86,4.53,22.89,22.89,0,0,1-.19,4.74,28.65,28.65,0,0,1-2.6,8.35,44.67,44.67,0,0,1-5.79,9l-.61.73-.31.36a64.42,64.42,0,0,1-8.2,7.91l-1.53,1.22-.49.37-.63.47-.57.43c-.89.64-1.81,1.28-2.74,1.9s-1.82,1.2-2.86,1.83l-.51.31-.65.39c-.81.47-1.63.94-2.46,1.39A90.51,90.51,0,0,1,80.53,87c-11.43,3.24-22.15,3.85-30.95,2.24l-.27-.05L49,89.14,48.42,89a37.34,37.34,0,0,1-8.93-3A26.94,26.94,0,0,1,35,83.29l-.4-.31-.2-.15-.19-.16a19.39,19.39,0,0,1-6.32-9.17A20.77,20.77,0,0,1,27.06,69a23.53,23.53,0,0,1,.05-3.56l0-.22,0-.33c0-.11,0-.22,0-.34l0-.22a28.91,28.91,0,0,1,2.62-8.42c.18-.39.37-.77.77-1.55a44.37,44.37,0,0,1,3.17-5.06l.44-.59.4-.53.52-.66c.15-.19.29-.37.51-.63s.29-.36.52-.63l.44-.51a64.08,64.08,0,0,1,8.14-7.84q2.82-2.31,6-4.42l.31-.21.38-.25.7-.45.7-.44a89.35,89.35,0,0,1,15.8-7.8Q72.24,23,76,21.88c1.86-.52,3.71-1,5.62-1.39l.92-.19.71-.14a74.54,74.54,0,0,1,11.87-1.34,56.13,56.13,0,0,1,13.08,1.08,37.27,37.27,0,0,1,8.85,3A27.19,27.19,0,0,1,121.47,25.6Z"/>
              <path class="cls-41" d="M121.3,25.72l.56.44.26.21.19.17.17.14.49.44a19,19,0,0,1,5.42,8.37,20,20,0,0,1,.86,4.51,23.41,23.41,0,0,1-.19,4.72A28.94,28.94,0,0,1,126.47,53a44.69,44.69,0,0,1-5.76,9l-.61.73-.31.36A64.55,64.55,0,0,1,111.62,71c-.46.38-.92.74-1.52,1.21l-.49.38L109,73l-.58.43c-.88.64-1.79,1.28-2.72,1.9s-1.82,1.19-2.85,1.82l-.51.31-.65.38c-.8.48-1.62.94-2.45,1.39a90.27,90.27,0,0,1-18.71,7.64c-11.38,3.23-22.06,3.84-30.82,2.23l-.27,0L49.09,89l-.54-.11a37.09,37.09,0,0,1-8.9-3,28.33,28.33,0,0,1-4.44-2.71l-.4-.31-.19-.16-.19-.15a19.39,19.39,0,0,1-6.3-9.14,20,20,0,0,1-.86-4.51,23.41,23.41,0,0,1,.05-3.55,1.49,1.49,0,0,0,0-.21c0-.11,0-.22,0-.33s0-.23,0-.34l0-.22a29.29,29.29,0,0,1,2.6-8.39c.18-.38.37-.76.78-1.54a41.44,41.44,0,0,1,3.16-5l.43-.58c.13-.18.26-.36.4-.53s.3-.4.52-.67l.5-.62c.15-.18.29-.36.52-.62s.29-.35.44-.52A64.11,64.11,0,0,1,44.9,38q2.82-2.3,6-4.41l.31-.2.38-.25.7-.45L53,32.2a88.3,88.3,0,0,1,15.74-7.76c2.38-.91,4.82-1.71,7.3-2.42,1.87-.53,3.71-1,5.6-1.39l.92-.19.71-.14A72.77,72.77,0,0,1,95,19a55.18,55.18,0,0,1,13,1.07,37.09,37.09,0,0,1,8.81,3A27.48,27.48,0,0,1,121.3,25.72Z"/>
            </g>
          </g>
          <path class="cls-3" d="M121.3,25.72l.56.44.26.21.19.17.17.14.49.44a19,19,0,0,1,5.42,8.37,20,20,0,0,1,.86,4.51,23.41,23.41,0,0,1-.19,4.72A28.94,28.94,0,0,1,126.47,53a44.69,44.69,0,0,1-5.76,9l-.61.73-.31.36A64.55,64.55,0,0,1,111.62,71c-.46.38-.92.74-1.52,1.21l-.49.38L109,73l-.58.43c-.88.64-1.79,1.28-2.72,1.9s-1.82,1.19-2.85,1.82l-.51.31-.65.38c-.8.48-1.62.94-2.45,1.39a90.27,90.27,0,0,1-18.71,7.64c-11.38,3.23-22.06,3.84-30.82,2.23l-.27,0L49.09,89l-.54-.11a37.09,37.09,0,0,1-8.9-3,28.33,28.33,0,0,1-4.44-2.71l-.4-.31-.19-.16-.19-.15a19.39,19.39,0,0,1-6.3-9.14,20,20,0,0,1-.86-4.51,23.41,23.41,0,0,1,.05-3.55,1.49,1.49,0,0,0,0-.21c0-.11,0-.22,0-.33s0-.23,0-.34l0-.22a29.29,29.29,0,0,1,2.6-8.39c.18-.38.37-.76.78-1.54a41.44,41.44,0,0,1,3.16-5l.43-.58c.13-.18.26-.36.4-.53s.3-.4.52-.67l.5-.62c.15-.18.29-.36.52-.62s.29-.35.44-.52A64.11,64.11,0,0,1,44.9,38q2.82-2.3,6-4.41l.31-.2.38-.25.7-.45L53,32.2a88.3,88.3,0,0,1,15.74-7.76c2.38-.91,4.82-1.71,7.3-2.42,1.87-.53,3.71-1,5.6-1.39l.92-.19.71-.14A72.77,72.77,0,0,1,95,19a55.18,55.18,0,0,1,13,1.07,37.09,37.09,0,0,1,8.81,3A27.48,27.48,0,0,1,121.3,25.72ZM76.44,28.41a72,72,0,0,0-20.18,9.26c-11.93,8-19.6,18.74-18.93,28.39,1,14.38,20.15,20.83,42.74,14.43a71.73,71.73,0,0,0,20.2-9.27c11.94-8,19.58-18.72,18.91-28.36-1-14.39-20.13-20.85-42.74-14.45Z"/>
          <path class="cls-4" d="M100.27,71.22a71.73,71.73,0,0,1-20.2,9.27c-22.59,6.4-41.73,0-42.74-14.43-.67-9.65,7-20.41,18.93-28.39a72,72,0,0,1,20.18-9.26c22.61-6.4,41.75.06,42.74,14.45C119.85,52.5,112.21,63.25,100.27,71.22Z"/>
          <path class="cls-42" d="M131.7,3.84l-.83.62h0l.83-.62A67.11,67.11,0,0,0,116,.46l-.35,0-.47,0c-12-1.12-25.82.21-40.41,4.34a139.77,139.77,0,0,0-19.31,7.06A132.81,132.81,0,0,0,36.22,22.42,113.43,113.43,0,0,0,20,35.51h0C11.31,44,5.05,53.21,2,62.39A34.5,34.5,0,0,0,.93,81.89c0,.17.09.34.13.51a28.85,28.85,0,0,0,2.63,6.38,28.44,28.44,0,0,1-2.61-6.33C4,93,12.55,100.77,24.81,105.07a67.63,67.63,0,0,0,16.61,3.47c12,1.1,25.77-.23,40.31-4.35a137.49,137.49,0,0,0,38.57-17.7c19.61-13.1,33.17-30.13,35.76-46.37,0-.26.08-.51.11-.76a32.87,32.87,0,0,0,.07-9c0-.23-.06-.46-.1-.68,0,0,0,0,0-.08q-.1-.66-.24-1.32.13.66.24,1.32C154.21,17.46,145.16,8.56,131.7,3.84ZM55.51,108.72c.88,0,1.77-.11,2.66-.19C57.28,108.61,56.39,108.67,55.51,108.72ZM101,97.13h0c.86-.39,1.72-.78,2.56-1.19C102.75,96.35,101.89,96.74,101,97.13Zm53.45-50.62-2.14,0h0l2.14,0c.18-.54.35-1.08.5-1.62C154.83,45.43,154.66,46,154.48,46.51Z"/>
          <g class="cls-43">
            <path class="cls-28" d="M154.48,46.51l-2.14,0h0l2.14,0c.18-.54.35-1.08.5-1.62C154.83,45.43,154.66,46,154.48,46.51ZM101,97.13h0c.86-.39,1.72-.78,2.56-1.19C102.75,96.35,101.89,96.74,101,97.13ZM131.7,3.84l-.83.62h0l.83-.62A67.11,67.11,0,0,0,116,.46l-.35,0-.47,0c-12-1.12-25.82.21-40.41,4.34a139.77,139.77,0,0,0-19.31,7.06A132.81,132.81,0,0,0,36.22,22.42,113.43,113.43,0,0,0,20,35.51h0C11.31,44,5.05,53.21,2,62.39A34.5,34.5,0,0,0,.93,81.89c0,.17.09.34.13.51a28.85,28.85,0,0,0,2.63,6.38,28.44,28.44,0,0,1-2.61-6.33C4,93,12.55,100.77,24.81,105.07a67.63,67.63,0,0,0,16.61,3.47c12,1.1,25.77-.23,40.31-4.35a137.49,137.49,0,0,0,38.57-17.7c19.61-13.1,33.17-30.13,35.76-46.37,0-.26.08-.51.11-.76a32.87,32.87,0,0,0,.07-9c0-.23-.06-.46-.1-.68,0,0,0,0,0-.08q-.1-.66-.24-1.32.13.66.24,1.32C154.21,17.46,145.16,8.56,131.7,3.84ZM55.51,108.72c.88,0,1.77-.11,2.66-.19C57.28,108.61,56.39,108.67,55.51,108.72Z"/>
            <path class="cls-44" d="M154.48,46.69l-2.14,0h0l2.14,0c.18-.54.35-1.08.5-1.62C154.83,45.61,154.66,46.15,154.48,46.69Zm-53.4,50.57h0l2.56-1.19Zm30.64-93.2-.83.62h0l.83-.62A67.45,67.45,0,0,0,116.06.68l-.36,0L115.23.6C103.25-.51,89.44.82,74.87,5a137.7,137.7,0,0,0-19.29,7A132.54,132.54,0,0,0,36.34,22.62,113.28,113.28,0,0,0,20.09,35.7h0C11.46,44.15,5.2,53.38,2.19,62.55A34.43,34.43,0,0,0,1.08,82c0,.17.09.34.14.51a28.09,28.09,0,0,0,2.62,6.37,28.17,28.17,0,0,1-2.61-6.32c2.88,10.54,11.47,18.3,23.7,22.59a67.75,67.75,0,0,0,16.6,3.48c12,1.09,25.74-.24,40.27-4.36a137.31,137.31,0,0,0,38.53-17.67c19.59-13.09,33.1-30.11,35.72-46.33l.12-.76a33.18,33.18,0,0,0,.06-8.95l-.09-.67,0-.09c-.07-.44-.15-.88-.24-1.31.09.43.17.87.24,1.31C154.21,17.67,145.17,8.77,131.72,4.06ZM55.6,108.83c.89,0,1.77-.11,2.66-.18C57.37,108.72,56.49,108.78,55.6,108.83Z"/>
            <path class="cls-45" d="M154.48,46.87l-2.14,0h0l2.13,0c.18-.54.35-1.08.5-1.62C154.82,45.79,154.65,46.33,154.48,46.87ZM101.13,97.38h0c.86-.38,1.71-.78,2.56-1.18C102.84,96.6,102,97,101.13,97.38Zm30.61-93.1-.83.62h0l.83-.62A67.36,67.36,0,0,0,116.09.91l-.35,0-.47,0C103.3-.28,89.5,1,75,5.17a138,138,0,0,0-19.28,7A132.76,132.76,0,0,0,36.45,22.82,112.93,112.93,0,0,0,20.23,35.89h0C11.6,44.33,5.35,53.55,2.34,62.71a34.27,34.27,0,0,0-1.1,19.46c0,.17.08.34.13.51A28.75,28.75,0,0,0,4,89.05a28.84,28.84,0,0,1-2.61-6.32C4.26,93.26,12.84,101,25.06,105.3a67.57,67.57,0,0,0,16.59,3.47c11.94,1.1,25.7-.23,40.22-4.35a137,137,0,0,0,38.49-17.66c19.57-13.07,33.07-30.07,35.69-46.27,0-.26.07-.51.11-.76a33.19,33.19,0,0,0,.07-8.95c0-.22-.06-.45-.1-.67V30c-.07-.44-.15-.88-.24-1.31.09.43.17.87.24,1.31C154.21,17.88,145.17,9,131.74,4.28ZM55.7,109c.88,0,1.77-.12,2.66-.19C57.47,108.83,56.58,108.9,55.7,109Z"/>
            <path class="cls-46" d="M154.47,47.05l-2.13,0h0l2.13,0c.18-.54.35-1.08.5-1.62C154.82,46,154.65,46.51,154.47,47.05ZM101.18,97.51h0c.86-.39,1.71-.78,2.55-1.18C102.89,96.73,102,97.12,101.18,97.51Zm30.58-93-.83.62h0l.83-.62a67.71,67.71,0,0,0-15.63-3.37l-.36,0-.46-.05C103.35,0,89.56,1.27,75,5.39a138.54,138.54,0,0,0-19.26,7A133.49,133.49,0,0,0,36.57,23a112.06,112.06,0,0,0-16.21,13h0C11.74,44.51,5.5,53.72,2.49,62.87a34.41,34.41,0,0,0-1.1,19.45c0,.17.08.34.13.51a28.59,28.59,0,0,0,2.62,6.35,28.56,28.56,0,0,1-2.61-6.31C4.41,93.39,13,101.13,25.19,105.42a67.77,67.77,0,0,0,16.57,3.47c11.93,1.09,25.68-.24,40.18-4.35A137.17,137.17,0,0,0,120.39,86.9c19.55-13.06,33-30.05,35.65-46.23,0-.25.08-.51.11-.76a32.64,32.64,0,0,0,.07-8.93c0-.23-.06-.45-.1-.67v-.08c-.07-.45-.15-.88-.24-1.32.09.44.17.87.24,1.32C154.2,18.09,145.18,9.21,131.76,4.5Zm-76,104.56c.88,0,1.76-.11,2.65-.19C57.56,109,56.68,109,55.8,109.06Z"/>
            <path class="cls-47" d="M154.47,47.22l-2.14,0h0l2.14,0c.17-.54.34-1.07.49-1.61C154.81,46.15,154.64,46.68,154.47,47.22ZM101.23,97.63h0c.86-.38,1.71-.78,2.55-1.18C102.94,96.85,102.09,97.25,101.23,97.63Zm30.55-92.9-.83.62h0l.83-.63a67.62,67.62,0,0,0-15.62-3.36l-.35,0-.47,0C103.4.17,89.63,1.5,75.1,5.61a139.88,139.88,0,0,0-19.23,7,133.64,133.64,0,0,0-19.18,10.6,113.14,113.14,0,0,0-16.2,13h0C11.88,44.7,5.64,53.89,2.64,63a34.31,34.31,0,0,0-1.1,19.42c0,.17.09.34.13.51a28.59,28.59,0,0,0,2.62,6.35A28.18,28.18,0,0,1,1.69,83c2.87,10.5,11.43,18.24,23.63,22.52A67.61,67.61,0,0,0,41.87,109c11.92,1.09,25.65-.23,40.14-4.34A136.75,136.75,0,0,0,120.42,87C140,74,153.42,57,156,40.86c.05-.26.08-.51.12-.76a33.46,33.46,0,0,0,.07-8.93c0-.22-.07-.45-.1-.67l0-.08c-.06-.44-.15-.88-.24-1.31.09.43.17.87.25,1.31C154.2,18.3,145.18,9.42,131.78,4.73ZM55.89,109.18l2.65-.19Z"/>
            <path class="cls-48" d="M154.46,47.4l-2.13,0h0l2.13,0c.18-.54.35-1.08.5-1.61C154.81,46.32,154.64,46.86,154.46,47.4ZM101.28,97.76h0c.86-.39,1.71-.78,2.55-1.18C103,97,102.14,97.37,101.28,97.76ZM131.8,5l-.83.62h0L131.8,5a67,67,0,0,0-15.6-3.37l-.35,0-.47-.05c-11.93-1.1-25.69.22-40.2,4.33a137.85,137.85,0,0,0-19.21,7A131.57,131.57,0,0,0,36.8,23.44a111.51,111.51,0,0,0-16.17,13h0C12,44.88,5.79,54.06,2.79,63.2a34.32,34.32,0,0,0-1.1,19.4c.05.17.09.34.14.51a28,28,0,0,0,2.61,6.34,27.91,27.91,0,0,1-2.6-6.29c2.87,10.49,11.42,18.22,23.6,22.5A67.63,67.63,0,0,0,42,109.11c11.91,1.09,25.63-.23,40.1-4.33a136.61,136.61,0,0,0,38.37-17.61c19.52-13,33-30,35.58-46.13,0-.25.08-.51.11-.76a32.9,32.9,0,0,0,.07-8.91c0-.23-.06-.45-.1-.67v-.08c-.07-.44-.15-.88-.24-1.31.09.43.17.87.24,1.31C154.19,18.5,145.19,9.64,131.8,5ZM56,109.29c.88-.05,1.76-.11,2.65-.19C57.75,109.18,56.87,109.24,56,109.29Z"/>
            <path class="cls-49" d="M154.46,47.58l-2.13,0h0l2.13,0c.17-.54.34-1.08.49-1.61C154.8,46.5,154.63,47,154.46,47.58ZM101.33,97.89h0l2.55-1.18ZM131.82,5.17l-.83.62h0l.83-.62a67.36,67.36,0,0,0-15.59-3.36l-.35,0-.47,0C103.49.63,89.75,2,75.26,6.05a139,139,0,0,0-19.2,7A132.67,132.67,0,0,0,36.92,23.64a112,112,0,0,0-16.16,13h0C12.17,45.06,5.94,54.24,2.94,63.36a34.35,34.35,0,0,0-1.1,19.38c0,.17.09.34.14.51a28,28,0,0,0,2.61,6.34A28.1,28.1,0,0,1,2,83.3c2.87,10.48,11.41,18.2,23.58,22.48a67.46,67.46,0,0,0,16.52,3.45c11.89,1.09,25.6-.24,40.06-4.33a136.61,136.61,0,0,0,38.33-17.59c19.5-13,32.94-29.95,35.54-46.09l.12-.75a32.88,32.88,0,0,0,.06-8.91l-.09-.67,0-.08c-.07-.44-.15-.87-.24-1.31.09.44.17.87.24,1.31C154.19,18.71,145.19,9.86,131.82,5.17ZM56.09,109.4c.87-.05,1.76-.11,2.64-.18C57.85,109.29,57,109.35,56.09,109.4Z"/>
            <path class="cls-50" d="M154.45,47.76l-2.12,0h0l2.12,0c.18-.54.35-1.08.5-1.61C154.8,46.68,154.63,47.22,154.45,47.76ZM101.38,98h0c.86-.38,1.7-.78,2.54-1.18C103.08,97.23,102.24,97.63,101.38,98ZM131.84,5.39,131,6h0l.83-.62A66.79,66.79,0,0,0,116.27,2l-.35,0-.47,0C103.54.85,89.81,2.17,75.33,6.28a137.73,137.73,0,0,0-19.17,7A131.82,131.82,0,0,0,37,23.84a111.89,111.89,0,0,0-16.15,13h0C12.31,45.24,6.09,54.41,3.09,63.52A34.19,34.19,0,0,0,2,82.88c0,.17.08.34.13.51a27.75,27.75,0,0,0,2.61,6.33,27.83,27.83,0,0,1-2.6-6.28C5,93.91,13.54,101.63,25.7,105.89a67.3,67.3,0,0,0,16.5,3.45c11.88,1.09,25.58-.23,40-4.32a136.73,136.73,0,0,0,38.29-17.57c19.48-13,32.9-29.93,35.51-46,0-.25.07-.51.11-.76a32.75,32.75,0,0,0,.07-8.89c0-.23-.06-.45-.1-.67,0,0,0-.06,0-.08-.07-.44-.15-.88-.24-1.31.09.43.17.87.24,1.31C154.19,18.92,145.2,10.08,131.84,5.39ZM56.18,109.52c.88,0,1.76-.11,2.64-.19C57.94,109.41,57.06,109.47,56.18,109.52Z"/>
            <path class="cls-51" d="M154.45,47.94l-2.13,0h0l2.12,0c.18-.53.34-1.07.49-1.6C154.79,46.86,154.63,47.4,154.45,47.94Zm-53,50.2h0L104,97ZM131.86,5.61l-.83.62h0l.82-.62A67.42,67.42,0,0,0,116.3,2.26l-.35,0-.46,0c-11.9-1.1-25.61.22-40.08,4.32a138.25,138.25,0,0,0-19.15,7A132.24,132.24,0,0,0,37.15,24.05,112.7,112.7,0,0,0,21,37h0C12.45,45.42,6.24,54.58,3.25,63.69A34.12,34.12,0,0,0,2.15,83c0,.17.09.34.13.5a27.75,27.75,0,0,0,2.61,6.33A27.35,27.35,0,0,1,2.3,83.58C5.15,94,13.68,101.75,25.83,106a67.14,67.14,0,0,0,16.48,3.45c11.87,1.08,25.55-.24,40-4.33a136.16,136.16,0,0,0,38.25-17.55c19.46-13,32.87-29.89,35.47-46,0-.25.08-.5.11-.75a32.75,32.75,0,0,0,.07-8.89c0-.22-.06-.45-.1-.67a.25.25,0,0,0,0-.08c-.07-.44-.15-.87-.24-1.3.09.43.17.86.24,1.3C154.18,19.13,145.2,10.29,131.86,5.61Zm-75.58,104,2.64-.18Z"/>
            <path class="cls-52" d="M154.44,48.11l-2.12,0h0l2.12,0c.18-.53.35-1.07.5-1.6C154.79,47,154.62,47.58,154.44,48.11Zm-53,50.15h0c.85-.38,1.7-.77,2.54-1.17C103.18,97.49,102.33,97.88,101.48,98.26ZM131.87,5.84l-.82.61h0l.82-.61a66.33,66.33,0,0,0-15.53-3.35l-.35,0-.47,0c-11.88-1.1-25.58.21-40,4.31a137.77,137.77,0,0,0-19.14,7A130.86,130.86,0,0,0,37.27,24.25a111.9,111.9,0,0,0-16.11,13h0C12.59,45.6,6.38,54.75,3.4,63.85A34.14,34.14,0,0,0,2.3,83.17c0,.17.09.34.13.51A28.72,28.72,0,0,0,5,90a28,28,0,0,1-2.59-6.28C5.3,94.17,13.82,101.87,26,106.13a66.88,66.88,0,0,0,16.46,3.44c11.86,1.09,25.52-.23,39.94-4.32a136.29,136.29,0,0,0,38.21-17.53C140,74.74,153.41,57.86,156,41.78c.05-.25.08-.51.12-.76a32.2,32.2,0,0,0,.06-8.87c0-.23-.05-.45-.09-.67,0,0,0-.06,0-.08-.06-.44-.14-.88-.24-1.31.1.43.17.87.25,1.31C154.18,19.34,145.21,10.51,131.87,5.84ZM56.37,109.75c.88,0,1.76-.12,2.64-.19C58.13,109.63,57.25,109.7,56.37,109.75Z"/>
            <path class="cls-53" d="M154.44,48.29l-2.12,0h0l2.12,0c.18-.54.34-1.07.49-1.6C154.78,47.22,154.62,47.75,154.44,48.29Zm-52.91,50.1h0c.85-.39,1.7-.78,2.53-1.18C103.23,97.61,102.38,98,101.53,98.39ZM131.89,6.06l-.82.62h0l.82-.62a66.76,66.76,0,0,0-15.52-3.35l-.35,0-.46-.05c-11.87-1.09-25.56.22-40,4.31a138.29,138.29,0,0,0-19.12,7A132,132,0,0,0,37.39,24.45a112.43,112.43,0,0,0-16.1,13h0C12.73,45.78,6.53,54.92,3.55,64a34.07,34.07,0,0,0-1.1,19.3c0,.17.09.34.14.51a28.39,28.39,0,0,0,2.59,6.31A28.28,28.28,0,0,1,2.6,83.87C5.45,94.3,14,102,26.08,106.25a67.45,67.45,0,0,0,16.45,3.44c11.85,1.08,25.5-.24,39.9-4.32A136.28,136.28,0,0,0,120.6,87.86C140,74.89,153.44,58,156,42c0-.25.08-.5.11-.75a32.61,32.61,0,0,0,.07-8.87c0-.22-.06-.45-.1-.67,0,0,0-.05,0-.08-.07-.44-.15-.87-.24-1.3.09.43.17.86.24,1.3C154.17,19.54,145.22,10.73,131.89,6.06ZM56.47,109.86c.87,0,1.75-.11,2.63-.19C58.22,109.75,57.34,109.81,56.47,109.86Z"/>
            <path class="cls-54" d="M154.43,48.47l-2.11,0h0l2.11,0c.18-.54.35-1.07.5-1.6C154.78,47.4,154.61,47.93,154.43,48.47Zm-52.85,50h0c.85-.38,1.69-.77,2.53-1.17C103.27,97.74,102.43,98.13,101.58,98.51ZM131.91,6.28l-.82.62h0l.82-.62a66.7,66.7,0,0,0-15.5-3.34l-.35,0-.47,0c-11.85-1.1-25.53.22-39.95,4.3a138.37,138.37,0,0,0-19.09,7,131.38,131.38,0,0,0-19,10.52A111.45,111.45,0,0,0,21.42,37.6h0C12.88,46,6.68,55.1,3.7,64.17A34.09,34.09,0,0,0,2.61,83.45c0,.17.08.34.13.51a28.39,28.39,0,0,0,2.59,6.31A28.28,28.28,0,0,1,2.75,84C5.6,94.44,14.1,102.12,26.21,106.37a67.29,67.29,0,0,0,16.43,3.43c11.84,1.08,25.47-.23,39.86-4.31A135.73,135.73,0,0,0,120.63,88C140,75,153.43,58.2,156,42.15c0-.25.08-.51.11-.76a32.46,32.46,0,0,0,.07-8.85l-.09-.67s0-.06,0-.08c-.07-.44-.15-.87-.24-1.3.09.43.17.86.24,1.3C154.17,19.75,145.22,10.94,131.91,6.28ZM56.57,110l2.63-.19Z"/>
          </g>
          <g class="cls-55">
            <path class="cls-54" d="M132.67,6.08h0A67.62,67.62,0,0,0,117,2.7l-.36,0-.47,0c-12-1.11-25.82.21-40.4,4.35A139.74,139.74,0,0,0,56.45,14,132.29,132.29,0,0,0,37.19,24.66,112.87,112.87,0,0,0,20.93,37.75h0C12.28,46.21,6,55.45,3,64.63a34.41,34.41,0,0,0-1.1,19.5c0,.17.08.34.13.51A28.38,28.38,0,0,0,4.66,91a27.78,27.78,0,0,1-2.61-6.33C4.93,95.24,13.52,103,25.77,107.31a67.81,67.81,0,0,0,16.62,3.47c12,1.1,25.76-.23,40.31-4.35a137.62,137.62,0,0,0,38.57-17.7C140.88,75.63,154.44,58.6,157,42.36c0-.25.07-.51.11-.76a33.27,33.27,0,0,0,.07-9c0-.23-.07-.45-.1-.68,0,0,0-.05,0-.08-.08-.44-.16-.88-.25-1.32.09.44.17.88.25,1.32C155.18,19.71,146.13,10.8,132.67,6.08Z"/>
            <path class="cls-53" d="M132.58,5.87h0A67.62,67.62,0,0,0,116.9,2.49l-.35,0-.47,0c-12-1.11-25.82.22-40.41,4.35a139.74,139.74,0,0,0-19.31,7.05A132.85,132.85,0,0,0,37.1,24.46,111.53,111.53,0,0,0,20.84,37.55h0C12.19,46,5.93,55.24,2.91,64.42a34.62,34.62,0,0,0-1.1,19.51c0,.17.09.34.13.51a28.38,28.38,0,0,0,2.63,6.38A28.44,28.44,0,0,1,2,84.49C4.84,95,13.43,102.8,25.69,107.1a67.63,67.63,0,0,0,16.61,3.48c12,1.1,25.76-.23,40.31-4.36a137.47,137.47,0,0,0,38.57-17.69c19.61-13.1,33.17-30.14,35.76-46.37,0-.26.08-.51.11-.77a32.86,32.86,0,0,0,.07-9c0-.22-.06-.45-.1-.67,0,0,0-.06,0-.08-.07-.45-.15-.88-.24-1.32q.14.66.24,1.32C155.09,19.5,146,10.59,132.58,5.87Z"/>
            <path class="cls-52" d="M132.49,5.67h0a67.62,67.62,0,0,0-15.68-3.38l-.35,0-.47,0c-12-1.11-25.82.22-40.41,4.35a139.74,139.74,0,0,0-19.31,7.05A134.31,134.31,0,0,0,37,24.25,113.43,113.43,0,0,0,20.75,37.34h0C12.11,45.8,5.84,55,2.83,64.22a34.51,34.51,0,0,0-1.11,19.5c.05.17.09.34.14.51a28.35,28.35,0,0,0,2.62,6.38,28.24,28.24,0,0,1-2.61-6.33C4.75,94.83,13.35,102.6,25.6,106.9a68.1,68.1,0,0,0,16.61,3.48c12,1.09,25.77-.24,40.31-4.36a137.21,137.21,0,0,0,38.57-17.7c19.62-13.1,33.17-30.13,35.76-46.37,0-.25.08-.51.11-.76a32.87,32.87,0,0,0,.07-9c0-.23-.06-.45-.1-.68,0,0,0-.05,0-.08-.07-.44-.15-.88-.24-1.31.09.43.17.87.24,1.31C155,19.3,146,10.39,132.49,5.67Z"/>
            <path class="cls-56" d="M132.41,5.47h0a67.19,67.19,0,0,0-15.69-3.38l-.35,0-.47,0c-12-1.12-25.82.21-40.4,4.35a138.12,138.12,0,0,0-19.32,7.05A133.34,133.34,0,0,0,36.92,24.05,114,114,0,0,0,20.66,37.14h0C12,45.6,5.75,54.84,2.74,64a34.5,34.5,0,0,0-1.11,19.5c.05.17.09.34.14.51a28.83,28.83,0,0,0,2.62,6.38,28.92,28.92,0,0,1-2.61-6.33C4.66,94.63,13.26,102.4,25.51,106.7a67.81,67.81,0,0,0,16.62,3.47c12,1.1,25.76-.23,40.31-4.35A137.55,137.55,0,0,0,121,88.12C140.62,75,154.18,58,156.76,41.75l.12-.76a33.25,33.25,0,0,0,.06-9l-.09-.68s0-.05,0-.08c-.06-.44-.15-.88-.24-1.32q.14.66.24,1.32C154.92,19.09,145.87,10.19,132.41,5.47Z"/>
            <path class="cls-50" d="M132.32,5.26h0a67.62,67.62,0,0,0-15.68-3.38l-.36,0-.47-.05C103.82.69,90,2,75.41,6.15a139.27,139.27,0,0,0-19.31,7A133.24,133.24,0,0,0,36.84,23.84a112.89,112.89,0,0,0-16.27,13.1h0C11.93,45.4,5.67,54.63,2.65,63.81a34.41,34.41,0,0,0-1.1,19.5c0,.18.08.35.13.52a28.57,28.57,0,0,0,2.63,6.38,28.47,28.47,0,0,1-2.62-6.33c2.89,10.54,11.48,18.31,23.73,22.61A67.81,67.81,0,0,0,42,110c12,1.1,25.76-.24,40.31-4.36a137.54,137.54,0,0,0,38.56-17.69c19.62-13.1,33.18-30.14,35.76-46.38.05-.25.08-.5.12-.76a33.27,33.27,0,0,0,.07-9c0-.22-.07-.45-.1-.67,0,0,0-.06,0-.08-.06-.45-.15-.89-.24-1.32q.13.64.24,1.32C154.83,18.89,145.78,10,132.32,5.26Z"/>
            <path class="cls-49" d="M132.23,5.06h0a67.62,67.62,0,0,0-15.68-3.38l-.35,0-.48,0C103.73.49,89.9,1.82,75.32,6A139.74,139.74,0,0,0,56,13,132.81,132.81,0,0,0,36.75,23.64,112.87,112.87,0,0,0,20.49,36.73h0C11.84,45.19,5.58,54.43,2.56,63.61a34.41,34.41,0,0,0-1.1,19.5c0,.17.09.34.13.51A28.38,28.38,0,0,0,4.22,90a27.78,27.78,0,0,1-2.61-6.33C4.49,94.22,13.08,102,25.33,106.29A68.28,68.28,0,0,0,42,109.77c12,1.09,25.76-.24,40.31-4.36a137.34,137.34,0,0,0,38.57-17.7c19.61-13.1,33.17-30.13,35.76-46.37,0-.25.07-.51.11-.76a33.27,33.27,0,0,0,.07-9c0-.23-.06-.45-.1-.68,0,0,0-.05,0-.08-.07-.44-.16-.88-.25-1.32.09.44.18.88.25,1.32C154.74,18.69,145.69,9.78,132.23,5.06Z"/>
            <path class="cls-48" d="M132.14,4.86h0a68.14,68.14,0,0,0-15.68-3.38l-.35,0-.47-.05c-12-1.11-25.82.22-40.41,4.35A139.77,139.77,0,0,0,55.92,12.8,131.87,131.87,0,0,0,36.66,23.44,112.2,112.2,0,0,0,20.4,36.53h0C11.75,45,5.49,54.22,2.48,63.41a34.5,34.5,0,0,0-1.11,19.5c0,.17.09.34.13.51A28.85,28.85,0,0,0,4.13,89.8a28.44,28.44,0,0,1-2.61-6.33C4.4,94,13,101.79,25.25,106.09a67.63,67.63,0,0,0,16.61,3.47c12,1.1,25.77-.23,40.31-4.36a137.19,137.19,0,0,0,38.57-17.69c19.61-13.1,33.17-30.14,35.76-46.37,0-.26.08-.51.11-.76a32.94,32.94,0,0,0,.07-9c0-.22-.06-.45-.1-.67,0,0,0,0,0-.08q-.1-.66-.24-1.32.13.66.24,1.32C154.65,18.48,145.6,9.57,132.14,4.86Z"/>
            <path class="cls-47" d="M132.05,4.65h0a67.62,67.62,0,0,0-15.68-3.38l-.35,0-.47,0c-12-1.11-25.82.22-40.4,4.35a139.4,139.4,0,0,0-19.32,7.05A134.31,134.31,0,0,0,36.57,23.23a112.79,112.79,0,0,0-16.26,13.1h0C11.67,44.78,5.4,54,2.39,63.2A34.51,34.51,0,0,0,1.28,82.7c.05.17.09.35.14.52A28.28,28.28,0,0,0,4,89.59a28.24,28.24,0,0,1-2.61-6.33c2.88,10.55,11.48,18.32,23.73,22.62a67.61,67.61,0,0,0,16.62,3.48c12,1.09,25.76-.24,40.3-4.36a137.47,137.47,0,0,0,38.57-17.69c19.62-13.1,33.17-30.14,35.76-46.38,0-.25.08-.51.11-.76a32.86,32.86,0,0,0,.07-9c0-.22-.06-.45-.1-.67a.28.28,0,0,0,0-.09c-.07-.44-.15-.88-.24-1.31.09.43.17.87.24,1.31C154.57,18.28,145.51,9.37,132.05,4.65Z"/>
            <path class="cls-57" d="M132,4.45h0a67.71,67.71,0,0,0-15.69-3.38l-.35,0-.47,0c-12-1.11-25.82.21-40.4,4.35a139.4,139.4,0,0,0-19.32,7.05A133.34,133.34,0,0,0,36.48,23,114,114,0,0,0,20.22,36.12h0C11.58,44.58,5.31,53.82,2.3,63A34.5,34.5,0,0,0,1.19,82.5c.05.17.09.34.14.51A28.83,28.83,0,0,0,4,89.39a28.72,28.72,0,0,1-2.61-6.33c2.88,10.55,11.48,18.32,23.73,22.62a67.81,67.81,0,0,0,16.62,3.47c12,1.1,25.76-.23,40.31-4.35a137.55,137.55,0,0,0,38.56-17.7C140.18,74,153.74,57,156.32,40.73l.12-.76a33.25,33.25,0,0,0,.06-9l-.09-.68s0,0,0-.08q-.1-.66-.24-1.32.14.66.24,1.32C154.48,18.08,145.43,9.17,132,4.45Z"/>
            <path class="cls-45" d="M131.88,4.24h0A67.62,67.62,0,0,0,116.2.86l-.36,0-.47,0C103.38-.33,89.55,1,75,5.13a139.27,139.27,0,0,0-19.31,7.05A132.33,132.33,0,0,0,36.4,22.83,111.53,111.53,0,0,0,20.14,35.92h0C11.49,44.38,5.23,53.61,2.21,62.79A34.45,34.45,0,0,0,1.11,82.3c0,.17.08.34.13.51a28.38,28.38,0,0,0,2.63,6.38,28.47,28.47,0,0,1-2.62-6.33C4.14,93.4,12.73,101.17,25,105.47A67.81,67.81,0,0,0,41.6,109c12,1.1,25.76-.23,40.31-4.36A137.54,137.54,0,0,0,120.47,86.9c19.62-13.1,33.15-30.14,35.76-46.37.05-.26.08-.51.12-.77a33.27,33.27,0,0,0,.07-9c0-.22-.07-.45-.1-.67,0,0,0-.06,0-.08-.06-.45-.15-.88-.24-1.32.09.44.17.87.25,1.32C154.39,17.87,145.34,9,131.88,4.24Z"/>
            <path class="cls-44" d="M131.79,4h0A67.62,67.62,0,0,0,116.11.66l-.35,0-.47,0c-12-1.11-25.83.22-40.41,4.35A139.74,139.74,0,0,0,55.57,12,133.77,133.77,0,0,0,36.31,22.62,112.87,112.87,0,0,0,20.05,35.71h0C11.4,44.17,5.14,53.41,2.12,62.59A34.41,34.41,0,0,0,1,82.09c0,.17.09.34.13.51A28.38,28.38,0,0,0,3.78,89a27.78,27.78,0,0,1-2.61-6.33C4.05,93.2,12.64,101,24.89,105.27a68.28,68.28,0,0,0,16.62,3.48c12,1.09,25.76-.24,40.31-4.36a137.34,137.34,0,0,0,38.57-17.7c19.61-13.1,33.14-30.14,35.76-46.37,0-.25.07-.51.11-.76a32.87,32.87,0,0,0,.07-9c0-.23-.06-.45-.1-.68v-.08c-.07-.44-.15-.88-.25-1.31.1.43.18.87.25,1.31C154.3,17.67,145.25,8.76,131.79,4Z"/>
            <path class="cls-28" d="M131.7,3.84h0A67.11,67.11,0,0,0,116,.46l-.35,0-.47,0c-12-1.12-25.82.21-40.41,4.34a139.77,139.77,0,0,0-19.31,7.06A132.81,132.81,0,0,0,36.22,22.42,113.43,113.43,0,0,0,20,35.51h0C11.31,44,5.05,53.21,2,62.39A34.5,34.5,0,0,0,.93,81.89c0,.17.09.34.13.51a28.85,28.85,0,0,0,2.63,6.38,28.44,28.44,0,0,1-2.61-6.33C4,93,12.55,100.77,24.81,105.07a67.63,67.63,0,0,0,16.61,3.47c12,1.1,25.77-.23,40.31-4.35a137.49,137.49,0,0,0,38.57-17.7c19.61-13.1,33.17-30.13,35.76-46.37,0-.26.08-.51.11-.76a32.87,32.87,0,0,0,.07-9c0-.23-.06-.46-.1-.68,0,0,0,0,0-.08q-.1-.66-.24-1.32.13.66.24,1.32C154.21,17.46,145.16,8.56,131.7,3.84Z"/>
            <path class="cls-44" d="M131.53,3.83h0A66.85,66.85,0,0,0,115.88.47l-.35,0-.47,0c-12-1.11-25.75.22-40.3,4.35a138.68,138.68,0,0,0-19.27,7A133.76,133.76,0,0,0,36.27,22.39a112.83,112.83,0,0,0-16.22,13h0C11.42,43.88,5.17,53.09,2.16,62.24A34.3,34.3,0,0,0,1.05,81.68c0,.17.09.35.13.51A28.47,28.47,0,0,0,3.8,88.55a28.06,28.06,0,0,1-2.6-6.31c2.87,10.52,11.44,18.26,23.66,22.54a67.41,67.41,0,0,0,16.57,3.46c11.94,1.09,25.7-.24,40.21-4.36a137.24,137.24,0,0,0,38.48-17.65C139.69,73.16,153.19,56.17,155.81,40c0-.25.08-.51.11-.76A32.65,32.65,0,0,0,156,30.3l-.09-.67,0-.09c-.07-.44-.15-.87-.24-1.31.09.44.17.87.24,1.31C154,17.41,145,8.53,131.53,3.83Z"/>
            <path class="cls-45" d="M131.35,3.82h0A67.45,67.45,0,0,0,115.75.48l-.35,0-.47,0C103-.7,89.23.63,74.72,4.75a138.45,138.45,0,0,0-19.22,7A133.17,133.17,0,0,0,36.32,22.36a112.81,112.81,0,0,0-16.19,13h0C11.53,43.79,5.29,53,2.28,62.1A34.18,34.18,0,0,0,1.17,81.48c0,.17.08.34.13.51a28,28,0,0,0,2.61,6.34A28.1,28.1,0,0,1,1.31,82c2.86,10.48,11.41,18.19,23.6,22.46a67.54,67.54,0,0,0,16.53,3.44c11.91,1.08,25.64-.25,40.11-4.36A137,137,0,0,0,119.94,86c19.53-13,33-30,35.62-46.11,0-.25.08-.5.11-.75a32.91,32.91,0,0,0,.08-8.91c0-.22-.06-.45-.1-.67v-.08c-.07-.44-.15-.88-.24-1.31.09.43.17.87.24,1.31C153.74,17.35,144.74,8.5,131.35,3.82Z"/>
            <path class="cls-46" d="M131.17,3.82h0A67.11,67.11,0,0,0,115.61.49l-.35,0-.47,0C102.89-.68,89.16.65,74.68,4.76a139.05,139.05,0,0,0-19.17,7A131.94,131.94,0,0,0,36.38,22.33a112.45,112.45,0,0,0-16.16,13h0C11.63,43.7,5.4,52.86,2.4,62A34.16,34.16,0,0,0,1.28,81.28c.05.17.09.34.14.5A27.84,27.84,0,0,0,4,88.1a27.73,27.73,0,0,1-2.59-6.27C4.28,92.28,12.8,100,25,104.21a67.69,67.69,0,0,0,16.49,3.43c11.88,1.07,25.57-.26,40-4.36a137.21,137.21,0,0,0,38.3-17.57c19.48-13,32.92-29.89,35.54-46l.12-.75a32.68,32.68,0,0,0,.07-8.88l-.09-.67s0-.05,0-.08c-.07-.43-.15-.87-.24-1.3.09.43.17.87.24,1.3C153.5,17.3,144.53,8.48,131.17,3.82Z"/>
            <path class="cls-47" d="M131,3.81h0A66.88,66.88,0,0,0,115.48.5l-.35,0-.47,0c-11.87-1.08-25.57.25-40,4.35a139.76,139.76,0,0,0-19.13,7A132.35,132.35,0,0,0,36.43,22.3a111.9,111.9,0,0,0-16.12,13h0C11.74,43.61,5.52,52.74,2.52,61.81A34,34,0,0,0,1.4,81.07c.05.17.09.34.13.51a27.61,27.61,0,0,0,2.6,6.29,27.21,27.21,0,0,1-2.58-6.24C4.39,92,12.88,99.7,25,103.93a67.36,67.36,0,0,0,16.45,3.41C53.31,108.4,67,107.07,81.38,103a136.85,136.85,0,0,0,38.21-17.53c19.44-13,32.86-29.81,35.47-45.84l.12-.76a32.87,32.87,0,0,0,.08-8.85c0-.22-.06-.44-.1-.66,0,0,0-.06,0-.08-.07-.44-.15-.87-.24-1.3.09.43.17.86.24,1.3C153.27,17.24,144.32,8.45,131,3.81Z"/>
            <path class="cls-48" d="M130.82,3.81h0A67,67,0,0,0,115.34.51l-.35,0-.46,0C102.68-.64,89,.69,74.61,4.78a138.37,138.37,0,0,0-19.09,7,132.72,132.72,0,0,0-19,10.51A111.31,111.31,0,0,0,20.4,35.18h0C11.84,43.53,5.64,52.63,2.65,61.67a33.75,33.75,0,0,0-1.13,19.2c0,.17.09.34.13.5a28.41,28.41,0,0,0,2.58,6.28,28.5,28.5,0,0,1-2.57-6.23c2.83,10.38,11.31,18,23.4,22.22A67,67,0,0,0,41.47,107c11.82,1,25.44-.28,39.82-4.37a136.61,136.61,0,0,0,38.12-17.48c19.4-12.93,32.79-29.73,35.4-45.71l.12-.75a32.66,32.66,0,0,0,.08-8.82l-.09-.67s0,0,0-.08c-.07-.43-.15-.86-.23-1.29.08.43.16.86.23,1.29C153,17.18,144.11,8.43,130.82,3.81Z"/>
            <path class="cls-49" d="M130.65,3.8h0A67.11,67.11,0,0,0,115.2.52l-.35,0-.46,0C102.58-.62,89,.71,74.57,4.79a139.43,139.43,0,0,0-19,7,133.15,133.15,0,0,0-19,10.49,112,112,0,0,0-16,12.88h0C12,43.44,5.76,52.51,2.77,61.53A33.72,33.72,0,0,0,1.64,80.67c0,.16.08.33.13.5a27.87,27.87,0,0,0,2.57,6.25,27.76,27.76,0,0,1-2.56-6.2c2.82,10.34,11.27,18,23.33,22.14a66.81,66.81,0,0,0,16.37,3.37c11.79,1,25.38-.28,39.72-4.36a136.39,136.39,0,0,0,38-17.44C138.59,72,152,55.29,154.57,39.35c0-.25.07-.5.11-.75a32.44,32.44,0,0,0,.08-8.79l-.09-.66v-.08q-.1-.66-.24-1.29.14.63.24,1.29C152.8,17.13,143.9,8.4,130.65,3.8Z"/>
            <path class="cls-50" d="M130.47,3.8h0A66.88,66.88,0,0,0,115.07.53l-.35,0-.46,0C102.47-.61,88.88.73,74.54,4.81a137.87,137.87,0,0,0-19,6.94A131.9,131.9,0,0,0,36.59,22.21a111.06,111.06,0,0,0-16,12.84h0C12.05,43.35,5.88,52.4,2.89,61.39A33.48,33.48,0,0,0,1.76,80.46c0,.17.08.34.13.5a27.5,27.5,0,0,0,2.56,6.23A27.57,27.57,0,0,1,1.9,81C4.71,91.32,13.13,98.9,25.16,103.07a67,67,0,0,0,16.32,3.36c11.77,1,25.32-.29,39.63-4.36a136.51,136.51,0,0,0,38-17.4c19.31-12.86,32.67-29.56,35.26-45.45,0-.25.07-.5.11-.74a32.3,32.3,0,0,0,.09-8.77c0-.22-.06-.44-.1-.66V29c-.07-.43-.15-.86-.23-1.29.08.43.16.86.23,1.29C152.56,17.07,143.69,8.38,130.47,3.8Z"/>
            <path class="cls-51" d="M130.29,3.79h0A66.54,66.54,0,0,0,114.93.54l-.35,0-.46,0c-11.75-1-25.31.29-39.62,4.36a137.17,137.17,0,0,0-19,6.93A130.88,130.88,0,0,0,36.64,22.18,111.06,111.06,0,0,0,20.66,35h0C12.16,43.26,6,52.28,3,61.24a33.58,33.58,0,0,0-1.14,19c0,.16.09.33.13.5A27.53,27.53,0,0,0,4.56,87,27,27,0,0,1,2,80.8c2.79,10.28,11.2,17.83,23.19,22a66.54,66.54,0,0,0,16.28,3.34c11.74,1,25.26-.3,39.53-4.36a136.16,136.16,0,0,0,37.86-17.36c19.27-12.83,32.61-29.48,35.19-45.32,0-.24.08-.49.11-.74a31.69,31.69,0,0,0,.09-8.74l-.09-.65v-.08q-.1-.64-.24-1.29.13.64.24,1.29C152.32,17,143.47,8.35,130.29,3.79Z"/>
            <path class="cls-52" d="M130.12,3.78h0A66.81,66.81,0,0,0,114.79.55l-.34,0-.46,0c-11.72-1-25.25.3-39.52,4.36a137.88,137.88,0,0,0-18.91,6.91A131.3,131.3,0,0,0,36.69,22.15,110.47,110.47,0,0,0,20.75,34.92h0C12.27,43.17,6.11,52.17,3.13,61.1A33.34,33.34,0,0,0,2,80.05c0,.17.09.34.13.5a27.62,27.62,0,0,0,2.55,6.19A27.71,27.71,0,0,1,2.13,80.6C4.92,90.84,13.3,98.36,25.26,102.5a66.32,66.32,0,0,0,16.24,3.33c11.7,1,25.2-.31,39.43-4.36A136.22,136.22,0,0,0,118.7,84.15c19.22-12.8,32.54-29.4,35.12-45.18,0-.25.08-.5.11-.75a31.8,31.8,0,0,0,.1-8.7c0-.22-.06-.44-.1-.66v-.08c-.07-.43-.15-.85-.23-1.28.08.43.16.85.23,1.28C152.09,17,143.26,8.33,130.12,3.78Z"/>
            <path class="cls-53" d="M129.94,3.78h0A66.48,66.48,0,0,0,114.66.56l-.35,0-.46,0c-11.69-1-25.18.3-39.42,4.36a135.88,135.88,0,0,0-18.86,6.9A131.25,131.25,0,0,0,36.74,22.12,111.13,111.13,0,0,0,20.83,34.86h0C12.37,43.08,6.23,52.05,3.26,61A33.14,33.14,0,0,0,2.11,79.85c0,.17.08.33.13.5a27.36,27.36,0,0,0,2.54,6.17,27.13,27.13,0,0,1-2.53-6.13C5,90.6,13.38,98.1,25.32,102.22a66.28,66.28,0,0,0,16.19,3.31c11.67,1,25.13-.32,39.33-4.37a135.69,135.69,0,0,0,37.68-17.27c19.18-12.76,32.47-29.31,35.05-45,0-.25.08-.5.11-.74a31.66,31.66,0,0,0,.1-8.68l-.09-.66,0-.07c-.06-.43-.14-.86-.23-1.28.09.42.17.85.24,1.28C151.85,16.9,143.05,8.3,129.94,3.78Z"/>
            <path class="cls-54" d="M129.76,3.77h0A66,66,0,0,0,114.52.57l-.34,0-.46-.05C102.06-.53,88.6.8,74.39,4.85a137.57,137.57,0,0,0-18.82,6.89A131.08,131.08,0,0,0,36.79,22.09a111.23,111.23,0,0,0-15.87,12.7h0C12.48,43,6.35,51.93,3.38,60.81A33.06,33.06,0,0,0,2.23,79.65c0,.16.08.33.13.49a27,27,0,0,0,2.53,6.15,27.07,27.07,0,0,1-2.52-6.1c2.76,10.17,11.09,17.64,23,21.74a66,66,0,0,0,16.15,3.3c11.64,1,25.07-.33,39.24-4.37a135.6,135.6,0,0,0,37.59-17.23c19.13-12.73,32.39-29.23,35-44.92,0-.25.08-.49.11-.74a31.45,31.45,0,0,0,.1-8.65c0-.22-.05-.43-.09-.65v-.08c-.07-.43-.14-.85-.23-1.27.09.42.16.84.23,1.27C151.61,16.84,142.84,8.28,129.76,3.77Z"/>
          </g>
        </g>
      </g>
    </g>
  </g>
</svg>
