<svg xmlns="http://www.w3.org/2000/svg" xmlns:xlink="http://www.w3.org/1999/xlink" width="148.37" height="133.54" viewBox="0 0 148.37 133.54">
  <defs>
    <style>
      .cls-1 {
        isolation: isolate;
      }

      .cls-2 {
        fill: #d40d0d;
      }

      .cls-3 {
        fill: #f02121;
      }

      .cls-4 {
        fill: #f4f4f4;
      }

      .cls-5 {
        fill: #dcddde;
      }

      .cls-29, .cls-42, .cls-6 {
        mix-blend-mode: multiply;
      }

      .cls-7 {
        fill: #c4c4c4;
      }

      .cls-8 {
        opacity: 0.91;
      }

      .cls-9 {
        fill: #c9c9c9;
      }

      .cls-10 {
        opacity: 0.82;
      }

      .cls-11 {
        fill: #cfcfcf;
      }

      .cls-12 {
        opacity: 0.73;
      }

      .cls-13 {
        fill: #d4d4d4;
      }

      .cls-14 {
        opacity: 0.64;
      }

      .cls-15, .cls-36 {
        fill: #d9d9d9;
      }

      .cls-16 {
        opacity: 0.55;
      }

      .cls-17 {
        fill: #dfdfdf;
      }

      .cls-18 {
        opacity: 0.45;
      }

      .cls-19 {
        fill: #e4e4e4;
      }

      .cls-20 {
        opacity: 0.36;
      }

      .cls-21 {
        fill: #eaeaea;
      }

      .cls-22 {
        opacity: 0.27;
      }

      .cls-23 {
        fill: #efefef;
      }

      .cls-24 {
        opacity: 0.18;
      }

      .cls-25 {
        opacity: 0.09;
      }

      .cls-26 {
        fill: #fafafa;
      }

      .cls-27, .cls-30, .cls-54 {
        opacity: 0;
      }

      .cls-28, .cls-30 {
        fill: #fff;
      }

      .cls-29 {
        fill: url(#linear-gradient);
      }

      .cls-31 {
        fill: #f9f9f9;
      }

      .cls-31, .cls-53 {
        opacity: 0.09;
      }

      .cls-32 {
        fill: #f2f2f2;
      }

      .cls-32, .cls-52 {
        opacity: 0.18;
      }

      .cls-33 {
        fill: #ececec;
      }

      .cls-33, .cls-56 {
        opacity: 0.27;
      }

      .cls-34 {
        fill: #e6e6e6;
      }

      .cls-34, .cls-50 {
        opacity: 0.36;
      }

      .cls-35 {
        fill: #e0e0e0;
      }

      .cls-35, .cls-49 {
        opacity: 0.45;
      }

      .cls-36, .cls-48 {
        opacity: 0.55;
      }

      .cls-37 {
        fill: #d3d3d3;
      }

      .cls-37, .cls-47 {
        opacity: 0.64;
      }

      .cls-38 {
        fill: #cdcdcd;
      }

      .cls-38, .cls-57 {
        opacity: 0.73;
      }

      .cls-39 {
        fill: #c7c7c7;
      }

      .cls-39, .cls-45 {
        opacity: 0.82;
      }

      .cls-40 {
        fill: silver;
      }

      .cls-40, .cls-44 {
        opacity: 0.91;
      }

      .cls-41 {
        fill: #bababa;
      }

      .cls-42, .cls-43 {
        opacity: 0.5;
      }

      .cls-42 {
        fill: url(#linear-gradient-2);
      }

      .cls-43, .cls-55 {
        mix-blend-mode: screen;
      }

      .cls-44 {
        fill: #e8e8e8;
      }

      .cls-45 {
        fill: #d1d1d1;
      }

      .cls-46, .cls-57 {
        fill: #b9b9b9;
      }

      .cls-46 {
        opacity: 0.73;
      }

      .cls-47 {
        fill: #a2a2a2;
      }

      .cls-48 {
        fill: #8b8b8b;
      }

      .cls-49 {
        fill: #747474;
      }

      .cls-50 {
        fill: #5d5d5d;
      }

      .cls-51, .cls-56 {
        fill: #464646;
      }

      .cls-51 {
        opacity: 0.27;
      }

      .cls-52 {
        fill: #2e2e2e;
      }

      .cls-53 {
        fill: #171717;
      }

      .cls-55 {
        opacity: 0.2;
      }
    </style>
    <linearGradient id="linear-gradient" x1="-141.77" y1="-268.4" x2="17.83" y2="-268.4" gradientTransform="translate(-46.15 338.95) rotate(35.87)" gradientUnits="userSpaceOnUse">
      <stop offset="0" stop-color="#d2d3d4"/>
      <stop offset="0.04" stop-color="#d9d9da"/>
      <stop offset="0.2" stop-color="#eeeeef"/>
      <stop offset="0.35" stop-color="#fbfbfb"/>
      <stop offset="0.5" stop-color="#fff"/>
      <stop offset="0.65" stop-color="#fbfbfb"/>
      <stop offset="0.8" stop-color="#f0f0f1"/>
      <stop offset="0.94" stop-color="#dddedf"/>
      <stop offset="1" stop-color="#d2d3d4"/>
    </linearGradient>
    <linearGradient id="linear-gradient-2" x1="83.4" y1="71.18" x2="83.4" y2="-45.6" gradientTransform="translate(-3.55 42.12) rotate(3.99)" gradientUnits="userSpaceOnUse">
      <stop offset="0" stop-color="#dcddde"/>
      <stop offset="0.31" stop-color="#eeeeef"/>
      <stop offset="0.67" stop-color="#fbfbfb"/>
      <stop offset="1" stop-color="#fff"/>
    </linearGradient>
  </defs>
  <g class="cls-1">
    <g id="Слой_2" data-name="Слой 2">
      <g id="Слой_1-2" data-name="Слой 1">
        <g>
          <path class="cls-2" d="M10.13,41.31l-.15-.8,0-.14c0-.26-.09-.51-.13-.76l0-.15-.12-.77,0-.09c0-.26-.07-.52-.1-.77a.13.13,0,0,1,0-.06c0-.27-.07-.53-.1-.79,0,0,0-.07,0-.11,0-.25-.06-.51-.08-.76a.62.62,0,0,1,0-.13c0-.26-.05-.51-.07-.77v-.06c0-.25,0-.5,0-.74a.28.28,0,0,1,0-.09l0-.74a.76.76,0,0,1,0-.15c0-.25,0-.49,0-.73v-.11c0-.25,0-.51,0-.76h0c0-.25,0-.5,0-.75V31l0-.7v-.14c0-.24,0-.47,0-.71,0,0,0-.07,0-.1,0-.23,0-.46,0-.68v-.08c0-.23.05-.46.07-.7,0,0,0-.09,0-.13,0-.23.05-.46.08-.68a.59.59,0,0,1,0-.13l.09-.7v0c0-.22.07-.45.11-.67,0,0,0-.07,0-.11l.12-.66,0-.14.15-.66a.29.29,0,0,1,0-.09c.05-.23.1-.46.16-.68v0l.18-.66,0-.13c.06-.21.12-.42.19-.63l0-.12.21-.63,0-.09c.06-.2.13-.4.2-.6l0-.08c.08-.21.15-.41.23-.61l0-.13.24-.6.05-.11.27-.62s0,0,0,0c.09-.2.19-.39.28-.59l0-.1.28-.57a.54.54,0,0,0,.07-.13l.3-.56A28.17,28.17,0,0,1,15,12.91L5.85,25.1a26.7,26.7,0,0,0-2.06,3.19h0l0,0c-.1.19-.21.38-.31.58a1.17,1.17,0,0,0,0,.11c-.1.19-.2.38-.29.58a.41.41,0,0,0-.05.09l-.27.58,0,0c-.09.2-.17.41-.26.61l0,.12-.24.6a1.17,1.17,0,0,1-.05.11c-.08.21-.16.42-.23.63a.14.14,0,0,0,0,.06,6.26,6.26,0,0,0-.21.61l0,.09c-.07.21-.13.43-.2.64l0,.11c-.07.22-.13.43-.19.64l0,.11L1,35.31v0L.88,36l0,.09c0,.22-.09.44-.14.66l0,.14-.12.66s0,.07,0,.11c0,.22-.07.44-.11.67a.43.43,0,0,0,0,0c0,.23-.07.46-.1.7,0,0,0,.08,0,.12l-.09.69a.49.49,0,0,1,0,.12c0,.23,0,.47-.07.71v.07c0,.23,0,.45-.05.68a.41.41,0,0,0,0,.11c0,.23,0,.46,0,.69a.81.81,0,0,1,0,.16c0,.23,0,.47,0,.7v.12c0,.25,0,.5,0,.75v0c0,.25,0,.49,0,.73v.13c0,.25,0,.49,0,.73v.13c0,.25,0,.49,0,.74a.49.49,0,0,0,0,.12c0,.23,0,.46,0,.7v.1l.06.74c0,.05,0,.1,0,.15,0,.24.05.49.07.73a1,1,0,0,1,0,.17l.09.74s0,.07,0,.11c0,.23.06.46.1.69a.77.77,0,0,0,0,.15l.12.75a.78.78,0,0,1,0,.16c0,.24.09.49.13.74a1,1,0,0,1,0,.17c0,.25.09.5.14.75v0H1Z"/>
          <path class="cls-2" d="M56.81,102.35l-2-1.37-.74-.52-.33-.23-.63-.45-.35-.25-.63-.46-.33-.24-.68-.51-.27-.2-.94-.71-.14-.11L49,96.7l-.3-.24L48,96l-.28-.22c-.24-.18-.47-.37-.7-.56a2.11,2.11,0,0,1-.23-.19c-.31-.24-.61-.49-.91-.74l-.16-.13L45,93.49l-.27-.23-.67-.57-.25-.22-.46-.39-.68-.6-.4-.35-.68-.61-.39-.35-.73-.67-.32-.29-1-1-.86-.82L38,87.15c-.2-.19-.4-.38-.59-.58l-.32-.31-.57-.56-.28-.29-.8-.8-.13-.14-.71-.73-.3-.31c-.17-.19-.35-.37-.52-.55l-.3-.32L32.93,82c-.09-.11-.19-.21-.29-.32L32,81c-.05-.07-.11-.13-.16-.19L31.09,80l-.3-.34-.49-.56-.3-.35c-.16-.19-.32-.37-.47-.56s-.22-.25-.32-.38l-.43-.5-.34-.41L28,76.35,27.71,76l-.41-.51-.32-.4-.4-.51-.31-.4L26,73.77c-2.1-2.73-4-5.49-5.73-8.24L11.12,77.72q2.43,3.89,5.37,7.76h0l.36.46.2.27.08.11.3.38c.14.18.28.35.41.53l.32.4.4.49.33.41.42.52c.11.12.21.25.31.37l.45.54.32.37.48.56.28.33.57.65a2.62,2.62,0,0,0,.22.25c.25.3.51.59.78.88l0,0,.05.06.72.79.26.28.55.59.27.29.57.6.26.28.79.81,0,0,.82.84.3.29c.18.19.37.37.55.55l.33.32.23.23.37.36.24.23.88.84,1.05,1,.31.29.74.67.38.34c.23.21.46.42.7.62l.38.35.7.6.26.23.17.14.31.27.59.5.33.28.66.55.24.2.89.73.25.19.67.54.32.26.62.48a3.92,3.92,0,0,0,.32.25l.69.54.23.18h0l.91.69.26.19.69.51.33.24.63.46L44,112l.63.44.33.24.74.52.19.12h0c.6.42,1.21.84,1.82,1.24Z"/>
          <path class="cls-2" d="M123.61,120.07l-.46.1-.6.13-.15,0-.48.1-.16,0-.54.1h-.08l-.63.11-.11,0-.51.08-.19,0-.49.07-.14,0-.62.08-.15,0-.51.05-.17,0-.52,0-.14,0-.62.05h-.18l-.51,0h-.17l-.5,0h-.18l-.67,0h-.06l-.59,0H109.6l-.69,0h0l-.69,0H108l-.49,0-.24,0-.5,0h-.2l-.7-.06h-.11l-.61-.06-.22,0-.49,0-.24,0-.6-.07h-.11l-.73-.09-.13,0-.59-.08-.24,0-.49-.07-.25,0-.57-.09-.16,0-.73-.12-.15,0-.57-.1-.26,0-.49-.09-.24,0c-.49-.09-1-.19-1.48-.3l-.2,0-.53-.12-.26,0-.52-.12-.24-.06-.72-.17-.13,0-.62-.15-.25-.07-.51-.12-.25-.07-.63-.17-.11,0-.76-.2-.2-.06-.55-.16-.26-.07-.53-.16-.23-.07-.64-.19-.13,0-.74-.23-.23-.08-.55-.17-.23-.08-.55-.18-.24-.08-.71-.24-.15,0-.66-.23-.21-.08-.56-.2-.25-.09-.57-.21-.19-.07-.78-.29-.09,0-.66-.25-.26-.1-.52-.21-.26-.1-.6-.25-.16-.06-.76-.32L78,113.8l-.55-.23-.27-.11-.54-.24-.23-.1-1.51-.67-.87-.4-.21-.1-.87-.41c-2.74-1.3-5.48-2.74-8.2-4.29L55.6,119.44c2.72,1.55,5.47,3,8.21,4.29l.18.08h0l.68.32.21.1.88.41.07,0,1.43.64.24.1.54.23.26.12.56.23.21.09.76.31.16.07.6.24.26.11.52.2.26.1.66.26.09,0,.78.3.19.07.57.21.25.09.56.2.21.07.66.23.15.06.71.24.24.08.54.18.24.07.55.18.23.07.74.24.13,0,.64.2L80,130l.54.15.26.08.55.16.2.05.76.21.11,0,.63.17.25.06.5.13.26.07.62.15.12,0,.73.17.24.06.52.11.26.06.53.12.2,0,1.48.3.24,0,.49.1.26,0,.56.1.16,0,.73.12.16,0,.57.09.25,0,.49.07.24,0,.59.09h.12l.74.09.11,0,.6.07.23,0,.49.05.23,0,.61.06h.11l.7.05.2,0,.5,0,.23,0,.5,0h.22l.69,0h0l.69,0h3.88l.58,0H105l.67,0h.18l.33,0h.34l.53,0h.15l.64-.06h.1l.56-.05.16,0,.5-.06h.16l.63-.08.09,0,.54-.07.18,0,.48-.07.15,0,.62-.1.08,0,.55-.1.14,0,.52-.1.1,0,.63-.14h0l.44-.1Z"/>
          <path class="cls-3" d="M147.38,80l-11.77-4.81a3.64,3.64,0,0,1-2.05-2.11,67.21,67.21,0,0,0-9.76-19.86c-.59-.86-.59-1.68,0-2l7.54-3.85a96.7,96.7,0,0,1,10.69,17.18c-5-10.53-13-21.37-23.66-31.46A136.67,136.67,0,0,0,103,20.55L97.12,26a1.87,1.87,0,0,1-2,0,111.89,111.89,0,0,0-11.7-6.51A91.27,91.27,0,0,0,71.93,14.9a2.72,2.72,0,0,1-.47-.19,3.64,3.64,0,0,1-1.79-1.78L65.6,2.78C54.27-.22,43.48-.86,34.35,1.19l5.91,10.25c.5.87.33,1.62-.38,1.85a24.7,24.7,0,0,0-13,9c-.35.51-1.21.56-2.11.13L13,16.05a27.29,27.29,0,0,1,4.19-5.7c-7.35,7.63-9.55,18.63-7,31l11.76,4.81A3.77,3.77,0,0,1,24,48.23a65.87,65.87,0,0,0,9.76,19.88c.59.84.58,1.68,0,2l-7.53,3.83A97,97,0,0,1,15.48,56.86c5,10.5,13,21.32,23.62,31.37A133,133,0,0,0,73,111.54c20.63,9.83,41.53,12.66,56.33,6.75a40.76,40.76,0,0,1-6.11,1.87l-5.92-10.26c-.5-.86-.33-1.6.39-1.83a25,25,0,0,0,13-9.06c.36-.49,1.21-.55,2.12-.11l11.79,6.39a27.59,27.59,0,0,1-6.5,7.86C147.21,105.52,150.13,93.57,147.38,80ZM20,33.05l-3.29.78a.77.77,0,0,1-.5-.07,1.32,1.32,0,0,1-.46-.39l-2.78-3.66c-.26-.32-.22-.64.08-.71l3.28-.78a.7.7,0,0,1,.5.08,1.3,1.3,0,0,1,.47.38l2.78,3.66c.25.34.21.66-.08.71Zm91.75,0L116,34.17l.17.07a1.2,1.2,0,0,1,.63.69l.75,3.56c.07.31-.17.49-.56.39l-4.21-1.16-.2-.08A1,1,0,0,1,112,37l-.78-3.56c-.07-.33.19-.49.55-.38ZM50.83,3.14l.18.11L55.07,6c.35.24.55.63.41.86L54,9.39c-.1.19-.39.21-.69.06l-.2-.11-4-2.77c-.37-.26-.55-.63-.44-.87l1.46-2.5c.11-.19.4-.2.7-.06Zm-5,85.2-4.24-1.16a.52.52,0,0,1-.16-.06,1.13,1.13,0,0,1-.64-.69L40,82.86c0-.31.19-.48.56-.39l4.24,1.15.16.07a1.16,1.16,0,0,1,.64.69L46.34,88c.06.31-.18.48-.55.39ZM73,111.53a129.56,129.56,0,0,1-18.4-10.74l5.82-5.44a1.89,1.89,0,0,1,2,0,5.05,5.05,0,0,1,.45.25,103.9,103.9,0,0,0,11.22,6.24,91,91,0,0,0,11.54,4.58l.42.17a3.7,3.7,0,0,1,1.82,1.8l4.09,10.16a109.49,109.49,0,0,1-19-7Zm33.71,6.68-.18-.11-4-2.79c-.38-.25-.56-.62-.42-.84l1.44-2.51c.11-.19.42-.2.74,0l.16.09,4,2.78c.37.26.55.64.41.85l-1.44,2.52c-.11.18-.41.2-.72.06ZM123.28,96.1a12.14,12.14,0,0,1-.93,1,21.27,21.27,0,0,1-2.7,2.24c-.47.32-.94.62-1.43.91l-.43.25-.24.13a29.59,29.59,0,0,1-11.34,3.27,44.72,44.72,0,0,1-9.9-.21,66.78,66.78,0,0,1-14.53-3.61c-2.36-.86-4.74-1.86-7.1-3l-1.37-.67L73,96.24l-.9-.46-.89-.47-.89-.48-.86-.47-.78-.44L68,93.56l-.43-.25a95.31,95.31,0,0,1-11.07-7.62c-.85-.67-1.69-1.37-2.52-2.08l-.29-.25-.36-.31-.68-.59c-.78-.7-1.53-1.39-2.28-2.09l-.62-.59-.29-.28-.31-.3-1.27-1.27c-.77-.79-1.39-1.45-2-2.11l-1.06-1.17a78.82,78.82,0,0,1-7.61-10h0c-.94-1.48-1.81-3-2.59-4.44S33,57,32.37,55.37l-.08-.18,0-.11a1.34,1.34,0,0,1-.07-.18.93.93,0,0,1,0-.1c-.34-.85-.66-1.7-1-2.54a39.79,39.79,0,0,1-2.09-9.75c0-.18,0-.36,0-.54s0-.25,0-.38c0-.39,0-.54,0-.7s0-.24,0-.35V40a2.81,2.81,0,0,1,0-.29c0-.16,0-.33,0-.49s0-.2,0-.3,0-.18,0-.27,0-.2,0-.3l0-.46,0-.3,0-.26,0-.29c0-.16,0-.33.06-.48.05-.35.06-.48.09-.61.05-.36.09-.55.12-.73l.15-.71s0-.06,0-.09h0a20.54,20.54,0,0,1,3.73-8c.29-.36.58-.72.89-1.07a19.46,19.46,0,0,1,3.64-3.2,24.75,24.75,0,0,1,4.44-2.44,32,32,0,0,1,9-2.13h0c1.19-.1,2.41-.16,3.66-.17H57.3l.53,0H58c1.14.07,2.29.18,3.46.33.91.11,1.81.25,2.71.41a69.55,69.55,0,0,1,12.37,3.46l.14.05.8.31.14.06c1.17.46,2.35.95,3.52,1.48h0l.58.26,1.19.56c.87.41,1.74.85,2.61,1.3l.77.4.33.17c.13.08.27.15.41.22l.52.29c.89.49,1.62.9,2.34,1.33,1.77,1,3.51,2.15,5.24,3.32l.09.07.86.59.24.16.75.54.33.23.7.52.36.26.67.51.39.29.64.5.41.32.62.49.42.34.6.49.43.36.59.5.41.34.07.07.54.46.4.35h0l.21.18.38.35.24.21.15.14.22.19.37.35.11.1h0l.76.7h0a83,83,0,0,1,13.17,15.76h0l.08.13.33.54,0,.07a60.85,60.85,0,0,1,4.28,8.2,42.24,42.24,0,0,1,3.42,13.18h0v0h0c0,.21,0,.39,0,.57v0a.86.86,0,0,1,0,.16v.06c0,.17,0,.28,0,.38v0c0,.05,0,.1,0,.16v.08c0,.2,0,.33,0,.46v.85c0,.17,0,.34,0,.51a2.44,2.44,0,0,0,0,.27c0,.1,0,.21,0,.31s0,.18,0,.27,0,.32,0,.48,0,.18,0,.27l0,.32,0,.24-.06.5,0,.2h0c0,.18,0,.28-.06.37l0,.18a.36.36,0,0,1,0,.1c0,.19-.05.33-.08.46a.11.11,0,0,1,0,0,1.16,1.16,0,0,1,0,.18c0,.18-.07.35-.11.53s0,.2-.07.3-.07.3-.11.44,0,.16-.07.25l-.15.53,0,.11a20,20,0,0,1-4.2,7.53Zm21.22-3.74-3.28.77a.81.81,0,0,1-.51-.09,1.14,1.14,0,0,1-.46-.38L137.47,89c-.25-.33-.22-.65.08-.72l3.28-.78a.74.74,0,0,1,.49.08,1.47,1.47,0,0,1,.48.38l2.78,3.66c.25.34.22.66-.08.73ZM29.8,33.61h0Zm74.51,4.83.3.26ZM29.62,34.33v0h0S29.62,34.35,29.62,34.33Zm74,3.54h0Zm2,1.76.16.15-.16-.15-.12-.11Zm.61.55a.6.6,0,0,0,.08.08l-.09-.09Z"/>
          <g>
            <path class="cls-4" d="M75.94,24.73l-.21-3.43c2.39.87,4.8,1.89,7.21,3,.87.41,1.73.84,2.59,1.29l.09,0,.68.36.33.17c.13.08.27.15.41.22l.52.29.16.09c.73.4,1.46.81,2.18,1.24L89,30.92q-2.13-1.25-4.26-2.34l0,0L84,28.22l-.14-.07-.58-.29-.39-.19-.33-.16C80.36,26.46,78.15,25.54,75.94,24.73Z"/>
            <path class="cls-4" d="M109.73,48l-.09-.1-.47-.52-.14-.15c-.15-.17-.31-.35-.48-.52l0-.06c-1.22-1.32-2.52-2.62-3.88-3.91q-2.73-2.56-5.63-4.88l2-2.16q3.15,2.51,6.12,5.31t5.55,5.71Z"/>
            <path class="cls-4" d="M115.18,101.72,112,98.16l.09,0a22.91,22.91,0,0,0,4-2.19,19.73,19.73,0,0,0,3.33-3l3.88,3.13c-.3.33-.61.65-.94,1a22,22,0,0,1-2.7,2.24c-.47.32-.94.62-1.43.91l-.11.06-.32.19-.24.13-.18.1C116.66,101.07,115.94,101.41,115.18,101.72Z"/>
            <path class="cls-4" d="M29.08,42.5l0-.53c0-.13,0-.25,0-.38s0-.15,0-.23,0-.31,0-.47,0-.24,0-.35V40a2.81,2.81,0,0,1,0-.29c0-.16,0-.33,0-.49s0-.2,0-.3,0-.18,0-.27,0-.2,0-.3l0-.46,0-.3,0-.26,0-.29.06-.48,0-.22c0-.13,0-.26.06-.39a.88.88,0,0,1,0-.16c0-.2.07-.39.11-.59a21.55,21.55,0,0,1,.81-3l4.24,2.46a21,21,0,0,0-.87,3.58l0,.24a2.23,2.23,0,0,1,0,.23l-.06.49a.45.45,0,0,1,0,.11,27.76,27.76,0,0,0-.05,4.92Z"/>
            <path class="cls-4" d="M93.36,103.21,92,99.49l.14,0,.45.08.26,0,.66.1h0a43.14,43.14,0,0,0,10.26.35l2.37,3.79a45.44,45.44,0,0,1-9.91-.22C95.34,103.54,94.35,103.39,93.36,103.21Z"/>
            <path class="cls-4" d="M122.18,68.41A54.46,54.46,0,0,0,116.61,57l3.67-.3.08.13a57.65,57.65,0,0,1,6,12.23Z"/>
            <path class="cls-4" d="M53.66,21.27l-2.36-3.8c1.19-.1,2.41-.16,3.66-.17h1.57l.53,0h.2l.57,0H58a54.67,54.67,0,0,1,6.18.74l1.33,3.74h-.06l-.65-.11-.11,0-.66-.1-.1,0-.67-.09h-.08l-.73-.09-.64-.07h0l-.68-.06a39.54,39.54,0,0,0-5.73-.13H54.9Z"/>
            <path class="cls-4" d="M127.26,89.25,123,86.78a19.79,19.79,0,0,0,.67-2.46l0-.1c0-.17.07-.35.1-.52s0-.15,0-.22a2,2,0,0,1,0-.24c0-.11,0-.21,0-.32l0-.17.06-.52v-.07a27.07,27.07,0,0,0,0-4.94l4.36,1.63v0c0,.19,0,.38,0,.58a1.34,1.34,0,0,1,0,.2c0,.15,0,.29,0,.44s0,.12,0,.18,0,.36,0,.54v.85c0,.17,0,.34,0,.51a2.44,2.44,0,0,0,0,.27c0,.1,0,.21,0,.31s0,.18,0,.27,0,.32,0,.48,0,.18,0,.27l0,.32,0,.24-.06.5,0,.21-.06.38,0,.18c0,.19-.06.37-.1.56v0A23.1,23.1,0,0,1,127.26,89.25Z"/>
            <path class="cls-4" d="M37.24,64.61a61.09,61.09,0,0,1-4.87-9.24l-.12-.29-.12-.28c-.34-.85-.66-1.7-.94-2.54l4.15.69,0,.08c.06.17.11.34.18.51s.07.21.11.32l.09.25a54.2,54.2,0,0,0,5.16,10.22Z"/>
            <path class="cls-4" d="M81.2,96.49l-.28-.11-.29-.11-.49-.19L80,96,79.81,96h0l-.56-.22-.35-.14-.09,0-.25-.1-.64-.27q-1.47-.63-2.94-1.32l-.3-.15-.87-.42-.45-.23-1.2-.62h0l-.06,0,0,0-.51-.27-.46-.25,0,0-.14-.07h0q-1.2-.66-2.37-1.35h0l-.93,2.89.43.25.38.22.24.14.67.38.11.06.78.43.08,0,.78.42.11.06.72.38.17.09.61.31.29.15.33.16,1.37.67c2.36,1.12,4.74,2.12,7.1,3l-.21-3.44Z"/>
            <path class="cls-4" d="M56.54,85.7c-.85-.68-1.69-1.38-2.52-2.09l-.29-.25-.36-.31-.7-.62c-.76-.67-1.51-1.36-2.26-2.06l-.62-.59-.29-.28-.31-.3-1.27-1.27a1.59,1.59,0,0,0-.13-.13c-.64-.66-1.26-1.32-1.88-2l0,0-1-1.14,2.94-1.26c1.57,1.78,3.28,3.54,5.1,5.25s3.71,3.36,5.64,4.9Z"/>
            <path class="cls-4" d="M38.1,28.37l-3.88-3.12a19.85,19.85,0,0,1,3.65-3.2,23.05,23.05,0,0,1,4.46-2.42l3.22,3.57-.16.07-.19.08-.31.13-.29.14-.19.09a21.8,21.8,0,0,0-3,1.71A19.85,19.85,0,0,0,38.1,28.37Z"/>
          </g>
          <path class="cls-5" d="M142.52,108.45l-.33.42a.39.39,0,0,1-.08.1c-.1.14-.21.28-.32.41l0,0-.33.4-.09.1-.31.35,0,0-.36.39-.09.1-.31.32-.07.07-.36.36-.11.11-.32.3-.07.07-.39.36a.94.94,0,0,0-.1.1c-.11.09-.22.18-.32.28l-.11.09-.36.3-.11.12.05-.06-.52.41-.39.31L137,114l-.3.22-.15.11-.25.19-.17.11-.24.17-.17.12-.25.17-.17.11-.28.18-.14.09-.37.23-.06,0-.5.3-.14.07-.37.22-.17.09-.35.19-.18.1a3.59,3.59,0,0,1-.34.17l-.2.11-.33.16-.21.11-.34.16-.21.1-.36.16-.2.09L130,118l-.37.16-.31.12c-.23.1-.46.18-.7.27l-.22.08-.49.18-.26.09-.45.15-.3.1-.43.13-.31.1-.43.13-.31.08-.44.12-.33.09-.44.11-.32.08-.68.16L114,132.34l.52-.12.15,0,.34-.09.43-.11.33-.08.43-.12.32-.09.43-.13.31-.09.42-.13.32-.11.41-.13.3-.11.47-.17.23-.08.69-.27.28-.11,0,0,.38-.15.56-.25.2-.08.36-.17.21-.1.33-.16.22-.1.31-.16.24-.12.3-.16.21-.11.32-.17.2-.12.33-.18.17-.1c.14-.08.28-.16.41-.25l.09,0,.43-.27.11-.07.31-.2.17-.11.25-.16.17-.13.24-.16.16-.12a2.48,2.48,0,0,0,.26-.19l.15-.1.29-.22.1-.07.39-.31.52-.42,1-1.3c-.31.43-.61.85-.91,1.25l.36-.31,0,0,.06-.06.32-.28.11-.09.39-.36.07-.07.32-.31.11-.1.36-.36.07-.08.31-.32.09-.1c.12-.13.24-.25.35-.38l.05,0,.31-.36.09-.1.3-.36,0,0,0,0,.29-.37.1-.12.32-.42,9.14-12.18Z"/>
          <g>
            <path class="cls-3" d="M64.16,18.13l1.33,3.74h-.06a63.28,63.28,0,0,1,10.51,2.87l-.2-3.39A70.16,70.16,0,0,0,64.16,18.13Z"/>
            <path class="cls-3" d="M89.9,28,89,30.92l-.6-.34A86.61,86.61,0,0,1,99,37.82l2-2.14A95.89,95.89,0,0,0,89.9,28Z"/>
            <path class="cls-3" d="M112.61,46.7,109.73,48l-.09-.1a72.62,72.62,0,0,1,7,9.17l3.66-.3A77.45,77.45,0,0,0,112.61,46.7Z"/>
            <path class="cls-3" d="M126.31,69.09l-4.13-.68a36.29,36.29,0,0,1,1.89,8.81l4.36,1.63A39.88,39.88,0,0,0,126.31,69.09Z"/>
            <path class="cls-3" d="M112.06,98.12l-.09,0,3.21,3.56q.85-.34,1.65-.75a29.66,29.66,0,0,1-10.62,2.9l-2.36-3.78A28.46,28.46,0,0,0,112.06,98.12Z"/>
            <path class="cls-3" d="M92.17,99.51a62.67,62.67,0,0,1-10.6-2.89l.21,3.43a68.58,68.58,0,0,0,11.58,3.15L92,99.49Z"/>
            <path class="cls-3" d="M34.5,34.57l-4.24-2.46a21.55,21.55,0,0,0-.81,3,20.41,20.41,0,0,1,4.78-9.9l3.87,3.12a18.66,18.66,0,0,0-4.34,9.06A20.67,20.67,0,0,1,34.5,34.57Z"/>
            <path class="cls-3" d="M47.88,73.43a72.87,72.87,0,0,1-7.09-9.31l.12.21-3.65.28a78.61,78.61,0,0,0,7.59,10l2.94-1.26.07.08S47.87,73.44,47.88,73.43Z"/>
            <path class="cls-3" d="M68.54,90.42a85.43,85.43,0,0,1-10-7l-.06.06h0l-2,2.15a95.31,95.31,0,0,0,11.07,7.62Z"/>
            <path class="cls-3" d="M45.39,23.27l.16-.07-3.22-3.57a31,31,0,0,1,9-2.15l2.36,3.79A28.24,28.24,0,0,0,45.39,23.27Z"/>
            <path class="cls-3" d="M119.41,93a18.47,18.47,0,0,0,4.27-8.66,19.79,19.79,0,0,1-.67,2.46l4.25,2.47c.25-.73.46-1.47.64-2.23a20.26,20.26,0,0,1-4.62,9.08Z"/>
            <path class="cls-3" d="M31.19,52.26a39.37,39.37,0,0,1-2.1-9.75l4.35,1.63A36.19,36.19,0,0,0,35.37,53l0-.08Z"/>
          </g>
          <path class="cls-4" d="M71.46,14.71a3.64,3.64,0,0,1-1.79-1.78L65.6,2.77a110,110,0,0,1,19,7A129.65,129.65,0,0,1,103,20.55L97.12,26a1.87,1.87,0,0,1-2,0,4.49,4.49,0,0,1-.42-.24,105.16,105.16,0,0,0-11.28-6.27A91.27,91.27,0,0,0,71.93,14.9,2.72,2.72,0,0,1,71.46,14.71Z"/>
          <path class="cls-4" d="M123.17,120.16l-5.92-10.26c-.5-.86-.33-1.6.39-1.83a25,25,0,0,0,13-9.06c.36-.49,1.21-.55,2.12-.11l.19.09,11.6,6.3a27.59,27.59,0,0,1-6.5,7.86l-.06.06-.52.41A31.69,31.69,0,0,1,130,118l-.68.28A40.76,40.76,0,0,1,123.17,120.16Z"/>
          <path class="cls-4" d="M106.66,118.21l-.18-.11-4-2.79c-.38-.25-.56-.62-.42-.84l1.44-2.51c.11-.19.42-.2.74,0l.16.09,4,2.78c.37.26.55.64.41.85l-1.44,2.52C107.27,118.33,107,118.35,106.66,118.21Z"/>
          <path class="cls-4" d="M26.14,73.94A97,97,0,0,1,15.48,56.86a66.17,66.17,0,0,1-5.35-15.55l11.76,4.81.18.09a3.6,3.6,0,0,1,1.89,2,65.87,65.87,0,0,0,9.76,19.88c.59.84.58,1.68,0,2Z"/>
          <path class="cls-4" d="M73,111.53a129.56,129.56,0,0,1-18.4-10.74l5.82-5.44a1.89,1.89,0,0,1,2,0,5.05,5.05,0,0,1,.45.25,103.9,103.9,0,0,0,11.22,6.24,91,91,0,0,0,11.54,4.58l.42.17a3.7,3.7,0,0,1,1.82,1.8l4.09,10.16A109.49,109.49,0,0,1,73,111.53Z"/>
          <path class="cls-4" d="M112.55,37.64A1,1,0,0,1,112,37l-.78-3.56c-.07-.33.19-.49.55-.38L116,34.17l.17.07a1.2,1.2,0,0,1,.63.69l.75,3.56c.07.31-.17.49-.56.39l-4.21-1.16Z"/>
          <path class="cls-4" d="M53.34,9.45l-.2-.11-4-2.77c-.37-.26-.55-.63-.44-.87l1.46-2.5c.11-.19.4-.2.7-.06l.18.11L55.07,6c.35.24.55.63.41.86L54,9.39C53.93,9.58,53.64,9.6,53.34,9.45Z"/>
          <path class="cls-4" d="M135.43,75.14a3.51,3.51,0,0,1-1.87-2,67.21,67.21,0,0,0-9.76-19.86c-.59-.86-.59-1.68,0-2l7.54-3.85a96.7,96.7,0,0,1,10.69,17.18l.2.42a2.92,2.92,0,0,1,.14.31,65,65,0,0,1,5,14.72l-11.77-4.81Z"/>
          <path class="cls-4" d="M140.71,93a1.14,1.14,0,0,1-.46-.38L137.47,89c-.25-.33-.22-.65.08-.72l3.28-.78a.74.74,0,0,1,.49.08,1.47,1.47,0,0,1,.48.38l2.78,3.66c.25.34.22.66-.08.73l-3.28.77A.81.81,0,0,1,140.71,93Z"/>
          <path class="cls-4" d="M24.77,22.46l-.18-.09L13,16.05a27.65,27.65,0,0,1,4.22-5.74l.36-.37A33.4,33.4,0,0,1,34.35,1.19l5.91,10.25c.5.87.33,1.62-.38,1.85a24.7,24.7,0,0,0-13,9C26.53,22.84,25.67,22.89,24.77,22.46Z"/>
          <path class="cls-4" d="M16.18,33.76a1.32,1.32,0,0,1-.46-.39l-2.78-3.66c-.26-.32-.22-.64.08-.71l3.28-.78a.7.7,0,0,1,.5.08,1.3,1.3,0,0,1,.47.38l2.78,3.66c.25.34.21.66-.08.71l-3.29.78A.77.77,0,0,1,16.18,33.76Z"/>
          <path class="cls-4" d="M41.39,87.12a1.13,1.13,0,0,1-.64-.69L40,82.86c0-.31.19-.48.56-.39l4.24,1.15.16.07a1.16,1.16,0,0,1,.64.69L46.34,88c.06.31-.18.48-.55.39l-4.24-1.16A.52.52,0,0,1,41.39,87.12Z"/>
          <path class="cls-5" d="M67.16,125.25l.45.2.68.29.47.2.67.28.49.2.68.27.44.18.89.35.24.09,1.13.43.35.12.76.28.5.18.64.22.5.17.64.22.48.16.66.21.46.15.69.22.43.13.71.21.43.13.72.2.4.11,1.11.31,9.14-12.19-1.12-.3-.34-.1-.77-.22-.44-.13-.69-.21-.44-.13-.68-.21-.48-.15-.65-.21-.48-.17-.66-.22-.46-.16-.72-.25-.42-.15-.8-.29-.33-.12-1.13-.42-.23-.1-.9-.35-.41-.16-.73-.3L78.6,114l-.7-.29-.47-.2-.67-.29-.47-.2-.67-.3-.48-.21-.74-.34-.35-.16-1.1-.52L71.84,111l-.32-.15-.78-.39-.42-.21-.69-.35-.44-.23-.66-.35-.45-.23-.67-.36-.44-.24-.67-.37-.44-.24-.75-.42-.34-.19-1.08-.62-.22-.14-.86-.5-.38-.23-.7-.42-.42-.26-.69-.42-.39-.25-.7-.44-.39-.25-.75-.48-.32-.21-1.06-.7h0l-.41-.27-1.84-1.27L45.4,113c.82.57,1.64,1.12,2.46,1.67l.85.56.39.26.7.45.4.25.67.42.44.28.63.39.46.28.67.41.4.23.78.47.31.18,1,.59.05,0,.33.19.76.43.43.24.68.37.44.23.67.36.45.24.64.34.47.24.67.34.43.22.79.39.3.15,1.12.54,1.1.51.35.16.51.24.23.1.47.21Z"/>
          <path class="cls-5" d="M11.77,78.71c.39.62.8,1.23,1.21,1.84l.51.75q1.66,2.43,3.51,4.83l9.14-12.19c-.58-.75-1.14-1.5-1.69-2.25-.36-.5-.72-1-1.06-1.49l-.46-.65L22,68.23l-1.12-1.7a4,4,0,0,0-.22-.34c-.15-.25-.31-.49-.46-.73L20,65.07l-.42-.68,0-.08Q18.72,63,18,61.64c-.47-.85-.93-1.69-1.36-2.53a.31.31,0,0,1-.05-.1c-.06-.1-.11-.2-.16-.3l-.92-1.85a66,66,0,0,1-5.35-15.55L1,53.49A65.42,65.42,0,0,0,6.34,69c.41.85.84,1.7,1.28,2.55l.94,1.76c.59,1.05,1.19,2.1,1.83,3.15l0,.07.42.69.24.38h0c.15.25.31.49.46.73S11.7,78.6,11.77,78.71Z"/>
          <g class="cls-6">
            <path class="cls-7" d="M74.62,97A94.91,94.91,0,0,1,50.41,80.37C27.83,59,22.2,32.92,37.85,22c10.51-7.29,27.93-5.88,45.07,2.28A95.23,95.23,0,0,1,107.11,41c22.58,21.35,28.21,47.47,12.53,58.34C109.15,106.61,91.75,105.2,74.62,97Z"/>
            <g class="cls-8">
              <path class="cls-9" d="M74.64,96.88a94.76,94.76,0,0,1-24.1-16.6C28.06,59.05,22.46,33.05,38,22.22,48.5,15,65.84,16.37,82.9,24.49A95,95,0,0,1,107,41.06c22.47,21.25,28.08,47.25,12.47,58.07C109,106.4,91.69,105,74.64,96.88Z"/>
            </g>
            <g class="cls-10">
              <path class="cls-11" d="M74.66,96.71a94.13,94.13,0,0,1-24-16.52c-22.37-21.13-27.95-47-12.45-57.8,10.42-7.22,27.68-5.82,44.67,2.27a94.29,94.29,0,0,1,24,16.49c22.37,21.16,28,47,12.42,57.8C108.87,106.19,91.63,104.79,74.66,96.71Z"/>
            </g>
            <g class="cls-12">
              <path class="cls-13" d="M74.67,96.54A94.06,94.06,0,0,1,50.8,80.1C28.53,59.06,23,33.3,38.41,22.57c10.37-7.19,27.55-5.8,44.46,2.25a94,94,0,0,1,23.85,16.42C129,62.3,134.54,88.06,119.08,98.78,108.73,106,91.57,104.59,74.67,96.54Z"/>
            </g>
            <g class="cls-14">
              <path class="cls-15" d="M74.69,96.38A93.57,93.57,0,0,1,50.93,80C28.76,59.07,23.24,33.43,38.6,22.75,48.92,15.59,66,17,82.85,25a93.51,93.51,0,0,1,23.74,16.34c22.16,21,27.69,46.6,12.3,57.27C108.59,105.76,91.51,104.38,74.69,96.38Z"/>
            </g>
            <g class="cls-16">
              <path class="cls-17" d="M74.71,96.21A93.12,93.12,0,0,1,51.06,79.92C29,59.08,23.5,33.56,38.79,22.93c10.27-7.13,27.29-5.75,44,2.23a93.14,93.14,0,0,1,23.63,16.26c22.06,20.86,27.56,46.38,12.24,57C108.45,105.55,91.45,104.18,74.71,96.21Z"/>
            </g>
            <g class="cls-18">
              <path class="cls-19" d="M74.73,96A92.41,92.41,0,0,1,51.19,79.83C29.23,59.09,23.76,33.69,39,23.1,49.2,16,66.14,17.39,82.81,25.32a92.82,92.82,0,0,1,23.52,16.19c22,20.77,27.43,46.17,12.19,56.74C108.31,105.34,91.39,104,74.73,96Z"/>
            </g>
            <g class="cls-20">
              <path class="cls-21" d="M74.75,95.87A92,92,0,0,1,51.32,79.74C29.46,59.09,24,33.81,39.16,23.28c10.18-7.06,27-5.69,43.63,2.21A92.37,92.37,0,0,1,106.2,41.6c21.85,20.67,27.3,45.95,12.13,56.47C108.17,105.13,91.33,103.77,74.75,95.87Z"/>
            </g>
            <g class="cls-22">
              <path class="cls-23" d="M74.77,95.71A91.72,91.72,0,0,1,51.45,79.65C29.7,59.1,24.28,33.94,39.35,23.46c10.13-7,26.91-5.66,43.42,2.2a91.49,91.49,0,0,1,23.3,16c21.75,20.57,27.17,45.73,12.07,56.2C108,104.92,91.27,103.57,74.77,95.71Z"/>
            </g>
            <g class="cls-24">
              <path class="cls-4" d="M74.79,95.54a91.09,91.09,0,0,1-23.21-16c-21.65-20.45-27-45.49-12-55.92,10.08-7,26.78-5.64,43.21,2.19a91.08,91.08,0,0,1,23.19,16c21.64,20.46,27,45.5,12,55.92C107.89,104.71,91.22,103.36,74.79,95.54Z"/>
            </g>
            <g class="cls-25">
              <path class="cls-26" d="M74.81,95.37a90.9,90.9,0,0,1-23.1-15.9c-21.54-20.35-26.91-45.28-12-55.66,10-7,26.66-5.61,43,2.18a90.94,90.94,0,0,1,23.08,15.89c21.54,20.37,26.91,45.29,12,55.66C107.75,104.5,91.16,103.16,74.81,95.37Z"/>
            </g>
            <g class="cls-27">
              <path class="cls-28" d="M74.83,95.21a90.75,90.75,0,0,1-23-15.83C30.4,59.12,25.06,34.32,39.91,24c10-6.92,26.52-5.58,42.8,2.17a89.92,89.92,0,0,1,23,15.81C127.12,62.24,132.46,87,117.58,97.36,107.61,104.29,91.1,103,74.83,95.21Z"/>
            </g>
          </g>
          <path class="cls-29" d="M142.19,108.87a.39.39,0,0,1-.08.1c-.1.14-.21.28-.32.41l0,0-.33.4-.09.1-.31.35,0,0-.36.39-.09.1-.31.32-.07.07-.36.36-.11.11-.32.31-.07.06-.39.36a.94.94,0,0,0-.1.1c-.11.09-.22.18-.32.28l-.11.09-.36.31-.11.11.05-.06-.52.41-.39.31L137,114l-.3.22-.15.11-.25.19-.17.11-.24.17-.17.12-.25.17-.17.11-.27.18-.15.09-.37.23-.06,0-.5.3-.14.07-.37.22-.17.09-.35.19-.18.1a3.59,3.59,0,0,1-.34.17l-.2.11-.33.16-.21.11-.34.16-.21.1-.36.16-.2.09L130,118l-.38.16-.31.12c-.23.1-.46.18-.7.27l-.22.08-.49.18-.26.09-.45.15-.3.1-.43.13-.31.1-.43.13-.31.08-.44.12-.33.09-.44.11-.32.08-.68.16h0l-.6.13-.15,0-.48.1-.16,0-.54.1h-.08l-.63.11-.11,0-.51.08-.19,0-.49.07-.14,0-.62.08-.15,0-.51.06h-.17l-.52,0-.14,0-.62.05h-.18l-.51,0h-.17l-.5,0h-.18l-.67,0h-.06l-.59,0H109.6l-.69,0-.69,0H108l-.49,0-.24,0-.5,0h-.2l-.7-.06h-.1l-.62-.06-.22,0-.49,0-.24,0-.6-.07h-.11l-.73-.09-.13,0-.59-.08-.24,0-.49-.07-.25,0c-.19,0-.38,0-.57-.09l-.16,0-.73-.12-.15,0-.57-.1-.26,0-.49-.09-.24,0-1.48-.3-.2,0-.53-.11-.26-.06-.52-.12-.24-.06-.72-.17-.13,0-.62-.15-.25-.06-.51-.13-.25-.07-.27-.07h0l-1.12-.3-.34-.1-.77-.22-.44-.13-.69-.21-.44-.13-.68-.21-.48-.15-.65-.21-.48-.16-.66-.23-.46-.16-.72-.25-.42-.15-.8-.29-.33-.12-1.13-.42-.23-.1-.9-.35-.41-.16-.73-.29L78.6,114l-.7-.29-.47-.2-.67-.29-.47-.2-.67-.3-.48-.21-.74-.34-.35-.16-1.1-.52L71.84,111l-.32-.15-.78-.39-.42-.21-.69-.35-.44-.23-.66-.35-.45-.23-.67-.36-.44-.24-.67-.37-.44-.24-.75-.42-.34-.19-1.08-.62-.22-.14-.86-.5-.38-.23-.7-.42-.42-.26-.69-.42-.39-.25-.7-.44-.39-.25-.74-.48-.33-.21-1.06-.7h0l-.41-.27-1.84-1.27h0c-.16-.11-.32-.22-.47-.34a4,4,0,0,1-.34-.23l-.63-.45-.35-.25-.63-.46-.33-.24-.68-.51-.27-.2-.94-.71-.14-.11L49,96.7l-.3-.24L48,96l-.28-.22c-.24-.18-.47-.37-.7-.56a2.11,2.11,0,0,1-.23-.19c-.31-.24-.61-.49-.91-.74l-.16-.13L45,93.49l-.27-.23-.67-.57-.25-.22-.46-.4-.68-.59-.4-.35-.68-.61-.39-.35-.73-.67-.32-.29-1-1-.86-.82L38,87.15c-.2-.19-.4-.38-.59-.58l-.32-.31-.57-.56-.28-.29-.8-.8-.13-.13c-.24-.25-.47-.5-.71-.74l-.3-.31c-.17-.19-.34-.37-.52-.55l-.3-.32L32.93,82c-.09-.11-.19-.21-.29-.32L32,81c-.05-.07-.11-.13-.16-.19L31.09,80l-.3-.34-.49-.56-.3-.35-.47-.55-.32-.39-.43-.5-.34-.41L28,76.35,27.71,76l-.4-.51-.33-.4-.4-.51-.31-.4L26.13,74h0c-.58-.75-1.14-1.5-1.69-2.25L23.39,70.2c-.16-.21-.31-.43-.46-.65L22,68.23l-1.12-1.7a4,4,0,0,0-.22-.34c-.15-.25-.31-.49-.46-.73L20,65.07l-.42-.68,0-.08Q18.72,63,18,61.64c-.47-.85-.93-1.69-1.36-2.53l-.05-.1c-.06-.1-.11-.2-.16-.3l-.92-1.85a66,66,0,0,1-5.35-15.55l-.15-.8,0-.14c0-.26-.09-.51-.13-.76l0-.15-.12-.77,0-.09c0-.26-.07-.51-.1-.77v-.06c0-.27-.07-.53-.1-.79,0,0,0-.07,0-.11,0-.25-.06-.51-.08-.76a.62.62,0,0,1,0-.13c0-.26-.05-.51-.07-.77v-.06c0-.25,0-.5,0-.74v-.09l0-.74v-.15c0-.25,0-.49,0-.73v-.11c0-.25,0-.51,0-.76h0c0-.25,0-.5,0-.75V31l0-.7v-.14c0-.24,0-.47,0-.71,0,0,0-.07,0-.1,0-.23,0-.46,0-.68v-.08l.06-.69c0-.05,0-.1,0-.14,0-.23.05-.46.08-.68a.59.59,0,0,1,0-.13l.09-.7a.06.06,0,0,0,0,0c0-.22.07-.45.11-.67,0,0,0-.07,0-.11l.12-.66a1,1,0,0,1,0-.14c0-.22.09-.44.14-.66a.29.29,0,0,1,0-.09c.05-.23.1-.46.16-.68v0l.18-.66,0-.13c.06-.21.12-.42.19-.63l0-.12.21-.63,0-.1c.06-.19.13-.39.2-.59l0-.08c.08-.21.15-.41.23-.61l0-.13.24-.6a.54.54,0,0,0,.05-.11l.27-.62s0,0,0,0c.08-.2.18-.39.27-.58l0-.11.28-.57a.54.54,0,0,0,.07-.13l.3-.56A28.17,28.17,0,0,1,15,12.91L5.85,25.1a26.7,26.7,0,0,0-2.06,3.19h0l0,0c-.1.19-.21.38-.31.58a1.17,1.17,0,0,0,0,.11c-.1.19-.2.38-.29.58l-.05.09-.27.58,0,0c-.09.2-.17.41-.26.61a.61.61,0,0,1,0,.12l-.24.6a1.17,1.17,0,0,1-.05.11c-.08.21-.16.42-.23.63a.14.14,0,0,0,0,.06,6.26,6.26,0,0,0-.21.61.36.36,0,0,0,0,.09c-.07.21-.13.43-.2.64l0,.11c-.07.22-.13.43-.19.64l0,.11L1,35.31v0L.88,36l0,.09c0,.22-.09.44-.14.66l0,.14-.12.66s0,.07,0,.11c0,.22-.07.44-.11.67a.43.43,0,0,0,0,0c0,.23-.07.46-.1.7,0,0,0,.08,0,.12l-.09.69a.49.49,0,0,1,0,.12c0,.24,0,.47-.07.71v.07c0,.23,0,.45-.05.68a.41.41,0,0,0,0,.11c0,.23,0,.46,0,.69a.81.81,0,0,1,0,.16c0,.23,0,.47,0,.7v.12c0,.25,0,.5,0,.75v0c0,.25,0,.49,0,.73v.13c0,.25,0,.49,0,.73v.13c0,.25,0,.49,0,.74a.49.49,0,0,0,0,.12c0,.23,0,.47,0,.7a.31.31,0,0,1,0,.1l.06.75s0,.09,0,.14c0,.24.05.49.07.73a1,1,0,0,1,0,.17l.09.74,0,.11c0,.23.06.46.1.69a.77.77,0,0,0,0,.15l.12.75,0,.16c0,.25.09.49.14.74a1,1,0,0,0,0,.17c0,.25.09.5.14.75v0A65.42,65.42,0,0,0,6.34,69c.41.85.84,1.7,1.28,2.55l.94,1.76c.59,1.05,1.19,2.1,1.83,3.15l0,.07.42.69.24.38h0l0,.06v0q2.43,3.89,5.37,7.76h0l.36.47.2.26.08.11.3.38.41.53.32.4c.14.16.27.33.4.49l.33.41.42.52c.11.12.21.25.31.37l.45.54.32.37.48.56.28.33.57.65a2.62,2.62,0,0,0,.22.25c.25.29.51.59.78.88l0,0,.06.06c.23.27.47.53.71.79l.26.28c.18.2.36.4.55.59l.27.29.57.6.26.28.79.81,0,0,.82.84.3.29c.18.19.37.37.55.55l.33.32.23.23.37.36.24.23.88.84,1.05,1,.31.29.74.67.38.34.69.62.39.35.7.6.26.23.17.14.31.27.59.5.33.28.66.55.24.2.89.73.25.19.67.54.32.26.62.48a3.92,3.92,0,0,0,.32.25l.69.54.24.18h0l.91.69.26.19.69.51.33.24.63.46L44,112l.63.44.33.24.74.52.19.12c.6.42,1.21.84,1.82,1.24h0l.19.12.85.56.39.26.7.45.4.25.67.42.44.28.63.39.46.28.67.41.4.23.78.47.31.18,1,.59h0c2.72,1.55,5.47,3,8.21,4.29l.18.08.68.32.21.1.88.41.07,0,1.44.64.23.1.54.23.26.12.56.23.21.09.76.31.16.07.6.24.26.11.52.2.26.1.66.26.09,0,.78.3.19.07.57.21.25.09.56.2.21.07.66.23.15.06.71.24.24.08.54.18.24.08.55.17.23.07.74.24.13,0,.64.2L80,130l.54.15.26.08.55.16.2.05.76.21.11,0,.63.17.25.06.5.13.26.07.62.15.12,0,.73.17.24.06.52.11.26.06.53.12.2,0,1.48.3.24,0,.49.1.26,0,.56.1.16,0,.73.12.16,0,.57.09.25,0,.49.07.24,0,.59.08.12,0,.74.1h.11l.6.07.24,0,.48.06.23,0,.61.06h.11l.7.05.2,0,.5,0h.23l.5,0h.22l.69,0,.69,0h3.88l.58,0H105l.67,0h.18l.33,0h.34l.53,0h.15l.64-.06h.09l.57-.05.16,0,.5-.06h.16l.63-.08.09,0,.54-.07.18,0,.48-.07.15,0,.62-.1.08,0,.55-.1.14,0,.52-.1.1,0,.63-.14h0l.44-.1h0l.07,0,.15,0,.34-.09.43-.11.33-.08.43-.12.32-.09.43-.13.31-.09.42-.13.32-.11.41-.13.3-.11.47-.17.23-.08.69-.27.28-.11,0,0,.38-.15.56-.25.2-.08.36-.17.21-.1.33-.16.22-.1.31-.16.24-.12.3-.16.21-.11.32-.17.2-.12.33-.18.17-.1c.14-.08.28-.16.41-.25l.09,0,.43-.27.11-.07.31-.2.17-.11.25-.16.17-.13.24-.16.16-.12a2.48,2.48,0,0,0,.26-.19l.15-.1.29-.22.1-.07.39-.31.52-.42,1-1.3c-.31.43-.61.85-.91,1.25l.36-.31,0,0,.06-.06.32-.28.11-.09.39-.36.07-.07.32-.3a1.14,1.14,0,0,1,.11-.11l.36-.36.07-.08.31-.32.09-.1.36-.38,0,0,.31-.36.09-.1.3-.36,0,0,0,0,.29-.37.1-.12.32-.42,9.14-12.18h0Z"/>
          <g class="cls-6">
            <g>
              <g class="cls-27">
                <path class="cls-30" d="M126.05,83.2c0,.18,0,.37-.09.72,0,.11,0,.22,0,.33s0,.17,0,.26,0,.15,0,.22-.07.37-.12.65a19.32,19.32,0,0,1-4.47,9.05,19.92,19.92,0,0,1-3.48,3.09,23.62,23.62,0,0,1-4.2,2.28,29.16,29.16,0,0,1-8.58,2.06,45,45,0,0,1-10.78-.37l-1-.15-.47-.08a64.6,64.6,0,0,1-11.08-3c-.56-.2-1.13-.41-1.85-.7l-.58-.23-.72-.3-.67-.28q-1.53-.65-3.06-1.38c-1-.47-2-1-3.06-1.53l-.53-.28-.68-.37c-.83-.45-1.65-.92-2.47-1.41A91.69,91.69,0,0,1,51.73,79.45C43,71.23,37,62.26,33.81,53.81l-.09-.26-.12-.33c-.07-.18-.13-.35-.19-.53a37.28,37.28,0,0,1-2-9.29,27.18,27.18,0,0,1,.06-5.26c0-.17,0-.34.06-.51l0-.25c0-.08,0-.16,0-.24a19.44,19.44,0,0,1,4.68-10.21,20.21,20.21,0,0,1,3.47-3.09A22.38,22.38,0,0,1,42.87,22l.19-.09.3-.14.32-.14.21-.09a29.57,29.57,0,0,1,8.64-2.09c.43,0,.86-.07,1.74-.12a43.71,43.71,0,0,1,6,.13l.73.07.67.08.85.1.8.12.81.13.68.11a65.49,65.49,0,0,1,11,3q3.45,1.24,6.92,2.9l.34.16.42.2.75.38.74.37a90.48,90.48,0,0,1,14.9,9.66q3,2.41,5.9,5.1c1.42,1.35,2.77,2.71,4.11,4.15l.64.69c.16.19.33.37.49.55a75.38,75.38,0,0,1,7.28,9.59,55.83,55.83,0,0,1,5.82,11.88,37.54,37.54,0,0,1,2,9.21A27.75,27.75,0,0,1,126.05,83.2Z"/>
              </g>
              <path class="cls-31" d="M125.87,83.11c0,.18-.05.37-.1.72,0,.11,0,.22,0,.33a1.87,1.87,0,0,1,0,.25l0,.23c0,.18-.07.37-.13.64a19.19,19.19,0,0,1-4.45,9,20.14,20.14,0,0,1-3.46,3.08,23.78,23.78,0,0,1-4.19,2.27,28.89,28.89,0,0,1-8.54,2,44.67,44.67,0,0,1-10.74-.37l-1-.15-.47-.08a65,65,0,0,1-11-3c-.56-.2-1.12-.41-1.84-.69l-.58-.23-.72-.3-.67-.28c-1-.43-2-.89-3-1.37s-2-1-3-1.53l-.53-.28L70.58,93c-.82-.45-1.64-.92-2.46-1.4A90.16,90.16,0,0,1,51.83,79.38C43.16,71.19,37.13,62.26,34,53.84a2.77,2.77,0,0,0-.1-.26l-.12-.33-.18-.53a37.44,37.44,0,0,1-2-9.25,27.9,27.9,0,0,1,.06-5.25l.06-.5c0-.08,0-.16,0-.25l0-.24a19.56,19.56,0,0,1,4.66-10.17A20.21,20.21,0,0,1,39.91,24,23.13,23.13,0,0,1,43,22.19l.19-.09.3-.14.32-.14.21-.09a29.3,29.3,0,0,1,8.6-2.07c.43-.05.86-.08,1.74-.13a43.46,43.46,0,0,1,6,.13l.72.07.67.08.84.11.8.11.81.13.67.11a65,65,0,0,1,11,3c2.29.84,4.6,1.8,6.89,2.9l.34.16.42.2.75.37.73.37a89.41,89.41,0,0,1,14.85,9.62c2,1.6,4,3.3,5.87,5.08,1.41,1.35,2.76,2.7,4.09,4.14l.64.69c.17.18.33.36.49.55a73.77,73.77,0,0,1,7.25,9.54A56.23,56.23,0,0,1,124,68.72a37.07,37.07,0,0,1,2,9.17A27.56,27.56,0,0,1,125.87,83.11Z"/>
              <path class="cls-32" d="M125.68,83c0,.19,0,.37-.09.72,0,.11,0,.22,0,.33s0,.17,0,.25,0,.15,0,.22-.07.37-.12.65a19.08,19.08,0,0,1-4.44,9,20.39,20.39,0,0,1-3.45,3.06,23.25,23.25,0,0,1-4.17,2.27,28.93,28.93,0,0,1-8.5,2,44.32,44.32,0,0,1-10.7-.37l-.94-.15-.47-.08a65.73,65.73,0,0,1-11-3l-1.83-.7L79.27,97l-.72-.29-.66-.28c-1-.43-2-.89-3-1.37s-2-1-3-1.52l-.52-.28-.67-.36c-.82-.46-1.64-.92-2.46-1.4A90.29,90.29,0,0,1,51.94,79.3c-8.64-8.15-14.65-17-17.77-25.44a2.6,2.6,0,0,1-.1-.25L34,53.28l-.18-.53a36.65,36.65,0,0,1-2-9.22,27.58,27.58,0,0,1,.06-5.22l.06-.5,0-.25c0-.08,0-.16,0-.24a19.16,19.16,0,0,1,8.09-13.19,22.41,22.41,0,0,1,3.09-1.79l.19-.09.3-.14L44,22l.2-.08a29.16,29.16,0,0,1,8.58-2.07c.42,0,.85-.08,1.72-.13a43.18,43.18,0,0,1,6,.14l.72.07.67.07.84.11.79.11.81.13.66.11a65.18,65.18,0,0,1,10.91,3q3.43,1.24,6.87,2.88l.34.17.41.19.74.37.74.37A89.58,89.58,0,0,1,99.73,37q3,2.39,5.84,5.06c1.41,1.33,2.76,2.69,4.08,4.11l.64.69c.16.19.32.37.49.55A74.37,74.37,0,0,1,118,56.9a56,56,0,0,1,5.78,11.79,37.81,37.81,0,0,1,2,9.13A28.18,28.18,0,0,1,125.68,83Z"/>
              <path class="cls-33" d="M125.49,82.94c0,.18,0,.36-.09.71,0,.11,0,.22-.05.33s0,.16,0,.25l0,.22c0,.18-.07.37-.13.64A19,19,0,0,1,120.74,94a20.27,20.27,0,0,1-3.44,3.06,23.34,23.34,0,0,1-4.15,2.25,28.56,28.56,0,0,1-8.48,2A44.44,44.44,0,0,1,94,101l-.94-.15-.47-.08a64,64,0,0,1-11-3c-.55-.2-1.11-.41-1.82-.69l-.57-.23-.72-.29-.66-.28c-1-.43-2-.89-3-1.37s-2-1-3-1.51l-.52-.28-.67-.36c-.82-.45-1.64-.91-2.45-1.39A90,90,0,0,1,52.05,79.23c-8.61-8.13-14.6-17-17.71-25.34l-.09-.25-.12-.33c-.06-.18-.13-.35-.18-.53a37.26,37.26,0,0,1-2-9.18A28.22,28.22,0,0,1,32,38.4l.06-.5c0-.08,0-.16,0-.24l0-.24a19.33,19.33,0,0,1,4.63-10.1,19.77,19.77,0,0,1,3.43-3.05,22.85,22.85,0,0,1,3.08-1.78l.19-.09.3-.13.32-.14.2-.09A29,29,0,0,1,52.84,20c.42,0,.85-.08,1.72-.13a42.75,42.75,0,0,1,5.95.14l.72.07.66.07.84.11.8.11.8.13.66.11a63.67,63.67,0,0,1,10.86,3c2.28.83,4.56,1.78,6.84,2.87l.34.16.41.2.74.37.73.37a88,88,0,0,1,14.73,9.54q3,2.38,5.83,5c1.4,1.33,2.74,2.68,4.06,4.1l.63.69.49.54a74.45,74.45,0,0,1,7.19,9.47,55.82,55.82,0,0,1,5.76,11.75,37,37,0,0,1,2,9.1A27.14,27.14,0,0,1,125.49,82.94Z"/>
              <path class="cls-34" d="M125.31,82.85c0,.18,0,.36-.09.71,0,.11,0,.22,0,.33s0,.16,0,.24,0,.15,0,.23-.07.36-.12.63a19,19,0,0,1-4.4,8.91,19.65,19.65,0,0,1-3.42,3A23.25,23.25,0,0,1,113,99.19a28.53,28.53,0,0,1-8.44,2A44.1,44.1,0,0,1,94,100.85L93,100.7l-.46-.08a63.27,63.27,0,0,1-10.91-3c-.55-.2-1.11-.41-1.81-.69l-.57-.22-.72-.3-.66-.27c-1-.43-2-.88-3-1.36s-1.95-1-3-1.51L71.35,93l-.67-.36c-.81-.45-1.63-.91-2.44-1.38A90.13,90.13,0,0,1,52.15,79.16c-8.57-8.1-14.53-16.92-17.63-25.24a2.77,2.77,0,0,0-.1-.26,3,3,0,0,1-.11-.32c-.07-.18-.13-.35-.19-.52a37.06,37.06,0,0,1-2-9.15,27.16,27.16,0,0,1,.06-5.18l.06-.5,0-.24c0-.08,0-.16,0-.24a19.28,19.28,0,0,1,4.6-10.06,20.53,20.53,0,0,1,3.43-3,21.91,21.91,0,0,1,3.06-1.76l.19-.1.3-.13.31-.14.21-.09a28.94,28.94,0,0,1,8.5-2.05L54.66,20a43.91,43.91,0,0,1,5.92.14l.72.07.66.07.83.11.8.11.79.13.66.11A64.08,64.08,0,0,1,75.86,23.7c2.27.83,4.55,1.78,6.82,2.86l.33.17.41.19.74.37.73.37a88.69,88.69,0,0,1,14.67,9.5c2,1.59,3.93,3.26,5.8,5,1.4,1.32,2.73,2.66,4,4.08L110,47l.48.54a74,74,0,0,1,7.17,9.44,55.08,55.08,0,0,1,5.73,11.7,37.05,37.05,0,0,1,2,9.06A27.76,27.76,0,0,1,125.31,82.85Z"/>
              <path class="cls-35" d="M125.12,82.76c0,.18,0,.36-.09.71,0,.11,0,.21,0,.32s0,.17,0,.25a1.7,1.7,0,0,0,0,.22c0,.18-.07.36-.13.64a18.83,18.83,0,0,1-4.37,8.87,20,20,0,0,1-3.42,3A22.36,22.36,0,0,1,112.87,99a28.33,28.33,0,0,1-8.4,2,43.73,43.73,0,0,1-10.57-.36l-.93-.15-.47-.07a65.78,65.78,0,0,1-10.86-3l-1.81-.69-.57-.23-.71-.29L77.9,96c-1-.43-2-.88-3-1.36s-1.93-.94-3-1.5l-.53-.28-.66-.36q-1.21-.66-2.43-1.38a88.89,88.89,0,0,1-16-12.07C43.72,71,37.78,62.23,34.69,54l-.09-.26-.12-.32-.18-.52a37.33,37.33,0,0,1-2-9.11,27.78,27.78,0,0,1,.06-5.16l.06-.5c0-.08,0-.16,0-.24l0-.24a19.27,19.27,0,0,1,4.59-10,19.49,19.49,0,0,1,3.41-3,22.39,22.39,0,0,1,3-1.76l.19-.09.3-.14.31-.14.2-.08a28.88,28.88,0,0,1,8.48-2.05c.41,0,.84-.07,1.7-.12a42,42,0,0,1,5.9.13l.72.07.66.07.83.11.79.11.79.12.66.12a63.51,63.51,0,0,1,10.77,2.94c2.26.82,4.53,1.77,6.79,2.85l.34.16.4.2.74.36.72.37a88.33,88.33,0,0,1,14.62,9.47q3,2.35,5.78,5c1.39,1.32,2.72,2.66,4,4.07.16.17.33.35.62.68l.49.54a73.2,73.2,0,0,1,7.13,9.39,55.19,55.19,0,0,1,5.71,11.66,36.36,36.36,0,0,1,1.94,9A26.72,26.72,0,0,1,125.12,82.76Z"/>
              <path class="cls-36" d="M124.94,82.67c0,.18,0,.36-.09.71,0,.1,0,.21,0,.32s0,.16,0,.25a2.07,2.07,0,0,1,0,.22c0,.18-.06.36-.12.63a18.9,18.9,0,0,1-4.36,8.84,19.73,19.73,0,0,1-3.4,3,22.2,22.2,0,0,1-4.1,2.23,28.21,28.21,0,0,1-8.37,2,43.91,43.91,0,0,1-10.53-.36l-.93-.15-.46-.07a64.08,64.08,0,0,1-10.82-3l-1.8-.68-.57-.23-.71-.29-.65-.27c-1-.43-2-.88-3-1.35s-1.93-1-3-1.5l-.52-.28-.66-.35c-.8-.45-1.61-.91-2.41-1.38a88.73,88.73,0,0,1-16-12c-8.5-8-14.42-16.79-17.49-25l-.09-.25-.12-.32-.18-.52a36.42,36.42,0,0,1-2-9.08,26.64,26.64,0,0,1,.06-5.13l.06-.5,0-.24c0-.08,0-.16,0-.24a19,19,0,0,1,4.57-10,19.75,19.75,0,0,1,3.39-3,22.22,22.22,0,0,1,3-1.75l.19-.09.3-.14.31-.13.2-.09a28.92,28.92,0,0,1,8.44-2c.42,0,.84-.07,1.7-.12a43.31,43.31,0,0,1,5.88.13l.71.07.65.07.83.11.79.11.79.12.65.12A63.15,63.15,0,0,1,75.89,24q3.38,1.23,6.76,2.83L83,27l.4.19c.2.1.4.19.74.37l.72.36A88.24,88.24,0,0,1,99.4,37.35q3,2.35,5.75,5c1.39,1.32,2.71,2.65,4,4.05l.63.68.48.54A73,73,0,0,1,117.38,57a55.4,55.4,0,0,1,5.69,11.6,37.51,37.51,0,0,1,1.93,9A27.32,27.32,0,0,1,124.94,82.67Z"/>
              <path class="cls-37" d="M124.75,82.58c0,.18,0,.36-.09.7,0,.11,0,.22,0,.33a2,2,0,0,0,0,.24,2.07,2.07,0,0,0,0,.22c0,.18-.07.36-.12.63a18.83,18.83,0,0,1-4.35,8.81,20,20,0,0,1-3.38,3,22.68,22.68,0,0,1-4.09,2.22,27.93,27.93,0,0,1-8.34,2,43.52,43.52,0,0,1-10.48-.36l-.93-.15-.46-.07a63.51,63.51,0,0,1-10.77-2.94c-.55-.2-1.1-.4-1.8-.68l-.56-.22L78.55,96l-.65-.28c-1-.42-2-.87-3-1.34s-1.92-.94-3-1.49l-.52-.28-.65-.35c-.81-.44-1.61-.9-2.41-1.37a88.91,88.91,0,0,1-15.9-12C44,70.94,38.11,62.22,35.05,54l-.1-.25c0-.11-.07-.22-.11-.32l-.18-.52a36.58,36.58,0,0,1-2-9,28.24,28.24,0,0,1,.06-5.12l.06-.49c0-.08,0-.16,0-.24l0-.24a19,19,0,0,1,4.55-9.93,20,20,0,0,1,3.38-3,22.72,22.72,0,0,1,3-1.75L44,23l.3-.13.31-.14.2-.09a28.65,28.65,0,0,1,8.4-2c.42,0,.84-.07,1.69-.12a43,43,0,0,1,5.86.13l.71.07.65.07.82.11.79.11.79.12.65.11A63.83,63.83,0,0,1,75.9,24.15c2.24.81,4.49,1.75,6.73,2.82l.33.16.41.2.73.36.72.36a88.5,88.5,0,0,1,14.49,9.39c2,1.57,3.88,3.22,5.73,5,1.39,1.31,2.7,2.63,4,4,.17.18.33.35.62.68l.48.53A72.15,72.15,0,0,1,117.22,57a55,55,0,0,1,5.67,11.56,36.79,36.79,0,0,1,1.92,9A27.11,27.11,0,0,1,124.75,82.58Z"/>
              <path class="cls-38" d="M124.57,82.49c0,.18,0,.36-.09.7,0,.11,0,.22,0,.33a2,2,0,0,1,0,.24,1.7,1.7,0,0,1,0,.22c0,.18-.06.36-.12.63a18.7,18.7,0,0,1-4.32,8.76,19.79,19.79,0,0,1-3.37,3,22.59,22.59,0,0,1-4.08,2.22,28,28,0,0,1-8.3,2,43.19,43.19,0,0,1-10.44-.36l-.93-.14-.45-.08A64.35,64.35,0,0,1,81.6,97.06c-.54-.19-1.08-.4-1.78-.67l-.56-.23-.71-.29c-.21-.08-.43-.17-.64-.27-1-.42-2-.87-3-1.34s-1.91-.93-3-1.48l-.52-.27-.65-.36c-.8-.44-1.6-.89-2.4-1.36A88.21,88.21,0,0,1,52.58,78.86C44.14,70.9,38.27,62.21,35.22,54l-.09-.26L35,53.45l-.18-.51a36.67,36.67,0,0,1-1.94-9,27.15,27.15,0,0,1,.06-5.1l.06-.49,0-.24c0-.08,0-.16,0-.23A18.88,18.88,0,0,1,37.61,28,19.84,19.84,0,0,1,41,25a22.89,22.89,0,0,1,3-1.74l.19-.09.29-.13.31-.14.2-.08a28.21,28.21,0,0,1,8.37-2c.42,0,.84-.08,1.69-.13a42.55,42.55,0,0,1,5.83.13l.71.07.65.07.82.11.78.11.78.12.65.11a64,64,0,0,1,10.65,2.91c2.23.81,4.47,1.75,6.7,2.82l.34.16.4.19.73.36.71.36a86.85,86.85,0,0,1,14.44,9.36c2,1.56,3.86,3.2,5.71,4.94,1.37,1.3,2.69,2.63,4,4l.62.67.48.53a73.45,73.45,0,0,1,7,9.29,54.27,54.27,0,0,1,5.64,11.51,36.44,36.44,0,0,1,1.91,8.92A26.81,26.81,0,0,1,124.57,82.49Z"/>
              <path class="cls-39" d="M124.38,82.41c0,.17,0,.35-.09.69,0,.11,0,.22,0,.32a2.17,2.17,0,0,0,0,.25,1.55,1.55,0,0,0,0,.21c0,.18-.07.36-.12.63a18.58,18.58,0,0,1-4.31,8.73,18.94,18.94,0,0,1-3.36,3,22.87,22.87,0,0,1-4,2.2,27.85,27.85,0,0,1-8.27,2,43.36,43.36,0,0,1-10.4-.36l-.92-.14-.46-.08a63.71,63.71,0,0,1-10.69-2.91l-1.77-.68L79.26,96l-.7-.29-.65-.27c-1-.42-2-.86-3-1.33S73.05,93.2,72,92.65l-.52-.27L70.84,92c-.8-.43-1.59-.89-2.39-1.35A87.87,87.87,0,0,1,52.68,78.79c-8.4-7.93-14.24-16.58-17.28-24.74l-.09-.25-.12-.32L35,53a36.34,36.34,0,0,1-1.93-9,26.93,26.93,0,0,1,.05-5.08l.06-.49c0-.08,0-.16,0-.24l0-.23a18.75,18.75,0,0,1,4.52-9.85,19.23,19.23,0,0,1,3.35-3,23.44,23.44,0,0,1,3-1.74l.19-.09.29-.13.31-.14.2-.08a28.24,28.24,0,0,1,8.34-2c.41,0,.83-.08,1.68-.13a42.16,42.16,0,0,1,5.8.14l.71.06.64.07.82.11.78.11.78.12.65.11a62.73,62.73,0,0,1,10.6,2.9q3.33,1.21,6.68,2.8l.33.16.4.19.72.36.72.37a86.88,86.88,0,0,1,14.38,9.31q2.92,2.32,5.68,4.92c1.37,1.3,2.68,2.62,4,4l.61.68.48.53a71.83,71.83,0,0,1,7,9.24,54.61,54.61,0,0,1,5.62,11.47,36,36,0,0,1,1.91,8.88A26.7,26.7,0,0,1,124.38,82.41Z"/>
              <path class="cls-40" d="M124.2,82.32c0,.17,0,.35-.09.69,0,.11,0,.21,0,.32a2,2,0,0,1,0,.24,1.43,1.43,0,0,1,0,.22c0,.18-.06.35-.12.62a18.45,18.45,0,0,1-4.29,8.7,19.52,19.52,0,0,1-3.34,3,22.74,22.74,0,0,1-4,2.19,27.88,27.88,0,0,1-8.24,2,43.48,43.48,0,0,1-10.35-.36l-.92-.14-.45-.08a62.31,62.31,0,0,1-10.65-2.9l-1.77-.67-.56-.22-.69-.29-.65-.27c-1-.42-2-.86-2.94-1.33s-1.9-.92-2.94-1.47l-.51-.27-.65-.35c-.79-.44-1.59-.89-2.38-1.36a86.65,86.65,0,0,1-15.7-11.83C44.42,70.82,38.6,62.2,35.58,54.08a2.6,2.6,0,0,1-.1-.25c0-.1-.07-.21-.11-.32L35.19,53a36.05,36.05,0,0,1-1.93-8.92A26.73,26.73,0,0,1,33.32,39l.06-.49,0-.24c0-.07,0-.15,0-.23a18.7,18.7,0,0,1,4.49-9.81,19.91,19.91,0,0,1,3.34-3,23.26,23.26,0,0,1,3-1.73l.19-.09.29-.13.31-.13.2-.09a28.29,28.29,0,0,1,8.3-2c.41,0,.83-.07,1.67-.12a42,42,0,0,1,5.79.13l.7.06.64.08c.24,0,.49,0,.81.1l.78.11.78.12.64.11a63,63,0,0,1,10.56,2.89,71.2,71.2,0,0,1,6.65,2.79l.33.16.4.19.72.36.71.36a86.45,86.45,0,0,1,14.33,9.27c1.94,1.55,3.82,3.18,5.66,4.91,1.36,1.29,2.66,2.6,4,4l.61.67c.16.18.32.35.47.53a70.71,70.71,0,0,1,7,9.21,53.87,53.87,0,0,1,5.59,11.42,35.81,35.81,0,0,1,1.9,8.84A26.49,26.49,0,0,1,124.2,82.32Z"/>
              <path class="cls-41" d="M124,82.23c0,.17,0,.35-.09.69,0,.11,0,.21,0,.32a2,2,0,0,0,0,.24c0,.07,0,.14,0,.22s-.06.35-.12.62A18.47,18.47,0,0,1,119.41,93a19.73,19.73,0,0,1-3.33,3,22.91,22.91,0,0,1-4,2.19,28.46,28.46,0,0,1-8.21,2,43.13,43.13,0,0,1-10.31-.36l-.92-.14-.45-.08a62.67,62.67,0,0,1-10.6-2.89c-.54-.19-1.07-.4-1.76-.67l-.56-.22-.69-.28-.64-.27c-1-.42-2-.86-2.93-1.32s-1.89-.93-2.93-1.47l-.51-.27-.64-.35q-1.2-.66-2.37-1.35A87.42,87.42,0,0,1,52.89,78.64c-8.33-7.87-14.13-16.45-17.14-24.53l-.09-.25c0-.11-.08-.21-.11-.32s-.12-.34-.18-.51a35.7,35.7,0,0,1-1.92-8.89,26.41,26.41,0,0,1,.06-5c0-.16,0-.33.05-.49a1.85,1.85,0,0,0,0-.23l0-.24a18.78,18.78,0,0,1,4.48-9.77,19,19,0,0,1,3.33-3,22.9,22.9,0,0,1,3-1.71l.19-.09.29-.14.31-.13.19-.08a28.24,28.24,0,0,1,8.27-2c.41,0,.82-.07,1.67-.12a41.54,41.54,0,0,1,5.76.13l.7.07.64.07.81.1.77.11.77.12.65.11a63.28,63.28,0,0,1,10.51,2.87c2.21.81,4.42,1.73,6.63,2.78l.33.16.39.19.72.36.71.36A85.72,85.72,0,0,1,99,37.82q2.91,2.31,5.64,4.88c1.36,1.29,2.66,2.59,3.93,4,.17.17.33.35.62.67l.47.52a71.58,71.58,0,0,1,7,9.17,54,54,0,0,1,5.58,11.38,36.31,36.31,0,0,1,1.89,8.8A27.11,27.11,0,0,1,124,82.23Z"/>
            </g>
          </g>
          <path class="cls-3" d="M124,82.23c0,.17,0,.35-.09.69,0,.11,0,.21,0,.32a2,2,0,0,0,0,.24c0,.07,0,.14,0,.22s-.06.35-.12.62A18.47,18.47,0,0,1,119.41,93a19.73,19.73,0,0,1-3.33,3,22.91,22.91,0,0,1-4,2.19,28.46,28.46,0,0,1-8.21,2,43.13,43.13,0,0,1-10.31-.36l-.92-.14-.45-.08a62.67,62.67,0,0,1-10.6-2.89c-.54-.19-1.07-.4-1.76-.67l-.56-.22-.69-.28-.64-.27c-1-.42-2-.86-2.93-1.32s-1.89-.93-2.93-1.47l-.51-.27-.64-.35q-1.2-.66-2.37-1.35A87.42,87.42,0,0,1,52.89,78.64c-8.33-7.87-14.13-16.45-17.14-24.53l-.09-.25c0-.11-.08-.21-.11-.32s-.12-.34-.18-.51a35.7,35.7,0,0,1-1.92-8.89,26.41,26.41,0,0,1,.06-5c0-.16,0-.33.05-.49a1.85,1.85,0,0,0,0-.23l0-.24a18.78,18.78,0,0,1,4.48-9.77,19,19,0,0,1,3.33-3,22.9,22.9,0,0,1,3-1.71l.19-.09.29-.14.31-.13.19-.08a28.24,28.24,0,0,1,8.27-2c.41,0,.82-.07,1.67-.12a41.54,41.54,0,0,1,5.76.13l.7.07.64.07.81.1.77.11.77.12.65.11a63.28,63.28,0,0,1,10.51,2.87c2.21.81,4.42,1.73,6.63,2.78l.33.16.39.19.72.36.71.36A85.72,85.72,0,0,1,99,37.82q2.91,2.31,5.64,4.88c1.36,1.29,2.66,2.59,3.93,4,.17.17.33.35.62.67l.47.52a71.58,71.58,0,0,1,7,9.17,54,54,0,0,1,5.58,11.38,36.31,36.31,0,0,1,1.89,8.8A27.11,27.11,0,0,1,124,82.23Zm-24.49-36A69.52,69.52,0,0,0,81.81,34.05c-12.56-6-25.31-7-33-1.67-11.45,8-7.33,27.1,9.21,42.72A69.4,69.4,0,0,0,75.72,87.31c12.55,6,25.29,7,33,1.66,11.48-8,7.36-27.09-9.18-42.73Z"/>
          <path class="cls-4" d="M75.72,87.31A69.4,69.4,0,0,1,58,75.1C41.46,59.48,37.34,40.35,48.79,32.38c7.71-5.34,20.46-4.31,33,1.67A69.52,69.52,0,0,1,99.52,46.24C116.06,61.88,120.18,81,108.7,89,101,94.31,88.27,93.28,75.72,87.31Z"/>
          <path class="cls-42" d="M147.38,80l-.93-.38h0l.93.38a65,65,0,0,0-5-14.72,2.92,2.92,0,0,0-.14-.31l-.2-.42c-5-10.53-13-21.37-23.66-31.46A136.67,136.67,0,0,0,103,20.55,129.65,129.65,0,0,0,84.56,9.81a109.18,109.18,0,0,0-19-7h0C54.27-.22,43.48-.86,34.35,1.19A33.4,33.4,0,0,0,17.57,9.94l-.36.37a27.14,27.14,0,0,0-4,5.35,27,27,0,0,1,4-5.31c-7.35,7.63-9.55,18.63-7,31a66,66,0,0,0,5.35,15.55c5,10.5,13,21.32,23.62,31.37A133,133,0,0,0,73,111.54c20.63,9.83,41.53,12.66,56.33,6.75L130,118a31.82,31.82,0,0,0,7.48-4.39l.52-.41.06-.06c.33-.27.66-.56,1-.85-.31.29-.64.58-1,.86C147.21,105.52,150.13,93.57,147.38,80ZM22.32,68.66c.48.71,1,1.42,1.48,2.13C23.29,70.08,22.8,69.37,22.32,68.66Zm32.23,32.13h0c.74.53,1.5,1,2.25,1.54C56.05,101.83,55.29,101.32,54.55,100.79Zm68.62,19.37-1-1.8h0l1,1.8c.54-.12,1.08-.25,1.6-.39C124.25,119.91,123.71,120,123.17,120.16Z"/>
          <g class="cls-43">
            <path class="cls-28" d="M123.17,120.16l-1-1.8h0l1,1.8c.54-.12,1.08-.25,1.6-.39C124.25,119.91,123.71,120,123.17,120.16ZM54.55,100.79h0c.74.53,1.5,1,2.25,1.54C56.05,101.83,55.29,101.32,54.55,100.79ZM147.38,80l-.93-.38h0l.93.38a65,65,0,0,0-5-14.72,2.92,2.92,0,0,0-.14-.31l-.2-.42c-5-10.53-13-21.37-23.66-31.46A136.67,136.67,0,0,0,103,20.55,129.65,129.65,0,0,0,84.56,9.81a109.18,109.18,0,0,0-19-7h0C54.27-.22,43.48-.86,34.35,1.19A33.4,33.4,0,0,0,17.57,9.94l-.36.37a27.14,27.14,0,0,0-4,5.35,27,27,0,0,1,4-5.31c-7.35,7.63-9.55,18.63-7,31a66,66,0,0,0,5.35,15.55c5,10.5,13,21.32,23.62,31.37A133,133,0,0,0,73,111.54c20.63,9.83,41.53,12.66,56.33,6.75L130,118a31.82,31.82,0,0,0,7.48-4.39l.52-.41.06-.06c.33-.27.66-.56,1-.85-.31.29-.64.58-1,.86C147.21,105.52,150.13,93.57,147.38,80ZM22.32,68.66c.48.71,1,1.42,1.48,2.13C23.29,70.08,22.8,69.37,22.32,68.66Z"/>
            <path class="cls-44" d="M123,120.24l-1-1.79h0l1,1.79c.54-.12,1.08-.25,1.6-.39C124.1,120,123.56,120.12,123,120.24ZM54.47,100.9h0c.74.52,1.5,1,2.25,1.54C56,101.93,55.21,101.42,54.47,100.9ZM147.2,80.16l-.92-.38h0l.93.38a65.8,65.8,0,0,0-5-14.71c0-.1-.09-.21-.14-.31l-.2-.42c-5-10.51-13-21.35-23.63-31.42a135.4,135.4,0,0,0-15.43-12.56A130,130,0,0,0,84.45,10,109.69,109.69,0,0,0,65.51,3h0C54.19,0,43.41-.65,34.29,1.4a33.37,33.37,0,0,0-16.76,8.74l-.36.37a27.38,27.38,0,0,0-4,5.34,27.33,27.33,0,0,1,4-5.31c-7.34,7.63-9.54,18.62-7,30.93A65.75,65.75,0,0,0,15.44,57c5,10.49,13,21.29,23.6,31.34a132.9,132.9,0,0,0,33.82,23.29c20.6,9.81,41.48,12.64,56.26,6.74l.69-.28a31.82,31.82,0,0,0,7.48-4.39l.51-.41.06,0c.34-.28.66-.57,1-.86-.32.29-.64.58-1,.86C147,105.62,150,93.68,147.2,80.16ZM22.27,68.8c.48.71,1,1.42,1.48,2.12C23.24,70.22,22.75,69.51,22.27,68.8Z"/>
            <path class="cls-45" d="M122.87,120.33l-1-1.8h0l1,1.79c.54-.12,1.07-.24,1.6-.38C123.94,120.08,123.41,120.2,122.87,120.33ZM54.39,101h0c.74.52,1.49,1,2.25,1.54C55.88,102,55.13,101.52,54.39,101ZM147,80.28l-.93-.37h0l.93.38a65.27,65.27,0,0,0-5-14.69c0-.1-.09-.21-.14-.31s-.13-.28-.2-.41c-5-10.51-13-21.34-23.61-31.4A135.11,135.11,0,0,0,102.7,20.93,128.64,128.64,0,0,0,84.33,10.2a108.9,108.9,0,0,0-18.92-7h0C54.11.19,43.34-.44,34.22,1.6a33.31,33.31,0,0,0-16.73,8.74l-.36.36a27.78,27.78,0,0,0-4,5.34,27.63,27.63,0,0,1,4-5.3c-7.33,7.61-9.52,18.6-7,30.9A65.92,65.92,0,0,0,15.4,57.16c5,10.48,13,21.27,23.57,31.31a132.88,132.88,0,0,0,33.79,23.26c20.58,9.8,41.44,12.63,56.2,6.74l.69-.29a31.65,31.65,0,0,0,7.48-4.38l.51-.41.06,0c.33-.28.66-.56,1-.86-.31.3-.64.58-1,.86C146.86,105.72,149.77,93.8,147,80.28ZM22.23,68.94c.48.7,1,1.41,1.47,2.11C23.2,70.35,22.71,69.64,22.23,68.94Z"/>
            <path class="cls-46" d="M122.72,120.41l-1-1.79h0l1,1.79c.54-.12,1.07-.25,1.6-.39C123.79,120.16,123.26,120.29,122.72,120.41ZM54.31,101.1h0c.74.53,1.49,1,2.24,1.54C55.8,102.14,55.05,101.63,54.31,101.1Zm92.54-20.69-.92-.38h0l.92.38a65.15,65.15,0,0,0-4.95-14.68c0-.1-.09-.21-.14-.31l-.2-.41c-5-10.5-12.95-21.31-23.59-31.36a135.12,135.12,0,0,0-15.4-12.54A127.75,127.75,0,0,0,84.22,10.4a109,109,0,0,0-18.9-7h0C54,.4,43.27-.23,34.16,1.81a33.27,33.27,0,0,0-16.72,8.73l-.35.36a27.72,27.72,0,0,0-4,5.33,27.67,27.67,0,0,1,4-5.29c-7.32,7.6-9.52,18.57-7,30.86a65,65,0,0,0,5.33,15.5c5,10.47,12.94,21.26,23.55,31.28a132.52,132.52,0,0,0,33.75,23.24c20.56,9.8,41.4,12.62,56.15,6.73l.68-.28A31.7,31.7,0,0,0,137,113.9l.51-.42.06,0c.33-.28.66-.56,1-.85-.32.29-.65.57-1,.85C146.68,105.82,149.6,93.91,146.85,80.41ZM22.18,69.07c.48.71,1,1.42,1.47,2.12C23.15,70.49,22.66,69.78,22.18,69.07Z"/>
            <path class="cls-47" d="M122.57,120.49l-1-1.78h0l1,1.78c.54-.12,1.07-.24,1.59-.38C123.64,120.25,123.11,120.37,122.57,120.49ZM54.23,101.21h0c.74.52,1.49,1,2.24,1.53C55.72,102.24,55,101.73,54.23,101.21Zm92.45-20.67-.93-.38h0l.93.38a64.92,64.92,0,0,0-5-14.67c0-.1-.09-.2-.14-.31l-.2-.41c-5-10.48-12.93-21.29-23.56-31.33A134.62,134.62,0,0,0,102.44,21.3,128,128,0,0,0,84.11,10.6a108.77,108.77,0,0,0-18.88-7h0C54,.61,43.2,0,34.1,2a33.3,33.3,0,0,0-16.7,8.71L17,11.1a27.7,27.7,0,0,0-4,5.32,28.3,28.3,0,0,1,4-5.29C9.69,18.73,7.5,29.69,10,42a65.45,65.45,0,0,0,5.33,15.48c5,10.46,12.92,21.23,23.52,31.25a133,133,0,0,0,33.72,23.22c20.54,9.78,41.36,12.6,56.09,6.72l.69-.28A32.18,32.18,0,0,0,136.8,114l.51-.42.06,0c.33-.27.65-.56,1-.85l-1,.85C146.51,105.92,149.42,94,146.68,80.54ZM22.13,69.21c.48.71,1,1.41,1.47,2.11C23.1,70.62,22.61,69.92,22.13,69.21Z"/>
            <path class="cls-48" d="M122.42,120.58l-1-1.79h0l1,1.79q.81-.18,1.59-.39Q123.23,120.4,122.42,120.58ZM54.15,101.31h0c.74.52,1.49,1,2.24,1.53C55.64,102.34,54.89,101.83,54.15,101.31ZM146.5,80.66l-.92-.38h0l.92.38A64.89,64.89,0,0,0,141.56,66c-.05-.1-.09-.2-.14-.31s-.13-.27-.2-.41C136.22,54.82,128.3,44,117.68,34a132.43,132.43,0,0,0-15.37-12.51A126.84,126.84,0,0,0,84,10.8a108,108,0,0,0-18.86-7h0C53.87.82,43.13.19,34,2.22a33.31,33.31,0,0,0-16.68,8.71l-.36.36a27.61,27.61,0,0,0-4,5.33A27.21,27.21,0,0,1,17,11.33c-7.31,7.59-9.5,18.54-7,30.8A65.18,65.18,0,0,0,15.28,57.6c5,10.45,12.91,21.21,23.5,31.22A132.73,132.73,0,0,0,72.46,112c20.52,9.77,41.32,12.59,56,6.72l.69-.29a31.54,31.54,0,0,0,7.45-4.36l.51-.41.06-.06c.33-.27.66-.56,1-.85-.31.29-.64.58-1,.85C146.33,106,149.24,94.13,146.5,80.66ZM22.08,69.35c.48.7,1,1.41,1.47,2.11C23.05,70.76,22.56,70.05,22.08,69.35Z"/>
            <path class="cls-49" d="M122.27,120.66l-1-1.78h0l1,1.78,1.59-.38Zm-68.2-19.24h0c.74.52,1.49,1,2.24,1.53C55.56,102.45,54.81,101.94,54.07,101.42Zm92.26-20.63-.93-.38h0l.93.38a64.91,64.91,0,0,0-4.94-14.63c0-.11-.09-.21-.14-.31l-.2-.42c-5-10.46-12.91-21.24-23.51-31.26a134,134,0,0,0-15.36-12.49A129.08,129.08,0,0,0,83.89,11,110.24,110.24,0,0,0,65.05,4h0C53.79,1,43.06.4,34,2.43a33.11,33.11,0,0,0-16.66,8.7c-.12.12-.25.24-.36.36a27.25,27.25,0,0,0-4,5.32,27.5,27.5,0,0,1,3.94-5.28c-7.3,7.58-9.48,18.52-7,30.77a65.64,65.64,0,0,0,5.32,15.45c5,10.44,12.9,21.19,23.48,31.18A132.37,132.37,0,0,0,72.36,112.1c20.5,9.76,41.28,12.58,56,6.71l.68-.28a31.74,31.74,0,0,0,7.45-4.36l.51-.41.06-.05,1-.85-1,.85C146.16,106.12,149.06,94.24,146.33,80.79ZM22,69.48c.47.71,1,1.41,1.47,2.11C23,70.89,22.51,70.19,22,69.48Z"/>
            <path class="cls-50" d="M122.12,120.75l-1-1.79h0l1,1.79q.81-.18,1.59-.39Q122.93,120.57,122.12,120.75ZM54,101.52h0c.74.52,1.49,1,2.24,1.53C55.48,102.55,54.73,102,54,101.52Zm92.16-20.61-.92-.37h0l.92.37a64.39,64.39,0,0,0-4.93-14.61c-.05-.11-.09-.21-.14-.31s-.13-.28-.2-.41c-5-10.46-12.89-21.23-23.49-31.24a134.83,134.83,0,0,0-15.34-12.48A128.17,128.17,0,0,0,83.78,11.19,109.25,109.25,0,0,0,65,4.21h0c-11.25-3-22-3.6-31-1.57a33.11,33.11,0,0,0-16.65,8.69l-.35.36a27.18,27.18,0,0,0-4,5.31,27.4,27.4,0,0,1,3.94-5.28c-7.29,7.58-9.48,18.5-7,30.74A65.08,65.08,0,0,0,15.2,57.9c5,10.43,12.88,21.16,23.45,31.15a132.09,132.09,0,0,0,33.61,23.14c20.49,9.76,41.23,12.57,55.92,6.71l.69-.28a31.94,31.94,0,0,0,7.43-4.36l.51-.41.06,0,1-.85-1,.85C146,106.22,148.88,94.36,146.15,80.91ZM22,69.62c.48.7,1,1.41,1.47,2.11C23,71,22.47,70.32,22,69.62Z"/>
            <path class="cls-51" d="M122,120.83l-1-1.78h0l1,1.78,1.59-.38ZM53.91,101.62h0c.74.52,1.49,1,2.23,1.53C55.4,102.65,54.65,102.14,53.91,101.62ZM146,81l-.92-.38h0L146,81a64.81,64.81,0,0,0-4.93-14.6c-.05-.1-.09-.21-.14-.31l-.2-.41c-5-10.44-12.88-21.2-23.47-31.2a132.62,132.62,0,0,0-15.32-12.47A128,128,0,0,0,83.66,11.39a108.37,108.37,0,0,0-18.8-7h0c-11.23-3-21.94-3.61-31-1.58a33.15,33.15,0,0,0-16.63,8.68l-.36.37a27.78,27.78,0,0,0-4,5.3,27.33,27.33,0,0,1,3.94-5.27c-7.29,7.57-9.47,18.48-7,30.71a64.94,64.94,0,0,0,5.31,15.42c5,10.41,12.87,21.14,23.43,31.12a132.32,132.32,0,0,0,33.57,23.12C92.63,122,113.35,124.84,128,119l.69-.29a31.57,31.57,0,0,0,7.43-4.35l.5-.41.07,0c.32-.28.65-.56,1-.85-.31.29-.64.57-1,.85C145.81,106.32,148.71,94.47,146,81Zm-124-11.28q.72,1,1.47,2.1Q22.66,70.81,21.94,69.76Z"/>
            <path class="cls-52" d="M121.82,120.92l-1-1.78h0l1,1.78q.81-.18,1.59-.39Q122.63,120.74,121.82,120.92Zm-68-19.19h0c.74.52,1.48,1,2.23,1.52C55.31,102.75,54.57,102.25,53.83,101.73Zm92-20.56-.92-.38h0l.92.38a64.69,64.69,0,0,0-4.92-14.59c0-.1-.1-.21-.14-.31l-.2-.41c-5-10.43-12.87-21.18-23.44-31.17a134.25,134.25,0,0,0-15.31-12.45A126.8,126.8,0,0,0,83.55,11.59a108.42,108.42,0,0,0-18.78-7h0c-11.22-3-21.92-3.6-31-1.57a33,33,0,0,0-16.61,8.67l-.36.36a27.78,27.78,0,0,0-4,5.3,27,27,0,0,1,3.94-5.26c-7.28,7.56-9.46,18.46-7,30.67a65.28,65.28,0,0,0,5.3,15.41c5,10.4,12.86,21.12,23.4,31.08a131.88,131.88,0,0,0,33.55,23.1c20.44,9.73,41.14,12.54,55.8,6.69l.68-.28a31.64,31.64,0,0,0,7.42-4.35l.51-.41.06,0,1-.85c-.32.29-.64.58-1,.85C145.63,106.42,148.53,94.58,145.8,81.17ZM21.9,69.89c.47.71,1,1.41,1.46,2.11C22.86,71.3,22.37,70.6,21.9,69.89Z"/>
            <path class="cls-53" d="M121.67,121l-1-1.78h0l1,1.78,1.58-.38ZM53.75,101.83h0c.74.52,1.48,1,2.23,1.53C55.23,102.86,54.49,102.35,53.75,101.83Zm91.88-20.54-.92-.37h0l.92.37a65.21,65.21,0,0,0-4.92-14.57c-.05-.1-.1-.21-.14-.31l-.2-.41c-5-10.42-12.86-21.15-23.42-31.13a133.19,133.19,0,0,0-15.29-12.45A127.39,127.39,0,0,0,83.44,11.79a108.24,108.24,0,0,0-18.76-7h0c-11.21-3-21.9-3.6-30.94-1.57a33,33,0,0,0-16.6,8.66l-.35.36a27.3,27.3,0,0,0-4,5.29,27.63,27.63,0,0,1,3.93-5.26C9.48,19.87,7.31,30.76,9.78,43a65.14,65.14,0,0,0,5.3,15.39c5,10.39,12.84,21.09,23.38,31.05A131.56,131.56,0,0,0,72,112.47c20.42,9.73,41.1,12.53,55.74,6.69l.68-.28a32.18,32.18,0,0,0,7.42-4.34l.5-.42.06-.05c.33-.27.66-.55,1-.84-.31.29-.64.57-1,.84C145.46,106.52,148.35,94.69,145.63,81.29ZM21.85,70c.47.7,1,1.4,1.46,2.1C22.81,71.43,22.32,70.73,21.85,70Z"/>
            <path class="cls-54" d="M121.52,121.09l-1-1.78h0l1,1.77c.54-.11,1.06-.24,1.58-.38C122.58,120.84,122.06,121,121.52,121.09ZM53.67,101.94h0c.74.52,1.48,1,2.23,1.53C55.15,103,54.41,102.45,53.67,101.94Zm91.78-20.52-.92-.38h0l.92.38a64.43,64.43,0,0,0-4.91-14.56,2.92,2.92,0,0,1-.14-.31c-.07-.13-.13-.27-.2-.41-5-10.4-12.84-21.13-23.39-31.1a134.64,134.64,0,0,0-15.28-12.43A126.73,126.73,0,0,0,83.33,12,107.27,107.27,0,0,0,64.58,5h0c-11.2-3-21.87-3.59-30.91-1.57A33.15,33.15,0,0,0,17.1,12.11c-.12.12-.24.24-.35.37a26.79,26.79,0,0,0-4,5.28,27.1,27.1,0,0,1,3.92-5.25c-7.26,7.54-9.44,18.42-7,30.61A64.81,64.81,0,0,0,15,58.49c5,10.39,12.83,21.08,23.36,31a131.87,131.87,0,0,0,33.47,23c20.4,9.71,41.06,12.51,55.68,6.68l.69-.29a31.66,31.66,0,0,0,7.4-4.33l.51-.41.06-.06q.49-.41,1-.84c-.31.29-.63.57-1,.85C145.28,106.62,148.17,94.81,145.45,81.42ZM21.8,70.17c.48.7,1,1.4,1.46,2.09C22.76,71.57,22.28,70.87,21.8,70.17Z"/>
          </g>
          <g class="cls-55">
            <path class="cls-54" d="M146,82h0a66,66,0,0,0-5-14.73l-.15-.31c-.06-.14-.13-.27-.19-.41C135.66,56,127.7,45.12,117,35a134.62,134.62,0,0,0-15.45-12.57A129.18,129.18,0,0,0,83.17,11.72a109.63,109.63,0,0,0-19-7h0C52.89,1.69,42.09,1.06,33,3.11a33.41,33.41,0,0,0-16.77,8.75l-.36.37a27.59,27.59,0,0,0-4,5.35,27.92,27.92,0,0,1,4-5.32c-7.34,7.63-9.54,18.64-7,31A65.42,65.42,0,0,0,14.1,58.77c5,10.51,13,21.32,23.62,31.38a132.88,132.88,0,0,0,33.85,23.31c20.63,9.82,41.53,12.65,56.32,6.75l.69-.28a32.45,32.45,0,0,0,7.49-4.39l.51-.42.06-.05c.34-.28.66-.56,1-.85-.32.29-.64.57-1,.85C145.82,107.44,148.75,95.49,146,82Z"/>
            <path class="cls-53" d="M146.12,81.77h0a65.49,65.49,0,0,0-5-14.72l-.15-.31-.2-.42c-5-10.52-13-21.37-23.66-31.45A134.52,134.52,0,0,0,101.71,22.3,128.78,128.78,0,0,0,83.3,11.55a109.7,109.7,0,0,0-19-7h0C53,1.52,42.22.89,33.09,2.93a33.34,33.34,0,0,0-16.78,8.76l-.36.36a27.44,27.44,0,0,0-4,5.35,27,27,0,0,1,4-5.31c-7.35,7.63-9.55,18.63-7,31A65.87,65.87,0,0,0,14.22,58.6c5,10.5,13,21.32,23.62,31.38a133.56,133.56,0,0,0,33.85,23.31c20.63,9.82,41.53,12.65,56.33,6.75l.69-.29a32.09,32.09,0,0,0,7.49-4.39l.51-.41.06,0,1-.86-1,.86C146,107.26,148.87,95.31,146.12,81.77Z"/>
            <path class="cls-52" d="M146.25,81.6h0a65.71,65.71,0,0,0-5-14.72c-.05-.11-.1-.21-.14-.32s-.13-.27-.2-.41c-5-10.53-13-21.38-23.66-31.46a135.69,135.69,0,0,0-15.45-12.57A129.57,129.57,0,0,0,83.42,11.37a109.33,109.33,0,0,0-19-7h0C53.14,1.34,42.35.71,33.21,2.76a33.41,33.41,0,0,0-16.77,8.75l-.36.37a27.59,27.59,0,0,0-4,5.35,27.55,27.55,0,0,1,4-5.32c-7.35,7.63-9.55,18.64-7,31a65.72,65.72,0,0,0,5.35,15.55c5,10.5,13,21.31,23.62,31.37a132.88,132.88,0,0,0,33.85,23.31c20.63,9.82,41.53,12.66,56.32,6.75l.69-.28a31.69,31.69,0,0,0,7.49-4.39c.17-.14.35-.27.51-.42l.07,0c.33-.27.65-.56,1-.85l-1,.85C146.07,107.09,149,95.14,146.25,81.6Z"/>
            <path class="cls-56" d="M146.37,81.43h0a65.49,65.49,0,0,0-5-14.72l-.15-.31c-.06-.14-.13-.28-.19-.41-5-10.53-13-21.38-23.67-31.46A133.67,133.67,0,0,0,102,22,128.78,128.78,0,0,0,83.55,11.2a108.82,108.82,0,0,0-19-7h0C53.26,1.17,42.47.54,33.34,2.58a33.46,33.46,0,0,0-16.78,8.76l-.36.36a28.59,28.59,0,0,0-4,5.35,27.74,27.74,0,0,1,4-5.31c-7.35,7.63-9.55,18.63-7.05,31a65.87,65.87,0,0,0,5.35,15.55c5,10.5,13,21.32,23.62,31.38A133.61,133.61,0,0,0,72,112.94c20.63,9.82,41.53,12.65,56.32,6.75l.69-.29a32.07,32.07,0,0,0,7.49-4.38l.51-.42.06,0c.34-.28.66-.56,1-.86-.32.3-.65.58-1,.86C146.2,106.92,149.12,95,146.37,81.43Z"/>
            <path class="cls-50" d="M146.5,81.25h0a64.88,64.88,0,0,0-5-14.72c-.05-.11-.09-.21-.14-.31l-.2-.42c-5-10.53-13-21.37-23.66-31.46a136.77,136.77,0,0,0-15.45-12.57A129,129,0,0,0,83.68,11a109.18,109.18,0,0,0-19-7h0C53.39,1,42.6.36,33.46,2.41a33.41,33.41,0,0,0-16.77,8.75l-.36.37a27.14,27.14,0,0,0-4,5.35,27,27,0,0,1,4-5.31c-7.35,7.63-9.55,18.63-7,31A65.57,65.57,0,0,0,14.6,58.08c5,10.5,13,21.31,23.62,31.37a133,133,0,0,0,33.85,23.31c20.63,9.83,41.53,12.66,56.32,6.75.24-.09.47-.18.69-.28a31.69,31.69,0,0,0,7.49-4.39l.52-.41.06-.06c.33-.27.66-.56,1-.85-.31.29-.64.58-1,.85C146.33,106.74,149.25,94.79,146.5,81.25Z"/>
            <path class="cls-49" d="M146.62,81.08h0a66,66,0,0,0-5-14.73l-.15-.31c-.06-.14-.13-.27-.19-.41-5-10.53-13-21.38-23.66-31.46A134.62,134.62,0,0,0,102.21,21.6,128.24,128.24,0,0,0,83.8,10.85a108.82,108.82,0,0,0-19-7h0C53.52.82,42.72.19,33.59,2.24A33.41,33.41,0,0,0,16.82,11c-.12.12-.25.24-.36.37a27.83,27.83,0,0,0-4,5.34,28.17,28.17,0,0,1,4-5.31C9.08,19,6.87,30,9.37,42.35A65.91,65.91,0,0,0,14.73,57.9c5,10.51,13,21.32,23.62,31.38A132.88,132.88,0,0,0,72.2,112.59c20.63,9.82,41.53,12.65,56.32,6.75l.69-.28a32.45,32.45,0,0,0,7.49-4.39l.51-.42.06,0c.34-.28.66-.56,1-.86-.32.3-.64.58-1,.86C146.45,106.57,149.38,94.62,146.62,81.08Z"/>
            <path class="cls-48" d="M146.75,80.9h0a65.49,65.49,0,0,0-5-14.72l-.15-.31-.2-.42c-5-10.53-13-21.37-23.66-31.46a136.67,136.67,0,0,0-15.44-12.57A129.65,129.65,0,0,0,83.93,10.68a109.7,109.7,0,0,0-19-7h0C53.64.65,42.85,0,33.72,2.06a33.34,33.34,0,0,0-16.78,8.76l-.36.36a27.44,27.44,0,0,0-4,5.35,27,27,0,0,1,4-5.31c-7.35,7.63-9.55,18.63-7,31a65.87,65.87,0,0,0,5.35,15.55c5,10.5,13,21.32,23.62,31.37a133,133,0,0,0,33.85,23.31c20.63,9.83,41.53,12.66,56.33,6.76l.69-.29a32.09,32.09,0,0,0,7.49-4.39l.51-.41.06,0,1-.86-1,.86C146.58,106.39,149.5,94.44,146.75,80.9Z"/>
            <path class="cls-47" d="M146.88,80.73h0a66,66,0,0,0-5-14.73,2.92,2.92,0,0,1-.14-.31l-.2-.41c-5-10.53-13-21.38-23.66-31.46a135.69,135.69,0,0,0-15.45-12.57A128.63,128.63,0,0,0,84.05,10.5a109.33,109.33,0,0,0-19-7h0C53.77.47,43-.16,33.84,1.89a33.41,33.41,0,0,0-16.77,8.75l-.36.37a27.59,27.59,0,0,0-4,5.35,27.92,27.92,0,0,1,4-5.32c-7.34,7.63-9.54,18.64-7,31A65.42,65.42,0,0,0,15,57.55C20,68.06,28,78.87,38.6,88.93a132.88,132.88,0,0,0,33.85,23.31c20.63,9.82,41.53,12.65,56.32,6.75l.69-.28a32,32,0,0,0,7.49-4.39l.51-.42.07-.05,1-.85c-.32.29-.64.57-1,.85C146.7,106.22,149.63,94.27,146.88,80.73Z"/>
            <path class="cls-57" d="M147,80.55h0a65.49,65.49,0,0,0-5-14.72l-.15-.31-.19-.42c-5-10.52-13-21.37-23.67-31.45a133.67,133.67,0,0,0-15.44-12.57A128.78,128.78,0,0,0,84.18,10.33a109.7,109.7,0,0,0-19-7h0C53.89.3,43.1-.33,34,1.71a33.46,33.46,0,0,0-16.78,8.76l-.36.36a28.27,28.27,0,0,0-4,5.35,27.44,27.44,0,0,1,4-5.31c-7.35,7.63-9.55,18.63-7,31A65.87,65.87,0,0,0,15.1,57.38c5,10.5,13,21.32,23.62,31.38a133.61,133.61,0,0,0,33.86,23.31c20.63,9.82,41.52,12.65,56.32,6.75l.69-.29a32.09,32.09,0,0,0,7.49-4.39l.51-.41.06,0c.34-.28.66-.57,1-.86l-1,.86C146.83,106,149.75,94.09,147,80.55Z"/>
            <path class="cls-45" d="M147.13,80.38h0a64.88,64.88,0,0,0-5-14.72l-.14-.32c-.07-.13-.13-.27-.2-.41-5-10.53-13-21.38-23.66-31.46A135.69,135.69,0,0,0,102.71,20.9a129,129,0,0,0-18.4-10.74,109.18,109.18,0,0,0-19-7h0C54,.12,43.23-.51,34.09,1.54a33.41,33.41,0,0,0-16.77,8.75l-.36.37A27.14,27.14,0,0,0,13,16a27.1,27.1,0,0,1,4-5.32c-7.35,7.64-9.55,18.64-7,31a65.72,65.72,0,0,0,5.35,15.55c5,10.5,13,21.31,23.62,31.37A132.88,132.88,0,0,0,72.7,111.89c20.63,9.82,41.53,12.66,56.32,6.75.24-.09.47-.18.69-.28A31.69,31.69,0,0,0,137.2,114c.18-.14.35-.27.52-.42l.06,0c.33-.27.66-.56,1-.85-.31.29-.64.57-1,.85C147,105.87,149.88,93.92,147.13,80.38Z"/>
            <path class="cls-44" d="M147.25,80.21h0a65.4,65.4,0,0,0-5-14.73l-.15-.31c-.06-.14-.13-.28-.19-.41-5-10.53-13-21.38-23.66-31.46a134.62,134.62,0,0,0-15.45-12.57A128.78,128.78,0,0,0,84.43,10a108.82,108.82,0,0,0-19-7h0C54.15,0,43.35-.68,34.22,1.37a33.33,33.33,0,0,0-16.77,8.75c-.12.12-.25.24-.36.36a28.21,28.21,0,0,0-4,5.35,27.74,27.74,0,0,1,4-5.31c-7.34,7.63-9.55,18.64-7,31A65.91,65.91,0,0,0,15.36,57c5,10.51,13,21.32,23.62,31.38a133.13,133.13,0,0,0,33.85,23.31c20.63,9.82,41.53,12.65,56.32,6.75l.69-.28a32.45,32.45,0,0,0,7.49-4.39l.51-.42.06,0c.34-.28.66-.56,1-.86-.32.3-.64.58-1,.86C147.08,105.7,150,93.75,147.25,80.21Z"/>
            <path class="cls-28" d="M147.38,80h0a65,65,0,0,0-5-14.72,2.92,2.92,0,0,0-.14-.31l-.2-.42c-5-10.53-13-21.37-23.66-31.46A136.67,136.67,0,0,0,103,20.55,129.65,129.65,0,0,0,84.56,9.81a109.18,109.18,0,0,0-19-7h0C54.27-.22,43.48-.86,34.35,1.19A33.4,33.4,0,0,0,17.57,9.94l-.36.37a27.14,27.14,0,0,0-4,5.35,27,27,0,0,1,4-5.31c-7.35,7.63-9.55,18.63-7,31a66,66,0,0,0,5.35,15.55c5,10.5,13,21.32,23.62,31.37A133,133,0,0,0,73,111.54c20.63,9.83,41.53,12.66,56.33,6.75L130,118a31.82,31.82,0,0,0,7.48-4.39l.52-.41.06-.06c.33-.27.66-.56,1-.85-.31.29-.64.58-1,.86C147.21,105.52,150.13,93.57,147.38,80Z"/>
            <path class="cls-44" d="M147.3,79.88h0a65.2,65.2,0,0,0-5-14.68l-.15-.31c-.06-.14-.13-.28-.19-.41C137,54,129,43.16,118.38,33.1A133.1,133.1,0,0,0,103,20.56,128.55,128.55,0,0,0,84.61,9.83a109.11,109.11,0,0,0-18.91-7h0c-11.3-3-22.07-3.63-31.18-1.6A33.33,33.33,0,0,0,17.8,9.94l-.36.37a27.36,27.36,0,0,0-4,5.33,27.22,27.22,0,0,1,4-5.3c-7.33,7.61-9.52,18.58-7,30.87a65.29,65.29,0,0,0,5.35,15.51c5,10.47,13,21.26,23.57,31.29a133.21,133.21,0,0,0,33.77,23.26c20.58,9.8,41.43,12.63,56.18,6.75l.69-.28a31.63,31.63,0,0,0,7.46-4.37c.18-.14.35-.27.52-.42l.06,0c.33-.27.65-.56,1-.85-.32.29-.64.58-1,.85C147.14,105.3,150.05,93.38,147.3,79.88Z"/>
            <path class="cls-45" d="M147.22,79.73h0a65.24,65.24,0,0,0-5-14.64c0-.1-.09-.21-.14-.31l-.2-.41c-5-10.47-12.94-21.26-23.56-31.3A136.39,136.39,0,0,0,103,20.56,129.44,129.44,0,0,0,84.66,9.86a109.5,109.5,0,0,0-18.87-7h0c-11.28-3-22-3.63-31.1-1.61A33.13,33.13,0,0,0,18,9.94l-.36.36a27.25,27.25,0,0,0-4,5.32,27.14,27.14,0,0,1,4-5.28c-7.3,7.58-9.48,18.51-7,30.77A65.65,65.65,0,0,0,16,56.57C21,67,28.92,77.78,39.52,87.79A132.82,132.82,0,0,0,73.21,111c20.53,9.78,41.32,12.62,56,6.76l.69-.28a32,32,0,0,0,7.44-4.35l.51-.42.06,0c.34-.27.66-.56,1-.85-.31.29-.64.57-1,.85C147.07,105.07,150,93.2,147.22,79.73Z"/>
            <path class="cls-46" d="M147.13,79.58h0A65,65,0,0,0,142.19,65l-.15-.31c-.06-.13-.13-.27-.19-.41-5-10.44-12.92-21.2-23.52-31.21A134.83,134.83,0,0,0,103,20.57,128.9,128.9,0,0,0,84.71,9.89a109,109,0,0,0-18.82-7h0c-11.24-3-22-3.63-31-1.62A33,33,0,0,0,18.26,9.94l-.36.36a27.41,27.41,0,0,0-4,5.29,27.57,27.57,0,0,1,3.94-5.26c-7.28,7.56-9.45,18.46-7,30.68a64.88,64.88,0,0,0,5.33,15.42c5,10.42,12.9,21.15,23.47,31.13a132.61,132.61,0,0,0,33.62,23.15c20.48,9.77,41.22,12.6,55.88,6.77l.69-.28a31.28,31.28,0,0,0,7.42-4.34l.51-.41.06,0c.33-.27.65-.56,1-.85l-1,.85C147,104.85,149.88,93,147.13,79.58Z"/>
            <path class="cls-47" d="M147.05,79.43h0a64.73,64.73,0,0,0-4.94-14.56c-.05-.1-.1-.2-.14-.3s-.13-.28-.2-.41C136.78,53.74,128.88,43,118.3,33A134.35,134.35,0,0,0,103,20.57,129.15,129.15,0,0,0,84.76,9.92,109.59,109.59,0,0,0,66,2.93h0C54.78,0,44.1-.69,35.06,1.31A33,33,0,0,0,18.48,9.93l-.35.36a27.14,27.14,0,0,0-3.95,5.28,27,27,0,0,1,3.92-5.24c-7.26,7.53-9.42,18.4-6.92,30.58A65.16,65.16,0,0,0,16.5,56.29c5,10.39,12.88,21.09,23.43,31.05a132.52,132.52,0,0,0,33.54,23.1c20.43,9.74,41.11,12.58,55.74,6.77l.68-.28a31.63,31.63,0,0,0,7.4-4.32l.51-.41.06,0c.33-.27.65-.56,1-.84l-1,.84C146.93,104.62,149.8,92.82,147.05,79.43Z"/>
            <path class="cls-48" d="M147,79.28h0A64.36,64.36,0,0,0,142,64.77a2.92,2.92,0,0,0-.14-.31c-.07-.14-.13-.27-.19-.41-5-10.38-12.87-21.09-23.43-31A133.57,133.57,0,0,0,103,20.58,127.66,127.66,0,0,0,84.81,10,108.75,108.75,0,0,0,66.09,3h0C54.9,0,44.25-.65,35.24,1.34A32.87,32.87,0,0,0,18.71,9.93l-.35.36a26.66,26.66,0,0,0-3.94,5.26,27.28,27.28,0,0,1,3.9-5.23C11.09,17.83,9,28.66,11.44,40.81a64.88,64.88,0,0,0,5.32,15.34c5,10.36,12.85,21,23.38,31a132.18,132.18,0,0,0,33.46,23c20.38,9.73,41,12.56,55.59,6.78l.68-.28a31.44,31.44,0,0,0,7.38-4.3l.51-.41.06,0c.33-.27.65-.56,1-.84l-1,.84C146.86,104.4,149.71,92.63,147,79.28Z"/>
            <path class="cls-49" d="M146.89,79.13h0A65,65,0,0,0,142,64.66l-.15-.31c-.06-.14-.13-.27-.19-.41-5-10.35-12.84-21-23.37-31A135,135,0,0,0,103,20.58,127.44,127.44,0,0,0,84.86,10,108.23,108.23,0,0,0,66.19,3h0C55,0,44.41-.61,35.42,1.37A32.67,32.67,0,0,0,18.94,9.93l-.35.35a26.84,26.84,0,0,0-3.93,5.25,26.69,26.69,0,0,1,3.89-5.21C11.34,17.79,9.21,28.6,11.7,40.71A64.78,64.78,0,0,0,17,56c5,10.34,12.83,21,23.34,30.89a131.78,131.78,0,0,0,33.38,23c20.33,9.71,40.9,12.55,55.44,6.79l.68-.28a31.28,31.28,0,0,0,7.36-4.29c.17-.13.34-.26.5-.4l.06,0,1-.84-1,.84C146.79,104.17,149.63,92.44,146.89,79.13Z"/>
            <path class="cls-50" d="M146.8,79h0a64,64,0,0,0-4.92-14.43c0-.1-.09-.21-.14-.31s-.13-.27-.2-.4c-5-10.33-12.81-21-23.32-30.89A134.27,134.27,0,0,0,103,20.59,127.46,127.46,0,0,0,84.91,10a107.8,107.8,0,0,0-18.63-7h0C55.16.08,44.56-.57,35.6,1.4A32.58,32.58,0,0,0,19.17,9.92l-.35.36a26.37,26.37,0,0,0-3.92,5.23,26.61,26.61,0,0,1,3.88-5.19C11.6,17.76,9.47,28.53,12,40.61a64,64,0,0,0,5.3,15.25c5,10.3,12.8,20.92,23.28,30.81a132.09,132.09,0,0,0,33.31,22.94c20.27,9.68,40.8,12.52,55.3,6.79l.67-.28a31.09,31.09,0,0,0,7.34-4.27l.5-.41.06,0c.33-.27.65-.55,1-.83-.31.28-.63.56-1,.83C146.72,104,149.55,92.25,146.8,79Z"/>
            <path class="cls-51" d="M146.72,78.84h0a64.25,64.25,0,0,0-4.91-14.4l-.15-.3c-.06-.14-.13-.27-.19-.41-5-10.3-12.8-20.92-23.28-30.8A133.78,133.78,0,0,0,103,20.59,128.66,128.66,0,0,0,85,10,108.44,108.44,0,0,0,66.38,3.09h0c-11.1-3-21.66-3.63-30.6-1.66A32.29,32.29,0,0,0,19.4,9.92l-.35.36a26.82,26.82,0,0,0-3.91,5.2A27,27,0,0,1,19,10.31c-7.16,7.42-9.27,18.16-6.78,30.21a64.68,64.68,0,0,0,5.29,15.2C22.48,66,30.3,76.58,40.76,86.44A131.7,131.7,0,0,0,74,109.33c20.23,9.67,40.7,12.51,55.16,6.8l.67-.28a31.24,31.24,0,0,0,7.32-4.25l.5-.41.06,0c.33-.27.64-.54.95-.83-.31.29-.63.56-.95.83C146.65,103.72,149.46,92.07,146.72,78.84Z"/>
            <path class="cls-52" d="M146.64,78.69h0a64,64,0,0,0-4.91-14.36c0-.1-.1-.2-.14-.3l-.2-.41c-4.95-10.27-12.77-20.86-23.23-30.72A134.09,134.09,0,0,0,103,20.6,127.72,127.72,0,0,0,85,10.06,108.75,108.75,0,0,0,66.48,3.13h0C55.41.17,44.87-.49,36,1.47A32.29,32.29,0,0,0,19.62,9.92l-.35.35a26.6,26.6,0,0,0-3.88,5.19,26.5,26.5,0,0,1,3.85-5.15C12.1,17.7,10,28.41,12.49,40.42a64.56,64.56,0,0,0,5.29,15.16C22.73,65.82,30.53,76.38,41,86.22a131.3,131.3,0,0,0,33.14,22.83c20.18,9.65,40.6,12.49,55,6.81l.68-.28a30.86,30.86,0,0,0,7.29-4.24l.5-.4.06,0c.32-.27.64-.54.95-.83-.31.29-.63.56-.95.83C146.58,103.5,149.38,91.88,146.64,78.69Z"/>
            <path class="cls-53" d="M146.56,78.54h0a63.83,63.83,0,0,0-4.91-14.32c0-.1-.09-.2-.14-.3l-.19-.4c-4.94-10.24-12.75-20.81-23.18-30.64A133.3,133.3,0,0,0,103,20.61a127.18,127.18,0,0,0-18-10.52A108.22,108.22,0,0,0,66.58,3.17h0C55.54.21,45-.45,36.14,1.5A32.15,32.15,0,0,0,19.85,9.91l-.35.36a26.43,26.43,0,0,0-3.87,5.17,26.69,26.69,0,0,1,3.84-5.14c-7.12,7.37-9.21,18-6.72,30A64.46,64.46,0,0,0,18,55.43C23,65.65,30.76,76.18,41.18,86a131.44,131.44,0,0,0,33.06,22.79c20.13,9.62,40.49,12.47,54.87,6.81l.67-.27a30.7,30.7,0,0,0,7.27-4.23l.5-.4s0,0,0,0c.33-.27.64-.54,1-.83-.31.29-.62.56-1,.83C146.51,103.27,149.3,91.69,146.56,78.54Z"/>
            <path class="cls-54" d="M146.47,78.39h0a64,64,0,0,0-4.89-14.28l-.15-.3-.19-.4c-4.93-10.21-12.72-20.75-23.13-30.56a133.72,133.72,0,0,0-15.06-12.24A127.52,127.52,0,0,0,85.12,10.12,108.31,108.31,0,0,0,66.67,3.21h0c-11-3-21.5-3.63-30.36-1.69A32,32,0,0,0,20.08,9.91l-.35.35a27,27,0,0,0-3.86,5.16A26.2,26.2,0,0,1,19.7,10.3c-7.09,7.34-9.18,18-6.69,29.92a64,64,0,0,0,5.28,15.07C23.22,65.48,31,76,41.38,85.77a131.27,131.27,0,0,0,33,22.73c20.08,9.61,40.39,12.45,54.72,6.82l.67-.27a31.05,31.05,0,0,0,7.25-4.21l.49-.4.06,0c.32-.27.64-.54.95-.82-.31.28-.63.55-.95.82C146.44,103.05,149.21,91.5,146.47,78.39Z"/>
          </g>
        </g>
      </g>
    </g>
  </g>
</svg>
