<svg xmlns="http://www.w3.org/2000/svg" xmlns:xlink="http://www.w3.org/1999/xlink" width="74.18" height="93.84" viewBox="0 0 74.18 93.84">
  <defs>
    <style>
      .cls-1 {
        isolation: isolate;
      }

      .cls-2 {
        fill: #262626;
      }

      .cls-3 {
        fill: #474747;
      }

      .cls-4 {
        fill: #f4f4f4;
      }

      .cls-5 {
        fill: #dcddde;
      }

      .cls-29, .cls-42, .cls-6 {
        mix-blend-mode: multiply;
      }

      .cls-7 {
        fill: #c4c4c4;
      }

      .cls-8 {
        opacity: 0.91;
      }

      .cls-9 {
        fill: #c9c9c9;
      }

      .cls-10 {
        opacity: 0.82;
      }

      .cls-11 {
        fill: #cfcfcf;
      }

      .cls-12 {
        opacity: 0.73;
      }

      .cls-13 {
        fill: #d4d4d4;
      }

      .cls-14 {
        opacity: 0.64;
      }

      .cls-15, .cls-36 {
        fill: #d9d9d9;
      }

      .cls-16 {
        opacity: 0.55;
      }

      .cls-17 {
        fill: #dfdfdf;
      }

      .cls-18 {
        opacity: 0.45;
      }

      .cls-19 {
        fill: #e4e4e4;
      }

      .cls-20 {
        opacity: 0.36;
      }

      .cls-21 {
        fill: #eaeaea;
      }

      .cls-22 {
        opacity: 0.27;
      }

      .cls-23 {
        fill: #efefef;
      }

      .cls-24 {
        opacity: 0.18;
      }

      .cls-25 {
        opacity: 0.09;
      }

      .cls-26 {
        fill: #fafafa;
      }

      .cls-27, .cls-30, .cls-54 {
        opacity: 0;
      }

      .cls-28, .cls-30 {
        fill: #fff;
      }

      .cls-29 {
        fill: url(#linear-gradient);
      }

      .cls-31 {
        fill: #f9f9f9;
      }

      .cls-31, .cls-53 {
        opacity: 0.09;
      }

      .cls-32 {
        fill: #f2f2f2;
      }

      .cls-32, .cls-52 {
        opacity: 0.18;
      }

      .cls-33 {
        fill: #ececec;
      }

      .cls-33, .cls-56 {
        opacity: 0.27;
      }

      .cls-34 {
        fill: #e6e6e6;
      }

      .cls-34, .cls-50 {
        opacity: 0.36;
      }

      .cls-35 {
        fill: #e0e0e0;
      }

      .cls-35, .cls-49 {
        opacity: 0.45;
      }

      .cls-36, .cls-48 {
        opacity: 0.55;
      }

      .cls-37 {
        fill: #d3d3d3;
      }

      .cls-37, .cls-47 {
        opacity: 0.64;
      }

      .cls-38 {
        fill: #cdcdcd;
      }

      .cls-38, .cls-57 {
        opacity: 0.73;
      }

      .cls-39 {
        fill: #c7c7c7;
      }

      .cls-39, .cls-45 {
        opacity: 0.82;
      }

      .cls-40 {
        fill: silver;
      }

      .cls-40, .cls-44 {
        opacity: 0.91;
      }

      .cls-41 {
        fill: #bababa;
      }

      .cls-42, .cls-43 {
        opacity: 0.5;
      }

      .cls-42 {
        fill: url(#linear-gradient-2);
      }

      .cls-43, .cls-55 {
        mix-blend-mode: screen;
      }

      .cls-44 {
        fill: #e8e8e8;
      }

      .cls-45 {
        fill: #d1d1d1;
      }

      .cls-46, .cls-57 {
        fill: #b9b9b9;
      }

      .cls-46 {
        opacity: 0.73;
      }

      .cls-47 {
        fill: #a2a2a2;
      }

      .cls-48 {
        fill: #8b8b8b;
      }

      .cls-49 {
        fill: #747474;
      }

      .cls-50 {
        fill: #5d5d5d;
      }

      .cls-51, .cls-56 {
        fill: #464646;
      }

      .cls-51 {
        opacity: 0.27;
      }

      .cls-52 {
        fill: #2e2e2e;
      }

      .cls-53 {
        fill: #171717;
      }

      .cls-55 {
        opacity: 0.2;
      }
    </style>
    <linearGradient id="linear-gradient" x1="-343.65" y1="-83.6" x2="-247.39" y2="-83.6" gradientTransform="translate(85.17 354.3) rotate(62.89)" gradientUnits="userSpaceOnUse">
      <stop offset="0" stop-color="#d2d3d4"/>
      <stop offset="0.04" stop-color="#d9d9da"/>
      <stop offset="0.2" stop-color="#eeeeef"/>
      <stop offset="0.35" stop-color="#fbfbfb"/>
      <stop offset="0.5" stop-color="#fff"/>
      <stop offset="0.65" stop-color="#fbfbfb"/>
      <stop offset="0.8" stop-color="#f0f0f1"/>
      <stop offset="0.94" stop-color="#dddedf"/>
      <stop offset="1" stop-color="#d2d3d4"/>
    </linearGradient>
    <linearGradient id="linear-gradient-2" x1="-135.71" y1="-178.86" x2="-135.71" y2="-237.23" gradientTransform="translate(-41.66 279.06) rotate(52.61)" gradientUnits="userSpaceOnUse">
      <stop offset="0" stop-color="#dcddde"/>
      <stop offset="0.31" stop-color="#eeeeef"/>
      <stop offset="0.67" stop-color="#fbfbfb"/>
      <stop offset="1" stop-color="#fff"/>
    </linearGradient>
  </defs>
  <g class="cls-1">
    <g id="Слой_2" data-name="Слой 2">
      <g id="Слой_1-2" data-name="Слой 1">
        <g>
          <path class="cls-2" d="M9.65,15.69c0-.16.09-.32.14-.48l0-.08.14-.44,0-.09c0-.15.09-.3.14-.45l0-.05.15-.44v0l.17-.45,0-.06c0-.14.11-.29.17-.43l0-.07.18-.43,0,0c0-.14.11-.27.17-.41l0-.05c.06-.14.13-.27.19-.41l0-.08.18-.39,0-.07.21-.41h0l.21-.4,0-.06.21-.38,0-.07L12.42,9l0,0,.21-.35,0,0,.22-.36L13,8.17a4,4,0,0,1,.23-.34l0-.07.25-.35h0c.08-.12.16-.23.25-.34l0,0L14,6.69l.06-.07.25-.31,0,0,.27-.32h0l.28-.3L15,5.57l.27-.29.06-.06.28-.28s0,0,0,0l.27-.26,0,0,.29-.27.06,0L16.6,4l0,0L17,3.72h0l.31-.24.06,0a3.55,3.55,0,0,1,.31-.23.18.18,0,0,1,.07-.05L18,2.93a15.48,15.48,0,0,1,2-1.17l-8.25,4A18.69,18.69,0,0,0,9.81,7h0l0,0-.32.22-.06,0-.32.24L9,7.51l-.3.23,0,0L8.41,8l-.07.05-.29.25L8,8.37a3.83,3.83,0,0,0-.29.28l0,0-.28.27,0,0-.28.29,0,.05-.27.29,0,.05c-.09.11-.19.21-.28.31v0l-.27.31,0,0-.25.31-.06.07a3.92,3.92,0,0,1-.25.32l0,0-.25.33v0c-.09.11-.17.23-.25.35l0,.06-.24.35,0,.06-.24.36,0,0L4.21,13l0,.05L4,13.45l0,.08-.21.37,0,.06-.21.4v0l-.2.39,0,.07c-.06.13-.13.26-.19.4l0,.07-.19.4a.64.64,0,0,1,0,.07c-.06.13-.12.26-.17.39l0,0c-.06.14-.12.28-.17.42l0,.08c0,.14-.1.28-.16.42l0,.09-.16.43,0,.06c0,.13-.09.26-.14.4a.24.24,0,0,1,0,.08l-.15.44s0,.06,0,.09l-.14.44,0,.1c0,.14-.08.29-.13.44v0h0Z"/>
          <path class="cls-2" d="M18,61.28,17.3,60c-.09-.16-.17-.32-.25-.48l-.12-.22-.21-.41-.12-.23-.22-.42a2.26,2.26,0,0,0-.11-.22L16,57.55,16,57.37c-.1-.21-.2-.43-.31-.64l0-.1c-.09-.17-.17-.35-.25-.53a2,2,0,0,1-.1-.21L15,55.43,15,55.24l-.22-.49-.08-.17c-.09-.21-.19-.43-.28-.65a1.17,1.17,0,0,1,0-.11c-.08-.18-.16-.36-.23-.54l-.09-.2c-.06-.16-.13-.32-.2-.48a1.08,1.08,0,0,0-.08-.19c0-.12-.09-.23-.13-.34l-.21-.51-.11-.29-.21-.52a2.49,2.49,0,0,0-.11-.29l-.21-.56-.09-.25c-.1-.27-.2-.54-.29-.81l-.24-.68a1.72,1.72,0,0,1-.07-.21c-.06-.16-.11-.32-.16-.47l-.09-.26-.15-.46a2,2,0,0,1-.07-.23l-.21-.65,0-.11c-.07-.19-.13-.39-.19-.59s-.05-.16-.07-.25L11,44.5c0-.09,0-.17-.07-.26s-.09-.29-.13-.44l-.07-.25c0-.18-.1-.35-.14-.52a.83.83,0,0,1,0-.15l-.18-.68c0-.09-.05-.18-.07-.27s-.07-.29-.11-.43l-.06-.27c0-.15-.07-.29-.11-.43l-.06-.29-.09-.39c0-.1-.05-.21-.07-.31l-.09-.39-.06-.3c0-.13,0-.25-.08-.38l-.06-.31c0-.12-.05-.25-.08-.38s0-.2-.05-.3l-.06-.27c-.37-2-.65-4-.81-6l-8.26,4q.24,2.76.76,5.64H1l.06.35a1.18,1.18,0,0,1,0,.2v.07l.06.3c0,.13.05.26.08.39l.06.3c0,.13.05.25.08.38l.06.31.09.39.06.29c0,.13.07.27.1.41l.06.29c0,.14.07.28.11.43l.06.25c0,.17.08.34.13.51a1.33,1.33,0,0,0,0,.19c.05.23.11.46.17.68V47c.06.21.12.42.17.62a1.42,1.42,0,0,0,.07.22c0,.16.08.32.13.47l.06.23.15.48.06.22c.07.22.13.44.2.65v0l.21.68c0,.08.05.16.08.24l.15.45.09.26.06.19c0,.1.06.19.1.29l.06.19c.08.23.16.46.25.69s.19.54.29.81l.09.25.21.56c0,.1.08.19.11.29l.21.52a2.49,2.49,0,0,0,.11.29l.21.52a1.54,1.54,0,0,0,.08.19,1.12,1.12,0,0,0,0,.13l.09.22.18.44a2.44,2.44,0,0,1,.1.24l.21.47c0,.06,0,.12.07.17.09.22.19.43.28.64s0,.12.08.17l.21.48.1.22c.07.15.14.29.2.43l.11.22.22.48.08.16h0l.3.62.09.18.23.46.11.22c.07.14.14.28.22.42a1,1,0,0,0,.12.23l.21.42a2.12,2.12,0,0,1,.11.21l.26.48.06.12h0l.64,1.17Z"/>
          <path class="cls-2" d="M49,89.1,48.76,89l-.36-.09-.08,0L48,88.84l-.09,0-.32-.1h0l-.37-.12-.07,0-.29-.09-.11,0-.29-.1-.07,0L46,88.17l-.09,0-.29-.1-.09,0-.3-.12-.07,0-.35-.14-.1,0-.28-.12-.1,0-.28-.12-.1,0-.37-.17h0L43.25,87,43.12,87l-.26-.13-.1,0-.34-.17h0L42,86.4l-.12-.06-.25-.13-.12-.07L41.28,86l-.11-.06-.36-.2h0l-.37-.21a.41.41,0,0,0-.11-.07l-.26-.15L40,85.23l-.26-.15-.1-.07-.36-.22-.06,0-.31-.2-.12-.08-.24-.16-.12-.08a3.28,3.28,0,0,1-.31-.2l0,0-.37-.26-.06,0-.3-.21-.12-.08-.24-.17-.13-.09L36.52,83l-.08,0-.35-.27L36,82.57l-.28-.21-.12-.09-.24-.19L35.25,82l-.71-.56-.1-.08-.25-.21-.12-.1-.25-.21-.11-.09-.35-.29-.06,0a3.47,3.47,0,0,0-.29-.25L32.89,80l-.23-.21-.12-.1-.29-.26,0,0-.35-.32-.1-.08-.25-.24-.12-.11-.24-.23-.1-.1-.3-.28,0,0-.34-.33-.1-.11L30,77.33l-.1-.11L29.65,77l-.1-.11-.32-.32-.07-.08-.29-.3-.09-.1-.24-.26-.12-.12-.25-.27-.08-.09L27.75,75l0,0-.28-.32-.11-.12-.22-.26L27,74.1l-.26-.3-.07-.08c-.11-.12-.22-.25-.32-.38l-.09-.1L26,73l-.12-.13-.22-.27-.1-.12L25,71.66l-.36-.45-.09-.11-.35-.46q-1.68-2.17-3.24-4.55l-8.25,4q1.56,2.37,3.24,4.55a.86.86,0,0,0,.07.1h0l.28.36a.44.44,0,0,1,.08.11l.36.45,0,0,.6.74.1.12.22.27.11.13.24.28.09.11.32.37.07.08.25.3a.69.69,0,0,1,.11.13l.23.25.11.13.28.31,0,.05c.12.12.23.24.34.37l.08.09.25.27.11.11.25.27.09.09.29.31a.46.46,0,0,1,.07.07l.31.32.11.11.24.25.11.1c.08.08.16.17.25.25a.94.94,0,0,0,.1.1l.33.33.06,0,.29.28.11.1.24.23.12.11.25.24.09.08.36.32s0,0,.05.05l.29.26.12.11.23.2.12.11.29.25.06,0,.34.29.12.1.24.2.13.1.25.21.1.08L27,86l.11.09.24.18.13.1.28.21.08,0,.35.27.08.06.28.2.13.09.24.17.12.09.3.2.06,0,.37.25.05,0,.31.21.11.07.25.17.12.07.31.2,0,0,.37.23.1.06.26.16.12.07.26.15.11.07.37.21h0l.36.2L33,90l.25.14.13.07.25.13.12.06.37.19h0l.34.17.1,0,.26.13.13.06.32.15,0,0,.37.16.1.05.19.08.09,0,.09,0,.3.12.08,0,.36.15,0,0,.32.12.09,0,.29.1.09,0,.36.13,0,0,.31.1.1,0,.29.09.08,0,.36.11,0,0,.32.09.09,0,.3.08.07,0,.37.1h0l.27.07Z"/>
          <path class="cls-3" d="M72.78,74.11l-5-5.81a2.29,2.29,0,0,1-.52-1.7,40.33,40.33,0,0,0,.2-13.35c-.08-.62.15-1.06.57-1.06h5.11a59.38,59.38,0,0,1,1,12.16A65.62,65.62,0,0,0,70.07,41a80.59,80.59,0,0,0-4.85-11L60.59,31.3c-.33.1-.75-.14-1.08-.57A67.16,67.16,0,0,0,55,24a55,55,0,0,0-4.92-5.6,2.09,2.09,0,0,1-.2-.22,2.27,2.27,0,0,1-.47-1.46L50,10.19c-5.26-4.72-10.89-8-16.35-9.42L34,7.9c0,.6-.27,1-.72.89a14.93,14.93,0,0,0-9.46,1.29c-.33.18-.8,0-1.17-.51L18.11,2.9A17,17,0,0,1,21.92,1c-6,2.09-10.23,7.4-12.27,14.71l5,5.81a2.2,2.2,0,0,1,.53,1.7A39.8,39.8,0,0,0,15,36.55c.09.61-.15,1.07-.57,1.06H9.31a58.78,58.78,0,0,1-1.05-12.1,65.55,65.55,0,0,0,4.1,23.33,80,80,0,0,0,11.8,21.8C32.55,81.57,43,88.82,52.57,89.7A22.89,22.89,0,0,1,48.78,89l-.37-7.13c0-.6.26-1,.71-.88a15,15,0,0,0,9.45-1.31c.34-.16.81,0,1.18.52l4.58,6.67a16.86,16.86,0,0,1-5.65,2.44C65.7,87.76,70.55,82.14,72.78,74.11ZM17.2,14l-2-.48a.47.47,0,0,1-.25-.18.75.75,0,0,1-.14-.33l-.49-2.74c-.05-.24.06-.4.24-.36l2,.48a.47.47,0,0,1,.25.18,1,1,0,0,1,.15.34l.49,2.73c0,.25-.07.41-.24.36ZM66.51,39.07l2,1.79a.3.3,0,0,1,.08.08.76.76,0,0,1,.15.54l-.58,2.12c0,.19-.22.22-.4.06l-2-1.78-.08-.09a.63.63,0,0,1-.14-.54l.56-2.12c0-.2.23-.21.4-.06ZM42,6.33l.07.11,1.42,2.61c.12.22.12.49,0,.57l-1.47,1c-.1.07-.26,0-.38-.16a1,1,0,0,1-.08-.11L40.11,7.71c-.13-.24-.12-.5,0-.59l1.47-.94c.11-.07.27,0,.39.15ZM15.92,50.73,14,49l-.07-.08a.73.73,0,0,1-.15-.55l.56-2.13c0-.18.23-.21.4-.06l2,1.79a.46.46,0,0,1,.07.07.71.71,0,0,1,.16.55l-.57,2.13c-.05.18-.23.21-.4.06Zm8.24,19.9a78.43,78.43,0,0,1-6.95-10.81l4.63-1.33a1.15,1.15,0,0,1,1.07.56,2.33,2.33,0,0,1,.17.26,63.78,63.78,0,0,0,4.32,6.43,56.67,56.67,0,0,0,4.94,5.62l.19.21A2.25,2.25,0,0,1,33,73l-.59,6.58a65.73,65.73,0,0,1-8.26-9ZM40.44,83.46l-.07-.11L39,80.75c-.13-.24-.13-.48,0-.57l1.46-1c.11-.07.28,0,.41.17l.06.1,1.41,2.6c.13.24.12.49,0,.57l-1.47,1c-.1.06-.27,0-.4-.17Zm15-7.32c-.25.1-.5.19-.76.27a12.46,12.46,0,0,1-2.07.45c-.34,0-.68.08-1,.1l-.3,0h-.16a17.66,17.66,0,0,1-7-1.35,26.69,26.69,0,0,1-5.26-2.82,40.26,40.26,0,0,1-6.82-5.92c-1-1.11-2-2.3-3-3.55l-.55-.74-.13-.17-.36-.5c-.16-.23-.26-.36-.35-.5s-.25-.35-.35-.5L27,60.44l-.3-.45a3.91,3.91,0,0,1-.23-.36l-.17-.25a56.44,56.44,0,0,1-3.85-7.13c-.28-.59-.54-1.2-.79-1.8l-.09-.22L21.44,50l-.2-.5c-.23-.59-.44-1.16-.65-1.74-.06-.17-.12-.33-.17-.49L20.34,47a2.41,2.41,0,0,1-.08-.25c-.12-.34-.23-.68-.34-1-.2-.63-.35-1.16-.5-1.68l-.25-.92a48.21,48.21,0,0,1-1.34-7.48h0c-.1-1.06-.16-2.09-.18-3.1s0-2.17.1-3.21a.45.45,0,0,1,0-.11v-.07s0-.08,0-.12V29c0-.56.1-1.1.18-1.63a24,24,0,0,1,1.55-5.81l.12-.3a2,2,0,0,0,.1-.21c.09-.21.14-.3.18-.38l.09-.2c0-.05.05-.1.08-.16s.05-.1.08-.16l.08-.15.14-.26.09-.15a1.09,1.09,0,0,1,.08-.15l.09-.15.15-.24.09-.16.09-.13.09-.15.17-.24c.12-.17.16-.24.21-.3l.27-.36c.09-.12.18-.23.28-.34l0,0h0A12.3,12.3,0,0,1,26.23,14c.25-.12.51-.23.77-.33a11.2,11.2,0,0,1,2.83-.73,14.84,14.84,0,0,1,3.06-.09,19.17,19.17,0,0,1,5.41,1.32h0c.67.27,1.34.58,2,.91l0,0,0,0,.25.13h0l.12.06.05,0,.21.11h0l.14.07.07,0,.2.11.11.06h0l.28.16.07,0c.6.35,1.19.72,1.78,1.12s.9.63,1.34,1a42,42,0,0,1,5.7,5.25l.06.06.34.39.06.07c.51.57,1,1.15,1.49,1.76h0l.24.3.49.63q.53.69,1,1.41l.3.43.12.18.16.23.21.3c.34.51.62.93.89,1.35.66,1.05,1.3,2.12,1.9,3.23l0,.06c.1.18.2.36.29.55l.09.15c.08.17.17.33.26.5a2.12,2.12,0,0,0,.11.21c.08.16.16.31.23.47l.12.24c.08.15.15.31.23.46l.12.26.21.44.14.29.19.43c.05.1.09.2.13.3s.13.29.19.43.09.2.14.31l.18.43.12.3,0,.05c.06.13.11.27.17.4l.11.29h0l.06.16c0,.09.07.19.11.29l.07.18,0,.11a1.22,1.22,0,0,1,.07.17l.1.28,0,.09h0c.07.19.14.39.22.59h0a50.66,50.66,0,0,1,2.76,12.08h0v.09c0,.13,0,.26,0,.38v0a37.31,37.31,0,0,1,0,5.58,25.41,25.41,0,0,1-1.78,8h0v0h0l-.13.31v0l0,.08,0,0c0,.09-.07.15-.09.21h0a.36.36,0,0,1,0,.09l0,.05-.12.25a.83.83,0,0,1-.07.13l-.1.2-.06.13-.15.26a1.09,1.09,0,0,1-.08.15l-.09.16a1,1,0,0,0-.08.14c0,.08-.1.17-.16.25a.57.57,0,0,1-.08.13l-.1.17-.09.12a2.2,2.2,0,0,1-.17.25l-.06.1h0l-.14.19-.06.08,0,.06-.17.22v0l-.08.09a2.43,2.43,0,0,1-.2.25l-.12.15-.18.2L60,73l-.23.24,0,0a12.1,12.1,0,0,1-4.32,2.9Zm12.43,3.8-2-.49a.47.47,0,0,1-.25-.18.75.75,0,0,1-.14-.33L65,76.22c0-.25.06-.41.24-.37l2,.48a.54.54,0,0,1,.24.18.91.91,0,0,1,.15.33l.49,2.73c0,.25-.07.42-.24.37Zm-45.53-63ZM61,40l.09.23ZM22,17.28h0Zm38.8,22.19ZM61.43,41a.69.69,0,0,1,0,.13l0-.13,0-.09Zm.18.47,0,.06,0-.07Z"/>
          <g>
            <path class="cls-4" d="M49.56,24.82l.82-1.91a47.07,47.07,0,0,1,3,3.61c.36.46.7.93,1,1.4l0,0,.27.38.12.18.16.23.21.3.06.09c.28.42.56.84.83,1.27l-1.29,1.3c-.53-.84-1.08-1.65-1.64-2.43l0,0-.27-.36a.56.56,0,0,1,0-.08,3.55,3.55,0,0,1-.23-.31l-.17-.21-.13-.17C51.45,27,50.52,25.85,49.56,24.82Z"/>
            <path class="cls-4" d="M61.34,46.56s0-.05,0-.08-.07-.28-.11-.41l0-.11-.12-.42v0c-.3-1-.63-2.09-1-3.16-.51-1.42-1.08-2.81-1.69-4.17L60,37.55q1,2.21,1.84,4.53c.54,1.56,1,3.09,1.41,4.59Z"/>
            <path class="cls-4" d="M49.54,76.94l-.75-2.8h.06a13.38,13.38,0,0,0,2.76-.07,12.25,12.25,0,0,0,2.6-.67l1.22,2.74c-.25.1-.5.19-.76.27a13.56,13.56,0,0,1-2.07.45c-.34,0-.68.08-1,.1H51C50.51,77,50,77,49.54,76.94Z"/>
            <path class="cls-4" d="M19.51,21.52l.12-.29a2,2,0,0,0,.1-.21l.06-.13c0-.08.08-.17.12-.25l.09-.2c0-.05.05-.1.08-.16s.05-.1.08-.16l.08-.15c0-.09.09-.17.14-.26l.09-.15a1.09,1.09,0,0,1,.08-.15l.09-.15.15-.24.09-.16.09-.13.09-.15.17-.24.07-.11.14-.19L21.5,18l.22-.29A13.15,13.15,0,0,1,23,16.26l1.6,2.49a13.89,13.89,0,0,0-1.45,1.68.83.83,0,0,1-.08.12l-.08.12-.17.24,0,.06A15.94,15.94,0,0,0,21.4,23.6Z"/>
            <path class="cls-4" d="M37.41,71.76l.3-2.37.07,0,.22.17.13.09.32.24,0,0a26.34,26.34,0,0,0,5.42,3l.23,2.68a27.28,27.28,0,0,1-5.26-2.83C38.38,72.48,37.89,72.13,37.41,71.76Z"/>
            <path class="cls-4" d="M62.43,61a32.64,32.64,0,0,0,.12-7.63l2.06.84v.09a34.79,34.79,0,0,1-.15,8.21Z"/>
            <path class="cls-4" d="M38.53,16.85l-.23-2.69c.67.27,1.34.58,2,.91l0,0,.29.15.12.06.26.15.14.07.27.15.11.06.3.17.07,0A30.87,30.87,0,0,1,45,18l-.31,2.37,0,0-.31-.23-.06,0L44,19.88l0,0-.34-.24,0,0-.37-.25-.32-.21,0,0-.35-.22a25.9,25.9,0,0,0-3-1.64l-.11,0-.13-.05Z"/>
            <path class="cls-4" d="M59.45,73.54l-1.61-2.48a14.37,14.37,0,0,0,1-1.15l0,0c.07-.08.13-.17.2-.26l.08-.1.09-.12.11-.16.06-.08c.06-.09.12-.18.17-.27l0,0A15.69,15.69,0,0,0,61,66.21l1.89,2.07v0l-.14.32-.05.11c0,.09-.08.17-.11.25l0,.09c0,.1-.09.2-.14.3a.83.83,0,0,1-.07.13l-.1.2-.06.13-.15.26a1.09,1.09,0,0,1-.08.15l-.09.16a1,1,0,0,0-.08.14c0,.08-.1.17-.16.25a.57.57,0,0,1-.08.13l-.1.17-.09.12c0,.09-.11.17-.16.25a.76.76,0,0,0-.08.11l-.14.19-.06.08-.2.28,0,0A15.46,15.46,0,0,1,59.45,73.54Z"/>
            <path class="cls-4" d="M17.83,35.64a37.19,37.19,0,0,1-.08-6.31c0-.06,0-.12,0-.18s0-.12,0-.18c0-.56.1-1.1.18-1.63l2,1.51v0c0,.11,0,.22-.05.33s0,.13,0,.2l0,.16a32.36,32.36,0,0,0,0,6.9Z"/>
            <path class="cls-4" d="M32.72,64.81a1.59,1.59,0,0,0-.13-.13l-.12-.14-.21-.23-.08-.09-.07-.08h0l-.24-.27-.14-.17,0-.05-.11-.12-.27-.32c-.41-.49-.82-1-1.21-1.51L30,61.53l-.35-.46-.18-.25L29,60.16h0l0,0v0c-.07-.1-.14-.19-.2-.29l-.18-.26,0,0-.05-.08h0c-.31-.45-.61-.91-.91-1.38h0l-1.29,1.3.17.25a1.64,1.64,0,0,0,.14.22l.09.14.26.39,0,.06.3.45,0,0,.3.44.05.06.28.41.07.09.24.34.12.16.13.17.55.74c1,1.25,2,2.44,3,3.55l.83-1.9Z"/>
            <path class="cls-4" d="M22.42,52.25c-.27-.59-.53-1.2-.78-1.8l-.09-.22L21.44,50l-.2-.52c-.23-.57-.44-1.14-.65-1.72-.06-.17-.12-.33-.17-.49L20.34,47a2.41,2.41,0,0,1-.08-.25c-.12-.34-.23-.68-.34-1l0-.1c-.17-.53-.32-1.06-.47-1.58v0l-.24-.89,1.92.13c.36,1.38.8,2.79,1.31,4.22s1.07,2.81,1.68,4.17Z"/>
            <path class="cls-4" d="M28.22,16.4,27,13.66a11.63,11.63,0,0,1,2.83-.72,14.18,14.18,0,0,1,3.06-.08l.75,2.8h-.75a14.36,14.36,0,0,0-2.07.11A12.25,12.25,0,0,0,28.22,16.4Z"/>
          </g>
          <path class="cls-5" d="M62.38,88l-.29.14-.07,0-.29.13h0l-.29.12-.07,0-.27.11h0l-.3.11-.08,0-.25.09-.06,0-.29.09L60,89l-.25.08h-.06l-.31.09-.08,0-.25.07-.08,0-.28.06-.09,0,0,0-.39.09-.29,0h-.07l-.22,0-.11,0-.19,0-.12,0-.17,0-.13,0-.18,0h-.12l-.2,0h-.1l-.26,0h0l-.35,0h-2.3l-.36,0-.24,0-.21,0-.45,0-.14,0-.31,0-.16,0-.29,0-.18,0-.27-.05-.19,0-.27-.05-.19,0-.27-.06-.2,0-.27-.06-.19-.05-.41-.1-8.25,4,.31.08.09,0,.2,0,.27.06.2,0,.26,0,.2,0,.26,0,.2,0,.26,0,.2,0,.25,0,.2,0,.29,0,.15,0,.45,0h.2l.25,0,.36,0h2.3l.29,0h.06l.31,0h.08l.22,0,.12,0,.18,0,.13,0,.17,0,.12,0,.19,0h.11l.22,0,.07,0,.29,0,.39-.09.88-.43-.83.42.28-.06h.08l.25-.07.08,0,.31-.08,0,0,.26-.08.09,0,.29-.1.06,0,.25-.09.08,0,.3-.11h0l.27-.11.07,0,.27-.11h0l.26-.12.09,0,.28-.14,8.25-4Z"/>
          <g>
            <path class="cls-3" d="M45,18l-.31,2.37,0,0a37.61,37.61,0,0,1,4.87,4.43l.81-1.88A41.08,41.08,0,0,0,45,18Z"/>
            <path class="cls-3" d="M56.15,30.42l-1.29,1.3c-.07-.12-.15-.24-.23-.36a51.57,51.57,0,0,1,3.72,6.8l1.65-.6A57.89,57.89,0,0,0,56.15,30.42Z"/>
            <path class="cls-3" d="M63.24,46.67l-1.9-.11,0-.08a43,43,0,0,1,1.23,6.84l2.06.84A48.31,48.31,0,0,0,63.24,46.67Z"/>
            <path class="cls-3" d="M64.46,62.45l-2-1.5A22.25,22.25,0,0,1,61,66.21l1.89,2.07A23.59,23.59,0,0,0,64.46,62.45Z"/>
            <path class="cls-3" d="M48.85,74.14h-.06l.75,2.8c.37,0,.73,0,1.09,0a17.78,17.78,0,0,1-6.5-1.36L43.9,73A17.21,17.21,0,0,0,48.85,74.14Z"/>
            <path class="cls-3" d="M37.78,69.44A38,38,0,0,1,32.88,65l-.83,1.9a42.21,42.21,0,0,0,5.36,4.86l.3-2.36Z"/>
            <path class="cls-3" d="M24.59,18.75,23,16.26a13.15,13.15,0,0,0-1.27,1.41,12.32,12.32,0,0,1,5.28-4l1.22,2.73a11.25,11.25,0,0,0-4.81,3.68A12.58,12.58,0,0,1,24.59,18.75Z"/>
            <path class="cls-3" d="M21.13,43.29a44.5,44.5,0,0,1-1.26-6.94.66.66,0,0,1,0,.14l-2-.85a47.94,47.94,0,0,0,1.33,7.48l1.92.13s0,0,0,.06Z"/>
            <path class="cls-3" d="M27.57,58.08a50.83,50.83,0,0,1-3.44-6.46l-.05,0h0l-1.65.61a56.44,56.44,0,0,0,3.85,7.13Z"/>
            <path class="cls-3" d="M33.54,15.66h.1l-.75-2.8a18.8,18.8,0,0,1,5.41,1.31l.23,2.68A17.09,17.09,0,0,0,33.54,15.66Z"/>
            <path class="cls-3" d="M54.21,73.4a11.19,11.19,0,0,0,4.67-3.49,14.37,14.37,0,0,1-1,1.15l1.61,2.48a13.17,13.17,0,0,0,.95-1,12.26,12.26,0,0,1-5,3.62Z"/>
            <path class="cls-3" d="M18,27.34a24,24,0,0,1,1.55-5.81L21.4,23.6A21.66,21.66,0,0,0,20,28.9v0Z"/>
          </g>
          <path class="cls-4" d="M49.89,18.21a2.27,2.27,0,0,1-.47-1.46l.6-6.57a66.32,66.32,0,0,1,8.25,9A77.29,77.29,0,0,1,65.22,30L60.59,31.3c-.33.1-.75-.14-1.08-.57a2.5,2.5,0,0,1-.16-.24A62.72,62.72,0,0,0,55,24a55,55,0,0,0-4.92-5.6A2.09,2.09,0,0,1,49.89,18.21Z"/>
          <path class="cls-4" d="M48.78,89l-.37-7.13c0-.6.26-1,.71-.88a15,15,0,0,0,9.45-1.31c.34-.16.81,0,1.18.52a.86.86,0,0,0,.07.1l4.51,6.57a16.86,16.86,0,0,1-5.65,2.44h0l-.39.09a19.41,19.41,0,0,1-5.22.3l-.45,0A22.89,22.89,0,0,1,48.78,89Z"/>
          <path class="cls-4" d="M40.44,83.46l-.07-.11L39,80.75c-.13-.24-.13-.48,0-.57l1.46-1c.11-.07.28,0,.41.17l.06.1,1.41,2.6c.13.24.12.49,0,.57l-1.47,1C40.74,83.69,40.57,83.62,40.44,83.46Z"/>
          <path class="cls-4" d="M9.31,37.61a58.78,58.78,0,0,1-1.05-12.1,40,40,0,0,1,1.39-9.82l5,5.81.07.09a2.12,2.12,0,0,1,.46,1.61A39.8,39.8,0,0,0,15,36.55c.09.61-.15,1.07-.57,1.06Z"/>
          <path class="cls-4" d="M24.16,70.63a78.43,78.43,0,0,1-6.95-10.81l4.63-1.33a1.15,1.15,0,0,1,1.07.56,2.33,2.33,0,0,1,.17.26,63.78,63.78,0,0,0,4.32,6.43,56.67,56.67,0,0,0,4.94,5.62l.19.21A2.25,2.25,0,0,1,33,73l-.59,6.58A65.73,65.73,0,0,1,24.16,70.63Z"/>
          <path class="cls-4" d="M65.69,41.79a.63.63,0,0,1-.14-.54l.56-2.12c0-.2.23-.21.4-.06l2,1.79a.3.3,0,0,1,.08.08.76.76,0,0,1,.15.54l-.58,2.12c0,.19-.22.22-.4.06l-2-1.78Z"/>
          <path class="cls-4" d="M41.6,10.41a1,1,0,0,1-.08-.11L40.11,7.71c-.12-.24-.12-.5,0-.59l1.47-.94c.11-.07.27,0,.39.15l.07.11,1.42,2.61c.12.22.12.49,0,.57l-1.47,1C41.88,10.64,41.72,10.57,41.6,10.41Z"/>
          <path class="cls-4" d="M67.7,68.21a2.21,2.21,0,0,1-.45-1.61,40.33,40.33,0,0,0,.2-13.35c-.08-.62.15-1.06.57-1.06h5.11a59.38,59.38,0,0,1,1,12.16,2.62,2.62,0,0,0,0,.28c0,.07,0,.14,0,.21a39.3,39.3,0,0,1-1.37,9.27l-5-5.81Z"/>
          <path class="cls-4" d="M65.63,79.27a.75.75,0,0,1-.14-.33L65,76.22c0-.25.06-.41.24-.37l2,.48a.54.54,0,0,1,.24.18.91.91,0,0,1,.15.33l.49,2.73c0,.25-.07.42-.24.37l-2-.49A.47.47,0,0,1,65.63,79.27Z"/>
          <path class="cls-4" d="M22.68,9.57a.86.86,0,0,1-.07-.1L18.11,2.9A17.06,17.06,0,0,1,22,1l.29-.09A20.07,20.07,0,0,1,33.66.77L34,7.9c0,.6-.27,1-.72.89a14.93,14.93,0,0,0-9.46,1.29C23.52,10.26,23.05,10.05,22.68,9.57Z"/>
          <path class="cls-4" d="M15,13.29a.75.75,0,0,1-.14-.33l-.49-2.74c-.05-.24.06-.4.24-.36l2,.48a.47.47,0,0,1,.25.18,1,1,0,0,1,.15.34l.49,2.73c0,.25-.07.41-.24.36l-2-.48A.47.47,0,0,1,15,13.29Z"/>
          <path class="cls-4" d="M13.89,48.87a.73.73,0,0,1-.15-.55l.56-2.13c0-.18.23-.21.4-.06l2,1.79a.46.46,0,0,1,.07.07.71.71,0,0,1,.16.55l-.57,2.13c-.05.18-.23.21-.4.06L14,49Z"/>
          <path class="cls-5" d="M17.29,76.42l.19.23.28.34.2.24.28.33.21.24.29.34.19.21.38.43.11.12.49.54.15.16.33.36.22.23.28.3a2.39,2.39,0,0,1,.22.23c.1.09.19.19.29.29l.21.21.3.3.21.21.31.3.2.19.32.31.19.18.33.31.19.17.51.47,8.25-4-.52-.47L31.75,79l-.35-.33-.21-.19-.31-.3-.2-.19-.31-.3-.21-.21-.29-.3L29.65,77l-.29-.31-.21-.21-.31-.33-.19-.19-.35-.38-.14-.15-.49-.54-.1-.12-.39-.43c-.06-.07-.12-.13-.17-.2l-.32-.36-.18-.22-.3-.35c-.07-.07-.13-.15-.2-.23s-.19-.23-.28-.34l-.19-.24c-.1-.11-.19-.23-.28-.34l-.2-.25-.31-.38a1.33,1.33,0,0,0-.14-.19l-.45-.58L23.71,70l-.13-.17-.31-.42-.17-.23-.27-.38-.18-.24-.26-.37L22.21,68,22,67.61c-.05-.09-.11-.17-.17-.26L21.52,67a2.2,2.2,0,0,0-.17-.25l-.28-.44a2.14,2.14,0,0,1-.13-.19c-.14-.21-.28-.42-.41-.63l-.09-.14c-.11-.16-.22-.33-.32-.5L20,64.6c-.09-.14-.18-.28-.26-.42l-.16-.25-.25-.42c0-.08-.1-.16-.14-.24l-.26-.43-.14-.23-.27-.47-.12-.2c-.12-.23-.25-.45-.37-.67h0c-.05-.09-.09-.18-.14-.26l-.65-1.19L9,63.86c.28.53.57,1,.86,1.57l.3.54.15.24.25.44.14.24c.08.14.16.28.25.41s.1.18.16.27.15.26.23.38l.17.28c.08.14.17.27.25.4l.15.24.29.46.12.19.39.59,0,0,.12.19.29.44.17.24.26.39.17.25L14,72l.18.25.25.36.19.26.27.37c.05.08.11.15.17.23s.21.28.31.43a1.83,1.83,0,0,0,.13.16l.45.6.45.57a1.33,1.33,0,0,0,.14.19l.21.27.1.11.19.24Z"/>
          <path class="cls-5" d="M.28,36.23q.06.66.15,1.32c0,.18,0,.37.07.55.15,1.17.34,2.36.56,3.55l8.25-4c-.11-.56-.2-1.12-.29-1.68-.06-.36-.11-.72-.17-1.09l-.06-.47q-.07-.48-.12-1c-.05-.4-.1-.81-.14-1.22,0-.08,0-.16,0-.24s0-.35,0-.52,0-.18,0-.27,0-.32,0-.49v-.05c-.05-.62-.08-1.24-.11-1.86s0-1.16,0-1.73v-.28c0-.41,0-.83,0-1.24a40,40,0,0,1,1.39-9.82l-8.25,4A40,40,0,0,0,0,29.55c0,.57,0,1.14,0,1.72l0,1.2c0,.73.06,1.46.11,2.2v0c0,.16,0,.32,0,.48a2.45,2.45,0,0,0,0,.27h0c0,.18,0,.35.05.52S.27,36.15.28,36.23Z"/>
          <g class="cls-6">
            <path class="cls-7" d="M29,63.31a57.29,57.29,0,0,1-8.44-15.59c-6.29-17.65-2.15-33.23,9.23-34.79,7.65-1,16.62,4.5,23.6,13.58a57.57,57.57,0,0,1,8.43,15.57C68.13,59.74,64,75.32,52.6,76.86,45,77.91,36,72.39,29,63.31Z"/>
            <g class="cls-8">
              <path class="cls-9" d="M29.08,63.22a57,57,0,0,1-8.4-15.52c-6.26-17.57-2.14-33.07,9.2-34.62,7.61-1,16.54,4.47,23.48,13.52a56.9,56.9,0,0,1,8.39,15.5C68,59.67,63.89,75.18,52.54,76.72,44.94,77.76,36,72.26,29.08,63.22Z"/>
            </g>
            <g class="cls-10">
              <path class="cls-11" d="M29.14,63.14a57,57,0,0,1-8.36-15.45c-6.23-17.49-2.14-32.92,9.15-34.47,7.58-1,16.46,4.46,23.38,13.46a56.93,56.93,0,0,1,8.35,15.43c6.22,17.5,2.13,32.93-9.17,34.46C44.92,77.61,36,72.13,29.14,63.14Z"/>
            </g>
            <g class="cls-12">
              <path class="cls-13" d="M29.19,63.05a56.64,56.64,0,0,1-8.32-15.37C14.67,30.27,18.75,14.91,30,13.37c7.54-1,16.39,4.44,23.27,13.39a56.7,56.7,0,0,1,8.31,15.36c6.2,17.42,2.12,32.78-9.12,34.3C44.91,77.45,36.07,72,29.19,63.05Z"/>
            </g>
            <g class="cls-14">
              <path class="cls-15" d="M29.25,63A56.33,56.33,0,0,1,21,47.66C14.79,30.34,18.85,15.05,30,13.52c7.51-1,16.32,4.41,23.16,13.33a56.15,56.15,0,0,1,8.28,15.28c6.17,17.34,2.11,32.63-9.08,34.15C44.89,77.3,36.09,71.88,29.25,63Z"/>
            </g>
            <g class="cls-16">
              <path class="cls-17" d="M29.31,62.88a55.78,55.78,0,0,1-8.25-15.23c-6.14-17.24-2.1-32.46,9-34,7.47-1,16.23,4.4,23.05,13.27a56.09,56.09,0,0,1,8.23,15.22c6.14,17.25,2.1,32.47-9,34C44.87,77.15,36.12,71.76,29.31,62.88Z"/>
            </g>
            <g class="cls-18">
              <path class="cls-19" d="M29.36,62.8a55.8,55.8,0,0,1-8.2-15.16c-6.12-17.17-2.1-32.31,9-33.83,7.44-1,16.16,4.37,22.94,13.21a55.53,55.53,0,0,1,8.2,15.14c6.11,17.17,2.09,32.32-9,33.82C44.85,77,36.14,71.63,29.36,62.8Z"/>
            </g>
            <g class="cls-20">
              <path class="cls-21" d="M29.42,62.72a55.37,55.37,0,0,1-8.17-15.1C15.16,30.54,19.17,15.47,30.19,14,37.59,13,46.27,18.31,53,27.1a55.71,55.71,0,0,1,8.16,15.07c6.08,17.1,2.07,32.17-9,33.67C44.84,76.85,36.16,71.5,29.42,62.72Z"/>
            </g>
            <g class="cls-22">
              <path class="cls-23" d="M29.47,62.63a55.31,55.31,0,0,1-8.12-15c-6.06-17-2.08-32,8.89-33.51,7.37-1,16,4.34,22.73,13.09a55.19,55.19,0,0,1,8.12,15c6,17,2.07,32-8.91,33.5C44.82,76.7,36.19,71.38,29.47,62.63Z"/>
            </g>
            <g class="cls-24">
              <path class="cls-4" d="M29.53,62.55A55.39,55.39,0,0,1,21.44,47.6c-6-16.92-2.06-31.85,8.85-33.35,7.34-1,15.94,4.31,22.62,13A55.11,55.11,0,0,1,61,42.2c6,16.93,2,31.86-8.87,33.34C44.8,76.55,36.21,71.25,29.53,62.55Z"/>
            </g>
            <g class="cls-25">
              <path class="cls-26" d="M29.58,62.46a54.63,54.63,0,0,1-8-14.87c-6-16.84-2.06-31.71,8.81-33.19,7.29-1,15.85,4.29,22.51,13a54.66,54.66,0,0,1,8,14.85c6,16.85,2.05,31.71-8.83,33.19C44.79,76.39,36.24,71.12,29.58,62.46Z"/>
            </g>
            <g class="cls-27">
              <path class="cls-28" d="M29.64,62.38a54.62,54.62,0,0,1-8-14.81c-6-16.76-2-31.55,8.77-33,7.26-1,15.78,4.27,22.4,12.9a54.5,54.5,0,0,1,8,14.79c6,16.76,2,31.55-8.79,33C44.77,76.24,36.26,71,29.64,62.38Z"/>
            </g>
          </g>
          <path class="cls-29" d="M62.09,88.18l-.07,0-.29.13h0l-.29.12-.07,0-.27.11h0l-.3.11-.08,0-.25.09-.06,0-.29.09L60,89l-.25.08h-.06l-.31.09-.08,0-.25.07-.08,0-.28.06-.09,0,0,0-.39.09-.29,0h-.07l-.22,0-.11,0-.19,0-.12,0-.17,0-.13,0-.18,0h-.12l-.2,0h-.1l-.27,0h0l-.35,0h-2.3l-.36,0-.24,0-.21,0-.45,0-.14,0-.31,0-.16,0-.29,0-.18,0-.27-.05-.19,0-.27-.05-.19,0-.27-.06-.2,0-.27-.06-.19-.05-.41-.1h0l-.36-.09-.08,0L48,88.84l-.09,0-.32-.1h0l-.37-.12-.07,0-.29-.09-.11,0-.29-.1-.07,0L46,88.18l-.09,0-.29-.1-.09,0-.3-.12-.07,0-.35-.14-.1,0-.28-.12-.1,0-.28-.12-.1,0-.37-.17h0L43.25,87,43.12,87l-.26-.13-.1,0-.34-.17h0L42,86.4l-.12-.06-.25-.13-.12-.07L41.28,86l-.11-.06-.36-.2-.37-.21a.41.41,0,0,0-.11-.07l-.26-.15L40,85.23l-.26-.15-.1-.07-.36-.22-.06,0-.31-.2-.12-.08-.24-.16-.12-.08a3.28,3.28,0,0,1-.31-.2l0,0-.37-.26-.06,0-.3-.21-.12-.08-.24-.17-.13-.09L36.52,83l-.08,0-.35-.27L36,82.57l-.28-.21-.12-.09-.24-.19L35.25,82l-.71-.56-.1-.08-.25-.21-.12-.1-.25-.21-.11-.09-.35-.29-.06,0a3.47,3.47,0,0,0-.29-.25L32.89,80l-.23-.21-.12-.1-.12-.11h0l-.52-.47L31.75,79l-.35-.33-.21-.19-.31-.3-.2-.19-.31-.3-.21-.21-.29-.3L29.65,77l-.29-.31-.21-.21-.31-.33-.19-.19c-.11-.13-.23-.25-.35-.38l-.14-.15-.49-.54-.1-.12-.39-.43c-.06-.07-.12-.13-.17-.2l-.32-.36-.18-.22-.3-.34L26,73c-.09-.12-.19-.23-.28-.34l-.19-.24c-.1-.11-.19-.23-.28-.34l-.2-.25-.31-.38a1.33,1.33,0,0,0-.14-.19l-.45-.58L23.71,70l-.13-.17-.31-.42-.17-.23-.27-.38-.18-.24-.26-.37L22.21,68,22,67.61c-.05-.09-.11-.17-.17-.26L21.52,67a2.2,2.2,0,0,0-.17-.25l-.28-.44a2.14,2.14,0,0,1-.13-.19c-.14-.21-.28-.42-.41-.63l-.09-.14c-.11-.16-.21-.33-.32-.5L20,64.6c-.09-.14-.18-.28-.26-.42l-.16-.25-.25-.42-.14-.24-.26-.43-.14-.24-.27-.46-.12-.2L18,61.27h0c-.05-.09-.09-.18-.14-.26l-.65-1.19h0c-.05-.1-.11-.2-.16-.31l-.12-.22-.21-.41-.12-.23c-.08-.14-.15-.28-.22-.42a2.26,2.26,0,0,0-.11-.22L16,57.55,16,57.37c-.1-.21-.2-.43-.31-.64a1,1,0,0,1,0-.1c-.09-.17-.17-.35-.25-.53a2,2,0,0,1-.1-.21L15,55.43,15,55.24l-.22-.49-.08-.17c-.09-.21-.19-.43-.28-.65a1.17,1.17,0,0,1,0-.11c-.08-.18-.16-.36-.23-.54l-.09-.2c-.06-.16-.13-.32-.2-.48a1.08,1.08,0,0,0-.08-.19c0-.12-.09-.23-.13-.34l-.21-.51-.11-.29-.21-.52a2.49,2.49,0,0,0-.11-.29l-.21-.56-.09-.25c-.1-.27-.2-.54-.29-.81l-.24-.68L12.05,48c-.06-.16-.11-.32-.16-.47l-.09-.26-.15-.46-.08-.23-.2-.65,0-.11c-.07-.19-.13-.39-.19-.59s-.05-.16-.07-.25L11,44.5c0-.09,0-.17-.07-.26s-.09-.29-.13-.44l-.07-.25c0-.18-.1-.35-.14-.52a.83.83,0,0,1,0-.15l-.18-.68c0-.09-.05-.18-.07-.27s-.07-.29-.11-.43l-.06-.27c0-.15-.07-.29-.11-.43l-.06-.29-.09-.39c0-.1-.05-.21-.07-.31l-.09-.39-.06-.3c0-.13,0-.25-.08-.38l-.06-.31c0-.12-.05-.25-.08-.38s0-.2-.05-.3l0-.14h0c-.1-.56-.2-1.12-.29-1.68-.06-.36-.11-.72-.17-1.09l-.06-.47c0-.32-.09-.64-.12-.95s-.1-.82-.14-1.23c0-.08,0-.16,0-.24s0-.35,0-.52,0-.18,0-.27,0-.32,0-.49v-.05c-.05-.62-.08-1.24-.11-1.86s0-1.16,0-1.73v-.28c0-.41,0-.83,0-1.24a40,40,0,0,1,1.39-9.82c0-.16.09-.32.14-.48l0-.08.14-.44,0-.09c0-.15.09-.3.14-.45l0-.05.15-.44v0l.17-.45a.14.14,0,0,1,0-.06c0-.14.11-.29.17-.43l0-.07.18-.43,0,0c0-.14.11-.27.17-.41l0-.05c.06-.14.12-.27.19-.41l0-.08.18-.39,0-.07.21-.41h0l.21-.4,0-.06.21-.38,0-.07L12.42,9l0,0,.21-.35,0,0,.22-.36L13,8.17a4,4,0,0,1,.23-.34l0-.07.25-.35h0c.08-.12.16-.23.25-.34l0,0L14,6.69l.06-.07.25-.31,0,0,.27-.32h0l.28-.3L15,5.57l.27-.29.06-.06.28-.28s0,0,0,0l.27-.26,0,0,.29-.27.06,0L16.6,4l0,0L17,3.72h0l.31-.24.06,0a3.55,3.55,0,0,1,.31-.23.18.18,0,0,1,.07-.05L18,2.93a16.72,16.72,0,0,1,2-1.17l-8.25,4A18.69,18.69,0,0,0,9.81,7h0l0,0-.32.22-.06,0-.32.24L9,7.51l-.3.23,0,0L8.41,8l-.07.05-.29.25L8,8.37a3.83,3.83,0,0,0-.29.28l0,0-.28.27,0,0-.28.29,0,.05-.27.29,0,.05L6.41,10h0l-.27.31,0,0-.25.32-.06.06a3.92,3.92,0,0,1-.25.32l0,0-.25.33,0,0L5,11.81l0,.06-.24.35,0,.06c-.07.12-.15.24-.23.36l0,0L4.21,13l0,.05L4,13.45l0,.08-.21.37,0,.06-.21.4v0l-.2.39,0,.07c-.06.13-.13.26-.19.4l0,.07-.19.4a.25.25,0,0,0,0,.07c-.06.13-.12.26-.17.39l0,0c-.06.14-.12.28-.17.42l0,.08c0,.14-.1.28-.16.42l0,.09-.16.43,0,.06c0,.13-.09.26-.14.4a.24.24,0,0,1,0,.08l-.15.44,0,.09-.14.44,0,.1c0,.14-.08.29-.13.44v0A40,40,0,0,0,0,29.55c0,.57,0,1.14,0,1.72l0,1.2c0,.73.06,1.46.11,2.2a.07.07,0,0,1,0,0c0,.16,0,.32,0,.48s0,.18,0,.27h0v.05h0q.24,2.76.76,5.65H1l.06.35a1.18,1.18,0,0,1,0,.2v.07l.06.3c0,.13.05.26.08.39l.06.3c0,.13.05.25.08.38l.06.31.09.39.06.29c0,.13.07.27.1.41l.06.29c0,.14.07.28.11.43l.06.25c0,.17.08.34.13.51a1.33,1.33,0,0,0,0,.19c.05.23.11.46.17.68v0a.43.43,0,0,0,0,0c.06.21.12.42.17.62a1.42,1.42,0,0,0,.07.22c0,.16.08.32.13.47l.06.23.15.48.06.22c.07.22.13.44.2.65v0l.21.68a2.25,2.25,0,0,1,.08.24l.15.45.09.26.06.19c0,.1.06.19.1.29l.06.19c.08.23.16.46.25.69s.19.54.29.81l.09.25.21.56c0,.1.08.19.11.29l.21.52a2.49,2.49,0,0,0,.11.29l.21.52a1.54,1.54,0,0,0,.08.19,1.12,1.12,0,0,0,0,.13l.09.22.18.44a2.44,2.44,0,0,1,.1.24l.21.47.07.18.28.63c0,.06,0,.12.08.17l.21.48.1.22c.07.15.14.29.2.43l.11.22.22.48.08.16h0l.3.62.09.18.23.46.11.22.21.42.12.23c.08.14.15.28.22.42a2.12,2.12,0,0,1,.11.21l.26.48.06.12.64,1.17h0l.06.11.3.54.15.24.25.44.14.24.25.41c.05.09.1.18.16.27s.15.26.23.38l.17.28c.08.14.17.27.25.4l.15.24.29.46.12.19.39.59v0h0q1.56,2.37,3.24,4.55a.86.86,0,0,0,.07.1l.28.36a.76.76,0,0,1,.08.11l.36.46,0,0,.6.74.1.12.22.27.11.13.24.28.09.11.32.37a.27.27,0,0,0,.07.08l.25.3.11.13.23.25.11.13.28.31,0,.05c.12.12.23.24.34.37l.08.09.25.27a.63.63,0,0,1,.11.12,3.07,3.07,0,0,1,.25.26l.09.09.29.31.07.07.31.32.11.11.24.25.11.1c.08.08.16.17.25.25l.1.1.33.33.06,0,.29.28.11.1.24.23.12.11.25.24.09.08.35.32.06.05.29.26.12.11.23.2.12.11.29.25.06,0,.34.29.12.1.24.2.13.1.25.21.1.08L27,86l.12.09.23.18.13.1.28.21.07,0,.36.27.08.06.28.2.13.09.24.17.12.09.3.2.06,0,.37.25.05,0,.31.21.11.07.25.17.12.07.31.2,0,0,.37.23.1.06.26.16.12.07.26.15.11.07.37.21.36.2L33,90l.25.14.13.07.25.13.12.06.37.19h0l.34.17.1,0,.26.13.13.06.32.15,0,0,.37.16.1.05.18.08.1,0,.09,0,.3.12.08,0,.36.15,0,0,.32.12.09,0,.29.1.09,0,.36.13,0,0,.31.1.1,0,.29.09.08,0,.36.11,0,0,.32.09.09,0,.3.08.07,0,.37.1h0l.27.07h.05l.09,0,.2,0,.27.06.2,0,.26,0,.2,0,.26,0,.2,0,.26,0,.2,0,.25,0,.2,0,.29,0,.15,0,.45,0h.2l.25,0,.36,0h2.3l.29,0h.06l.31,0h.08l.22,0,.12,0,.18,0,.13,0,.17,0,.12,0,.19,0h.11l.22,0,.07,0,.29,0,.39-.09.88-.43-.83.42.28-.06h.08l.25-.07.08,0,.31-.08.06,0,.25-.08.09,0,.29-.1.06,0,.25-.09.08,0,.3-.11h0l.27-.11.07,0,.27-.11h0l.26-.12.09,0,.28-.14,8.25-4h0Z"/>
          <g class="cls-6">
            <g>
              <g class="cls-27">
                <path class="cls-30" d="M60.45,70l-.24.37-.12.16-.09.13a.44.44,0,0,0-.08.11l-.25.31a11.64,11.64,0,0,1-4.88,3.64,12.48,12.48,0,0,1-2.72.71,14.52,14.52,0,0,1-2.88.07A17.77,17.77,0,0,1,44,74.22a27,27,0,0,1-5.69-3.16l-.47-.34-.23-.17a40.12,40.12,0,0,1-5.13-4.66L31.7,65c-.08-.09-.16-.19-.25-.28l-.3-.36L30.86,64c-.43-.51-.85-1-1.26-1.58s-.8-1.06-1.23-1.66c-.07-.1-.14-.2-.2-.3l-.27-.38c-.32-.47-.63-1-.94-1.43a55.47,55.47,0,0,1-5.41-11.1A42.1,42.1,0,0,1,19,28.9l0-.17,0-.21c0-.11,0-.23,0-.34a22.93,22.93,0,0,1,1.47-5.54A17.46,17.46,0,0,1,22,19.83l.18-.26.08-.12.09-.12a11.84,11.84,0,0,1,5.31-4.21,12.47,12.47,0,0,1,2.72-.7,14.08,14.08,0,0,1,2.16-.11h.68a17.8,17.8,0,0,1,5.21,1.25c.24.09.48.19,1,.41a25,25,0,0,1,3.2,1.72L43,18l.34.22.43.29.4.28.4.29.33.25a40.13,40.13,0,0,1,5.08,4.62q1.51,1.64,2.92,3.46l.14.18.17.23.3.4.3.41a54.09,54.09,0,0,1,5.36,9.27q1,2.13,1.77,4.36c.39,1.11.74,2.21,1.07,3.35l.15.55.12.43a44.84,44.84,0,0,1,1.28,7.14,34.05,34.05,0,0,1-.13,8,22,22,0,0,1-1.46,5.48A16.2,16.2,0,0,1,60.45,70Z"/>
              </g>
              <path class="cls-31" d="M60.38,69.87l-.25.36-.11.16a1.13,1.13,0,0,0-.1.13l-.08.11c-.07.09-.13.18-.24.31a11.6,11.6,0,0,1-4.86,3.62,11.86,11.86,0,0,1-2.71.71,14.44,14.44,0,0,1-2.87.07A17.26,17.26,0,0,1,44,74.1,26.75,26.75,0,0,1,38.34,71l-.47-.34-.23-.17a39.13,39.13,0,0,1-5.11-4.64l-.79-.88-.25-.28c-.06-.08-.13-.15-.31-.36L30.9,64c-.42-.51-.85-1-1.26-1.58s-.79-1.05-1.22-1.65l-.2-.3L28,60.05c-.31-.47-.63-.94-.94-1.43a54.43,54.43,0,0,1-5.38-11A41.93,41.93,0,0,1,19,29l0-.17a1.49,1.49,0,0,1,0-.21c0-.11,0-.22.05-.33a22.2,22.2,0,0,1,1.46-5.52,17,17,0,0,1,1.47-2.8l.17-.26.09-.12.08-.12a11.8,11.8,0,0,1,5.29-4.19,12.53,12.53,0,0,1,2.71-.7,12.86,12.86,0,0,1,2.15-.11h.68a17.58,17.58,0,0,1,5.19,1.24l1,.41a26.09,26.09,0,0,1,3.18,1.72l.38.23.33.22.43.29.4.28a4.79,4.79,0,0,0,.4.29l.32.25A39.23,39.23,0,0,1,49.9,24q1.5,1.61,2.91,3.44l.14.18c0,.08.11.15.16.22l.3.41c.1.12.19.25.3.4a54.39,54.39,0,0,1,5.34,9.24q1,2.11,1.76,4.34c.39,1.1.74,2.2,1.07,3.34l.15.54c0,.15.08.29.11.43a44.62,44.62,0,0,1,1.28,7.12,33.75,33.75,0,0,1-.12,8,22.81,22.81,0,0,1-1.46,5.47A17.18,17.18,0,0,1,60.38,69.87Z"/>
              <path class="cls-32" d="M60.3,69.77l-.24.36-.12.16-.09.13-.08.1-.24.32a11.57,11.57,0,0,1-4.85,3.61,12.21,12.21,0,0,1-2.69.7,14.34,14.34,0,0,1-2.86.07A17.5,17.5,0,0,1,44,74a27.48,27.48,0,0,1-5.65-3.13l-.47-.34-.22-.17a38.81,38.81,0,0,1-5.09-4.62c-.24-.27-.49-.53-.79-.88a3.33,3.33,0,0,1-.25-.28l-.31-.35-.28-.34c-.42-.5-.84-1-1.25-1.57s-.8-1.05-1.22-1.64l-.2-.3c-.07-.1-.14-.19-.26-.38-.32-.47-.63-.94-.94-1.42a54.59,54.59,0,0,1-5.37-11A42,42,0,0,1,19.12,29l0-.16,0-.21c0-.11,0-.23,0-.34a23,23,0,0,1,1.46-5.49A16.82,16.82,0,0,1,22.13,20l.18-.26a.83.83,0,0,1,.08-.12l.09-.12a11.58,11.58,0,0,1,8-4.87,12.8,12.8,0,0,1,2.15-.11h.67a17.45,17.45,0,0,1,5.17,1.24l1,.4a28.16,28.16,0,0,1,3.17,1.71l.37.24.34.22.42.29.4.28.39.29.33.24a38.91,38.91,0,0,1,5,4.59c1,1.07,2,2.22,2.9,3.43l.14.18.17.22.3.4.29.4A54.32,54.32,0,0,1,59,37.91q1,2.12,1.75,4.33c.39,1.1.74,2.2,1.07,3.33l.15.54c0,.14.07.29.11.43a45.09,45.09,0,0,1,1.28,7.08,34.08,34.08,0,0,1-.13,7.93A22.69,22.69,0,0,1,61.76,67,17.08,17.08,0,0,1,60.3,69.77Z"/>
              <path class="cls-33" d="M60.23,69.67,60,70l-.11.16-.09.12-.08.11-.25.31a11.45,11.45,0,0,1-4.82,3.6A12.27,12.27,0,0,1,52,75a14.26,14.26,0,0,1-2.85.07A17.3,17.3,0,0,1,44,73.87a26.77,26.77,0,0,1-5.63-3.11l-.46-.34-.23-.17a39.23,39.23,0,0,1-5.07-4.61l-.79-.87-.24-.28-.31-.35L31,63.81c-.42-.51-.84-1-1.25-1.56s-.79-1-1.21-1.65l-.2-.29-.26-.38c-.32-.46-.63-.94-.94-1.42a54.08,54.08,0,0,1-5.34-11,41.7,41.7,0,0,1-2.57-18.47l0-.16,0-.21c0-.11,0-.22,0-.33a22.44,22.44,0,0,1,1.45-5.48,17.12,17.12,0,0,1,1.46-2.78l.17-.25.09-.12a.83.83,0,0,1,.08-.12,11.75,11.75,0,0,1,5.25-4.16,12.26,12.26,0,0,1,2.68-.69,12.74,12.74,0,0,1,2.14-.11h.67a17.55,17.55,0,0,1,5.15,1.23c.24.1.48.19,1,.41A25.67,25.67,0,0,1,42.56,18l.37.23.34.22.42.29.39.28.4.29.32.24a38.65,38.65,0,0,1,5,4.57c1,1.07,2,2.21,2.89,3.42l.13.18L53,28l.3.4.29.4a53.87,53.87,0,0,1,5.3,9.16q1,2.1,1.75,4.31c.39,1.1.73,2.19,1.05,3.31,0,.15.09.29.16.55s.07.28.11.42a44.8,44.8,0,0,1,1.27,7.06,33.21,33.21,0,0,1-.13,7.89,22.4,22.4,0,0,1-1.44,5.42A16.54,16.54,0,0,1,60.23,69.67Z"/>
              <path class="cls-34" d="M60.15,69.57l-.24.36-.12.16-.09.12a.44.44,0,0,1-.08.11c-.07.09-.13.18-.24.31a11.33,11.33,0,0,1-4.8,3.58,12.12,12.12,0,0,1-2.68.7,14.12,14.12,0,0,1-2.84.07A17.16,17.16,0,0,1,44,73.76a26.65,26.65,0,0,1-5.61-3.11l-.46-.33-.23-.17a39.57,39.57,0,0,1-5-4.59l-.79-.87-.24-.27-.31-.36q-.14-.15-.27-.33c-.43-.5-.84-1-1.25-1.55s-.79-1-1.21-1.64c-.06-.1-.13-.19-.2-.29l-.26-.38-.93-1.41a54,54,0,0,1-5.32-10.92A41.49,41.49,0,0,1,19.3,29.15l0-.17a1.5,1.5,0,0,0,0-.2c0-.11,0-.23.05-.33A22.61,22.61,0,0,1,20.83,23a17,17,0,0,1,1.46-2.77l.16-.25.09-.12.09-.12a11.39,11.39,0,0,1,7.9-4.83,12.57,12.57,0,0,1,2.13-.11h.66a17.25,17.25,0,0,1,5.14,1.23l.95.4a26.2,26.2,0,0,1,3.15,1.69l.37.24.33.22.42.28.39.28.4.29.32.24a39,39,0,0,1,5,4.55,43.87,43.87,0,0,1,2.88,3.41l.14.18L53,28l.3.4.29.4A53.5,53.5,0,0,1,58.84,38c.63,1.4,1.21,2.82,1.74,4.29.39,1.09.73,2.18,1.05,3.3l.15.54.12.42a44.5,44.5,0,0,1,1.26,7A33.43,33.43,0,0,1,63,61.41a22.78,22.78,0,0,1-1.44,5.41A17.16,17.16,0,0,1,60.15,69.57Z"/>
              <path class="cls-35" d="M60.08,69.47l-.25.36-.11.16-.09.12a1,1,0,0,1-.08.11l-.24.31a11.38,11.38,0,0,1-4.79,3.57,12.5,12.5,0,0,1-2.66.69,14,14,0,0,1-2.83.07A17.1,17.1,0,0,1,44,73.64a26.28,26.28,0,0,1-5.57-3.09l-.47-.33-.22-.17a38.65,38.65,0,0,1-5-4.57l-.78-.86a3.33,3.33,0,0,0-.25-.28c-.06-.08-.12-.15-.3-.35l-.27-.33c-.42-.5-.84-1-1.25-1.55s-.78-1-1.2-1.63a3,3,0,0,0-.2-.29l-.26-.38c-.31-.46-.62-.93-.92-1.4a54.11,54.11,0,0,1-5.31-10.88,41.43,41.43,0,0,1-2.54-18.32l0-.16a1.49,1.49,0,0,1,0-.21c0-.11,0-.22.05-.33a22,22,0,0,1,1.44-5.43,16.44,16.44,0,0,1,1.44-2.76l.17-.25.08-.12.09-.12a11.56,11.56,0,0,1,5.21-4.12A11.42,11.42,0,0,1,30.57,15a12.5,12.5,0,0,1,2.12-.11h.66a17.41,17.41,0,0,1,5.12,1.22l1,.4a26,26,0,0,1,3.13,1.69l.37.24.33.21.42.29.39.27.39.29.33.24a38.68,38.68,0,0,1,5,4.54q1.49,1.59,2.87,3.39l.13.17.17.22.29.4.29.39A53.14,53.14,0,0,1,58.77,38c.63,1.39,1.21,2.81,1.73,4.27.39,1.09.73,2.17,1,3.29l.15.54c0,.14.08.28.11.42a42.94,42.94,0,0,1,1.26,7A33.26,33.26,0,0,1,63,61.35a22.19,22.19,0,0,1-1.43,5.38A17.4,17.4,0,0,1,60.08,69.47Z"/>
              <path class="cls-36" d="M60,69.38l-.24.35-.11.16-.09.12a.76.76,0,0,0-.08.11l-.24.31A11.33,11.33,0,0,1,54.47,74a11.47,11.47,0,0,1-2.65.69,13.93,13.93,0,0,1-2.82.07,17.34,17.34,0,0,1-5-1.21,26.8,26.8,0,0,1-5.55-3.08l-.46-.34L37.71,70a39,39,0,0,1-5-4.55l-.78-.86c-.09-.09-.17-.19-.25-.28l-.3-.35-.27-.33c-.42-.5-.84-1-1.24-1.54s-.78-1-1.2-1.62a3,3,0,0,0-.2-.29l-.25-.38c-.32-.46-.62-.92-.93-1.4A54.13,54.13,0,0,1,22,47.52a41.28,41.28,0,0,1-2.54-18.25l0-.16,0-.21c0-.11,0-.21,0-.32A22,22,0,0,1,21,23.16a16.64,16.64,0,0,1,1.44-2.74l.16-.25.09-.12.08-.12a11.42,11.42,0,0,1,7.84-4.79A12.39,12.39,0,0,1,32.72,15h.67a17.3,17.3,0,0,1,5.09,1.22c.23.09.47.19.94.4a24.55,24.55,0,0,1,3.13,1.68l.36.23.33.22.42.28.39.28.39.28.32.24a38.42,38.42,0,0,1,5,4.52c1,1.05,1.93,2.18,2.85,3.37l.14.18c.05.07.1.15.16.22l.29.39.29.4A53.65,53.65,0,0,1,58.7,38c.63,1.39,1.2,2.81,1.72,4.26.39,1.09.73,2.16,1,3.27l.15.54c0,.14.08.28.11.42a43.81,43.81,0,0,1,1.26,7,33.45,33.45,0,0,1-.13,7.79,21.91,21.91,0,0,1-1.43,5.36A16.56,16.56,0,0,1,60,69.38Z"/>
              <path class="cls-37" d="M59.93,69.28l-.24.35-.12.16-.09.12a.76.76,0,0,1-.08.11,3.45,3.45,0,0,1-.24.3,11.14,11.14,0,0,1-4.74,3.54,11.38,11.38,0,0,1-2.64.69,13.85,13.85,0,0,1-2.81.07,17.14,17.14,0,0,1-5-1.21,26.3,26.3,0,0,1-5.53-3.06L38,70l-.22-.16a37.4,37.4,0,0,1-5-4.54c-.24-.25-.48-.51-.78-.85l-.24-.28c-.06-.07-.13-.14-.3-.35l-.27-.32c-.42-.5-.83-1-1.24-1.54s-.77-1-1.18-1.62l-.21-.28-.25-.38c-.31-.45-.62-.92-.92-1.39a53.2,53.2,0,0,1-5.26-10.79,41.09,41.09,0,0,1-2.53-18.18l0-.16,0-.2c0-.11,0-.22,0-.33a22.15,22.15,0,0,1,1.43-5.39,16.11,16.11,0,0,1,1.43-2.73l.17-.25.08-.12.09-.12A11.43,11.43,0,0,1,28,15.94a12.48,12.48,0,0,1,2.64-.69,13.5,13.5,0,0,1,2.11-.1h.66a17.39,17.39,0,0,1,5.07,1.21c.23.09.47.19.94.4a24.84,24.84,0,0,1,3.11,1.67l.36.24.33.21.42.28.39.28.39.28.32.24a37.39,37.39,0,0,1,4.94,4.5q1.47,1.57,2.84,3.36l.14.18c0,.07.11.14.16.22l.3.39.28.39a52.62,52.62,0,0,1,5.22,9c.63,1.38,1.2,2.79,1.72,4.24.38,1.08.72,2.15,1,3.26l.15.54c0,.14.07.28.11.42a43.3,43.3,0,0,1,1.25,6.94,33.29,33.29,0,0,1-.12,7.77,22.24,22.24,0,0,1-1.43,5.33A16.42,16.42,0,0,1,59.93,69.28Z"/>
              <path class="cls-38" d="M59.85,69.18l-.24.35-.11.16-.09.12-.08.11-.24.3a11.25,11.25,0,0,1-4.73,3.53,11.67,11.67,0,0,1-2.63.68,13.63,13.63,0,0,1-2.79.07,17,17,0,0,1-5-1.2,26.18,26.18,0,0,1-5.51-3.06L38,69.91l-.22-.16a38.42,38.42,0,0,1-5-4.52L32,64.38l-.24-.27-.3-.35-.27-.33q-.63-.74-1.23-1.53c-.39-.51-.77-1-1.18-1.61L28.57,60c-.06-.09-.13-.18-.25-.37-.31-.45-.62-.91-.92-1.38A53,53,0,0,1,22.17,47.5a40.88,40.88,0,0,1-2.52-18.1l0-.16a1.49,1.49,0,0,1,0-.21c0-.11,0-.21,0-.32a21.55,21.55,0,0,1,1.42-5.37,16,16,0,0,1,1.43-2.72c.05-.09.11-.17.16-.25l.09-.12.08-.12a11.41,11.41,0,0,1,5.15-4.07,12.23,12.23,0,0,1,2.63-.69,13.25,13.25,0,0,1,2.09-.1h.66a16.65,16.65,0,0,1,5,1.21l.94.39a26.9,26.9,0,0,1,3.1,1.67l.36.23.33.22.41.28.39.27.39.28.31.24a38.49,38.49,0,0,1,4.93,4.48c1,1.05,1.92,2.17,2.83,3.35l.13.18.17.21c.07.11.15.21.29.4s.18.24.28.39a52.44,52.44,0,0,1,5.2,9c.62,1.37,1.19,2.78,1.71,4.22.38,1.08.72,2.15,1,3.25l.15.53c0,.14.07.28.11.42a43.94,43.94,0,0,1,1.24,6.92,33,33,0,0,1-.12,7.73,22.16,22.16,0,0,1-1.42,5.32A15.51,15.51,0,0,1,59.85,69.18Z"/>
              <path class="cls-39" d="M59.78,69.08l-.24.35-.12.16-.08.12a.76.76,0,0,0-.08.11l-.24.3a11.15,11.15,0,0,1-4.71,3.51,11.72,11.72,0,0,1-2.62.68,13.55,13.55,0,0,1-2.78.07,16.57,16.57,0,0,1-5-1.2,26.18,26.18,0,0,1-5.49-3c-.11-.08-.22-.15-.45-.33l-.23-.16a38.76,38.76,0,0,1-4.94-4.5c-.24-.25-.47-.51-.77-.85L31.8,64l-.3-.35-.27-.32c-.42-.5-.82-1-1.22-1.53s-.77-1-1.18-1.6a3,3,0,0,1-.2-.29l-.26-.37c-.31-.45-.61-.91-.91-1.38a53.11,53.11,0,0,1-5.22-10.7,40.69,40.69,0,0,1-2.5-18V29.3l0-.2c0-.11,0-.22,0-.33a21.74,21.74,0,0,1,1.42-5.34,17.14,17.14,0,0,1,1.42-2.72l.17-.24.08-.12.09-.12a11.35,11.35,0,0,1,5.12-4.05,11.73,11.73,0,0,1,2.62-.69,14.49,14.49,0,0,1,2.09-.11h.65a16.81,16.81,0,0,1,5,1.2c.23.09.47.19.94.4a25.13,25.13,0,0,1,3.08,1.66l.36.23.33.21.41.28.39.27.38.28.32.24a38.1,38.1,0,0,1,4.9,4.46q1.47,1.58,2.82,3.34l.14.18.16.21.29.39c.09.12.18.24.28.39a52.08,52.08,0,0,1,5.18,9c.62,1.37,1.19,2.77,1.7,4.2.38,1.07.72,2.14,1,3.24,0,.14.08.27.14.53s.08.27.11.41a42.93,42.93,0,0,1,1.25,6.89,33.31,33.31,0,0,1-.13,7.71,21.91,21.91,0,0,1-1.41,5.29A16.08,16.08,0,0,1,59.78,69.08Z"/>
              <path class="cls-40" d="M59.7,69l-.24.35-.11.16-.09.12-.08.1L59,70a11.11,11.11,0,0,1-4.69,3.49,11.64,11.64,0,0,1-2.61.68,13.46,13.46,0,0,1-2.77.07,16.65,16.65,0,0,1-5-1.19,26.21,26.21,0,0,1-5.47-3L38,69.71l-.22-.17a37.67,37.67,0,0,1-4.93-4.47l-.77-.85L31.84,64l-.3-.34-.27-.33c-.41-.49-.82-1-1.22-1.52s-.76-1-1.17-1.59c-.07-.1-.14-.19-.2-.29l-.26-.37c-.3-.45-.61-.91-.9-1.37a52.19,52.19,0,0,1-5.2-10.66,40.66,40.66,0,0,1-2.5-18l0-.16,0-.2c0-.11,0-.21,0-.32a22.11,22.11,0,0,1,1.41-5.33,16.94,16.94,0,0,1,1.42-2.7l.16-.24.09-.12.08-.12a11.4,11.4,0,0,1,5.1-4,12.2,12.2,0,0,1,2.61-.68,14.42,14.42,0,0,1,2.08-.11h.65a16.69,16.69,0,0,1,5,1.2c.23.09.46.18.93.39a25.67,25.67,0,0,1,3.08,1.65l.35.23.33.22c.12.08.25.16.41.28l.38.27.39.28.32.23a38.54,38.54,0,0,1,4.88,4.45Q51,26.3,52.4,28.06l.13.17.16.22c.08.1.16.2.29.39l.28.38a52.1,52.1,0,0,1,5.16,8.92c.62,1.36,1.18,2.75,1.7,4.18.37,1.07.71,2.13,1,3.22,0,.14.07.28.14.53s.08.28.11.42a43.24,43.24,0,0,1,1.24,6.86A32.42,32.42,0,0,1,62.51,61a21.42,21.42,0,0,1-1.4,5.27A15.61,15.61,0,0,1,59.7,69Z"/>
              <path class="cls-41" d="M59.62,68.88a3.87,3.87,0,0,1-.23.35l-.11.16-.09.12-.08.1c-.07.09-.13.18-.23.3A11.16,11.16,0,0,1,54.2,73.4a12,12,0,0,1-2.59.67,13.38,13.38,0,0,1-2.76.07,16.91,16.91,0,0,1-5-1.19,26,26,0,0,1-5.45-3L38,69.61l-.22-.17A38,38,0,0,1,32.88,65l-.77-.85-.24-.27-.29-.34-.27-.32c-.41-.49-.82-1-1.21-1.51s-.77-1-1.17-1.59c-.07-.1-.14-.19-.2-.29s-.13-.19-.25-.36c-.31-.45-.61-.91-.91-1.38A52.46,52.46,0,0,1,22.4,47.47a40.43,40.43,0,0,1-2.49-17.88l0-.16a1.5,1.5,0,0,0,0-.2c0-.11,0-.22.05-.33a21.66,21.66,0,0,1,1.4-5.3,16.79,16.79,0,0,1,1.41-2.69l.17-.24.08-.12a.83.83,0,0,0,.08-.12,11.33,11.33,0,0,1,5.09-4,11.46,11.46,0,0,1,2.59-.68,14.36,14.36,0,0,1,2.07-.11h.65a17.09,17.09,0,0,1,5,1.19l.93.39a25.45,25.45,0,0,1,3.06,1.65l.36.23.32.21.41.28.38.27.39.28.31.23a36.9,36.9,0,0,1,4.86,4.43c1,1,1.9,2.14,2.8,3.31l.13.17.17.21c.07.11.15.21.28.39l.29.39a52.57,52.57,0,0,1,5.13,8.87c.61,1.36,1.18,2.75,1.69,4.17.38,1.07.71,2.12,1,3.21l.15.53c0,.13.07.27.11.41a42.84,42.84,0,0,1,1.23,6.83A32.72,32.72,0,0,1,62.43,61,22,22,0,0,1,61,66.2,14.85,14.85,0,0,1,59.62,68.88Z"/>
            </g>
          </g>
          <path class="cls-3" d="M59.62,68.88a3.87,3.87,0,0,1-.23.35l-.11.16-.09.12-.08.1c-.07.09-.13.18-.23.3A11.16,11.16,0,0,1,54.2,73.4a12,12,0,0,1-2.59.67,13.38,13.38,0,0,1-2.76.07,16.91,16.91,0,0,1-5-1.19,26,26,0,0,1-5.45-3L38,69.61l-.22-.17A38,38,0,0,1,32.88,65l-.77-.85-.24-.27-.29-.34-.27-.32c-.41-.49-.82-1-1.21-1.51s-.77-1-1.17-1.59c-.07-.1-.14-.19-.2-.29s-.13-.19-.25-.36c-.31-.45-.61-.91-.91-1.38A52.46,52.46,0,0,1,22.4,47.47a40.43,40.43,0,0,1-2.49-17.88l0-.16a1.5,1.5,0,0,0,0-.2c0-.11,0-.22.05-.33a21.66,21.66,0,0,1,1.4-5.3,16.79,16.79,0,0,1,1.41-2.69l.17-.24.08-.12a.83.83,0,0,0,.08-.12,11.33,11.33,0,0,1,5.09-4,11.46,11.46,0,0,1,2.59-.68,14.36,14.36,0,0,1,2.07-.11h.65a17.09,17.09,0,0,1,5,1.19l.93.39a25.45,25.45,0,0,1,3.06,1.65l.36.23.32.21.41.28.38.27.39.28.31.23a36.9,36.9,0,0,1,4.86,4.43c1,1,1.9,2.14,2.8,3.31l.13.17.17.21c.07.11.15.21.28.39l.29.39a52.57,52.57,0,0,1,5.13,8.87c.61,1.36,1.18,2.75,1.69,4.17.38,1.07.71,2.12,1,3.21l.15.53c0,.13.07.27.11.41a42.84,42.84,0,0,1,1.23,6.83A32.72,32.72,0,0,1,62.43,61,22,22,0,0,1,61,66.2,14.85,14.85,0,0,1,59.62,68.88Zm-3.29-26a41.9,41.9,0,0,0-6.18-11.41C45,24.78,38.47,20.73,32.87,21.48,24.53,22.63,21.5,34,26.11,47a42.11,42.11,0,0,0,6.18,11.42C37.39,65,44,69.07,49.55,68.31c8.35-1.13,11.38-12.54,6.78-25.47Z"/>
          <path class="cls-4" d="M32.29,58.38A42.11,42.11,0,0,1,26.11,47C21.5,34,24.53,22.63,32.87,21.48c5.6-.75,12.17,3.3,17.28,10a41.9,41.9,0,0,1,6.18,11.41c4.6,12.93,1.57,24.34-6.78,25.47C44,69.07,37.39,65,32.29,58.38Z"/>
          <path class="cls-42" d="M72.78,74.11l-.39-.46h0l.39.46a39.3,39.3,0,0,0,1.37-9.27,1.48,1.48,0,0,1,0-.21,2.62,2.62,0,0,1,0-.28A65.71,65.71,0,0,0,70.07,41a81,81,0,0,0-4.85-11,77.29,77.29,0,0,0-6.95-10.82,66.32,66.32,0,0,0-8.25-9h0c-5.26-4.72-10.89-8-16.35-9.42A20.07,20.07,0,0,0,22.24.88L22,1a17.39,17.39,0,0,0-3.62,1.78A17.36,17.36,0,0,1,21.92,1c-6,2.09-10.23,7.4-12.27,14.71a40,40,0,0,0-1.39,9.82,65.55,65.55,0,0,0,4.1,23.33,80,80,0,0,0,11.8,21.8C32.55,81.57,43,88.82,52.57,89.7l.45,0a19.41,19.41,0,0,0,5.22-.3l.39-.09h0l.76-.19-.76.19C65.7,87.76,70.55,82.14,72.78,74.11ZM8.7,33.73c.07.51.14,1,.22,1.54C8.84,34.75,8.77,34.24,8.7,33.73Zm8.51,26.09h0c.26.49.53,1,.79,1.45C17.74,60.79,17.47,60.31,17.21,59.82ZM48.78,89l-.06-1.25h0L48.78,89c.32.09.65.16,1,.23C49.43,89.19,49.1,89.12,48.78,89Z"/>
          <g class="cls-43">
            <path class="cls-28" d="M48.78,89l-.06-1.25h0L48.78,89c.32.09.65.16,1,.23C49.43,89.19,49.1,89.12,48.78,89ZM17.21,59.82h0c.26.49.53,1,.79,1.45C17.74,60.79,17.47,60.31,17.21,59.82ZM72.78,74.11l-.39-.46h0l.39.46a39.3,39.3,0,0,0,1.37-9.27,1.48,1.48,0,0,1,0-.21,2.62,2.62,0,0,1,0-.28A65.71,65.71,0,0,0,70.07,41a81,81,0,0,0-4.85-11,77.29,77.29,0,0,0-6.95-10.82,66.32,66.32,0,0,0-8.25-9h0c-5.26-4.72-10.89-8-16.35-9.42A20.07,20.07,0,0,0,22.24.88L22,1a17.39,17.39,0,0,0-3.62,1.78A17.36,17.36,0,0,1,21.92,1c-6,2.09-10.23,7.4-12.27,14.71a40,40,0,0,0-1.39,9.82,65.55,65.55,0,0,0,4.1,23.33,80,80,0,0,0,11.8,21.8C32.55,81.57,43,88.82,52.57,89.7l.45,0a19.41,19.41,0,0,0,5.22-.3l.39-.09h0l.76-.19-.76.19C65.7,87.76,70.55,82.14,72.78,74.11ZM8.7,33.73c.07.51.14,1,.22,1.54C8.84,34.75,8.77,34.24,8.7,33.73Z"/>
            <path class="cls-44" d="M48.68,89l-.07-1.25h0L48.68,89l1,.23ZM17.14,59.85h0c.26.49.52,1,.79,1.45C17.66,60.82,17.4,60.34,17.14,59.85ZM72.65,74.13l-.39-.46h0l.39.46A39.22,39.22,0,0,0,74,64.86a1.41,1.41,0,0,1,0-.2,2.62,2.62,0,0,1,0-.28A65.49,65.49,0,0,0,70,41,82.27,82.27,0,0,0,65.1,30a78.65,78.65,0,0,0-6.94-10.81,65.48,65.48,0,0,0-8.25-9h0C44.65,5.56,39,2.27,33.57.86A20.17,20.17,0,0,0,22.17,1l-.3.1a16.58,16.58,0,0,0-3.61,1.77,16.39,16.39,0,0,1,3.59-1.76c-6,2.08-10.23,7.39-12.26,14.69A39.43,39.43,0,0,0,8.2,25.58a65.45,65.45,0,0,0,4.09,23.31A80.25,80.25,0,0,0,24.08,70.67c8.38,10.92,18.83,18.16,28.38,19l.45,0a19,19,0,0,0,5.22-.3l.39-.08h0l.75-.2-.75.2C65.58,87.76,70.42,82.15,72.65,74.13Zm-64-40.34c.06.51.14,1,.21,1.54C8.78,34.81,8.7,34.3,8.64,33.79Z"/>
            <path class="cls-45" d="M48.57,89l-.06-1.25h0L48.57,89l1,.23ZM17.07,59.89h0c.26.48.52,1,.79,1.44C17.59,60.85,17.33,60.37,17.07,59.89ZM72.53,74.15l-.4-.46h0l.4.46a39.66,39.66,0,0,0,1.36-9.26,1.41,1.41,0,0,1,0-.2v-.28a65.14,65.14,0,0,0-4.08-23.34,81.4,81.4,0,0,0-4.84-11,78.82,78.82,0,0,0-6.93-10.8,66.12,66.12,0,0,0-8.25-9h0c-5.25-4.71-10.86-8-16.32-9.4a20.14,20.14,0,0,0-11.39.1l-.29.1a16.58,16.58,0,0,0-3.61,1.77,16.31,16.31,0,0,1,3.58-1.76c-6,2.08-10.22,7.38-12.25,14.68a39.35,39.35,0,0,0-1.38,9.8,65.46,65.46,0,0,0,4.08,23.28A80.25,80.25,0,0,0,24,70.69c8.38,10.91,18.81,18.14,28.35,19l.45,0A19.4,19.4,0,0,0,58,89.44l.39-.08h0l.76-.19-.76.19C65.46,87.77,70.3,82.16,72.53,74.15ZM8.58,33.85c.06.51.13,1,.21,1.54C8.71,34.87,8.64,34.36,8.58,33.85Z"/>
            <path class="cls-46" d="M48.47,89,48.4,87.8h0L48.47,89c.32.09.64.16,1,.23C49.11,89.2,48.79,89.13,48.47,89ZM17,59.92h0c.26.49.52,1,.79,1.44C17.52,60.89,17.26,60.41,17,59.92ZM72.4,74.17l-.4-.46h0l.4.46a39.66,39.66,0,0,0,1.36-9.25,1.27,1.27,0,0,1,0-.2v-.28A65.15,65.15,0,0,0,69.7,41.13a81.44,81.44,0,0,0-4.85-11,76.13,76.13,0,0,0-6.92-10.78,65.92,65.92,0,0,0-8.23-9h0c-5.25-4.7-10.86-8-16.31-9.39A20.1,20.1,0,0,0,22,1.16l-.29.1A16.58,16.58,0,0,0,18.11,3a16.53,16.53,0,0,1,3.58-1.76c-6,2.08-10.2,7.37-12.23,14.65a39.42,39.42,0,0,0-1.38,9.8A65.17,65.17,0,0,0,12.16,49,80.29,80.29,0,0,0,23.92,70.71c8.37,10.9,18.79,18.11,28.33,19l.44,0a19.31,19.31,0,0,0,5.21-.3l.39-.09h.05l.76-.19c-.26.07-.51.14-.76.19C65.34,87.77,70.17,82.17,72.4,74.17ZM8.51,33.91c.07.51.14,1,.22,1.54C8.65,34.93,8.58,34.42,8.51,33.91Z"/>
            <path class="cls-47" d="M48.37,89.05l-.07-1.24h0l.07,1.24,1,.23ZM16.93,60h0l.78,1.44ZM72.27,74.19l-.4-.46h0l.4.46A39.49,39.49,0,0,0,73.63,65a1.27,1.27,0,0,1,0-.2v-.28a65.08,65.08,0,0,0-4.07-23.29,79.9,79.9,0,0,0-4.84-10.94,77.56,77.56,0,0,0-6.91-10.78,66.42,66.42,0,0,0-8.23-8.94h0c-5.24-4.7-10.84-8-16.29-9.38a20,20,0,0,0-11.36.1l-.3.1A16.73,16.73,0,0,0,18,3.12a16.31,16.31,0,0,1,3.58-1.76C15.6,3.44,11.42,8.72,9.4,16A39.33,39.33,0,0,0,8,25.78,65.19,65.19,0,0,0,12.09,49,80.27,80.27,0,0,0,23.84,70.73c8.36,10.89,18.77,18.09,28.3,19l.44,0a19.33,19.33,0,0,0,5.21-.31l.39-.08h0l.76-.19-.76.19C65.22,87.78,70,82.18,72.27,74.19ZM8.45,34l.21,1.54Z"/>
            <path class="cls-48" d="M48.26,89.05l-.06-1.24h0l.06,1.24c.32.09.64.16,1,.23C48.9,89.21,48.58,89.14,48.26,89.05ZM16.86,60h0c.25.48.52,1,.78,1.44C17.38,61,17.11,60.47,16.86,60ZM72.14,74.21l-.39-.46h0l.39.46A39.48,39.48,0,0,0,73.5,65a1.27,1.27,0,0,1,0-.2V64.5a64.94,64.94,0,0,0-4.07-23.27A82.1,82.1,0,0,0,64.61,30.3,77.34,77.34,0,0,0,57.7,19.54a65.61,65.61,0,0,0-8.21-8.93h0c-5.24-4.69-10.84-8-16.28-9.37a20,20,0,0,0-11.35.11l-.29.09A16.5,16.5,0,0,0,18,3.21a16.46,16.46,0,0,1,3.57-1.76c-6,2.08-10.18,7.36-12.21,14.63A39.25,39.25,0,0,0,8,25.85,65.53,65.53,0,0,0,12,49.07,80,80,0,0,0,23.77,70.76c8.34,10.87,18.75,18.06,28.26,19l.45,0a19.28,19.28,0,0,0,5.2-.31l.38-.08h0l.76-.19-.76.19C65.1,87.78,69.92,82.19,72.14,74.21ZM8.39,34c.06.51.13,1,.21,1.54C8.52,35.05,8.45,34.54,8.39,34Z"/>
            <path class="cls-49" d="M48.16,89.06l-.07-1.24h0l.07,1.24,1,.23ZM16.78,60h0c.26.49.52,1,.79,1.44C17.3,61,17,60.51,16.78,60ZM72,74.23l-.39-.46h0l.39.46A39.4,39.4,0,0,0,73.37,65a1.48,1.48,0,0,1,0-.21v-.27a65,65,0,0,0-4.06-23.24,80.84,80.84,0,0,0-4.83-10.92,78.22,78.22,0,0,0-6.9-10.76,66.11,66.11,0,0,0-8.21-8.92h0C44.15,6,38.56,2.73,33.12,1.34a20,20,0,0,0-11.34.1l-.29.1A16.85,16.85,0,0,0,17.9,3.3a16.58,16.58,0,0,1,3.56-1.75c-6,2.07-10.17,7.35-12.19,14.61a39.1,39.1,0,0,0-1.38,9.76A64.94,64.94,0,0,0,12,49.11,79.86,79.86,0,0,0,23.69,70.78c8.34,10.86,18.73,18,28.23,19l.45,0a19.19,19.19,0,0,0,5.19-.3l.39-.08h0l.75-.2-.75.2C65,87.79,69.79,82.21,72,74.23ZM8.33,34.09q.09.77.21,1.53Q8.42,34.86,8.33,34.09Z"/>
            <path class="cls-50" d="M48.05,89.06,48,87.82h0l.06,1.24,1,.23Zm-31.34-29h0c.26.48.52,1,.79,1.43C17.23,61,17,60.54,16.71,60.06ZM71.88,74.25l-.39-.46h0l.39.46A39.39,39.39,0,0,0,73.24,65a1.48,1.48,0,0,1,0-.21v-.27a64.88,64.88,0,0,0-4.06-23.22,81.23,81.23,0,0,0-4.82-10.91,76.16,76.16,0,0,0-6.9-10.74,64.73,64.73,0,0,0-8.2-8.91h0C44.05,6.1,38.46,2.82,33,1.43a19.89,19.89,0,0,0-11.32.11l-.3.09A16.65,16.65,0,0,0,17.82,3.4a16.46,16.46,0,0,1,3.57-1.76C15.39,3.71,11.22,9,9.2,16.24A39.49,39.49,0,0,0,7.83,26a65.06,65.06,0,0,0,4.06,23.17A79.93,79.93,0,0,0,23.61,70.8c8.33,10.86,18.71,18,28.2,18.93l.45,0a19.18,19.18,0,0,0,5.19-.31l.39-.08h0l.76-.19-.76.19C64.86,87.8,69.67,82.22,71.88,74.25ZM8.26,34.15l.21,1.53Z"/>
            <path class="cls-51" d="M48,89.07l-.06-1.24h0L48,89.07l1,.22Zm-31.31-29h0c.26.48.52,1,.79,1.44C17.16,61.05,16.9,60.57,16.64,60.09ZM71.75,74.27l-.39-.46h0l.39.46a39.23,39.23,0,0,0,1.36-9.2,1.48,1.48,0,0,1,0-.21v-.27a64.78,64.78,0,0,0-4.06-23.2A80.93,80.93,0,0,0,64.25,30.5a76.9,76.9,0,0,0-6.89-10.73,66,66,0,0,0-8.19-8.91h0C44,6.19,38.37,2.92,32.94,1.52a20,20,0,0,0-11.31.11l-.29.1a16.18,16.18,0,0,0-3.59,1.76,16.13,16.13,0,0,1,3.56-1.75c-6,2.07-10.15,7.33-12.17,14.58a39.41,39.41,0,0,0-1.37,9.74A64.87,64.87,0,0,0,11.83,49.2a79.55,79.55,0,0,0,11.7,21.63c8.32,10.84,18.69,18,28.18,18.9l.44,0a19.19,19.19,0,0,0,5.19-.3l.38-.09h.05l.75-.19c-.25.07-.5.14-.75.19C64.73,87.8,69.54,82.23,71.75,74.27ZM8.2,34.21q.09.76.21,1.53Q8.29,35,8.2,34.21Z"/>
            <path class="cls-52" d="M47.85,89.07l-.07-1.24h0l.07,1.24.95.23ZM16.57,60.13h0l.78,1.43ZM71.62,74.28l-.39-.45h0l.39.45A39,39,0,0,0,73,65.1v-.21a2.44,2.44,0,0,0,0-.27,64.78,64.78,0,0,0-4-23.17,82.21,82.21,0,0,0-4.81-10.89,78.27,78.27,0,0,0-6.88-10.72A65.12,65.12,0,0,0,49.06,11h0C43.85,6.28,38.27,3,32.86,1.62a20,20,0,0,0-11.31.1l-.29.1a16.32,16.32,0,0,0-3.58,1.76,16.28,16.28,0,0,1,3.55-1.75C15.25,3.9,11.09,9.16,9.08,16.4A38.86,38.86,0,0,0,7.7,26.13a65,65,0,0,0,4.06,23.12,79.76,79.76,0,0,0,11.69,21.6c8.32,10.83,18.67,18,28.15,18.89l.44,0a19.09,19.09,0,0,0,5.18-.3l.39-.08h0l.76-.19-.76.19C64.61,87.81,69.41,82.24,71.62,74.28Zm-63.48-40q.09.76.21,1.53Q8.23,35,8.14,34.27Z"/>
            <path class="cls-53" d="M47.74,89.07l-.06-1.23h0l.06,1.23c.32.09.64.16,1,.23C48.38,89.23,48.06,89.16,47.74,89.07ZM16.5,60.16h0l.78,1.43Zm55,14.14-.39-.45h0l.4.45a39.5,39.5,0,0,0,1.35-9.17v-.21a2.44,2.44,0,0,0,0-.27,64.72,64.72,0,0,0-4-23.15A80.07,80.07,0,0,0,64,30.63a76.63,76.63,0,0,0-6.88-10.71A65,65,0,0,0,49,11h0C43.75,6.37,38.18,3.1,32.77,1.71a20,20,0,0,0-11.3.11l-.29.09A16.78,16.78,0,0,0,17.6,3.67a16.58,16.58,0,0,1,3.56-1.75C15.18,4,11,9.24,9,16.48A39.24,39.24,0,0,0,7.64,26.2a64.81,64.81,0,0,0,4.05,23.09A79.47,79.47,0,0,0,23.37,70.87c8.31,10.82,18.66,18,28.12,18.87l.45,0a18.66,18.66,0,0,0,5.17-.31l.38-.08h0l.75-.19-.75.19C64.49,87.81,69.29,82.25,71.49,74.3Zm-63.41-40q.09.77.21,1.53Q8.17,35.1,8.08,34.33Z"/>
            <path class="cls-54" d="M47.64,89.08l-.07-1.24h0l.07,1.24,1,.23ZM16.43,60.19h0c.25.48.51,1,.78,1.43C16.94,61.15,16.68,60.67,16.43,60.19ZM71.37,74.32,71,73.87h0l.39.45a39.33,39.33,0,0,0,1.35-9.16V65a2.44,2.44,0,0,0,0-.27,64.77,64.77,0,0,0-4-23.13,81.81,81.81,0,0,0-4.81-10.86A76.42,76.42,0,0,0,57,20a64.82,64.82,0,0,0-8.17-8.87h0C43.65,6.46,38.09,3.2,32.68,1.81a19.85,19.85,0,0,0-11.28.1l-.29.1a16.74,16.74,0,0,0-3.58,1.75A16.7,16.7,0,0,1,21.08,2C15.11,4.08,11,9.33,9,16.56a39.1,39.1,0,0,0-1.37,9.71,64.71,64.71,0,0,0,4.05,23.07A79.24,79.24,0,0,0,23.29,70.89c8.3,10.81,18.64,18,28.09,18.85l.45,0a19,19,0,0,0,5.16-.3l.39-.08h0l.75-.19-.75.19C64.37,87.82,69.16,82.26,71.37,74.32ZM8,34.39l.21,1.53Z"/>
          </g>
          <g class="cls-55">
            <path class="cls-54" d="M71.51,74.76h0a39.3,39.3,0,0,0,1.37-9.27c0-.07,0-.14,0-.21a2.62,2.62,0,0,1,0-.28,65.4,65.4,0,0,0-4.1-23.38,80.59,80.59,0,0,0-4.85-11,77.29,77.29,0,0,0-7-10.82,65.68,65.68,0,0,0-8.25-9h0c-5.27-4.72-10.89-8-16.36-9.42A20,20,0,0,0,21,1.53l-.3.09A17.39,17.39,0,0,0,17.06,3.4a17.36,17.36,0,0,1,3.59-1.77C14.62,3.72,10.42,9,8.38,16.34A40,40,0,0,0,7,26.16a65.55,65.55,0,0,0,4.1,23.33,80,80,0,0,0,11.8,21.8C31.28,82.22,41.73,89.47,51.3,90.35l.45,0a19.41,19.41,0,0,0,5.22-.3l.39-.09h0l.76-.19-.76.19C64.44,88.41,69.28,82.79,71.51,74.76Z"/>
            <path class="cls-53" d="M71.63,74.7h0A40.36,40.36,0,0,0,73,65.43v-.21a2.53,2.53,0,0,0,0-.28,65.37,65.37,0,0,0-4.09-23.38,80.63,80.63,0,0,0-4.86-11,77.24,77.24,0,0,0-6.94-10.82,66.37,66.37,0,0,0-8.26-9h0C43.6,6.06,38,2.76,32.5,1.36a20.12,20.12,0,0,0-11.41.11l-.29.09a16.92,16.92,0,0,0-3.62,1.78,16.88,16.88,0,0,1,3.59-1.77C14.73,3.66,10.53,9,8.5,16.28A39.58,39.58,0,0,0,7.11,26.1,65.52,65.52,0,0,0,11.2,49.43,80.52,80.52,0,0,0,23,71.23C31.4,82.16,41.85,89.41,51.41,90.3l.45,0a19.49,19.49,0,0,0,5.23-.3l.39-.09h.05c.25-.05.5-.12.76-.19l-.76.19C64.55,88.35,69.4,82.73,71.63,74.7Z"/>
            <path class="cls-52" d="M71.74,74.64h0a39.74,39.74,0,0,0,1.37-9.27c0-.07,0-.14,0-.21a2.72,2.72,0,0,1,0-.28A65.59,65.59,0,0,0,69,41.5a81.87,81.87,0,0,0-4.86-11,78.16,78.16,0,0,0-6.94-10.82,66.37,66.37,0,0,0-8.26-9h0C43.71,6,38.09,2.7,32.62,1.3a20.12,20.12,0,0,0-11.41.11l-.3.09a17.39,17.39,0,0,0-3.62,1.78,17.36,17.36,0,0,1,3.59-1.77c-6,2.09-10.23,7.4-12.27,14.71A39.58,39.58,0,0,0,7.23,26a65.3,65.3,0,0,0,4.09,23.33,80,80,0,0,0,11.8,21.8C31.51,82.11,42,89.35,51.53,90.24l.45,0a19.11,19.11,0,0,0,5.23-.3l.39-.09h0c.26-.05.51-.12.76-.19l-.76.19C64.67,88.29,69.51,82.67,71.74,74.64Z"/>
            <path class="cls-56" d="M71.86,74.58h0a40.28,40.28,0,0,0,1.37-9.27V65.1a2.53,2.53,0,0,0,0-.28,65.37,65.37,0,0,0-4.09-23.38,80.59,80.59,0,0,0-4.85-11,78.21,78.21,0,0,0-6.95-10.82,65.68,65.68,0,0,0-8.26-9h0c-5.26-4.72-10.89-8-16.36-9.42a20.12,20.12,0,0,0-11.41.11l-.29.1a16.43,16.43,0,0,0-3.62,1.77A16.39,16.39,0,0,1,21,1.46C15,3.54,10.76,8.85,8.73,16.16A39.58,39.58,0,0,0,7.34,26a65.52,65.52,0,0,0,4.09,23.33,80.52,80.52,0,0,0,11.8,21.8c8.4,10.94,18.85,18.18,28.42,19.07l.44,0a19.06,19.06,0,0,0,5.23-.3l.39-.08,0,0c.25,0,.51-.12.76-.19-.25.07-.51.14-.76.19C64.78,88.23,69.63,82.61,71.86,74.58Z"/>
            <path class="cls-50" d="M72,74.52h0a39.75,39.75,0,0,0,1.36-9.27c0-.07,0-.14,0-.21a2.44,2.44,0,0,1,0-.27,65.61,65.61,0,0,0-4.09-23.39,81.87,81.87,0,0,0-4.86-11,78.16,78.16,0,0,0-6.94-10.82,65.68,65.68,0,0,0-8.26-9h0c-5.27-4.72-10.89-8-16.36-9.42a20.12,20.12,0,0,0-11.41.11l-.3.1a16.58,16.58,0,0,0-3.61,1.77A16.39,16.39,0,0,1,21.12,1.4c-6,2.08-10.24,7.39-12.28,14.7a39.58,39.58,0,0,0-1.38,9.82,65.52,65.52,0,0,0,4.09,23.33,80.45,80.45,0,0,0,11.8,21.81C31.74,82,42.2,89.24,51.76,90.12l.45,0a19.11,19.11,0,0,0,5.23-.3l.39-.08h0l.76-.2-.76.2C64.9,88.17,69.74,82.55,72,74.52Z"/>
            <path class="cls-49" d="M72.09,74.46h0a40.28,40.28,0,0,0,1.37-9.27V65a2.44,2.44,0,0,0,0-.27,65.39,65.39,0,0,0-4.09-23.39,80.59,80.59,0,0,0-4.85-11,78.21,78.21,0,0,0-7-10.82,65.68,65.68,0,0,0-8.26-9h0C44.06,5.82,38.43,2.53,33,1.12a20.21,20.21,0,0,0-11.41.11l-.29.1A16.65,16.65,0,0,0,17.64,3.1a16.39,16.39,0,0,1,3.59-1.76C15.19,3.42,11,8.73,9,16a39.58,39.58,0,0,0-1.39,9.82,65.52,65.52,0,0,0,4.09,23.33A80.33,80.33,0,0,0,23.47,71c8.39,10.93,18.84,18.18,28.41,19.06l.45,0a19.4,19.4,0,0,0,5.22-.31l.39-.08H58l.76-.2-.76.2C65,88.11,69.86,82.49,72.09,74.46Z"/>
            <path class="cls-48" d="M72.21,74.4h0a39.75,39.75,0,0,0,1.36-9.27,1.48,1.48,0,0,0,0-.21c0-.09,0-.18,0-.27A65.61,65.61,0,0,0,69.5,41.26a82.44,82.44,0,0,0-4.86-11A78.16,78.16,0,0,0,57.7,19.45a66.27,66.27,0,0,0-8.26-9h0c-5.27-4.72-10.89-8-16.36-9.42a20.21,20.21,0,0,0-11.41.11l-.3.1a16.17,16.17,0,0,0-3.61,1.78,16,16,0,0,1,3.59-1.77C15.31,3.37,11.11,8.67,9.07,16A39.58,39.58,0,0,0,7.69,25.8a65.61,65.61,0,0,0,4.09,23.34,80.39,80.39,0,0,0,11.8,21.8C32,81.87,42.43,89.12,52,90l.45,0a19.48,19.48,0,0,0,5.23-.31l.39-.08h0l.76-.19-.76.19C65.13,88.05,70,82.43,72.21,74.4Z"/>
            <path class="cls-47" d="M72.32,74.34h0a40.28,40.28,0,0,0,1.37-9.27,1.48,1.48,0,0,1,0-.21v-.27A65.39,65.39,0,0,0,69.61,41.2a81.69,81.69,0,0,0-4.85-11,77.5,77.5,0,0,0-7-10.81,65.73,65.73,0,0,0-8.26-9h0C44.29,5.71,38.66,2.41,33.19,1a20.12,20.12,0,0,0-11.41.1l-.29.1A16.24,16.24,0,0,0,17.87,3a16,16,0,0,1,3.59-1.77c-6,2.09-10.24,7.4-12.27,14.7A40,40,0,0,0,7.8,25.74a65.38,65.38,0,0,0,4.1,23.34,80.12,80.12,0,0,0,11.8,21.8c8.39,10.93,18.84,18.18,28.41,19.06l.45,0a19.4,19.4,0,0,0,5.22-.31l.39-.08h0l.76-.19-.76.19C65.24,88,70.09,82.37,72.32,74.34Z"/>
            <path class="cls-57" d="M72.44,74.28h0A39.23,39.23,0,0,0,73.8,65a1.41,1.41,0,0,0,0-.2c0-.1,0-.19,0-.28a65.64,65.64,0,0,0-4.09-23.39,83,83,0,0,0-4.86-11,78,78,0,0,0-6.94-10.81,66.37,66.37,0,0,0-8.26-9h0C44.4,5.65,38.78,2.35,33.31,1a20.12,20.12,0,0,0-11.41.1l-.29.1A16,16,0,0,0,18,2.93a16,16,0,0,1,3.59-1.77c-6,2.09-10.24,7.4-12.28,14.7a39.66,39.66,0,0,0-1.38,9.83A65.52,65.52,0,0,0,12,49a80.39,80.39,0,0,0,11.8,21.8C32.2,81.75,42.66,89,52.22,89.88l.45,0a19.48,19.48,0,0,0,5.23-.31l.39-.08h0l.76-.19-.76.19C65.36,87.93,70.2,82.31,72.44,74.28Z"/>
            <path class="cls-45" d="M72.55,74.23h0A39.39,39.39,0,0,0,73.92,65a1.34,1.34,0,0,1,0-.2v-.28a65.46,65.46,0,0,0-4.09-23.39A81,81,0,0,0,65,30.1,77.61,77.61,0,0,0,58,19.28a65.73,65.73,0,0,0-8.26-9h0c-5.26-4.71-10.89-8-16.36-9.41A20.13,20.13,0,0,0,22,1l-.29.1A16.91,16.91,0,0,0,18.1,2.87,16.64,16.64,0,0,1,21.69,1.1c-6,2.09-10.23,7.4-12.27,14.71A40,40,0,0,0,8,25.63,65.55,65.55,0,0,0,12.13,49a80.12,80.12,0,0,0,11.8,21.8c8.39,10.93,18.84,18.18,28.41,19.06l.45,0A19.4,19.4,0,0,0,58,89.55l.39-.08h.05l.76-.19-.76.19C65.47,87.87,70.32,82.25,72.55,74.23Z"/>
            <path class="cls-44" d="M72.67,74.17h0A39.31,39.31,0,0,0,74,64.89a1.27,1.27,0,0,0,0-.2c0-.1,0-.19,0-.28A65.46,65.46,0,0,0,70,41,82.31,82.31,0,0,0,65.1,30a78.16,78.16,0,0,0-6.94-10.82,66.37,66.37,0,0,0-8.26-9h0C44.63,5.53,39,2.23,33.54.83a20.12,20.12,0,0,0-11.41.1l-.29.1a16.92,16.92,0,0,0-3.62,1.78A16.88,16.88,0,0,1,21.81,1c-6,2.09-10.24,7.4-12.27,14.71a39.11,39.11,0,0,0-1.39,9.82A65.52,65.52,0,0,0,12.24,48.9,80.52,80.52,0,0,0,24,70.7c8.39,10.93,18.85,18.18,28.41,19.06l.45,0a19.08,19.08,0,0,0,5.23-.31l.39-.08h0l.75-.19-.75.19C65.59,87.82,70.43,82.2,72.67,74.17Z"/>
            <path class="cls-28" d="M72.78,74.11h0a39.3,39.3,0,0,0,1.37-9.27,1.48,1.48,0,0,1,0-.21,2.62,2.62,0,0,1,0-.28A65.71,65.71,0,0,0,70.07,41a81,81,0,0,0-4.85-11,77.29,77.29,0,0,0-6.95-10.82,66.32,66.32,0,0,0-8.25-9h0c-5.26-4.72-10.89-8-16.35-9.42A20.07,20.07,0,0,0,22.24.88L22,1a17.39,17.39,0,0,0-3.62,1.78A17.36,17.36,0,0,1,21.92,1c-6,2.09-10.23,7.4-12.27,14.71a40,40,0,0,0-1.39,9.82,65.55,65.55,0,0,0,4.1,23.33,80,80,0,0,0,11.8,21.8C32.55,81.57,43,88.82,52.57,89.7l.45,0a19.41,19.41,0,0,0,5.22-.3l.39-.09h0l.76-.19-.76.19C65.7,87.76,70.55,82.14,72.78,74.11Z"/>
            <path class="cls-44" d="M72.78,74h0a39.49,39.49,0,0,0,1.36-9.24,1.48,1.48,0,0,1,0-.21v-.28a65.35,65.35,0,0,0-4.08-23.33,82.58,82.58,0,0,0-4.85-11,76.86,76.86,0,0,0-6.93-10.79,66,66,0,0,0-8.23-9h0c-5.25-4.7-10.86-8-16.32-9.4A20.07,20.07,0,0,0,22.37.94L22.08,1A16.58,16.58,0,0,0,18.47,2.8,16.77,16.77,0,0,1,22.05,1C16,3.12,11.85,8.42,9.82,15.71A39.34,39.34,0,0,0,8.44,25.5a65.52,65.52,0,0,0,4.09,23.28A80.29,80.29,0,0,0,24.3,70.53c8.37,10.91,18.8,18.14,28.33,19l.45,0a19.31,19.31,0,0,0,5.21-.3l.39-.08,0,0c.25,0,.5-.12.75-.19l-.75.2C65.73,87.62,70.56,82,72.78,74Z"/>
            <path class="cls-45" d="M72.78,73.9h0a39.86,39.86,0,0,0,1.35-9.22v-.21a2.44,2.44,0,0,0,0-.27,65.27,65.27,0,0,0-4.08-23.28A80.32,80.32,0,0,0,65.22,30a77.45,77.45,0,0,0-6.91-10.77,65.71,65.71,0,0,0-8.21-8.94h0C44.86,5.59,39.27,2.3,33.83.9A19.88,19.88,0,0,0,22.49,1l-.29.09a16.21,16.21,0,0,0-3.59,1.77A16.17,16.17,0,0,1,22.17,1.1C16.17,3.18,12,8.45,10,15.72A39.27,39.27,0,0,0,8.62,25.5,65.32,65.32,0,0,0,12.7,48.71,80.27,80.27,0,0,0,24.45,70.42c8.35,10.88,18.74,18.1,28.25,19l.45,0a19.21,19.21,0,0,0,5.19-.3l.39-.08h0l.76-.19-.76.19C65.75,87.48,70.56,81.89,72.78,73.9Z"/>
            <path class="cls-46" d="M72.77,73.8h0a39.23,39.23,0,0,0,1.35-9.2v-.21a2.44,2.44,0,0,0,0-.27A65.19,65.19,0,0,0,70.05,40.9,82.51,82.51,0,0,0,65.23,30a77.06,77.06,0,0,0-6.9-10.74,64.78,64.78,0,0,0-8.19-8.92h0c-5.22-4.69-10.8-8-16.22-9.36a19.87,19.87,0,0,0-11.31.09l-.29.09a16.78,16.78,0,0,0-3.58,1.76A16.58,16.58,0,0,1,22.3,1.16c-6,2.07-10.14,7.33-12.15,14.58a40,40,0,0,0-1.36,9.75,65.06,65.06,0,0,0,4.09,23.16A79.69,79.69,0,0,0,24.59,70.3c8.33,10.86,18.7,18.07,28.17,19l.45,0a19.14,19.14,0,0,0,5.18-.3l.38-.08h0l.75-.19-.75.19C65.78,87.34,70.57,81.76,72.77,73.8Z"/>
            <path class="cls-47" d="M72.77,73.7h0a39.14,39.14,0,0,0,1.34-9.18v-.21c0-.09,0-.18,0-.27A65.07,65.07,0,0,0,70,40.88,80.8,80.8,0,0,0,65.23,30a76.16,76.16,0,0,0-6.88-10.72,65.11,65.11,0,0,0-8.17-8.9h0C45,5.7,39.41,2.43,34,1a19.82,19.82,0,0,0-11.27.09l-.29.1A15.78,15.78,0,0,0,18.88,3a15.73,15.73,0,0,1,3.54-1.74c-6,2.05-10.1,7.3-12.1,14.53A39.33,39.33,0,0,0,9,25.48a65,65,0,0,0,4.08,23.11,79.76,79.76,0,0,0,11.69,21.6C33,81,43.38,88.2,52.83,89.1l.44,0a19.38,19.38,0,0,0,5.16-.29l.39-.08,0,0c.25,0,.5-.12.74-.18-.24.06-.49.13-.74.18C65.8,87.2,70.58,81.64,72.77,73.7Z"/>
            <path class="cls-48" d="M72.77,73.59h0a38.75,38.75,0,0,0,1.32-9.15,1.41,1.41,0,0,0,0-.2c0-.1,0-.19,0-.28A65,65,0,0,0,70,40.86,80.49,80.49,0,0,0,65.23,30a77.61,77.61,0,0,0-6.86-10.7,65.3,65.3,0,0,0-8.15-8.87h0C45,5.76,39.48,2.49,34.1,1.1a19.72,19.72,0,0,0-11.24.08l-.29.1A16.32,16.32,0,0,0,19,3a16.28,16.28,0,0,1,3.53-1.73c-5.94,2-10.06,7.28-12,14.49a39.1,39.1,0,0,0-1.34,9.7,64.83,64.83,0,0,0,4.07,23A79.79,79.79,0,0,0,24.88,70.07c8.29,10.82,18.6,18,28,18.88l.45,0a18.83,18.83,0,0,0,5.14-.29l.39-.08h0l.75-.19-.75.19C65.82,87.06,70.58,81.52,72.77,73.59Z"/>
            <path class="cls-49" d="M72.76,73.49h0a38.65,38.65,0,0,0,1.32-9.13,1.41,1.41,0,0,0,0-.2,2.72,2.72,0,0,1,0-.28,65.09,65.09,0,0,0-4.07-23A80.1,80.1,0,0,0,65.23,30a77.62,77.62,0,0,0-6.84-10.68,65.69,65.69,0,0,0-8.13-8.86h0c-5.17-4.66-10.7-7.92-16.08-9.32A19.67,19.67,0,0,0,23,1.24l-.28.1a16,16,0,0,0-3.55,1.74,16,16,0,0,1,3.52-1.73c-5.92,2-10,7.26-12,14.45a38.86,38.86,0,0,0-1.34,9.67,65,65,0,0,0,4.07,23A79.73,79.73,0,0,0,25,70C33.29,80.75,43.57,87.89,53,88.8l.44,0a18.75,18.75,0,0,0,5.13-.29l.38-.08H59l.74-.19-.74.19C65.85,86.92,70.59,81.39,72.76,73.49Z"/>
            <path class="cls-50" d="M72.76,73.39h0a38.49,38.49,0,0,0,1.31-9.11c0-.07,0-.13,0-.2a2.44,2.44,0,0,1,0-.27,64.8,64.8,0,0,0-4.07-23A81.6,81.6,0,0,0,65.24,30a77.23,77.23,0,0,0-6.83-10.65,66,66,0,0,0-8.1-8.84h0c-5.17-4.65-10.68-7.91-16-9.3a19.63,19.63,0,0,0-11.16.07l-.29.1a16.3,16.3,0,0,0-3.53,1.73,16,16,0,0,1,3.5-1.72c-5.9,2-10,7.23-12,14.41A38.62,38.62,0,0,0,9.5,25.46,64.54,64.54,0,0,0,13.57,48.4a79.49,79.49,0,0,0,11.6,21.45C33.41,80.61,43.66,87.74,53,88.65l.44,0a18.71,18.71,0,0,0,5.12-.28l.38-.09h0q.38-.07.75-.18-.37.11-.75.18C65.87,86.78,70.6,81.27,72.76,73.39Z"/>
            <path class="cls-51" d="M72.76,73.28h0a38.76,38.76,0,0,0,1.3-9.08,1.34,1.34,0,0,1,0-.2v-.27A64.69,64.69,0,0,0,70,40.8,80.59,80.59,0,0,0,65.24,30a76.91,76.91,0,0,0-6.81-10.63,65.08,65.08,0,0,0-8.08-8.82h0c-5.15-4.64-10.65-7.88-16-9.28a19.52,19.52,0,0,0-11.13.07l-.28.1a16.07,16.07,0,0,0-3.53,1.73,15.8,15.8,0,0,1,3.5-1.72C17,3.49,13,8.68,11,15.84a38.94,38.94,0,0,0-1.32,9.62,64.59,64.59,0,0,0,4.07,22.87,79.26,79.26,0,0,0,11.58,21.4C33.54,80.47,43.76,87.59,53.09,88.5l.44,0a18.49,18.49,0,0,0,5.09-.28l.38-.08h0l.74-.19-.74.19C65.9,86.64,70.6,81.14,72.76,73.28Z"/>
            <path class="cls-52" d="M72.75,73.18h0a38.51,38.51,0,0,0,1.3-9.06,1.41,1.41,0,0,1,0-.2v-.27A64.38,64.38,0,0,0,70,40.78,80.29,80.29,0,0,0,65.24,30a76.47,76.47,0,0,0-6.79-10.6,65.38,65.38,0,0,0-8.06-8.8h0C45.25,6,39.77,2.75,34.45,1.36a19.51,19.51,0,0,0-11.1.06l-.28.1a16.11,16.11,0,0,0-3.51,1.72A16.07,16.07,0,0,1,23,1.53c-5.86,2-9.92,7.19-11.88,14.33a39.24,39.24,0,0,0-1.31,9.59,64.57,64.57,0,0,0,4.06,22.82A79.59,79.59,0,0,0,25.46,69.62c8.2,10.71,18.39,17.82,27.69,18.73l.44,0a18.4,18.4,0,0,0,5.08-.28l.38-.08h.05l.73-.18L59.1,88C65.92,86.5,70.61,81,72.75,73.18Z"/>
            <path class="cls-53" d="M72.75,73.08h0A38.42,38.42,0,0,0,74,64v-.2a2.44,2.44,0,0,0,0-.27A64.29,64.29,0,0,0,70,40.76,79.86,79.86,0,0,0,65.24,30a76.75,76.75,0,0,0-6.77-10.58,65.07,65.07,0,0,0-8-8.78h0C45.31,6.05,39.84,2.82,34.54,1.43a19.38,19.38,0,0,0-11.06.05l-.29.1a15.81,15.81,0,0,0-3.5,1.72,15.62,15.62,0,0,1,3.48-1.71c-5.85,2-9.9,7.17-11.84,14.28A38.67,38.67,0,0,0,10,25.44a64.47,64.47,0,0,0,4.05,22.77,79.26,79.26,0,0,0,11.53,21.3C33.78,80.2,44,87.29,53.22,88.2l.43,0A18.33,18.33,0,0,0,58.72,88l.38-.08h0c.25-.05.49-.11.74-.18-.25.07-.49.13-.74.18C65.94,86.36,70.62,80.9,72.75,73.08Z"/>
            <path class="cls-54" d="M72.75,73h0A38.62,38.62,0,0,0,74,64v-.2c0-.09,0-.18,0-.27A64.21,64.21,0,0,0,70,40.74,79.51,79.51,0,0,0,65.25,30a77.3,77.3,0,0,0-6.76-10.55,64.17,64.17,0,0,0-8-8.76h0C45.36,6.11,39.92,2.88,34.63,1.49a19.36,19.36,0,0,0-11,.05l-.28.1a15.49,15.49,0,0,0-3.49,1.71,15.44,15.44,0,0,1,3.46-1.7c-5.82,2-9.86,7.14-11.79,14.24a38.92,38.92,0,0,0-1.3,9.55,64.36,64.36,0,0,0,4.06,22.7A79,79,0,0,0,25.75,69.39C33.91,80.06,44,87.15,53.29,88.05l.43,0a18.61,18.61,0,0,0,5.05-.27l.37-.08h0l.73-.19-.73.19C66,86.22,70.62,80.77,72.75,73Z"/>
          </g>
        </g>
      </g>
    </g>
  </g>
</svg>
