<svg xmlns="http://www.w3.org/2000/svg" xmlns:xlink="http://www.w3.org/1999/xlink" width="119.23" height="88.39" viewBox="0 0 119.23 88.39">
  <defs>
    <style>
      .cls-1 {
        isolation: isolate;
      }

      .cls-2 {
        fill: #d40d0d;
      }

      .cls-3 {
        fill: #f02121;
      }

      .cls-4 {
        fill: #f4f4f4;
      }

      .cls-5 {
        fill: #dcddde;
      }

      .cls-29, .cls-42, .cls-6 {
        mix-blend-mode: multiply;
      }

      .cls-7 {
        fill: #c4c4c4;
      }

      .cls-8 {
        opacity: 0.91;
      }

      .cls-9 {
        fill: #c9c9c9;
      }

      .cls-10 {
        opacity: 0.82;
      }

      .cls-11 {
        fill: #cfcfcf;
      }

      .cls-12 {
        opacity: 0.73;
      }

      .cls-13 {
        fill: #d4d4d4;
      }

      .cls-14 {
        opacity: 0.64;
      }

      .cls-15, .cls-36 {
        fill: #d9d9d9;
      }

      .cls-16 {
        opacity: 0.55;
      }

      .cls-17 {
        fill: #dfdfdf;
      }

      .cls-18 {
        opacity: 0.45;
      }

      .cls-19 {
        fill: #e4e4e4;
      }

      .cls-20 {
        opacity: 0.36;
      }

      .cls-21 {
        fill: #eaeaea;
      }

      .cls-22 {
        opacity: 0.27;
      }

      .cls-23 {
        fill: #efefef;
      }

      .cls-24 {
        opacity: 0.18;
      }

      .cls-25 {
        opacity: 0.09;
      }

      .cls-26 {
        fill: #fafafa;
      }

      .cls-27, .cls-30, .cls-54 {
        opacity: 0;
      }

      .cls-28, .cls-30 {
        fill: #fff;
      }

      .cls-29 {
        fill: url(#linear-gradient);
      }

      .cls-31 {
        fill: #f9f9f9;
      }

      .cls-31, .cls-53 {
        opacity: 0.09;
      }

      .cls-32 {
        fill: #f2f2f2;
      }

      .cls-32, .cls-52 {
        opacity: 0.18;
      }

      .cls-33 {
        fill: #ececec;
      }

      .cls-33, .cls-56 {
        opacity: 0.27;
      }

      .cls-34 {
        fill: #e6e6e6;
      }

      .cls-34, .cls-50 {
        opacity: 0.36;
      }

      .cls-35 {
        fill: #e0e0e0;
      }

      .cls-35, .cls-49 {
        opacity: 0.45;
      }

      .cls-36, .cls-48 {
        opacity: 0.55;
      }

      .cls-37 {
        fill: #d3d3d3;
      }

      .cls-37, .cls-47 {
        opacity: 0.64;
      }

      .cls-38 {
        fill: #cdcdcd;
      }

      .cls-38, .cls-57 {
        opacity: 0.73;
      }

      .cls-39 {
        fill: #c7c7c7;
      }

      .cls-39, .cls-45 {
        opacity: 0.82;
      }

      .cls-40 {
        fill: silver;
      }

      .cls-40, .cls-44 {
        opacity: 0.91;
      }

      .cls-41 {
        fill: #bababa;
      }

      .cls-42, .cls-43 {
        opacity: 0.5;
      }

      .cls-42 {
        fill: url(#linear-gradient-2);
      }

      .cls-43, .cls-55 {
        mix-blend-mode: screen;
      }

      .cls-44 {
        fill: #e8e8e8;
      }

      .cls-45 {
        fill: #d1d1d1;
      }

      .cls-46, .cls-57 {
        fill: #b9b9b9;
      }

      .cls-46 {
        opacity: 0.73;
      }

      .cls-47 {
        fill: #a2a2a2;
      }

      .cls-48 {
        fill: #8b8b8b;
      }

      .cls-49 {
        fill: #747474;
      }

      .cls-50 {
        fill: #5d5d5d;
      }

      .cls-51, .cls-56 {
        fill: #464646;
      }

      .cls-51 {
        opacity: 0.27;
      }

      .cls-52 {
        fill: #2e2e2e;
      }

      .cls-53 {
        fill: #171717;
      }

      .cls-55 {
        opacity: 0.2;
      }
    </style>
    <linearGradient id="linear-gradient" x1="-0.04" y1="38.82" x2="120.08" y2="38.82" gradientTransform="translate(9.78 4.31) rotate(18.76)" gradientUnits="userSpaceOnUse">
      <stop offset="0" stop-color="#d2d3d4"/>
      <stop offset="0.04" stop-color="#d9d9da"/>
      <stop offset="0.2" stop-color="#eeeeef"/>
      <stop offset="0.35" stop-color="#fbfbfb"/>
      <stop offset="0.5" stop-color="#fff"/>
      <stop offset="0.65" stop-color="#fbfbfb"/>
      <stop offset="0.8" stop-color="#f0f0f1"/>
      <stop offset="0.94" stop-color="#dddedf"/>
      <stop offset="1" stop-color="#d2d3d4"/>
    </linearGradient>
    <linearGradient id="linear-gradient-2" x1="13.53" y1="238.33" x2="13.53" y2="142.84" gradientTransform="translate(-22.09 -132.98) rotate(-21.9)" gradientUnits="userSpaceOnUse">
      <stop offset="0" stop-color="#dcddde"/>
      <stop offset="0.31" stop-color="#eeeeef"/>
      <stop offset="0.67" stop-color="#fbfbfb"/>
      <stop offset="1" stop-color="#fff"/>
    </linearGradient>
  </defs>
  <g class="cls-1">
    <g id="Слой_2" data-name="Слой 2">
      <g id="Слой_1-2" data-name="Слой 1">
        <g>
          <path class="cls-2" d="M7.9,40.06c-.1-.18-.2-.36-.29-.54a.41.41,0,0,1-.05-.09l-.27-.52,0-.1L7,38.28l0-.06-.24-.53,0,0-.25-.55,0-.07-.23-.54,0-.08c-.08-.18-.15-.36-.22-.54l0,0c-.07-.17-.13-.34-.2-.52l0-.06c-.07-.18-.13-.35-.19-.53s0-.07,0-.11-.12-.34-.17-.51l0-.08c-.06-.18-.12-.36-.17-.54h0c-.06-.18-.11-.36-.16-.54l0-.09c-.05-.17-.09-.34-.14-.51l0-.1-.12-.52,0-.08-.12-.5v-.05c0-.18-.07-.35-.1-.52l0-.1c0-.17-.07-.34-.1-.51s0-.06,0-.1l-.09-.52v0c0-.17,0-.34-.07-.51s0-.05,0-.08L4,28.2a.41.41,0,0,0,0-.11c0-.17,0-.34,0-.51a.2.2,0,0,0,0-.07l0-.52v0c0-.17,0-.34,0-.51v-.1c0-.16,0-.33,0-.49V25.2c0-.16,0-.32,0-.48v-.06l0-.49a.41.41,0,0,0,0-.11c0-.16,0-.32,0-.48a.28.28,0,0,0,0-.09l.06-.5v0c0-.16,0-.32.07-.48a.28.28,0,0,0,0-.09c0-.15,0-.31.08-.47a.36.36,0,0,0,0-.11l.09-.47a20.92,20.92,0,0,1,.79-2.78L1.23,29.35A22.05,22.05,0,0,0,.45,32.1h0v0c0,.16-.07.32-.1.48s0,.06,0,.09-.06.32-.08.49l0,.07-.06.48v0c0,.17,0,.33-.05.5s0,.06,0,.09,0,.33,0,.49V35a4.32,4.32,0,0,0,0,.5v0c0,.16,0,.32,0,.49a.17.17,0,0,1,0,.07v.59c0,.17,0,.34,0,.51v.08c0,.18,0,.35,0,.52v0c0,.17,0,.34,0,.51v.07c0,.17,0,.34,0,.51a.41.41,0,0,0,0,.11c0,.16,0,.33,0,.5v.08c0,.17,0,.34.07.5v0c0,.18,0,.35.08.53a.28.28,0,0,1,0,.09c0,.17.07.34.1.51a.29.29,0,0,0,0,.09c0,.18.07.35.1.53l0,0c0,.17.07.34.11.5l0,.08L.85,43l0,.11c.05.17.1.34.14.51l0,.09c.05.18.1.36.16.54v0c.06.17.11.35.17.52l0,.09c.06.18.11.35.17.52a.42.42,0,0,1,0,.1c.06.17.12.35.19.52l0,.08c.06.17.12.33.19.5a.25.25,0,0,0,0,.07l.21.52.05.1.21.51,0,.11c.08.18.16.35.23.52a.25.25,0,0,1,0,.07l.22.48,0,.1c.08.17.17.34.25.52l.06.1c.08.17.17.34.26.51a.6.6,0,0,0,.06.11q.12.26.27.51v0H4Z"/>
          <path class="cls-2" d="M55,73.64l-1.74-.54-.65-.21-.29-.1-.55-.18-.31-.1-.56-.19-.29-.1L50,72l-.24-.08-.83-.31-.13,0-.69-.26-.27-.1L47.26,71l-.25-.1-.63-.24-.21-.09-.82-.33-.13-.06-.68-.28-.25-.11-.6-.26-.24-.1L43,69.23,42.41,69l-.36-.16-.63-.29-.35-.17L40.39,68l-.29-.14-1-.47L38.32,67l-.25-.12-.55-.29-.3-.15-.53-.28L36.42,66l-.75-.41-.12-.06-.68-.37L34.59,65l-.5-.28-.28-.17-.5-.28L33,64.12l-.58-.34-.17-.1-.75-.45-.29-.18-.48-.3-.29-.18L30,62.28l-.32-.21-.41-.27-.34-.22-.41-.27-.32-.21-.4-.28-.32-.22-.4-.27-.31-.22-.29-.2c-2.11-1.51-4.1-3.07-5.94-4.66L16.67,66q2.61,2.25,5.58,4.4h0l.36.25.21.15.08.06.3.21.42.29.31.21.4.27.33.22.42.28.3.2.44.29a3.28,3.28,0,0,1,.31.2l.47.29.28.18.55.34.21.13.76.46h0l0,0,.69.41.25.15.53.3.26.15.54.3L31,76l.75.41,0,0,.78.42.28.14.52.28.31.16.22.11.34.17.23.12.81.41,1,.47.29.14.68.32.35.16.64.29.35.16.64.28.24.11.15.07.28.12.54.23.3.13.6.25.21.09.8.32.22.09.6.24.29.11L44,82l.29.11.62.23.21.08h0l.8.29.24.08.61.22.29.1.55.19.31.1.55.18.29.1.65.21.16,0h0l1.58.49Z"/>
          <path class="cls-2" d="M107,71.59l-.31.18-.4.23-.1,0-.32.18-.11,0-.37.19,0,0-.43.22-.08,0-.35.17-.13.06-.34.16-.09,0-.43.2-.11,0-.35.15-.12.06-.36.15-.1,0L102,74l-.13,0-.35.14-.13,0-.35.13-.13,0-.47.17h-.05l-.42.15-.16,0-.35.12-.13,0-.45.14h0l-.5.15-.16,0-.34.1-.17,0-.35.1-.15,0-.5.13h0l-.51.13-.16,0-.36.09-.17,0-.37.08-.15,0-.52.12h-.07l-.46.1-.16,0-.37.07-.17,0-.45.08h-.08l-.55.1H92l-.45.08-.18,0-.36.05-.2,0-.42.06-.12,0-.55.07-.12,0-.43.05-.2,0-.38,0-.18,0-1.13.11h-.15l-.41,0h-.2l-.4,0-.18,0-.56,0h-.1l-.48,0h-.78l-.49,0H78.19l-.52,0H77.5l-.44,0h-.2l-.46,0h-.16l-.62,0h-.07l-.53,0h-.21l-.42,0h-.21l-.49,0h-.13l-.62-.06h-.17l-.45,0-.22,0-.43-.05-.19,0-1.23-.15-.73-.1-.17,0-.71-.1c-2.26-.33-4.55-.76-6.85-1.27L57.91,86.2c2.3.51,4.59.94,6.86,1.27l.14,0h0l.56.08.18,0,.72.1h0l1.18.14.19,0,.44,0,.21,0,.46,0h.17l.61.06h.13l.49,0h.21l.42,0h.21l.53,0h.07l.62,0h.16l.46,0h.2l.45,0h.16l.53,0H79l.59,0h.09l.49,0h.19l.4,0H81l.47,0h.1l.56,0,.19,0,.4,0h.19l.41,0h.15L84.57,88l.18,0,.37,0,.2,0,.43,0,.12,0,.55-.07.12,0,.43-.06.19,0,.36,0,.18,0,.45-.08h.09l.55-.1h.08l.45-.08.17,0,.37-.07.17,0,.45-.1h.08l.51-.12.15,0,.37-.08.17,0,.37-.09.15,0,.51-.13h0l.5-.13.15,0,.35-.1.18,0,.34-.1.16,0L95,85.9h0l.45-.14.14,0,.34-.12.16,0,.42-.15h0l.47-.17.13,0,.24-.09.12,0,.12,0,.37-.14.1,0,.45-.19.07,0,.39-.17.11,0,.35-.16.11,0L100,84l.06,0,.37-.17.12-.06.34-.16a.31.31,0,0,1,.1,0l.42-.22,0,0,.37-.2.1,0,.35-.19.07,0,.42-.23h0l.29-.17Z"/>
          <path class="cls-3" d="M115.21,37.53l-9.54-.85a2.78,2.78,0,0,1-1.94-1.07A50.4,50.4,0,0,0,92.31,23.48c-.62-.48-.8-1.08-.41-1.44l4.57-4.44a72.91,72.91,0,0,1,11.5,10A81.8,81.8,0,0,0,84,10.2a101.35,101.35,0,0,0-13.9-5.62l-3,5.21a1.42,1.42,0,0,1-1.46.42,84.47,84.47,0,0,0-9.85-2.09,69.63,69.63,0,0,0-9.27-.74,2.34,2.34,0,0,1-.38,0,2.76,2.76,0,0,1-1.69-.89L39.27.06C30.45.41,22.55,2.35,16.43,5.84L23,11.91c.55.51.59,1.09.13,1.41a18.61,18.61,0,0,0-7.35,9.39c-.14.44-.75.66-1.49.55l-9.89-2a20.85,20.85,0,0,1,1.75-5C2.52,23.35,3.37,31.75,7.9,40.06l9.52.86a2.84,2.84,0,0,1,2,1.06A49.48,49.48,0,0,0,30.8,54.12c.61.47.79,1.08.41,1.45L26.64,60a72.65,72.65,0,0,1-11.45-9.93A81.59,81.59,0,0,0,39.13,67.41a100.55,100.55,0,0,0,29.51,9.27c17,2.5,32.68-.09,42-7.62a29,29,0,0,1-4,2.69l-6.53-6.06c-.55-.51-.6-1.08-.13-1.41a18.74,18.74,0,0,0,7.33-9.38c.15-.44.75-.67,1.5-.56l9.9,2a20.73,20.73,0,0,1-2.94,7.1C120.73,55.9,120.18,46.66,115.21,37.53ZM13.15,32,11,33.24a.67.67,0,0,1-.38,0,1,1,0,0,1-.42-.17l-2.81-2c-.26-.17-.3-.42-.1-.53l2.18-1.29a.53.53,0,0,1,.38-.05.91.91,0,0,1,.42.17l2.82,2c.25.18.29.42.1.53Zm66-20.35,3.3-.11h.14a.94.94,0,0,1,.61.36l1.33,2.4c.12.21,0,.39-.32.4l-3.29.1h-.16a.8.8,0,0,1-.58-.36L78.83,12c-.12-.22,0-.4.32-.4Zm-50.43-8,.16,0,3.53,1.1c.31.1.54.34.49.53l-.49,2.12c0,.16-.23.24-.48.2l-.17,0-3.52-1.1c-.32-.1-.53-.33-.5-.53l.5-2.12c0-.16.24-.23.48-.2ZM44,66l-3.3.11h-.13a.93.93,0,0,1-.62-.36l-1.34-2.4c-.11-.2,0-.38.31-.4l3.3-.1a.56.56,0,0,1,.13,0,.91.91,0,0,1,.62.36l1.35,2.4c.1.21,0,.39-.32.4ZM68.64,76.67A97.54,97.54,0,0,1,53,73l3-5.21a1.4,1.4,0,0,1,1.44-.42,1.72,1.72,0,0,1,.38.08,80.08,80.08,0,0,0,9.45,2,70.23,70.23,0,0,0,9.32.74l.35,0a2.76,2.76,0,0,1,1.7.89l5.19,6.4a81.82,81.82,0,0,1-15.2-.86ZM94.37,74l-.16,0-3.52-1.11c-.32-.1-.53-.32-.48-.52l.47-2.12c0-.16.26-.24.53-.2l.14,0,3.51,1.11c.33.1.54.34.49.52l-.48,2.13c0,.15-.25.23-.5.2Zm7.06-19.58q-.21.45-.45.9a15.91,15.91,0,0,1-1.46,2.21c-.26.33-.53.65-.82,1l-.26.27-.14.15a22.41,22.41,0,0,1-7.43,4.87,34.85,34.85,0,0,1-7.17,2,50.75,50.75,0,0,1-11.25.62c-1.89-.1-3.82-.29-5.77-.58q-.57-.07-1.14-.18l-.27,0-.75-.13-.74-.14L63,65.24c-.29,0-.51-.1-.72-.15L61.65,65l-.52-.12-.37-.08a72.62,72.62,0,0,1-9.65-3c-.76-.29-1.52-.61-2.27-.93l-.27-.12-.33-.14-.61-.28c-.72-.33-1.42-.65-2.1-1L45,59l-.27-.14-.29-.15L43.19,58c-.73-.39-1.32-.73-1.91-1.07l-1-.61a60.89,60.89,0,0,1-7.69-5.53h0c-1-.86-2-1.74-2.85-2.63s-1.87-2-2.7-3l-.1-.11-.06-.07L26.77,45l-.06-.06c-.43-.54-.85-1.08-1.25-1.62a30.12,30.12,0,0,1-3.66-6.55l-.15-.38c0-.09-.06-.18-.1-.27l-.17-.5a2.41,2.41,0,0,1-.08-.25,1.72,1.72,0,0,1-.07-.21,1.72,1.72,0,0,0-.07-.21l-.06-.21a3.57,3.57,0,0,0-.1-.35,2.25,2.25,0,0,1-.05-.22,1.46,1.46,0,0,1-.05-.2l-.06-.22c0-.11-.05-.23-.08-.34s0-.15,0-.22a1.62,1.62,0,0,1,0-.19c0-.08,0-.15-.05-.22l-.06-.36c0-.26-.06-.36-.07-.45,0-.27-.05-.42-.07-.56s0-.37-.05-.55a.13.13,0,0,0,0-.06h0a15.35,15.35,0,0,1,.91-6.61c.12-.32.25-.65.4-1a13.72,13.72,0,0,1,1.91-3.11,18,18,0,0,1,2.65-2.74,24.06,24.06,0,0,1,6-3.52h0c.84-.34,1.7-.65,2.6-.93l.05,0h0l.35-.1h0l.15-.05.07,0,.29-.08h0l.19-.06.1,0,.28-.08.14,0h0l.38-.1.11,0c.83-.2,1.69-.38,2.57-.53q1-.18,2-.3a52.1,52.1,0,0,1,9.66-.25h.11l.65,0h.11c1,.07,1.9.17,2.86.29h0l.48.06,1,.13,2.17.36.64.12.27.05.34.07.45.09c.74.16,1.36.29,2,.44,1.5.35,3,.76,4.51,1.23l.08,0,.74.24.21.07.66.21.29.1.62.21.31.12.6.21.34.13.57.21.37.14.56.22.37.15.55.22.38.16.54.23.37.16.06,0,.5.21.36.17h0l.19.09.35.16.22.1.14.06.2.1.34.16.1.05h0l.7.34h0a62.55,62.55,0,0,1,13,8.42h0l.09.08.36.31,0,0a45.51,45.51,0,0,1,4.89,4.95,31.8,31.8,0,0,1,5.38,8.73h0v0h0c0,.15.1.27.15.4v0s0,.08,0,.11l0,0c0,.12.07.19.09.27h0a.49.49,0,0,0,0,.11l0,.06c0,.14.08.24.11.33a1.21,1.21,0,0,0,.05.18c0,.08,0,.17.08.26a1.09,1.09,0,0,1,0,.17c0,.13.07.25.11.37a1.46,1.46,0,0,0,0,.2l.06.22a1.46,1.46,0,0,0,0,.2c0,.12,0,.24.08.36a1.29,1.29,0,0,0,0,.19c0,.08,0,.16,0,.24l0,.18c0,.13,0,.25.07.37s0,.11,0,.15h0c0,.14,0,.21,0,.28l0,.13a.22.22,0,0,0,0,.08c0,.15,0,.25,0,.35v0a.76.76,0,0,1,0,.15c0,.13,0,.26,0,.4s0,.15,0,.23,0,.23,0,.34a1.28,1.28,0,0,1,0,.19c0,.14,0,.28,0,.42v.09a15.19,15.19,0,0,1-1.35,6.35ZM115.86,47l-2.19,1.27a.59.59,0,0,1-.38.06,1,1,0,0,1-.42-.17l-2.81-2c-.25-.18-.3-.42-.1-.54l2.19-1.28a.55.55,0,0,1,.37,0,1.12,1.12,0,0,1,.43.16l2.81,2c.25.18.3.42.1.54ZM20.34,30.17h0ZM75,17.14l.28.13ZM20.37,30.73v0h0ZM74.42,16.88h0Zm1.82.82.15.07-.15-.07-.11-.05Zm.56.27.07,0-.08,0Z"/>
          <g>
            <path class="cls-4" d="M51.57,13.56l-.91-2.42c1.91.1,3.87.3,5.85.59.72.1,1.44.22,2.16.35h.06l.58.11.27.05.34.07.45.09.13,0c.61.12,1.23.26,1.84.41l0,2.28c-1.2-.28-2.4-.53-3.59-.74h0l-.55-.09-.12,0-.48-.08-.33,0-.27,0C55.13,13.83,53.33,13.66,51.57,13.56Z"/>
            <path class="cls-4" d="M81,22.8l-.09-.06-.46-.27-.12-.07-.46-.27,0,0c-1.18-.68-2.4-1.33-3.66-2-1.69-.83-3.41-1.58-5.14-2.26l1-2q2.82,1.11,5.58,2.47c1.84.92,3.6,1.88,5.25,2.88Z"/>
            <path class="cls-4" d="M96.84,60.26l-3.1-1.85.06,0a18,18,0,0,0,2.41-2.46A15.19,15.19,0,0,0,98,53l3.49,1.39c-.15.3-.3.6-.46.9a16.86,16.86,0,0,1-1.46,2.21c-.26.33-.53.65-.82,1a.46.46,0,0,1-.07.07l-.19.2-.14.15-.11.11A15.8,15.8,0,0,1,96.84,60.26Z"/>
            <path class="cls-4" d="M21.8,36.73l-.15-.38c0-.09-.06-.18-.1-.27a1,1,0,0,1-.05-.16l-.12-.34a2.41,2.41,0,0,1-.08-.25,1.72,1.72,0,0,1-.07-.21,1.72,1.72,0,0,0-.07-.21l-.06-.21a3.57,3.57,0,0,0-.1-.35,2.25,2.25,0,0,1-.05-.22l-.05-.2-.06-.22c0-.11-.05-.23-.08-.34s0-.15,0-.22a1.62,1.62,0,0,1,0-.19c0-.08,0-.15-.05-.22l-.06-.36,0-.16a2.54,2.54,0,0,0,0-.29.59.59,0,0,0,0-.13c0-.14,0-.29-.05-.45A15.58,15.58,0,0,1,20.34,29l3.6.83a16.21,16.21,0,0,0,.16,2.77l0,.17,0,.18.06.36a.29.29,0,0,1,0,.09,20.39,20.39,0,0,0,1.05,3.55Z"/>
            <path class="cls-4" d="M81.48,66.17l-1.79-2.39h.11l.35-.05.19,0,.49-.08h0a32.45,32.45,0,0,0,7.46-2l2.55,2.2a35.13,35.13,0,0,1-7.18,2Q82.6,66,81.48,66.17Z"/>
            <path class="cls-4" d="M94.5,34.75A40.12,40.12,0,0,0,88,27.8l2.58-1,.09.08a44,44,0,0,1,7,7.47Z"/>
            <path class="cls-4" d="M34.77,16,32.23,13.8c.84-.34,1.7-.65,2.6-.93l.05,0,.39-.11.15-.05.36-.1.19-.06.38-.1.14,0,.43-.1.1,0a38.45,38.45,0,0,1,4.61-.83l1.78,2.39h0l-.49.06H42.8l-.5.08h-.07l-.51.08h-.06l-.55.09-.47.09h0l-.51.1A32.31,32.31,0,0,0,36,15.55l-.15,0-.16.06Z"/>
            <path class="cls-4" d="M102.77,48.61l-3.6-.83a15.52,15.52,0,0,0-.06-1.92v-.07c0-.14,0-.27,0-.4a1,1,0,0,0,0-.17A1.1,1.1,0,0,0,99,45c0-.08,0-.16,0-.24s0-.08,0-.12,0-.27-.07-.4a.43.43,0,0,1,0-.05,20.59,20.59,0,0,0-1.05-3.57l3.49.22v0c.05.14.11.27.16.41s0,.1,0,.14.08.21.11.32l0,.12c0,.13.08.26.13.39a1.21,1.21,0,0,0,.05.18,2.58,2.58,0,0,1,.08.26,1.09,1.09,0,0,1,0,.17c0,.13.07.25.11.37a1.46,1.46,0,0,0,0,.2l.06.22a1.46,1.46,0,0,0,0,.2c0,.12,0,.24.08.36a1.29,1.29,0,0,0,0,.19,2,2,0,0,0,0,.24l0,.18c0,.13,0,.25.07.37s0,.11,0,.16,0,.19,0,.29a.59.59,0,0,0,0,.13c0,.14,0,.28.05.43v0A15.49,15.49,0,0,1,102.77,48.61Z"/>
            <path class="cls-4" d="M32.56,50.83A46.32,46.32,0,0,1,27,45.25l-.15-.18-.15-.17c-.43-.54-.85-1.08-1.24-1.62l3.14-.42,0,0,.24.33.15.2.12.16a40.78,40.78,0,0,0,6,6.21Z"/>
            <path class="cls-4" d="M71.24,64H71l-.23,0-.4,0h-.27l-.45,0-.28,0h-.08l-.2,0-.52,0-2.4-.3-.25,0-.72-.12-.38-.06-1-.18h-.08L63.33,63l-.39-.08h0l-.12,0h0c-.67-.14-1.33-.29-2-.45h0l0,2.29.37.08.32.07.2,0,.57.12.09,0,.65.14H63l.65.13.1,0,.6.11.14,0,.51.09.24,0,.27,0q.57.1,1.14.18c1.95.29,3.88.48,5.77.58L71.54,64Z"/>
            <path class="cls-4" d="M51.11,61.72c-.76-.3-1.52-.62-2.27-.94l-.27-.12-.33-.14-.64-.29c-.69-.32-1.38-.64-2.07-1L45,59l-.27-.14-.29-.15L43.19,58,43.07,58c-.61-.32-1.2-.66-1.79-1l0,0-1-.59,1.83-1.55c1.53.92,3.14,1.81,4.84,2.64s3.4,1.6,5.14,2.27Z"/>
            <path class="cls-4" d="M25.15,24.57l-3.48-1.4a14.31,14.31,0,0,1,1.92-3.1,16.79,16.79,0,0,1,2.67-2.73l3.11,1.85-.1.08-.12.11-.19.16-.18.16-.12.11a15.79,15.79,0,0,0-1.76,1.9A14.93,14.93,0,0,0,25.15,24.57Z"/>
          </g>
          <path class="cls-5" d="M118,59.05c0,.12-.09.25-.14.38l0,.08-.15.37v0l-.15.36,0,.09-.15.33v0l-.17.35a.93.93,0,0,0-.05.1l-.15.3,0,.06-.18.34-.06.11-.16.29,0,.06-.2.34a.41.41,0,0,1,0,.09l-.17.28-.06.09c-.06.1-.12.2-.19.3a1.17,1.17,0,0,0,0,.11l0-.06-.28.41-.21.31-.05.07-.17.23a1,1,0,0,0-.08.11,1.33,1.33,0,0,0-.14.19l-.1.12-.13.17a1.47,1.47,0,0,0-.1.13l-.14.17-.1.12-.16.19-.08.1c-.07.08-.15.16-.22.25l0,0-.3.32-.08.09-.22.23-.1.11-.21.21a1.14,1.14,0,0,1-.11.11,1.89,1.89,0,0,1-.2.2l-.13.12-.2.2-.12.12-.21.19-.13.11-.22.2-.13.11-.34.3-.24.19-.2.16-.44.35-.14.11-.31.23-.17.13-.29.2-.19.14-.28.19-.2.14-.29.19-.2.13-.29.18-.22.13-.29.18-.21.13-.45.26L102.8,82.54l.35-.2.1-.06.22-.13.29-.17.21-.14.29-.18.21-.14.28-.18.2-.14.27-.18.21-.15.26-.19.2-.14.3-.23.15-.11.44-.35.17-.14h0l.24-.2.35-.3.12-.11.22-.19.13-.13.21-.18.13-.13.19-.18.14-.14.18-.18.13-.12.19-.2.12-.13c.07-.06.13-.13.2-.2l.1-.11.24-.27,0-.05.25-.3a.46.46,0,0,0,.07-.07l.18-.21.09-.12.14-.17.1-.13c.05-.06.09-.12.14-.17l.09-.12.14-.19.08-.11.17-.23,0-.07.21-.31.28-.41.42-1.15c-.13.38-.26.74-.39,1.1l.2-.3,0,0,0-.06a2.61,2.61,0,0,0,.17-.28l.06-.09.2-.34,0-.06.16-.29.06-.11.18-.34,0-.06.15-.3,0-.1c.06-.11.11-.23.17-.35l0,0c.05-.11.1-.22.14-.33l0-.09c0-.11.1-.22.14-.33l0,0v0c0-.11.09-.22.13-.33a.42.42,0,0,0,0-.1c0-.13.1-.25.14-.37L118,59.05Z"/>
          <g>
            <path class="cls-3" d="M41.63,11.43l1.78,2.39h0a48,48,0,0,1,8.2-.27l-.9-2.39A52.69,52.69,0,0,0,41.63,11.43Z"/>
            <path class="cls-3" d="M62.34,12.85l0,2.28L61.81,15A63.59,63.59,0,0,1,71,17.88l.95-2A72.69,72.69,0,0,0,62.34,12.85Z"/>
            <path class="cls-3" d="M82.81,21.25,81,22.8l-.09-.06a54.51,54.51,0,0,1,7,5.06l2.58-1A58.85,58.85,0,0,0,82.81,21.25Z"/>
            <path class="cls-3" d="M97.62,34.32l-3.12.43a27.47,27.47,0,0,1,3.32,5.91l3.49.22A29.71,29.71,0,0,0,97.62,34.32Z"/>
            <path class="cls-3" d="M93.8,58.36l-.06,0,3.11,1.85q.53-.43,1-.9a22.65,22.65,0,0,1-7,4.44l-2.54-2.2A21.21,21.21,0,0,0,93.8,58.36Z"/>
            <path class="cls-3" d="M79.8,63.77a47.64,47.64,0,0,1-8.26.27l.91,2.42a52.35,52.35,0,0,0,9-.3l-1.78-2.38Z"/>
            <path class="cls-3" d="M23.94,29.82,20.34,29a15.58,15.58,0,0,0,.09,2.36,15.35,15.35,0,0,1,1.25-8.17l3.47,1.39A14.07,14.07,0,0,0,24,32,16.62,16.62,0,0,1,23.94,29.82Z"/>
            <path class="cls-3" d="M42.16,54.81A54.4,54.4,0,0,1,35,49.68l.14.13-2.57,1a59.94,59.94,0,0,0,7.69,5.54l1.83-1.55.07,0Z"/>
            <path class="cls-3" d="M60.79,62.46a64.55,64.55,0,0,1-8.7-2.79l0,0h0l-1,2a72.62,72.62,0,0,0,9.65,3Z"/>
            <path class="cls-3" d="M29.27,19.27l.1-.08-3.11-1.85a23.31,23.31,0,0,1,6-3.53L34.77,16A21.16,21.16,0,0,0,29.27,19.27Z"/>
            <path class="cls-3" d="M98,53a13.94,13.94,0,0,0,1.16-7.18,15.52,15.52,0,0,1,.06,1.92l3.6.83a16.89,16.89,0,0,0,0-1.74,15.37,15.37,0,0,1-1.31,7.56Z"/>
            <path class="cls-3" d="M25.47,43.28a29.77,29.77,0,0,1-3.67-6.55l3.49.21a27.23,27.23,0,0,0,3.36,6l0,0Z"/>
          </g>
          <path class="cls-4" d="M46.13,7.35a2.76,2.76,0,0,1-1.69-.89L39.27.06A81.76,81.76,0,0,1,54.46.92,97.09,97.09,0,0,1,70.08,4.58l-3,5.21a1.42,1.42,0,0,1-1.46.42l-.35-.07a77.9,77.9,0,0,0-9.5-2,69.63,69.63,0,0,0-9.27-.74A2.34,2.34,0,0,1,46.13,7.35Z"/>
          <path class="cls-4" d="M106.68,71.75l-6.53-6.06c-.55-.51-.6-1.08-.13-1.41a18.74,18.74,0,0,0,7.33-9.38c.15-.44.75-.67,1.5-.56l.16,0,9.74,2a20.73,20.73,0,0,1-2.94,7.1l0,0-.28.41a24.18,24.18,0,0,1-4.41,4.82l-.44.35A29,29,0,0,1,106.68,71.75Z"/>
          <path class="cls-4" d="M94.37,74l-.16,0-3.52-1.11c-.32-.1-.53-.32-.48-.52l.47-2.12c0-.16.26-.24.53-.2l.14,0,3.51,1.11c.33.1.54.34.49.52l-.48,2.13C94.83,74,94.62,74,94.37,74Z"/>
          <path class="cls-4" d="M26.64,60a72.65,72.65,0,0,1-11.45-9.93,48.94,48.94,0,0,1-7.29-10l9.52.86.15,0a2.73,2.73,0,0,1,1.81,1A49.48,49.48,0,0,0,30.8,54.12c.61.47.79,1.08.41,1.45Z"/>
          <path class="cls-4" d="M68.64,76.67A97.54,97.54,0,0,1,53,73l3-5.21a1.4,1.4,0,0,1,1.44-.42,1.72,1.72,0,0,1,.38.08,80.08,80.08,0,0,0,9.45,2,70.23,70.23,0,0,0,9.32.74l.35,0a2.76,2.76,0,0,1,1.7.89l5.19,6.4A81.82,81.82,0,0,1,68.64,76.67Z"/>
          <path class="cls-4" d="M80.76,14.75a.8.8,0,0,1-.58-.36L78.83,12c-.12-.22,0-.4.32-.4l3.3-.11h.14a.94.94,0,0,1,.61.36l1.33,2.4c.12.21,0,.39-.32.4l-3.29.1Z"/>
          <path class="cls-4" d="M31.93,7.58l-.17,0-3.52-1.1c-.32-.1-.53-.33-.5-.53l.5-2.12c0-.16.24-.23.48-.2l.16,0,3.53,1.1c.31.1.54.34.49.53l-.49,2.12C32.38,7.54,32.18,7.62,31.93,7.58Z"/>
          <path class="cls-4" d="M105.52,36.66a2.68,2.68,0,0,1-1.79-1A50.4,50.4,0,0,0,92.31,23.48c-.62-.48-.8-1.08-.41-1.44l4.57-4.44a72.91,72.91,0,0,1,11.5,10l.23.25c.06.07.12.13.17.2a48.86,48.86,0,0,1,6.84,9.49l-9.54-.85Z"/>
          <path class="cls-4" d="M113.29,48.37a1,1,0,0,1-.42-.17l-2.81-2c-.25-.18-.3-.42-.1-.54l2.19-1.28a.55.55,0,0,1,.37,0,1.12,1.12,0,0,1,.43.16l2.81,2c.25.18.3.42.1.54l-2.19,1.27A.59.59,0,0,1,113.29,48.37Z"/>
          <path class="cls-4" d="M14.25,23.26l-.15,0-9.74-2A20.71,20.71,0,0,1,6.13,16.2l.18-.35a25.12,25.12,0,0,1,10.12-10L23,11.91c.55.51.59,1.09.13,1.41a18.61,18.61,0,0,0-7.35,9.39C15.6,23.15,15,23.37,14.25,23.26Z"/>
          <path class="cls-4" d="M10.58,33.29a1,1,0,0,1-.42-.17l-2.81-2c-.26-.17-.3-.42-.1-.53l2.18-1.29a.53.53,0,0,1,.38-.05.82.82,0,0,1,.42.17l2.82,2c.25.18.29.42.1.53L11,33.24A.67.67,0,0,1,10.58,33.29Z"/>
          <path class="cls-4" d="M40.53,66.1a.93.93,0,0,1-.62-.36l-1.34-2.4c-.11-.2,0-.38.31-.4l3.3-.11h.13a.91.91,0,0,1,.62.36l1.35,2.4c.1.21,0,.39-.32.4l-3.3.11Z"/>
          <path class="cls-5" d="M67.51,87.82l.37,0,.55.06.38,0,.55.05.39,0,.55,0,.36,0,.72.05h.19l.91.06.27,0,.62,0h.39l.51,0,.4,0H79.1c.29,0,.58,0,.86,0l3.88-10.79q-.44,0-.87,0H78.53l-.37,0-.57,0h-.33l-.64,0h-.26l-.91-.06h-.19l-.73,0-.32,0-.59,0-.36,0-.57-.06-.38,0-.55-.06-.38,0L70.83,77l-.39,0-.61-.08-.29,0-.9-.13-.92-.14-.26,0-.65-.11-.35-.06-.58-.1-.36-.06L65,76.05,64.59,76,64,75.87l-.37-.07-.56-.12-.37-.07-.63-.14-.29-.06-.92-.21-.19,0L60,75l-.32-.08-.6-.15-.35-.09-.59-.15-.34-.09-.6-.17-.34-.09L56.19,74l-.29-.08L55,73.63h0l-.35-.11L53,73,49.14,83.81c.71.23,1.42.45,2.14.66l.73.22.34.09L53,85l.35.1.57.15.38.1.54.14.4.1.57.15.33.08.67.16L57,86l.86.2h0l.28.06.64.14.36.07.57.12.37.07.56.11.38.08.54.09L62,87l.56.09.35.06.65.11.26,0,.92.14.9.13.29,0,.43.05.18,0,.38,0Z"/>
          <path class="cls-5" d="M17.36,66.61l1.27,1,.54.43c1.16.92,2.35,1.82,3.59,2.69L26.64,60l-1.72-1.24-1.09-.84-.47-.36-.94-.75c-.4-.33-.8-.65-1.18-1l-.24-.2-.49-.42L20.25,55l-.45-.4-.05,0C19.17,54,18.6,53.48,18,53s-1-1-1.54-1.52l-.06,0-.18-.19c-.36-.37-.72-.75-1.07-1.13a48.94,48.94,0,0,1-7.29-10L4,50.85a48.94,48.94,0,0,0,7.29,10c.48.53,1,1,1.49,1.55.35.36.7.71,1.07,1.06.65.63,1.32,1.25,2,1.86l.05,0,.46.4.25.23h0l.5.42Z"/>
          <g class="cls-6">
            <path class="cls-7" d="M66.63,65.88a71.42,71.42,0,0,1-21.11-6.64c-21-10.34-30.8-27.88-22-39.18,5.95-7.57,18.79-10.41,32.93-8.33a71.09,71.09,0,0,1,21.08,6.62c21,10.36,30.81,27.9,21.94,39.19C93.59,65.11,80.76,68,66.63,65.88Z"/>
            <g class="cls-8">
              <path class="cls-9" d="M66.61,65.75a70.92,70.92,0,0,1-21-6.6c-20.88-10.29-30.66-27.76-21.86-39,5.93-7.54,18.71-10.37,32.78-8.3a71.07,71.07,0,0,1,21,6.59c20.88,10.31,30.66,27.78,21.84,39C93.44,65,80.67,67.82,66.61,65.75Z"/>
            </g>
            <g class="cls-10">
              <path class="cls-11" d="M66.58,65.63a71,71,0,0,1-20.91-6.57C24.89,48.81,15.15,31.43,23.92,20.24,29.81,12.73,42.54,9.92,56.55,12a70.49,70.49,0,0,1,20.89,6.56C98.22,28.8,108,46.18,99.17,57.37,93.29,64.87,80.59,67.69,66.58,65.63Z"/>
            </g>
            <g class="cls-12">
              <path class="cls-13" d="M66.56,65.51A70.64,70.64,0,0,1,45.74,59c-20.68-10.2-30.37-27.5-21.65-38.64C30,12.85,42.63,10.05,56.57,12.1a70.32,70.32,0,0,1,20.79,6.53C98.05,28.85,107.74,46.15,99,57.28,93.15,64.75,80.5,67.55,66.56,65.51Z"/>
            </g>
            <g class="cls-14">
              <path class="cls-15" d="M66.54,65.38a70.15,70.15,0,0,1-20.72-6.51C25.23,48.72,15.58,31.49,24.27,20.41,30.11,13,42.71,10.19,56.59,12.22a70.29,70.29,0,0,1,20.7,6.5C97.88,28.89,107.53,46.11,98.82,57.2,93,64.63,80.41,67.42,66.54,65.38Z"/>
            </g>
            <g class="cls-16">
              <path class="cls-17" d="M66.51,65.26a69.89,69.89,0,0,1-20.62-6.49C25.4,48.67,15.8,31.53,24.44,20.49c5.81-7.4,18.36-10.17,32.18-8.14a69.81,69.81,0,0,1,20.6,6.47c20.49,10.12,30.09,27.26,21.43,38.29C92.85,64.51,80.32,67.28,66.51,65.26Z"/>
            </g>
            <g class="cls-18">
              <path class="cls-19" d="M66.49,65.13A69.39,69.39,0,0,1,46,58.68c-20.4-10.06-30-27.12-21.36-38.1,5.79-7.37,18.28-10.13,32-8.11a69.63,69.63,0,0,1,20.5,6.44C97.54,29,107.1,46.05,98.47,57,92.71,64.39,80.23,67.15,66.49,65.13Z"/>
            </g>
            <g class="cls-20">
              <path class="cls-21" d="M66.47,65A69.37,69.37,0,0,1,46,58.59c-20.3-10-29.81-27-21.25-37.92C30.55,13.34,43,10.59,56.66,12.6A69.2,69.2,0,0,1,77.07,19c20.3,10,29.81,27,21.23,37.94C92.56,64.27,80.14,67,66.47,65Z"/>
            </g>
            <g class="cls-22">
              <path class="cls-23" d="M66.44,64.88a68.88,68.88,0,0,1-20.33-6.39C25.91,48.53,16.44,31.63,25,20.75c5.74-7.29,18.11-10,31.73-8A68.94,68.94,0,0,1,77,19.1c20.2,10,29.67,26.88,21.13,37.75C92.41,64.15,80.06,66.88,66.44,64.88Z"/>
            </g>
            <g class="cls-24">
              <path class="cls-4" d="M66.42,64.76A68.71,68.71,0,0,1,46.19,58.4c-20.11-9.92-29.53-26.74-21-37.56,5.7-7.26,18-10,31.57-8a68.77,68.77,0,0,1,20.21,6.35C97,29.12,106.45,45.94,98,56.77,92.26,64,80,66.75,66.42,64.76Z"/>
            </g>
            <g class="cls-25">
              <path class="cls-26" d="M66.4,64.64a68.6,68.6,0,0,1-20.14-6.33c-20-9.87-29.39-26.61-20.95-37.39C31,13.7,43.24,11,56.73,13a68.16,68.16,0,0,1,20.12,6.32c20,9.88,29.39,26.62,20.93,37.39C92.12,63.91,79.88,66.62,66.4,64.64Z"/>
            </g>
            <g class="cls-27">
              <path class="cls-28" d="M66.37,64.51a68,68,0,0,1-20-6.3C26.42,48.39,17.09,31.73,25.49,21c5.65-7.19,17.84-9.89,31.27-7.92a68.26,68.26,0,0,1,20,6.29C96.69,29.22,106,45.87,97.6,56.59,92,63.78,79.79,66.48,66.37,64.51Z"/>
            </g>
          </g>
          <path class="cls-29" d="M117.86,59.43l0,.08-.15.37v0l-.15.36,0,.09c0,.11-.09.22-.15.33v0l-.17.35a.93.93,0,0,0-.05.1l-.15.3,0,.06-.18.34-.06.1c-.05.1-.1.2-.16.3a.21.21,0,0,1,0,.06l-.2.34,0,.1-.17.27-.06.09c-.06.1-.12.2-.19.3a1.17,1.17,0,0,0,0,.11l0-.06-.28.41-.21.31-.05.07-.17.23a1,1,0,0,0-.08.11,1.33,1.33,0,0,0-.14.19l-.1.12-.13.17a1.47,1.47,0,0,0-.1.13,2.09,2.09,0,0,0-.14.17l-.1.12-.16.19-.08.1c-.07.08-.15.16-.22.25l0,0c-.1.11-.2.21-.29.32l-.09.09-.22.23-.1.11-.21.21a1.14,1.14,0,0,1-.11.11,1.89,1.89,0,0,1-.2.2l-.13.12-.2.2-.12.12-.21.19-.13.11-.22.2-.13.11-.34.3-.24.19-.2.16-.44.35-.14.11-.31.23-.17.13-.29.2-.19.14-.28.19-.2.14-.29.19-.2.13-.29.18-.22.13-.29.18-.21.13-.45.26h0l-.4.23-.1,0-.32.18-.11,0-.37.2,0,0-.43.22-.08,0-.35.17-.13.06-.34.16-.09,0-.43.2-.11,0-.35.16-.12,0-.36.15-.1,0L102,74l-.13,0-.35.14-.13,0-.35.13-.13,0-.47.17h-.05l-.42.15-.16,0-.35.12-.13,0-.45.14h0l-.5.15-.16,0-.34.1-.17,0-.35.1-.15,0-.5.13-.51.13-.15,0-.37.09-.17,0-.37.08-.15,0-.52.12h-.07l-.46.1-.16,0-.37.07-.17,0-.45.08h-.08l-.55.1H92l-.45.08-.18,0-.36.05-.2,0-.42.06-.12,0-.55.07-.12,0-.43.05-.2,0-.38,0-.18,0-1.13.11h-.15l-.41,0h-.2l-.4,0-.18,0-.56,0h-.1l-.47,0h-.21l-.39,0h-.4q-.44,0-.87,0H78.53l-.37,0-.57,0h-.33l-.64,0h-.26l-.91-.06h-.19l-.73,0-.32,0-.59,0-.36,0-.57-.06-.38,0-.55-.06-.38,0L70.83,77l-.39,0-.61-.08-.29,0-.9-.13-.92-.14-.26,0-.65-.11-.35-.06-.58-.1-.36-.06L65,76.05,64.59,76l-.56-.1-.37-.08-.56-.12-.37-.07-.63-.14-.29-.06-.92-.21-.19,0L60,75l-.32-.08-.6-.15-.35-.09-.59-.15-.34-.09-.6-.17-.34-.09L56.19,74l-.29-.08L55,73.63h0l-.35-.11L53,73h0l-.42-.14-.29-.1-.55-.18-.31-.1-.56-.19-.29-.1L50,72l-.24-.08-.83-.31-.13,0-.69-.26-.27-.1L47.26,71l-.25-.1-.63-.24-.21-.09-.82-.33-.13-.06-.68-.28-.25-.11-.6-.26-.24-.1L43,69.23,42.41,69l-.36-.16-.63-.29-.35-.16L40.39,68l-.29-.14-1-.47L38.32,67l-.25-.12-.55-.29-.3-.15-.53-.28L36.42,66l-.75-.41-.12-.06-.68-.37L34.59,65l-.5-.28-.28-.17-.5-.28L33,64.12l-.58-.34-.17-.1-.75-.45-.29-.18-.48-.3-.29-.18L30,62.28l-.32-.21-.41-.27-.34-.22-.41-.27-.32-.21-.4-.28-.32-.22-.4-.27-.31-.22-.15-.1v0l-1.72-1.24-1.09-.84-.47-.36-.94-.75c-.4-.33-.8-.65-1.18-1l-.24-.2-.49-.42L20.25,55l-.45-.4-.05,0C19.17,54,18.6,53.48,18,53s-1-1-1.54-1.52l-.06,0-.18-.19c-.36-.37-.72-.75-1.07-1.13a48.94,48.94,0,0,1-7.29-10c-.1-.18-.2-.36-.29-.54l-.05-.09-.27-.52,0-.1L7,38.28l0-.06-.24-.53,0,0c-.09-.18-.17-.37-.25-.55l0-.07-.23-.54,0-.08c-.08-.18-.15-.36-.22-.54l0,0c-.07-.17-.13-.34-.2-.52l0-.06c-.07-.18-.13-.35-.19-.53l0-.1c-.06-.18-.12-.35-.17-.52l0-.08c-.06-.18-.12-.36-.17-.55h0c-.06-.18-.11-.36-.16-.54l0-.09c-.05-.17-.09-.34-.14-.51l0-.1-.12-.52,0-.08-.12-.5v-.05c0-.18-.07-.35-.1-.52a.36.36,0,0,1,0-.1c0-.17-.07-.34-.1-.51s0-.06,0-.1l-.09-.52v0c0-.17,0-.34-.07-.51V28.7L4,28.2a.41.41,0,0,0,0-.11c0-.17,0-.34,0-.51a.2.2,0,0,0,0-.07l0-.52v0c0-.17,0-.34,0-.51v-.1c0-.16,0-.33,0-.49v-.6s0-.05,0-.07,0-.32,0-.48v-.06l0-.49v-.11c0-.16,0-.32,0-.48v-.09l.06-.5v0c0-.16,0-.32.07-.48a.28.28,0,0,0,0-.09c0-.15,0-.31.08-.47a.36.36,0,0,0,0-.11l.09-.47a20.92,20.92,0,0,1,.79-2.78L1.23,29.35A22.05,22.05,0,0,0,.45,32.1h0v0c0,.16-.07.32-.1.48s0,.06,0,.09-.06.32-.08.49l0,.07-.06.48v0c0,.17,0,.33-.05.5a.28.28,0,0,0,0,.09c0,.17,0,.33,0,.49V35l0,.5a.43.43,0,0,1,0,0c0,.16,0,.33,0,.49v.07c0,.17,0,.34,0,.5v.09c0,.17,0,.34,0,.51v.08c0,.18,0,.35,0,.52v0c0,.17,0,.34,0,.51v.07c0,.17,0,.34,0,.51a.41.41,0,0,0,0,.11c0,.16,0,.33,0,.5a.22.22,0,0,1,0,.08c0,.17,0,.34.07.5v0c0,.18,0,.35.08.53l0,.09c0,.17.06.34.09.51a.29.29,0,0,0,0,.09c0,.18.07.35.1.53,0,0,0,0,0,0,0,.17.07.34.11.5l0,.08L.85,43a.61.61,0,0,1,0,.11c.05.17.1.34.14.51l0,.09c.05.18.1.36.16.54v0c.06.17.11.35.17.52l0,.09c.06.18.11.35.18.52l0,.1c.06.17.12.35.19.52l0,.09c.06.16.12.32.19.48s0,0,0,.08l.21.52.05.1.21.51,0,.11.24.52,0,.07.22.48,0,.1c.08.17.17.34.25.52l.06.1c.08.17.17.34.26.51a.39.39,0,0,0,.06.11q.12.26.27.51v0a49.27,49.27,0,0,0,7.29,10c.48.52,1,1,1.49,1.54.35.36.7.71,1.07,1.06.65.63,1.32,1.25,2,1.86l.05,0,.46.4.25.23h0l0,0v0q2.61,2.25,5.58,4.4h0l.36.25.21.15.08.06.3.21.41.29.32.21.4.27.33.22.42.28.3.2.44.29a3.28,3.28,0,0,1,.31.2l.47.29.28.18.55.34.21.13.76.46h0l0,0,.69.41.25.15.53.3.26.15.54.3L31,76l.75.41,0,0,.78.42.28.14.52.28.31.16.22.11.34.17.23.12.81.41,1,.47.29.14.68.32.35.16.64.29.35.16.64.28.23.11.16.07.28.12.54.23.3.13.6.25.21.09.8.32.22.09.6.24.29.11L44,82l.29.11.62.23.21.08h0l.8.29.24.08.61.22.29.1.55.19.31.1.55.18.29.1.65.21.16,0,1.58.49h0l.16,0,.73.22.34.09L53,85l.35.1.57.15.38.1.54.14.4.1.57.15.33.08.67.16L57,86l.86.2h0c2.3.51,4.59.94,6.86,1.27l.14,0,.56.08.18,0,.72.1h0l1.18.14.19,0,.44,0,.21,0,.46,0h.17c.2,0,.41,0,.61.06h.13l.49,0h.21l.42,0h.21l.53,0h.07l.62,0h.16l.46,0h.2l.45,0h.16l.53,0H79l.59,0h.09l.49,0h.19l.4,0H81l.47,0h.1l.56,0,.18,0,.4,0h.2l.41,0h.15L84.57,88l.18,0,.37,0,.2,0,.43,0,.12,0,.55-.07.12,0,.43-.06.19,0,.36,0,.18,0,.45-.08h.09l.55-.1h.08l.45-.08.18,0,.36-.07.17,0,.45-.1h.08l.51-.12.15,0,.37-.08.17,0,.37-.09.15,0,.51-.13.5-.13.15,0,.36-.1.17,0,.34-.1.16,0L95,85.9h0l.45-.14.14,0,.34-.12.16,0,.42-.15h0l.48-.17.12,0,.24-.09.12,0,.12,0,.37-.14.1,0,.45-.19.07,0,.39-.17.11,0,.35-.16.11,0L100,84l.06,0,.37-.17.12-.06.34-.16a.31.31,0,0,1,.1,0l.42-.22,0,0,.37-.2.1,0,.35-.19.07,0,.42-.23h0l.29-.17h0l0,0,.11-.06.22-.13.29-.17.21-.14.29-.18.21-.14.28-.18.2-.14.27-.18.21-.15.26-.19.2-.14.3-.23.15-.11.44-.35.17-.14h0l.24-.2.35-.3.12-.11.22-.19.13-.13.21-.18.13-.13.19-.18.14-.14.18-.18.13-.12.19-.2.12-.13c.07-.06.13-.13.2-.2l.1-.11.24-.27,0-.05.25-.3.07-.07.18-.21.09-.12.14-.17a1.47,1.47,0,0,1,.1-.13c.05-.06.09-.12.14-.17l.09-.12.14-.19.08-.11.17-.23,0-.07.21-.31.28-.41.42-1.15c-.13.38-.26.74-.39,1.1l.2-.3s0,0,0,0l0-.06a2.61,2.61,0,0,0,.17-.28l.06-.09.2-.34,0-.06.16-.29.06-.11.18-.34,0-.06.15-.3,0-.1c.06-.11.11-.23.17-.35a.05.05,0,0,1,0,0c.05-.11.1-.22.14-.33a.36.36,0,0,0,0-.09c0-.11.1-.22.14-.33l0,0v0c0-.11.09-.22.13-.33l0-.1c0-.13.09-.25.13-.37L118,59.05h0C118,59.17,117.91,59.3,117.86,59.43Z"/>
          <g class="cls-6">
            <g>
              <g class="cls-27">
                <path class="cls-30" d="M100.56,44.53c0,.14,0,.27.1.54a1.87,1.87,0,0,0,0,.25,1.11,1.11,0,0,0,0,.19,1.11,1.11,0,0,1,0,.17c0,.14,0,.28.06.5a14.63,14.63,0,0,1-1.21,7.5,15.53,15.53,0,0,1-1.82,3,18,18,0,0,1-2.52,2.57,21.87,21.87,0,0,1-5.71,3.38,34,34,0,0,1-7.84,2.12l-.72.1-.35,0a49,49,0,0,1-8.64.28l-1.48-.09L70,65,69.45,65l-.54-.06c-.83-.08-1.67-.19-2.51-.31s-1.64-.26-2.54-.43l-.45-.08L62.85,64c-.7-.14-1.4-.3-2.1-.46a69.11,69.11,0,0,1-14.48-5.24c-8.09-4-14.43-9.09-18.57-14.48l-.12-.16-.16-.21-.25-.34a28.67,28.67,0,0,1-3.51-6.24,22.06,22.06,0,0,1-1.12-3.8l-.06-.38a1.06,1.06,0,0,1,0-.19,1.1,1.1,0,0,0,0-.18,14.73,14.73,0,0,1,1.1-8.38,15.6,15.6,0,0,1,1.82-3,18.06,18.06,0,0,1,1.84-2l.12-.11.19-.16.19-.18.13-.1A22.12,22.12,0,0,1,33.57,15l1.22-.48a34.2,34.2,0,0,1,4.36-1.23l.55-.11.49-.1.63-.11.61-.09.61-.09.51-.07a50.26,50.26,0,0,1,8.57-.27c1.84.09,3.72.28,5.62.56L57,13l.34.05.62.1.62.11a67.55,67.55,0,0,1,12.86,3.65c1.81.71,3.6,1.49,5.37,2.36,1.32.66,2.59,1.34,3.87,2.08l.62.35.47.29a56.4,56.4,0,0,1,7.36,5.28A42.61,42.61,0,0,1,96,34.56a28.22,28.22,0,0,1,3.45,6.19A20.68,20.68,0,0,1,100.56,44.53Z"/>
              </g>
              <path class="cls-31" d="M100.41,44.51c0,.14,0,.27.09.54a1.87,1.87,0,0,1,0,.25l0,.19s0,.11,0,.17,0,.28,0,.49a14.31,14.31,0,0,1-1.2,7.47,15.41,15.41,0,0,1-1.81,3,17.33,17.33,0,0,1-2.51,2.56,21.73,21.73,0,0,1-5.69,3.37,33.79,33.79,0,0,1-7.81,2.11l-.71.1-.36.05a49.57,49.57,0,0,1-8.6.28L70.47,65l-.47,0-.58,0-.54-.06c-.83-.08-1.66-.19-2.5-.31s-1.63-.26-2.53-.43L63.41,64l-.57-.12c-.69-.14-1.39-.29-2.08-.46a68.43,68.43,0,0,1-14.43-5.22c-8-4-14.38-9.05-18.49-14.42a1.83,1.83,0,0,1-.13-.16l-.16-.21-.25-.34a28,28,0,0,1-3.49-6.22,20.74,20.74,0,0,1-1.11-3.78c0-.13-.05-.25-.07-.38l0-.18,0-.19A14.57,14.57,0,0,1,23.67,24a15.72,15.72,0,0,1,1.81-3,20,20,0,0,1,1.83-2l.13-.11.18-.16.2-.18.13-.1a21.45,21.45,0,0,1,5.73-3.4c.3-.13.6-.25,1.22-.48a33.89,33.89,0,0,1,4.34-1.23l.54-.11.5-.1.63-.11.6-.09.61-.09.5-.06a48.88,48.88,0,0,1,8.54-.28c1.84.1,3.71.28,5.6.56l.29,0,.34,0,.62.1.61.11A67.53,67.53,0,0,1,71.43,17c1.8.71,3.59,1.49,5.35,2.36,1.31.65,2.58,1.33,3.86,2.06l.61.36.48.29a56.36,56.36,0,0,1,7.33,5.26,42.2,42.2,0,0,1,6.79,7.23,28,28,0,0,1,3.45,6.16A21.36,21.36,0,0,1,100.41,44.51Z"/>
              <path class="cls-32" d="M100.26,44.49c0,.13,0,.27.09.53,0,.09,0,.17,0,.25a1.23,1.23,0,0,1,0,.19l0,.17c0,.14,0,.28,0,.49a14.4,14.4,0,0,1-1.2,7.44,15.29,15.29,0,0,1-1.8,3A18.23,18.23,0,0,1,95,59.08a21.56,21.56,0,0,1-5.67,3.35,33.53,33.53,0,0,1-7.78,2.11l-.71.1-.35,0A49.31,49.31,0,0,1,71.9,65c-.44,0-.89,0-1.46-.1l-.47,0-.58,0-.54,0c-.83-.09-1.66-.19-2.49-.32s-1.62-.25-2.52-.42l-.44-.08-.56-.12c-.69-.14-1.39-.29-2.08-.45a68.63,68.63,0,0,1-14.37-5.2c-8-4-14.32-9-18.42-14.37l-.13-.16-.16-.21-.25-.34A28.1,28.1,0,0,1,24,36.87a20.87,20.87,0,0,1-1.11-3.77c0-.12-.05-.25-.07-.37l0-.19,0-.18A14.54,14.54,0,0,1,23.82,24a15.29,15.29,0,0,1,1.8-3,17.78,17.78,0,0,1,1.83-2l.12-.11.18-.17.2-.17.13-.1a21.74,21.74,0,0,1,5.71-3.39L35,14.7a32.19,32.19,0,0,1,4.33-1.23l.54-.11.49-.09.63-.11.6-.1.6-.09.51-.06a48.45,48.45,0,0,1,8.5-.27c1.83.09,3.7.27,5.58.55l.28,0,.34,0,.62.1.61.11a67,67,0,0,1,12.76,3.62c1.8.7,3.57,1.48,5.33,2.34,1.31.65,2.57,1.33,3.84,2.06l.61.36.48.28A55.9,55.9,0,0,1,89,27.39a42.32,42.32,0,0,1,6.77,7.21,27.93,27.93,0,0,1,3.43,6.13A21.26,21.26,0,0,1,100.26,44.49Z"/>
              <path class="cls-33" d="M100.1,44.46c0,.14.05.27.1.54l0,.24,0,.19a1.11,1.11,0,0,1,0,.17c0,.14,0,.28.06.49a14.29,14.29,0,0,1-1.2,7.41,14.92,14.92,0,0,1-1.8,3A18,18,0,0,1,94.86,59a21.57,21.57,0,0,1-5.65,3.34,33.82,33.82,0,0,1-7.74,2.1l-.71.1-.36,0a47.89,47.89,0,0,1-8.54.28l-1.46-.09-.46,0-.58,0-.54-.05c-.82-.09-1.65-.19-2.48-.32s-1.62-.25-2.51-.42l-.44-.08-.56-.11-2.07-.46a68.27,68.27,0,0,1-14.31-5.18c-8-3.94-14.26-9-18.35-14.31L28,43.59l-.16-.21-.25-.33a28.15,28.15,0,0,1-3.46-6.17A20.54,20.54,0,0,1,23,33.12c0-.12,0-.25-.07-.37l0-.18a1.1,1.1,0,0,0,0-.18A14.43,14.43,0,0,1,24,24.1a15.67,15.67,0,0,1,1.79-3,18.6,18.6,0,0,1,1.82-1.95l.12-.11.19-.17.19-.17.13-.1a22,22,0,0,1,5.69-3.38c.29-.12.59-.24,1.21-.47a31.48,31.48,0,0,1,4.31-1.22l.53-.11.49-.09.63-.11.6-.1.6-.08.5-.07a49.12,49.12,0,0,1,8.47-.27c1.83.09,3.68.28,5.56.55l.28,0,.34.06.62.1.6.1a67,67,0,0,1,12.71,3.6q2.69,1.05,5.31,2.34c1.3.65,2.56,1.32,3.83,2l.6.36.48.28a55.45,55.45,0,0,1,7.27,5.22,41.91,41.91,0,0,1,6.74,7.17A27.82,27.82,0,0,1,99,40.73,20.12,20.12,0,0,1,100.1,44.46Z"/>
              <path class="cls-34" d="M100,44.44c0,.14,0,.27.09.53,0,.09,0,.17,0,.25l0,.19c0,.05,0,.11,0,.17s0,.27.05.48A14.17,14.17,0,0,1,99,53.44a14.8,14.8,0,0,1-1.79,3,16.93,16.93,0,0,1-2.48,2.53,21.47,21.47,0,0,1-5.62,3.33,33.56,33.56,0,0,1-7.71,2.09l-.71.1-.35,0a48.5,48.5,0,0,1-8.51.28l-1.45-.09-.47,0-.57,0-.54-.06c-.82-.08-1.64-.19-2.47-.31s-1.61-.25-2.5-.42l-.44-.08-.55-.11c-.69-.14-1.38-.3-2.06-.46A68.1,68.1,0,0,1,46.51,58c-8-3.93-14.21-9-18.28-14.26l-.12-.16L28,43.36,27.7,43a28.28,28.28,0,0,1-3.44-6.14,21.4,21.4,0,0,1-1.11-3.74l-.06-.38,0-.18,0-.18a14.3,14.3,0,0,1,1.09-8.25,14.62,14.62,0,0,1,1.79-2.95,17.5,17.5,0,0,1,1.81-1.95l.12-.11L28,19l.2-.17.12-.1A21.42,21.42,0,0,1,34,15.36c.29-.13.59-.25,1.2-.47a31.75,31.75,0,0,1,4.3-1.22l.53-.11.49-.09.62-.11.6-.1.6-.08.5-.07a48.7,48.7,0,0,1,8.44-.27c1.81.1,3.66.28,5.53.55l.28,0,.34.06.61.1.6.1a66.49,66.49,0,0,1,12.66,3.59c1.79.7,3.55,1.47,5.29,2.33,1.3.64,2.55,1.31,3.81,2L81,22c.15.1.31.19.47.28a55.94,55.94,0,0,1,7.24,5.2,42.07,42.07,0,0,1,6.72,7.15,28.17,28.17,0,0,1,3.4,6.09A20,20,0,0,1,100,44.44Z"/>
              <path class="cls-35" d="M99.8,44.42c0,.13,0,.27.09.53,0,.08,0,.16,0,.24a1.37,1.37,0,0,1,0,.19l0,.17c0,.14,0,.27,0,.48a14.2,14.2,0,0,1-1.19,7.36,15.2,15.2,0,0,1-1.78,2.93,17.8,17.8,0,0,1-2.47,2.52A21,21,0,0,1,89,62.15a32.81,32.81,0,0,1-7.68,2.08l-.71.1-.35,0a49,49,0,0,1-8.47.28c-.44,0-.88,0-1.45-.1l-.46,0-.58-.06-.53,0c-.81-.08-1.63-.19-2.46-.31s-1.6-.25-2.49-.42l-.43-.08-.56-.11c-.68-.14-1.37-.29-2-.46a67,67,0,0,1-14.2-5.13C38.64,54,32.42,49,28.37,43.72l-.13-.17-.15-.2L27.84,43a27.47,27.47,0,0,1-3.43-6.12,20.11,20.11,0,0,1-1.1-3.72c0-.12,0-.25-.07-.37l0-.18,0-.18a14.37,14.37,0,0,1,1.09-8.22,15,15,0,0,1,1.78-2.94,19.33,19.33,0,0,1,1.8-1.94l.12-.11.18-.16.2-.17.13-.1a21.48,21.48,0,0,1,5.64-3.35l1.2-.47a32.81,32.81,0,0,1,4.27-1.21l.53-.11.49-.09.62-.11.59-.09.6-.09.5-.06A48.39,48.39,0,0,1,51.33,13q2.7.13,5.51.54l.28,0,.33.05.61.1.61.1a67.1,67.1,0,0,1,12.61,3.57q2.66,1,5.26,2.32c1.29.65,2.54,1.31,3.8,2l.6.35.47.28a54.55,54.55,0,0,1,7.21,5.18,41.7,41.7,0,0,1,6.69,7.12,27.93,27.93,0,0,1,3.39,6.06A20.72,20.72,0,0,1,99.8,44.42Z"/>
              <path class="cls-36" d="M99.65,44.4c0,.13,0,.26.09.52l0,.25,0,.18a1.11,1.11,0,0,1,0,.17c0,.14,0,.28.05.48a14.08,14.08,0,0,1-1.18,7.33,14.78,14.78,0,0,1-1.77,2.92,17.66,17.66,0,0,1-2.46,2.51,21.32,21.32,0,0,1-5.58,3.3,33,33,0,0,1-7.65,2.07l-.7.1-.35,0a47.76,47.76,0,0,1-8.44.27l-1.44-.09-.46,0-.58,0-.53-.05c-.81-.09-1.63-.19-2.45-.31s-1.59-.25-2.48-.42l-.43-.08-.55-.11c-.68-.14-1.37-.29-2-.45a66.47,66.47,0,0,1-14.14-5.12C38.73,53.94,32.54,49,28.5,43.7l-.13-.17-.15-.2c-.08-.11-.17-.22-.25-.34a27.58,27.58,0,0,1-3.41-6.09,20.24,20.24,0,0,1-1.1-3.71c0-.12-.05-.24-.07-.37l0-.18a1.1,1.1,0,0,0,0-.18,14.15,14.15,0,0,1,1.08-8.18,14.5,14.5,0,0,1,1.77-2.92A15.68,15.68,0,0,1,28,19.42l.12-.11.18-.16.19-.17.13-.1a21.33,21.33,0,0,1,5.62-3.34c.29-.12.58-.24,1.19-.46a31.57,31.57,0,0,1,4.26-1.21l.53-.11.49-.09.61-.11.59-.09.6-.09.5-.06a47.89,47.89,0,0,1,8.37-.27q2.7.13,5.49.54l.27.05.34,0,.61.1.6.1a66.59,66.59,0,0,1,12.56,3.56q2.64,1,5.24,2.31c1.29.64,2.53,1.3,3.78,2l.6.35.47.28a54.07,54.07,0,0,1,7.18,5.15,41.79,41.79,0,0,1,6.67,7.09,27.93,27.93,0,0,1,3.37,6A20.61,20.61,0,0,1,99.65,44.4Z"/>
              <path class="cls-37" d="M99.49,44.37c0,.14.05.27.09.53a2,2,0,0,1,0,.24l0,.19a.88.88,0,0,0,0,.16c0,.14,0,.28,0,.48a14,14,0,0,1-1.18,7.3,15.14,15.14,0,0,1-1.76,2.91,17,17,0,0,1-2.45,2.5A21.17,21.17,0,0,1,88.77,62,33.29,33.29,0,0,1,81.15,64l-.7.1-.35.05a48.24,48.24,0,0,1-8.4.27l-1.44-.09-.46,0-.57,0-.52,0c-.81-.09-1.63-.19-2.45-.31s-1.59-.25-2.47-.41l-.43-.09-.55-.11-2-.45a66.42,66.42,0,0,1-14.08-5.09c-7.87-3.88-14-8.85-18.06-14.08l-.12-.17-.16-.2L28.11,43a27.69,27.69,0,0,1-3.41-6.07,20.67,20.67,0,0,1-1.09-3.7l-.06-.36,0-.18,0-.18a14.25,14.25,0,0,1,1.07-8.16,15.33,15.33,0,0,1,1.77-2.9,16.31,16.31,0,0,1,1.79-1.93l.12-.11.18-.16.19-.17.13-.1a21.32,21.32,0,0,1,5.6-3.32c.29-.13.58-.24,1.19-.47A32.35,32.35,0,0,1,39.77,14l.53-.11.48-.09.61-.11.59-.09.6-.09.49-.06a47.61,47.61,0,0,1,8.34-.27c1.79.09,3.62.27,5.47.55l.27,0,.33,0,.61.1.6.1A65.14,65.14,0,0,1,71.2,17.54c1.76.69,3.5,1.45,5.22,2.3,1.28.63,2.52,1.3,3.77,2l.59.35.47.28a55.38,55.38,0,0,1,7.16,5.14A41.37,41.37,0,0,1,95,34.68a27.52,27.52,0,0,1,3.36,6A19.51,19.51,0,0,1,99.49,44.37Z"/>
              <path class="cls-38" d="M99.34,44.35c0,.13,0,.27.09.53,0,.08,0,.16,0,.24a1.1,1.1,0,0,1,0,.18,1,1,0,0,1,0,.17c0,.13,0,.27.06.48a14,14,0,0,1-1.17,7.26,14.64,14.64,0,0,1-1.77,2.9,16.38,16.38,0,0,1-2.44,2.49,20.94,20.94,0,0,1-5.53,3.27,32.53,32.53,0,0,1-7.59,2.06l-.7.1-.34,0a47.9,47.9,0,0,1-8.37.28c-.44,0-.87,0-1.43-.1l-.46,0-.57,0-.52-.06q-1.22-.12-2.43-.3c-.8-.12-1.59-.25-2.46-.41l-.44-.09-.54-.11c-.68-.14-1.35-.29-2-.45a66.29,66.29,0,0,1-14-5.07c-7.83-3.86-14-8.82-18-14l-.12-.16-.15-.21L28.24,43a28,28,0,0,1-3.39-6,19.88,19.88,0,0,1-1.08-3.68c0-.13-.05-.25-.07-.37l0-.18,0-.18a14.2,14.2,0,0,1,1.07-8.12,15,15,0,0,1,1.76-2.89,16.22,16.22,0,0,1,1.79-1.92l.12-.11.17-.16.2-.17.12-.11a21.59,21.59,0,0,1,5.58-3.3c.29-.12.58-.24,1.18-.46a32.19,32.19,0,0,1,4.23-1.2l.52-.11.48-.09.62-.11.58-.09.59-.08.5-.07a48.13,48.13,0,0,1,8.3-.26c1.78.09,3.6.27,5.45.54l.27,0,.33.05.61.1.59.1a65.32,65.32,0,0,1,12.46,3.53c1.75.69,3.49,1.45,5.2,2.29,1.28.64,2.51,1.3,3.75,2l.6.35.46.28a54.89,54.89,0,0,1,7.13,5.11,41.53,41.53,0,0,1,6.61,7,27.7,27.7,0,0,1,3.35,6A20.14,20.14,0,0,1,99.34,44.35Z"/>
              <path class="cls-39" d="M99.19,44.33c0,.13,0,.26.09.52l0,.24,0,.19s0,.11,0,.16,0,.27,0,.48a13.92,13.92,0,0,1-1.16,7.23A14.71,14.71,0,0,1,96.49,56a16.73,16.73,0,0,1-2.43,2.48,20.63,20.63,0,0,1-5.51,3.26,32.77,32.77,0,0,1-7.56,2l-.69.1L80,64a47.47,47.47,0,0,1-8.33.27l-1.43-.09-.45,0-.57,0-.52,0c-.8-.08-1.61-.18-2.42-.3s-1.58-.25-2.45-.41l-.43-.09-.55-.11c-.67-.13-1.34-.28-2-.44a66.17,66.17,0,0,1-14-5.06c-7.8-3.84-13.91-8.78-17.91-14a1,1,0,0,0-.13-.16l-.15-.21-.24-.33a27,27,0,0,1-3.38-6,20.48,20.48,0,0,1-1.08-3.66c0-.12-.05-.24-.07-.37l0-.18a1.11,1.11,0,0,0,0-.17,14.1,14.1,0,0,1,1.06-8.09,14.93,14.93,0,0,1,1.76-2.88,16.85,16.85,0,0,1,1.77-1.92l.12-.1.18-.16.19-.17.13-.11a21.49,21.49,0,0,1,5.55-3.29c.28-.12.58-.23,1.18-.46a32.18,32.18,0,0,1,4.2-1.19l.53-.11L41,14l.61-.1.58-.1.59-.08.49-.07a47.78,47.78,0,0,1,8.27-.26c1.78.09,3.59.27,5.42.54l.28,0,.33.05.6.1.59.1a65.55,65.55,0,0,1,12.41,3.52c1.75.68,3.47,1.44,5.18,2.28,1.27.63,2.5,1.29,3.74,2l.59.35.46.27a54.47,54.47,0,0,1,7.1,5.1,40.72,40.72,0,0,1,6.58,7,27.53,27.53,0,0,1,3.34,6A20,20,0,0,1,99.19,44.33Z"/>
              <path class="cls-40" d="M99,44.31c0,.13,0,.26.09.52a2,2,0,0,1,0,.24l0,.18a.88.88,0,0,0,0,.16c0,.14,0,.27.05.48a13.9,13.9,0,0,1-1.16,7.2A14.88,14.88,0,0,1,96.35,56a16.6,16.6,0,0,1-2.42,2.47,20.91,20.91,0,0,1-5.49,3.25,33,33,0,0,1-7.53,2l-.69.09-.34,0a47.12,47.12,0,0,1-8.3.27l-1.42-.09-.46,0L69.14,64l-.52-.05c-.8-.08-1.6-.19-2.41-.3s-1.57-.25-2.44-.41l-.43-.09L62.8,63l-2-.45a66.13,66.13,0,0,1-13.91-5A51.07,51.07,0,0,1,29,43.62l-.12-.16-.16-.21-.24-.32a27.4,27.4,0,0,1-3.36-6,20.37,20.37,0,0,1-1.08-3.65L24,32.92l0-.18,0-.18a14,14,0,0,1,1.06-8,14.52,14.52,0,0,1,1.75-2.87,15.18,15.18,0,0,1,1.77-1.91l.11-.11.18-.15L29,19.3l.13-.11a20.78,20.78,0,0,1,5.53-3.27c.28-.12.57-.24,1.17-.46A32,32,0,0,1,40,14.27l.52-.11.48-.09.61-.1.58-.1.59-.08.48-.06a47.44,47.44,0,0,1,8.24-.27c1.77.09,3.58.27,5.4.54l.27,0,.33.05.6.1.59.1a65,65,0,0,1,12.36,3.5q2.61,1,5.16,2.28c1.27.63,2.49,1.28,3.72,2l.59.34.46.28a54,54,0,0,1,7.07,5.07,41.24,41.24,0,0,1,6.56,7A27.23,27.23,0,0,1,98,40.67,19.91,19.91,0,0,1,99,44.31Z"/>
              <path class="cls-41" d="M98.88,44.28c0,.13.05.27.09.52,0,.08,0,.16,0,.24a1.1,1.1,0,0,1,0,.18,1,1,0,0,1,0,.17c0,.13,0,.26.06.47A13.94,13.94,0,0,1,98,53a15.19,15.19,0,0,1-1.74,2.86,18,18,0,0,1-2.41,2.46,20.91,20.91,0,0,1-5.47,3.23,31.76,31.76,0,0,1-7.5,2l-.68.1-.35.05a47.64,47.64,0,0,1-8.26.27L70.12,64l-.45,0-.56,0-.52,0c-.79-.09-1.6-.19-2.4-.31s-1.57-.24-2.43-.4L63.33,63l-.54-.11c-.67-.14-1.33-.29-2-.45a65.45,65.45,0,0,1-13.86-5c-7.74-3.81-13.81-8.7-17.77-13.85L29,43.44l-.15-.2-.24-.33a26.77,26.77,0,0,1-3.35-6,20,20,0,0,1-1.08-3.64l-.06-.36,0-.18,0-.17a14.11,14.11,0,0,1,1.06-8,14.4,14.4,0,0,1,1.74-2.86,15.79,15.79,0,0,1,1.76-1.9l.12-.11.18-.16.19-.16.12-.11A21.06,21.06,0,0,1,34.78,16c.28-.12.57-.24,1.17-.46a31.29,31.29,0,0,1,4.17-1.18l.52-.11.47-.09.61-.1L42.3,14l.58-.09.49-.06a47,47,0,0,1,8.2-.26c1.76.09,3.56.26,5.38.53l.27,0,.33,0,.6.1.58.1A64.29,64.29,0,0,1,71,17.88c1.73.68,3.45,1.43,5.14,2.26,1.26.63,2.48,1.28,3.71,2l.58.34.46.27a54.51,54.51,0,0,1,7,5.06,40.12,40.12,0,0,1,6.53,7,27,27,0,0,1,3.31,5.91A20,20,0,0,1,98.88,44.28Z"/>
            </g>
          </g>
          <path class="cls-3" d="M98.88,44.28c0,.13.05.27.09.52,0,.08,0,.16,0,.24a1.1,1.1,0,0,1,0,.18,1,1,0,0,1,0,.17c0,.13,0,.26.06.47A13.94,13.94,0,0,1,98,53a15.19,15.19,0,0,1-1.74,2.86,18,18,0,0,1-2.41,2.46,20.91,20.91,0,0,1-5.47,3.23,31.76,31.76,0,0,1-7.5,2l-.68.1-.35.05a47.64,47.64,0,0,1-8.26.27L70.12,64l-.45,0-.56,0-.52,0c-.79-.09-1.6-.19-2.4-.31s-1.57-.24-2.43-.4L63.33,63l-.54-.11c-.67-.14-1.33-.29-2-.45a65.45,65.45,0,0,1-13.86-5c-7.74-3.81-13.81-8.7-17.77-13.85L29,43.44l-.15-.2-.24-.33a26.77,26.77,0,0,1-3.35-6,20,20,0,0,1-1.08-3.64l-.06-.36,0-.18,0-.17a14.11,14.11,0,0,1,1.06-8,14.4,14.4,0,0,1,1.74-2.86,15.79,15.79,0,0,1,1.76-1.9l.12-.11.18-.16.19-.16.12-.11A21.06,21.06,0,0,1,34.78,16c.28-.12.57-.24,1.17-.46a31.29,31.29,0,0,1,4.17-1.18l.52-.11.47-.09.61-.1L42.3,14l.58-.09.49-.06a47,47,0,0,1,8.2-.26c1.76.09,3.56.26,5.38.53l.27,0,.33,0,.6.1.58.1A64.29,64.29,0,0,1,71,17.88c1.73.68,3.45,1.43,5.14,2.26,1.26.63,2.48,1.28,3.71,2l.58.34.46.27a54.51,54.51,0,0,1,7,5.06,40.12,40.12,0,0,1,6.53,7,27,27,0,0,1,3.31,5.91A20,20,0,0,1,98.88,44.28ZM73.29,23.82A52.6,52.6,0,0,0,57.85,19c-10.35-1.52-19.76.56-24.12,6.11-6.47,8.27.73,21.12,16.08,28.69a52.24,52.24,0,0,0,15.46,4.86c10.35,1.52,19.74-.56,24.09-6.11,6.49-8.26-.71-21.11-16.07-28.7Z"/>
          <path class="cls-4" d="M65.27,58.63a52.24,52.24,0,0,1-15.46-4.86C34.46,46.2,27.25,33.35,33.73,25.08,38.09,19.53,47.5,17.45,57.85,19a52.6,52.6,0,0,1,15.44,4.85c15.36,7.59,22.56,20.44,16.07,28.7C85,58.07,75.62,60.15,65.27,58.63Z"/>
          <path class="cls-42" d="M115.21,37.53l-.76-.07h0l.76.07A48.86,48.86,0,0,0,108.37,28c-.05-.07-.11-.13-.17-.2l-.23-.25A81.8,81.8,0,0,0,84,10.2a101.35,101.35,0,0,0-13.9-5.62A97.09,97.09,0,0,0,54.46.92,81.76,81.76,0,0,0,39.27.06h0C30.45.41,22.55,2.35,16.43,5.84a25.12,25.12,0,0,0-10.12,10l-.18.35a20.6,20.6,0,0,0-1.7,4.73,20.75,20.75,0,0,1,1.68-4.7C2.52,23.35,3.37,31.75,7.9,40.06a48.94,48.94,0,0,0,7.29,10A81.59,81.59,0,0,0,39.13,67.41a100.55,100.55,0,0,0,29.51,9.27c17,2.5,32.68-.09,42-7.62l.44-.35a24.18,24.18,0,0,0,4.41-4.82l.28-.41,0,0,.52-.83-.52.83C120.73,55.9,120.18,46.66,115.21,37.53ZM22.72,57c.51.41,1,.81,1.54,1.2C23.74,57.85,23.23,57.45,22.72,57ZM53,73h0l2,.61Zm53.66-1.27-1.15-1.06h0l1.15,1.06c.36-.2.71-.41,1.06-.63C107.39,71.34,107,71.55,106.68,71.75Z"/>
          <g class="cls-43">
            <path class="cls-28" d="M106.68,71.75l-1.15-1.06h0l1.15,1.06c.36-.2.71-.41,1.06-.63C107.39,71.34,107,71.55,106.68,71.75ZM53,73h0l2,.61Zm62.19-35.49-.76-.07h0l.76.07A48.86,48.86,0,0,0,108.37,28c-.05-.07-.11-.13-.17-.2l-.23-.25A81.8,81.8,0,0,0,84,10.2a101.35,101.35,0,0,0-13.9-5.62A97.09,97.09,0,0,0,54.46.92,81.76,81.76,0,0,0,39.27.06h0C30.45.41,22.55,2.35,16.43,5.84a25.12,25.12,0,0,0-10.12,10l-.18.35a20.6,20.6,0,0,0-1.7,4.73,20.75,20.75,0,0,1,1.68-4.7C2.52,23.35,3.37,31.75,7.9,40.06a48.94,48.94,0,0,0,7.29,10A81.59,81.59,0,0,0,39.13,67.41a100.55,100.55,0,0,0,29.51,9.27c17,2.5,32.68-.09,42-7.62l.44-.35a24.18,24.18,0,0,0,4.41-4.82l.28-.41,0,0,.52-.83-.52.83C120.73,55.9,120.18,46.66,115.21,37.53ZM22.72,57c.51.41,1,.81,1.54,1.2C23.74,57.85,23.23,57.45,22.72,57Z"/>
            <path class="cls-44" d="M106.59,71.85l-1.15-1.06h0l1.14,1.06,1.06-.63ZM53,73.11h0c.66.21,1.31.42,2,.61C54.29,73.53,53.64,73.32,53,73.11Zm62.13-35.45-.75-.07h0l.75.07a48.44,48.44,0,0,0-6.83-9.48l-.17-.2a2.73,2.73,0,0,1-.23-.25,82.1,82.1,0,0,0-24-17.37A101.11,101.11,0,0,0,70,4.74a97.32,97.32,0,0,0-15.6-3.65A81.65,81.65,0,0,0,39.25.23h0C30.44.58,22.55,2.51,16.44,6A25.22,25.22,0,0,0,6.32,16l-.18.35a20,20,0,0,0-1.69,4.73,20.73,20.73,0,0,1,1.67-4.7c-3.59,7.11-2.73,15.5,1.79,23.81a49.48,49.48,0,0,0,7.28,10A81.56,81.56,0,0,0,39.11,67.5a100.38,100.38,0,0,0,29.48,9.27c17,2.49,32.65-.1,42-7.61l.43-.36A24.23,24.23,0,0,0,115.41,64l.27-.41,0,0c.18-.27.35-.55.52-.83-.17.28-.34.56-.52.83C120.62,56,120.08,46.78,115.11,37.66ZM22.72,57.15c.5.41,1,.8,1.53,1.2C23.73,58,23.22,57.56,22.72,57.15Z"/>
            <path class="cls-45" d="M106.5,71.94l-1.14-1.06h0l1.14,1.06c.36-.2.71-.41,1.06-.63C107.21,71.53,106.86,71.74,106.5,71.94ZM53,73.21h0c.65.21,1.31.42,2,.61ZM115,37.79l-.75-.07h0l.75.07a48.74,48.74,0,0,0-6.82-9.47l-.17-.2-.24-.25A81.73,81.73,0,0,0,83.85,10.51,102.73,102.73,0,0,0,70,4.9,96.91,96.91,0,0,0,54.39,1.26,82.4,82.4,0,0,0,39.22.39h0c-8.8.35-16.69,2.28-22.79,5.77a25.17,25.17,0,0,0-10.11,10l-.18.34a20.8,20.8,0,0,0-1.69,4.72,20.85,20.85,0,0,1,1.68-4.69C2.55,23.63,3.4,32,7.92,40.32a49.32,49.32,0,0,0,7.28,10A81.54,81.54,0,0,0,39.09,67.6a100.17,100.17,0,0,0,29.45,9.26c17,2.49,32.61-.1,41.93-7.6l.43-.36a24.1,24.1,0,0,0,4.41-4.8c.09-.14.19-.28.27-.42l0,0,.51-.83c-.17.28-.34.56-.52.83C120.52,56.13,120,46.9,115,37.79ZM22.72,57.26l1.52,1.2Z"/>
            <path class="cls-46" d="M106.41,72,105.27,71h0L106.41,72l1.06-.63ZM52.92,73.3h0q1,.32,1.95.6Q53.9,73.61,52.92,73.3Zm62-35.38-.75-.07h0l.75.07a48.85,48.85,0,0,0-6.81-9.47,1.54,1.54,0,0,1-.17-.19l-.24-.25A81.45,81.45,0,0,0,83.78,10.67a100.62,100.62,0,0,0-13.85-5.6A96.84,96.84,0,0,0,54.35,1.42,83.09,83.09,0,0,0,39.2.56h0C30.42.91,22.54,2.84,16.44,6.33a25.06,25.06,0,0,0-10.1,10,3.59,3.59,0,0,0-.17.34,19.88,19.88,0,0,0-1.69,4.72,20.18,20.18,0,0,1,1.67-4.69c-3.58,7.1-2.73,15.47,1.78,23.76a49.31,49.31,0,0,0,7.27,10A81.23,81.23,0,0,0,39.07,67.7a99.94,99.94,0,0,0,29.42,9.24c17,2.5,32.58-.09,41.88-7.59l.44-.35a24.34,24.34,0,0,0,4.4-4.8c.09-.14.19-.27.27-.41l0,0,.51-.83-.51.83C120.41,56.24,119.87,47,114.91,37.92ZM22.71,57.37c.5.4,1,.8,1.53,1.19C23.72,58.17,23.21,57.77,22.71,57.37Z"/>
            <path class="cls-47" d="M106.32,72.13l-1.14-1.06h0l1.14,1.06,1.06-.63ZM52.88,73.39h0l2,.61Zm61.93-35.34-.75-.07h0l.75.07a49.16,49.16,0,0,0-6.8-9.46,1.54,1.54,0,0,1-.17-.19l-.24-.25A81.44,81.44,0,0,0,83.71,10.83a101.26,101.26,0,0,0-13.84-5.6A96.46,96.46,0,0,0,54.32,1.59,82.1,82.1,0,0,0,39.18.73h0C30.41,1.08,22.54,3,16.44,6.49a25,25,0,0,0-10.08,10l-.18.34a20.8,20.8,0,0,0-1.69,4.72,21.14,21.14,0,0,1,1.67-4.69C2.58,23.92,3.43,32.29,7.94,40.57a49.87,49.87,0,0,0,7.26,10A81.58,81.58,0,0,0,39.05,67.8,99.94,99.94,0,0,0,68.44,77c17,2.49,32.54-.09,41.84-7.58l.43-.35a23.74,23.74,0,0,0,4.4-4.8l.28-.41,0,0c.18-.27.35-.55.51-.83-.16.28-.33.56-.51.83C120.31,56.35,119.77,47.14,114.81,38.05ZM22.71,57.48l1.52,1.19Z"/>
            <path class="cls-48" d="M106.23,72.22l-1.14-1h0l1.14,1c.36-.2.71-.41,1.06-.63C106.94,71.81,106.59,72,106.23,72.22ZM52.85,73.48h0l1.95.61Zm61.86-35.3-.74-.07h0l.74.07a48.73,48.73,0,0,0-6.79-9.45l-.18-.19-.23-.25A81.06,81.06,0,0,0,83.65,11a102.18,102.18,0,0,0-13.83-5.6A97.12,97.12,0,0,0,54.28,1.76,81.88,81.88,0,0,0,39.16.9h0c-8.77.35-16.63,2.27-22.71,5.75a25,25,0,0,0-10.08,10L6.19,17a20.39,20.39,0,0,0-1.68,4.71A20.27,20.27,0,0,1,6.18,17C2.6,24.06,3.45,32.42,8,40.69a49.14,49.14,0,0,0,7.26,10A81.4,81.4,0,0,0,39,67.9a99.74,99.74,0,0,0,29.36,9.22c16.93,2.49,32.51-.09,41.8-7.57l.43-.36A23.66,23.66,0,0,0,115,64.4l.28-.41,0-.05c.18-.27.35-.55.51-.83-.16.28-.33.56-.51.83C120.21,56.46,119.67,47.26,114.71,38.18Zm-92,19.41c.5.4,1,.8,1.53,1.19C23.71,58.39,23.2,58,22.7,57.59Z"/>
            <path class="cls-49" d="M106.14,72.32,105,71.26h0l1.14,1.06,1.06-.63ZM52.81,73.58h0l1.95.61Zm61.81-35.27-.75-.07h0l.75.07a49.41,49.41,0,0,0-6.79-9.44l-.18-.19-.23-.25A81.23,81.23,0,0,0,83.58,11.15,100.08,100.08,0,0,0,69.77,5.56,96,96,0,0,0,54.24,1.92a81.59,81.59,0,0,0-15.1-.85h0c-8.76.35-16.61,2.27-22.69,5.74a25.1,25.1,0,0,0-10.07,10c-.06.11-.12.23-.17.34a20.9,20.9,0,0,0-1.69,4.71,20.32,20.32,0,0,1,1.67-4.67C2.62,24.21,3.46,32.56,8,40.82a49.41,49.41,0,0,0,7.25,9.94A81.18,81.18,0,0,0,39,68a99.56,99.56,0,0,0,29.33,9.22c16.91,2.48,32.48-.09,41.75-7.57.15-.11.29-.23.43-.35a23.38,23.38,0,0,0,4.39-4.79c.1-.13.19-.27.28-.41l0,0c.18-.27.35-.54.51-.82-.16.28-.33.55-.51.82C120.1,56.57,119.56,47.38,114.62,38.31ZM22.7,57.7l1.52,1.19Z"/>
            <path class="cls-50" d="M106.05,72.41l-1.13-1h0l1.13,1c.36-.2.71-.41,1.06-.63C106.76,72,106.41,72.21,106.05,72.41ZM52.78,73.67h0q1,.31,1.95.6Q53.76,74,52.78,73.67Zm61.74-35.23-.75-.07h0l.75.07A48.92,48.92,0,0,0,107.73,29l-.17-.19-.23-.25A81.1,81.1,0,0,0,83.51,11.3,101,101,0,0,0,69.72,5.72,97.28,97.28,0,0,0,54.21,2.09a82.44,82.44,0,0,0-15.09-.86h0C30.37,1.58,22.52,3.51,16.45,7a24.9,24.9,0,0,0-10,9.94l-.18.34A20.82,20.82,0,0,0,4.53,22,20.72,20.72,0,0,1,6.2,17.29C2.63,24.35,3.48,32.69,8,41a49.19,49.19,0,0,0,7.24,9.93A81.16,81.16,0,0,0,39,68.09a99.65,99.65,0,0,0,29.3,9.21c16.89,2.48,32.44-.09,41.71-7.56l.43-.35a23.83,23.83,0,0,0,4.38-4.78l.28-.41,0,0c.18-.27.35-.55.51-.83-.16.28-.33.55-.51.83C120,56.68,119.46,47.5,114.52,38.44ZM22.7,57.8c.5.41,1,.8,1.52,1.2C23.7,58.6,23.2,58.21,22.7,57.8Z"/>
            <path class="cls-51" d="M106,72.51l-1.13-1.06h0L106,72.51l1.06-.63ZM52.74,73.76h0q1,.31,1.95.6Q53.72,74.08,52.74,73.76Zm61.68-35.19-.75-.07h0l.75.07a48.5,48.5,0,0,0-6.78-9.42l-.17-.19-.23-.25A81,81,0,0,0,83.45,11.46,101.44,101.44,0,0,0,69.67,5.88a96.86,96.86,0,0,0-15.5-3.62A82.23,82.23,0,0,0,39.1,1.4h0c-8.74.34-16.58,2.26-22.65,5.73a24.89,24.89,0,0,0-10,9.92l-.18.34a20.79,20.79,0,0,0-1.68,4.7,19.79,19.79,0,0,1,1.67-4.66C2.65,24.49,3.5,32.83,8,41.07A49.18,49.18,0,0,0,15.22,51,81,81,0,0,0,39,68.19a99.45,99.45,0,0,0,29.27,9.2c16.88,2.48,32.39-.11,41.67-7.55l.43-.36a23.81,23.81,0,0,0,4.38-4.77l.27-.41,0,0c.18-.27.35-.55.51-.82-.16.27-.33.55-.51.82C119.9,56.79,119.36,47.62,114.42,38.57ZM22.69,57.91l1.52,1.19Z"/>
            <path class="cls-52" d="M105.87,72.6l-1.13-1h0l1.13,1c.36-.2.71-.41,1.06-.63C106.58,72.19,106.23,72.4,105.87,72.6ZM52.71,73.85h0l1.94.61ZM114.32,38.7l-.74-.07h0l.74.06a48.62,48.62,0,0,0-6.77-9.4l-.17-.19-.23-.25A80.89,80.89,0,0,0,83.38,11.62,99.48,99.48,0,0,0,69.61,6.05,95.33,95.33,0,0,0,54.13,2.43a81.09,81.09,0,0,0-15.05-.86h0c-8.73.35-16.56,2.27-22.62,5.73a24.83,24.83,0,0,0-10,9.92l-.18.34a21,21,0,0,0-1.68,4.69,20.72,20.72,0,0,1,1.67-4.66C2.67,24.64,3.51,33,8,41.2a49.35,49.35,0,0,0,7.22,9.91A81,81,0,0,0,39,68.29a99.54,99.54,0,0,0,29.24,9.19c16.86,2.47,32.36-.11,41.62-7.55.15-.11.29-.23.43-.35a23.52,23.52,0,0,0,4.38-4.77c.09-.13.19-.27.27-.41l0-.05c.18-.27.35-.54.51-.82-.16.28-.33.55-.51.82C119.79,56.9,119.25,47.74,114.32,38.7ZM22.69,58c.5.4,1,.8,1.52,1.19C23.69,58.82,23.19,58.42,22.69,58Z"/>
            <path class="cls-53" d="M105.78,72.69l-1.13-1h0l1.13,1c.36-.2.71-.41,1.06-.62C106.49,72.28,106.14,72.49,105.78,72.69ZM52.67,73.94h0l1.95.61Zm61.55-35.12-.74-.06h0l.74.06a48.93,48.93,0,0,0-6.76-9.39l-.17-.19-.23-.25A81,81,0,0,0,83.32,11.78,100.62,100.62,0,0,0,69.56,6.21,96.41,96.41,0,0,0,54.1,2.59a81.87,81.87,0,0,0-15-.85h0C30.34,2.09,22.51,4,16.46,7.46a24.84,24.84,0,0,0-10,9.91c-.06.11-.11.22-.17.34a20.16,20.16,0,0,0-1.68,4.68,20.31,20.31,0,0,1,1.66-4.65C2.68,24.78,3.53,33.1,8,41.33a49,49,0,0,0,7.22,9.89,80.84,80.84,0,0,0,23.7,17.17,99.63,99.63,0,0,0,29.21,9.18C85,80,100.47,77.46,109.72,70c.15-.11.29-.23.43-.35a24,24,0,0,0,4.37-4.77c.09-.13.19-.27.27-.41l0,0c.17-.27.34-.54.5-.82-.16.28-.33.55-.5.82C119.69,57,119.15,47.86,114.22,38.82ZM22.69,58.13c.49.4,1,.8,1.51,1.19C23.69,58.93,23.18,58.53,22.69,58.13Z"/>
            <path class="cls-54" d="M105.69,72.79l-1.13-1.05h0l1.13,1.05c.36-.21.71-.41,1.06-.63C106.4,72.38,106.05,72.58,105.69,72.79ZM52.64,74h0l1.94.6C53.93,74.45,53.29,74.24,52.64,74ZM114.13,39l-.75-.06h0l.75.06a48.88,48.88,0,0,0-6.76-9.38l-.17-.19-.23-.25a80.87,80.87,0,0,0-23.72-17.2A102.13,102.13,0,0,0,69.51,6.37,97.33,97.33,0,0,0,54.06,2.76a80.75,80.75,0,0,0-15-.85h0c-8.72.34-16.53,2.26-22.58,5.71a24.83,24.83,0,0,0-10,9.9l-.18.34a20.46,20.46,0,0,0-1.68,4.68,20.79,20.79,0,0,1,1.66-4.65C2.7,24.92,3.54,33.23,8,41.45a48.9,48.9,0,0,0,7.21,9.89A80.89,80.89,0,0,0,38.9,68.48a99,99,0,0,0,29.19,9.17c16.82,2.47,32.31-.09,41.54-7.52.14-.12.28-.24.43-.35A24.19,24.19,0,0,0,114.42,65l.28-.41,0,0,.5-.82-.5.82C119.58,57.12,119.05,48,114.13,39ZM22.68,58.24l1.52,1.19Z"/>
          </g>
          <g class="cls-55">
            <path class="cls-54" d="M114.63,39.22h0a49.1,49.1,0,0,0-6.83-9.49l-.17-.19-.24-.25a81.45,81.45,0,0,0-24-17.4,102.63,102.63,0,0,0-13.9-5.62A97.3,97.3,0,0,0,53.89,2.61a82.72,82.72,0,0,0-15.2-.87h0C29.88,2.1,22,4,15.86,7.53a25.21,25.21,0,0,0-10.13,10c-.06.11-.12.23-.17.34a20.51,20.51,0,0,0-1.7,4.74,20.83,20.83,0,0,1,1.68-4.71C1.94,25,2.8,33.43,7.32,41.75a49.94,49.94,0,0,0,7.3,10A81.75,81.75,0,0,0,38.56,69.09a99.87,99.87,0,0,0,29.51,9.27c17,2.5,32.68-.09,42-7.61l.44-.36a24.14,24.14,0,0,0,4.41-4.81l.28-.42,0,0c.18-.27.35-.55.51-.83-.16.28-.33.56-.51.83C120.15,57.59,119.61,48.35,114.63,39.22Z"/>
            <path class="cls-53" d="M114.69,39.06h0a48.86,48.86,0,0,0-6.84-9.49l-.17-.19c-.08-.09-.16-.17-.23-.26a81.8,81.8,0,0,0-24-17.39,101.35,101.35,0,0,0-13.9-5.62A97.09,97.09,0,0,0,53.94,2.45a82.63,82.63,0,0,0-15.19-.86h0C29.93,1.94,22,3.88,15.91,7.37a25.17,25.17,0,0,0-10.13,10c0,.11-.12.22-.17.34a20.6,20.6,0,0,0-1.7,4.73,20.75,20.75,0,0,1,1.68-4.7C2,24.88,2.85,33.28,7.38,41.59a49.27,49.27,0,0,0,7.29,10A81.75,81.75,0,0,0,38.61,68.94a100.55,100.55,0,0,0,29.51,9.27c17,2.5,32.68-.09,42-7.61l.44-.36A23.92,23.92,0,0,0,115,65.42c.1-.13.19-.27.28-.41l0-.05c.18-.27.35-.55.52-.83-.17.28-.34.56-.52.83C120.21,57.44,119.66,48.19,114.69,39.06Z"/>
            <path class="cls-52" d="M114.74,38.91h0a49.22,49.22,0,0,0-6.83-9.49l-.18-.2L107.5,29a81.8,81.8,0,0,0-24-17.39A101.23,101.23,0,0,0,69.62,6,96.4,96.4,0,0,0,54,2.3,81.76,81.76,0,0,0,38.8,1.44h0C30,1.79,22.08,3.73,16,7.22a25.12,25.12,0,0,0-10.12,10l-.18.34A20.68,20.68,0,0,0,4,22.31a20.75,20.75,0,0,1,1.68-4.7C2.05,24.72,2.9,33.13,7.43,41.44a48.94,48.94,0,0,0,7.29,10A81.52,81.52,0,0,0,38.66,68.78a100.29,100.29,0,0,0,29.51,9.28c17,2.5,32.68-.1,42-7.62l.43-.35A24.55,24.55,0,0,0,115,65.27l.27-.41,0,0c.18-.28.34-.55.51-.83l-.52.83C120.26,57.28,119.71,48,114.74,38.91Z"/>
            <path class="cls-56" d="M114.79,38.76h0A49.53,49.53,0,0,0,108,29.26l-.18-.19a2.73,2.73,0,0,0-.23-.25,81.51,81.51,0,0,0-24-17.4A102.51,102.51,0,0,0,69.67,5.8,97.54,97.54,0,0,0,54.05,2.15a82.77,82.77,0,0,0-15.2-.87h0C30,1.64,22.14,3.57,16,7.07a25.15,25.15,0,0,0-10.13,10l-.18.34A21,21,0,0,0,4,22.16a20.58,20.58,0,0,1,1.68-4.7C2.1,24.57,3,33,7.48,41.29a49.49,49.49,0,0,0,7.29,10A81.88,81.88,0,0,0,38.71,68.63,99.93,99.93,0,0,0,68.23,77.9c17,2.5,32.67-.09,42-7.61l.43-.36a24.5,24.5,0,0,0,4.42-4.81l.27-.42,0,0c.18-.27.35-.55.51-.83-.16.28-.34.56-.51.83C120.31,57.13,119.77,47.89,114.79,38.76Z"/>
            <path class="cls-50" d="M114.84,38.6h0A49.22,49.22,0,0,0,108,29.11l-.17-.19-.24-.26a81.62,81.62,0,0,0-24-17.39,101.86,101.86,0,0,0-13.9-5.62A97.34,97.34,0,0,0,54.1,2a82.74,82.74,0,0,0-15.2-.86h0c-8.81.35-16.71,2.29-22.83,5.78a25.11,25.11,0,0,0-10.13,10l-.18.34A21.05,21.05,0,0,0,4.07,22a20.75,20.75,0,0,1,1.68-4.7C2.15,24.42,3,32.82,7.53,41.14a50.27,50.27,0,0,0,7.29,10A82,82,0,0,0,38.76,68.48a100.22,100.22,0,0,0,29.52,9.27c17,2.5,32.68-.09,42-7.61l.43-.36A23.68,23.68,0,0,0,115.14,65l.28-.41,0,0c.18-.27.35-.55.51-.83-.16.28-.33.56-.51.83C120.36,57,119.82,47.73,114.84,38.6Z"/>
            <path class="cls-49" d="M114.89,38.45h0A49.22,49.22,0,0,0,108.06,29l-.17-.2-.24-.25a81.62,81.62,0,0,0-24-17.39A101.35,101.35,0,0,0,69.77,5.5,96.28,96.28,0,0,0,54.15,1.84,81.82,81.82,0,0,0,39,1h0c-8.82.35-16.72,2.29-22.84,5.78A25.21,25.21,0,0,0,6,16.77c-.06.12-.12.23-.17.35a20.6,20.6,0,0,0-1.7,4.73,20.75,20.75,0,0,1,1.68-4.7C2.2,24.26,3.06,32.67,7.58,41a49.38,49.38,0,0,0,7.3,10A81.39,81.39,0,0,0,38.82,68.32,100.19,100.19,0,0,0,68.33,77.6c17,2.5,32.68-.1,42-7.62l.44-.35a24.18,24.18,0,0,0,4.41-4.82l.28-.41,0-.05c.18-.28.35-.55.51-.83-.16.28-.33.55-.51.83C120.41,56.82,119.87,47.58,114.89,38.45Z"/>
            <path class="cls-48" d="M115,38.3h0a49.16,49.16,0,0,0-6.84-9.49l-.17-.19-.23-.25a81.82,81.82,0,0,0-24-17.4,102.63,102.63,0,0,0-13.9-5.62A97,97,0,0,0,54.2,1.69,82.66,82.66,0,0,0,39,.82h0c-8.82.35-16.72,2.28-22.84,5.78a25.12,25.12,0,0,0-10.12,10L5.87,17a20.68,20.68,0,0,0-1.7,4.74A20.58,20.58,0,0,1,5.85,17C2.26,24.11,3.11,32.51,7.64,40.83a49.21,49.21,0,0,0,7.29,10A81.75,81.75,0,0,0,38.87,68.17a100,100,0,0,0,29.51,9.27c17,2.5,32.68-.09,42-7.61l.44-.36a24.14,24.14,0,0,0,4.41-4.81c.1-.14.19-.28.28-.42l0,0c.18-.27.35-.55.52-.83-.17.28-.34.56-.52.83C120.47,56.67,119.92,47.43,115,38.3Z"/>
            <path class="cls-47" d="M115,38.14h0a49.22,49.22,0,0,0-6.83-9.49l-.18-.19-.23-.26a81.8,81.8,0,0,0-24-17.39A101.23,101.23,0,0,0,69.88,5.19,97.46,97.46,0,0,0,54.25,1.53,82.63,82.63,0,0,0,39.06.67h0C30.25,1,22.34,3,16.22,6.45a25.08,25.08,0,0,0-10.12,10l-.18.34a20.6,20.6,0,0,0-1.7,4.73,20.75,20.75,0,0,1,1.68-4.7C2.31,24,3.16,32.36,7.69,40.68a49.49,49.49,0,0,0,7.29,10A81.88,81.88,0,0,0,38.92,68a100.26,100.26,0,0,0,29.51,9.27c17,2.5,32.68-.09,42-7.61l.43-.36a24.27,24.27,0,0,0,4.42-4.82l.27-.41,0,0,.51-.83c-.17.28-.34.56-.52.83C120.52,56.52,120,47.27,115,38.14Z"/>
            <path class="cls-57" d="M115.05,38h0a49.22,49.22,0,0,0-6.83-9.49l-.18-.2-.23-.25a81.67,81.67,0,0,0-24-17.39A101.23,101.23,0,0,0,69.93,5,96.28,96.28,0,0,0,54.31,1.38,81.87,81.87,0,0,0,39.11.52h0C30.3.87,22.4,2.81,16.28,6.3a25.27,25.27,0,0,0-10.13,10L6,16.66a20.57,20.57,0,0,0-1.69,4.73A20.73,20.73,0,0,1,6,16.69C2.36,23.81,3.21,32.21,7.74,40.52a48.94,48.94,0,0,0,7.29,10A81.52,81.52,0,0,0,39,67.86a100.25,100.25,0,0,0,29.52,9.28c17,2.5,32.67-.09,42-7.62l.43-.35a24.55,24.55,0,0,0,4.42-4.82c.09-.14.19-.27.27-.41l0,0c.18-.28.35-.55.51-.83-.16.28-.34.55-.51.83C120.57,56.36,120,47.12,115.05,38Z"/>
            <path class="cls-45" d="M115.1,37.84h0a49.28,49.28,0,0,0-6.83-9.5l-.17-.19-.24-.25a81.62,81.62,0,0,0-24-17.39A101.93,101.93,0,0,0,70,4.88,97.3,97.3,0,0,0,54.36,1.23,81.87,81.87,0,0,0,39.16.37h0C30.35.72,22.45,2.65,16.33,6.15a25.21,25.21,0,0,0-10.13,10L6,16.5a21.13,21.13,0,0,0-1.69,4.74A20.58,20.58,0,0,1,6,16.54c-3.6,7.11-2.75,15.52,1.78,23.83a50,50,0,0,0,7.29,10A82,82,0,0,0,39,67.71,100.25,100.25,0,0,0,68.54,77c17,2.49,32.68-.1,42-7.62L111,69a23.9,23.9,0,0,0,4.42-4.81l.28-.42,0-.05c.18-.27.35-.55.51-.83-.16.28-.33.56-.51.83C120.62,56.21,120.08,47,115.1,37.84Z"/>
            <path class="cls-44" d="M115.15,37.68h0a48.79,48.79,0,0,0-6.83-9.49l-.17-.19-.24-.26a82.24,82.24,0,0,0-24-17.39A101.35,101.35,0,0,0,70,4.73,97.34,97.34,0,0,0,54.41,1.07,83.58,83.58,0,0,0,39.21.21h0C30.4.56,22.5,2.5,16.38,6A25.21,25.21,0,0,0,6.25,16a3.59,3.59,0,0,0-.17.34,20.6,20.6,0,0,0-1.7,4.73,20.75,20.75,0,0,1,1.68-4.7C2.46,23.5,3.32,31.9,7.84,40.22a49.94,49.94,0,0,0,7.3,10A81.75,81.75,0,0,0,39.08,67.56a100.26,100.26,0,0,0,29.51,9.27c17,2.5,32.68-.09,42-7.61l.44-.36A23.92,23.92,0,0,0,115.45,64l.28-.41,0-.05c.18-.27.35-.55.51-.83-.16.28-.33.56-.51.83C120.67,56.06,120.13,46.81,115.15,37.68Z"/>
            <path class="cls-28" d="M115.21,37.53h0A48.86,48.86,0,0,0,108.37,28c-.05-.07-.11-.13-.17-.2l-.23-.25A81.8,81.8,0,0,0,84,10.2a101.35,101.35,0,0,0-13.9-5.62A97.09,97.09,0,0,0,54.46.92,81.76,81.76,0,0,0,39.27.06h0C30.45.41,22.55,2.35,16.43,5.84a25.12,25.12,0,0,0-10.12,10l-.18.35a20.6,20.6,0,0,0-1.7,4.73,20.75,20.75,0,0,1,1.68-4.7C2.52,23.35,3.37,31.75,7.9,40.06a48.94,48.94,0,0,0,7.29,10A81.59,81.59,0,0,0,39.13,67.41a100.55,100.55,0,0,0,29.51,9.27c17,2.5,32.68-.09,42-7.62l.44-.35a24.18,24.18,0,0,0,4.41-4.82l.28-.41,0,0,.52-.83-.52.83C120.73,55.9,120.18,46.66,115.21,37.53Z"/>
            <path class="cls-44" d="M115.11,37.44h0A48.15,48.15,0,0,0,108.29,28c-.05-.07-.11-.13-.17-.2l-.23-.25A82.07,82.07,0,0,0,84,10.19,102.08,102.08,0,0,0,70.09,4.58,96.84,96.84,0,0,0,54.51.93,81.49,81.49,0,0,0,39.35.07h0c-8.8.35-16.68,2.27-22.78,5.75a25.19,25.19,0,0,0-10.1,10l-.18.34A20.33,20.33,0,0,0,4.6,20.86a21.06,21.06,0,0,1,1.67-4.68C2.69,23.27,3.54,31.64,8.06,39.93a49.43,49.43,0,0,0,7.28,10A81.83,81.83,0,0,0,39.23,67.2a100.09,100.09,0,0,0,29.44,9.25c17,2.5,32.6-.08,41.91-7.58.15-.11.29-.23.43-.35a24.1,24.1,0,0,0,4.41-4.8c.09-.14.19-.27.27-.41l0-.05.51-.83-.51.83C120.63,55.76,120.08,46.54,115.11,37.44Z"/>
            <path class="cls-45" d="M115,37.35h0a49,49,0,0,0-6.8-9.44l-.18-.19-.23-.25A81.46,81.46,0,0,0,83.93,10.18,102.18,102.18,0,0,0,70.1,4.58,96.46,96.46,0,0,0,54.55.94,82,82,0,0,0,39.42.07h0C30.66.42,22.79,2.34,16.7,5.81A25.08,25.08,0,0,0,6.63,15.75a3.59,3.59,0,0,0-.17.34,20.35,20.35,0,0,0-1.69,4.7,20.49,20.49,0,0,1,1.67-4.67C2.86,23.19,3.72,31.54,8.23,39.8a49.53,49.53,0,0,0,7.26,10A81.6,81.6,0,0,0,39.33,67a99.88,99.88,0,0,0,29.38,9.23c16.93,2.5,32.51-.07,41.8-7.54l.43-.35a23.66,23.66,0,0,0,4.39-4.79c.1-.13.19-.27.28-.41l0-.05c.18-.27.35-.54.51-.82-.16.28-.33.55-.51.83C120.53,55.61,120,46.43,115,37.35Z"/>
            <path class="cls-46" d="M114.93,37.26h0a48.81,48.81,0,0,0-6.79-9.41l-.18-.19-.23-.25A81.48,81.48,0,0,0,83.9,10.16,100.65,100.65,0,0,0,70.1,4.58,96.78,96.78,0,0,0,54.59,1,81.6,81.6,0,0,0,39.5.08h0c-8.75.34-16.6,2.25-22.67,5.71a24.94,24.94,0,0,0-10,9.91L6.62,16a20.41,20.41,0,0,0-1.68,4.69A20.31,20.31,0,0,1,6.6,16.07C3,23.11,3.89,31.44,8.4,39.68a48.76,48.76,0,0,0,7.25,9.91A81.36,81.36,0,0,0,39.43,66.78,99.74,99.74,0,0,0,68.74,76c16.89,2.49,32.44-.07,41.7-7.51l.43-.35a24.08,24.08,0,0,0,4.38-4.77l.27-.41,0-.05c.18-.27.35-.54.51-.82-.16.28-.33.55-.51.82C120.43,55.47,119.88,46.31,114.93,37.26Z"/>
            <path class="cls-47" d="M114.84,37.17h0a49,49,0,0,0-6.78-9.38,1.54,1.54,0,0,1-.17-.19l-.23-.25a81.2,81.2,0,0,0-23.78-17.2A101.19,101.19,0,0,0,70.11,4.59,95.38,95.38,0,0,0,54.63,1,81.13,81.13,0,0,0,39.58.09h0C30.86.43,23,2.33,17,5.77A24.86,24.86,0,0,0,7,15.64L6.78,16a20.06,20.06,0,0,0-1.67,4.67A20.23,20.23,0,0,1,6.77,16c-3.56,7-2.7,15.32,1.79,23.54a48.92,48.92,0,0,0,7.24,9.88A81.15,81.15,0,0,0,39.53,66.58a99.84,99.84,0,0,0,29.24,9.19c16.85,2.48,32.36-.06,41.6-7.47l.42-.35a23.63,23.63,0,0,0,4.37-4.75l.28-.41,0,0c.17-.27.34-.54.5-.82-.16.28-.33.55-.5.82C120.33,55.32,119.78,46.19,114.84,37.17Z"/>
            <path class="cls-48" d="M114.74,37.08h0A48.7,48.7,0,0,0,108,27.73l-.17-.19-.23-.25A81.15,81.15,0,0,0,83.85,10.14,100.13,100.13,0,0,0,70.12,4.59,96.43,96.43,0,0,0,54.68,1a80.86,80.86,0,0,0-15-.87h0C31,.43,23.15,2.32,17.11,5.75a24.77,24.77,0,0,0-10,9.84,3.59,3.59,0,0,0-.17.34,19.91,19.91,0,0,0-1.67,4.65A20.05,20.05,0,0,1,6.93,16c-3.54,7-2.69,15.27,1.8,23.46A49,49,0,0,0,16,49.27a80.92,80.92,0,0,0,23.68,17.1A99.46,99.46,0,0,0,68.8,75.54c16.81,2.48,32.28,0,41.49-7.43l.43-.35A24.06,24.06,0,0,0,115.08,63l.27-.41,0,0c.18-.27.35-.54.51-.82-.16.28-.33.55-.51.82C120.22,55.17,119.67,46.08,114.74,37.08Z"/>
            <path class="cls-49" d="M114.65,37h0a48.47,48.47,0,0,0-6.75-9.32l-.17-.19-.23-.25a80.86,80.86,0,0,0-23.67-17.1A101.63,101.63,0,0,0,70.12,4.59,95.68,95.68,0,0,0,54.72,1a81.28,81.28,0,0,0-15-.88h0C31.06.43,23.27,2.32,17.25,5.74a24.61,24.61,0,0,0-10,9.8l-.18.33a20.27,20.27,0,0,0-1.66,4.64,20.17,20.17,0,0,1,1.64-4.6c-3.53,7-2.67,15.21,1.81,23.38a48.74,48.74,0,0,0,7.2,9.82,81,81,0,0,0,23.63,17,98.9,98.9,0,0,0,29.1,9.15c16.77,2.48,32.2,0,41.39-7.39l.43-.35A23.62,23.62,0,0,0,115,62.85c.09-.13.19-.27.27-.4l0-.05c.17-.27.34-.54.5-.82-.16.28-.33.55-.5.82C120.12,55,119.57,46,114.65,37Z"/>
            <path class="cls-50" d="M114.56,36.9h0a48.66,48.66,0,0,0-6.74-9.29l-.17-.19-.23-.25A80.68,80.68,0,0,0,83.8,10.12,100.56,100.56,0,0,0,70.13,4.59,95.3,95.3,0,0,0,54.76,1,80.86,80.86,0,0,0,39.82.11h0c-8.66.33-16.43,2.2-22.44,5.61a24.63,24.63,0,0,0-9.93,9.76l-.18.34a20,20,0,0,0-1.65,4.63,19.87,19.87,0,0,1,1.64-4.6C3.74,22.8,4.6,31,9.06,39.16A48.9,48.9,0,0,0,16.25,49,81,81,0,0,0,39.83,66a99.09,99.09,0,0,0,29,9.12c16.74,2.48,32.13,0,41.29-7.35l.42-.35a23.53,23.53,0,0,0,4.34-4.7l.27-.4,0-.05c.17-.27.34-.54.5-.81-.16.27-.33.54-.5.81C120,54.88,119.47,45.84,114.56,36.9Z"/>
            <path class="cls-51" d="M114.47,36.81h0a48.43,48.43,0,0,0-6.73-9.26l-.17-.19-.23-.25a80.57,80.57,0,0,0-23.56-17A101.18,101.18,0,0,0,70.14,4.59,97.26,97.26,0,0,0,54.81,1,81.43,81.43,0,0,0,39.9.12h0C31.26.44,23.51,2.31,17.52,5.7a24.57,24.57,0,0,0-9.91,9.73,3.59,3.59,0,0,0-.17.34,19.4,19.4,0,0,0-1.65,4.61A19.69,19.69,0,0,1,7.42,15.8C3.91,22.72,4.77,30.92,9.23,39a48.68,48.68,0,0,0,7.18,9.76,80.55,80.55,0,0,0,23.52,17,99,99,0,0,0,29,9.11c16.7,2.47,32.05,0,41.19-7.32l.42-.35a23.59,23.59,0,0,0,4.32-4.68l.27-.41,0,0c.18-.27.34-.54.5-.81-.16.27-.32.54-.5.81C119.92,54.74,119.37,45.73,114.47,36.81Z"/>
            <path class="cls-52" d="M114.37,36.73h0a47.88,47.88,0,0,0-6.71-9.24,1.54,1.54,0,0,0-.17-.19l-.22-.25a80.73,80.73,0,0,0-23.52-17A100.87,100.87,0,0,0,70.14,4.6,95.46,95.46,0,0,0,54.85,1,81.88,81.88,0,0,0,40,.12h0C31.36.44,23.63,2.3,17.66,5.68a24.3,24.3,0,0,0-9.88,9.7l-.18.33A19.29,19.29,0,0,0,6,20.31a19.62,19.62,0,0,1,1.63-4.57C4.09,22.65,5,30.81,9.4,38.9a48,48,0,0,0,7.16,9.73A80.4,80.4,0,0,0,40,65.54a98.93,98.93,0,0,0,28.9,9.09c16.66,2.47,32,0,41.08-7.29l.43-.34a23.51,23.51,0,0,0,4.31-4.67l.27-.4,0,0c.17-.26.34-.53.5-.8-.16.27-.33.54-.5.8C119.82,54.59,119.27,45.61,114.37,36.73Z"/>
            <path class="cls-53" d="M114.28,36.64h0a48.37,48.37,0,0,0-6.69-9.22l-.18-.18-.22-.25A80.31,80.31,0,0,0,83.73,10.08,101.5,101.5,0,0,0,70.15,4.6,96.16,96.16,0,0,0,54.89,1,81.45,81.45,0,0,0,40.06.13h0C31.46.45,23.75,2.3,17.79,5.66a24.28,24.28,0,0,0-9.85,9.67c-.06.11-.12.22-.17.33a19.62,19.62,0,0,0-1.65,4.58,19.93,19.93,0,0,1,1.63-4.55c-3.49,6.88-2.63,15,1.81,23.08a48.51,48.51,0,0,0,7.15,9.71A80.72,80.72,0,0,0,40.12,65.34,99.09,99.09,0,0,0,69,74.4c16.61,2.47,31.89,0,41-7.25a4.78,4.78,0,0,0,.42-.34,23.07,23.07,0,0,0,4.3-4.65l.27-.4,0,0c.17-.26.34-.53.5-.8-.16.27-.33.54-.5.8C119.72,54.44,119.17,45.49,114.28,36.64Z"/>
            <path class="cls-54" d="M114.19,36.55h0a47.71,47.71,0,0,0-6.68-9.19l-.17-.18-.23-.25A80.4,80.4,0,0,0,83.7,10.07,100,100,0,0,0,70.15,4.6,96.9,96.9,0,0,0,54.94,1,81.18,81.18,0,0,0,40.14.14h0C31.56.45,23.87,2.29,17.93,5.65A24.18,24.18,0,0,0,8.1,15.27l-.17.33a20.15,20.15,0,0,0-1.64,4.57,20.05,20.05,0,0,1,1.62-4.53c-3.47,6.85-2.61,15,1.82,23a48.61,48.61,0,0,0,7.13,9.68A80.49,80.49,0,0,0,40.22,65.13a98.52,98.52,0,0,0,28.77,9c16.57,2.47,31.81,0,40.87-7.21l.42-.34A22.86,22.86,0,0,0,114.56,62a4.68,4.68,0,0,0,.27-.4l0-.05c.18-.26.34-.53.5-.8-.16.27-.32.54-.5.8C119.62,54.3,119.06,45.38,114.19,36.55Z"/>
          </g>
        </g>
      </g>
    </g>
  </g>
</svg>
