<?xml version="1.0" encoding="UTF-8"?>
<svg id="_Слой_2" data-name="Слой 2" xmlns="http://www.w3.org/2000/svg" viewBox="0 0 575.09 83.17">
  <defs>
    <style>
      .cls-1 {
        fill: #fff;
      }

      .cls-1, .cls-2 {
        stroke-width: 0px;
      }

      .cls-2 {
        fill: #029df6;
      }
    </style>
  </defs>
  <g id="_Слой_2-2" data-name="Слой 2">
    <g>
      <path class="cls-1" d="m6.69,32.22L13.11.72h17.03c3.82,0,6.7.65,8.63,1.96s2.89,3.16,2.89,5.56c0,1.95-.57,3.6-1.72,4.95-1.15,1.35-2.72,2.38-4.73,3.08-2,.71-4.31,1.06-6.91,1.06l1.38-2.43c3.27,0,5.85.64,7.73,1.91,1.88,1.28,2.82,3.07,2.82,5.38s-.68,4.21-2.04,5.69c-1.36,1.48-3.17,2.58-5.44,3.28-2.27.71-4.77,1.06-7.53,1.06H6.69Zm12.16-7.42h6.98c1.07,0,1.95-.24,2.64-.72.69-.48,1.03-1.2,1.03-2.16,0-.69-.27-1.21-.8-1.55-.54-.34-1.16-.52-1.86-.52h-7.71l1.42-7.02h6.24c.83,0,1.51-.11,2.04-.34.53-.23.92-.54,1.17-.95.24-.4.37-.89.37-1.46,0-.66-.25-1.15-.76-1.46s-1.2-.47-2.09-.47h-5.28l-3.4,16.65Z"/>
      <path class="cls-1" d="m60.25,32.94c-3.34,0-6.22-.6-8.65-1.8-2.43-1.2-4.31-2.86-5.65-4.97-1.33-2.11-2-4.55-2-7.31s.5-5.33,1.49-7.63c.99-2.29,2.39-4.28,4.2-5.96,1.8-1.68,3.95-2.98,6.43-3.89,2.48-.91,5.19-1.37,8.12-1.37,3.33,0,6.22.6,8.65,1.8,2.43,1.2,4.31,2.86,5.65,4.97,1.33,2.11,2,4.55,2,7.31s-.5,5.33-1.49,7.63c-1,2.29-2.4,4.28-4.2,5.96-1.81,1.68-3.95,2.98-6.43,3.89s-5.19,1.37-8.12,1.37Zm.92-8.59c1.35,0,2.53-.25,3.56-.77,1.02-.51,1.9-1.21,2.64-2.11s1.29-1.93,1.65-3.08c.37-1.15.55-2.38.55-3.67s-.25-2.3-.76-3.22c-.5-.91-1.22-1.63-2.16-2.14-.93-.51-2.06-.77-3.37-.77s-2.49.26-3.53.77c-1.04.51-1.93,1.21-2.66,2.11s-1.29,1.93-1.65,3.08c-.37,1.16-.55,2.38-.55,3.67,0,1.2.25,2.27.76,3.2.5.93,1.22,1.65,2.16,2.16.93.51,2.06.77,3.37.77Z"/>
      <path class="cls-1" d="m81.09,32.22L87.52.72h8.9l12.07,19.17h-3.76l3.9-19.17h10.56l-6.43,31.5h-8.9l-12.07-19.17h3.76l-3.9,19.17h-10.56Z"/>
      <path class="cls-1" d="m134.2,32.94c-3.34,0-6.12-.62-8.35-1.87-2.23-1.24-3.82-2.98-4.75-5.22-.93-2.23-1.09-4.84-.48-7.81l3.53-17.33h10.83l-3.49,17.15c-.21,1.11-.29,2.07-.23,2.88.06.81.27,1.48.62,2.02.35.54.83.94,1.45,1.19.61.25,1.35.38,2.2.38,1.04,0,1.94-.21,2.69-.63.75-.42,1.38-1.11,1.88-2.07.5-.96.91-2.22,1.22-3.78l3.49-17.15h10.65l-3.63,17.77c-.95,4.71-2.89,8.3-5.83,10.75-2.94,2.46-6.87,3.69-11.8,3.69Z"/>
      <path class="cls-1" d="m166.74,32.94c-1.9,0-3.72-.13-5.46-.4-1.74-.27-3.33-.65-4.75-1.15s-2.65-1.04-3.69-1.64l4.18-7.83c1.19.66,2.39,1.21,3.6,1.64,1.21.44,2.42.76,3.63.97,1.21.21,2.41.31,3.6.31.95,0,1.74-.07,2.36-.23.63-.15,1.1-.37,1.42-.65s.48-.61.48-.97c0-.48-.28-.87-.83-1.17-.55-.3-1.28-.57-2.18-.81-.9-.24-1.9-.49-2.98-.74-1.09-.25-2.18-.59-3.28-.99s-2.1-.92-3.01-1.55c-.9-.63-1.63-1.42-2.18-2.38-.55-.96-.83-2.13-.83-3.51,0-2.4.65-4.48,1.95-6.26,1.3-1.77,3.17-3.14,5.6-4.12,2.43-.97,5.33-1.46,8.7-1.46,2.39,0,4.61.23,6.68.7,2.07.47,3.85,1.13,5.35,2l-3.9,7.74c-1.29-.78-2.69-1.36-4.2-1.76-1.51-.39-3.05-.58-4.61-.58-1.04,0-1.91.1-2.62.29-.7.2-1.23.46-1.58.79-.35.33-.53.67-.53,1.04,0,.48.28.88.83,1.19s1.29.58,2.2.81,1.92.47,3.01.72c1.09.26,2.17.57,3.26.95,1.09.38,2.09.87,3.01,1.48.92.62,1.65,1.4,2.2,2.34.55.95.83,2.11.83,3.49,0,2.34-.66,4.39-1.97,6.14-1.32,1.75-3.19,3.13-5.62,4.12-2.43.99-5.32,1.48-8.65,1.48Z"/>
      <path class="cls-1" d="m197.91,32.22l6.43-31.5h14.5c3.4,0,6.32.54,8.77,1.62,2.45,1.08,4.33,2.62,5.65,4.61,1.32,2,1.97,4.37,1.97,7.13s-.5,5.29-1.49,7.51c-1,2.22-2.39,4.13-4.18,5.72-1.79,1.59-3.91,2.81-6.36,3.65-2.45.84-5.14,1.26-8.08,1.26h-17.21Zm12.53-8.28h5.05c1.93,0,3.54-.41,4.84-1.24,1.3-.82,2.29-1.94,2.96-3.33.67-1.4,1.01-2.95,1.01-4.66,0-1.23-.25-2.26-.76-3.1-.5-.84-1.26-1.49-2.25-1.94-1-.45-2.23-.68-3.7-.68h-4.13l-3.03,14.94Z"/>
      <path class="cls-1" d="m248.08,24.21h16.11l-1.65,8.01h-26.71l6.43-31.5h26.12l-1.65,8.01h-15.47l-3.17,15.48Zm1.7-11.79h14.32l-1.56,7.65h-14.32l1.56-7.65Z"/>
      <path class="cls-1" d="m280.48,32.22l6.43-31.5h17.03c3.82,0,6.7.65,8.63,1.96s2.89,3.16,2.89,5.56c0,1.95-.57,3.6-1.72,4.95-1.15,1.35-2.72,2.38-4.73,3.08-2,.71-4.31,1.06-6.91,1.06l1.38-2.43c3.27,0,5.85.64,7.73,1.91,1.88,1.28,2.82,3.07,2.82,5.38s-.68,4.21-2.04,5.69c-1.36,1.48-3.18,2.58-5.44,3.28-2.26.71-4.77,1.06-7.53,1.06h-18.54Zm12.16-7.42h6.98c1.07,0,1.95-.24,2.64-.72.69-.48,1.03-1.2,1.03-2.16,0-.69-.27-1.21-.8-1.55-.54-.34-1.15-.52-1.86-.52h-7.71l1.42-7.02h6.24c.83,0,1.51-.11,2.04-.34s.93-.54,1.17-.95c.24-.4.37-.89.37-1.46,0-.66-.25-1.15-.76-1.46-.5-.31-1.2-.47-2.09-.47h-5.28l-3.4,16.65Z"/>
      <path class="cls-1" d="m315.96,32.22l6.43-31.5h10.83l-6.43,31.5h-10.83Z"/>
      <path class="cls-1" d="m344.28,24.21h16.11l-1.65,8.01h-26.71l6.43-31.5h26.12l-1.65,8.01h-15.47l-3.17,15.48Zm1.7-11.79h14.32l-1.56,7.65h-14.32l1.56-7.65Z"/>
      <path class="cls-1" d="m362.92,32.22l6.43-31.5h8.91l12.07,19.17h-3.76l3.9-19.17h10.56l-6.43,31.5h-8.9l-12.07-19.17h3.76l-3.9,19.17h-10.56Z"/>
      <path class="cls-1" d="m409.92,32.22l-7.16-31.5h11.11l5.78,26.69h-7.07L429.47.72h11.11l-20.01,31.5h-10.65Z"/>
      <path class="cls-1" d="m447.47,24.21h16.11l-1.65,8.01h-26.71l6.43-31.5h26.12l-1.65,8.01h-15.47l-3.17,15.48Zm1.7-11.79h14.32l-1.56,7.65h-14.32l1.56-7.65Z"/>
      <path class="cls-1" d="m466.1,32.22l6.43-31.5h8.91l12.07,19.17h-3.76l3.9-19.17h10.56l-6.43,31.5h-8.9l-12.07-19.17h3.76l-3.9,19.17h-10.56Z"/>
      <path class="cls-1" d="m519.21,32.94c-3.34,0-6.12-.62-8.35-1.87-2.23-1.24-3.82-2.98-4.75-5.22-.93-2.23-1.09-4.84-.48-7.81l3.53-17.33h10.83l-3.49,17.15c-.21,1.11-.29,2.07-.23,2.88s.27,1.48.62,2.02c.35.54.83.94,1.45,1.19.61.25,1.35.38,2.2.38,1.04,0,1.93-.21,2.68-.63.75-.42,1.38-1.11,1.88-2.07.5-.96.91-2.22,1.22-3.78l3.49-17.15h10.65l-3.63,17.77c-.95,4.71-2.89,8.3-5.83,10.75-2.94,2.46-6.87,3.69-11.8,3.69Z"/>
      <path class="cls-1" d="m551.25,24.21h16.11l-1.65,8.01h-26.71l6.43-31.5h26.12l-1.65,8.01h-15.47l-3.17,15.48Zm1.7-11.79h14.32l-1.56,7.65h-14.32l1.56-7.65Z"/>
      <path class="cls-2" d="m9.4,77.21c-2.17,0-4.04-.33-5.61-1-1.57-.67-2.83-1.67-3.79-3l5.59-5.29c.57.81,1.18,1.42,1.83,1.83.65.41,1.36.61,2.13.61.84,0,1.52-.25,2.05-.74.53-.49.88-1.2,1.05-2.11l2.04-10.21H5.88l1.33-6.59h17.43l-3.26,16.28c-.49,2.49-1.26,4.48-2.29,5.98-1.04,1.49-2.36,2.57-3.98,3.24s-3.52,1-5.72,1Z"/>
      <path class="cls-2" d="m36.52,77.21c-2.69,0-4.93-.51-6.73-1.54-1.8-1.02-3.08-2.45-3.83-4.29s-.88-3.98-.39-6.42l2.85-14.25h8.73l-2.81,14.1c-.17.91-.23,1.7-.19,2.37.05.67.22,1.22.5,1.67.28.44.67.77,1.17.98.49.21,1.08.31,1.78.31.84,0,1.56-.17,2.16-.52.6-.34,1.11-.91,1.52-1.7.41-.79.73-1.83.98-3.11l2.81-14.1h8.58l-2.92,14.62c-.76,3.87-2.33,6.82-4.7,8.84-2.37,2.02-5.54,3.03-9.51,3.03Z"/>
      <path class="cls-2" d="m62.75,77.21c-1.53,0-3-.11-4.4-.33-1.41-.22-2.68-.54-3.83-.94s-2.14-.86-2.98-1.35l3.37-6.44c.96.54,1.93.99,2.9,1.35.97.36,1.95.62,2.92.79.97.17,1.94.26,2.9.26.76,0,1.4-.06,1.91-.18.51-.12.89-.3,1.15-.54.26-.23.39-.5.39-.8,0-.39-.22-.71-.67-.96-.44-.25-1.03-.47-1.76-.67-.73-.2-1.53-.4-2.41-.61s-1.76-.48-2.65-.81c-.89-.33-1.7-.76-2.42-1.28-.73-.52-1.31-1.17-1.76-1.96-.44-.79-.67-1.75-.67-2.89,0-1.97.52-3.69,1.57-5.14,1.05-1.46,2.55-2.58,4.51-3.38s4.3-1.2,7.01-1.2c1.92,0,3.72.19,5.38.57,1.67.38,3.1.93,4.31,1.65l-3.15,6.36c-1.04-.64-2.16-1.12-3.39-1.44-1.22-.32-2.46-.48-3.72-.48-.84,0-1.54.08-2.11.24-.57.16-.99.38-1.28.65-.28.27-.43.56-.43.85,0,.39.22.72.67.98.44.26,1.04.48,1.78.67.74.18,1.55.38,2.42.59.88.21,1.75.47,2.63.78s1.68.72,2.42,1.22c.74.51,1.33,1.15,1.78,1.92s.67,1.73.67,2.87c0,1.92-.53,3.61-1.59,5.05-1.06,1.44-2.57,2.57-4.53,3.39-1.96.81-4.29,1.22-6.97,1.22Z"/>
      <path class="cls-2" d="m91.35,77.21c-2.69,0-5.01-.49-6.97-1.48-1.96-.99-3.48-2.35-4.55-4.09-1.07-1.74-1.61-3.74-1.61-6.01s.4-4.38,1.2-6.27c.8-1.89,1.93-3.52,3.39-4.9,1.46-1.38,3.18-2.45,5.18-3.2,2-.75,4.18-1.13,6.55-1.13,2.69,0,5.01.49,6.97,1.48s3.48,2.35,4.55,4.09c1.07,1.74,1.61,3.74,1.61,6.01s-.4,4.38-1.2,6.27c-.8,1.89-1.93,3.52-3.39,4.9-1.46,1.38-3.18,2.45-5.18,3.2-2,.75-4.18,1.13-6.55,1.13Zm6.92,5.96c-2.81,0-5.19-.62-7.14-1.87-1.95-1.25-3.54-3.18-4.77-5.79l9.43-1.85c.35,1.36.77,2.27,1.28,2.74.51.47,1.18.7,2.02.7.64,0,1.3-.14,1.98-.43.68-.28,1.3-.67,1.87-1.17l3.15,5.07c-.94.86-2.08,1.51-3.44,1.94-1.36.43-2.81.65-4.37.65Zm-6.18-13.02c1.08,0,2.04-.21,2.87-.63.83-.42,1.54-1,2.13-1.74.59-.74,1.04-1.58,1.33-2.54.3-.95.44-1.95.44-3.01s-.2-1.89-.61-2.65c-.41-.75-.99-1.34-1.74-1.76-.75-.42-1.66-.63-2.72-.63s-2.01.21-2.85.63c-.84.42-1.55,1-2.15,1.74-.59.74-1.04,1.58-1.33,2.53-.3.95-.44,1.96-.44,3.02,0,.99.2,1.86.61,2.63.41.76.99,1.36,1.74,1.78.75.42,1.66.63,2.72.63Z"/>
      <path class="cls-2" d="m121.21,77.21c-2.69,0-4.93-.51-6.73-1.54-1.8-1.02-3.08-2.45-3.83-4.29s-.88-3.98-.39-6.42l2.85-14.25h8.73l-2.81,14.1c-.17.91-.23,1.7-.19,2.37.05.67.22,1.22.5,1.67.28.44.67.77,1.17.98.49.21,1.08.31,1.78.31.84,0,1.56-.17,2.16-.52.6-.34,1.11-.91,1.52-1.7.41-.79.73-1.83.98-3.11l2.81-14.1h8.58l-2.92,14.62c-.76,3.87-2.33,6.82-4.7,8.84-2.37,2.02-5.54,3.03-9.51,3.03Z"/>
      <path class="cls-2" d="m139.75,61.82l1.67-11.1h7.03l-2.77,11.1h-5.92Z"/>
      <path class="cls-2" d="m142.27,76.62l16.5-25.9h8.58l6.14,25.9h-8.7l-4.18-21.87h3.4l-12.54,21.87h-9.21Zm7.62-4.51l3.48-6.29h11.91l.96,6.29h-16.35Zm11.91-23.5l-6.1-5.92h7.96l3.7,5.92h-5.55Z"/>
      <path class="cls-1" d="m198.25,77.21c-2.15,0-4.06-.39-5.73-1.18-1.68-.79-2.99-1.96-3.94-3.52-.95-1.55-1.42-3.49-1.42-5.81,0-1.5.2-3.04.61-4.61.41-1.57,1.04-3.06,1.91-4.5.86-1.43,1.95-2.71,3.27-3.83,1.32-1.12,2.89-2.01,4.7-2.66,1.81-.65,3.88-.98,6.2-.98,1.6,0,3.14.18,4.61.54,1.47.36,2.65.86,3.53,1.5l-3.96,5.99c-.69-.47-1.42-.8-2.18-.98-.76-.19-1.59-.28-2.48-.28-.81,0-1.55.09-2.22.28-.67.18-1.26.46-1.78.81-.52.36-.97.79-1.35,1.29-.38.51-.7,1.07-.96,1.7-.26.63-.46,1.31-.61,2.05-.07.37-.12.73-.15,1.09-.02.36-.05.72-.07,1.09l-1.81-1.07c.57-.96,1.2-1.76,1.89-2.39.69-.63,1.47-1.1,2.33-1.42.86-.32,1.84-.48,2.92-.48,1.38,0,2.69.28,3.92.85,1.23.57,2.24,1.41,3.02,2.52.78,1.11,1.17,2.48,1.17,4.11,0,2-.49,3.74-1.46,5.22-.97,1.48-2.32,2.63-4.03,3.44-1.71.81-3.68,1.22-5.9,1.22Zm-.04-6.03c.79,0,1.47-.26,2.03-.79s.85-1.25.85-2.17c0-.71-.22-1.28-.65-1.7-.43-.42-1.03-.63-1.79-.63-.54,0-1.03.12-1.46.35-.43.24-.78.57-1.04,1-.26.43-.39.94-.39,1.54,0,.47.09.88.28,1.24s.46.64.83.85c.37.21.81.31,1.33.31Z"/>
      <path class="cls-1" d="m222.7,77.21c-2.15,0-4.06-.39-5.73-1.18-1.68-.79-2.99-1.96-3.94-3.52-.95-1.55-1.42-3.49-1.42-5.81,0-1.5.2-3.04.61-4.61.41-1.57,1.04-3.06,1.91-4.5.86-1.43,1.95-2.71,3.27-3.83,1.32-1.12,2.89-2.01,4.7-2.66,1.81-.65,3.88-.98,6.2-.98,1.6,0,3.14.18,4.61.54,1.47.36,2.65.86,3.53,1.5l-3.96,5.99c-.69-.47-1.42-.8-2.18-.98-.76-.19-1.59-.28-2.48-.28-.81,0-1.55.09-2.22.28-.67.18-1.26.46-1.78.81-.52.36-.97.79-1.35,1.29-.38.51-.7,1.07-.96,1.7-.26.63-.46,1.31-.61,2.05-.07.37-.12.73-.15,1.09-.02.36-.05.72-.07,1.09l-1.81-1.07c.57-.96,1.2-1.76,1.89-2.39.69-.63,1.47-1.1,2.33-1.42.86-.32,1.84-.48,2.92-.48,1.38,0,2.69.28,3.92.85,1.23.57,2.24,1.41,3.02,2.52.78,1.11,1.17,2.48,1.17,4.11,0,2-.49,3.74-1.46,5.22-.97,1.48-2.32,2.63-4.03,3.44-1.71.81-3.68,1.22-5.9,1.22Zm-.04-6.03c.79,0,1.47-.26,2.03-.79s.85-1.25.85-2.17c0-.71-.22-1.28-.65-1.7-.43-.42-1.03-.63-1.79-.63-.54,0-1.03.12-1.46.35-.43.24-.78.57-1.04,1-.26.43-.39.94-.39,1.54,0,.47.09.88.28,1.24s.46.64.83.85c.37.21.81.31,1.33.31Z"/>
      <path class="cls-1" d="m257.3,77.21c-2.02,0-3.79-.4-5.29-1.2-1.5-.8-2.67-1.96-3.5-3.46-.83-1.5-1.24-3.33-1.24-5.48,0-2.44.35-4.69,1.04-6.75.69-2.06,1.67-3.85,2.92-5.38s2.74-2.71,4.46-3.55c1.71-.84,3.58-1.26,5.61-1.26s3.79.4,5.29,1.18c1.5.79,2.67,1.94,3.5,3.46.83,1.52,1.24,3.35,1.24,5.5,0,2.44-.35,4.69-1.04,6.75-.69,2.06-1.67,3.85-2.92,5.38-1.26,1.53-2.74,2.71-4.46,3.55s-3.58,1.26-5.61,1.26Zm.89-6.99c.76,0,1.42-.34,1.98-1.02.56-.68,1.01-1.54,1.37-2.57.36-1.04.62-2.1.8-3.2.17-1.1.26-2.08.26-2.94,0-1.28-.2-2.17-.61-2.65-.41-.48-.93-.72-1.57-.72-.76,0-1.42.34-1.98,1.02-.55.68-1.01,1.54-1.37,2.57-.36,1.04-.62,2.1-.8,3.2-.17,1.1-.26,2.08-.26,2.94,0,1.28.21,2.16.63,2.65.42.48.94.72,1.55.72Z"/>
      <path class="cls-1" d="m282.9,77.21c-2.02,0-3.79-.4-5.29-1.2-1.5-.8-2.67-1.96-3.5-3.46-.83-1.5-1.24-3.33-1.24-5.48,0-2.44.35-4.69,1.04-6.75.69-2.06,1.67-3.85,2.92-5.38s2.74-2.71,4.46-3.55c1.71-.84,3.58-1.26,5.61-1.26s3.79.4,5.29,1.18,2.67,1.94,3.5,3.46c.83,1.52,1.24,3.35,1.24,5.5,0,2.44-.35,4.69-1.04,6.75-.69,2.06-1.66,3.85-2.92,5.38s-2.74,2.71-4.46,3.55c-1.71.84-3.58,1.26-5.61,1.26Zm.89-6.99c.76,0,1.42-.34,1.98-1.02.56-.68,1.01-1.54,1.37-2.57.36-1.04.62-2.1.8-3.2.17-1.1.26-2.08.26-2.94,0-1.28-.2-2.17-.61-2.65-.41-.48-.93-.72-1.57-.72-.76,0-1.42.34-1.98,1.02-.55.68-1.01,1.54-1.37,2.57-.36,1.04-.62,2.1-.8,3.2-.17,1.1-.26,2.08-.26,2.94,0,1.28.21,2.16.63,2.65.42.48.94.72,1.55.72Z"/>
      <path class="cls-1" d="m308.51,77.21c-2.02,0-3.79-.4-5.29-1.2-1.5-.8-2.67-1.96-3.5-3.46-.83-1.5-1.24-3.33-1.24-5.48,0-2.44.34-4.69,1.04-6.75.69-2.06,1.67-3.85,2.92-5.38s2.74-2.71,4.46-3.55c1.71-.84,3.58-1.26,5.61-1.26s3.79.4,5.29,1.18c1.5.79,2.67,1.94,3.5,3.46.83,1.52,1.24,3.35,1.24,5.5,0,2.44-.35,4.69-1.04,6.75s-1.67,3.85-2.92,5.38-2.74,2.71-4.46,3.55c-1.71.84-3.58,1.26-5.61,1.26Zm.89-6.99c.76,0,1.42-.34,1.98-1.02.55-.68,1.01-1.54,1.37-2.57.36-1.04.62-2.1.79-3.2s.26-2.08.26-2.94c0-1.28-.2-2.17-.61-2.65-.41-.48-.93-.72-1.57-.72-.76,0-1.42.34-1.98,1.02-.55.68-1.01,1.54-1.37,2.57s-.62,2.1-.79,3.2c-.17,1.1-.26,2.08-.26,2.94,0,1.28.21,2.16.63,2.65.42.48.94.72,1.55.72Z"/>
      <path class="cls-1" d="m348.65,77.21c-2.66,0-5-.49-6.99-1.46-2-.97-3.55-2.33-4.64-4.07s-1.65-3.76-1.65-6.05.4-4.35,1.2-6.25c.8-1.9,1.93-3.54,3.39-4.92,1.46-1.38,3.18-2.45,5.18-3.2,2-.75,4.19-1.13,6.59-1.13s4.7.44,6.62,1.33,3.35,2.17,4.29,3.85l-6.29,4.92c-.54-.96-1.25-1.71-2.11-2.24-.86-.53-1.89-.79-3.07-.79-1.04,0-1.98.19-2.83.57-.85.38-1.58.92-2.2,1.63-.62.7-1.1,1.54-1.44,2.5-.35.96-.52,2.02-.52,3.18,0,1.01.22,1.9.67,2.66.44.76,1.07,1.36,1.87,1.78.8.42,1.73.63,2.79.63s2-.23,2.98-.7c.97-.47,1.91-1.23,2.79-2.29l5.14,4.92c-1.58,1.92-3.34,3.26-5.27,4.01-1.94.75-4.1,1.13-6.49,1.13Z"/>
      <path class="cls-1" d="m358.27,76.62l16.5-25.9h8.58l6.14,25.9h-8.7l-4.18-21.87h3.4l-12.54,21.87h-9.21Zm7.62-4.51l3.48-6.29h11.91l.96,6.29h-16.35Z"/>
      <path class="cls-1" d="m390.9,76.62l5.18-25.9h11.69c2.74,0,5.09.44,7.07,1.33,1.97.89,3.49,2.15,4.55,3.79,1.06,1.64,1.59,3.6,1.59,5.86s-.4,4.35-1.2,6.18c-.8,1.83-1.92,3.39-3.37,4.7-1.44,1.31-3.15,2.31-5.12,3-1.97.69-4.14,1.04-6.51,1.04h-13.88Zm10.1-6.81h4.07c1.55,0,2.85-.34,3.9-1.02,1.05-.68,1.84-1.59,2.39-2.74.54-1.15.81-2.42.81-3.83,0-1.01-.2-1.86-.61-2.55-.41-.69-1.01-1.22-1.81-1.59-.8-.37-1.79-.55-2.98-.55h-3.33l-2.44,12.28Z"/>
      <path class="cls-1" d="m434.45,66.82l1.26-6.29h18.87l-1.26,6.29h-18.87Zm4.92,5.92l3.63-18.13h6.66l-3.63,18.13h-6.66Z"/>
      <path class="cls-1" d="m475.3,77.21c-1.85,0-3.63-.22-5.35-.67-1.71-.44-3.26-1.12-4.64-2.04l3.96-6.07c1.01.64,2.1,1.12,3.27,1.42,1.17.31,2.29.46,3.35.46,1.21,0,2.13-.19,2.77-.57s.96-.92.96-1.61c0-.54-.23-.96-.7-1.26-.47-.3-1.31-.44-2.52-.44h-7.88l4.44-15.73h17.21l-1.33,6.59h-14.13l5.14-3.74-2.78,10.03-3.63-3.74h5.33c3.08,0,5.46.61,7.14,1.83s2.52,3.04,2.52,5.46c0,2.1-.57,3.9-1.72,5.4-1.15,1.5-2.71,2.66-4.7,3.46-1.99.8-4.22,1.2-6.72,1.2Z"/>
      <path class="cls-1" d="m500.76,77.21c-2.02,0-3.79-.4-5.29-1.2-1.5-.8-2.67-1.96-3.5-3.46-.83-1.5-1.24-3.33-1.24-5.48,0-2.44.34-4.69,1.04-6.75.69-2.06,1.67-3.85,2.92-5.38s2.74-2.71,4.46-3.55c1.71-.84,3.58-1.26,5.61-1.26s3.79.4,5.29,1.18c1.5.79,2.67,1.94,3.5,3.46.83,1.52,1.24,3.35,1.24,5.5,0,2.44-.35,4.69-1.04,6.75s-1.67,3.85-2.92,5.38-2.74,2.71-4.46,3.55c-1.71.84-3.58,1.26-5.61,1.26Zm.89-6.99c.76,0,1.42-.34,1.98-1.02.55-.68,1.01-1.54,1.37-2.57.36-1.04.62-2.1.79-3.2s.26-2.08.26-2.94c0-1.28-.2-2.17-.61-2.65-.41-.48-.93-.72-1.57-.72-.76,0-1.42.34-1.98,1.02-.55.68-1.01,1.54-1.37,2.57s-.62,2.1-.79,3.2c-.17,1.1-.26,2.08-.26,2.94,0,1.28.21,2.16.63,2.65.42.48.94.72,1.55.72Z"/>
      <path class="cls-1" d="m534.91,76.62h-8.73l5.18-25.9h21.05l-1.33,6.59h-12.32l-3.85,19.31Zm2.37-14.87h11.4l-1.33,6.59h-11.36l1.29-6.59Z"/>
      <path class="cls-1" d="m560.29,77.21c-1.53,0-3-.11-4.4-.33-1.41-.22-2.68-.54-3.83-.94-1.15-.41-2.14-.86-2.98-1.35l3.37-6.44c.96.54,1.93.99,2.91,1.35.97.36,1.95.62,2.92.79.97.17,1.94.26,2.9.26.76,0,1.4-.06,1.91-.18.51-.12.89-.3,1.15-.54.26-.23.39-.5.39-.8,0-.39-.22-.71-.67-.96-.44-.25-1.03-.47-1.76-.67s-1.53-.4-2.41-.61c-.88-.21-1.76-.48-2.65-.81s-1.7-.76-2.42-1.28-1.31-1.17-1.76-1.96c-.44-.79-.67-1.75-.67-2.89,0-1.97.52-3.69,1.57-5.14,1.05-1.46,2.55-2.58,4.51-3.38s4.3-1.2,7.01-1.2c1.92,0,3.72.19,5.38.57,1.67.38,3.1.93,4.31,1.65l-3.15,6.36c-1.04-.64-2.16-1.12-3.38-1.44-1.22-.32-2.46-.48-3.72-.48-.84,0-1.54.08-2.11.24-.57.16-.99.38-1.28.65-.28.27-.43.56-.43.85,0,.39.22.72.67.98.44.26,1.04.48,1.78.67.74.18,1.55.38,2.42.59.88.21,1.75.47,2.63.78.88.31,1.68.72,2.42,1.22.74.51,1.33,1.15,1.78,1.92s.67,1.73.67,2.87c0,1.92-.53,3.61-1.59,5.05-1.06,1.44-2.57,2.57-4.53,3.39-1.96.81-4.29,1.22-6.97,1.22Z"/>
    </g>
  </g>
</svg>