<?xml version="1.0" encoding="UTF-8"?>
<svg id="_Слой_2" data-name="Слой 2" xmlns="http://www.w3.org/2000/svg" viewBox="0 0 568.84 79.64">
  <defs>
    <style>
      .cls-1 {
        fill: #fff;
      }

      .cls-1, .cls-2 {
        stroke-width: 0px;
      }

      .cls-2 {
        fill: #029df6;
      }
    </style>
  </defs>
  <g id="_Слой_2-2" data-name="Слой 2">
    <g>
      <path class="cls-1" d="m0,32.22L6.43.72h17.03c3.82,0,6.7.65,8.63,1.96,1.93,1.31,2.89,3.16,2.89,5.56,0,1.95-.57,3.6-1.72,4.95s-2.72,2.38-4.73,3.08c-2,.71-4.31,1.06-6.91,1.06l1.38-2.43c3.27,0,5.85.64,7.73,1.91,1.88,1.28,2.82,3.07,2.82,5.38s-.68,4.21-2.04,5.69c-1.36,1.49-3.17,2.58-5.44,3.29-2.27.71-4.77,1.06-7.53,1.06H0Zm12.16-7.42h6.98c1.07,0,1.95-.24,2.64-.72.69-.48,1.03-1.2,1.03-2.16,0-.69-.27-1.21-.8-1.55-.54-.34-1.16-.52-1.86-.52h-7.71l1.42-7.02h6.24c.83,0,1.51-.11,2.04-.34.53-.23.92-.54,1.17-.95.24-.41.37-.89.37-1.46,0-.66-.25-1.15-.76-1.46-.5-.32-1.2-.47-2.09-.47h-5.28l-3.4,16.65Z"/>
      <path class="cls-1" d="m53.56,32.94c-3.34,0-6.22-.6-8.65-1.8-2.43-1.2-4.31-2.86-5.65-4.97s-2-4.55-2-7.31.5-5.33,1.49-7.63c.99-2.29,2.39-4.28,4.2-5.96,1.8-1.68,3.95-2.98,6.43-3.89s5.19-1.37,8.12-1.37c3.33,0,6.22.6,8.65,1.8s4.31,2.86,5.65,4.97c1.33,2.11,2,4.55,2,7.31s-.5,5.33-1.49,7.63c-1,2.29-2.4,4.28-4.2,5.96-1.81,1.68-3.95,2.98-6.43,3.89s-5.19,1.37-8.12,1.37Zm.92-8.59c1.35,0,2.53-.25,3.56-.77,1.02-.51,1.9-1.21,2.64-2.11.73-.9,1.29-1.93,1.65-3.08.37-1.15.55-2.38.55-3.67s-.25-2.3-.76-3.22-1.22-1.63-2.16-2.14c-.93-.51-2.06-.76-3.37-.76s-2.49.25-3.53.76c-1.04.51-1.93,1.21-2.66,2.12-.73.9-1.29,1.93-1.65,3.08-.37,1.16-.55,2.38-.55,3.67,0,1.2.25,2.27.76,3.2s1.22,1.65,2.16,2.16c.93.51,2.06.77,3.37.77Z"/>
      <path class="cls-1" d="m74.4,32.22L80.83.72h8.9l12.07,19.17h-3.76l3.9-19.17h10.56l-6.43,31.5h-8.9l-12.07-19.17h3.76l-3.9,19.17h-10.56Z"/>
      <path class="cls-1" d="m127.51,32.94c-3.34,0-6.12-.62-8.35-1.87-2.23-1.25-3.82-2.99-4.75-5.22-.93-2.23-1.09-4.84-.48-7.81l3.53-17.33h10.83l-3.49,17.14c-.21,1.11-.29,2.07-.23,2.88.06.81.27,1.49.62,2.03.35.54.83.94,1.45,1.19.61.25,1.35.38,2.2.38,1.04,0,1.94-.21,2.69-.63.75-.42,1.38-1.11,1.88-2.07s.91-2.22,1.22-3.78l3.49-17.14h10.65l-3.63,17.77c-.95,4.71-2.89,8.3-5.83,10.75-2.94,2.46-6.87,3.69-11.8,3.69Z"/>
      <path class="cls-1" d="m160.05,32.94c-1.9,0-3.72-.13-5.46-.4-1.74-.27-3.33-.65-4.75-1.15s-2.65-1.04-3.69-1.64l4.18-7.83c1.19.66,2.39,1.21,3.6,1.64,1.21.44,2.42.76,3.63.97,1.21.21,2.41.32,3.6.32.95,0,1.74-.08,2.36-.23.63-.15,1.1-.37,1.42-.65s.48-.61.48-.97c0-.48-.28-.87-.83-1.17-.55-.3-1.28-.57-2.18-.81-.9-.24-1.9-.49-2.98-.74-1.09-.25-2.18-.59-3.28-.99-1.1-.41-2.1-.92-3.01-1.55-.9-.63-1.63-1.42-2.18-2.38s-.83-2.13-.83-3.51c0-2.4.65-4.49,1.95-6.26,1.3-1.77,3.17-3.14,5.6-4.12,2.43-.97,5.33-1.46,8.7-1.46,2.39,0,4.61.23,6.68.7s3.85,1.13,5.35,2l-3.9,7.74c-1.29-.78-2.69-1.36-4.2-1.75-1.51-.39-3.05-.58-4.61-.58-1.04,0-1.91.1-2.62.29-.7.2-1.23.46-1.58.79-.35.33-.53.67-.53,1.04,0,.48.28.88.83,1.19.55.31,1.29.58,2.2.81.92.23,1.92.47,3.01.72,1.09.26,2.17.57,3.26.95,1.09.38,2.09.87,3.01,1.49.92.62,1.65,1.39,2.2,2.34s.83,2.11.83,3.49c0,2.34-.66,4.39-1.97,6.14-1.32,1.75-3.19,3.13-5.62,4.12-2.43.99-5.32,1.49-8.65,1.49Z"/>
      <path class="cls-1" d="m191.22,32.22l6.43-31.5h14.5c3.4,0,6.32.54,8.77,1.62,2.45,1.08,4.33,2.62,5.65,4.61,1.32,2,1.97,4.37,1.97,7.13s-.5,5.29-1.49,7.51c-1,2.22-2.39,4.12-4.18,5.71-1.79,1.59-3.91,2.81-6.36,3.65-2.45.84-5.14,1.26-8.08,1.26h-17.21Zm12.53-8.28h5.05c1.93,0,3.54-.41,4.84-1.24,1.3-.83,2.29-1.94,2.96-3.33.67-1.4,1.01-2.95,1.01-4.66,0-1.23-.25-2.26-.76-3.11-.5-.84-1.26-1.49-2.25-1.93-1-.45-2.23-.68-3.7-.68h-4.13l-3.03,14.94Z"/>
      <path class="cls-1" d="m229.13,32.22l6.43-31.5h10.83l-6.43,31.5h-10.83Z"/>
      <path class="cls-1" d="m258.97,32.22l6.43-31.5h17.03c3.82,0,6.7.65,8.63,1.96,1.93,1.31,2.89,3.16,2.89,5.56,0,1.95-.57,3.6-1.72,4.95s-2.72,2.38-4.73,3.08c-2,.71-4.31,1.06-6.91,1.06l1.38-2.43c3.27,0,5.85.64,7.73,1.91,1.88,1.28,2.82,3.07,2.82,5.38s-.68,4.21-2.04,5.69c-1.36,1.49-3.18,2.58-5.44,3.29-2.27.71-4.77,1.06-7.53,1.06h-18.54Zm12.16-7.42h6.98c1.07,0,1.95-.24,2.64-.72.69-.48,1.03-1.2,1.03-2.16,0-.69-.27-1.21-.8-1.55-.54-.34-1.16-.52-1.86-.52h-7.71l1.42-7.02h6.24c.83,0,1.51-.11,2.04-.34.53-.23.92-.54,1.17-.95.24-.41.37-.89.37-1.46,0-.66-.25-1.15-.76-1.46-.5-.32-1.2-.47-2.09-.47h-5.28l-3.4,16.65Z"/>
      <path class="cls-1" d="m306.7,24.21h16.11l-1.65,8.01h-26.71l6.43-31.5h26.12l-1.65,8.01h-15.47l-3.17,15.48Zm1.7-11.79h14.32l-1.56,7.65h-14.32l1.56-7.65Z"/>
      <path class="cls-1" d="m325.34,32.22l6.43-31.5h8.91l12.07,19.17h-3.76l3.9-19.17h10.56l-6.43,31.5h-8.9l-12.07-19.17h3.76l-3.9,19.17h-10.56Z"/>
      <path class="cls-1" d="m372.34,32.22l-7.16-31.5h11.11l5.78,26.68h-7.07L391.89.72h11.11l-20.01,31.5h-10.65Z"/>
      <path class="cls-1" d="m409.89,24.21h16.11l-1.65,8.01h-26.71l6.43-31.5h26.12l-1.65,8.01h-15.47l-3.17,15.48Zm1.7-11.79h14.32l-1.56,7.65h-14.32l1.56-7.65Z"/>
      <path class="cls-1" d="m428.52,32.22l6.43-31.5h8.91l12.07,19.17h-3.76l3.9-19.17h10.56l-6.43,31.5h-8.9l-12.07-19.17h3.76l-3.9,19.17h-10.56Z"/>
      <path class="cls-1" d="m481.63,32.94c-3.34,0-6.12-.62-8.35-1.87-2.23-1.25-3.82-2.99-4.75-5.22-.93-2.23-1.09-4.84-.48-7.81l3.53-17.33h10.83l-3.49,17.14c-.21,1.11-.29,2.07-.23,2.88.06.81.27,1.49.62,2.03.35.54.83.94,1.45,1.19.61.25,1.35.38,2.2.38,1.04,0,1.93-.21,2.68-.63s1.38-1.11,1.88-2.07.91-2.22,1.22-3.78l3.49-17.14h10.65l-3.63,17.77c-.95,4.71-2.89,8.3-5.83,10.75-2.94,2.46-6.87,3.69-11.8,3.69Z"/>
      <path class="cls-1" d="m507.93,32.22l4.73-23.27h-9.41l1.7-8.23h29.65l-1.7,8.23h-9.41l-4.73,23.27h-10.83Z"/>
      <path class="cls-1" d="m548.6,32.94c-3.34,0-6.22-.6-8.65-1.8s-4.31-2.86-5.65-4.97-2-4.55-2-7.31.5-5.33,1.49-7.63c.99-2.29,2.39-4.28,4.2-5.96,1.81-1.68,3.95-2.98,6.43-3.89,2.48-.92,5.19-1.37,8.12-1.37,3.33,0,6.22.6,8.65,1.8,2.43,1.2,4.31,2.86,5.65,4.97,1.33,2.11,2,4.55,2,7.31s-.5,5.33-1.49,7.63c-1,2.29-2.39,4.28-4.2,5.96s-3.95,2.98-6.43,3.89-5.19,1.37-8.12,1.37Zm.92-8.59c1.35,0,2.53-.25,3.56-.77,1.03-.51,1.91-1.21,2.64-2.11.73-.9,1.29-1.93,1.65-3.08.37-1.15.55-2.38.55-3.67s-.25-2.3-.76-3.22-1.22-1.63-2.16-2.14c-.93-.51-2.06-.76-3.37-.76s-2.5.25-3.53.76c-1.04.51-1.93,1.21-2.66,2.12-.74.9-1.29,1.93-1.65,3.08-.37,1.16-.55,2.38-.55,3.67,0,1.2.25,2.27.76,3.2s1.22,1.65,2.16,2.16c.93.51,2.06.77,3.37.77Z"/>
      <path class="cls-2" d="m13.26,79.02H4.06l5.46-27.3h22.19l-1.4,6.94h-12.99l-4.06,20.36Zm2.5-15.68h12.01l-1.4,6.94h-11.97l1.36-6.94Z"/>
      <path class="cls-2" d="m29.18,79.02l5.46-27.3h9.2l-5.46,27.3h-9.2Z"/>
      <path class="cls-2" d="m42.83,79.02l5.46-27.3h7.57l10.26,16.61h-3.2l3.31-16.61h8.97l-5.46,27.3h-7.57l-10.26-16.61h3.2l-3.31,16.61h-8.97Z"/>
      <path class="cls-2" d="m89.55,79.64c-2.83,0-5.28-.52-7.35-1.56-2.07-1.04-3.67-2.48-4.8-4.31s-1.7-3.95-1.7-6.34.42-4.62,1.27-6.61c.84-1.99,2.03-3.71,3.57-5.17,1.53-1.46,3.35-2.58,5.46-3.37s4.41-1.19,6.9-1.19c2.83,0,5.28.52,7.35,1.56,2.07,1.04,3.67,2.48,4.8,4.31,1.13,1.83,1.7,3.95,1.7,6.34s-.42,4.62-1.27,6.61c-.85,1.99-2.03,3.71-3.57,5.17-1.53,1.46-3.35,2.58-5.46,3.37s-4.41,1.19-6.9,1.19Zm.78-7.45c1.14,0,2.15-.22,3.02-.66.87-.44,1.62-1.05,2.24-1.83.62-.78,1.09-1.67,1.4-2.67s.47-2.06.47-3.18-.21-2-.64-2.79c-.43-.79-1.04-1.41-1.83-1.85s-1.75-.66-2.87-.66-2.12.22-3,.66c-.88.44-1.64,1.05-2.26,1.83-.62.78-1.09,1.67-1.4,2.67-.31,1-.47,2.06-.47,3.18,0,1.04.21,1.96.64,2.77.43.81,1.04,1.43,1.83,1.87.79.44,1.75.66,2.87.66Z"/>
      <path class="cls-2" d="m115.99,79.02l17.39-27.3h9.05l6.47,27.3h-9.16l-4.41-23.05h3.59l-13.22,23.05h-9.71Zm8.03-4.76l3.67-6.63h12.56l1.01,6.63h-17.24Z"/>
      <path class="cls-1" d="m161.7,74.34l1.17-5.85,14.62-16.77h9.75l-14.2,16.77-4.33-1.29h21.14l-1.44,7.14h-26.71Zm13.22,4.68l.94-4.68,1.87-7.14.82-4.17h8.5l-3.2,15.99h-8.93Z"/>
      <path class="cls-1" d="m199.06,79.64c-1.95,0-3.83-.23-5.64-.7-1.81-.47-3.44-1.18-4.89-2.14l4.17-6.4c1.07.68,2.22,1.18,3.45,1.5,1.23.33,2.41.49,3.53.49,1.27,0,2.25-.2,2.93-.6.68-.4,1.01-.97,1.01-1.7,0-.57-.25-1.01-.74-1.33-.49-.31-1.38-.47-2.65-.47h-8.31l4.68-16.58h18.13l-1.4,6.94h-14.9l5.42-3.94-2.93,10.57-3.82-3.94h5.62c3.25,0,5.76.64,7.53,1.93,1.77,1.29,2.65,3.2,2.65,5.75,0,2.21-.6,4.11-1.81,5.69s-2.86,2.8-4.95,3.65c-2.09.84-4.45,1.27-7.08,1.27Z"/>
      <path class="cls-1" d="m237.59,79.64c-2.13,0-3.99-.42-5.58-1.27-1.59-.84-2.81-2.06-3.69-3.65-.87-1.59-1.31-3.51-1.31-5.77,0-2.57.36-4.95,1.09-7.12.73-2.17,1.75-4.06,3.08-5.67,1.33-1.61,2.89-2.86,4.7-3.74s3.78-1.33,5.91-1.33,3.99.42,5.58,1.25c1.59.83,2.81,2.05,3.69,3.65.87,1.6,1.31,3.53,1.31,5.79,0,2.57-.36,4.95-1.09,7.12-.73,2.17-1.75,4.06-3.08,5.67-1.33,1.61-2.89,2.86-4.7,3.74s-3.78,1.33-5.91,1.33Zm.94-7.37c.81,0,1.5-.36,2.09-1.07s1.07-1.62,1.44-2.71c.38-1.09.66-2.22.84-3.37.18-1.16.27-2.19.27-3.1,0-1.35-.21-2.28-.64-2.79-.43-.51-.98-.76-1.66-.76-.81,0-1.5.36-2.09,1.07-.58.72-1.07,1.62-1.44,2.71-.38,1.09-.66,2.22-.84,3.37-.18,1.16-.27,2.19-.27,3.1,0,1.35.22,2.28.66,2.79.44.51.99.76,1.64.76Z"/>
      <path class="cls-1" d="m264.58,79.64c-2.13,0-3.99-.42-5.58-1.27-1.59-.84-2.81-2.06-3.69-3.65-.87-1.59-1.31-3.51-1.31-5.77,0-2.57.36-4.95,1.09-7.12.73-2.17,1.75-4.06,3.08-5.67,1.33-1.61,2.89-2.86,4.7-3.74s3.78-1.33,5.91-1.33,3.99.42,5.58,1.25c1.59.83,2.81,2.05,3.69,3.65.87,1.6,1.31,3.53,1.31,5.79,0,2.57-.36,4.95-1.09,7.12-.73,2.17-1.75,4.06-3.08,5.67-1.33,1.61-2.89,2.86-4.7,3.74s-3.78,1.33-5.91,1.33Zm.94-7.37c.81,0,1.5-.36,2.09-1.07s1.07-1.62,1.44-2.71c.38-1.09.66-2.22.84-3.37.18-1.16.27-2.19.27-3.1,0-1.35-.21-2.28-.64-2.79-.43-.51-.98-.76-1.66-.76-.81,0-1.5.36-2.09,1.07-.58.72-1.07,1.62-1.44,2.71-.38,1.09-.66,2.22-.84,3.37-.18,1.16-.27,2.19-.27,3.1,0,1.35.22,2.28.66,2.79.44.51.99.76,1.64.76Z"/>
      <path class="cls-1" d="m291.57,79.64c-2.13,0-3.99-.42-5.58-1.27-1.59-.84-2.82-2.06-3.69-3.65-.87-1.59-1.31-3.51-1.31-5.77,0-2.57.36-4.95,1.09-7.12.73-2.17,1.75-4.06,3.08-5.67s2.89-2.86,4.7-3.74c1.81-.88,3.78-1.33,5.91-1.33s3.99.42,5.58,1.25,2.81,2.05,3.69,3.65c.87,1.6,1.31,3.53,1.31,5.79,0,2.57-.36,4.95-1.09,7.12-.73,2.17-1.75,4.06-3.08,5.67-1.33,1.61-2.89,2.86-4.7,3.74-1.81.88-3.78,1.33-5.91,1.33Zm.94-7.37c.81,0,1.5-.36,2.09-1.07s1.07-1.62,1.44-2.71.66-2.22.84-3.37c.18-1.16.27-2.19.27-3.1,0-1.35-.21-2.28-.64-2.79-.43-.51-.98-.76-1.66-.76-.81,0-1.5.36-2.09,1.07-.58.72-1.07,1.62-1.44,2.71-.38,1.09-.66,2.22-.84,3.37-.18,1.16-.27,2.19-.27,3.1,0,1.35.22,2.28.66,2.79.44.51.99.76,1.64.76Z"/>
      <path class="cls-1" d="m328.77,72.08h13.69l-1.4,6.94h-22.7l5.46-27.3h22.19l-1.4,6.94h-13.14l-2.69,13.42Zm1.44-10.22h12.17l-1.33,6.63h-12.17l1.33-6.63Z"/>
      <path class="cls-1" d="m358.38,79.64c-2.83,0-5.2-.54-7.1-1.62-1.9-1.08-3.24-2.59-4.04-4.52-.79-1.94-.93-4.19-.41-6.77l3-15.01h9.2l-2.96,14.86c-.18.96-.25,1.79-.2,2.5s.23,1.29.53,1.75c.3.47.71.81,1.23,1.03.52.22,1.14.33,1.87.33.88,0,1.64-.18,2.28-.55.64-.36,1.17-.96,1.6-1.79s.77-1.92,1.03-3.28l2.96-14.86h9.05l-3.08,15.41c-.81,4.08-2.46,7.19-4.95,9.32-2.5,2.13-5.84,3.2-10.02,3.2Z"/>
      <path class="cls-1" d="m375.18,79.02l5.46-27.3h12.25c3.61,0,6.41.79,8.38,2.36,1.98,1.57,2.96,3.78,2.96,6.61,0,2.29-.57,4.29-1.7,6.01s-2.73,3.06-4.8,4.02c-2.07.96-4.5,1.44-7.31,1.44h-8.81l4.91-3.86-2.14,10.72h-9.2Zm11.12-9.63l-3.24-4.17h7.84c1.27,0,2.26-.32,2.96-.96.7-.64,1.05-1.53,1.05-2.67,0-.99-.31-1.7-.92-2.13-.61-.43-1.45-.64-2.52-.64h-7.14l4.91-4.29-2.96,14.86Zm5.58,9.63l-5.62-9.95h9.48l5.69,9.95h-9.56Z"/>
      <path class="cls-1" d="m417.93,68.69l1.33-6.63h19.89l-1.33,6.63h-19.89Zm5.19,6.24l3.82-19.11h7.02l-3.82,19.11h-7.02Z"/>
      <path class="cls-1" d="m460.98,79.64c-1.95,0-3.83-.23-5.64-.7-1.81-.47-3.44-1.18-4.89-2.14l4.17-6.4c1.07.68,2.22,1.18,3.45,1.5,1.23.33,2.41.49,3.53.49,1.27,0,2.25-.2,2.92-.6.68-.4,1.01-.97,1.01-1.7,0-.57-.25-1.01-.74-1.33-.49-.31-1.38-.47-2.65-.47h-8.31l4.68-16.58h18.13l-1.4,6.94h-14.9l5.42-3.94-2.92,10.57-3.82-3.94h5.62c3.25,0,5.76.64,7.53,1.93,1.77,1.29,2.65,3.2,2.65,5.75,0,2.21-.6,4.11-1.81,5.69s-2.86,2.8-4.95,3.65-4.45,1.27-7.08,1.27Z"/>
      <path class="cls-1" d="m487.82,79.64c-2.13,0-3.99-.42-5.58-1.27-1.59-.84-2.82-2.06-3.69-3.65-.87-1.59-1.31-3.51-1.31-5.77,0-2.57.36-4.95,1.09-7.12.73-2.17,1.75-4.06,3.08-5.67s2.89-2.86,4.7-3.74c1.81-.88,3.78-1.33,5.91-1.33s3.99.42,5.58,1.25,2.81,2.05,3.69,3.65c.87,1.6,1.31,3.53,1.31,5.79,0,2.57-.36,4.95-1.09,7.12-.73,2.17-1.75,4.06-3.08,5.67-1.33,1.61-2.89,2.86-4.7,3.74-1.81.88-3.78,1.33-5.91,1.33Zm.94-7.37c.81,0,1.5-.36,2.09-1.07s1.07-1.62,1.44-2.71.66-2.22.84-3.37c.18-1.16.27-2.19.27-3.1,0-1.35-.21-2.28-.64-2.79-.43-.51-.98-.76-1.66-.76-.81,0-1.5.36-2.09,1.07-.58.72-1.07,1.62-1.44,2.71-.38,1.09-.66,2.22-.84,3.37-.18,1.16-.27,2.19-.27,3.1,0,1.35.22,2.28.66,2.79.44.51.99.76,1.64.76Z"/>
      <path class="cls-1" d="m523.81,79.02h-9.2l5.46-27.3h22.19l-1.4,6.94h-12.99l-4.06,20.36Zm2.5-15.68h12.01l-1.4,6.94h-11.97l1.37-6.94Z"/>
      <path class="cls-1" d="m550.57,79.64c-1.61,0-3.16-.12-4.64-.35-1.48-.23-2.83-.57-4.04-1s-2.25-.9-3.14-1.42l3.55-6.79c1.01.57,2.03,1.05,3.06,1.42,1.03.38,2.05.66,3.08.84,1.03.18,2.05.27,3.06.27.8,0,1.47-.06,2.01-.19s.94-.32,1.21-.57c.27-.25.41-.53.41-.84,0-.42-.23-.75-.7-1.01s-1.09-.49-1.85-.7c-.77-.21-1.61-.42-2.54-.64-.92-.22-1.85-.51-2.79-.86-.94-.35-1.79-.8-2.55-1.34-.77-.55-1.38-1.24-1.85-2.07s-.7-1.85-.7-3.04c0-2.08.55-3.89,1.66-5.42,1.1-1.53,2.69-2.72,4.76-3.57,2.07-.84,4.53-1.27,7.39-1.27,2.03,0,3.92.2,5.67.6s3.27.98,4.54,1.74l-3.31,6.71c-1.09-.68-2.28-1.18-3.57-1.52-1.29-.34-2.59-.51-3.92-.51-.88,0-1.62.08-2.22.25-.6.17-1.05.4-1.35.68s-.45.58-.45.9c0,.42.23.76.7,1.03.47.27,1.09.51,1.87.7.78.2,1.63.4,2.55.62.92.22,1.85.49,2.77.82.92.33,1.77.75,2.55,1.29.78.53,1.4,1.21,1.87,2.03.47.82.7,1.83.7,3.02,0,2.03-.56,3.8-1.68,5.32-1.12,1.52-2.71,2.71-4.78,3.57s-4.52,1.29-7.35,1.29Z"/>
    </g>
  </g>
</svg>