<?xml version="1.0" encoding="UTF-8"?>
<svg id="_Слой_2" data-name="Слой 2" xmlns="http://www.w3.org/2000/svg" viewBox="0 0 571.23 84.12">
  <defs>
    <style>
      .cls-1 {
        fill: #fff;
      }

      .cls-1, .cls-2 {
        stroke-width: 0px;
      }

      .cls-2 {
        fill: #029df6;
      }
    </style>
  </defs>
  <g id="_Слой_2-2" data-name="Слой 2">
    <g>
      <path class="cls-1" d="m0,32.18l1.65-8.1L22.31.86h13.77l-20.05,23.22-6.11-1.78h29.85l-2.04,9.88H0Zm18.67,6.48l1.32-6.48,2.64-9.88,1.16-5.78h12.01l-4.52,22.14h-12.61Z"/>
      <path class="cls-1" d="m52.77,39.53c-2.75,0-5.41-.32-7.96-.97-2.55-.65-4.86-1.64-6.91-2.97l5.89-8.86c1.51.94,3.13,1.63,4.87,2.08,1.74.45,3.41.67,4.98.67,1.8,0,3.18-.28,4.13-.84.95-.56,1.43-1.34,1.43-2.35,0-.79-.35-1.4-1.05-1.84-.7-.43-1.95-.65-3.75-.65h-11.73L49.3.86h25.61l-1.98,9.61h-21.04l7.66-5.45-4.13,14.63-5.4-5.45h7.93c4.59,0,8.13.89,10.63,2.67,2.5,1.78,3.75,4.44,3.75,7.96,0,3.06-.85,5.69-2.56,7.88-1.71,2.2-4.04,3.88-7,5.05-2.96,1.17-6.29,1.76-10,1.76Z"/>
      <path class="cls-1" d="m107.19,39.53c-3.01,0-5.64-.59-7.88-1.76-2.24-1.17-3.98-2.85-5.21-5.05-1.23-2.2-1.85-4.86-1.85-7.99,0-3.56.51-6.85,1.54-9.85,1.03-3.01,2.48-5.62,4.35-7.86,1.87-2.23,4.08-3.96,6.64-5.18,2.55-1.22,5.33-1.84,8.34-1.84s5.64.58,7.88,1.73c2.24,1.15,3.97,2.83,5.2,5.05,1.23,2.21,1.85,4.89,1.85,8.02,0,3.56-.51,6.85-1.54,9.85-1.03,3.01-2.48,5.63-4.35,7.86-1.87,2.23-4.08,3.96-6.64,5.18-2.55,1.22-5.33,1.84-8.34,1.84Zm1.32-10.21c1.14,0,2.12-.5,2.95-1.49s1.51-2.24,2.04-3.75c.53-1.51.93-3.07,1.18-4.67.26-1.6.39-3.03.39-4.29,0-1.87-.3-3.16-.91-3.86-.61-.7-1.39-1.05-2.34-1.05-1.14,0-2.12.5-2.95,1.48-.83.99-1.51,2.24-2.04,3.75-.53,1.51-.93,3.07-1.18,4.67-.26,1.6-.39,3.03-.39,4.29,0,1.87.31,3.16.94,3.86.62.7,1.4,1.05,2.31,1.05Z"/>
      <path class="cls-1" d="m145.3,39.53c-3.01,0-5.64-.59-7.88-1.76-2.24-1.17-3.98-2.85-5.21-5.05-1.23-2.2-1.85-4.86-1.85-7.99,0-3.56.51-6.85,1.54-9.85,1.03-3.01,2.48-5.62,4.35-7.86,1.87-2.23,4.08-3.96,6.64-5.18,2.55-1.22,5.33-1.84,8.34-1.84s5.64.58,7.88,1.73c2.24,1.15,3.97,2.83,5.2,5.05,1.23,2.21,1.85,4.89,1.85,8.02,0,3.56-.51,6.85-1.54,9.85-1.03,3.01-2.48,5.63-4.35,7.86-1.87,2.23-4.08,3.96-6.64,5.18-2.55,1.22-5.33,1.84-8.34,1.84Zm1.32-10.21c1.14,0,2.12-.5,2.95-1.49s1.51-2.24,2.04-3.75c.53-1.51.93-3.07,1.18-4.67.26-1.6.39-3.03.39-4.29,0-1.87-.3-3.16-.91-3.86-.61-.7-1.39-1.05-2.34-1.05-1.14,0-2.12.5-2.95,1.48-.83.99-1.51,2.24-2.04,3.75-.53,1.51-.93,3.07-1.18,4.67-.26,1.6-.39,3.03-.39,4.29,0,1.87.31,3.16.94,3.86.62.7,1.4,1.05,2.31,1.05Z"/>
      <path class="cls-1" d="m183.42,39.53c-3.01,0-5.64-.59-7.88-1.76-2.24-1.17-3.98-2.85-5.21-5.05-1.23-2.2-1.85-4.86-1.85-7.99,0-3.56.51-6.85,1.54-9.85,1.03-3.01,2.48-5.62,4.35-7.86,1.87-2.23,4.08-3.96,6.64-5.18,2.55-1.22,5.33-1.84,8.34-1.84s5.64.58,7.88,1.73c2.24,1.15,3.97,2.83,5.2,5.05,1.23,2.21,1.85,4.89,1.85,8.02,0,3.56-.51,6.85-1.54,9.85-1.03,3.01-2.48,5.63-4.35,7.86-1.87,2.23-4.08,3.96-6.64,5.18-2.55,1.22-5.33,1.84-8.34,1.84Zm1.32-10.21c1.14,0,2.12-.5,2.95-1.49s1.51-2.24,2.04-3.75c.53-1.51.93-3.07,1.18-4.67.26-1.6.39-3.03.39-4.29,0-1.87-.3-3.16-.91-3.86-.61-.7-1.39-1.05-2.34-1.05-1.14,0-2.12.5-2.95,1.48-.83.99-1.51,2.24-2.04,3.75-.53,1.51-.93,3.07-1.18,4.67-.26,1.6-.39,3.03-.39,4.29,0,1.87.31,3.16.94,3.86.62.7,1.4,1.05,2.31,1.05Z"/>
      <path class="cls-1" d="m235.96,29.05h19.33l-1.98,9.61h-32.06L228.97.86h31.34l-1.98,9.61h-18.56l-3.8,18.58Zm2.04-14.15h17.19l-1.87,9.18h-17.18l1.87-9.18Z"/>
      <path class="cls-1" d="m277.77,39.53c-4,0-7.34-.75-10.02-2.24-2.68-1.49-4.58-3.58-5.7-6.26-1.12-2.68-1.31-5.8-.58-9.37l4.24-20.79h13l-4.19,20.57c-.26,1.33-.35,2.48-.28,3.46.07.97.32,1.78.74,2.43.42.65,1,1.12,1.74,1.43.73.31,1.62.46,2.64.46,1.25,0,2.32-.25,3.22-.76s1.65-1.33,2.26-2.48c.61-1.15,1.09-2.66,1.46-4.54l4.19-20.57h12.78l-4.35,21.33c-1.14,5.65-3.47,9.96-7,12.91-3.53,2.95-8.24,4.43-14.16,4.43Z"/>
      <path class="cls-1" d="m301.51,38.66l7.71-37.8h17.29c5.1,0,9.05,1.09,11.84,3.27,2.79,2.18,4.19,5.23,4.19,9.15,0,3.17-.8,5.94-2.4,8.32s-3.86,4.23-6.78,5.56c-2.92,1.33-6.36,2-10.33,2h-12.45l6.94-5.35-3.03,14.85h-13Zm15.7-13.34l-4.57-5.78h11.07c1.8,0,3.2-.44,4.19-1.32.99-.88,1.49-2.11,1.49-3.7,0-1.37-.43-2.35-1.29-2.94s-2.05-.89-3.55-.89h-10.08l6.94-5.94-4.19,20.57Zm7.88,13.34l-7.93-13.77h13.38l8.04,13.77h-13.49Z"/>
      <path class="cls-1" d="m361.87,24.35l1.87-9.18h28.09l-1.87,9.18h-28.09Zm7.33,8.64l5.4-26.46h9.91l-5.4,26.46h-9.91Z"/>
      <path class="cls-1" d="m422.68,39.53c-2.75,0-5.41-.32-7.96-.97-2.55-.65-4.86-1.64-6.91-2.97l5.89-8.86c1.51.94,3.13,1.63,4.88,2.08,1.74.45,3.41.67,4.98.67,1.8,0,3.18-.28,4.13-.84.96-.56,1.43-1.34,1.43-2.35,0-.79-.35-1.4-1.05-1.84-.7-.43-1.95-.65-3.75-.65h-11.73l6.61-22.95h25.61l-1.98,9.61h-21.04l7.66-5.45-4.13,14.63-5.4-5.45h7.93c4.59,0,8.13.89,10.63,2.67,2.5,1.78,3.74,4.44,3.74,7.96,0,3.06-.85,5.69-2.56,7.88-1.71,2.2-4.04,3.88-6.99,5.05-2.96,1.17-6.29,1.76-10,1.76Z"/>
      <path class="cls-1" d="m460.58,39.53c-3.01,0-5.64-.59-7.88-1.76-2.24-1.17-3.98-2.85-5.21-5.05-1.23-2.2-1.85-4.86-1.85-7.99,0-3.56.51-6.85,1.54-9.85,1.03-3.01,2.48-5.62,4.35-7.86,1.87-2.23,4.09-3.96,6.64-5.18,2.55-1.22,5.33-1.84,8.34-1.84s5.64.58,7.88,1.73c2.24,1.15,3.97,2.83,5.21,5.05,1.23,2.21,1.85,4.89,1.85,8.02,0,3.56-.52,6.85-1.54,9.85-1.03,3.01-2.48,5.63-4.35,7.86-1.87,2.23-4.09,3.96-6.64,5.18-2.55,1.22-5.33,1.84-8.35,1.84Zm1.32-10.21c1.14,0,2.12-.5,2.95-1.49s1.51-2.24,2.04-3.75c.53-1.51.93-3.07,1.19-4.67.26-1.6.38-3.03.38-4.29,0-1.87-.3-3.16-.91-3.86s-1.39-1.05-2.34-1.05c-1.14,0-2.12.5-2.95,1.48-.83.99-1.51,2.24-2.04,3.75-.53,1.51-.93,3.07-1.18,4.67-.26,1.6-.39,3.03-.39,4.29,0,1.87.31,3.16.94,3.86.62.7,1.39,1.05,2.31,1.05Z"/>
      <path class="cls-1" d="m511.42,38.66h-13l7.71-37.8h31.34l-1.98,9.61h-18.34l-5.73,28.19Zm3.53-21.71h16.96l-1.98,9.61h-16.91l1.93-9.61Z"/>
      <path class="cls-1" d="m549.2,39.53c-2.28,0-4.46-.16-6.55-.49s-3.99-.78-5.7-1.38c-1.71-.59-3.19-1.25-4.43-1.97l5.01-9.4c1.43.79,2.87,1.45,4.32,1.97,1.45.52,2.9.91,4.35,1.16,1.45.25,2.89.38,4.32.38,1.14,0,2.08-.09,2.84-.27.75-.18,1.32-.44,1.71-.78.39-.34.58-.73.58-1.16,0-.58-.33-1.04-.99-1.4-.66-.36-1.53-.68-2.62-.97-1.08-.29-2.28-.58-3.58-.89s-2.62-.7-3.94-1.19-2.53-1.11-3.61-1.86c-1.08-.76-1.96-1.71-2.62-2.86-.66-1.15-.99-2.56-.99-4.21,0-2.88.78-5.38,2.34-7.51s3.8-3.77,6.72-4.94c2.92-1.17,6.4-1.75,10.44-1.75,2.86,0,5.54.28,8.01.84,2.48.56,4.62,1.36,6.42,2.4l-4.68,9.29c-1.54-.94-3.22-1.64-5.04-2.11s-3.66-.7-5.54-.7c-1.25,0-2.29.12-3.14.35-.84.23-1.48.55-1.9.94-.42.4-.63.81-.63,1.24,0,.58.33,1.05.99,1.43.66.38,1.54.7,2.64.97,1.1.27,2.3.56,3.61.86,1.3.31,2.61.68,3.91,1.13,1.3.45,2.51,1.04,3.61,1.78,1.1.74,1.98,1.67,2.64,2.81.66,1.13.99,2.53.99,4.18,0,2.81-.79,5.27-2.37,7.37-1.58,2.11-3.83,3.75-6.75,4.94-2.92,1.19-6.38,1.78-10.38,1.78Z"/>
      <path class="cls-2" d="m3.41,84.12l2.22-10.88h28.78l-2.22,10.88h-7.49l.94-4.66h-13.8l-.94,4.66H3.41Zm19.18-8.06l2.91-14.18h-5.58l-.49,2.01c-.3,1.25-.61,2.41-.92,3.49-.31,1.08-.65,2.06-1.01,2.96-.36.9-.75,1.69-1.18,2.38-.43.69-.91,1.26-1.44,1.72l-8.84-1.19c.76,0,1.46-.27,2.1-.8.64-.53,1.21-1.28,1.73-2.24.52-.96,1.01-2.09,1.46-3.38.45-1.29.86-2.7,1.23-4.22l1.7-6.94h20.53l-4.16,20.4h-8.05Z"/>
      <path class="cls-2" d="m45.13,73.41h12.17l-1.25,6.05h-20.18l4.86-23.8h19.73l-1.25,6.05h-11.69l-2.39,11.7Zm1.28-8.91h10.82l-1.18,5.78h-10.82l1.18-5.78Z"/>
      <path class="cls-2" d="m59.39,79.46l4.86-23.8h8.05l-2.6,12.38,10.85-12.38h7.8l-4.86,23.8h-8.05l2.64-12.34-10.85,12.34h-7.84Zm17.24-25.02c-2.59,0-4.44-.49-5.55-1.46-1.11-.97-1.51-2.47-1.21-4.49h5.06c-.12.77,0,1.34.36,1.7.36.36.93.54,1.72.54s1.39-.17,1.82-.53.7-.92.82-1.72h5.2c-.32,2.08-1.14,3.6-2.44,4.54-1.31.94-3.23,1.41-5.77,1.41Z"/>
      <path class="cls-2" d="m87.61,79.46l4.85-23.8h8.18l-4.85,23.8h-8.18Z"/>
      <path class="cls-2" d="m108.11,79.46h-8.18l4.86-23.8h8.18l-4.85,23.8Zm9.88-8.77h-8.64l1.35-6.6h8.64l-1.35,6.6Zm2.53-15.03h8.18l-4.86,23.8h-8.18l4.86-23.8Z"/>
      <path class="cls-1" d="m152.08,80.01c-2.5,0-4.68-.45-6.55-1.34-1.87-.9-3.32-2.14-4.35-3.74-1.03-1.6-1.54-3.45-1.54-5.56s.38-4,1.13-5.75c.75-1.75,1.81-3.25,3.17-4.52,1.36-1.27,2.98-2.25,4.85-2.94,1.87-.69,3.93-1.04,6.17-1.04s4.4.41,6.21,1.22c1.8.82,3.14,2,4.02,3.54l-5.9,4.52c-.51-.88-1.17-1.57-1.98-2.06-.81-.49-1.77-.73-2.88-.73-.97,0-1.85.18-2.65.53-.8.35-1.49.85-2.06,1.5-.58.65-1.03,1.41-1.35,2.29s-.49,1.86-.49,2.92c0,.93.21,1.75.62,2.45.42.7,1,1.25,1.75,1.63.75.39,1.62.58,2.62.58s1.88-.21,2.79-.65c.91-.43,1.79-1.13,2.62-2.11l4.82,4.52c-1.48,1.77-3.13,3-4.94,3.69-1.82.69-3.84,1.04-6.09,1.04Z"/>
      <path class="cls-1" d="m177.16,80.01c-2.45,0-4.6-.44-6.45-1.31-1.85-.87-3.29-2.08-4.32-3.62s-1.54-3.3-1.54-5.27c0-.52.05-1.12.14-1.79.09-.67.23-1.37.42-2.09h18.97l-.9,4.42h-13.35l2.98-1.5c-.07.23-.12.46-.16.71-.03.25-.05.51-.05.78,0,.63.15,1.24.45,1.82.3.58.79,1.05,1.46,1.41.67.36,1.54.54,2.6.54,1.23,0,2.22-.29,2.98-.87.76-.58,1.35-1.3,1.75-2.18.4-.87.68-1.76.83-2.65.15-.89.23-1.65.23-2.26,0-.95-.2-1.77-.61-2.45-.4-.68-.98-1.2-1.73-1.56-.75-.36-1.65-.54-2.69-.54-1.2,0-2.37.21-3.5.63-1.13.42-2.21,1.05-3.23,1.89l-3.78-5.2c1.53-1.27,3.25-2.22,5.18-2.86,1.93-.63,3.91-.95,5.95-.95,2.52,0,4.72.46,6.61,1.38,1.88.92,3.36,2.2,4.42,3.84s1.6,3.56,1.6,5.76-.36,4.12-1.09,5.83c-.73,1.71-1.74,3.17-3.03,4.37-1.3,1.2-2.81,2.12-4.54,2.75-1.73.63-3.6.95-5.58.95Z"/>
      <path class="cls-1" d="m193.01,80.01c-.62,0-1.21-.03-1.77-.1-.55-.07-1.09-.18-1.6-.34l1.73-6.43c.28.07.57.1.87.1.74,0,1.38-.26,1.92-.78.54-.52,1.05-1.39,1.53-2.6.47-1.21.95-2.85,1.44-4.91l2.22-9.28h20.5l-4.85,23.8h-8.05l3.92-19.28,1.42,1.7h-8.84l1.98-1.8-1.49,6.46c-.58,2.56-1.2,4.7-1.86,6.43-.66,1.72-1.41,3.1-2.25,4.13-.84,1.03-1.82,1.77-2.91,2.23-1.1.45-2.4.68-3.9.68Z"/>
      <path class="cls-1" d="m228.55,73.41h12.17l-1.25,6.05h-20.18l4.86-23.8h19.73l-1.25,6.05h-11.69l-2.39,11.7Zm1.28-8.91h10.82l-1.18,5.78h-10.82l1.18-5.78Z"/>
      <path class="cls-1" d="m242.81,79.46l4.86-23.8h6.66l6.49,15.54h-3.54l12.48-15.54h6.97l-4.79,23.8h-7.46l2.53-12.78,1.18-.07-8.39,10.71h-3.61l-4.72-10.74,1.39.1-2.6,12.78h-7.46Z"/>
      <path class="cls-1" d="m273.67,84.12l2.22-10.88h28.79l-2.22,10.88h-7.49l.94-4.66h-13.8l-.94,4.66h-7.49Zm19.18-8.06l2.91-14.18h-5.58l-.49,2.01c-.3,1.25-.61,2.41-.92,3.49-.31,1.08-.65,2.06-1.01,2.96-.36.9-.75,1.69-1.18,2.38s-.91,1.26-1.44,1.72l-8.84-1.19c.76,0,1.46-.27,2.1-.8.64-.53,1.21-1.28,1.73-2.24.52-.96,1.01-2.09,1.46-3.38s.86-2.7,1.23-4.22l1.7-6.94h20.53l-4.16,20.4h-8.04Z"/>
      <path class="cls-1" d="m315.39,73.41h12.17l-1.25,6.05h-20.18l4.85-23.8h19.73l-1.25,6.05h-11.69l-2.39,11.7Zm1.28-8.91h10.82l-1.18,5.78h-10.82l1.18-5.78Z"/>
      <path class="cls-1" d="m343.17,80.01c-2.5,0-4.68-.45-6.55-1.34-1.87-.9-3.32-2.14-4.35-3.74-1.03-1.6-1.54-3.45-1.54-5.56s.38-4,1.13-5.75c.75-1.75,1.81-3.25,3.17-4.52,1.37-1.27,2.98-2.25,4.86-2.94s3.93-1.04,6.17-1.04,4.4.41,6.21,1.22c1.8.82,3.14,2,4.02,3.54l-5.9,4.52c-.51-.88-1.17-1.57-1.98-2.06-.81-.49-1.77-.73-2.88-.73-.97,0-1.86.18-2.65.53-.8.35-1.49.85-2.06,1.5-.58.65-1.03,1.41-1.35,2.29s-.49,1.86-.49,2.92c0,.93.21,1.75.62,2.45.42.7,1,1.25,1.75,1.63.75.39,1.62.58,2.62.58s1.88-.21,2.79-.65c.91-.43,1.79-1.13,2.62-2.11l4.82,4.52c-1.48,1.77-3.13,3-4.94,3.69s-3.84,1.04-6.09,1.04Z"/>
      <path class="cls-1" d="m358.15,73.34c.92.25,1.73.36,2.41.32s1.3-.2,1.87-.49c.57-.29,1.09-.73,1.58-1.29l1.49-1.36.87-.75,10.02-14.11h8.08l-13.42,18.19c-1.46,1.95-3.02,3.43-4.7,4.45-1.68,1.02-3.43,1.58-5.25,1.68-1.83.1-3.68-.24-5.55-1.04l2.6-5.61Zm7.21,2.72l-7.25-20.4h8.46l4.16,14.86-5.38,5.54Z"/>
      <path class="cls-1" d="m392.28,79.46l4.86-23.8h21.05l-1.25,6.05h-13.01l-.55,2.75h5.79c2.52,0,4.47.56,5.84,1.68,1.38,1.12,2.06,2.73,2.06,4.81,0,1.75-.49,3.25-1.46,4.52s-2.35,2.25-4.14,2.94-3.92,1.04-6.4,1.04h-12.8Zm9.19-5.61h4.2c.92,0,1.66-.2,2.2-.61.54-.41.82-.95.82-1.63,0-.52-.19-.91-.55-1.17-.37-.26-.94-.39-1.7-.39h-4.2l-.76,3.81Z"/>
      <path class="cls-1" d="m431.64,80.01c-2.52,0-4.7-.45-6.54-1.36s-3.26-2.16-4.27-3.76c-1.01-1.6-1.51-3.44-1.51-5.52s.38-4.03,1.13-5.76c.75-1.73,1.81-3.24,3.17-4.5,1.37-1.27,2.98-2.25,4.86-2.94s3.92-1.04,6.14-1.04c2.52,0,4.7.45,6.54,1.36,1.84.91,3.26,2.16,4.27,3.76,1.01,1.6,1.51,3.44,1.51,5.52s-.38,4.03-1.13,5.76c-.75,1.73-1.81,3.24-3.17,4.51-1.37,1.27-2.98,2.25-4.86,2.94s-3.92,1.04-6.14,1.04Zm.69-6.49c1.02,0,1.91-.19,2.69-.58.78-.38,1.44-.92,1.99-1.6s.97-1.46,1.25-2.33c.28-.87.42-1.8.42-2.77s-.19-1.74-.57-2.43c-.38-.69-.92-1.23-1.63-1.62-.71-.38-1.55-.58-2.55-.58s-1.88.19-2.67.58c-.79.39-1.46.92-2.01,1.6s-.97,1.46-1.25,2.33c-.28.87-.42,1.8-.42,2.77,0,.91.19,1.71.57,2.41.38.7.93,1.25,1.63,1.63.71.39,1.55.58,2.55.58Z"/>
      <path class="cls-1" d="m455.6,79.46h-8.18l4.86-23.8h8.18l-4.86,23.8Zm9.88-8.77h-8.63l1.35-6.6h8.63l-1.35,6.6Zm2.53-15.03h8.19l-4.86,23.8h-8.19l4.86-23.8Z"/>
      <path class="cls-1" d="m478.46,73.34c.92.25,1.73.36,2.41.32s1.3-.2,1.87-.49c.57-.29,1.09-.73,1.58-1.29l1.49-1.36.87-.75,10.02-14.11h8.08l-13.42,18.19c-1.46,1.95-3.02,3.43-4.7,4.45-1.68,1.02-3.43,1.58-5.25,1.68-1.83.1-3.68-.24-5.55-1.04l2.6-5.61Zm7.21,2.72l-7.25-20.4h8.46l4.16,14.86-5.38,5.54Z"/>
      <path class="cls-1" d="m514.84,80.01c-2.5,0-4.68-.45-6.55-1.34-1.87-.9-3.32-2.14-4.35-3.74-1.03-1.6-1.54-3.45-1.54-5.56s.38-4,1.13-5.75c.75-1.75,1.81-3.25,3.17-4.52,1.37-1.27,2.98-2.25,4.86-2.94s3.93-1.04,6.17-1.04,4.4.41,6.21,1.22c1.8.82,3.14,2,4.02,3.54l-5.9,4.52c-.51-.88-1.17-1.57-1.98-2.06-.81-.49-1.77-.73-2.88-.73-.97,0-1.86.18-2.65.53-.8.35-1.49.85-2.06,1.5-.58.65-1.03,1.41-1.35,2.29s-.49,1.86-.49,2.92c0,.93.21,1.75.62,2.45.42.7,1,1.25,1.75,1.63.75.39,1.62.58,2.62.58s1.88-.21,2.79-.65c.91-.43,1.79-1.13,2.62-2.11l4.82,4.52c-1.48,1.77-3.13,3-4.94,3.69s-3.84,1.04-6.09,1.04Z"/>
      <path class="cls-1" d="m543.79,62.97c5.39,0,8.08,2.19,8.08,6.56,0,1.99-.51,3.73-1.53,5.22s-2.46,2.64-4.32,3.47c-1.86.83-4.04,1.24-6.54,1.24h-12.14l4.86-23.8h8.04l-1.49,7.31h5.03Zm-3.81,10.88c.67,0,1.27-.15,1.8-.44.53-.29.95-.7,1.25-1.22.3-.52.45-1.1.45-1.73s-.18-1.13-.54-1.43c-.36-.29-.93-.44-1.71-.44h-3.61l-1.08,5.27h3.43Zm12.66,5.61l4.86-23.8h8.19l-4.86,23.8h-8.19Z"/>
    </g>
  </g>
</svg>