<?xml version="1.0" encoding="UTF-8"?>
<svg id="_Слой_2" data-name="Слой 2" xmlns="http://www.w3.org/2000/svg" viewBox="0 0 566.28 84.59">
  <defs>
    <style>
      .cls-1 {
        fill: #fff;
      }

      .cls-1, .cls-2 {
        stroke-width: 0px;
      }

      .cls-2 {
        fill: #029df6;
      }
    </style>
  </defs>
  <g id="_Слой_2-2" data-name="Слой 2">
    <g>
      <path class="cls-1" d="m9.82,40.81L.75.91h14.07l7.33,33.8h-8.95L34.59.91h14.07l-25.35,39.9h-13.49Z"/>
      <path class="cls-1" d="m57.38,30.67h20.41l-2.09,10.15h-33.84L49.99.91h33.08l-2.09,10.15h-19.59l-4.01,19.61Zm2.15-14.93h18.14l-1.98,9.69h-18.14l1.98-9.69Z"/>
      <path class="cls-1" d="m80.98,40.81L89.12.91h13.72l-5.99,29.47h18.37l-2.15,10.43h-32.09Z"/>
      <path class="cls-1" d="m116.85,40.81L124.99.91h13.49l-8.14,39.9h-13.49Zm14.01-8.21l2.04-15.11L151.04.91h15.76l-20.87,18.58-9.3,7.87-5.76,5.24Zm13.49,8.21l-9.83-15.5,10.17-9.01,14.94,24.51h-15.29Z"/>
      <path class="cls-1" d="m182.79,41.72c-4.23,0-7.88-.76-10.96-2.28s-5.46-3.62-7.15-6.3c-1.69-2.68-2.53-5.77-2.53-9.26s.63-6.75,1.89-9.66c1.26-2.91,3.03-5.42,5.32-7.55,2.29-2.13,5-3.77,8.14-4.93,3.14-1.16,6.57-1.74,10.29-1.74,4.22,0,7.88.76,10.96,2.28,3.08,1.52,5.47,3.62,7.15,6.3,1.69,2.68,2.53,5.77,2.53,9.26s-.63,6.75-1.89,9.66c-1.26,2.91-3.03,5.42-5.32,7.55-2.29,2.13-5,3.77-8.14,4.93-3.14,1.16-6.57,1.74-10.29,1.74Zm1.16-10.89c1.71,0,3.21-.32,4.51-.97,1.3-.65,2.41-1.54,3.34-2.68.93-1.14,1.63-2.44,2.09-3.9.46-1.46.7-3.01.7-4.65s-.32-2.92-.96-4.08c-.64-1.16-1.55-2.06-2.73-2.71-1.18-.65-2.61-.97-4.27-.97s-3.16.32-4.48.97c-1.32.65-2.44,1.54-3.37,2.68s-1.63,2.44-2.09,3.9c-.47,1.46-.7,3.01-.7,4.65,0,1.52.32,2.87.96,4.05.64,1.18,1.55,2.09,2.73,2.74,1.18.65,2.61.97,4.27.97Z"/>
      <path class="cls-1" d="m209.18,40.81L217.32.91h11.16l10.87,26.05h-5.93L254.36.91h11.69l-8.02,39.9h-12.5l4.24-21.43,1.98-.11-14.07,17.96h-6.05l-7.91-18.01,2.33.17-4.36,21.43h-12.5Z"/>
      <path class="cls-1" d="m280.81,41.72c-2.4,0-4.71-.17-6.92-.51-2.21-.34-4.21-.83-6.02-1.45s-3.36-1.32-4.68-2.08l5.29-9.92c1.51.84,3.03,1.53,4.56,2.08s3.06.96,4.59,1.23c1.53.27,3.05.4,4.56.4,1.2,0,2.2-.09,2.99-.28.79-.19,1.39-.47,1.8-.83.41-.36.61-.77.61-1.23,0-.61-.35-1.1-1.05-1.48s-1.62-.72-2.76-1.03c-1.14-.3-2.4-.62-3.78-.94-1.38-.32-2.76-.74-4.16-1.25-1.4-.51-2.67-1.17-3.81-1.97-1.14-.8-2.06-1.8-2.76-3.02-.7-1.22-1.05-2.7-1.05-4.45,0-3.04.82-5.68,2.47-7.92s4.01-3.98,7.09-5.22c3.08-1.23,6.75-1.85,11.02-1.85,3.02,0,5.84.29,8.46.88,2.62.59,4.88,1.43,6.77,2.54l-4.94,9.8c-1.63-.99-3.4-1.73-5.32-2.22-1.92-.49-3.87-.74-5.84-.74-1.32,0-2.42.12-3.31.37-.89.25-1.56.58-2.01,1-.45.42-.67.86-.67,1.31,0,.61.35,1.11,1.04,1.51.7.4,1.63.74,2.79,1.03,1.16.29,2.43.59,3.81.91,1.38.32,2.75.72,4.13,1.2,1.38.48,2.64,1.1,3.81,1.88,1.16.78,2.09,1.77,2.79,2.96s1.05,2.67,1.05,4.42c0,2.96-.83,5.56-2.5,7.78-1.67,2.22-4.04,3.96-7.12,5.21-3.08,1.25-6.73,1.88-10.96,1.88Z"/>
      <path class="cls-1" d="m311.1,40.81l5.99-29.47h-11.92l2.15-10.43h37.56l-2.15,10.43h-11.92l-5.99,29.47h-13.72Z"/>
      <path class="cls-1" d="m340.29,40.81L348.43.91h21.57c4.85,0,8.49.83,10.93,2.48,2.44,1.65,3.66,4,3.66,7.04,0,2.47-.73,4.56-2.18,6.27-1.45,1.71-3.45,3.01-5.99,3.9-2.54.89-5.46,1.34-8.75,1.34l1.74-3.08c4.15,0,7.41.81,9.8,2.42,2.38,1.62,3.58,3.89,3.58,6.81s-.86,5.33-2.59,7.21-4.02,3.27-6.89,4.16c-2.87.89-6.05,1.34-9.54,1.34h-23.49Zm15.41-9.41h8.84c1.36,0,2.47-.3,3.34-.91.87-.61,1.31-1.52,1.31-2.74,0-.87-.34-1.53-1.02-1.97-.68-.44-1.46-.66-2.35-.66h-9.77l1.8-8.89h7.91c1.05,0,1.91-.14,2.59-.43.68-.28,1.17-.68,1.48-1.2.31-.51.46-1.13.46-1.85,0-.84-.32-1.45-.96-1.85-.64-.4-1.52-.6-2.65-.6h-6.69l-4.3,21.09Z"/>
      <path class="cls-1" d="m408.14,41.72c-4.23,0-7.88-.76-10.96-2.28-3.08-1.52-5.47-3.62-7.15-6.3-1.69-2.68-2.53-5.77-2.53-9.26s.63-6.75,1.89-9.66c1.26-2.91,3.03-5.42,5.32-7.55,2.29-2.13,5-3.77,8.14-4.93,3.14-1.16,6.57-1.74,10.29-1.74,4.22,0,7.88.76,10.96,2.28,3.08,1.52,5.46,3.62,7.15,6.3,1.69,2.68,2.53,5.77,2.53,9.26s-.63,6.75-1.89,9.66-3.03,5.42-5.32,7.55-5,3.77-8.14,4.93c-3.14,1.16-6.57,1.74-10.29,1.74Zm1.16-10.89c1.71,0,3.21-.32,4.51-.97,1.3-.65,2.41-1.54,3.34-2.68.93-1.14,1.63-2.44,2.09-3.9.47-1.46.7-3.01.7-4.65s-.32-2.92-.96-4.08c-.64-1.16-1.55-2.06-2.73-2.71-1.18-.65-2.61-.97-4.27-.97s-3.16.32-4.48.97c-1.32.65-2.44,1.54-3.37,2.68-.93,1.14-1.63,2.44-2.09,3.9-.46,1.46-.7,3.01-.7,4.65,0,1.52.32,2.87.96,4.05.64,1.18,1.55,2.09,2.73,2.74,1.18.65,2.61.97,4.27.97Z"/>
      <path class="cls-1" d="m434.53,40.81L442.67.91h11.28l15.29,24.28h-4.77l4.94-24.28h13.37l-8.14,39.9h-11.28l-15.29-24.28h4.77l-4.94,24.28h-13.37Z"/>
      <path class="cls-1" d="m501.8,41.72c-4.22,0-7.75-.79-10.58-2.37-2.83-1.58-4.84-3.78-6.02-6.61-1.18-2.83-1.39-6.13-.61-9.89l4.48-21.95h13.72l-4.42,21.72c-.27,1.41-.37,2.62-.29,3.65s.34,1.88.79,2.56c.45.68,1.05,1.19,1.83,1.51.77.32,1.71.48,2.79.48,1.32,0,2.45-.26,3.4-.8.95-.53,1.74-1.41,2.38-2.62.64-1.22,1.15-2.81,1.54-4.79l4.42-21.72h13.49l-4.59,22.52c-1.2,5.97-3.66,10.51-7.38,13.62-3.72,3.12-8.7,4.67-14.94,4.67Z"/>
      <path class="cls-1" d="m543.02,41.72c-2.4,0-4.71-.17-6.92-.51-2.21-.34-4.21-.83-6.02-1.45-1.8-.63-3.36-1.32-4.68-2.08l5.29-9.92c1.51.84,3.03,1.53,4.56,2.08,1.53.55,3.06.96,4.59,1.23,1.53.27,3.05.4,4.56.4,1.2,0,2.2-.09,2.99-.28s1.4-.47,1.8-.83c.41-.36.61-.77.61-1.23,0-.61-.35-1.1-1.05-1.48-.7-.38-1.62-.72-2.76-1.03-1.14-.3-2.4-.62-3.78-.94-1.38-.32-2.76-.74-4.16-1.25-1.39-.51-2.66-1.17-3.81-1.97-1.14-.8-2.06-1.8-2.76-3.02-.7-1.22-1.05-2.7-1.05-4.45,0-3.04.82-5.68,2.47-7.92,1.65-2.24,4.01-3.98,7.09-5.22,3.08-1.23,6.75-1.85,11.02-1.85,3.02,0,5.84.29,8.46.88,2.62.59,4.87,1.43,6.77,2.54l-4.94,9.8c-1.63-.99-3.4-1.73-5.32-2.22-1.92-.49-3.87-.74-5.84-.74-1.32,0-2.42.12-3.31.37-.89.25-1.56.58-2.01,1-.45.42-.67.86-.67,1.31,0,.61.35,1.11,1.05,1.51.7.4,1.63.74,2.79,1.03,1.16.29,2.43.59,3.81.91,1.38.32,2.75.72,4.13,1.2,1.38.48,2.64,1.1,3.81,1.88,1.16.78,2.09,1.77,2.79,2.96.7,1.2,1.04,2.67,1.04,4.42,0,2.96-.83,5.56-2.5,7.78-1.67,2.22-4.04,3.96-7.12,5.21-3.08,1.25-6.73,1.88-10.96,1.88Z"/>
      <path class="cls-2" d="m12.78,84.59c-2.62,0-4.88-.48-6.79-1.44-1.91-.96-3.38-2.29-4.43-3.98-1.04-1.69-1.57-3.64-1.57-5.85s.39-4.27,1.17-6.1c.78-1.84,1.88-3.43,3.29-4.77,1.42-1.34,3.1-2.38,5.04-3.11s4.07-1.1,6.37-1.1c2.62,0,4.88.48,6.79,1.44,1.91.96,3.38,2.29,4.43,3.98,1.04,1.69,1.57,3.64,1.57,5.85s-.39,4.27-1.17,6.1c-.78,1.84-1.88,3.43-3.29,4.77-1.42,1.34-3.1,2.38-5.04,3.11-1.94.73-4.07,1.1-6.37,1.1Zm.72-6.88c1.06,0,1.99-.2,2.79-.61.8-.41,1.49-.97,2.07-1.69.58-.72,1.01-1.54,1.3-2.47.29-.92.43-1.9.43-2.93s-.2-1.84-.59-2.57c-.4-.73-.96-1.3-1.69-1.71-.73-.41-1.61-.61-2.65-.61s-1.96.2-2.77.61-1.51.97-2.09,1.69c-.58.72-1.01,1.54-1.3,2.47s-.43,1.9-.43,2.93c0,.96.2,1.81.59,2.56s.96,1.32,1.69,1.73c.73.41,1.61.61,2.65.61Z"/>
      <path class="cls-2" d="m29.12,84.01l5.04-25.2h11.2c3.38,0,5.99.73,7.83,2.2,1.84,1.46,2.75,3.52,2.75,6.16,0,2.11-.52,3.97-1.57,5.58-1.04,1.61-2.52,2.86-4.43,3.74-1.91.89-4.16,1.33-6.75,1.33h-8.14l4.54-3.71-1.98,9.9h-8.5Zm10.26-8.89l-2.99-3.85h7.24c1.18,0,2.09-.29,2.74-.88s.97-1.41.97-2.47c0-.91-.28-1.57-.85-1.96-.56-.4-1.34-.59-2.32-.59h-6.59l4.54-3.96-2.74,13.72Z"/>
      <path class="cls-2" d="m55.51,84.01l5.04-25.2h11.2c3.38,0,5.99.73,7.83,2.2,1.84,1.46,2.75,3.52,2.75,6.16,0,2.11-.52,3.97-1.57,5.58-1.04,1.61-2.52,2.86-4.43,3.74-1.91.89-4.16,1.33-6.75,1.33h-8.14l4.54-3.71-1.98,9.9h-8.5Zm10.26-8.89l-2.99-3.85h7.24c1.18,0,2.09-.29,2.74-.88s.97-1.41.97-2.47c0-.91-.28-1.57-.85-1.96-.56-.4-1.34-.59-2.32-.59h-6.59l4.54-3.96-2.74,13.72Z"/>
      <path class="cls-2" d="m98.53,84.01l3.71-18.61h-7.38l1.33-6.59h23.26l-1.33,6.59h-7.38l-3.71,18.61h-8.5Z"/>
      <path class="cls-2" d="m116.6,84.01l5.04-25.2h8.5l-5.04,25.2h-8.5Z"/>
      <path class="cls-2" d="m129.2,84.01l5.04-25.2h8.5l-3.71,18.61h11.38l-1.33,6.59h-19.87Z"/>
      <path class="cls-1" d="m170.71,84.59c-1.8,0-3.53-.22-5.2-.65-1.67-.43-3.17-1.09-4.52-1.98l3.85-5.9c.98.62,2.05,1.09,3.19,1.39,1.14.3,2.23.45,3.26.45,1.18,0,2.08-.19,2.7-.56.62-.37.94-.89.94-1.57,0-.53-.23-.94-.68-1.22-.46-.29-1.27-.43-2.45-.43h-7.67l4.32-15.3h16.74l-1.3,6.41h-13.75l5-3.64-2.7,9.76-3.53-3.64h5.18c3,0,5.32.59,6.95,1.78,1.63,1.19,2.45,2.96,2.45,5.31,0,2.04-.56,3.79-1.67,5.26-1.12,1.46-2.64,2.59-4.57,3.37-1.93.78-4.11,1.17-6.53,1.17Z"/>
      <path class="cls-1" d="m192.38,84.59c-1.8,0-3.53-.22-5.2-.65-1.67-.43-3.17-1.09-4.52-1.98l3.85-5.9c.98.62,2.05,1.09,3.19,1.39,1.14.3,2.23.45,3.26.45.79,0,1.46-.08,2-.25s.95-.41,1.22-.74c.28-.32.41-.71.41-1.17,0-.5-.2-.88-.61-1.13s-1.04-.38-1.91-.38h-3.49l1.04-5.22,7.67-6.62.36,2.84h-12.56l1.3-6.41h18.79l-1.04,5.22-7.67,6.62-3.78-2.23h1.87c1.75,0,3.27.28,4.55.83,1.28.55,2.28,1.33,2.99,2.34.71,1.01,1.06,2.2,1.06,3.56,0,1.8-.56,3.42-1.67,4.84-1.12,1.43-2.64,2.55-4.57,3.37-1.93.82-4.11,1.22-6.53,1.22Z"/>
      <path class="cls-1" d="m217.4,84.59c-1.97,0-3.68-.39-5.15-1.17-1.46-.78-2.6-1.9-3.4-3.37-.8-1.46-1.21-3.24-1.21-5.33,0-2.38.34-4.57,1.01-6.57.67-2,1.62-3.75,2.84-5.24s2.67-2.64,4.34-3.46c1.67-.82,3.49-1.22,5.45-1.22s3.68.38,5.15,1.15c1.46.77,2.6,1.89,3.4,3.37.8,1.48,1.21,3.26,1.21,5.35,0,2.38-.34,4.57-1.01,6.57-.67,2-1.62,3.75-2.84,5.24-1.22,1.49-2.67,2.64-4.34,3.46-1.67.82-3.49,1.22-5.45,1.22Zm.86-6.8c.74,0,1.39-.33,1.93-.99s.98-1.49,1.33-2.5c.35-1.01.61-2.05.77-3.11.17-1.07.25-2.02.25-2.86,0-1.25-.2-2.11-.59-2.57-.4-.47-.91-.7-1.53-.7-.74,0-1.39.33-1.93.99-.54.66-.98,1.49-1.33,2.5-.35,1.01-.61,2.05-.77,3.11-.17,1.07-.25,2.02-.25,2.86,0,1.25.2,2.11.61,2.57.41.47.91.7,1.51.7Z"/>
      <path class="cls-1" d="m253.12,84.59c-1.97,0-3.68-.39-5.15-1.17-1.46-.78-2.6-1.9-3.4-3.37-.8-1.46-1.21-3.24-1.21-5.33,0-2.38.34-4.57,1.01-6.57.67-2,1.62-3.75,2.84-5.24s2.67-2.64,4.34-3.46c1.67-.82,3.49-1.22,5.45-1.22s3.68.38,5.15,1.15c1.46.77,2.6,1.89,3.4,3.37.8,1.48,1.21,3.26,1.21,5.35,0,2.38-.34,4.57-1.01,6.57-.67,2-1.62,3.75-2.84,5.24-1.22,1.49-2.67,2.64-4.34,3.46-1.67.82-3.49,1.22-5.45,1.22Zm.86-6.8c.74,0,1.39-.33,1.93-.99s.98-1.49,1.33-2.5c.35-1.01.61-2.05.77-3.11.17-1.07.25-2.02.25-2.86,0-1.25-.2-2.11-.59-2.57-.4-.47-.91-.7-1.53-.7-.74,0-1.39.33-1.93.99-.54.66-.98,1.49-1.33,2.5-.35,1.01-.61,2.05-.77,3.11-.17,1.07-.25,2.02-.25,2.86,0,1.25.2,2.11.61,2.57.41.47.91.7,1.51.7Z"/>
      <path class="cls-1" d="m278.03,84.59c-1.97,0-3.68-.39-5.15-1.17-1.46-.78-2.6-1.9-3.4-3.37s-1.21-3.24-1.21-5.33c0-2.38.34-4.57,1.01-6.57.67-2,1.62-3.75,2.84-5.24,1.22-1.49,2.67-2.64,4.34-3.46,1.67-.82,3.49-1.22,5.46-1.22s3.68.38,5.15,1.15c1.46.77,2.6,1.89,3.4,3.37.8,1.48,1.21,3.26,1.21,5.35,0,2.38-.34,4.57-1.01,6.57s-1.62,3.75-2.84,5.24-2.67,2.64-4.34,3.46c-1.67.82-3.49,1.22-5.46,1.22Zm.86-6.8c.74,0,1.39-.33,1.93-.99s.99-1.49,1.33-2.5.61-2.05.77-3.11c.17-1.07.25-2.02.25-2.86,0-1.25-.2-2.11-.59-2.57-.4-.47-.91-.7-1.53-.7-.75,0-1.39.33-1.93.99-.54.66-.98,1.49-1.33,2.5-.35,1.01-.61,2.05-.77,3.11-.17,1.07-.25,2.02-.25,2.86,0,1.25.2,2.11.61,2.57.41.47.91.7,1.51.7Z"/>
      <path class="cls-1" d="m302.94,84.59c-1.97,0-3.69-.39-5.15-1.17-1.46-.78-2.6-1.9-3.4-3.37s-1.21-3.24-1.21-5.33c0-2.38.34-4.57,1.01-6.57.67-2,1.62-3.75,2.84-5.24s2.67-2.64,4.34-3.46c1.67-.82,3.49-1.22,5.46-1.22s3.68.38,5.15,1.15c1.46.77,2.6,1.89,3.4,3.37.8,1.48,1.21,3.26,1.21,5.35,0,2.38-.34,4.57-1.01,6.57-.67,2-1.62,3.75-2.85,5.24-1.22,1.49-2.67,2.64-4.34,3.46-1.67.82-3.49,1.22-5.45,1.22Zm.86-6.8c.74,0,1.39-.33,1.93-.99.54-.66.98-1.49,1.33-2.5s.61-2.05.78-3.11c.17-1.07.25-2.02.25-2.86,0-1.25-.2-2.11-.59-2.57-.4-.47-.91-.7-1.53-.7-.74,0-1.38.33-1.93.99-.54.66-.98,1.49-1.33,2.5-.35,1.01-.61,2.05-.77,3.11-.17,1.07-.25,2.02-.25,2.86,0,1.25.2,2.11.61,2.57.41.47.91.7,1.51.7Z"/>
      <path class="cls-1" d="m327.67,84.01l5.04-25.2h6.98l9.47,15.34h-2.95l3.06-15.34h8.28l-5.04,25.2h-6.98l-9.47-15.34h2.95l-3.06,15.34h-8.28Z"/>
      <path class="cls-1" d="m370.8,84.59c-2.62,0-4.88-.48-6.79-1.44-1.91-.96-3.38-2.29-4.43-3.98-1.04-1.69-1.57-3.64-1.57-5.85s.39-4.27,1.17-6.1,1.88-3.43,3.29-4.77c1.41-1.34,3.1-2.38,5.04-3.11s4.07-1.1,6.37-1.1c2.62,0,4.88.48,6.79,1.44s3.38,2.29,4.43,3.98c1.04,1.69,1.57,3.64,1.57,5.85s-.39,4.27-1.17,6.1c-.78,1.84-1.88,3.43-3.29,4.77s-3.1,2.38-5.04,3.11c-1.95.73-4.07,1.1-6.37,1.1Zm.72-6.88c1.06,0,1.99-.2,2.79-.61.8-.41,1.49-.97,2.07-1.69.58-.72,1.01-1.54,1.3-2.47.29-.92.43-1.9.43-2.93s-.2-1.84-.59-2.57c-.4-.73-.96-1.3-1.69-1.71-.73-.41-1.62-.61-2.65-.61s-1.96.2-2.77.61c-.82.41-1.51.97-2.09,1.69-.58.72-1.01,1.54-1.3,2.47s-.43,1.9-.43,2.93c0,.96.2,1.81.59,2.56s.96,1.32,1.69,1.73c.73.41,1.61.61,2.65.61Z"/>
      <path class="cls-1" d="m387.15,84.01l5.04-25.2h8.35l-5.04,25.2h-8.35Zm8.68-5.18l1.26-9.54,11.23-10.48h9.76l-12.92,11.74-5.76,4.97-3.56,3.31Zm8.35,5.18l-6.08-9.79,6.3-5.69,9.25,15.48h-9.47Z"/>
      <path class="cls-1" d="m427.32,74.47l1.22-6.12h18.36l-1.22,6.12h-18.36Zm4.79,5.76l3.53-17.64h6.48l-3.53,17.64h-6.48Z"/>
      <path class="cls-1" d="m467.06,84.59c-1.8,0-3.54-.22-5.2-.65-1.67-.43-3.17-1.09-4.52-1.98l3.85-5.9c.98.62,2.05,1.09,3.19,1.39,1.14.3,2.23.45,3.26.45,1.18,0,2.08-.19,2.7-.56.62-.37.94-.89.94-1.57,0-.53-.23-.94-.68-1.22-.46-.29-1.27-.43-2.45-.43h-7.67l4.32-15.3h16.74l-1.29,6.41h-13.75l5-3.64-2.7,9.76-3.53-3.64h5.18c3,0,5.32.59,6.95,1.78,1.63,1.19,2.45,2.96,2.45,5.31,0,2.04-.56,3.79-1.67,5.26-1.12,1.46-2.64,2.59-4.57,3.37-1.93.78-4.11,1.17-6.53,1.17Z"/>
      <path class="cls-1" d="m491.83,84.59c-1.97,0-3.69-.39-5.15-1.17-1.46-.78-2.6-1.9-3.4-3.37s-1.21-3.24-1.21-5.33c0-2.38.34-4.57,1.01-6.57.67-2,1.62-3.75,2.84-5.24s2.67-2.64,4.34-3.46c1.67-.82,3.49-1.22,5.46-1.22s3.68.38,5.15,1.15c1.46.77,2.6,1.89,3.4,3.37.8,1.48,1.21,3.26,1.21,5.35,0,2.38-.34,4.57-1.01,6.57-.67,2-1.62,3.75-2.85,5.24-1.22,1.49-2.67,2.64-4.34,3.46-1.67.82-3.49,1.22-5.45,1.22Zm.86-6.8c.74,0,1.39-.33,1.93-.99.54-.66.98-1.49,1.33-2.5s.61-2.05.78-3.11c.17-1.07.25-2.02.25-2.86,0-1.25-.2-2.11-.59-2.57-.4-.47-.91-.7-1.53-.7-.74,0-1.38.33-1.93.99-.54.66-.98,1.49-1.33,2.5-.35,1.01-.61,2.05-.77,3.11-.17,1.07-.25,2.02-.25,2.86,0,1.25.2,2.11.61,2.57.41.47.91.7,1.51.7Z"/>
      <path class="cls-1" d="m525.06,84.01h-8.5l5.04-25.2h20.48l-1.3,6.41h-11.99l-3.74,18.79Zm2.3-14.47h11.09l-1.29,6.41h-11.05l1.26-6.41Z"/>
      <path class="cls-1" d="m549.76,84.59c-1.49,0-2.92-.11-4.29-.32-1.37-.22-2.61-.52-3.72-.92-1.12-.4-2.08-.83-2.9-1.31l3.28-6.26c.94.53,1.88.97,2.83,1.31.95.35,1.9.61,2.84.77.95.17,1.89.25,2.83.25.74,0,1.36-.06,1.85-.18s.87-.29,1.12-.52c.25-.23.38-.49.38-.77,0-.38-.21-.7-.65-.94-.43-.24-1-.46-1.71-.65-.71-.19-1.49-.39-2.34-.59s-1.71-.47-2.57-.79c-.86-.32-1.65-.74-2.36-1.24-.71-.5-1.28-1.14-1.71-1.91-.43-.77-.65-1.7-.65-2.81,0-1.92.51-3.59,1.53-5,1.02-1.42,2.48-2.51,4.39-3.29,1.91-.78,4.18-1.17,6.82-1.17,1.87,0,3.62.19,5.24.56,1.62.37,3.02.91,4.2,1.6l-3.06,6.19c-1.01-.62-2.11-1.09-3.29-1.4-1.19-.31-2.39-.47-3.62-.47-.82,0-1.5.08-2.05.23s-.97.37-1.24.63c-.28.26-.41.54-.41.83,0,.38.22.7.65.95s1.01.47,1.73.65,1.51.37,2.36.58,1.71.46,2.56.76c.85.3,1.64.7,2.36,1.19.72.49,1.3,1.12,1.73,1.87.43.76.65,1.69.65,2.79,0,1.87-.52,3.51-1.55,4.91-1.03,1.4-2.5,2.5-4.41,3.29s-4.17,1.19-6.79,1.19Z"/>
    </g>
  </g>
</svg>