<svg xmlns="http://www.w3.org/2000/svg" xmlns:xlink="http://www.w3.org/1999/xlink" width="106.91" height="73.09" viewBox="0 0 106.91 73.09">
  <defs>
    <style>
      .cls-1 {
        isolation: isolate;
      }

      .cls-2 {
        fill: #262626;
      }

      .cls-3 {
        fill: #474747;
      }

      .cls-4 {
        fill: #f4f4f4;
      }

      .cls-5 {
        fill: #dcddde;
      }

      .cls-29, .cls-42, .cls-6 {
        mix-blend-mode: multiply;
      }

      .cls-7 {
        fill: #c4c4c4;
      }

      .cls-8 {
        opacity: 0.91;
      }

      .cls-9 {
        fill: #c9c9c9;
      }

      .cls-10 {
        opacity: 0.82;
      }

      .cls-11 {
        fill: #cfcfcf;
      }

      .cls-12 {
        opacity: 0.73;
      }

      .cls-13 {
        fill: #d4d4d4;
      }

      .cls-14 {
        opacity: 0.64;
      }

      .cls-15, .cls-36 {
        fill: #d9d9d9;
      }

      .cls-16 {
        opacity: 0.55;
      }

      .cls-17 {
        fill: #dfdfdf;
      }

      .cls-18 {
        opacity: 0.45;
      }

      .cls-19 {
        fill: #e4e4e4;
      }

      .cls-20 {
        opacity: 0.36;
      }

      .cls-21 {
        fill: #eaeaea;
      }

      .cls-22 {
        opacity: 0.27;
      }

      .cls-23 {
        fill: #efefef;
      }

      .cls-24 {
        opacity: 0.18;
      }

      .cls-25 {
        opacity: 0.09;
      }

      .cls-26 {
        fill: #fafafa;
      }

      .cls-27, .cls-30, .cls-54 {
        opacity: 0;
      }

      .cls-28, .cls-30 {
        fill: #fff;
      }

      .cls-29 {
        fill: url(#linear-gradient);
      }

      .cls-31 {
        fill: #f9f9f9;
      }

      .cls-31, .cls-53 {
        opacity: 0.09;
      }

      .cls-32 {
        fill: #f2f2f2;
      }

      .cls-32, .cls-52 {
        opacity: 0.18;
      }

      .cls-33 {
        fill: #ececec;
      }

      .cls-33, .cls-56 {
        opacity: 0.27;
      }

      .cls-34 {
        fill: #e6e6e6;
      }

      .cls-34, .cls-50 {
        opacity: 0.36;
      }

      .cls-35 {
        fill: #e0e0e0;
      }

      .cls-35, .cls-49 {
        opacity: 0.45;
      }

      .cls-36, .cls-48 {
        opacity: 0.55;
      }

      .cls-37 {
        fill: #d3d3d3;
      }

      .cls-37, .cls-47 {
        opacity: 0.64;
      }

      .cls-38 {
        fill: #cdcdcd;
      }

      .cls-38, .cls-57 {
        opacity: 0.73;
      }

      .cls-39 {
        fill: #c7c7c7;
      }

      .cls-39, .cls-45 {
        opacity: 0.82;
      }

      .cls-40 {
        fill: silver;
      }

      .cls-40, .cls-44 {
        opacity: 0.91;
      }

      .cls-41 {
        fill: #bababa;
      }

      .cls-42, .cls-43 {
        opacity: 0.5;
      }

      .cls-42 {
        fill: url(#linear-gradient-2);
      }

      .cls-43, .cls-55 {
        mix-blend-mode: screen;
      }

      .cls-44 {
        fill: #e8e8e8;
      }

      .cls-45 {
        fill: #d1d1d1;
      }

      .cls-46, .cls-57 {
        fill: #b9b9b9;
      }

      .cls-46 {
        opacity: 0.73;
      }

      .cls-47 {
        fill: #a2a2a2;
      }

      .cls-48 {
        fill: #8b8b8b;
      }

      .cls-49 {
        fill: #747474;
      }

      .cls-50 {
        fill: #5d5d5d;
      }

      .cls-51, .cls-56 {
        fill: #464646;
      }

      .cls-51 {
        opacity: 0.27;
      }

      .cls-52 {
        fill: #2e2e2e;
      }

      .cls-53 {
        fill: #171717;
      }

      .cls-55 {
        opacity: 0.2;
      }
    </style>
    <linearGradient id="linear-gradient" x1="-98.98" y1="300.01" x2="7.41" y2="300.01" gradientTransform="matrix(0.99, -0.13, 0.13, 0.99, 61.81, -251.87)" gradientUnits="userSpaceOnUse">
      <stop offset="0" stop-color="#d2d3d4"/>
      <stop offset="0.04" stop-color="#d9d9da"/>
      <stop offset="0.2" stop-color="#eeeeef"/>
      <stop offset="0.35" stop-color="#fbfbfb"/>
      <stop offset="0.5" stop-color="#fff"/>
      <stop offset="0.65" stop-color="#fbfbfb"/>
      <stop offset="0.8" stop-color="#f0f0f1"/>
      <stop offset="0.94" stop-color="#dddedf"/>
      <stop offset="1" stop-color="#d2d3d4"/>
    </linearGradient>
    <linearGradient id="linear-gradient-2" x1="-2.79" y1="173.85" x2="-2.79" y2="109.34" gradientTransform="matrix(0.95, -0.3, 0.3, 0.95, 12.37, -104.21)" gradientUnits="userSpaceOnUse">
      <stop offset="0" stop-color="#dcddde"/>
      <stop offset="0.31" stop-color="#eeeeef"/>
      <stop offset="0.67" stop-color="#fbfbfb"/>
      <stop offset="1" stop-color="#fff"/>
    </linearGradient>
  </defs>
  <g class="cls-1">
    <g id="Слой_2" data-name="Слой 2">
      <g id="Слой_1-2" data-name="Слой 1">
        <g>
          <path class="cls-2" d="M10.75,53.5l-.44-.31-.08-.06-.41-.3-.08-.07-.42-.31,0,0-.41-.32,0,0-.41-.34,0,0L8,51.34l-.06-.06-.39-.34,0,0-.36-.33-.05,0-.35-.35a.23.23,0,0,1-.07-.07l-.34-.34-.06-.05-.35-.37h0L5.6,49l-.06-.06-.32-.35-.06-.07-.3-.36,0,0-.29-.36,0,0-.29-.37-.06-.07c-.09-.12-.18-.24-.26-.37l-.06-.07-.27-.38v0L3.29,46l0-.06L3,45.6l0-.08-.23-.38,0-.06-.24-.4h0l-.22-.41a.43.43,0,0,1,0-.07L2,43.8l0-.08c-.06-.13-.13-.26-.19-.4l0,0-.17-.39,0-.05c-.06-.13-.12-.27-.17-.4l0-.09-.15-.4,0-.07L1,41.44v0C1,41.29.91,41.15.87,41l0-.07-.12-.41,0-.09c0-.14-.07-.27-.11-.41a17.74,17.74,0,0,1-.46-2.52L1.26,47.6a17.59,17.59,0,0,0,.46,2.49h0v0l.12.42s0,.05,0,.08.08.27.13.41a.19.19,0,0,0,0,.07c0,.13.08.27.13.4v0L2.3,52l0,.09.16.4,0,.07c0,.14.11.28.17.41l0,0,.17.39,0,.07c.07.13.13.26.2.4l0,.07.2.39,0,.07.22.41h0c.07.14.15.27.23.4l0,.06c.08.12.15.25.23.38a.35.35,0,0,1,.05.08l.24.38,0,.06.26.37,0,0c.08.13.18.26.27.39L5,57l.28.37,0,.07.29.37,0,0c.1.12.19.24.29.35l0,.06.3.35.07.08.31.35.05.06c.12.12.23.25.34.37h0l.34.35.06.06.34.35.07.06.35.34.06.06.34.31,0,0,.37.33.07.06.38.33.08.07.39.32,0,0,.37.29.08.06.4.31.08.07.41.3.09.06.41.3h0Z"/>
          <path class="cls-2" d="M61.3,61.75,59.71,62l-.6.09-.27,0-.51.07-.28,0-.52.07-.27,0-.56.07-.22,0-.78.08h-.12l-.65.07-.26,0-.55,0-.24,0-.59,0-.2,0-.78,0h-.13l-.65,0h-.24l-.58,0-.23,0h-.4l-.6,0h-.35l-.62,0H43.57l-.76,0h-.12l-.68,0-.29,0-.5,0h-.3l-.5,0-.29,0-.6,0-.16,0-.78-.06-.3,0-.49-.05-.31,0-.48,0-.33,0-.44-.05-.35,0-.43,0-.34-.05-.42-.06-.35-.05-.42-.06L33.59,62l-.3,0c-2.27-.37-4.46-.83-6.55-1.38L27.88,70.7c2,.52,4,1,6.16,1.32h0l.39.06.22,0h.09l.32.05.44.06.34.05.42.06.35.05.43.06.33,0,.46,0,.33,0,.48,0,.29,0,.57.06.22,0,.78.06h.08l.71.05.25,0,.54,0h.26l.55,0,.25,0,.76,0h0l.79,0h4.94l.62,0h.35l.61,0h.38l.27,0,.52,0,.29,0,.57,0h.2l.77,0,.21,0,.57,0,.28,0,.52,0,.26,0,.59-.06.19,0h0l.76-.08.22,0,.56-.07.27,0,.52-.07.29,0,.51-.07.26,0,.6-.09.15,0h0l1.45-.23Z"/>
          <path class="cls-2" d="M101.8,39.78l-.18.26-.23.34,0,.08-.19.26-.07.09-.21.3,0,0-.25.34,0,.06-.21.27-.08.1-.21.26,0,.07-.27.33-.06.07-.22.26-.08.09a2.85,2.85,0,0,1-.23.26l-.06.07a4.12,4.12,0,0,1-.28.31l-.08.09-.23.25-.07.08-.23.25-.09.08-.31.33,0,0-.27.28-.11.1-.23.23-.09.08-.3.3,0,0-.34.31-.11.1-.23.21-.11.11-.25.21-.1.09-.34.3h0l-.36.31-.11.09-.25.21-.13.1-.25.21L94,48.1l-.37.29,0,0-.32.25-.12.1-.26.2-.13.09-.33.24a.1.1,0,0,1,0,0l-.4.3-.07,0-.32.24-.14.09-.26.19-.15.1-.31.21-.09.06-.41.28-.09,0a3.62,3.62,0,0,1-.32.22l-.15.09-.28.18-.13.09-.86.53-.12.07-.31.19-.15.09-.3.18-.14.08-.43.25-.08,0-.37.21-.15.09-.3.17-.16.08-.38.21-.07,0L85,54l-.12.06-.34.18-.16.08-.33.17-.14.07-.4.2-.08,0L83,55l-.14.07-.35.17-.15.07-.35.16-.15.07-.45.21-.1.05-.43.18a.52.52,0,0,1-.13.06l-.36.16-.17.07-.37.16-.13.06-.5.21-.07,0-.43.18L78.5,57l-.34.14-.17.07-.41.16-.11,0-.51.19-.14.06-.38.14-.18.06L75.9,58l-.16,0-1,.37-.61.2-.15,0-.6.2q-2.9.93-5.94,1.67l1.14,10.09q3-.73,5.94-1.67l.13,0h0l.47-.16.15,0,.61-.2,0,0,1-.35L77,68l.36-.14.19-.06L78,67.7l.14-.06.52-.19.1,0,.41-.16.17-.07.35-.14.17-.07.44-.18.06,0,.51-.21L81,66.5l.38-.16.16-.07.36-.16.14,0,.42-.19.1-.05.45-.21.15-.07.35-.16.16-.07.34-.16.15-.08.46-.22.08,0,.4-.2.14-.07.33-.17.16-.08.34-.18.12-.06.47-.25.06,0,.38-.21.16-.08.3-.17.16-.09L88,63l.08,0,.43-.25.14-.08.31-.18.15-.09.31-.19.11-.07.86-.53.14-.09.28-.18.14-.09L91.3,61l.09-.06.41-.28.09-.06.32-.21a.71.71,0,0,1,.14-.1l.27-.19.13-.09.32-.24.07,0,.4-.3.06,0,.32-.24.13-.09.26-.2.12-.1a3.92,3.92,0,0,0,.32-.25l.06,0,.36-.29.11-.09.26-.21.12-.1.25-.21.11-.09.36-.31h0l.34-.3.1-.09.25-.21a1.14,1.14,0,0,0,.11-.11l.24-.21.1-.1.34-.31,0,0,.3-.3.09-.08.23-.23.11-.1.27-.28,0,0,.32-.33.08-.08.15-.16.08-.09.08-.08c.08-.09.16-.17.23-.26l.07-.07c.1-.11.19-.22.29-.32l0-.05.25-.29.07-.07a2.75,2.75,0,0,1,.22-.26l.06-.08.27-.33,0-.05.23-.28a.86.86,0,0,0,.07-.1,2.56,2.56,0,0,0,.2-.26l.06-.07.26-.34,0,0,.22-.3a.35.35,0,0,0,0-.08l.21-.29,0-.06.24-.35h0l.17-.25Z"/>
          <path class="cls-3" d="M95,9.49,87.1,12.55a2.49,2.49,0,0,1-2-.09A44.67,44.67,0,0,0,71.32,7.29c-.68-.14-1-.54-.89-1L72.32,1A65.09,65.09,0,0,1,85.37,4.43,72.38,72.38,0,0,0,59.5,0,91.7,91.7,0,0,0,46.26,1l-.34,5.32c0,.37-.42.72-1,.9a75.6,75.6,0,0,0-8.65,2.2,60.94,60.94,0,0,0-7.65,3,1.66,1.66,0,0,1-.31.12,2.38,2.38,0,0,1-1.69,0L20,9.45C13.15,13.17,7.63,17.81,4.14,23l7.55,2.26c.65.19.9.63.66,1.07a16.45,16.45,0,0,0-2.16,10.33c.06.41-.34.83-1,1L.58,40A18,18,0,0,1,0,35.27c-.07,7.06,3.9,13.4,10.75,18.23l7.9-3a2.47,2.47,0,0,1,2,.08,44,44,0,0,0,13.83,5.17c.67.13,1,.55.89,1L33.44,62a65.06,65.06,0,0,1-13-3.4A72.3,72.3,0,0,0,46.26,63a88.53,88.53,0,0,0,27.08-4.18C87.83,54.14,99.26,46,103.74,36.33A27.16,27.16,0,0,1,101.63,40l-7.56-2.26c-.64-.19-.9-.63-.66-1.07a16.56,16.56,0,0,0,2.15-10.33c0-.41.34-.82,1-1l8.64-2.28a18.38,18.38,0,0,1,.45,6.78C106.59,21.93,102.54,14.8,95,9.49ZM11.74,45l-1.23,1.88a.52.52,0,0,1-.28.19.77.77,0,0,1-.4,0l-3-.5c-.27,0-.4-.21-.29-.38l1.24-1.88a.5.5,0,0,1,.28-.2.89.89,0,0,1,.4,0l3,.5c.27.05.4.22.28.38ZM56.21,3,58.8,1.63l.11,0a.77.77,0,0,1,.62,0l2,1.38c.18.12.14.32-.09.44L58.86,4.82l-.13,0a.71.71,0,0,1-.61,0l-2-1.37c-.18-.13-.13-.33.09-.44ZM13,16.38l.14,0,3.24-.51c.28,0,.55.06.59.23L17.43,18c0,.13-.09.27-.31.34l-.14,0-3.22.5c-.3.05-.56-.06-.61-.22l-.44-1.88c0-.14.1-.28.31-.35ZM49.55,60,47,61.38l-.11,0a.8.8,0,0,1-.63,0l-2-1.38c-.17-.13-.13-.32.09-.45l2.58-1.37.11,0a.8.8,0,0,1,.63,0l2,1.37c.16.13.12.32-.1.45Zm23.78-1.19A87.21,87.21,0,0,1,59.5,62l.33-5.31c0-.37.42-.72,1-.9a1.89,1.89,0,0,1,.34-.09,67.46,67.46,0,0,0,8.29-2.11,61.56,61.56,0,0,0,7.69-3,2.52,2.52,0,0,1,.29-.12,2.47,2.47,0,0,1,1.7,0l6.63,3.06a73.11,73.11,0,0,1-12.42,5.26Zm19.4-12.18-.14,0-3.23.5c-.29,0-.55,0-.59-.23l-.45-1.87c0-.15.12-.29.34-.36l.12,0,3.23-.5c.3,0,.56.06.59.22l.46,1.88c0,.14-.11.29-.33.36Zm-2-18.32a8.81,8.81,0,0,1,0,.89,13.26,13.26,0,0,1-.29,2.32c-.08.37-.17.74-.27,1.1,0,.16-.07.24-.1.32a.84.84,0,0,0-.05.17,19.81,19.81,0,0,1-4,6.77,30.1,30.1,0,0,1-4.9,4.43,44,44,0,0,1-8.7,4.9Q70,50.2,67.55,51l-1,.3-.23.07-.65.19-.65.19-.65.17-.63.16-.58.15-.46.11-.32.07a63.21,63.21,0,0,1-8.86,1.37c-.72.06-1.44.11-2.17.15H50.8l-.59,0c-.7,0-1.38,0-2.06,0H47l-1.19,0-1.94-.1-1.06-.08a52,52,0,0,1-8.28-1.39h0c-1.13-.29-2.23-.61-3.29-1S29,50.62,28,50.15l-.12-.06-.07,0L27.66,50l-.07,0c-.56-.26-1.1-.52-1.63-.8a26.39,26.39,0,0,1-5.47-3.77l-.27-.24L20,45l-.33-.33-.17-.17-.14-.14-.13-.15-.13-.13c-.07-.08-.14-.17-.22-.25l-.13-.15-.11-.13a1.83,1.83,0,0,1-.13-.16l-.2-.24L18.22,43l-.1-.13L18,42.7l-.19-.26-.23-.33-.28-.42-.25-.41,0-.05h0a13.43,13.43,0,0,1-1.87-5.6q0-.46-.06-.93a12.25,12.25,0,0,1,.3-3.21,15.9,15.9,0,0,1,1-3.22,20.92,20.92,0,0,1,3.38-5.14h0c.53-.6,1.1-1.19,1.7-1.76l0,0,0,0,.23-.21h0a.94.94,0,0,0,.1-.1l.05,0,.19-.18h0l.12-.11.08-.07a2,2,0,0,1,.19-.16l.1-.09,0,0,.27-.23L23,20c.59-.49,1.2-1,1.84-1.43.49-.36,1-.7,1.5-1a47.06,47.06,0,0,1,7.58-4l.09,0,.53-.22.09,0c.78-.31,1.58-.61,2.39-.89h0l.4-.14.83-.27q.91-.3,1.86-.57l.56-.15.23-.07.3-.08.39-.1,1.74-.43c1.33-.3,2.69-.56,4.06-.78h.08l.68-.11.19,0L49,9.56l.27,0,.57-.07.3,0,.56-.06.32,0,.53-.05.35,0,.53,0,.35,0,.52,0,.37,0,.52,0,.35,0h.07l.47,0h2.56a55.44,55.44,0,0,1,13.6,1.61h0l.1,0,.41.11h0a41.79,41.79,0,0,1,5.82,2,28.07,28.07,0,0,1,7.69,4.83h0l.27.26,0,0,.08.07,0,0,.18.18h0l.08.08,0,0,.21.22.12.12.16.17.11.12.23.25.11.14.14.15a1.34,1.34,0,0,1,.11.14l.21.25.11.14.13.17.1.13.2.27.07.11h0l.14.21a.36.36,0,0,1,.07.1l0,.06.17.25,0,0,.06.11c.07.1.13.2.19.3s.07.13.1.19l.15.26.08.15c.06.11.12.22.17.33l0,.07a13.42,13.42,0,0,1,1.41,5.57Zm8.57-11.52L98,18.66a.54.54,0,0,1-.28.19.91.91,0,0,1-.4,0l-3-.5c-.27,0-.4-.22-.29-.39l1.23-1.88a.53.53,0,0,1,.28-.18.91.91,0,0,1,.4,0l3,.51c.27,0,.4.22.29.39Zm-82.49,24ZM55.1,9h0ZM17,41.2v0h0ZM54.52,9.05h0ZM56.29,9h0Zm.55,0h0Z"/>
          <g>
            <path class="cls-4" d="M35.07,15.36,33.4,13.79q2.34-1,4.88-1.83l1.85-.56h.06l.5-.14.23-.07.3-.08.39-.1.12,0,1.62-.4.88,1.83c-1.07.24-2.12.51-3.14.81h0l-.47.14-.1,0-.41.13-.28.09-.23.07Q37.24,14.43,35.07,15.36Z"/>
            <path class="cls-4" d="M62.08,11.17H62l-.47,0h-.13l-.47,0h-.05C59.67,11,58.45,11,57.2,11c-1.67,0-3.33.08-5,.21l0-1.95C54,9.05,55.79,9,57.61,9s3.59.08,5.3.23Z"/>
            <path class="cls-4" d="M89.32,34.74l-3.19-.26,0-.06a16.12,16.12,0,0,0,1-2.9,13,13,0,0,0,.26-3l3.31-.25a8.84,8.84,0,0,1,0,.89,14.29,14.29,0,0,1-.29,2.32c-.08.37-.17.74-.27,1.1l0,.08a2.17,2.17,0,0,1-.07.24.84.84,0,0,0-.05.17s0,.09,0,.13A15.52,15.52,0,0,1,89.32,34.74Z"/>
            <path class="cls-4" d="M20.49,45.41l-.27-.24L20,45l-.11-.11-.22-.22-.17-.17-.14-.14-.13-.15-.13-.13c-.07-.08-.14-.17-.22-.25l-.13-.15-.11-.13a1.83,1.83,0,0,1-.13-.16l-.2-.24L18.22,43l-.1-.13L18,42.7l-.19-.26-.08-.12-.15-.21a.86.86,0,0,1-.07-.1l-.21-.33a14.32,14.32,0,0,1-1-1.84l3.18-.75a15.16,15.16,0,0,0,1.22,2.13l.09.13.09.13.19.26.05.06a17.32,17.32,0,0,0,2.23,2.41Z"/>
            <path class="cls-4" d="M79.42,45.44l-2.35-1.19.08-.06.26-.17.14-.09.37-.25,0,0a28.56,28.56,0,0,0,5.14-4.53l2.88.76a30.52,30.52,0,0,1-4.9,4.42C80.53,44.7,80,45.08,79.42,45.44Z"/>
            <path class="cls-4" d="M77.47,15.38a35.83,35.83,0,0,0-7.9-3l1.64-1.83.1,0a39.15,39.15,0,0,1,8.48,3.2Z"/>
            <path class="cls-4" d="M22.69,23.87l-2.89-.75c.53-.6,1.1-1.19,1.7-1.76l0,0,.27-.25a.94.94,0,0,0,.1-.1l.25-.22.12-.11.27-.23.1-.09.29-.25L23,20a36.1,36.1,0,0,1,3.34-2.47l2.36,1.21,0,0L28.3,19l-.06,0-.37.26-.05,0-.38.26,0,0-.4.29-.34.25,0,0-.36.28a27.22,27.22,0,0,0-2.84,2.56l-.09.1-.11.11C23.05,23.46,22.87,23.67,22.69,23.87Z"/>
            <path class="cls-4" d="M89.47,23.16l-3.19.75a13.55,13.55,0,0,0-.8-1.5l0-.05-.2-.3a.57.57,0,0,0-.08-.13l-.09-.13L85,21.62l-.07-.09c-.07-.09-.13-.19-.21-.28l0,0a18.11,18.11,0,0,0-2.24-2.42l2.86-1.2h0l.28.27.1.09.21.21.09.08.25.26.12.12.16.17.11.12.23.25a1.34,1.34,0,0,0,.11.14l.14.15a1.34,1.34,0,0,1,.11.14l.21.25.11.14.13.17.1.13.2.27.08.12.14.21a.36.36,0,0,1,.07.1l.21.31,0,0A16.29,16.29,0,0,1,89.47,23.16Z"/>
            <path class="cls-4" d="M34.55,52.4A42.11,42.11,0,0,1,28,50.15l-.19-.09L27.59,50c-.56-.26-1.1-.52-1.62-.8l2.33-1.56.05,0,.32.16.2.1L29,48a35.93,35.93,0,0,0,7.17,2.59Z"/>
            <path class="cls-4" d="M70.45,47.74l-.18.08-.19.08-.33.13-.12,0-.1,0h0l-.37.15-.23.09-.07,0-.17.06-.43.16c-.67.25-1.34.48-2,.7l-.21.07-.62.19-.32.1-.87.25h-.07l-.37.1-.34.09h0l-.1,0h0l-1.77.43h0l.88,1.82.32-.07.28-.07.18,0,.5-.13.08,0,.58-.14.05,0,.58-.15.07,0,.53-.15.12,0,.44-.12.21-.07.23-.07,1-.3c1.67-.54,3.27-1.14,4.82-1.8l-1.68-1.57Z"/>
            <path class="cls-4" d="M53.55,53.8l-2.17.14H50.8l-.61,0c-.68,0-1.36,0-2,0H47l-1.19,0H45.7l-1.81-.1h0l-1-.08.85-1.95c1.58.14,3.21.21,4.88.2s3.33-.06,5-.2Z"/>
            <path class="cls-4" d="M18.39,34.44l-3.31.25a12.7,12.7,0,0,1,.31-3.21,15.34,15.34,0,0,1,1.05-3.22l3.2.26-.05.1-.06.14c0,.06-.05.13-.08.2a1.67,1.67,0,0,0-.08.2.5.5,0,0,0-.05.13,14.47,14.47,0,0,0-.66,2.19A13.65,13.65,0,0,0,18.39,34.44Z"/>
          </g>
          <path class="cls-5" d="M105.65,25.49c0,.12,0,.24,0,.36v.08c0,.12,0,.23,0,.35v0c0,.11,0,.23,0,.34a.28.28,0,0,1,0,.09c0,.11,0,.21,0,.32v0c0,.11,0,.23,0,.35v.09a2.71,2.71,0,0,1,0,.29v.07c0,.11,0,.23,0,.34v.1c0,.1,0,.2,0,.3v.06c0,.12,0,.24,0,.35a.38.38,0,0,0,0,.1l0,.28a.38.38,0,0,1,0,.1l0,.31v.05l-.06.44c0,.11,0,.22,0,.33s0,.05,0,.08,0,.16,0,.24a.5.5,0,0,0,0,.12,1.55,1.55,0,0,0,0,.21l0,.13c0,.06,0,.12,0,.19l0,.14c0,.06,0,.13,0,.19l0,.13-.06.21,0,.12c0,.09-.05.19-.08.28v0c0,.13-.07.25-.11.38l0,.1a2.76,2.76,0,0,1-.08.27l0,.12c0,.09,0,.17-.08.25s0,.09,0,.13,0,.16-.08.25,0,.09,0,.14a2.09,2.09,0,0,0-.08.23l-.06.15-.09.23-.06.14-.1.25a.69.69,0,0,1-.05.13l-.16.37c0,.08-.07.17-.11.25l-.09.21-.22.44s0,.1-.07.14l-.15.31-.09.17-.15.27c0,.07-.07.13-.1.19l-.15.26c0,.06-.07.12-.1.19l-.16.26a1.74,1.74,0,0,1-.11.18l-.15.26-.12.19-.16.26-.12.18-.26.39,1.14,10.09c.07-.1.13-.2.2-.29l0-.09.13-.2c0-.08.11-.16.16-.25l.12-.19.16-.26a1.74,1.74,0,0,1,.11-.18l.15-.26.11-.19.14-.25a2,2,0,0,1,.11-.2l.13-.25c0-.07.07-.13.1-.19l.15-.3.07-.15.22-.44.08-.18v0a1.89,1.89,0,0,0,.11-.25c.06-.12.11-.25.16-.37l.06-.13a2.6,2.6,0,0,1,.1-.25.78.78,0,0,0,0-.14l.09-.23.06-.15c0-.08.05-.15.08-.22l.06-.17c0-.07.05-.14.07-.21a.88.88,0,0,0,0-.15l.08-.23a.88.88,0,0,1,0-.15,2.17,2.17,0,0,1,.07-.24.93.93,0,0,1,0-.13,2.81,2.81,0,0,0,.08-.31l0-.06.09-.33s0-.05,0-.08l.06-.24,0-.13c0-.06,0-.13,0-.19l0-.14a1.62,1.62,0,0,0,0-.19l0-.13c0-.07,0-.14,0-.21s0-.08,0-.12,0-.16,0-.24v-.08l.06-.33c0-.15,0-.29.05-.44l-.12-1.07c0,.35.09.69.13,1,0-.1,0-.21,0-.31v-.1l0-.28s0-.06,0-.09,0-.24,0-.36v-.06c0-.1,0-.2,0-.29s0-.07,0-.11,0-.22,0-.34v-.45c0-.12,0-.24,0-.35v0c0-.11,0-.21,0-.32v-.09c0-.1,0-.21,0-.32v-.07c0-.1,0-.2,0-.31s0-.07,0-.1,0-.23,0-.35l-1.14-10.09Z"/>
          <g>
            <path class="cls-3" d="M26.34,17.55l2.36,1.21,0,0a42.24,42.24,0,0,1,6.41-3.42l-1.65-1.55A46.8,46.8,0,0,0,26.34,17.55Z"/>
            <path class="cls-3" d="M43.35,10.57l.88,1.83-.45.11a57.51,57.51,0,0,1,8.45-1.35l0-1.94A65,65,0,0,0,43.35,10.57Z"/>
            <path class="cls-3" d="M62.9,9.24l-.82,1.93H62a47.19,47.19,0,0,1,7.58,1.26l1.64-1.83A52.26,52.26,0,0,0,62.9,9.24Z"/>
            <path class="cls-3" d="M79.79,13.83l-2.32,1.55a24.54,24.54,0,0,1,5,3.41l2.86-1.2A26.51,26.51,0,0,0,79.79,13.83Z"/>
            <path class="cls-3" d="M86.16,34.42l0,.06,3.19.26c.17-.37.32-.75.46-1.12A20,20,0,0,1,86,39.88l-2.88-.75A19,19,0,0,0,86.16,34.42Z"/>
            <path class="cls-3" d="M77.15,44.19a41.51,41.51,0,0,1-6.46,3.45l1.67,1.57a45.77,45.77,0,0,0,7.06-3.77l-2.35-1.19Z"/>
            <path class="cls-3" d="M19.48,39.09l-3.18.75a14.32,14.32,0,0,0,1,1.84,13.6,13.6,0,0,1-2.21-7l3.3-.25a12.44,12.44,0,0,0,2,6.38A13.93,13.93,0,0,1,19.48,39.09Z"/>
            <path class="cls-3" d="M43.74,51.81a48.4,48.4,0,0,1-7.69-1.27l.15,0-1.64,1.81a51.84,51.84,0,0,0,8.27,1.4l.85-2h.07A0,0,0,0,0,43.74,51.81Z"/>
            <path class="cls-3" d="M61.53,50.6a58.81,58.81,0,0,1-8,1.19v.05h0v1.95a63.21,63.21,0,0,0,8.86-1.37Z"/>
            <path class="cls-3" d="M19.59,28.62l.05-.1-3.2-.26a20.59,20.59,0,0,1,3.37-5.14l2.88.75A18.89,18.89,0,0,0,19.59,28.62Z"/>
            <path class="cls-3" d="M87.37,28.56a12.28,12.28,0,0,0-1.89-6.15,13.55,13.55,0,0,1,.8,1.5l3.19-.75c-.21-.46-.45-.92-.71-1.37a13.57,13.57,0,0,1,1.92,6.52Z"/>
            <path class="cls-3" d="M26,49.18a26.2,26.2,0,0,1-5.48-3.77l2.86-1.2a23.81,23.81,0,0,0,5,3.44l-.05,0Z"/>
          </g>
          <path class="cls-4" d="M28.32,12.55a2.38,2.38,0,0,1-1.69,0L20,9.44A73.82,73.82,0,0,1,32.42,4.18,86.5,86.5,0,0,1,46.26,1l-.34,5.32c0,.37-.42.72-1,.9l-.31.08a70.14,70.14,0,0,0-8.34,2.12,60.94,60.94,0,0,0-7.65,3A1.66,1.66,0,0,1,28.32,12.55Z"/>
          <path class="cls-4" d="M101.63,40l-7.56-2.26c-.64-.19-.9-.63-.66-1.07a16.56,16.56,0,0,0,2.15-10.33c0-.41.34-.82,1-1l.13,0,8.51-2.25a18.38,18.38,0,0,1,.45,6.78v.05l-.06.44a21.37,21.37,0,0,1-1.62,5.55c-.07.15-.13.3-.2.46A27.16,27.16,0,0,1,101.63,40Z"/>
          <path class="cls-4" d="M92.73,46.63l-.14,0-3.23.5c-.29,0-.55,0-.59-.23l-.45-1.87c0-.15.12-.29.34-.36l.12,0,3.23-.5c.3,0,.56.06.59.22l.46,1.88C93.08,46.41,93,46.56,92.73,46.63Z"/>
          <path class="cls-4" d="M33.44,62a65.06,65.06,0,0,1-13-3.4,43.68,43.68,0,0,1-9.71-5.1l7.9-3,.13,0a2.35,2.35,0,0,1,1.84.12,44,44,0,0,0,13.83,5.17c.67.13,1,.55.89,1Z"/>
          <path class="cls-4" d="M73.33,58.81A87.21,87.21,0,0,1,59.5,62l.33-5.31c0-.37.42-.72,1-.9a1.89,1.89,0,0,1,.34-.09,67.46,67.46,0,0,0,8.29-2.11,61.56,61.56,0,0,0,7.69-3,2.52,2.52,0,0,1,.29-.12,2.47,2.47,0,0,1,1.7,0l6.63,3.06A73.11,73.11,0,0,1,73.33,58.81Z"/>
          <path class="cls-4" d="M58.73,4.87a.71.71,0,0,1-.61,0l-2-1.37c-.18-.13-.13-.33.09-.44L58.8,1.63l.11,0a.77.77,0,0,1,.62,0l2,1.38c.18.12.14.32-.09.44L58.86,4.82Z"/>
          <path class="cls-4" d="M17.12,18.29l-.14,0-3.22.5c-.3.05-.56-.06-.61-.22l-.44-1.88c0-.14.1-.28.31-.35l.14,0,3.24-.51c.28,0,.55.06.59.23L17.43,18C17.47,18.08,17.34,18.22,17.12,18.29Z"/>
          <path class="cls-4" d="M87,12.59a2.4,2.4,0,0,1-1.84-.13A44.67,44.67,0,0,0,71.32,7.29c-.68-.14-1-.54-.89-1L72.32,1A65.09,65.09,0,0,1,85.37,4.43l.28.11.22.08A44,44,0,0,1,95,9.49L87.1,12.55Z"/>
          <path class="cls-4" d="M97.73,18.85a.91.91,0,0,1-.4,0l-3-.5c-.27,0-.4-.22-.29-.39l1.23-1.88a.53.53,0,0,1,.28-.18.91.91,0,0,1,.4,0l3,.51c.27,0,.4.22.29.39L98,18.66A.54.54,0,0,1,97.73,18.85Z"/>
          <path class="cls-4" d="M9.22,37.67l-.13,0L.58,40A18.09,18.09,0,0,1,0,35.24c0-.12,0-.23,0-.35A22.19,22.19,0,0,1,4.14,23l7.55,2.26c.65.19.9.63.66,1.07a16.45,16.45,0,0,0-2.16,10.33C10.25,37.05,9.85,37.47,9.22,37.67Z"/>
          <path class="cls-4" d="M10.23,47.07a.77.77,0,0,1-.4,0l-3-.5c-.27,0-.4-.21-.29-.38l1.24-1.89A.54.54,0,0,1,8,44.14a.89.89,0,0,1,.4,0l3,.5c.27.05.4.22.28.38l-1.23,1.88A.52.52,0,0,1,10.23,47.07Z"/>
          <path class="cls-4" d="M46.86,61.42a.84.84,0,0,1-.63,0l-2-1.38c-.17-.13-.13-.32.09-.45l2.58-1.37.11,0a.8.8,0,0,1,.63,0l2,1.37c.16.13.12.32-.1.45L47,61.38Z"/>
          <path class="cls-5" d="M76.8,68.11l.31-.11.46-.17.32-.11.45-.18.33-.12.46-.18.29-.12.59-.23.16-.07.75-.31.22-.1.5-.21.32-.14.41-.19.32-.14.41-.19.31-.14.42-.2.29-.14.43-.21.27-.14c.15-.07.3-.14.44-.22l.27-.13.44-.23.25-.13.67-.36L85.75,53.55l-.68.36-.21.11-.47.25-.28.14-.43.21-.27.14L83,55l-.3.14-.41.2-.31.14-.42.19-.3.14-.46.2-.27.12-.52.23-.22.09-.74.31-.15.06-.6.25-.27.1-.49.19-.3.12-.47.17-.32.12-.46.17-.32.12-.46.16-.33.11-.51.18-.25.08-.77.25-.78.25-.23.07-.55.17-.3.09-.5.15-.31.09-.49.13-.32.09-.49.13-.33.09-.49.13-.32.08-.55.14-.26.06-.81.2-.17,0-.65.15-.28.07L65,61l-.31.07-.53.11-.3.06-.55.1-.3.06-.58.11-.26.05-.83.14h0L61,61.8,59.5,62l1.14,10.09,2-.31.67-.12.31-.06.54-.1.31-.06.52-.1.34-.07.48-.1.36-.07.51-.11.3-.07.59-.13.24-.06.76-.18h0l.24-.06.56-.14.32-.08.5-.13.32-.08.49-.14.33-.09.46-.13.34-.1.48-.14.31-.09.56-.17.22-.07.78-.25.77-.25.24-.08.37-.12.15-.06.32-.11Z"/>
          <path class="cls-5" d="M28.65,70.89l1.43.34.59.13c1.28.28,2.59.52,3.91.73L33.44,62c-.62-.1-1.24-.2-1.85-.32l-1.2-.23-.52-.11-1-.23-1.33-.31-.26-.07-.56-.14-.29-.08-.52-.14h-.05c-.67-.19-1.33-.38-2-.59s-1.22-.39-1.82-.6l-.07,0-.21-.08c-.44-.15-.87-.31-1.29-.47a43.68,43.68,0,0,1-9.71-5.1l1.14,10.09a43.68,43.68,0,0,0,9.71,5.1c.58.22,1.18.44,1.79.65l1.26.42c.76.24,1.54.47,2.32.69H27l.51.14.29.08h0l.55.14Z"/>
          <g class="cls-6">
            <path class="cls-7" d="M67.51,51a63.77,63.77,0,0,1-19.36,3c-20.71,0-35.39-10.1-32.78-22.54C17.13,23.14,26.23,15.85,38.27,12A63.08,63.08,0,0,1,57.61,9C78.33,9,93,19.09,90.38,31.53,88.63,39.87,79.55,47.14,67.51,51Z"/>
            <g class="cls-8">
              <path class="cls-9" d="M67.45,50.94a63,63,0,0,1-19.28,3c-20.61,0-35.22-10-32.63-22.43,1.76-8.31,10.81-15.55,22.8-19.42a63.1,63.1,0,0,1,19.25-3c20.62,0,35.23,10.07,32.62,22.45C88.47,39.83,79.43,47.07,67.45,50.94Z"/>
            </g>
            <g class="cls-10">
              <path class="cls-11" d="M67.38,50.85a62.71,62.71,0,0,1-19.19,3c-20.51,0-35.06-10-32.47-22.33C17.46,23.21,26.47,16,38.41,12.15a62.82,62.82,0,0,1,19.16-3C78.1,9.2,92.64,19.2,90,31.53,88.3,39.79,79.31,47,67.38,50.85Z"/>
            </g>
            <g class="cls-12">
              <path class="cls-13" d="M67.31,50.76a62.74,62.74,0,0,1-19.1,3c-20.42,0-34.89-10-32.32-22.23,1.74-8.23,10.7-15.41,22.58-19.24a62.35,62.35,0,0,1,19.08-3c20.43,0,34.9,10,32.31,22.24C88.14,39.75,79.19,46.93,67.31,50.76Z"/>
            </g>
            <g class="cls-14">
              <path class="cls-15" d="M67.24,50.67a62.13,62.13,0,0,1-19,2.93c-20.33,0-34.74-9.91-32.18-22.12,1.73-8.19,10.66-15.34,22.48-19.15a62.37,62.37,0,0,1,19-2.94c20.33,0,34.74,9.93,32.16,22.14C88,39.71,79.06,46.86,67.24,50.67Z"/>
            </g>
            <g class="cls-16">
              <path class="cls-17" d="M67.18,50.58A62,62,0,0,1,48.26,53.5c-20.23,0-34.58-9.87-32-22C18,23.33,26.84,16.21,38.61,12.42A61.77,61.77,0,0,1,57.5,9.49c20.25,0,34.59,9.88,32,22C87.81,39.67,78.94,46.78,67.18,50.58Z"/>
            </g>
            <g class="cls-18">
              <path class="cls-19" d="M67.11,50.49A62,62,0,0,1,48.28,53.4c-20.14,0-34.41-9.83-31.88-21.92,1.72-8.11,10.56-15.2,22.27-19A61.3,61.3,0,0,1,57.48,9.6c20.15,0,34.42,9.83,31.87,21.93C87.65,39.64,78.82,46.71,67.11,50.49Z"/>
            </g>
            <g class="cls-20">
              <path class="cls-21" d="M67,50.4A61.05,61.05,0,0,1,48.3,53.29c-20,0-34.25-9.77-31.72-21.81,1.7-8.08,10.5-15.12,22.16-18.88A61.32,61.32,0,0,1,57.46,9.7c20.05,0,34.26,9.79,31.71,21.83C87.48,39.6,78.7,46.64,67,50.4Z"/>
            </g>
            <g class="cls-22">
              <path class="cls-23" d="M67,50.31a60.88,60.88,0,0,1-18.66,2.88c-19.94,0-34.08-9.73-31.57-21.71,1.7-8,10.45-15,22.06-18.79A61,61,0,0,1,57.44,9.8c20,0,34.09,9.74,31.56,21.73C87.32,39.56,78.57,46.57,67,50.31Z"/>
            </g>
            <g class="cls-24">
              <path class="cls-4" d="M66.91,50.22a60.91,60.91,0,0,1-18.57,2.87c-19.85,0-33.92-9.69-31.42-21.61,1.69-8,10.41-15,22-18.7A60.46,60.46,0,0,1,57.42,9.91c19.86,0,33.93,9.69,31.41,21.62C87.15,39.52,78.45,46.5,66.91,50.22Z"/>
            </g>
            <g class="cls-25">
              <path class="cls-26" d="M66.84,50.13A60.3,60.3,0,0,1,48.37,53c-19.76,0-33.77-9.63-31.28-21.5,1.68-8,10.36-14.91,21.85-18.61A60.54,60.54,0,0,1,57.4,10c19.76,0,33.76,9.65,31.26,21.52C87,39.48,78.33,46.43,66.84,50.13Z"/>
            </g>
            <g class="cls-27">
              <path class="cls-28" d="M66.77,50a60,60,0,0,1-18.38,2.84c-19.66,0-33.6-9.59-31.12-21.4C18.94,23.56,27.57,16.64,39,13a60.55,60.55,0,0,1,18.36-2.84C77,10.13,91,19.71,88.49,31.53,86.83,39.44,78.21,46.35,66.77,50Z"/>
            </g>
          </g>
          <path class="cls-29" d="M105.69,25.85a.22.22,0,0,0,0,.08c0,.12,0,.23,0,.35v0c0,.11,0,.23,0,.34v.09c0,.11,0,.21,0,.32v0c0,.11,0,.23,0,.35v.09a2.71,2.71,0,0,1,0,.29v.07c0,.11,0,.23,0,.34v.11c0,.09,0,.19,0,.29v.06c0,.12,0,.24,0,.35a.38.38,0,0,0,0,.1l0,.28a.38.38,0,0,1,0,.1l0,.31v.05l-.06.44c0,.11,0,.22,0,.33s0,.05,0,.08,0,.16,0,.24a.5.5,0,0,0,0,.12,1.55,1.55,0,0,0,0,.21l0,.13c0,.06,0,.12,0,.19l0,.14c0,.06,0,.13,0,.19l0,.13-.06.21a.5.5,0,0,0,0,.12c0,.09-.05.19-.08.28s0,0,0,0-.07.25-.11.38l0,.1a2.76,2.76,0,0,1-.08.27l0,.12c0,.09,0,.17-.08.25s0,.09,0,.13,0,.16-.08.25a1.21,1.21,0,0,1,0,.14,2.09,2.09,0,0,0-.08.23l-.06.15-.09.23-.06.14-.1.25a.69.69,0,0,1-.05.13l-.16.37c0,.08-.07.17-.11.25l-.09.21-.22.44a.61.61,0,0,1-.07.14l-.15.31-.09.17-.15.27c0,.07-.07.13-.1.19l-.15.26c0,.06-.07.12-.1.19l-.16.26-.1.18-.16.26-.12.19-.16.26-.12.18-.26.39h0l-.23.34a.22.22,0,0,0,0,.08l-.19.26-.07.09-.21.3,0,0-.25.34,0,.06-.21.27-.08.1-.21.26,0,.07-.27.33-.06.07-.22.26-.08.09a2.85,2.85,0,0,1-.23.26l-.06.07a4.12,4.12,0,0,1-.28.31l-.08.09-.23.25-.07.08-.23.25-.09.08-.31.33,0,0-.27.28-.11.1-.23.23-.09.08-.3.3,0,0-.33.31-.11.1-.23.21a1.14,1.14,0,0,0-.11.11l-.25.21-.1.09-.34.3-.36.31-.11.09-.25.21-.13.1-.25.21L94,48.1l-.37.29,0,0-.32.25-.12.1-.26.19-.13.1-.33.24a.1.1,0,0,1,0,0l-.4.3-.07,0-.32.24-.14.09-.26.19-.15.1-.31.21-.09.06-.41.28-.09,0a3.62,3.62,0,0,1-.32.22l-.15.09-.28.18-.13.09-.86.53-.12.07-.31.19-.15.09-.3.18-.14.08-.43.25-.08,0-.37.21-.15.09-.3.17-.16.08-.16.09h0l-.68.36-.21.11-.47.25-.28.14-.43.21-.27.14L83,55l-.3.14-.41.2-.31.14-.42.19-.3.14-.46.2-.27.12-.52.23-.22.09-.74.31-.15.06-.6.25-.27.1-.49.19-.3.12-.47.17-.32.12-.46.17-.32.12-.46.16-.33.11-.51.18-.25.08-.77.25-.78.25-.23.07-.55.17-.3.09-.5.15-.31.09-.49.13-.32.09-.49.13-.33.09-.49.13-.32.08-.55.14-.26.06-.81.2-.17,0-.65.15-.28.07L65,61l-.31.07-.53.11-.3.06-.55.1-.3.06-.58.11-.26.05-.83.14h0L61,61.8,59.5,62h0l-.39.06-.27,0-.51.07-.28,0-.52.07-.27,0-.56.07-.22,0-.78.08h-.12l-.65.07-.26,0-.55,0-.24,0-.59,0-.2,0-.78,0h-.13l-.65,0h-.24l-.58,0-.23,0h-.4l-.6,0h-.35l-.62,0H43.57l-.76,0h-.12l-.68,0-.29,0-.5,0h-.3l-.5,0-.29,0-.6,0-.16,0-.78-.06-.3,0-.49-.05-.31,0-.48,0-.33,0-.44-.05-.35,0-.43,0-.34-.05-.42-.06-.35-.05-.42-.06L33.59,62l-.15,0h0c-.62-.1-1.24-.2-1.85-.32l-1.2-.23-.51-.11-1-.23-1.33-.31-.26-.06-.56-.15-.29-.08-.52-.14h-.05c-.67-.19-1.33-.38-2-.59s-1.22-.39-1.82-.6l-.07,0-.21-.08c-.44-.15-.87-.31-1.29-.47a43.68,43.68,0,0,1-9.71-5.1l-.44-.31-.08-.06-.41-.3-.08-.07-.42-.31,0,0-.41-.32,0,0-.41-.34,0,0L8,51.34l-.06-.06-.39-.34,0,0-.36-.33-.05,0-.35-.35-.07-.07-.34-.34-.06-.05-.35-.37h0L5.6,49l-.06-.06-.31-.35-.06-.07-.31-.36,0-.06c-.1-.11-.2-.23-.29-.35l0,0-.29-.37,0-.07a3.18,3.18,0,0,1-.27-.37l-.06-.07-.27-.38v0L3.29,46l0-.06L3,45.6l0-.08-.23-.38,0-.06-.24-.4h0l-.22-.41a.43.43,0,0,1,0-.07L2,43.8s0,0,0-.08-.13-.26-.19-.4l0,0-.17-.39,0-.05c-.06-.13-.12-.27-.17-.4l0-.09-.15-.4,0-.07L1,41.44v0C1,41.29.91,41.15.87,41l0-.07-.12-.41,0-.09c0-.14-.07-.27-.11-.41a17.74,17.74,0,0,1-.46-2.52L1.26,47.6a17.59,17.59,0,0,0,.46,2.49h0v0l.12.42s0,.05,0,.08.08.27.13.41l0,.07c0,.13.08.27.13.4v0L2.3,52l0,.09c0,.13.11.26.16.4l0,.07c.06.14.11.28.17.41l0,0c.06.13.11.26.18.39a.19.19,0,0,0,0,.07c.07.13.13.26.2.4l0,.07.2.39,0,.07.22.41h0c.07.14.15.27.23.4l0,.06c.08.12.15.25.23.38a.35.35,0,0,1,.05.08l.25.38,0,.06.26.37,0,0c.08.13.18.26.27.39L5,57l.28.37,0,.07.29.37,0,0c.1.12.19.24.29.35l0,.06.3.35.07.08.31.35.05.06c.12.12.23.25.34.37h0l.34.35.06.06.34.35.07.06.35.34.06.06.34.31,0,0,.37.33.07.06.38.33.08.07.39.32,0,0,.37.29.08.06.4.31.08.07.41.3.09.06.41.3h0a43.68,43.68,0,0,0,9.71,5.1c.59.22,1.18.44,1.79.65l1.26.42c.76.24,1.54.47,2.32.69H27l.51.14.29.08h.05v0c2,.51,4,1,6.16,1.31h0l.39.06.22,0h.09l.32.05.44.07.34,0,.42.06.35.05.44.06.32,0,.46,0,.33,0,.48,0,.29,0,.57.06.22,0,.78.06h.08l.71.05.25,0,.54,0h.26l.55,0,.25,0,.76,0h0l.79,0h4.94l.62,0h.35l.61,0h.38l.27,0,.52,0,.29,0,.57,0h.21l.76,0,.21,0,.57,0,.28,0,.52,0,.26,0,.59-.06.19,0h0l.76-.08.22,0,.56-.07.27,0,.52-.07.29,0,.51-.07.26,0,.6-.09.15,0,1.45-.23h0l.14,0,.67-.12.31-.06.54-.1.31-.06.52-.1.34-.07.48-.1.36-.07.51-.11.3-.07.59-.13.24-.06.76-.18h0q3-.73,5.94-1.67l.13,0,.48-.16.14,0,.61-.2,0,0,1-.35L77,68l.36-.14.19-.06L78,67.7l.14-.06.52-.19.1,0,.41-.16.17-.07.35-.14.17-.07.44-.18.06,0,.51-.21L81,66.5l.38-.16.16-.07.36-.16.14,0,.42-.19.1-.05.45-.21.16-.07.34-.16.16-.07.34-.16.15-.07.46-.23.08,0,.4-.2.14-.07.33-.17.16-.08.34-.18.12-.06.47-.25.06,0,.38-.21.16-.08.3-.17.16-.09L88,63l.08,0,.43-.25.14-.08.31-.18.15-.09.31-.19.11-.07.86-.53.14-.09.28-.18.14-.09L91.3,61l.09-.06.41-.28.09-.06.32-.21.14-.1.27-.19.13-.09.32-.24.07,0,.4-.3.06,0,.32-.24.13-.09.26-.2.12-.1a3.92,3.92,0,0,0,.32-.25l.06,0,.36-.29.11-.09.26-.21.12-.1.25-.21.11-.09.36-.31.34-.3.11-.09.24-.21.12-.11.23-.21a.52.52,0,0,1,.11-.1l.33-.31,0,0,.3-.3.09-.08.23-.23.11-.1.27-.28,0,0,.32-.33.08-.08.15-.16.08-.09.08-.08c.08-.09.16-.17.23-.26l.07-.07c.1-.11.19-.22.29-.32l0-.05.25-.29.07-.07.21-.26.07-.08c.09-.11.19-.22.27-.33l0-.05.23-.28a.86.86,0,0,0,.07-.1,2.56,2.56,0,0,0,.2-.26l.06-.07.26-.34,0,0,.22-.3a.35.35,0,0,0,0-.08l.21-.29,0-.06.24-.35h0l.17-.25h0l0,0,0-.09.13-.2c0-.08.11-.16.16-.25l.12-.19.16-.26a1.74,1.74,0,0,1,.11-.18l.15-.26.11-.19.14-.25a2,2,0,0,1,.11-.2l.13-.25c0-.07.07-.13.1-.19l.15-.3.07-.15.22-.44.08-.18v0a1.89,1.89,0,0,0,.11-.25c.06-.12.11-.25.16-.37l.06-.13a2.6,2.6,0,0,1,.1-.25.84.84,0,0,1,.06-.14,1.55,1.55,0,0,1,.08-.23l.06-.15c0-.08.05-.15.08-.22l.06-.17c0-.07.05-.14.07-.21a.88.88,0,0,0,0-.15l.08-.23a.88.88,0,0,1,0-.15,2.17,2.17,0,0,1,.07-.24.93.93,0,0,1,0-.13,2.81,2.81,0,0,0,.08-.31.14.14,0,0,0,0-.06l.09-.33,0-.08.06-.24,0-.13c0-.06,0-.13,0-.19l0-.14a1.62,1.62,0,0,0,0-.19l0-.13c0-.07,0-.14,0-.21s0-.08,0-.12,0-.16,0-.24v-.08l.06-.33c0-.15,0-.29.05-.44l-.12-1.07c0,.35.09.69.13,1,0-.1,0-.21,0-.31v-.1a2.64,2.64,0,0,1,0-.28s0-.06,0-.09,0-.24,0-.36v-.06c0-.1,0-.2,0-.29s0-.07,0-.11,0-.22,0-.34v-.45c0-.12,0-.24,0-.35v0c0-.11,0-.21,0-.32v-.09c0-.1,0-.21,0-.32v-.07c0-.1,0-.2,0-.31s0-.07,0-.1,0-.23,0-.35l-1.14-10.09h0C105.67,25.61,105.68,25.73,105.69,25.85Z"/>
          <g class="cls-6">
            <g>
              <g class="cls-27">
                <path class="cls-30" d="M86.12,20.79l.28.39.13.18.1.14.08.13L87,22a12.85,12.85,0,0,1,2,6.43,13.65,13.65,0,0,1-.27,3.09,16.76,16.76,0,0,1-1,3,19.92,19.92,0,0,1-3.22,4.92A29.73,29.73,0,0,1,79,44.22l-.53.37-.26.17a44.07,44.07,0,0,1-6.76,3.61c-.36.16-.73.31-1.21.5l-.39.16-.49.18a4.7,4.7,0,0,1-.45.17c-.69.26-1.4.5-2.12.74s-1.39.43-2.18.65l-.39.11-.49.13c-.61.16-1.23.31-1.84.45A61.38,61.38,0,0,1,48.37,53,46.77,46.77,0,0,1,28,48.73l-.16-.08-.21-.11a3.59,3.59,0,0,1-.34-.17A25.24,25.24,0,0,1,22,44.79a19.36,19.36,0,0,1-2.38-2.58l-.2-.28-.1-.13-.09-.14a13.06,13.06,0,0,1-2.4-7.09,13.65,13.65,0,0,1,.27-3.09,15.78,15.78,0,0,1,.68-2.29l.06-.14c0-.07.05-.14.08-.2l.09-.22.06-.14a19.66,19.66,0,0,1,3.24-5c.19-.21.38-.43.78-.86a31.28,31.28,0,0,1,3-2.69c.12-.09.25-.18.39-.3l.36-.27.46-.33.44-.31.45-.31.38-.25a43.76,43.76,0,0,1,6.7-3.58c1.5-.64,3.07-1.23,4.69-1.75l.24-.08.29-.09.54-.17.53-.15A59.35,59.35,0,0,1,52.2,10.25c1.72-.15,3.45-.22,5.19-.22,1.31,0,2.59,0,3.89.13l.63,0,.49,0a49.94,49.94,0,0,1,7.92,1.32,37.52,37.52,0,0,1,8.26,3.1,25.07,25.07,0,0,1,5.17,3.56A18.57,18.57,0,0,1,86.12,20.79Z"/>
              </g>
              <path class="cls-31" d="M86,20.83l.28.39.13.18.09.14.09.13c.07.1.13.21.23.37a12.65,12.65,0,0,1,2,6.41,13.48,13.48,0,0,1-.27,3.07,15.24,15.24,0,0,1-1,3,19.45,19.45,0,0,1-3.2,4.9,29.46,29.46,0,0,1-5.38,4.73l-.53.37-.26.17a43.27,43.27,0,0,1-6.73,3.59l-1.21.51-.38.15-.49.19-.45.16c-.69.26-1.4.5-2.11.73s-1.39.44-2.18.66l-.38.1-.49.13c-.61.16-1.22.31-1.84.45a60.22,60.22,0,0,1-13.51,1.5,46.43,46.43,0,0,1-20.33-4.22l-.17-.08-.2-.1-.34-.17a25.08,25.08,0,0,1-5.2-3.58,18.62,18.62,0,0,1-2.37-2.57l-.2-.27a1.13,1.13,0,0,0-.1-.13l-.09-.14A13,13,0,0,1,17,34.56a13.52,13.52,0,0,1,.27-3.08,15.65,15.65,0,0,1,.68-2.28l.06-.14a1.19,1.19,0,0,1,.08-.2l.09-.22.06-.13a19.52,19.52,0,0,1,3.22-5c.19-.21.38-.43.78-.85a28.71,28.71,0,0,1,3-2.68l.39-.3.36-.27.45-.33.44-.31.45-.31.38-.25a43,43,0,0,1,6.68-3.56c1.49-.65,3-1.23,4.66-1.75l.24-.08.29-.09.54-.16.53-.16a59.68,59.68,0,0,1,11.6-2.13c1.7-.14,3.43-.22,5.17-.22,1.3,0,2.57.05,3.87.13l.63,0,.49,0a48.34,48.34,0,0,1,7.88,1.31,37.25,37.25,0,0,1,8.23,3.08,24.88,24.88,0,0,1,5.15,3.55A18.37,18.37,0,0,1,86,20.83Z"/>
              <path class="cls-32" d="M85.86,20.87l.28.39.13.18.09.14.09.13.23.36a12.72,12.72,0,0,1,2,6.39,13.39,13.39,0,0,1-.27,3.06,15.37,15.37,0,0,1-1,3,19.21,19.21,0,0,1-3.19,4.88,29.16,29.16,0,0,1-5.35,4.71c-.13.09-.25.18-.53.36l-.26.18a43.76,43.76,0,0,1-6.7,3.58l-1.21.5-.38.15-.48.19-.45.16c-.69.26-1.39.5-2.1.73s-1.39.43-2.17.65l-.39.11-.49.13-1.83.44A60.26,60.26,0,0,1,48.4,52.8a46.38,46.38,0,0,1-20.25-4.2L28,48.52l-.21-.11-.33-.17a25.14,25.14,0,0,1-5.18-3.56,18.47,18.47,0,0,1-2.36-2.56l-.2-.27-.09-.13-.1-.14a12.93,12.93,0,0,1-2.38-7,13.43,13.43,0,0,1,.27-3.07,15.17,15.17,0,0,1,.68-2.27,1.21,1.21,0,0,0,.05-.14l.09-.2c0-.07.05-.14.08-.22l.06-.13a19.65,19.65,0,0,1,3.21-4.93l.78-.85a29.69,29.69,0,0,1,3-2.67l.39-.29.35-.27.46-.33c.12-.09.25-.19.44-.31l.44-.31.38-.25a42.23,42.23,0,0,1,6.65-3.54q2.23-1,4.65-1.75l.24-.07.29-.1.53-.16.52-.15a58.67,58.67,0,0,1,11.56-2.12c1.7-.15,3.42-.22,5.15-.23,1.29,0,2.56.05,3.86.13l.62,0,.49,0a50.22,50.22,0,0,1,7.85,1.3,38,38,0,0,1,8.2,3.08,25.34,25.34,0,0,1,5.13,3.53A18.85,18.85,0,0,1,85.86,20.87Z"/>
              <path class="cls-33" d="M85.73,20.91l.28.39.13.18.09.14a.57.57,0,0,1,.08.13c.07.1.14.2.24.36a12.7,12.7,0,0,1,2,6.36,13.26,13.26,0,0,1-.27,3.05,15.93,15.93,0,0,1-1,3,19.34,19.34,0,0,1-3.18,4.86,29.65,29.65,0,0,1-5.33,4.69c-.13.09-.25.18-.53.36l-.26.18a43,43,0,0,1-6.68,3.56l-1.19.5-.39.15-.48.19-.45.16c-.68.26-1.38.5-2.09.73s-1.38.43-2.16.64l-.38.11-.49.13c-.6.16-1.21.3-1.82.45a60.47,60.47,0,0,1-13.4,1.49,46.24,46.24,0,0,1-20.18-4.19l-.16-.08-.21-.11-.33-.17a24.55,24.55,0,0,1-5.16-3.54A18.9,18.9,0,0,1,20,42.08l-.2-.27-.09-.14-.1-.13a12.9,12.9,0,0,1-2.37-7,13.31,13.31,0,0,1,.27-3.05,15.53,15.53,0,0,1,.68-2.27.69.69,0,0,1,.05-.13l.08-.2.09-.21.06-.14a19.68,19.68,0,0,1,3.2-4.91c.18-.21.38-.42.77-.84a29.37,29.37,0,0,1,3-2.66l.38-.3.36-.26.45-.33.44-.31.44-.31.38-.25a43.16,43.16,0,0,1,6.62-3.53q2.23-1,4.63-1.74l.24-.07.29-.09.53-.16.52-.16A58.9,58.9,0,0,1,52.21,10.5c1.7-.14,3.41-.22,5.13-.22,1.29,0,2.56,0,3.85.13l.62,0,.48,0a51,51,0,0,1,7.82,1.3,37.21,37.21,0,0,1,8.17,3.07,24.77,24.77,0,0,1,5.1,3.51A18.72,18.72,0,0,1,85.73,20.91Z"/>
              <path class="cls-34" d="M85.6,21l.28.39.12.18.1.14.08.12c.07.11.14.21.23.37a12.7,12.7,0,0,1,2,6.33,13.18,13.18,0,0,1-.27,3,15.29,15.29,0,0,1-1,3,19.25,19.25,0,0,1-3.17,4.85A29.42,29.42,0,0,1,78.63,44l-.52.36-.26.18A42.62,42.62,0,0,1,71.2,48.1L70,48.6l-.38.15-.48.19-.45.16c-.68.26-1.38.5-2.08.72s-1.38.43-2.15.65l-.38.1-.49.13c-.6.16-1.21.31-1.82.45a59.93,59.93,0,0,1-13.34,1.48,45.91,45.91,0,0,1-20.1-4.17l-.16-.08-.21-.1-.32-.17a25.22,25.22,0,0,1-5.15-3.53A19.42,19.42,0,0,1,20.16,42l-.2-.27-.09-.14-.09-.13a12.81,12.81,0,0,1-2.37-7,13.22,13.22,0,0,1,.27-3,15.36,15.36,0,0,1,.67-2.26l.06-.13a1.67,1.67,0,0,1,.08-.2l.09-.21.06-.14a19.27,19.27,0,0,1,3.18-4.88c.19-.22.38-.43.78-.85a29.25,29.25,0,0,1,2.93-2.65l.38-.29.35-.27.46-.33.43-.3.45-.31.37-.25a43.28,43.28,0,0,1,6.6-3.51,48.31,48.31,0,0,1,4.61-1.73l.23-.08L39.7,13l.53-.16.52-.15a59.13,59.13,0,0,1,11.46-2.11c1.69-.14,3.4-.21,5.11-.22,1.29,0,2.55.05,3.83.13l.62,0,.48,0A49.46,49.46,0,0,1,70,11.87a37.44,37.44,0,0,1,8.14,3.05,24.89,24.89,0,0,1,5.08,3.51A18.54,18.54,0,0,1,85.6,21Z"/>
              <path class="cls-35" d="M85.47,21l.28.38.12.18.1.14a.83.83,0,0,0,.08.12l.23.37a12.65,12.65,0,0,1,1.94,6.3,13.66,13.66,0,0,1-.27,3,15.42,15.42,0,0,1-1,3,18.89,18.89,0,0,1-3.15,4.83A29.57,29.57,0,0,1,78.53,44l-.52.36-.26.17A43.19,43.19,0,0,1,71.13,48l-1.19.49-.38.15-.48.19-.44.16c-.68.25-1.38.49-2.08.72s-1.37.43-2.14.64L64,50.5l-.48.13-1.81.44a59.55,59.55,0,0,1-13.29,1.48,45.86,45.86,0,0,1-20-4.16l-.16-.08-.21-.1L27.75,48a24.38,24.38,0,0,1-5.13-3.52A19.17,19.17,0,0,1,20.29,42l-.19-.27-.1-.14-.09-.13a12.81,12.81,0,0,1-2.36-7,13.14,13.14,0,0,1,.27-3,15.24,15.24,0,0,1,.67-2.25l.06-.13a1.67,1.67,0,0,1,.08-.2l.08-.21.06-.14A19.34,19.34,0,0,1,22,23.69c.18-.21.37-.42.77-.84a26.82,26.82,0,0,1,2.92-2.64l.38-.29.35-.27.45-.33.43-.3.45-.31.37-.24A42.93,42.93,0,0,1,34.64,15c1.47-.63,3-1.21,4.59-1.72l.24-.07.28-.1.53-.16.52-.15a58.58,58.58,0,0,1,11.42-2.09c1.68-.15,3.37-.22,5.09-.22,1.27,0,2.53,0,3.81.13l.62,0,.48,0A49.13,49.13,0,0,1,70,12a36.39,36.39,0,0,1,8.1,3,24.1,24.1,0,0,1,5.07,3.49A17.85,17.85,0,0,1,85.47,21Z"/>
              <path class="cls-36" d="M85.34,21l.27.38.13.18.09.14.09.12.23.36a12.49,12.49,0,0,1,1.92,6.29,13.52,13.52,0,0,1-.26,3,15.29,15.29,0,0,1-1,3,19,19,0,0,1-3.14,4.8,29,29,0,0,1-5.27,4.64l-.52.36-.26.17A42.79,42.79,0,0,1,71.06,48l-1.19.5-.38.14L69,48.8l-.45.16c-.67.25-1.36.49-2.06.72s-1.37.42-2.14.64l-.37.1-.49.13-1.8.44a59,59,0,0,1-13.24,1.47,45.63,45.63,0,0,1-19.93-4.13l-.16-.08-.21-.11L27.85,48a24.5,24.5,0,0,1-5.1-3.51A17.9,17.9,0,0,1,20.42,42l-.19-.26-.1-.14L20,41.42a12.7,12.7,0,0,1-2.35-6.92,13,13,0,0,1,.27-3,15.12,15.12,0,0,1,.67-2.24.69.69,0,0,0,.05-.13,1.67,1.67,0,0,0,.08-.2l.09-.21.06-.14a19.43,19.43,0,0,1,3.16-4.84c.18-.21.37-.42.77-.84a27.53,27.53,0,0,1,2.91-2.62,4.6,4.6,0,0,1,.38-.3l.35-.26.44-.33.44-.3.44-.31.37-.24A42.14,42.14,0,0,1,34.71,15c1.47-.63,3-1.21,4.58-1.72l.23-.07.29-.09.52-.16.52-.15a58.21,58.21,0,0,1,11.37-2.09c1.67-.14,3.36-.21,5.07-.22,1.27,0,2.52.05,3.8.13l.61,0,.48,0A48.88,48.88,0,0,1,69.91,12a37.1,37.1,0,0,1,8.06,3,24.3,24.3,0,0,1,5,3.48A18.32,18.32,0,0,1,85.34,21Z"/>
              <path class="cls-37" d="M85.21,21.08l.27.38.13.18.09.14a.83.83,0,0,1,.08.12,3.89,3.89,0,0,1,.23.36,12.38,12.38,0,0,1,1.92,6.26,13.43,13.43,0,0,1-.26,3,15.43,15.43,0,0,1-1,2.95,18.82,18.82,0,0,1-3.13,4.78,29.07,29.07,0,0,1-5.24,4.63l-.52.35-.26.17A42.93,42.93,0,0,1,71,47.91l-1.18.49-.37.15-.48.18-.44.16c-.67.25-1.36.49-2.06.71s-1.36.43-2.12.64l-.38.11-.48.12c-.59.16-1.19.3-1.79.44a59.18,59.18,0,0,1-13.19,1.47,45.51,45.51,0,0,1-19.86-4.12l-.16-.08-.2-.1L28,47.91a23.92,23.92,0,0,1-5.08-3.49,17.8,17.8,0,0,1-2.32-2.51l-.19-.26-.1-.14-.09-.13a12.7,12.7,0,0,1-2.34-6.89,13.49,13.49,0,0,1,.27-3,15,15,0,0,1,.67-2.23.69.69,0,0,1,.05-.13l.08-.2.09-.21.06-.13a18.84,18.84,0,0,1,3.14-4.83c.19-.21.37-.42.77-.84a28.46,28.46,0,0,1,2.9-2.61l.37-.29.35-.26.45-.33.43-.3.44-.3.37-.25a41.74,41.74,0,0,1,6.51-3.47q2.19-.94,4.56-1.71l.24-.08.28-.09.52-.16.51-.15a58.69,58.69,0,0,1,11.33-2.08c1.67-.14,3.35-.21,5.05-.21,1.27,0,2.51,0,3.78.12l.61,0,.48,0a47.39,47.39,0,0,1,7.7,1.28,36.32,36.32,0,0,1,8,3,24.48,24.48,0,0,1,5,3.46A18.76,18.76,0,0,1,85.21,21.08Z"/>
              <path class="cls-38" d="M85.07,21.12c.08.1.15.19.28.38l.13.18.09.14.08.12.23.36a12.36,12.36,0,0,1,1.91,6.23,13.29,13.29,0,0,1-.26,3,15.34,15.34,0,0,1-1,2.94,18.81,18.81,0,0,1-3.11,4.76,29.3,29.3,0,0,1-5.23,4.61l-.51.35-.26.17a42.14,42.14,0,0,1-6.54,3.49l-1.18.49-.37.15-.47.18-.44.16c-.67.25-1.36.49-2,.71s-1.36.42-2.12.64l-.37.1-.48.13c-.59.15-1.19.3-1.79.43a58.07,58.07,0,0,1-13.13,1.46,45.18,45.18,0,0,1-19.78-4.1l-.16-.08-.2-.1-.32-.17A24,24,0,0,1,23,44.37a18.21,18.21,0,0,1-2.31-2.5l-.19-.27-.1-.13-.09-.13A12.59,12.59,0,0,1,18,34.47a12.78,12.78,0,0,1,.26-3,14.83,14.83,0,0,1,.66-2.22l.06-.13a1.67,1.67,0,0,1,.08-.2l.08-.21.06-.13a18.74,18.74,0,0,1,3.14-4.81c.18-.21.37-.42.76-.83A26.19,26.19,0,0,1,26,20.35c.11-.1.23-.19.37-.3l.35-.26.44-.32.43-.3.44-.3.36-.25a42.46,42.46,0,0,1,6.5-3.46c1.45-.62,3-1.19,4.54-1.7l.23-.07.28-.09.52-.16.51-.15a57.57,57.57,0,0,1,11.28-2.07c1.67-.14,3.34-.22,5-.22,1.27,0,2.51,0,3.77.13l.61,0,.47,0a49.3,49.3,0,0,1,7.67,1.27,36.56,36.56,0,0,1,8,3,24.15,24.15,0,0,1,5,3.44A17.89,17.89,0,0,1,85.07,21.12Z"/>
              <path class="cls-39" d="M84.94,21.16c.08.1.15.19.28.38l.12.18.1.14a.83.83,0,0,0,.08.12l.23.36a12.34,12.34,0,0,1,1.9,6.2,13.21,13.21,0,0,1-.26,3,15.36,15.36,0,0,1-1,2.92,18.81,18.81,0,0,1-3.1,4.75,29.07,29.07,0,0,1-5.21,4.59l-.51.35-.26.17a41.74,41.74,0,0,1-6.51,3.47c-.36.16-.71.31-1.17.49l-.38.15-.47.18-.43.16c-.67.25-1.36.49-2,.71s-1.35.42-2.1.63l-.38.1-.48.13-1.77.44a58.85,58.85,0,0,1-13.08,1.45,44.93,44.93,0,0,1-19.7-4.09l-.16-.07-.2-.11-.32-.16a24.56,24.56,0,0,1-5-3.46,18.71,18.71,0,0,1-2.3-2.49l-.19-.27-.09-.13-.09-.13a12.57,12.57,0,0,1-2.32-6.84,13.26,13.26,0,0,1,.26-3A14.37,14.37,0,0,1,19,29.27a1.12,1.12,0,0,0,.05-.13,1.67,1.67,0,0,0,.08-.2l.09-.21.06-.13a19,19,0,0,1,3.12-4.79c.18-.21.37-.41.76-.83a29,29,0,0,1,2.87-2.59l.38-.29.34-.26.45-.32.42-.3.44-.3.36-.25a42.05,42.05,0,0,1,6.47-3.44c1.45-.63,3-1.19,4.52-1.7l.23-.07.29-.09.51-.16.51-.15A58.52,58.52,0,0,1,52.23,11c1.65-.14,3.32-.21,5-.22,1.26,0,2.5.05,3.76.13l.6,0,.48,0a48.77,48.77,0,0,1,7.63,1.27,36.28,36.28,0,0,1,8,3,24,24,0,0,1,5,3.44A17.13,17.13,0,0,1,84.94,21.16Z"/>
              <path class="cls-40" d="M84.81,21.21a3.4,3.4,0,0,1,.28.37l.12.18.09.13.08.13c.07.1.14.2.23.35a12.3,12.3,0,0,1,1.9,6.18,13.12,13.12,0,0,1-.26,3,15.5,15.5,0,0,1-1,2.91,18.84,18.84,0,0,1-3.09,4.73A29.15,29.15,0,0,1,78,43.73l-.51.34-.26.17a41.9,41.9,0,0,1-6.49,3.47c-.35.15-.7.3-1.16.48l-.37.15-.47.18-.44.16c-.66.25-1.34.48-2,.71s-1.35.42-2.1.63l-.37.1-.48.12c-.58.16-1.17.3-1.77.44a58.92,58.92,0,0,1-13,1.45,45,45,0,0,1-19.61-4.07L28.77,48l-.2-.1-.32-.17a23.87,23.87,0,0,1-5-3.45,17.83,17.83,0,0,1-2.29-2.47l-.19-.27-.09-.13-.09-.13a12.57,12.57,0,0,1-2.31-6.81,13.17,13.17,0,0,1,.26-3,14.59,14.59,0,0,1,.66-2.2c0-.05,0-.09.05-.13l.08-.2.09-.21.06-.13a18.81,18.81,0,0,1,3.1-4.77c.18-.2.37-.41.76-.82a28.8,28.8,0,0,1,2.86-2.58c.12-.09.23-.19.38-.29s.22-.18.34-.26.26-.2.44-.32l.43-.3.43-.3.36-.24A42.17,42.17,0,0,1,35,15.29c1.44-.62,3-1.18,4.5-1.68l.24-.08.28-.09.51-.15.51-.15a57.86,57.86,0,0,1,11.19-2.06c1.65-.14,3.31-.21,5-.21,1.25,0,2.48,0,3.73.12l.61,0,.47,0a47.26,47.26,0,0,1,7.6,1.26,36,36,0,0,1,7.94,3,24.05,24.05,0,0,1,5,3.42A17.05,17.05,0,0,1,84.81,21.21Z"/>
              <path class="cls-41" d="M84.68,21.25c.08.09.14.19.28.37l.12.18.09.13a.57.57,0,0,1,.08.13l.23.35a12.29,12.29,0,0,1,1.89,6.16,13,13,0,0,1-.26,2.95,16.12,16.12,0,0,1-1,2.9,19,19,0,0,1-3.08,4.71,28.87,28.87,0,0,1-5.16,4.55l-.51.34-.26.17a41.51,41.51,0,0,1-6.46,3.45c-.35.15-.7.3-1.16.48l-.37.15-.47.18-.43.16c-.66.25-1.34.48-2,.7s-1.34.42-2.09.63l-.37.1-.47.13-1.77.43a58.38,58.38,0,0,1-13,1.44A44.68,44.68,0,0,1,29,48l-.16-.08-.2-.1-.32-.16a23.81,23.81,0,0,1-5-3.44,17.81,17.81,0,0,1-2.28-2.47l-.19-.26-.09-.13-.09-.13a12.46,12.46,0,0,1-2.3-6.78,13,13,0,0,1,.26-3,14.47,14.47,0,0,1,.66-2.19.5.5,0,0,1,.05-.13,1.67,1.67,0,0,1,.08-.2c0-.07.06-.14.08-.2l.06-.14a18.89,18.89,0,0,1,3.1-4.75c.18-.2.36-.41.75-.82a27.52,27.52,0,0,1,2.85-2.57l.37-.29.34-.25.44-.33.43-.29.43-.3.36-.24a41.89,41.89,0,0,1,6.42-3.42c1.43-.62,2.93-1.18,4.48-1.68l.23-.07.28-.09.51-.16.51-.15a56.74,56.74,0,0,1,11.14-2c1.64-.14,3.3-.21,5-.22,1.25,0,2.47.05,3.72.13l.6,0,.47,0a46.88,46.88,0,0,1,7.57,1.26,35.73,35.73,0,0,1,7.91,3,24.54,24.54,0,0,1,5,3.41A17.49,17.49,0,0,1,84.68,21.25Z"/>
            </g>
          </g>
          <path class="cls-3" d="M84.68,21.25c.08.09.14.19.28.37l.12.18.09.13a.57.57,0,0,1,.08.13l.23.35a12.29,12.29,0,0,1,1.89,6.16,13,13,0,0,1-.26,2.95,16.12,16.12,0,0,1-1,2.9,19,19,0,0,1-3.08,4.71,28.87,28.87,0,0,1-5.16,4.55l-.51.34-.26.17a41.51,41.51,0,0,1-6.46,3.45c-.35.15-.7.3-1.16.48l-.37.15-.47.18-.43.16c-.66.25-1.34.48-2,.7s-1.34.42-2.09.63l-.37.1-.47.13-1.77.43a58.38,58.38,0,0,1-13,1.44A44.68,44.68,0,0,1,29,48l-.16-.08-.2-.1-.32-.16a23.81,23.81,0,0,1-5-3.44,17.81,17.81,0,0,1-2.28-2.47l-.19-.26-.09-.13-.09-.13a12.46,12.46,0,0,1-2.3-6.78,13,13,0,0,1,.26-3,14.47,14.47,0,0,1,.66-2.19.5.5,0,0,1,.05-.13,1.67,1.67,0,0,1,.08-.2c0-.07.06-.14.08-.2l.06-.14a18.89,18.89,0,0,1,3.1-4.75c.18-.2.36-.41.75-.82a27.52,27.52,0,0,1,2.85-2.57l.37-.29.34-.25.44-.33.43-.29.43-.3.36-.24a41.89,41.89,0,0,1,6.42-3.42c1.43-.62,2.93-1.18,4.48-1.68l.23-.07.28-.09.51-.16.51-.15a56.74,56.74,0,0,1,11.14-2c1.64-.14,3.3-.21,5-.22,1.25,0,2.47.05,3.72.13l.6,0,.47,0a46.88,46.88,0,0,1,7.57,1.26,35.73,35.73,0,0,1,7.91,3,24.54,24.54,0,0,1,5,3.41A17.49,17.49,0,0,1,84.68,21.25ZM56.35,15a46.42,46.42,0,0,0-14.17,2.2C33.36,20,26.7,25.37,25.41,31.49,23.5,40.59,34.25,48,49.41,48A46.5,46.5,0,0,0,63.6,45.8C72.41,43,79.06,37.63,80.34,31.52c1.93-9.11-8.82-16.5-24-16.52Z"/>
          <path class="cls-4" d="M63.6,45.8A46.5,46.5,0,0,1,49.41,48c-15.16,0-25.91-7.4-24-16.5,1.29-6.12,8-11.45,16.77-14.29A46.42,46.42,0,0,1,56.35,15c15.17,0,25.92,7.41,24,16.52C79.06,37.63,72.41,43,63.6,45.8Z"/>
          <path class="cls-42" d="M95,9.49l-.62.24h0L95,9.49a44,44,0,0,0-9.14-4.87l-.22-.08-.28-.11A72.38,72.38,0,0,0,59.5,0,91.7,91.7,0,0,0,46.26,1,86.5,86.5,0,0,0,32.42,4.18,73.82,73.82,0,0,0,20,9.44h0C13.15,13.17,7.63,17.81,4.14,23A22.16,22.16,0,0,0,0,34.89c0,.12,0,.23,0,.35a18.11,18.11,0,0,0,.51,4.42A18,18,0,0,1,0,35.27c-.07,7.06,3.9,13.4,10.75,18.23a43.68,43.68,0,0,0,9.71,5.1A72.3,72.3,0,0,0,46.26,63a88.84,88.84,0,0,0,27.08-4.18c14.5-4.68,25.92-12.86,30.4-22.49.07-.16.13-.31.2-.46a21,21,0,0,0,1.62-5.55l.06-.44v-.05c0-.29.06-.58.08-.86,0,.28,0,.57-.08.86C106.59,21.93,102.54,14.8,95,9.49ZM29.17,61.19c.56.13,1.12.24,1.69.35C30.29,61.43,29.73,61.32,29.17,61.19ZM59.5,62h0l1.79-.29Zm42.13-22-1.33-.4h0l1.33.4c.21-.31.4-.61.6-.92C102,39.41,101.84,39.71,101.63,40Z"/>
          <g class="cls-43">
            <path class="cls-28" d="M101.63,40l-1.33-.4h0l1.33.4c.21-.31.4-.61.6-.92C102,39.41,101.84,39.71,101.63,40ZM59.5,62h0l1.79-.29ZM95,9.49l-.62.24h0L95,9.49a44,44,0,0,0-9.14-4.87l-.22-.08-.28-.11A72.38,72.38,0,0,0,59.5,0,91.7,91.7,0,0,0,46.26,1,86.5,86.5,0,0,0,32.42,4.18,73.82,73.82,0,0,0,20,9.44h0C13.15,13.17,7.63,17.81,4.14,23A22.16,22.16,0,0,0,0,34.89c0,.12,0,.23,0,.35a18.11,18.11,0,0,0,.51,4.42A18,18,0,0,1,0,35.27c-.07,7.06,3.9,13.4,10.75,18.23a43.68,43.68,0,0,0,9.71,5.1A72.3,72.3,0,0,0,46.26,63a88.84,88.84,0,0,0,27.08-4.18c14.5-4.68,25.92-12.86,30.4-22.49.07-.16.13-.31.2-.46a21,21,0,0,0,1.62-5.55l.06-.44v-.05c0-.29.06-.58.08-.86,0,.28,0,.57-.08.86C106.59,21.93,102.54,14.8,95,9.49ZM29.17,61.19c.56.13,1.12.24,1.69.35C30.29,61.43,29.73,61.32,29.17,61.19Z"/>
            <path class="cls-44" d="M101.59,40.13l-1.32-.4h0l1.32.4c.21-.31.41-.61.6-.92C102,39.52,101.8,39.82,101.59,40.13Zm-42.09,22h0c.61-.08,1.21-.18,1.8-.28C60.71,61.93,60.11,62,59.5,62.11ZM95,9.63l-.62.24h0L95,9.63a44.13,44.13,0,0,0-9.13-4.86l-.22-.08-.28-.11A72.2,72.2,0,0,0,59.51.15a91.21,91.21,0,0,0-13.22,1A85.87,85.87,0,0,0,32.46,4.33a72.55,72.55,0,0,0-12.4,5.26h0C13.21,13.31,7.69,17.94,4.2,23.1A22.26,22.26,0,0,0,.08,35c0,.11,0,.23,0,.34a18.11,18.11,0,0,0,.51,4.42,18,18,0,0,1-.51-4.39C0,42.44,4,48.77,10.81,53.6a43.92,43.92,0,0,0,9.69,5.09,72.45,72.45,0,0,0,25.78,4.4,89,89,0,0,0,27.05-4.18c14.49-4.67,25.88-12.86,30.37-22.47.07-.15.14-.3.2-.45a21.4,21.4,0,0,0,1.63-5.55c0-.15,0-.29,0-.44V30c0-.29.06-.57.08-.86,0,.29,0,.57-.08.86C106.55,22.06,102.5,14.93,95,9.63ZM29.21,61.28l1.69.35Z"/>
            <path class="cls-45" d="M101.56,40.24l-1.32-.4h0l1.32.4c.21-.31.41-.61.6-.92C102,39.63,101.77,39.93,101.56,40.24Zm-42.05,22h0l1.8-.28ZM95,9.77l-.62.24h0L95,9.77a43.3,43.3,0,0,0-9.12-4.85l-.21-.09-.29-.11A72.26,72.26,0,0,0,59.52.3a91.07,91.07,0,0,0-13.21,1A85.63,85.63,0,0,0,32.5,4.48,72.43,72.43,0,0,0,20.11,9.73h0c-6.85,3.72-12.36,8.34-15.84,13.5A22.19,22.19,0,0,0,.15,35.12c0,.12,0,.23,0,.35a18.53,18.53,0,0,0,.5,4.41,18.46,18.46,0,0,1-.5-4.38C.07,42.54,4,48.87,10.86,53.7a44.35,44.35,0,0,0,9.69,5.08,72.3,72.3,0,0,0,25.76,4.39,88.45,88.45,0,0,0,27-4.17c14.47-4.67,25.85-12.85,30.33-22.45l.21-.45a21.58,21.58,0,0,0,1.62-5.54l.06-.44v-.05c0-.29.06-.57.08-.86,0,.29,0,.57-.08.86C106.51,22.19,102.47,15.07,95,9.77Zm-65.7,51.6,1.69.35Z"/>
            <path class="cls-46" d="M101.53,40.35l-1.32-.4h0l1.32.4c.2-.31.4-.61.59-.92C101.93,39.74,101.73,40,101.53,40.35Zm-42,21.94h0l1.8-.29ZM94.93,9.92l-.62.24h0l.63-.24a43.79,43.79,0,0,0-9.12-4.86L85.6,5l-.28-.11A72.19,72.19,0,0,0,59.53.45a91,91,0,0,0-13.2,1,86.83,86.83,0,0,0-13.8,3.2A73,73,0,0,0,20.16,9.87h0C13.32,13.59,7.81,18.2,4.33,23.36A22.15,22.15,0,0,0,.22,35.24c0,.11,0,.23,0,.34A18.47,18.47,0,0,0,.71,40a18.4,18.4,0,0,1-.5-4.38C.14,42.65,4.09,49,10.92,53.79a43.62,43.62,0,0,0,9.68,5.08,72.39,72.39,0,0,0,25.73,4.39,88.25,88.25,0,0,0,27-4.17c14.46-4.66,25.83-12.83,30.31-22.42.07-.15.13-.3.2-.46a21.63,21.63,0,0,0,1.62-5.53l.06-.44v0c0-.29.06-.57.09-.86,0,.29,0,.57-.09.86C106.47,22.31,102.43,15.21,94.93,9.92ZM29.29,61.46l1.68.35Z"/>
            <path class="cls-47" d="M101.49,40.46l-1.32-.4h0l1.32.4c.21-.31.41-.61.6-.92C101.9,39.85,101.7,40.15,101.49,40.46Zm-42,21.92h0c.6-.08,1.2-.18,1.79-.28ZM94.9,10.06l-.62.24h0l.62-.24a43.22,43.22,0,0,0-9.11-4.85l-.21-.08L85.3,5A71.81,71.81,0,0,0,59.54.61a89.52,89.52,0,0,0-13.19,1,86.58,86.58,0,0,0-13.78,3.2A72.88,72.88,0,0,0,20.21,10h0C13.37,13.72,7.88,18.34,4.4,23.49A22.09,22.09,0,0,0,.29,35.35c0,.12,0,.23,0,.35a18.44,18.44,0,0,0,.5,4.4,18.31,18.31,0,0,1-.5-4.37c-.07,7,3.88,13.35,10.7,18.16A43.94,43.94,0,0,0,20.65,59a72.22,72.22,0,0,0,25.7,4.39,88.78,88.78,0,0,0,27-4.17c14.43-4.66,25.8-12.82,30.27-22.4.07-.15.14-.3.2-.45a20.85,20.85,0,0,0,1.62-5.53l.06-.44v-.05c0-.29.06-.57.08-.86,0,.29,0,.57-.08.86C106.43,22.44,102.4,15.34,94.9,10.06ZM29.33,61.54c.56.13,1.12.24,1.68.35C30.45,61.78,29.89,61.67,29.33,61.54Z"/>
            <path class="cls-48" d="M101.46,40.57l-1.32-.4h0l1.32.4c.2-.31.4-.61.59-.92C101.86,40,101.66,40.26,101.46,40.57ZM59.54,62.46h0l1.79-.28ZM94.87,10.2l-.62.24h0l.62-.24a43,43,0,0,0-9.09-4.84l-.22-.09-.28-.11A71.86,71.86,0,0,0,59.55.76a89.15,89.15,0,0,0-13.17,1,85.13,85.13,0,0,0-13.77,3.2,72.41,72.41,0,0,0-12.35,5.23h0c-6.83,3.71-12.32,8.32-15.8,13.46A22.15,22.15,0,0,0,.36,35.47c0,.11,0,.23,0,.34a18.39,18.39,0,0,0,.5,4.4,18.31,18.31,0,0,1-.5-4.37C.28,42.87,4.22,49.18,11,54a43.22,43.22,0,0,0,9.66,5.07,71.83,71.83,0,0,0,25.67,4.38,88.23,88.23,0,0,0,26.94-4.16c14.42-4.65,25.79-12.8,30.24-22.38l.21-.45a21.13,21.13,0,0,0,1.61-5.52l.06-.44v-.05c0-.29.06-.57.08-.86,0,.29,0,.57-.08.86C106.39,22.57,102.36,15.48,94.87,10.2ZM29.37,61.63l1.68.35Z"/>
            <path class="cls-49" d="M101.42,40.68l-1.31-.4h0l1.31.4c.21-.31.41-.61.6-.92C101.83,40.07,101.63,40.37,101.42,40.68ZM59.55,62.55h0l1.79-.28Zm35.3-52.21-.63.24h0l.63-.24A43.75,43.75,0,0,0,85.76,5.5l-.21-.08-.29-.11A71.69,71.69,0,0,0,59.56.91a89,89,0,0,0-13.16,1A86.32,86.32,0,0,0,32.64,5.06a73.35,73.35,0,0,0-12.33,5.23h0C13.49,14,8,18.6,4.53,23.74A22.12,22.12,0,0,0,.43,35.59c0,.11,0,.22,0,.33a18.39,18.39,0,0,0,.5,4.4A18.29,18.29,0,0,1,.42,36C.35,43,4.29,49.28,11.1,54.08a43.76,43.76,0,0,0,9.65,5.06A71.9,71.9,0,0,0,46.4,63.52a88.39,88.39,0,0,0,26.91-4.16C87.71,54.71,99.07,46.58,103.52,37l.2-.45A21.13,21.13,0,0,0,105.33,31a3.32,3.32,0,0,0,.06-.44v-.05c0-.28.06-.57.08-.85,0,.28,0,.57-.08.85C106.35,22.7,102.33,15.61,94.85,10.34ZM29.41,61.72l1.68.35Z"/>
            <path class="cls-50" d="M101.39,40.79l-1.32-.4h0l1.32.4c.2-.31.4-.61.59-.92C101.79,40.18,101.59,40.48,101.39,40.79ZM59.56,62.64h0l1.78-.29ZM94.82,10.48l-.62.24h0l.62-.24a43.39,43.39,0,0,0-9.08-4.83l-.21-.08-.28-.11a71.92,71.92,0,0,0-25.68-4.4A90.25,90.25,0,0,0,46.42,2,86.08,86.08,0,0,0,32.68,5.21a71.63,71.63,0,0,0-12.32,5.23h0c-6.82,3.7-12.3,8.3-15.77,13.43A22.23,22.23,0,0,0,.49,35.7V36A18.36,18.36,0,0,0,1,40.43a18.23,18.23,0,0,1-.5-4.36c-.07,7,3.86,13.31,10.67,18.11a43.44,43.44,0,0,0,9.64,5A71.78,71.78,0,0,0,46.42,63.6,87.89,87.89,0,0,0,73.3,59.45C87.69,54.81,99,46.68,103.48,37.12c.07-.15.14-.3.2-.45a21.49,21.49,0,0,0,1.62-5.51c0-.15,0-.29,0-.44v0c0-.28.06-.57.08-.85,0,.28,0,.57-.08.85C106.31,22.83,102.29,15.75,94.82,10.48ZM29.45,61.81l1.68.35Z"/>
            <path class="cls-51" d="M101.36,40.9,100,40.5h0l1.32.4L102,40ZM59.57,62.72h0l1.78-.28Zm35.22-52.1-.62.24h0l.62-.24A43.07,43.07,0,0,0,85.72,5.8l-.21-.09-.28-.11A72,72,0,0,0,59.58,1.21a90.11,90.11,0,0,0-13.14,1A85.83,85.83,0,0,0,32.72,5.36a72,72,0,0,0-12.31,5.22h0C13.6,14.28,8.12,18.87,4.66,24A22.08,22.08,0,0,0,.56,35.82v.33a18.3,18.3,0,0,0,.5,4.39,18.21,18.21,0,0,1-.5-4.35c-.07,7,3.86,13.29,10.66,18.08a43.09,43.09,0,0,0,9.62,5,72,72,0,0,0,25.6,4.37A88.06,88.06,0,0,0,73.3,59.54C87.67,54.9,99,46.78,103.44,37.23l.21-.45a21,21,0,0,0,1.61-5.5l.06-.44v-.05c0-.28.06-.57.08-.85,0,.28,0,.57-.08.85C106.27,23,102.26,15.88,94.79,10.62ZM29.49,61.89c.55.13,1.11.24,1.67.35C30.6,62.13,30,62,29.49,61.89Z"/>
            <path class="cls-52" d="M101.32,41l-1.31-.4h0l1.31.4c.21-.31.4-.61.59-.91C101.72,40.4,101.53,40.7,101.32,41ZM59.57,62.81h0l1.79-.28Zm35.19-52-.62.24h0l.62-.24A43.67,43.67,0,0,0,85.7,5.94l-.21-.08-.28-.11A71.82,71.82,0,0,0,59.58,1.36a88.43,88.43,0,0,0-13.11,1A84.51,84.51,0,0,0,32.75,5.51a71.71,71.71,0,0,0-12.3,5.21h0C13.65,14.41,8.18,19,4.72,24.12A22.18,22.18,0,0,0,.63,35.93v.34a17.73,17.73,0,0,0,.5,4.38,17.66,17.66,0,0,1-.5-4.35c-.07,7,3.86,13.28,10.64,18.07a43.71,43.71,0,0,0,9.62,5,71.79,71.79,0,0,0,25.57,4.37,88.18,88.18,0,0,0,26.83-4.15C87.65,55,99,46.89,103.41,37.35c.07-.15.14-.3.2-.45a21,21,0,0,0,1.61-5.5l.06-.44v-.05c0-.28.07-.57.09-.85,0,.28-.05.57-.09.85C106.23,23.08,102.22,16,94.76,10.76ZM29.53,62l1.67.35Z"/>
            <path class="cls-53" d="M101.29,41.12l-1.31-.4h0l1.31.4.59-.91ZM59.58,62.9h0l1.78-.29Zm35.16-52-.62.23h0l.62-.24a43.6,43.6,0,0,0-9-4.81L85.47,6l-.28-.1a71.65,71.65,0,0,0-25.6-4.39,88.29,88.29,0,0,0-13.1,1,85.57,85.57,0,0,0-13.7,3.17A73.22,73.22,0,0,0,20.5,10.86h0c-6.8,3.69-12.26,8.27-15.72,13.39A22.09,22.09,0,0,0,.7,36.05v.33a17.73,17.73,0,0,0,.5,4.38,17.58,17.58,0,0,1-.5-4.34c-.07,7,3.85,13.26,10.63,18a43,43,0,0,0,9.61,5,71.41,71.41,0,0,0,25.54,4.36,87.74,87.74,0,0,0,26.81-4.14C87.63,55.09,99,47,103.37,37.46l.21-.45a21.29,21.29,0,0,0,1.6-5.49l.06-.44v0c0-.28.06-.57.08-.85,0,.28,0,.57-.08.85C106.2,23.21,102.19,16.16,94.74,10.91ZM29.57,62.07l1.67.35Z"/>
            <path class="cls-54" d="M101.25,41.23l-1.31-.4h0l1.31.4c.21-.31.4-.61.59-.91C101.65,40.62,101.46,40.92,101.25,41.23ZM59.59,63h0l1.78-.28ZM94.71,11.05l-.62.23h0l.62-.23a43.28,43.28,0,0,0-9-4.82l-.21-.08L85.18,6A71.8,71.8,0,0,0,59.6,1.66a89.42,89.42,0,0,0-13.09,1A85.7,85.7,0,0,0,32.82,5.8,72.51,72.51,0,0,0,20.55,11h0C13.77,14.69,8.31,19.27,4.85,24.38A22,22,0,0,0,.77,36.16v.34a18.13,18.13,0,0,0,.49,4.37,18.06,18.06,0,0,1-.49-4.34c-.08,7,3.85,13.25,10.62,18a43.53,43.53,0,0,0,9.6,5A71.69,71.69,0,0,0,46.51,64a87.83,87.83,0,0,0,26.77-4.14c14.33-4.62,25.63-12.72,30.06-22.24l.2-.44a21.29,21.29,0,0,0,1.6-5.49l.06-.44v-.05c0-.28.06-.57.08-.85,0,.28-.05.57-.08.85C106.16,23.34,102.15,16.29,94.71,11.05ZM29.61,62.16l1.67.35Z"/>
          </g>
          <g class="cls-55">
            <path class="cls-54" d="M95.21,11.05h0a43.49,43.49,0,0,0-9.14-4.86l-.21-.09L85.57,6A72.54,72.54,0,0,0,59.71,1.56a90.09,90.09,0,0,0-13.24,1A83.92,83.92,0,0,0,32.63,5.75,72.32,72.32,0,0,0,20.22,11h0C13.35,14.74,7.83,19.37,4.34,24.54A22.28,22.28,0,0,0,.21,36.46v.34a18.61,18.61,0,0,0,.5,4.42,18.48,18.48,0,0,1-.5-4.39C.13,43.89,4.1,50.23,11,55.07a44.3,44.3,0,0,0,9.71,5.09,72.53,72.53,0,0,0,25.81,4.41,88.73,88.73,0,0,0,27.07-4.19c14.5-4.67,25.93-12.86,30.4-22.49.07-.15.14-.3.2-.45a21.47,21.47,0,0,0,1.63-5.56l.06-.44v-.05c0-.29.06-.57.09-.86,0,.29,0,.57-.09.86C106.79,23.49,102.74,16.36,95.21,11.05Z"/>
            <path class="cls-53" d="M95.2,10.91h0a43.57,43.57,0,0,0-9.15-4.86L85.84,6l-.29-.11A72.32,72.32,0,0,0,59.69,1.42a91.49,91.49,0,0,0-13.24,1A86,86,0,0,0,32.61,5.6,72.34,72.34,0,0,0,20.2,10.87h0C13.34,14.59,7.82,19.23,4.32,24.4A22.36,22.36,0,0,0,.19,36.31v.35a18.61,18.61,0,0,0,.5,4.42,18.54,18.54,0,0,1-.5-4.39c-.07,7.06,3.89,13.4,10.74,18.24A44.3,44.3,0,0,0,20.64,60a72.36,72.36,0,0,0,25.81,4.4,88.53,88.53,0,0,0,27.08-4.18C88,55.56,99.43,47.36,103.92,37.75l.21-.46a21.65,21.65,0,0,0,1.62-5.55l.06-.44v-.05c0-.29.07-.57.09-.86,0,.29-.05.57-.09.86C106.77,23.35,102.72,16.22,95.2,10.91Z"/>
            <path class="cls-52" d="M95.18,10.77h0A44.06,44.06,0,0,0,86,5.9l-.21-.08-.28-.11A72.42,72.42,0,0,0,59.67,1.28a90.09,90.09,0,0,0-13.24,1A86,86,0,0,0,32.59,5.46a73.47,73.47,0,0,0-12.41,5.26h0C13.32,14.45,7.8,19.08,4.3,24.26A22.23,22.23,0,0,0,.18,36.17c0,.12,0,.23,0,.34a18.64,18.64,0,0,0,.5,4.43,18.54,18.54,0,0,1-.5-4.39C.1,43.61,4.06,50,10.92,54.78a43.17,43.17,0,0,0,9.7,5.09,72.17,72.17,0,0,0,25.81,4.41A88.84,88.84,0,0,0,73.51,60.1C88,55.42,99.41,47.22,103.9,37.6l.21-.45a21.37,21.37,0,0,0,1.62-5.55l.06-.44v-.05c0-.29.06-.58.08-.86,0,.28,0,.57-.08.86C106.75,23.21,102.7,16.08,95.18,10.77Z"/>
            <path class="cls-56" d="M95.16,10.63h0A43.6,43.6,0,0,0,86,5.76l-.21-.08-.28-.11A72.2,72.2,0,0,0,59.65,1.14a88.74,88.74,0,0,0-13.24,1A86.5,86.5,0,0,0,32.57,5.32a72.66,72.66,0,0,0-12.41,5.26h0C13.3,14.31,7.78,18.94,4.29,24.11A22.22,22.22,0,0,0,.16,36c0,.11,0,.23,0,.34A18.14,18.14,0,0,0,.66,40.8a18,18,0,0,1-.51-4.39c-.07,7.06,3.9,13.4,10.75,18.23a43,43,0,0,0,9.71,5.09,72.29,72.29,0,0,0,25.8,4.41A88.84,88.84,0,0,0,73.49,60c14.49-4.68,25.9-12.88,30.39-22.5l.21-.45a21.37,21.37,0,0,0,1.62-5.55l.06-.44V31c0-.29.06-.58.08-.87,0,.29,0,.58-.08.87C106.74,23.07,102.69,15.93,95.16,10.63Z"/>
            <path class="cls-50" d="M95.14,10.49h0A43.06,43.06,0,0,0,86,5.62l-.22-.09-.28-.11A72.58,72.58,0,0,0,59.64,1,90.33,90.33,0,0,0,46.39,2,86.5,86.5,0,0,0,32.55,5.18a73,73,0,0,0-12.41,5.26h0C13.28,14.17,7.76,18.8,4.27,24A22.22,22.22,0,0,0,.14,35.89c0,.11,0,.23,0,.34a18.25,18.25,0,0,0,.51,4.43,18.07,18.07,0,0,1-.51-4.4C.06,43.32,4,49.67,10.88,54.5a44.08,44.08,0,0,0,9.71,5.09A72.51,72.51,0,0,0,46.39,64a88.84,88.84,0,0,0,27.08-4.19c14.5-4.67,25.9-12.87,30.4-22.49l.2-.45a20.94,20.94,0,0,0,1.62-5.56l.06-.43v-.06c0-.28.06-.57.08-.86,0,.29,0,.58-.08.86C106.72,22.92,102.67,15.79,95.14,10.49Z"/>
            <path class="cls-49" d="M95.12,10.34h0A43.49,43.49,0,0,0,86,5.48l-.22-.09-.28-.11A72.58,72.58,0,0,0,59.62.85a91.49,91.49,0,0,0-13.24,1A86,86,0,0,0,32.54,5,73.6,73.6,0,0,0,20.12,10.3h0C13.26,14,7.74,18.66,4.25,23.83A22.19,22.19,0,0,0,.12,35.75c0,.11,0,.22,0,.34a18.11,18.11,0,0,0,.51,4.42,18,18,0,0,1-.51-4.39C0,43.18,4,49.52,10.86,54.36a44.08,44.08,0,0,0,9.71,5.09,72.51,72.51,0,0,0,25.8,4.41,88.84,88.84,0,0,0,27.08-4.19C88,55,99.35,46.8,103.85,37.18c.07-.15.14-.3.2-.46a21.29,21.29,0,0,0,1.63-5.55c0-.14,0-.29,0-.44v-.05c0-.29.06-.57.08-.86,0,.29,0,.57-.08.86C106.7,22.78,102.65,15.65,95.12,10.34Z"/>
            <path class="cls-48" d="M95.1,10.2h0A44,44,0,0,0,86,5.33l-.21-.08-.29-.11A72.36,72.36,0,0,0,59.6.71a91.49,91.49,0,0,0-13.24,1A86,86,0,0,0,32.52,4.89a72.34,72.34,0,0,0-12.41,5.27h0C13.24,13.88,7.72,18.52,4.23,23.69A22.27,22.27,0,0,0,.1,35.6c0,.12,0,.23,0,.35A18.62,18.62,0,0,0,.6,40.37,18.55,18.55,0,0,1,.09,36C0,43,4,49.38,10.84,54.21a43.9,43.9,0,0,0,9.71,5.1,72.32,72.32,0,0,0,25.81,4.4,88.47,88.47,0,0,0,27.07-4.18c14.5-4.68,25.9-12.88,30.4-22.49.07-.15.14-.31.2-.46A21.29,21.29,0,0,0,105.66,31l.06-.44v-.05c0-.29.06-.57.08-.86,0,.29,0,.57-.08.86C106.68,22.64,102.63,15.51,95.1,10.2Z"/>
            <path class="cls-47" d="M95.08,10.06h0a43.51,43.51,0,0,0-9.14-4.87l-.21-.08L85.44,5A72.32,72.32,0,0,0,59.58.57a90.09,90.09,0,0,0-13.24,1A86,86,0,0,0,32.5,4.75,73.12,73.12,0,0,0,20.09,10h0C13.22,13.74,7.7,18.37,4.21,23.54A22.3,22.3,0,0,0,.08,35.46v.34a18.64,18.64,0,0,0,.5,4.43,18.54,18.54,0,0,1-.5-4.39C0,42.9,4,49.24,10.82,54.07a43.46,43.46,0,0,0,9.71,5.09,72.31,72.31,0,0,0,25.81,4.41,88.73,88.73,0,0,0,27.07-4.18c14.5-4.68,25.9-12.88,30.4-22.5.07-.15.14-.3.2-.45a21.4,21.4,0,0,0,1.63-5.55l.06-.44V30.4c0-.29.06-.58.08-.86,0,.28,0,.57-.08.86C106.66,22.5,102.61,15.37,95.08,10.06Z"/>
            <path class="cls-57" d="M95.07,9.92h0a43.6,43.6,0,0,0-9.15-4.87L85.71,5l-.29-.12A72.33,72.33,0,0,0,59.56.43a88.74,88.74,0,0,0-13.24,1A86,86,0,0,0,32.48,4.61,72.32,72.32,0,0,0,20.07,9.87h0C13.21,13.6,7.69,18.23,4.19,23.4A22.39,22.39,0,0,0,.06,35.32v.34a18.64,18.64,0,0,0,.5,4.43,18.54,18.54,0,0,1-.5-4.39C0,42.76,4,49.1,10.8,53.93A43.46,43.46,0,0,0,20.51,59a72.35,72.35,0,0,0,25.81,4.41A88.54,88.54,0,0,0,73.4,59.24c14.49-4.67,25.89-12.87,30.39-22.49l.21-.45a21.71,21.71,0,0,0,1.62-5.56l.06-.43v0q.06-.44.09-.87,0,.43-.09.87C106.64,22.36,102.59,15.22,95.07,9.92Z"/>
            <path class="cls-45" d="M95.05,9.78h0A43.14,43.14,0,0,0,85.9,4.91l-.21-.09-.28-.11A72.64,72.64,0,0,0,59.54.28a90.09,90.09,0,0,0-13.24,1A86,86,0,0,0,32.46,4.47,72.66,72.66,0,0,0,20.05,9.73h0C13.19,13.46,7.67,18.09,4.17,23.26A22.29,22.29,0,0,0,.05,35.18c0,.11,0,.23,0,.34A18.75,18.75,0,0,0,.54,40a18.56,18.56,0,0,1-.5-4.4C0,42.61,3.93,49,10.79,53.79a44,44,0,0,0,9.7,5.09A72.57,72.57,0,0,0,46.3,63.29,88.84,88.84,0,0,0,73.38,59.1c14.49-4.67,25.9-12.87,30.39-22.49l.21-.45a21.43,21.43,0,0,0,1.62-5.56l.06-.43v-.06c0-.28.06-.57.08-.86,0,.29,0,.58-.08.86C106.62,22.21,102.57,15.08,95.05,9.78Z"/>
            <path class="cls-44" d="M95,9.63h0a43.57,43.57,0,0,0-9.15-4.86l-.21-.09-.28-.11A72.42,72.42,0,0,0,59.52.14a91.49,91.49,0,0,0-13.24,1A86.24,86.24,0,0,0,32.44,4.32,73.49,73.49,0,0,0,20,9.59h0C13.17,13.32,7.65,18,4.15,23.12A22.26,22.26,0,0,0,0,35c0,.11,0,.22,0,.34A18.11,18.11,0,0,0,.53,39.8,18,18,0,0,1,0,35.41C0,42.47,3.92,48.81,10.77,53.65a44,44,0,0,0,9.7,5.09,72.4,72.4,0,0,0,25.81,4.4A88.53,88.53,0,0,0,73.36,59c14.49-4.67,25.9-12.87,30.39-22.49L104,36a21.25,21.25,0,0,0,1.62-5.55l.06-.44V30c0-.29.06-.57.08-.86,0,.29,0,.57-.08.86C106.61,22.07,102.56,14.94,95,9.63Z"/>
            <path class="cls-28" d="M95,9.49h0a44,44,0,0,0-9.14-4.87l-.22-.08-.28-.11A72.38,72.38,0,0,0,59.5,0,91.7,91.7,0,0,0,46.26,1,86.5,86.5,0,0,0,32.42,4.18,73.82,73.82,0,0,0,20,9.44h0C13.15,13.17,7.63,17.81,4.14,23A22.16,22.16,0,0,0,0,34.89c0,.12,0,.23,0,.35a18.11,18.11,0,0,0,.51,4.42A18,18,0,0,1,0,35.27c-.07,7.06,3.9,13.4,10.75,18.23a43.68,43.68,0,0,0,9.71,5.1A72.3,72.3,0,0,0,46.26,63a88.84,88.84,0,0,0,27.08-4.18c14.5-4.68,25.92-12.86,30.4-22.49.07-.16.13-.31.2-.46a21,21,0,0,0,1.62-5.55l.06-.44v-.05c0-.29.06-.58.08-.86,0,.28,0,.57-.08.86C106.59,21.93,102.54,14.8,95,9.49Z"/>
            <path class="cls-44" d="M94.9,9.46h0a43.3,43.3,0,0,0-9.12-4.85l-.21-.09-.29-.11A72.47,72.47,0,0,0,59.48,0,91.07,91.07,0,0,0,46.27,1a86.7,86.7,0,0,0-13.81,3.2A73.12,73.12,0,0,0,20.08,9.42h0C13.23,13.14,7.72,17.75,4.24,22.91A22.14,22.14,0,0,0,.12,34.79c0,.11,0,.23,0,.34a18.53,18.53,0,0,0,.5,4.41,18.46,18.46,0,0,1-.5-4.38C0,42.2,4,48.52,10.83,53.34a44,44,0,0,0,9.68,5.07A72.5,72.5,0,0,0,46.26,62.8a89.06,89.06,0,0,0,27-4.17C87.74,54,99.12,45.79,103.6,36.2l.21-.45a21.58,21.58,0,0,0,1.62-5.54l.06-.43v-.05c0-.29.06-.58.08-.86,0,.28,0,.57-.08.86C106.45,21.85,102.41,14.74,94.9,9.46Z"/>
            <path class="cls-45" d="M94.79,9.42h0a43.31,43.31,0,0,0-9.1-4.83l-.21-.09-.28-.11A72.41,72.41,0,0,0,59.46,0,90.66,90.66,0,0,0,46.28,1,86.32,86.32,0,0,0,32.5,4.16,73.68,73.68,0,0,0,20.14,9.39h0C13.31,13.1,7.82,17.7,4.34,22.84A22.05,22.05,0,0,0,.23,34.68c0,.12,0,.23,0,.34a18.39,18.39,0,0,0,.5,4.4,18.31,18.31,0,0,1-.5-4.37c-.07,7,3.87,13.32,10.69,18.12a43.62,43.62,0,0,0,9.66,5A72.17,72.17,0,0,0,46.26,62.6a88.65,88.65,0,0,0,26.95-4.17C87.64,53.78,99,45.64,103.47,36.08l.21-.45a21.13,21.13,0,0,0,1.61-5.52l.06-.43v-.06c0-.28.06-.57.08-.85,0,.28,0,.57-.08.85C106.31,21.78,102.28,14.69,94.79,9.42Z"/>
            <path class="cls-46" d="M94.68,9.39h0a43.07,43.07,0,0,0-9.07-4.82l-.22-.08-.28-.11A71.85,71.85,0,0,0,59.43,0,90.24,90.24,0,0,0,46.28,1,86.07,86.07,0,0,0,32.54,4.15,72.51,72.51,0,0,0,20.21,9.37h0c-6.82,3.69-12.3,8.28-15.77,13.4A22,22,0,0,0,.34,34.58c0,.11,0,.22,0,.34a18.34,18.34,0,0,0,.5,4.38A18.21,18.21,0,0,1,.33,35C.26,41.94,4.19,48.22,11,53a43.64,43.64,0,0,0,9.64,5,72.07,72.07,0,0,0,25.63,4.35,88.31,88.31,0,0,0,26.89-4.15C87.54,53.6,98.87,45.48,103.34,36c.07-.15.14-.3.2-.45a21.42,21.42,0,0,0,1.62-5.5l.06-.44v-.05c0-.28.06-.57.08-.85,0,.28,0,.57-.08.85C106.18,21.7,102.16,14.64,94.68,9.39Z"/>
            <path class="cls-47" d="M94.58,9.35h0a43.4,43.4,0,0,0-9.06-4.8l-.21-.08L85,4.36A71.82,71.82,0,0,0,59.41,0,89.83,89.83,0,0,0,46.29,1,86.07,86.07,0,0,0,32.57,4.14a73.2,73.2,0,0,0-12.29,5.2h0C13.48,13,8,17.6,4.54,22.71A21.91,21.91,0,0,0,.45,34.47c0,.11,0,.23,0,.34a17.76,17.76,0,0,0,.5,4.37,17.63,17.63,0,0,1-.5-4.34c-.08,7,3.85,13.23,10.64,18a43,43,0,0,0,9.61,5,71.72,71.72,0,0,0,25.56,4.34,88.43,88.43,0,0,0,26.83-4.14c14.37-4.63,25.67-12.72,30.13-22.22l.2-.45A20.76,20.76,0,0,0,105,29.9l.06-.43v0c0-.28.06-.57.08-.85,0,.28,0,.57-.08.85C106,21.62,102,14.59,94.58,9.35Z"/>
            <path class="cls-48" d="M94.47,9.32h0a43.19,43.19,0,0,0-9-4.78l-.21-.09-.28-.11A71.94,71.94,0,0,0,59.38,0,89.52,89.52,0,0,0,46.29,1,85.32,85.32,0,0,0,32.61,4.13,73,73,0,0,0,20.34,9.32h0C13.56,13,8.1,17.55,4.64,22.64A21.9,21.9,0,0,0,.55,34.37v.33A18,18,0,0,0,1,39.05a17.9,17.9,0,0,1-.49-4.32c-.08,7,3.84,13.19,10.61,17.94a43.59,43.59,0,0,0,9.59,5A71.87,71.87,0,0,0,46.25,62,88.14,88.14,0,0,0,73,57.85c14.33-4.61,25.63-12.67,30.06-22.14l.2-.45a21.52,21.52,0,0,0,1.61-5.46c0-.15,0-.29,0-.43v-.05c0-.29.06-.57.08-.85,0,.28,0,.56-.08.85C105.9,21.54,101.9,14.53,94.47,9.32Z"/>
            <path class="cls-49" d="M94.36,9.28h0a43.37,43.37,0,0,0-9-4.76l-.21-.09-.28-.1A71.6,71.6,0,0,0,59.36,0,89,89,0,0,0,46.3,1,85,85,0,0,0,32.65,4.13,71.42,71.42,0,0,0,20.41,9.29h0C13.64,13,8.19,17.5,4.74,22.57A21.84,21.84,0,0,0,.66,34.26v.33a17.89,17.89,0,0,0,.49,4.34,17.79,17.79,0,0,1-.49-4.3C.58,41.55,4.49,47.76,11.24,52.5a43.18,43.18,0,0,0,9.57,5,71.77,71.77,0,0,0,25.44,4.3A87.94,87.94,0,0,0,73,57.66c14.3-4.59,25.58-12.63,30-22.08l.21-.44a20.91,20.91,0,0,0,1.6-5.45l.06-.42v-.06q.06-.42.09-.84,0,.42-.09.84C105.77,21.47,101.78,14.48,94.36,9.28Z"/>
            <path class="cls-50" d="M94.25,9.25h0a42.71,42.71,0,0,0-9-4.75l-.21-.08-.28-.11A71.5,71.5,0,0,0,59.33,0a90,90,0,0,0-13,1A83.52,83.52,0,0,0,32.69,4.12,72.33,72.33,0,0,0,20.47,9.27h0C13.72,12.92,8.28,17.45,4.84,22.5A21.82,21.82,0,0,0,.77,34.15v.34a17.3,17.3,0,0,0,.49,4.32,17.23,17.23,0,0,1-.49-4.29c-.08,6.9,3.82,13.09,10.55,17.81a43.2,43.2,0,0,0,9.55,5,71.7,71.7,0,0,0,25.38,4.28,88,88,0,0,0,26.64-4.11c14.26-4.58,25.51-12.6,29.92-22,.07-.15.14-.29.2-.44a20.51,20.51,0,0,0,1.6-5.43,3,3,0,0,0,.06-.43v-.05c0-.28.06-.56.08-.84,0,.28-.05.56-.08.84C105.63,21.39,101.65,14.43,94.25,9.25Z"/>
            <path class="cls-51" d="M94.14,9.21h0a43,43,0,0,0-9-4.73L85,4.4l-.27-.11A71.48,71.48,0,0,0,59.31,0a88.2,88.2,0,0,0-13,1A84.45,84.45,0,0,0,32.72,4.11,72.2,72.2,0,0,0,20.54,9.24h0C13.8,12.88,8.38,17.4,4.94,22.44A21.65,21.65,0,0,0,.88,34.05c0,.11,0,.22,0,.33a17.65,17.65,0,0,0,.5,4.31,17.58,17.58,0,0,1-.5-4.28C.8,41.29,4.68,47.46,11.4,52.16a43.23,43.23,0,0,0,9.53,5,71.59,71.59,0,0,0,25.32,4.27,87.87,87.87,0,0,0,26.58-4.11c14.23-4.56,25.45-12.55,29.85-21.93.07-.15.13-.3.2-.44a20.75,20.75,0,0,0,1.6-5.41l.06-.43v0c0-.28.06-.56.08-.84,0,.28,0,.56-.08.84C105.49,21.31,101.52,14.37,94.14,9.21Z"/>
            <path class="cls-52" d="M94,9.18h0a42.94,42.94,0,0,0-8.94-4.72l-.21-.08-.28-.1A71.14,71.14,0,0,0,59.28,0a89.14,89.14,0,0,0-13,1A85.15,85.15,0,0,0,32.76,4.1,72,72,0,0,0,20.6,9.22h0C13.88,12.85,8.47,17.35,5.05,22.37A21.52,21.52,0,0,0,1,33.94c0,.11,0,.22,0,.33a18.12,18.12,0,0,0,.49,4.3A18,18,0,0,1,1,34.31c-.07,6.85,3.8,13,10.5,17.68A42.75,42.75,0,0,0,21,56.92a71.13,71.13,0,0,0,25.27,4.25,87.41,87.41,0,0,0,26.51-4.09c14.2-4.55,25.4-12.51,29.79-21.87.07-.14.13-.29.2-.44a20.48,20.48,0,0,0,1.59-5.39l.06-.42v-.05c0-.28.06-.56.08-.84,0,.28,0,.56-.08.84C105.36,21.24,101.4,14.32,94,9.18Z"/>
            <path class="cls-53" d="M93.93,9.14h0A42.79,42.79,0,0,0,85,4.45l-.21-.08-.28-.11A71,71,0,0,0,59.26,0,88.87,88.87,0,0,0,46.32,1,85.75,85.75,0,0,0,32.8,4.09a72.07,72.07,0,0,0-12.13,5.1h0C14,12.81,8.56,17.3,5.15,22.3A21.5,21.5,0,0,0,1.1,33.84c0,.11,0,.22,0,.33a17.51,17.51,0,0,0,.49,4.28,17.44,17.44,0,0,1-.49-4.25C1,41,4.88,47.16,11.57,51.83A43.09,43.09,0,0,0,21,56.74,71.23,71.23,0,0,0,46.24,61,87.7,87.7,0,0,0,72.7,56.89C86.86,52.35,98,44.41,102.41,35.09l.21-.44a20.84,20.84,0,0,0,1.59-5.37l.06-.43V28.8c0-.27.06-.55.08-.83,0,.28,0,.56-.08.83C105.22,21.16,101.27,14.27,93.93,9.14Z"/>
            <path class="cls-54" d="M93.82,9.11h0a42.35,42.35,0,0,0-8.91-4.68l-.2-.08-.28-.11A71.15,71.15,0,0,0,59.23,0a88.32,88.32,0,0,0-12.9,1A84,84,0,0,0,32.84,4.08a70.91,70.91,0,0,0-12.1,5.09h0C14,12.77,8.66,17.24,5.25,22.23a21.39,21.39,0,0,0-4,11.5c0,.11,0,.22,0,.33a17.38,17.38,0,0,0,.49,4.27,17.3,17.3,0,0,1-.49-4.24C1.12,40.9,5,47,11.65,51.66a42.47,42.47,0,0,0,9.45,4.89,71.12,71.12,0,0,0,25.14,4.22,87.24,87.24,0,0,0,26.39-4.08C86.76,52.17,97.91,44.26,102.28,35c.07-.15.14-.29.2-.44a20.28,20.28,0,0,0,1.59-5.36l.06-.42V28.7c0-.28.06-.55.08-.83,0,.28,0,.55-.08.83C105.08,21.08,101.14,14.21,93.82,9.11Z"/>
          </g>
        </g>
      </g>
    </g>
  </g>
</svg>
