<svg xmlns="http://www.w3.org/2000/svg" xmlns:xlink="http://www.w3.org/1999/xlink" width="80.72" height="109.38" viewBox="0 0 80.72 109.38">
  <defs>
    <style>
      .cls-1 {
        fill: none;
      }

      .cls-2 {
        isolation: isolate;
      }

      .cls-3 {
        fill: #f02121;
      }

      .cls-4 {
        clip-path: url(#clip-path);
      }

      .cls-5 {
        fill: #7a7877;
      }

      .cls-6 {
        fill: #767472;
      }

      .cls-7 {
        fill: #d40d0d;
      }

      .cls-8 {
        fill: #f4f4f4;
      }

      .cls-9 {
        fill: #dcddde;
      }

      .cls-10, .cls-25 {
        mix-blend-mode: multiply;
      }

      .cls-11 {
        fill: #fff;
      }

      .cls-11, .cls-27 {
        opacity: 0;
      }

      .cls-12 {
        fill: #bababa;
      }

      .cls-13 {
        fill: silver;
      }

      .cls-13, .cls-37 {
        opacity: 0.91;
      }

      .cls-14 {
        fill: #c7c7c7;
      }

      .cls-14, .cls-36 {
        opacity: 0.82;
      }

      .cls-15, .cls-24 {
        fill: #cdcdcd;
      }

      .cls-15, .cls-38 {
        opacity: 0.73;
      }

      .cls-16 {
        fill: #d3d3d3;
      }

      .cls-16, .cls-34 {
        opacity: 0.64;
      }

      .cls-17 {
        fill: #d9d9d9;
      }

      .cls-17, .cls-33 {
        opacity: 0.55;
      }

      .cls-18 {
        fill: #e0e0e0;
      }

      .cls-18, .cls-32 {
        opacity: 0.45;
      }

      .cls-19 {
        fill: #e6e6e6;
      }

      .cls-19, .cls-31 {
        opacity: 0.36;
      }

      .cls-20, .cls-23 {
        fill: #ececec;
      }

      .cls-20, .cls-39 {
        opacity: 0.27;
      }

      .cls-21 {
        fill: #f2f2f2;
      }

      .cls-21, .cls-29 {
        opacity: 0.18;
      }

      .cls-22 {
        fill: #f9f9f9;
      }

      .cls-22, .cls-28 {
        opacity: 0.09;
      }

      .cls-23, .cls-30 {
        opacity: 0.27;
      }

      .cls-24, .cls-35 {
        opacity: 0.73;
      }

      .cls-25 {
        fill: url(#linear-gradient);
      }

      .cls-26 {
        opacity: 0.2;
      }

      .cls-26, .cls-40 {
        mix-blend-mode: screen;
      }

      .cls-28 {
        fill: #160303;
      }

      .cls-29 {
        fill: #2c0606;
      }

      .cls-30, .cls-39 {
        fill: #410909;
      }

      .cls-31 {
        fill: #570c0c;
      }

      .cls-32 {
        fill: #6d0f0f;
      }

      .cls-33 {
        fill: #831212;
      }

      .cls-34 {
        fill: #991515;
      }

      .cls-35, .cls-38 {
        fill: #af1818;
      }

      .cls-36 {
        fill: #c41b1b;
      }

      .cls-37 {
        fill: #da1e1e;
      }

      .cls-40 {
        opacity: 0.4;
      }
    </style>
    <clipPath id="clip-path">
      <path class="cls-1" d="M77.77,101.06l-12.08,7.56a4.49,4.49,0,0,0,1-.79l12.09-7.56A4.81,4.81,0,0,1,77.77,101.06Z"/>
    </clipPath>
    <linearGradient id="linear-gradient" x1="-493.73" y1="-472.34" x2="-368.54" y2="-472.34" gradientTransform="matrix(0.5, 0.8, -0.85, 0.53, -150.18, 655.25)" gradientUnits="userSpaceOnUse">
      <stop offset="0" stop-color="#dcddde"/>
      <stop offset="0.14" stop-color="#ebecec"/>
      <stop offset="0.34" stop-color="#fafafa"/>
      <stop offset="0.5" stop-color="#fff"/>
      <stop offset="0.66" stop-color="#fbfbfb"/>
      <stop offset="0.84" stop-color="#eeeeef"/>
      <stop offset="1" stop-color="#dcddde"/>
    </linearGradient>
  </defs>
  <g id="Слой_2" data-name="Слой 2">
    <g id="Слой_1-2" data-name="Слой 1">
      <g class="cls-2">
        <polygon class="cls-3" points="70.58 83.07 51.54 52.71 60.15 47.31 76.19 81.33 70.58 83.07"/>
        <g class="cls-2">
          <g class="cls-4">
            <g class="cls-2">
              <path class="cls-5" d="M66.64,107.83l12.09-7.56a4.81,4.81,0,0,1-1,.79l-12.08,7.56a4.49,4.49,0,0,0,1-.79Z"/>
            </g>
          </g>
        </g>
        <path class="cls-6" d="M14.28,1.33l.14-.12Z"/>
        <path class="cls-6" d="M14.23,1.38l-.16.17Z"/>
        <path class="cls-7" d="M33.46,61.14l-.32-.5c-.61-1-1.21-1.93-1.81-2.92-.11-.17-.21-.34-.31-.51l-.6-1-.33-.56-.57-1-.33-.57-.55-.94-.34-.6c-.19-.32-.37-.64-.55-1s-.22-.38-.32-.58c-.28-.49-.55-1-.82-1.47l-.46-.83L26,48.49c-.1-.2-.2-.39-.31-.58l-.07-.13c-.12-.22-.24-.44-.35-.66l-.14-.25-.27-.52L24.69,46c-.08-.17-.17-.34-.26-.51s-.09-.18-.14-.26-.19-.37-.28-.55l-.13-.25-.29-.56c0-.08-.08-.16-.12-.24-.12-.25-.25-.5-.38-.75L23,42.73l-.3-.6-.13-.27-.24-.48-.16-.33L22,40.61c-.06-.11-.11-.22-.17-.34s-.13-.28-.2-.42-.11-.23-.16-.34l-.21-.43-.15-.33-.22-.48c-.05-.09-.09-.19-.14-.28l-.18-.41L20.27,37,20,36.48c-.45-1-.88-2-1.29-2.93L6.66,41.11c.41,1,.83,1.93,1.28,2.92h0v0l.24.52c.08.19.17.37.25.56s.13.27.19.41l.13.28c.08.16.15.32.23.49l.15.32a2.92,2.92,0,0,1,.14.31l.06.12.17.34c.06.14.13.28.2.42s.11.23.16.34l.22.45c.05.1.1.21.16.32s.15.32.23.48l.14.27.05.11c.08.16.16.33.25.49l.09.19.38.76.12.22c.09.19.19.38.29.57l.12.25.2.37.09.18c0,.08.09.17.13.26l.27.51c.05.1.11.2.16.31l.28.52c0,.08.09.17.13.25l.36.66.07.14,0,0c.1.17.19.35.29.53l.15.27.45.84.71,1.27a2,2,0,0,1,.11.2l.33.57.54,1,.35.6.29.5c.08.15.17.3.26.45l.33.56.57,1,.33.56c.05.08.09.16.14.23l.47.79c.1.15.19.31.28.46.31.49.61,1,.91,1.47l.92,1.47c.1.16.21.32.31.49s.33.51.49.77.16.24.23.36l12.09-7.57Z"/>
        <path class="cls-7" d="M19.79,9.46,14.07,1.55h0l.16-.17s0,0,0,0l.14-.12.07-.06.07-.06.13-.1,0,0,.18-.13,0,0,.06,0L2.92,8.33l-.07,0,0,0-.19.12,0,0h0l-.1.08h0l0,0-.32.28h0l0,0L2,9.11H2C0,11.22-.47,15.44.44,21.18l7.08-4.43.19.27Z"/>
        <g>
          <path class="cls-8" d="M61.81,56.53c-.47-.94-1-1.9-1.48-2.87l-.07-.15-.08-.14-.86-1.6c-.9-1.62-1.83-3.23-2.77-4.79l1-.33q.77,1.27,1.53,2.58l.37.65.37.66.37.65.36.66.28.5c.66,1.22,1.3,2.42,1.89,3.6.08.15.16.3.23.45l.32.63Z"/>
          <path class="cls-8" d="M51.62,39.41c-1-1.49-2.1-2.94-3.16-4.33q-1.37-1.78-2.72-3.42L45.21,31l-.08-1.87c1.18,1.41,2.37,2.89,3.55,4.44.56.73,1.12,1.48,1.67,2.24l.11.15.26.35.2.27.16.23.27.38.06.08.69,1Z"/>
          <path class="cls-8" d="M67.87,72.15A64.4,64.4,0,0,0,65.17,64L67,65.29c.24.59.47,1.18.68,1.75l0,0,.18.47a2.31,2.31,0,0,0,.1.28L68,68l.36,1,0,.08c.08.22.15.45.23.67v0l.09.26a2.58,2.58,0,0,0,.08.26l.06.18L69,71v0c.34,1.08.63,2.11.87,3.1Z"/>
          <path class="cls-8" d="M34.19,20.38l-1.14-2.9c.36.25.73.52,1.1.8l0,0,0,0q.66.51,1.35,1.08h0l.32.27.06.06.28.23.13.12.22.19.22.19a.86.86,0,0,1,.14.13c.8.71,1.62,1.48,2.44,2.29l.64,2.48-.83-.81-.12-.11-.2-.2A43.78,43.78,0,0,0,34.19,20.38Z"/>
          <path class="cls-8" d="M70.27,85l-2.1-3a7,7,0,0,0,.52-2V80s0-.08,0-.13a13.29,13.29,0,0,0,0-2.38l2.15,2.57a12.66,12.66,0,0,1-.36,4.23v0l-.06.18,0,.1,0,.08C70.36,84.81,70.32,84.93,70.27,85Z"/>
          <path class="cls-8" d="M26.44,17.93l-1.89-3.16a3.86,3.86,0,0,1,1.31-.25h.5l.47.05h0l.11,0a10,10,0,0,1,1.61.44l1.58,3.15a8.68,8.68,0,0,0-1.26-.36l-.09,0h0a5.46,5.46,0,0,0-.68-.08H28A4,4,0,0,0,26.44,17.93Z"/>
          <path class="cls-8" d="M53.4,78.91l-.65-2.49c1,1,2,2,3,2.79l0,0,.25.22.2.16,0,0c.8.67,1.57,1.26,2.32,1.79l1.14,2.9c-.48-.34-1-.71-1.48-1.1A56.57,56.57,0,0,1,53.4,78.91Z"/>
          <path class="cls-8" d="M64.21,86.78l-1.58-3.16a7.44,7.44,0,0,0,2.05.48h.17a4.37,4.37,0,0,0,1-.08L66,84h0l.37-.11,1.89,3.17a4.5,4.5,0,0,1-1.81.24,8.67,8.67,0,0,1-1.07-.16h0l-.25-.06L65,87,64.83,87l-.09,0-.23-.08Z"/>
          <path class="cls-8" d="M21.9,21.75a13.18,13.18,0,0,1,.29-4,2.33,2.33,0,0,1,.07-.25s0,0,0-.05a1,1,0,0,0,.05-.16.36.36,0,0,0,0-.11l0-.06a3,3,0,0,1,.14-.36l2.1,3A9,9,0,0,0,24,23.6v.11a.49.49,0,0,0,0,.12c0,.16,0,.32,0,.48Z"/>
          <path class="cls-8" d="M25.82,36.53c-.24-.59-.46-1.17-.68-1.75l0-.06c-.06-.16-.12-.31-.17-.46L24.84,34l-.05-.15c-.13-.35-.25-.7-.37-1l0-.06q-.16-.51-.33-1a2.25,2.25,0,0,0-.08-.24l-.06-.2-.15-.47a.14.14,0,0,0,0-.06c-.33-1.07-.62-2.1-.86-3.08l2.05,2q.57,2.28,1.47,4.87s0,0,0,.06.11.31.16.47l.05.12.12.34.06.17c.05.14.1.27.16.41s.05.15.08.23a1.8,1.8,0,0,1,.08.21c0,.09.07.18.11.29s.19.48.29.73a2.6,2.6,0,0,0,.1.25Z"/>
          <path class="cls-8" d="M35.25,55.16c-1-1.69-2-3.43-3-5.2-.1-.16-.19-.33-.28-.5-.66-1.21-1.29-2.41-1.89-3.59-.19-.36-.37-.73-.55-1.09l1.46.5L31.85,47l0,.09c.05.08.09.17.13.25.47.9,1,1.81,1.46,2.73.89,1.61,1.82,3.22,2.76,4.77Z"/>
          <path class="cls-8" d="M44.12,68.23,42.44,66l-.09-.12-.28-.4-.18-.24L41.71,65c-.09-.11-.17-.23-.26-.35l-.07-.11c-.23-.31-.45-.63-.68-1l.48-1.15c1,1.5,2.1,2.95,3.16,4.34q1.39,1.82,2.77,3.48a.64.64,0,0,1,.1.13l.06.06c.1.13.21.26.32.38l.08,1.87C46.49,71.26,45.3,69.77,44.12,68.23Z"/>
        </g>
        <g>
          <path class="cls-3" d="M30.16,18.18,28.59,15A10,10,0,0,0,27,14.6,17.08,17.08,0,0,1,33.76,18l-.71-.51,1.14,2.9A18.17,18.17,0,0,0,30.16,18.18Z"/>
          <path class="cls-3" d="M24.63,19.75l-2.1-3a3.56,3.56,0,0,1,2.32-2.11l-.3.1,1.89,3.16a3.83,3.83,0,0,1,1.21-.22A3.22,3.22,0,0,0,24.63,19.75Z"/>
          <path class="cls-3" d="M58.61,81.44c-.75-.53-1.52-1.12-2.32-1.79a22.55,22.55,0,0,0,6.35,4l1.57,3.15.3.1a21,21,0,0,1-5.86-3.35c.37.29.74.56,1.1.81Z"/>
          <path class="cls-3" d="M66.36,83.88a3.27,3.27,0,0,0,1.81-1.82l2.1,3a3.58,3.58,0,0,1-3.58,2.26,4.19,4.19,0,0,0,1.56-.25Z"/>
          <path class="cls-3" d="M21.9,21.75l2.15,2.56c0-.16,0-.32,0-.48a28.25,28.25,0,0,0,.91,5.84l-2.05-2c.18.72.38,1.47.61,2.24-1.46-4.95-2-9-1.42-11.68A14.41,14.41,0,0,0,21.9,21.75Z"/>
          <path class="cls-3" d="M29.79,45.3a108.88,108.88,0,0,1-4.46-10c.15.42.32.84.49,1.26l1.82,1.3a2.6,2.6,0,0,1-.1-.25c1,2.43,2.11,5,3.45,7.7l-1.46-.5C29.62,45,29.7,45.13,29.79,45.3Z"/>
          <path class="cls-3" d="M47.27,70.41c1.86,2.23,3.7,4.25,5.48,6l.65,2.48a102.2,102.2,0,0,1-9.26-10.66c-.57-.74-1.13-1.5-1.7-2.27l1.68,2.25c1.18,1.54,2.37,3,3.55,4.43l-.08-1.87C47.48,70.67,47.37,70.54,47.27,70.41Z"/>
          <path class="cls-3" d="M56.55,47c.94,1.56,1.87,3.17,2.77,4.79a140.81,140.81,0,0,0-7.69-12.36l.47-1.14c2.27,3.24,4.49,6.7,6.59,10.29l-1.14-1.91Z"/>
          <path class="cls-3" d="M45.13,29.15,45.21,31l.53.64a84.36,84.36,0,0,0-6.52-7.08l.83.81-.64-2.48c-.72-.71-1.43-1.39-2.13-2A95.75,95.75,0,0,1,48.66,33.57c.57.74,1.13,1.49,1.69,2.26-.55-.76-1.11-1.51-1.67-2.24C47.5,32,46.31,30.56,45.13,29.15Z"/>
          <path class="cls-3" d="M40.7,63.55A150.51,150.51,0,0,1,32.25,50c1,1.77,2,3.51,3,5.2l1-.33c-.94-1.55-1.87-3.16-2.76-4.77A138,138,0,0,0,41.17,62.4Z"/>
        </g>
        <path class="cls-7" d="M67.65,99.33l-.24-.15a1.18,1.18,0,0,1-.19-.11L67,99l-.23-.15-.18-.11-.26-.16a.91.91,0,0,0-.16-.11l-.28-.19q-.47-.3-.93-.63l-.09-.07-.39-.27-.15-.11L64,96.9l-.14-.1-.38-.29-.18-.13L63,96.1,62.77,96l-.37-.3-.16-.13-.53-.43h0l-.06,0-.37-.31-.14-.11-.34-.29-.09-.08-.42-.36-.14-.12-.32-.28a.69.69,0,0,0-.13-.11L59.28,93l-.1-.09-.34-.3-.2-.18-.27-.26L58.16,92l-.28-.27-.19-.18-.31-.29-.18-.17-.34-.33-.14-.14-.49-.47L56.15,90l-.4-.39-.18-.19-.3-.3-.61-.62,0-.05L54,87.9l-.19-.2-.45-.48L53.22,87c-.21-.22-.42-.44-.62-.67L40.51,93.92l.63.67.17.19.46.48.19.2c.19.2.38.39.56.59a.12.12,0,0,1,0,0l.62.63s0,0,.05,0l.24.24c.06.06.12.13.19.19l.38.38.1.1.48.47.15.14.34.33.18.17.3.3.19.17.29.27.21.2.27.25.2.18.11.1.23.21.09.08.43.39.13.11.31.28.14.12.42.36.1.08.33.29.14.12.38.31,0,0h0l.52.43.19.15.34.27.2.16.34.27.18.13.38.29.11.08,0,0,.32.23.16.12.36.26.11.08.94.64h0l.27.18.15.1.27.17.17.11.26.16.17.1.29.18.14.08h0l.41.24,12.09-7.56Z"/>
        <path class="cls-9" d="M38.7,91.92l.42.47.19.21c.15.18.31.35.46.52l.14.15.6.66L52.6,86.36c-.2-.21-.4-.42-.59-.64a4.12,4.12,0,0,1-.28-.31c-.11-.11-.22-.23-.32-.35l-.28-.32-.33-.36c-.08-.1-.17-.19-.25-.28l-.37-.42-1-1.17L49,82.33c-.13-.14-.25-.29-.37-.43s-.13-.15-.19-.22-.33-.4-.5-.59a1.34,1.34,0,0,0-.11-.14c-.14-.16-.28-.33-.41-.5l-.18-.21-.37-.45-.17-.21L46.21,79l-.14-.18-.37-.46-.2-.25-.42-.53L45,77.42l-.53-.66-.13-.18c-.15-.18-.29-.37-.43-.55l-.12-.15-.54-.71c-.28-.36-.55-.73-.83-1.1l-.31-.41-.29-.39-.27-.36-.36-.48L41,72.14l-.7-1L40.11,71l-.54-.74c-.06-.1-.13-.19-.19-.28L38.74,69a.35.35,0,0,0-.05-.08L38,68a2.14,2.14,0,0,1-.13-.19l-1-1.39c0-.06-.07-.12-.11-.17l-1-1.45,0-.08-.68-1-.18-.28c-.24-.37-.49-.74-.73-1.12L22.09,69.83c.25.37.49.74.73,1.12l.19.27c.22.35.45.69.68,1a.43.43,0,0,0,0,.07h0c.32.49.65,1,1,1.45l.12.17c.31.47.63.93,1,1.39a1,1,0,0,1,.08.11l.06.08.68,1,.06.08.63.89.2.28c.18.25.35.5.53.74.06.08.11.16.17.23.23.33.46.65.7,1v0l.2.27.36.49.26.35.29.4c.11.13.21.27.31.41l.84,1.1.54.7.11.15.43.55.14.18.52.66.09.12.42.53.21.25.36.46.15.18.5.62.17.21.37.45.18.22.41.49.12.14.5.59.19.23.33.39c.07.08.14.15.2.23L38,91.16l.07.08.4.45A2.2,2.2,0,0,0,38.7,91.92Z"/>
        <path class="cls-3" d="M80.28,88.2h0a68.85,68.85,0,0,0-2.86-11.14c0-.1-.07-.21-.11-.32a.88.88,0,0,1,0-.15c-.24-.7-.49-1.4-.75-2.12-.17-.47-.35-1-.54-1.43.19.48.37,1,.54,1.43.26.72.51,1.42.75,2.12A156.65,156.65,0,0,0,66.19,52.22c-2.4-4.36-4.94-8.6-7.57-12.67h0c-2.95-4.56-6-8.9-9.06-12.91s-6.28-7.86-9.36-11.19h0C34.61,9.4,29.27,4.8,24.73,2.25h0C20.52-.13,17.27-.58,15.11.71l-.17.1,0,0L14.71,1l0,0a4.08,4.08,0,0,0-.62.56h0c-2,2.11-2.45,6.33-1.55,12.07h0a64.76,64.76,0,0,0,2.39,9.69l.06.18.09.3c.59,1.8,1.26,3.67,2,5.59-.74-1.92-1.41-3.79-2-5.59a152.59,152.59,0,0,0,11.55,25.8C29,54,31.55,58.2,34.18,62.26h0c3,4.57,6,8.9,9.06,12.91S49.52,83,52.6,86.36h0c5.59,6,10.93,10.66,15.47,13.21h0c3,1.69,5.52,2.41,7.5,2.21h.22C80.12,101.19,81.53,96.16,80.28,88.2ZM53.4,78.92a103.42,103.42,0,0,1-9.26-10.67c-.57-.74-1.13-1.5-1.7-2.27l-.37-.52-.18-.24L41.71,65c-.09-.11-.17-.23-.26-.35l-.75-1.06A154.31,154.31,0,0,1,32.24,50l-.27-.5c-.66-1.21-1.29-2.41-1.89-3.59a110,110,0,0,1-4.94-11.09c-.08-.22-.14-.37-.19-.52s-.08-.19-.11-.29c-.18-.5-.3-.85-.42-1.2l-.36-1.05a2.25,2.25,0,0,0-.08-.24l-.06-.2-.15-.47c-1.77-5.69-2.32-10.2-1.58-13a2,2,0,0,1,.07-.26c0-.1,0-.16.06-.21a.36.36,0,0,0,0-.11c.07-.19.12-.31.17-.43a3.54,3.54,0,0,1,3.33-2.25h.5l.47.05.15,0c2,.33,4.46,1.62,7.17,3.68.52.4,1,.76,1.43,1.14l.34.28.34.29.35.31.22.19.14.13a93.28,93.28,0,0,1,11.69,13c.57.74,1.13,1.49,1.69,2.26l.37.51c.07.08.13.17.2.26l.16.23.28.39.74,1.05c2.4,3.44,4.76,7.12,7,10.95l.37.64.37.66.38.67.36.66.28.5c.66,1.22,1.3,2.42,1.89,3.6l.23.44A108.88,108.88,0,0,1,67.66,67l.2.52a2.31,2.31,0,0,0,.1.28l.42,1.2c.11.3.18.53.26.75l.1.3a2.58,2.58,0,0,0,.08.26L69,71c1.82,5.86,2.36,10.48,1.51,13.29l-.07.21,0,.1c-.08.2-.12.32-.17.43a3.62,3.62,0,0,1-3.83,2.25,8.67,8.67,0,0,1-1.07-.16l-.26-.07L64.83,87l-.32-.1a21.64,21.64,0,0,1-6.24-3.64A58.09,58.09,0,0,1,53.4,78.92Z"/>
        <path class="cls-9" d="M20,36.32,19.81,36l-.21-.47-.15-.35c-.08-.17-.15-.33-.22-.5s-.09-.2-.14-.31-.17-.4-.26-.6a1.54,1.54,0,0,0-.08-.19l-.09-.22-.25-.6c0-.08-.07-.15-.1-.23l-.24-.58c0-.11-.08-.21-.13-.32s-.13-.32-.2-.49-.09-.23-.14-.35-.11-.28-.17-.43l-.17-.45-.16-.39-.16-.43-.15-.38c-.06-.16-.11-.31-.17-.46s-.09-.24-.13-.36-.12-.3-.17-.46-.08-.22-.13-.33L16,26.55l-.12-.32c-.06-.18-.12-.36-.19-.54l-.09-.27c-.07-.19-.13-.38-.19-.56l-.09-.27-.27-.8-.09-.3-.06-.18c-.06-.2-.13-.39-.19-.59a1.05,1.05,0,0,1-.05-.19c-.05-.14-.09-.28-.14-.43s0-.12,0-.18-.09-.29-.13-.44a.75.75,0,0,1,0-.16c-.06-.19-.11-.39-.17-.58a.31.31,0,0,1,0-.08c0-.17-.1-.33-.14-.49a1.46,1.46,0,0,1-.05-.2c0-.12-.07-.25-.11-.38a1.6,1.6,0,0,0-.05-.21c0-.17-.09-.34-.14-.51a.29.29,0,0,0,0-.09l-.12-.47a.44.44,0,0,1,0-.1c-.05-.17-.09-.34-.13-.51l0-.14L13.18,17v0c0-.16-.07-.33-.11-.49a.36.36,0,0,0,0-.11c0-.17-.07-.34-.1-.5l0-.1c0-.17-.07-.34-.1-.51v0l-.09-.47,0-.1c0-.16-.06-.32-.08-.48s0-.07,0-.1,0-.33-.08-.49L.44,21.18c0,.16,0,.33.08.49s0,.07,0,.1l.09.48s0,.07,0,.1c.07.34.13.68.2,1,0,0,0,.07,0,.1s.07.34.11.52v.06l.12.53v0l.12.55a.29.29,0,0,1,0,.09c.05.18.09.36.14.55v0l.15.57v0l.12.44,0,.1c0,.06,0,.11,0,.16l.12.44c0,.05,0,.11,0,.16s.1.33.14.5l0,.08c.05.19.11.39.17.58s0,.11,0,.16.09.29.13.44l.06.18c0,.15.09.29.13.44l.06.18c.06.2.12.4.19.59a1.21,1.21,0,0,0,0,.18.49.49,0,0,0,0,.11l.06.2c.09.26.17.52.26.79l.1.29.18.54c0,.09.07.18.1.27s.12.36.19.54.07.22.11.32.13.35.19.52l0,.09a2.77,2.77,0,0,0,.1.26c0,.15.11.3.16.46a3.62,3.62,0,0,1,.13.35l.18.46c0,.13.1.25.14.38s.11.29.17.43l.15.39.18.45,0,.11c0,.11.09.22.13.32s.09.24.14.35l.2.5c0,.1.08.21.13.31s.16.4.25.6l.08.21c.09.2.18.41.26.62l.17.39.26.6c0,.11.09.21.13.31s.15.34.22.5l.15.35.21.47c0,.11.11.23.16.35a2.14,2.14,0,0,0,.1.22c.07.15.13.31.2.46L20.27,37C20.16,36.78,20.06,36.55,20,36.32Z"/>
        <g>
          <path class="cls-8" d="M63.27,52.27a1.64,1.64,0,0,1-.3-.61l-.36-2.16c0-.19.09-.19.28,0L65,51.8a.52.52,0,0,1,.1.11,1.59,1.59,0,0,1,.3.6l.36,2.17c0,.2-.1.18-.28,0l-2.09-2.28Z"/>
          <path class="cls-8" d="M34.09,14.08A.62.62,0,0,1,34,14L32,10.9c-.17-.26-.26-.55-.2-.61l.74-.73c.05-.06.2,0,.36.26l.08.11L35,13c.18.28.27.55.21.62l-.74.74S34.24,14.28,34.09,14.08Z"/>
          <path class="cls-8" d="M59.91,92l-.1-.13-2-3c-.18-.28-.27-.54-.21-.62l.74-.73s.2.06.35.25l.08.12,2,3.07c.17.26.26.54.2.61l-.74.72C60.2,92.32,60.06,92.21,59.91,92Z"/>
          <path class="cls-8" d="M27.73,49.9a1.53,1.53,0,0,1-.3-.6l-.36-2.16c0-.2.1-.18.28,0l2.09,2.28.09.11a1.6,1.6,0,0,1,.3.6l.36,2.16c0,.19-.09.19-.28,0L27.83,50Z"/>
          <path class="cls-8" d="M76.91,92.36a2,2,0,0,1-.24-.4l-1.35-3c-.12-.26-.1-.41,0-.34L77,89.5a1,1,0,0,1,.25.25,1.7,1.7,0,0,1,.24.39l1.35,3c.11.25.1.4,0,.33l-1.63-.89A.91.91,0,0,1,76.91,92.36Z"/>
          <path class="cls-8" d="M15.56,12.07a2.28,2.28,0,0,1-.24-.39L14,8.67c-.13-.27-.11-.42,0-.34l1.62.88a.84.84,0,0,1,.25.25,2,2,0,0,1,.24.39l1.35,3c.12.25.1.4,0,.34l-1.63-.9A1.08,1.08,0,0,1,15.56,12.07Z"/>
        </g>
        <path class="cls-3" d="M68.17,82.06a3.27,3.27,0,0,1-1.81,1.82L66,84l-.13,0a4.37,4.37,0,0,1-1,.08h-.17a7.63,7.63,0,0,1-2-.47,22.73,22.73,0,0,1-6.4-4l-.2-.16-.28-.24c-1-.84-2-1.77-3-2.78-1.78-1.77-3.62-3.79-5.64-6.21q-1.38-1.66-2.77-3.48-1.59-2.08-3.17-4.34a138,138,0,0,1-7.68-12.34c-.5-.92-1-1.83-1.46-2.73,0-.08-.08-.17-.18-.34L31,45.28c-1.34-2.69-2.49-5.27-3.46-7.71-.09-.24-.19-.48-.28-.74l-.11-.27a1.8,1.8,0,0,0-.08-.21,2.09,2.09,0,0,1-.08-.23c-.06-.14-.11-.27-.22-.58,0-.11-.08-.23-.17-.46s-.11-.31-.18-.53c-.6-1.73-1.09-3.35-1.47-4.88A28.7,28.7,0,0,1,24,23.6a9.12,9.12,0,0,1,.61-3.85,3.25,3.25,0,0,1,3.32-2h.17a4.63,4.63,0,0,1,.7.09l.09,0a9.47,9.47,0,0,1,1.25.35,18.17,18.17,0,0,1,4,2.2,43.78,43.78,0,0,1,4.71,3.89c.06.07.13.13.32.31a84.36,84.36,0,0,1,6.52,7.08q1.35,1.64,2.72,3.42c1.06,1.39,2.12,2.84,3.17,4.33a140.81,140.81,0,0,1,7.69,12.36c.29.54.58,1.07,1,1.89.52,1,1,1.93,1.48,2.87,5,10.07,7.42,18.56,6.91,23.35,0,.05,0,.09,0,.22A7,7,0,0,1,68.17,82.06ZM56.77,51.6a107.91,107.91,0,0,0-8.72-13.4c-6.18-8.1-12.49-13.69-16.33-13.94C26,23.89,27.93,35.5,36,50.21a108.8,108.8,0,0,0,8.72,13.41c6.18,8.09,12.49,13.68,16.33,13.93,5.72.37,3.79-11.24-4.31-25.95Z"/>
        <path class="cls-9" d="M14.08,1.54l.15-.16s0,0,0,0l.14-.12.07-.06.07-.06.13-.1,0,0,.18-.13,0,0,.06,0L2.92,8.33l-.07,0,0,0-.19.12,0,0h0l-.1.08,0,0-.32.28h0l0,0L2,9.11H2l0,0Z"/>
        <path class="cls-8" d="M43.05,24a5.67,5.67,0,0,1-.88-1.65l-2-6.93c3.08,3.33,6.23,7.09,9.36,11.19S55.67,35,58.62,39.55l-2.92.52c-.21,0-.6-.28-1-.8-.08-.09-.15-.2-.23-.31-1.81-2.69-3.66-5.27-5.52-7.7s-3.8-4.81-5.68-7A3.23,3.23,0,0,1,43.05,24Z"/>
        <path class="cls-8" d="M74.39,80.91a5.17,5.17,0,0,1-.91-1.8,79.35,79.35,0,0,0-4.72-14.23c-.29-.68-.29-1.11,0-1l3.74,1c1.87,4.11,3.46,8.07,4.73,11.78a.88.88,0,0,0,0,.15c0,.11.07.22.11.32A68.85,68.85,0,0,1,80.28,88.2L74.48,81Z"/>
        <path class="cls-8" d="M19.88,9.57l-.09-.11L14.07,1.55A4.08,4.08,0,0,1,14.69,1l0,0,.18-.13,0,0,.17-.1c2.16-1.29,5.41-.84,9.62,1.54L27.61,10c.25.64.16,1-.2.8-2.8-1.29-5-1.4-6.48-.42C20.74,10.46,20.32,10.15,19.88,9.57Z"/>
        <path class="cls-8" d="M43.24,75.17c-3.06-4-6.11-8.34-9.06-12.91l2.92-.52c.21,0,.6.28,1,.8.08.1.15.21.23.32,1.81,2.69,3.66,5.26,5.52,7.7s3.8,4.81,5.68,7a3,3,0,0,1,.22.28,5.37,5.37,0,0,1,.89,1.65l2,6.92C49.52,83,46.37,79.27,43.24,75.17Z"/>
        <path class="cls-8" d="M20.27,37a127.79,127.79,0,0,1-5.21-13.21l-.09-.3-.06-.18a64.76,64.76,0,0,1-2.39-9.69l5.8,7.17.09.11a5.34,5.34,0,0,1,.91,1.8A79.17,79.17,0,0,0,24,36.94c.29.68.29,1.11,0,1Z"/>
        <path class="cls-9" d="M77.62,101.17l-.09,0,.25-.15-.18.1-.13.07-.11.06-.13.06-.11.05-.14.06-.11,0-.15,0-.12,0-.07,0-.17,0-.09,0-.16,0-.08,0-.26,0H74.43l-.25,0h-.05l-.22,0h-.08l-.22,0h0l-.27,0h-.08l-.21,0h-.08l-.27-.07h0l-.26-.07-.09,0-.23-.07-.06,0-.29-.09-.07,0-.24-.08-.08,0-.24-.09L71,101l-.31-.12-.06,0-.26-.11-.08,0-.32-.14h0l-.33-.16-.08,0-.26-.12-.09,0-.18-.09-.1,0-.22-.12-.06,0-.24-.12-.06,0-.29-.16L56,107.13l.3.16.06,0,.23.12.07,0,.22.11.09.05.18.09,0,0,.06,0,.25.12.09,0,.32.15h0l.28.13.09,0,.25.1.05,0h0l.31.12.06,0,.25.09.08,0,.24.08.07,0,.29.1h0l.24.07.08,0,.26.07h0l.28.07h.08l.21,0h.07l.27.05h0l.23,0h.08l.21,0h.05l.25,0h1.35l.26,0H64l.18,0,.08,0,.17,0,.08,0,0,0,.09,0,.14,0,.11,0,.14-.06.11,0,.13-.06.11,0,.12-.07,0,0,.14-.08,12.08-7.56Z"/>
        <path class="cls-8" d="M68.07,99.58l-2.88-7.71c-.24-.65-.15-1,.2-.81,2.8,1.3,5,1.41,6.49.43.19-.12.61.18,1.05.76l.08.12,5.73,7.91a4.71,4.71,0,0,1-1.21.93,5,5,0,0,1-1.75.56h-.21C73.59,102,71.08,101.27,68.07,99.58Z"/>
        <g class="cls-10">
          <path class="cls-11" d="M65.5,83.69l-.39.12-.14,0a4.27,4.27,0,0,1-1,.09h-.17a7.76,7.76,0,0,1-2-.44,22.36,22.36,0,0,1-6.32-3.88l-.19-.17L55,79.2c-1-.81-2-1.72-3-2.7-1.75-1.72-3.56-3.69-5.54-6q-1.35-1.64-2.72-3.4c-1-1.36-2.08-2.77-3.1-4.23a129.9,129.9,0,0,1-7.51-12.07c-.49-.9-1-1.78-1.42-2.66,0-.08-.08-.17-.17-.34-.29-.56-.57-1.12-.84-1.67-1.31-2.64-2.42-5.16-3.36-7.55l-.28-.72c0-.09-.06-.18-.1-.27a1.8,1.8,0,0,0-.08-.21,2,2,0,0,0-.08-.22l-.21-.57-.16-.45c0-.15-.1-.31-.18-.52-.58-1.69-1-3.29-1.41-4.78a28,28,0,0,1-.85-6A9,9,0,0,1,24.7,21,3.32,3.32,0,0,1,28,19h.17a4.57,4.57,0,0,1,.69.08l.09,0a8.79,8.79,0,0,1,1.24.33,17.79,17.79,0,0,1,4,2.13,39.65,39.65,0,0,1,4.64,3.78l.31.29a80.12,80.12,0,0,1,6.41,6.9c.89,1.06,1.78,2.18,2.66,3.33,1,1.36,2.08,2.78,3.11,4.24a130.08,130.08,0,0,1,7.51,12.08c.29.52.57,1,1,1.84s1,1.89,1.43,2.81c4.87,9.86,7.19,18.18,6.63,22.9,0,0,0,.09,0,.21a7.29,7.29,0,0,1-.54,1.94A3.36,3.36,0,0,1,65.5,83.69Zm3.87,1.1a4.35,4.35,0,0,0,.18-.43l0-.1.07-.2c.87-2.77.39-7.31-1.36-13.06-.05-.16-.1-.31-.2-.65A2.41,2.41,0,0,1,68,70.1l-.1-.29c-.07-.22-.15-.44-.24-.74s-.24-.68-.41-1.18l-.1-.27c-.06-.15-.11-.31-.19-.51A103.68,103.68,0,0,0,62.4,56.69l-.22-.44c-.59-1.16-1.2-2.33-1.85-3.52l-.27-.49-.35-.65-.37-.65L59,50.29c-.11-.2-.23-.41-.36-.62-2.15-3.75-4.45-7.34-6.81-10.7l-.73-1-.27-.37-.16-.23-.19-.26-.36-.5c-.55-.75-1.1-1.48-1.65-2.2A90.32,90.32,0,0,0,37,21.76l-.14-.13-.21-.18-.35-.3-.34-.28c-.1-.09-.2-.18-.33-.28-.45-.37-.89-.72-1.41-1.1-2.67-2-5.09-3.24-7.09-3.55l-.15,0-.46,0H26a3.61,3.61,0,0,0-3.33,2.26c-.05.11-.1.23-.17.42,0,0,0,.07,0,.11s0,.1-.07.2-.05.17-.07.26c-.76,2.79-.26,7.22,1.44,12.8.05.15.1.31.14.46s.05.13.07.2,0,.15.07.23c.1.32.21.64.34,1s.24.68.41,1.18l.1.28c.06.15.11.3.19.51a103.79,103.79,0,0,0,4.79,10.86c.58,1.15,1.2,2.32,1.84,3.51l.27.5A145,145,0,0,0,40.22,64L41,65c.09.11.17.23.25.34l.18.26a2,2,0,0,1,.17.23l.37.51c.55.75,1.11,1.49,1.66,2.21a98.1,98.1,0,0,0,9.1,10.4,53.68,53.68,0,0,0,4.79,4.2,21.47,21.47,0,0,0,6.17,3.52l.31.1.28.07.26.06a6.76,6.76,0,0,0,1.06.15A3.67,3.67,0,0,0,69.37,84.79Z"/>
        </g>
        <g class="cls-10">
          <path class="cls-12" d="M70.27,85c0-.11.09-.23.17-.43l0-.1.07-.21c.85-2.81.31-7.43-1.51-13.29l-.21-.66a2.58,2.58,0,0,1-.08-.26l-.1-.3c-.08-.22-.15-.45-.26-.75L68,67.84l-.1-.28-.2-.52A108.88,108.88,0,0,0,63,56.39L62.72,56c-.59-1.18-1.23-2.38-1.89-3.6l-.28-.5-.36-.66-.38-.67-.37-.66-.37-.64c-2.21-3.83-4.57-7.51-7-10.95l-.75-1.05-.27-.39-.16-.23c-.07-.09-.13-.18-.2-.26l-.37-.51c-.56-.77-1.12-1.52-1.69-2.26A93.28,93.28,0,0,0,37,20.62l-.14-.13-.22-.19L36.26,20l-.34-.29-.34-.28c-.46-.38-.91-.74-1.43-1.14C31.44,16.22,29,14.93,27,14.6l-.15,0-.47-.05h-.5a3.54,3.54,0,0,0-3.33,2.25c-.05.12-.1.24-.17.43l0,.11c0,.05,0,.11-.07.21a2,2,0,0,0-.07.26c-.74,2.83-.19,7.34,1.58,13l.15.47.06.2a2.25,2.25,0,0,1,.08.24l.36,1.05c.11.35.24.7.42,1.2,0,.1.07.19.11.29s.11.31.19.52a110,110,0,0,0,4.94,11.09c.6,1.18,1.23,2.38,1.89,3.59l.27.5A154.31,154.31,0,0,0,40.7,63.55l.75,1.06c.09.12.17.24.26.35l.18.26.18.24.37.52c.57.77,1.13,1.53,1.7,2.27A103.42,103.42,0,0,0,53.4,78.92a58.09,58.09,0,0,0,4.87,4.32,21.64,21.64,0,0,0,6.24,3.64l.32.1.28.08.26.07a8.67,8.67,0,0,0,1.07.16A3.62,3.62,0,0,0,70.27,85Z"/>
          <path class="cls-13" d="M70.14,84.9c0-.11.1-.23.17-.43a.42.42,0,0,1,0-.1,1.89,1.89,0,0,1,.06-.21c.85-2.79.31-7.39-1.5-13.23l-.21-.66a2.41,2.41,0,0,1-.08-.25l-.1-.3c-.08-.22-.15-.45-.26-.75s-.24-.68-.42-1.19l-.1-.28c-.06-.16-.12-.31-.19-.52a114,114,0,0,0-4.69-10.6l-.23-.44c-.6-1.18-1.22-2.37-1.89-3.58l-.27-.5-.36-.66c-.13-.22-.25-.43-.38-.67l-.37-.65L59,49.24c-2.2-3.81-4.54-7.48-6.94-10.9-.23-.33-.45-.65-.74-1.05L51,36.91l-.16-.23-.2-.27c-.08-.12-.17-.24-.37-.5q-.84-1.15-1.68-2.25A93.56,93.56,0,0,0,37,20.77l-.15-.13-.21-.19-.36-.31L36,19.85c-.11-.09-.22-.17-.34-.28-.46-.38-.91-.74-1.43-1.13A17.65,17.65,0,0,0,27,14.78l-.15,0-.46-.05h-.5a3.52,3.52,0,0,0-3.31,2.25c-.05.12-.1.24-.17.43,0,0,0,.07,0,.11s0,.1-.06.2-.05.17-.08.26c-.72,2.82-.19,7.31,1.58,13l.15.46.06.2c0,.08.05.16.08.24l.35,1c.12.34.24.69.43,1.19,0,.09.07.19.1.29s.11.3.19.52a111.3,111.3,0,0,0,4.92,11c.59,1.17,1.22,2.36,1.88,3.57l.28.5A146.85,146.85,0,0,0,40.71,63.5c.22.32.44.64.75,1.06.08.12.16.24.25.35l.18.26.17.24.38.52c.56.76,1.12,1.52,1.69,2.25A102.46,102.46,0,0,0,53.35,78.8a56,56,0,0,0,4.84,4.31,22.12,22.12,0,0,0,6.22,3.63l.32.1.27.07.27.07a8.25,8.25,0,0,0,1.06.16A3.59,3.59,0,0,0,70.14,84.9Z"/>
          <path class="cls-14" d="M70,84.76c0-.11.1-.23.17-.43a1,1,0,0,0,0-.1,1.24,1.24,0,0,0,.06-.2c.85-2.78.31-7.37-1.49-13.18l-.21-.65-.09-.26c0-.08,0-.17-.09-.29s-.15-.45-.25-.75-.24-.68-.43-1.18l-.1-.28c-.05-.16-.11-.31-.19-.51a108.38,108.38,0,0,0-4.67-10.56l-.22-.44c-.6-1.17-1.22-2.36-1.88-3.57l-.27-.49c-.12-.22-.24-.44-.37-.66l-.37-.66-.37-.65-.37-.64c-2.19-3.8-4.52-7.44-6.9-10.85l-.74-1L51,37c-.06-.07-.11-.15-.16-.22l-.2-.27c-.08-.12-.17-.24-.37-.5-.55-.76-1.11-1.51-1.67-2.24A94.07,94.07,0,0,0,37,20.91l-.15-.12-.21-.19-.35-.31L36,20l-.34-.29c-.45-.37-.9-.73-1.41-1.12A17.91,17.91,0,0,0,27.11,15l-.15,0-.46,0H26a3.5,3.5,0,0,0-3.3,2.24,3.46,3.46,0,0,0-.16.42.49.49,0,0,0,0,.11,2,2,0,0,0-.07.2,2.5,2.5,0,0,1-.07.26c-.72,2.8-.19,7.28,1.57,12.92l.15.46.06.2c0,.08.05.16.08.23.11.33.22.65.35,1.05L25,34.15c0,.09.07.19.11.28s.11.31.19.52a109.12,109.12,0,0,0,4.89,11c.59,1.17,1.22,2.36,1.88,3.56l.27.5a145.53,145.53,0,0,0,8.38,13.46l.75,1.06c.08.11.16.23.25.34l.18.26.17.24.38.51c.55.77,1.11,1.51,1.68,2.25a102.53,102.53,0,0,0,9.17,10.57A55.55,55.55,0,0,0,58.12,83a21.75,21.75,0,0,0,6.19,3.61l.32.1.27.07.26.07a7,7,0,0,0,1.06.16A3.57,3.57,0,0,0,70,84.76Z"/>
          <path class="cls-15" d="M69.89,84.62c0-.11.09-.23.17-.43l0-.09a1.91,1.91,0,0,0,.06-.21c.85-2.77.31-7.33-1.49-13.11,0-.16-.09-.31-.2-.65l-.09-.26c0-.08-.05-.17-.09-.29s-.15-.45-.25-.74l-.42-1.19-.1-.27c-.06-.16-.12-.31-.19-.51a109.86,109.86,0,0,0-4.65-10.51l-.23-.44c-.59-1.17-1.21-2.35-1.87-3.55l-.27-.49-.36-.66-.37-.66c-.12-.21-.24-.41-.37-.65s-.24-.41-.36-.63c-2.19-3.78-4.51-7.41-6.88-10.8l-.73-1L51,37.06l-.17-.23-.19-.26-.36-.5c-.56-.76-1.11-1.5-1.67-2.23A93.14,93.14,0,0,0,37,21.06l-.15-.12-.21-.19-.35-.31L36,20.16l-.34-.28c-.45-.38-.89-.73-1.41-1.12a17.61,17.61,0,0,0-7.08-3.63l-.14,0-.46,0h-.5a3.48,3.48,0,0,0-3.28,2.22c-.05.12-.1.23-.17.42l0,.11a1.65,1.65,0,0,0-.07.21c0,.08-.05.16-.07.25-.72,2.79-.18,7.24,1.56,12.86l.15.46.06.2.08.23c.1.32.21.65.35,1l.42,1.19c0,.09.07.18.1.28s.11.3.19.52A111.5,111.5,0,0,0,30.23,46c.59,1.16,1.22,2.34,1.87,3.54l.27.5a149.15,149.15,0,0,0,8.34,13.4c.23.31.45.63.75,1,.08.11.16.23.25.34l.18.26.17.24.37.51c.56.76,1.12,1.5,1.67,2.23a103,103,0,0,0,9.14,10.53,55,55,0,0,0,4.81,4.27,21.63,21.63,0,0,0,6.16,3.59l.31.1.28.08.26.06a6.69,6.69,0,0,0,1,.16A3.57,3.57,0,0,0,69.89,84.62Z"/>
          <path class="cls-16" d="M69.76,84.48a4.39,4.39,0,0,0,.17-.42l0-.1.07-.2c.83-2.76.3-7.3-1.49-13.06-.05-.15-.09-.31-.2-.65l-.09-.25a3,3,0,0,0-.09-.29c-.08-.22-.15-.44-.25-.74l-.42-1.18-.1-.27c-.06-.16-.11-.31-.19-.51a107.78,107.78,0,0,0-4.63-10.46l-.22-.44c-.59-1.16-1.21-2.34-1.86-3.53l-.27-.49-.36-.65-.37-.66-.37-.65-.36-.63c-2.17-3.76-4.48-7.38-6.85-10.75-.22-.33-.45-.65-.73-1l-.26-.37-.17-.23-.19-.26-.36-.5c-.55-.76-1.11-1.5-1.66-2.22A92.86,92.86,0,0,0,37.06,21.21l-.14-.13-.21-.18c-.08-.06-.15-.13-.35-.31L36,20.31,35.69,20c-.45-.37-.89-.72-1.4-1.11a17.62,17.62,0,0,0-7-3.62l-.15,0-.45,0h-.49a3.46,3.46,0,0,0-3.27,2.22,3.25,3.25,0,0,0-.17.42l0,.1c0,.05,0,.11-.06.21a1.82,1.82,0,0,0-.07.25c-.72,2.78-.18,7.21,1.55,12.81l.15.45.06.2.08.23c.1.32.21.65.35,1s.23.68.41,1.17l.11.29c.05.15.11.3.19.51A106.26,106.26,0,0,0,30.29,46c.58,1.16,1.2,2.33,1.85,3.53l.27.49a145.11,145.11,0,0,0,8.31,13.34l.74,1.05c.08.11.16.23.25.34l.18.26.17.24.37.5c.55.76,1.11,1.5,1.66,2.23a101.85,101.85,0,0,0,9.1,10.48A56.18,56.18,0,0,0,58,82.72a21.44,21.44,0,0,0,6.14,3.57l.31.1.27.08.26.06a6.69,6.69,0,0,0,1,.16A3.54,3.54,0,0,0,69.76,84.48Z"/>
          <path class="cls-17" d="M69.63,84.34a4.39,4.39,0,0,0,.17-.42l0-.1.07-.2c.83-2.74.3-7.27-1.48-13,0-.15-.1-.3-.2-.64l-.09-.25a3,3,0,0,0-.09-.29c-.07-.22-.15-.44-.25-.74l-.42-1.17-.1-.27c0-.16-.11-.31-.18-.51a109.27,109.27,0,0,0-4.61-10.41l-.22-.44c-.59-1.15-1.21-2.33-1.86-3.52l-.26-.49-.36-.64-.37-.66L59,50c-.11-.21-.23-.41-.36-.63-2.16-3.74-4.46-7.34-6.81-10.71-.23-.31-.45-.63-.73-1l-.27-.38c0-.07-.1-.15-.16-.22a2.48,2.48,0,0,0-.19-.26l-.36-.5c-.55-.75-1.1-1.49-1.65-2.21A91.35,91.35,0,0,0,37.08,21.36l-.14-.13-.21-.18a4.31,4.31,0,0,0-.35-.3l-.33-.29-.33-.28c-.45-.37-.89-.72-1.4-1.11a17.57,17.57,0,0,0-7-3.59l-.15,0-.46,0h-.48A3.44,3.44,0,0,0,23,17.6a4.27,4.27,0,0,0-.16.42.49.49,0,0,0,0,.11c0,.05,0,.1-.07.2s0,.16-.07.25c-.71,2.77-.18,7.18,1.55,12.75l.15.45.06.2.08.23c.1.32.21.64.34,1s.24.68.42,1.17c0,.1.07.19.1.28s.11.3.19.52a108.55,108.55,0,0,0,4.83,10.84c.58,1.15,1.2,2.32,1.85,3.51l.27.49a145.09,145.09,0,0,0,8.26,13.28l.74,1c.08.12.16.23.25.34l.18.26c.06.08.11.16.17.23l.37.51q.82,1.13,1.65,2.22a103,103,0,0,0,9.06,10.43,54,54,0,0,0,4.76,4.22A21.57,21.57,0,0,0,64,86.15l.31.09.27.08.26.06a6.57,6.57,0,0,0,1,.16A3.53,3.53,0,0,0,69.63,84.34Z"/>
          <path class="cls-18" d="M69.5,84.2a4.39,4.39,0,0,0,.17-.42l0-.09.07-.21c.82-2.73.3-7.23-1.47-12.93l-.21-.65c0-.08,0-.16-.08-.25s-.05-.16-.09-.29l-.25-.73c-.11-.33-.23-.67-.41-1.16l-.1-.28c-.06-.15-.12-.3-.19-.5a104.77,104.77,0,0,0-4.59-10.36c-.07-.15-.14-.29-.22-.44-.58-1.15-1.19-2.31-1.84-3.5l-.27-.49-.36-.64c-.11-.21-.23-.42-.36-.65S59.1,50.2,59,50s-.23-.41-.35-.63c-2.16-3.73-4.45-7.31-6.79-10.66l-.72-1-.27-.37a1.77,1.77,0,0,0-.16-.22l-.19-.27-.36-.49c-.55-.75-1.09-1.48-1.64-2.2A91.06,91.06,0,0,0,37.1,21.51L37,21.38l-.21-.18-.34-.3-.33-.29c-.11-.08-.21-.17-.33-.27-.45-.37-.89-.72-1.39-1.11a17.67,17.67,0,0,0-7-3.58l-.14,0-.46-.05h-.48a3.42,3.42,0,0,0-3.24,2.2c-.05.11-.1.23-.17.41l0,.11a2,2,0,0,0-.07.2c0,.08-.05.16-.07.26-.71,2.75-.18,7.14,1.54,12.68l.15.45.06.2c0,.07.05.15.08.23.1.32.21.64.34,1l.41,1.17c0,.09.07.19.11.28s.11.3.19.51a104.2,104.2,0,0,0,4.8,10.79c.58,1.15,1.2,2.31,1.84,3.5l.27.49a145.19,145.19,0,0,0,8.23,13.22l.73,1,.25.35.18.25.17.23.36.5c.55.75,1.1,1.49,1.65,2.21a101,101,0,0,0,9,10.38,52.12,52.12,0,0,0,4.74,4.21A21.21,21.21,0,0,0,63.91,86l.3.1.27.07.26.06a6.75,6.75,0,0,0,1,.16A3.49,3.49,0,0,0,69.5,84.2Z"/>
          <path class="cls-19" d="M69.38,84.06a3.87,3.87,0,0,0,.16-.42.36.36,0,0,0,0-.09l.06-.2c.82-2.72.3-7.2-1.46-12.88L68,69.83c0-.08,0-.16-.08-.25s0-.17-.09-.29l-.25-.73c-.11-.33-.23-.66-.41-1.16l-.1-.27c-.05-.15-.11-.3-.19-.5a108.25,108.25,0,0,0-4.56-10.32c-.07-.14-.15-.28-.22-.43-.58-1.14-1.19-2.3-1.84-3.48L60,51.91l-.36-.64-.36-.65c-.12-.2-.23-.41-.36-.64s-.24-.4-.36-.62c-2.15-3.71-4.42-7.27-6.75-10.61-.23-.31-.45-.63-.72-1l-.27-.37c0-.07-.11-.14-.16-.22l-.19-.26-.36-.49c-.54-.75-1.09-1.48-1.63-2.19A89.58,89.58,0,0,0,37.12,21.66L37,21.53l-.2-.18-.35-.3-.33-.28c-.1-.09-.2-.18-.33-.28-.44-.37-.88-.71-1.38-1.1a17.47,17.47,0,0,0-6.95-3.56l-.15,0-.45,0h-.48a3.43,3.43,0,0,0-3.23,2.18c-.05.11-.09.23-.16.42l0,.1c0,.05,0,.1-.06.2a1.63,1.63,0,0,0-.07.26c-.71,2.74-.18,7.11,1.53,12.62l.15.45.06.2c0,.07.05.15.07.23.11.31.22.63.35,1s.23.67.41,1.16l.1.28c.06.15.11.3.19.51a105.45,105.45,0,0,0,4.78,10.74q.87,1.71,1.83,3.48l.27.48a142.51,142.51,0,0,0,8.19,13.16l.73,1,.25.35.18.25.17.23.36.5c.55.75,1.09,1.48,1.64,2.2a101.08,101.08,0,0,0,9,10.33,53.14,53.14,0,0,0,4.71,4.19,21.36,21.36,0,0,0,6,3.53l.31.1.27.07.26.06a5.49,5.49,0,0,0,1,.16A3.49,3.49,0,0,0,69.38,84.06Z"/>
          <path class="cls-20" d="M69.25,83.92a4,4,0,0,0,.17-.41l0-.1a1.24,1.24,0,0,0,.06-.2c.82-2.71.3-7.16-1.45-12.82l-.21-.63a1.83,1.83,0,0,0-.08-.25c0-.08,0-.17-.09-.29l-.25-.72c-.11-.33-.23-.67-.41-1.16l-.09-.27c-.06-.15-.12-.3-.19-.5A107.48,107.48,0,0,0,62.19,56.3L62,55.87c-.58-1.14-1.19-2.29-1.83-3.47l-.27-.48-.35-.64c-.12-.21-.23-.42-.36-.64L58.81,50c-.12-.2-.24-.4-.36-.62-2.13-3.69-4.4-7.24-6.72-10.56-.22-.31-.44-.63-.72-1l-.26-.37-.16-.22L50.4,37c-.08-.12-.17-.23-.36-.49C49.5,35.73,49,35,48.42,34.29A90,90,0,0,0,37.15,21.8L37,21.68l-.2-.18-.34-.3-.33-.28-.33-.27c-.44-.37-.88-.72-1.38-1.1A17.55,17.55,0,0,0,27.5,16l-.14,0-.45-.05h-.48a3.41,3.41,0,0,0-3.21,2.18,4,4,0,0,0-.16.41.49.49,0,0,0,0,.11c0,.05,0,.1-.06.2a1.82,1.82,0,0,0-.07.25c-.71,2.72-.18,7.07,1.53,12.57,0,.14.09.29.14.44l.06.2c0,.07.05.15.07.23.11.31.21.63.35,1s.23.67.4,1.16c0,.09.07.18.11.28s.11.29.18.5a105.75,105.75,0,0,0,4.76,10.69c.58,1.14,1.19,2.29,1.83,3.46l.26.49a142.59,142.59,0,0,0,8.16,13.1c.22.31.43.62.73,1l.24.34.18.25.16.23c.1.12.19.25.37.5.54.74,1.09,1.47,1.63,2.18A101.35,101.35,0,0,0,53,78a52.68,52.68,0,0,0,4.7,4.17,21.13,21.13,0,0,0,6,3.51l.31.1.27.07.25.07a6.57,6.57,0,0,0,1,.15A3.47,3.47,0,0,0,69.25,83.92Z"/>
          <path class="cls-21" d="M69.12,83.79c0-.11.1-.23.17-.42l0-.1a1.24,1.24,0,0,0,.06-.2c.82-2.69.3-7.13-1.45-12.75,0-.15-.09-.3-.2-.64a2.25,2.25,0,0,0-.08-.24,3,3,0,0,0-.09-.29l-.25-.72c-.11-.33-.23-.66-.4-1.15l-.1-.27c-.06-.15-.11-.3-.19-.5A105.18,105.18,0,0,0,62.1,56.29l-.22-.43c-.57-1.13-1.18-2.28-1.82-3.45-.08-.16-.17-.32-.26-.48l-.35-.64c-.12-.21-.24-.41-.36-.64s-.23-.4-.36-.63l-.36-.62c-2.12-3.67-4.38-7.21-6.69-10.51l-.71-1-.26-.36-.16-.22L50.36,37,50,36.55c-.54-.74-1.08-1.46-1.62-2.17A89.76,89.76,0,0,0,37.17,22L37,21.83l-.21-.18-.34-.3-.33-.28-.32-.27c-.44-.37-.87-.71-1.37-1.09a17.37,17.37,0,0,0-6.89-3.53l-.14,0-.45,0h-.26a1.61,1.61,0,0,0-.22,0,3.38,3.38,0,0,0-3.19,2.16c0,.11-.1.23-.17.41l0,.11A2,2,0,0,0,23,19c0,.08,0,.16-.07.25-.7,2.71-.17,7,1.53,12.51,0,.15.09.29.14.44l.06.2.07.22c.1.32.21.63.34,1s.24.66.41,1.15l.1.27c.06.15.11.3.19.51a105.8,105.8,0,0,0,4.74,10.64c.57,1.13,1.18,2.28,1.81,3.44l.27.49a142.57,142.57,0,0,0,8.11,13l.73,1,.24.34.18.25.16.23c.1.12.19.25.37.49C43,66.23,43.5,67,44,67.67a100.38,100.38,0,0,0,8.89,10.24,52.37,52.37,0,0,0,4.68,4.15,21.18,21.18,0,0,0,6,3.5l.31.09.26.08.25.06a6.57,6.57,0,0,0,1,.15A3.44,3.44,0,0,0,69.12,83.79Z"/>
          <path class="cls-22" d="M69,83.65c0-.11.09-.22.16-.42l0-.09.07-.2c.8-2.68.29-7.1-1.45-12.7,0-.15-.09-.3-.2-.63,0-.08,0-.16-.08-.25s0-.16-.09-.28-.15-.43-.24-.72-.23-.66-.41-1.15l-.1-.26c0-.15-.11-.3-.18-.5A106.66,106.66,0,0,0,62,56.28c-.08-.14-.15-.28-.22-.43-.57-1.12-1.18-2.27-1.81-3.43-.09-.16-.18-.32-.26-.48s-.24-.42-.35-.63L59,50.67,58.65,50l-.35-.62c-2.12-3.66-4.36-7.17-6.66-10.46l-.71-1-.26-.37c-.06-.07-.11-.15-.16-.22l-.19-.26L50,36.63l-1.61-2.16A88.89,88.89,0,0,0,37.19,22.1L37.05,22l-.21-.18-.33-.3-.33-.28L35.86,21c-.44-.36-.87-.7-1.37-1.08a17.35,17.35,0,0,0-6.85-3.52l-.14,0-.45,0h-.48a3.38,3.38,0,0,0-3.18,2.16,3.21,3.21,0,0,0-.16.41l0,.1s0,.1-.06.2-.05.16-.07.25c-.69,2.7-.17,7,1.52,12.45,0,.15.09.29.14.44l.06.2.07.22c.1.31.21.63.34,1s.23.67.41,1.14a2.31,2.31,0,0,0,.1.28c.05.15.1.29.18.5a107.25,107.25,0,0,0,4.72,10.6c.57,1.12,1.17,2.26,1.81,3.42l.26.49a139.78,139.78,0,0,0,8.08,13c.21.31.43.61.72,1l.24.34.18.24.16.23.36.5c.54.73,1.08,1.46,1.62,2.16a99.58,99.58,0,0,0,8.85,10.2,55,55,0,0,0,4.65,4.13,21.12,21.12,0,0,0,6,3.48l.3.09.27.08.25.06a6.28,6.28,0,0,0,1,.15A3.45,3.45,0,0,0,69,83.65Z"/>
          <path class="cls-11" d="M68.87,83.51c0-.11.09-.22.16-.42l0-.09.07-.2c.8-2.67.29-7.06-1.44-12.64l-.2-.63a2.25,2.25,0,0,0-.08-.24c0-.08,0-.16-.09-.28s-.15-.43-.24-.72-.23-.65-.41-1.14l-.09-.26c-.06-.15-.11-.3-.19-.5a102.18,102.18,0,0,0-4.48-10.12l-.21-.43c-.57-1.12-1.17-2.26-1.81-3.42-.08-.16-.17-.31-.26-.47s-.23-.42-.35-.63l-.35-.64-.36-.63c-.11-.19-.23-.39-.35-.61C56.12,45.8,53.88,42.3,51.59,39c-.22-.31-.43-.62-.71-1l-.26-.36-.15-.22-.19-.26-.35-.48c-.53-.73-1.07-1.45-1.61-2.15A88.54,88.54,0,0,0,37.21,22.25l-.14-.13-.2-.17-.34-.3-.32-.27-.33-.27c-.43-.36-.86-.71-1.35-1.08-2.58-2-4.91-3.19-6.83-3.5l-.14,0-.44,0h-.48a3.35,3.35,0,0,0-3.16,2.14,4,4,0,0,0-.16.41.49.49,0,0,0,0,.11,1.47,1.47,0,0,0-.06.19,1.82,1.82,0,0,0-.07.25c-.7,2.69-.18,7,1.51,12.39,0,.15.09.3.14.44l.06.2.07.22c.1.31.21.63.34,1s.23.67.4,1.14l.1.28c.06.14.11.29.19.5a105,105,0,0,0,4.69,10.54c.57,1.12,1.17,2.26,1.8,3.41.09.16.18.32.26.48a148.24,148.24,0,0,0,8,12.92l.72,1,.24.34.18.24.16.23.36.49c.54.74,1.07,1.45,1.61,2.16a97.24,97.24,0,0,0,8.81,10.14,53,53,0,0,0,4.63,4.12,21.13,21.13,0,0,0,5.94,3.46l.3.1.26.07.25.06a6.28,6.28,0,0,0,1,.15A3.43,3.43,0,0,0,68.87,83.51Z"/>
        </g>
        <g class="cls-10">
          <path class="cls-11" d="M69.31,81c0-.13,0-.18,0-.22.55-5-1.92-13.71-7.07-24.09-.48-1-1-2-1.52-3-.44-.84-.74-1.39-1-1.94a141.84,141.84,0,0,0-7.93-12.74q-1.62-2.31-3.27-4.46c-.93-1.22-1.87-2.4-2.8-3.52A86.28,86.28,0,0,0,39,23.79l-.33-.31a44,44,0,0,0-4.87-4,18.87,18.87,0,0,0-4.16-2.26,12.18,12.18,0,0,0-1.3-.36l-.1,0-.72-.09h-.17a3.42,3.42,0,0,0-3.46,2.13,9.51,9.51,0,0,0-.64,4,29.25,29.25,0,0,0,.92,6.26q.59,2.36,1.51,5c.08.23.13.39.19.55s.13.36.17.48c.12.31.17.45.22.59l.09.24c0,.07.05.15.08.22s.07.19.11.28c.1.26.19.51.29.76,1,2.51,2.18,5.17,3.56,8,.29.58.58,1.17.89,1.76l.18.35c.48.93,1,1.86,1.5,2.81a139.18,139.18,0,0,0,7.92,12.72c1.07,1.54,2.17,3,3.26,4.47,1,1.24,1.91,2.44,2.86,3.58,2.08,2.5,4,4.58,5.82,6.39,1.06,1,2.1,2,3.11,2.86l.29.25.21.17A23.61,23.61,0,0,0,63,84.69a8.15,8.15,0,0,0,2.12.47h.17a4.18,4.18,0,0,0,1-.08l.14,0a3.31,3.31,0,0,0,.41-.13,3.4,3.4,0,0,0,1.88-1.88A7.24,7.24,0,0,0,69.31,81Z"/>
          <path class="cls-22" d="M69.26,80.93c0-.13,0-.17,0-.22.55-4.94-1.92-13.67-7.05-24-.48-1-1-2-1.51-3l-1-1.93a139.53,139.53,0,0,0-7.9-12.7q-1.62-2.31-3.26-4.46c-.93-1.21-1.87-2.39-2.79-3.51A87.38,87.38,0,0,0,39,23.86l-.33-.31a43.76,43.76,0,0,0-4.85-4,18.74,18.74,0,0,0-4.15-2.25,10.21,10.21,0,0,0-1.3-.36l-.09,0a7.07,7.07,0,0,0-.72-.09h-.18A3.4,3.4,0,0,0,23.94,19a9.27,9.27,0,0,0-.64,4,28.43,28.43,0,0,0,.93,6.24q.57,2.36,1.5,5c.08.22.13.39.19.54s.13.36.17.48c.11.31.16.45.22.59l.09.24a2,2,0,0,0,.08.22l.1.28.3.75c1,2.51,2.17,5.17,3.55,7.94.28.58.58,1.16.88,1.75l.18.35c.48.93,1,1.86,1.5,2.8a143,143,0,0,0,7.89,12.69q1.62,2.31,3.26,4.46c1,1.23,1.9,2.43,2.85,3.57a85.71,85.71,0,0,0,5.81,6.37c1.05,1,2.09,2,3.09,2.86l.29.24.21.17A23.35,23.35,0,0,0,63,84.6a8.42,8.42,0,0,0,2.11.47h.17a4.09,4.09,0,0,0,1-.09.58.58,0,0,0,.14,0l.41-.12A3.4,3.4,0,0,0,68.71,83,7.4,7.4,0,0,0,69.26,80.93Z"/>
          <path class="cls-21" d="M69.2,80.85c0-.13,0-.17,0-.22.54-4.93-1.92-13.63-7-24-.49-1-1-2-1.51-2.94l-1-1.94a140.12,140.12,0,0,0-7.89-12.66c-1.07-1.53-2.16-3-3.25-4.44-.92-1.22-1.86-2.39-2.78-3.51A85.13,85.13,0,0,0,39,23.94l-.33-.32a43.39,43.39,0,0,0-4.84-4,17.46,17.46,0,0,0-4.13-2.25A9,9,0,0,0,28.43,17l-.1,0a4.88,4.88,0,0,0-.72-.09h-.17A3.39,3.39,0,0,0,24,19a9.23,9.23,0,0,0-.64,4,28.43,28.43,0,0,0,.93,6.23c.38,1.56.88,3.22,1.49,5l.2.54c.08.24.12.36.17.47l.21.6.09.23c0,.08.06.15.08.22s.08.19.11.28l.29.75c1,2.5,2.17,5.15,3.54,7.91L31.36,47l.19.36c.48.92,1,1.85,1.49,2.79a139.82,139.82,0,0,0,7.87,12.65c1.08,1.53,2.16,3,3.25,4.44q1.43,1.86,2.84,3.57c2.07,2.48,4,4.55,5.79,6.35q1.59,1.56,3.09,2.85l.29.24.21.17A23.28,23.28,0,0,0,63,84.5a8.11,8.11,0,0,0,2.1.47h.18a4.65,4.65,0,0,0,1-.08l.14,0a2.69,2.69,0,0,0,.4-.13,3.38,3.38,0,0,0,1.88-1.87A7.43,7.43,0,0,0,69.2,80.85Z"/>
          <path class="cls-23" d="M69.14,80.77c0-.13,0-.18,0-.22.54-4.92-1.92-13.6-7-23.89-.49-1-1-1.95-1.51-2.94-.44-.84-.74-1.38-1-1.93a138.56,138.56,0,0,0-7.86-12.63q-1.6-2.29-3.24-4.43c-.93-1.21-1.86-2.38-2.78-3.49A83.27,83.27,0,0,0,39,24c-.18-.18-.26-.25-.33-.31a42.41,42.41,0,0,0-4.82-4,17.92,17.92,0,0,0-4.12-2.24,10.18,10.18,0,0,0-1.29-.37l-.1,0a6.17,6.17,0,0,0-.71-.08H27.5a3.35,3.35,0,0,0-3.42,2.1,9.36,9.36,0,0,0-.64,3.95,29,29,0,0,0,.93,6.21c.39,1.55.88,3.22,1.49,5,.08.23.14.39.19.55l.17.47c.12.31.17.45.22.59l.09.23c0,.08,0,.15.08.22s.07.19.11.28l.29.75c1,2.49,2.16,5.13,3.53,7.89.28.58.58,1.16.88,1.74l.18.36c.48.91,1,1.84,1.49,2.78a139.15,139.15,0,0,0,7.85,12.62c1.07,1.53,2.16,3,3.24,4.43Q45.61,69,47,70.72c2.07,2.47,4,4.53,5.78,6.34,1.05,1,2.08,2,3.08,2.83l.29.25.2.17a23.12,23.12,0,0,0,6.56,4.09,7.57,7.57,0,0,0,2.09.47h.18a4,4,0,0,0,1-.08l.14,0a2.69,2.69,0,0,0,.4-.13,3.32,3.32,0,0,0,1.87-1.86A7,7,0,0,0,69.14,80.77Z"/>
          <path class="cls-19" d="M69.09,80.68c0-.13,0-.17,0-.21.54-4.91-1.91-13.56-7-23.83-.48-1-1-1.94-1.5-2.93-.44-.83-.73-1.37-1-1.92a137.89,137.89,0,0,0-7.84-12.6c-1.06-1.52-2.14-3-3.23-4.42-.92-1.2-1.85-2.37-2.77-3.48a82.81,82.81,0,0,0-6.66-7.21l-.32-.31a44.23,44.23,0,0,0-4.81-4,17.71,17.71,0,0,0-4.12-2.24,9.39,9.39,0,0,0-1.27-.36l-.1,0-.71-.09h-.18a3.34,3.34,0,0,0-3.4,2.09,9.29,9.29,0,0,0-.64,3.93,28.7,28.7,0,0,0,.93,6.2c.39,1.55.88,3.21,1.49,5,.08.22.13.38.19.54l.17.47c.11.31.17.45.22.59l.09.24a1.8,1.8,0,0,0,.08.21c0,.1.07.19.1.28.1.26.2.5.29.75,1,2.49,2.16,5.12,3.53,7.87.28.57.57,1.15.87,1.73l.19.36c.47.91,1,1.84,1.48,2.77A140.74,140.74,0,0,0,41,62.69c1.07,1.52,2.15,3,3.23,4.42.94,1.23,1.89,2.41,2.83,3.55,2,2.46,3.93,4.52,5.75,6.32,1,1,2.08,2,3.07,2.83l.29.24.21.17a23.26,23.26,0,0,0,6.53,4.09,8.37,8.37,0,0,0,2.09.47h.18a4.07,4.07,0,0,0,1-.07l.13,0,.41-.12a3.36,3.36,0,0,0,1.86-1.86A7.35,7.35,0,0,0,69.09,80.68Z"/>
          <path class="cls-18" d="M69,80.6c0-.13,0-.17,0-.22.53-4.88-1.92-13.51-7-23.75-.48-1-1-1.94-1.5-2.93-.44-.83-.73-1.37-1-1.91a139.45,139.45,0,0,0-7.82-12.57c-1.06-1.52-2.14-3-3.22-4.4-.92-1.21-1.85-2.37-2.76-3.48a85.46,85.46,0,0,0-6.64-7.19l-.33-.31A43.09,43.09,0,0,0,34,19.89a17.93,17.93,0,0,0-4.1-2.23,9.39,9.39,0,0,0-1.27-.36l-.1,0a6.27,6.27,0,0,0-.71-.09h-.17a3.33,3.33,0,0,0-3.39,2.09,9.07,9.07,0,0,0-.63,3.92,28.48,28.48,0,0,0,.92,6.18c.39,1.55.88,3.2,1.49,5,.08.22.13.38.19.54l.17.47.21.58.09.24a1.8,1.8,0,0,1,.08.21c0,.1.07.19.11.28l.29.75c1,2.48,2.15,5.1,3.51,7.84L31.53,47c.09.18.14.26.18.35.48.91,1,1.83,1.48,2.77A139,139,0,0,0,41,62.65c1.06,1.52,2.14,3,3.22,4.41q1.41,1.83,2.82,3.53c2.05,2.46,3.93,4.52,5.74,6.31,1,1,2.07,2,3.06,2.82l.29.24.2.17a22.94,22.94,0,0,0,6.52,4.08,7.8,7.8,0,0,0,2.08.47h.17a4.56,4.56,0,0,0,1-.08l.14,0a2.69,2.69,0,0,0,.4-.13,3.27,3.27,0,0,0,1.85-1.85A6.85,6.85,0,0,0,69,80.6Z"/>
          <path class="cls-17" d="M69,80.52c0-.13,0-.18,0-.22.53-4.87-1.91-13.48-7-23.69-.48-1-1-1.93-1.49-2.91s-.74-1.37-1-1.91A138.72,138.72,0,0,0,51.7,39.25c-1.06-1.51-2.14-3-3.22-4.39q-1.38-1.8-2.75-3.47a86.55,86.55,0,0,0-6.62-7.17l-.33-.31A45,45,0,0,0,34,20a17.81,17.81,0,0,0-4.09-2.22,8.13,8.13,0,0,0-1.27-.36l-.09,0a4.92,4.92,0,0,0-.71-.09h-.17a3.31,3.31,0,0,0-3.38,2.08,9.05,9.05,0,0,0-.63,3.91,28.31,28.31,0,0,0,.92,6.16c.39,1.54.88,3.19,1.49,4.94.07.23.13.38.19.54s.12.36.17.47l.21.59.09.23c0,.07.05.14.08.22l.11.27c.09.26.19.5.29.75,1,2.47,2.14,5.09,3.5,7.82.28.57.57,1.15.87,1.73.09.18.14.26.18.35.48.91,1,1.83,1.48,2.76A138.35,138.35,0,0,0,41,62.61c1.06,1.51,2.14,3,3.21,4.39.94,1.23,1.88,2.4,2.81,3.53C49.1,73,51,75,52.77,76.82q1.57,1.55,3.06,2.82l.28.24.21.17a22.81,22.81,0,0,0,6.49,4.06,7.51,7.51,0,0,0,2.08.47h.17a4,4,0,0,0,1-.08l.13,0,.4-.12a3.33,3.33,0,0,0,1.85-1.85A7.21,7.21,0,0,0,69,80.52Z"/>
          <path class="cls-16" d="M68.92,80.43c0-.13,0-.17,0-.21.53-4.86-1.91-13.44-7-23.62-.48-1-1-1.93-1.49-2.91-.44-.83-.73-1.37-1-1.91a139.33,139.33,0,0,0-7.78-12.5c-1.06-1.5-2.13-3-3.2-4.38-.92-1.19-1.84-2.35-2.75-3.45a83.09,83.09,0,0,0-6.6-7.16L38.8,24A41.51,41.51,0,0,0,34,20.06,17.46,17.46,0,0,0,30,17.83a9.6,9.6,0,0,0-1.26-.35l-.1,0a4.6,4.6,0,0,0-.71-.09h-.17a3.31,3.31,0,0,0-3.37,2.07,9.17,9.17,0,0,0-.62,3.9,28.76,28.76,0,0,0,.92,6.14c.39,1.54.88,3.18,1.49,4.93l.18.54c.09.23.13.35.17.46.12.31.17.45.22.59l.09.23c0,.07.05.14.08.22l.1.27c.1.26.19.5.29.74,1,2.47,2.14,5.08,3.5,7.81.28.57.57,1.14.87,1.72l.18.35c.47.91,1,1.82,1.47,2.75a139.94,139.94,0,0,0,7.77,12.49q1.59,2.26,3.2,4.38,1.41,1.83,2.8,3.52c2,2.45,3.91,4.49,5.71,6.27,1,1,2.06,2,3,2.81l.29.24.2.17A22.78,22.78,0,0,0,62.78,84a8.14,8.14,0,0,0,2.07.47H65a4,4,0,0,0,1-.07l.14,0a3.14,3.14,0,0,0,.4-.13,3.32,3.32,0,0,0,1.84-1.84A7.21,7.21,0,0,0,68.92,80.43Z"/>
          <path class="cls-24" d="M68.86,80.35c0-.13,0-.17,0-.22.52-4.84-1.91-13.4-7-23.55-.48-.95-1-1.92-1.49-2.9-.44-.82-.73-1.36-1-1.9a137,137,0,0,0-7.75-12.46q-1.59-2.26-3.2-4.37c-.91-1.2-1.83-2.35-2.74-3.45a85.81,85.81,0,0,0-6.58-7.14l-.32-.3a43.3,43.3,0,0,0-4.75-3.92A17.92,17.92,0,0,0,30,17.92a9.27,9.27,0,0,0-1.26-.36l-.1,0-.7-.09h-.17a3.28,3.28,0,0,0-3.36,2.06,9.09,9.09,0,0,0-.62,3.89,28.59,28.59,0,0,0,.92,6.12q.59,2.31,1.48,4.92c.08.22.14.38.19.53l.17.47.21.58.09.23a2,2,0,0,1,.08.22l.11.27c.1.26.19.5.29.74,1,2.46,2.13,5.06,3.48,7.78.28.57.57,1.14.87,1.72.09.18.14.26.18.35.47.91,1,1.82,1.47,2.75a138.22,138.22,0,0,0,7.75,12.45c1,1.5,2.12,3,3.19,4.37.93,1.21,1.87,2.39,2.79,3.51,2,2.44,3.9,4.48,5.7,6.25,1,1,2,2,3,2.81.12.09.2.17.28.24l.21.16a22.62,22.62,0,0,0,6.45,4,7.74,7.74,0,0,0,2.07.47H65a4.52,4.52,0,0,0,1-.08l.13,0,.4-.12a3.31,3.31,0,0,0,1.83-1.84A7.14,7.14,0,0,0,68.86,80.35Z"/>
          <path class="cls-14" d="M68.8,80.26c0-.12,0-.17,0-.21.52-4.83-1.91-13.36-6.94-23.49-.47-1-1-1.91-1.48-2.89l-1-1.89a136.4,136.4,0,0,0-7.74-12.43c-1-1.5-2.11-3-3.18-4.36-.91-1.19-1.83-2.34-2.73-3.44a85.34,85.34,0,0,0-6.57-7.12l-.32-.3a43.29,43.29,0,0,0-4.74-3.91A17.35,17.35,0,0,0,30.06,18a9.27,9.27,0,0,0-1.26-.36l-.09,0-.7-.09h-.17a3.29,3.29,0,0,0-3.35,2.06,9.08,9.08,0,0,0-.61,3.88,27.22,27.22,0,0,0,.92,6.1c.38,1.53.87,3.17,1.47,4.9.08.22.13.38.19.54s.13.35.17.46l.21.58.09.23c0,.08.05.15.08.22l.1.27c.1.26.2.5.29.74,1,2.45,2.13,5.05,3.48,7.76q.42.85.87,1.71c.09.18.13.27.18.35.47.9,1,1.82,1.46,2.74a139.83,139.83,0,0,0,7.73,12.42q1.58,2.25,3.18,4.35,1.39,1.83,2.79,3.5c2,2.44,3.88,4.47,5.67,6.25,1,1,2,2,3,2.79l.28.24.2.17a22.62,22.62,0,0,0,6.44,4,7.73,7.73,0,0,0,2.05.46h.18a3.86,3.86,0,0,0,1-.08l.14,0,.39-.12a3.26,3.26,0,0,0,1.83-1.83A6.81,6.81,0,0,0,68.8,80.26Z"/>
          <path class="cls-13" d="M68.75,80.18c0-.13,0-.17,0-.21.52-4.82-1.9-13.32-6.92-23.42-.47-.95-1-1.91-1.48-2.89-.43-.81-.72-1.35-1-1.88a137.91,137.91,0,0,0-7.71-12.4Q50.07,37.13,48.46,35c-.91-1.18-1.82-2.33-2.72-3.42a81.71,81.71,0,0,0-6.55-7.1l-.32-.31a42.83,42.83,0,0,0-4.72-3.9,17.43,17.43,0,0,0-4-2.2,8.23,8.23,0,0,0-1.25-.36l-.1,0a6.4,6.4,0,0,0-.7-.09H27.9a3.27,3.27,0,0,0-3.34,2.05A9,9,0,0,0,24,23.54a27.64,27.64,0,0,0,.92,6.08q.57,2.29,1.47,4.89c.08.22.13.38.19.53l.16.47c.12.3.17.44.22.58l.09.23a1.8,1.8,0,0,0,.08.21l.1.27c.1.26.19.5.29.74,1,2.44,2.12,5,3.47,7.74.28.56.56,1.13.86,1.7l.18.35c.47.9,1,1.81,1.46,2.73a139,139,0,0,0,7.71,12.38c1,1.5,2.11,3,3.17,4.35.93,1.21,1.86,2.38,2.78,3.49,2,2.43,3.87,4.46,5.66,6.23,1,1,2,1.95,3,2.78l.28.24.21.17a22.6,22.6,0,0,0,6.41,4,7.73,7.73,0,0,0,2,.46h.17a4.39,4.39,0,0,0,1-.07l.14,0A2.54,2.54,0,0,0,66.4,84a3.22,3.22,0,0,0,1.82-1.82A7,7,0,0,0,68.75,80.18Z"/>
          <path class="cls-12" d="M68.69,80.1c0-.13,0-.17,0-.22.51-4.79-1.91-13.28-6.91-23.35-.47-.94-1-1.9-1.48-2.87-.43-.82-.72-1.35-1-1.89a138.53,138.53,0,0,0-7.7-12.36c-1-1.49-2.1-2.94-3.16-4.33q-1.37-1.78-2.72-3.42a84.36,84.36,0,0,0-6.52-7.08c-.19-.18-.26-.24-.32-.31a43.78,43.78,0,0,0-4.71-3.89,18.17,18.17,0,0,0-4-2.2,9.47,9.47,0,0,0-1.25-.35l-.09,0a4.63,4.63,0,0,0-.7-.09H28a3.25,3.25,0,0,0-3.32,2A9.12,9.12,0,0,0,24,23.6a28.7,28.7,0,0,0,.92,6.07c.38,1.53.87,3.15,1.47,4.88.07.22.13.37.18.53s.13.35.17.46c.11.31.16.44.22.58a2.09,2.09,0,0,0,.08.23l.08.21.11.27c.09.26.19.5.28.74,1,2.44,2.12,5,3.46,7.71.28.57.57,1.13.87,1.71l.17.34c.47.9,1,1.81,1.46,2.73A138,138,0,0,0,41.17,62.4q1.57,2.25,3.17,4.34,1.39,1.82,2.77,3.48c2,2.42,3.86,4.44,5.64,6.21,1,1,2,1.94,3,2.78l.28.24.2.16a22.73,22.73,0,0,0,6.4,4,7.63,7.63,0,0,0,2,.47h.17a4.37,4.37,0,0,0,1-.08L66,84l.4-.12a3.27,3.27,0,0,0,1.81-1.82A7,7,0,0,0,68.69,80.1Z"/>
        </g>
        <path class="cls-3" d="M68.69,80.1c0-.13,0-.17,0-.22.51-4.79-1.91-13.28-6.91-23.35-.47-.94-1-1.9-1.48-2.87-.43-.82-.72-1.35-1-1.89a138.53,138.53,0,0,0-7.7-12.36c-1-1.49-2.1-2.94-3.16-4.33q-1.37-1.78-2.72-3.42a84.36,84.36,0,0,0-6.52-7.08c-.19-.18-.26-.24-.32-.31a43.78,43.78,0,0,0-4.71-3.89,18.17,18.17,0,0,0-4-2.2,9.47,9.47,0,0,0-1.25-.35l-.09,0a4.63,4.63,0,0,0-.7-.09H28a3.25,3.25,0,0,0-3.32,2A9.12,9.12,0,0,0,24,23.6a28.7,28.7,0,0,0,.92,6.07c.38,1.53.87,3.15,1.47,4.88.07.22.13.37.18.53s.13.35.17.46c.11.31.16.44.22.58a2.09,2.09,0,0,0,.08.23l.08.21.11.27c.09.26.19.5.28.74,1,2.44,2.12,5,3.46,7.71.28.57.57,1.13.87,1.71l.17.34c.47.9,1,1.81,1.46,2.73A138,138,0,0,0,41.17,62.4q1.57,2.25,3.17,4.34,1.39,1.82,2.77,3.48c2,2.42,3.86,4.44,5.64,6.21,1,1,2,1.94,3,2.78l.28.24.2.16a22.73,22.73,0,0,0,6.4,4,7.63,7.63,0,0,0,2,.47h.17a4.37,4.37,0,0,0,1-.08L66,84l.4-.12a3.27,3.27,0,0,0,1.81-1.82A7,7,0,0,0,68.69,80.1Z"/>
        <path class="cls-25" d="M77.7,101.11l-.06,0,0,0h0l0,0h0l-.14.07-.08,0-.06,0a4.85,4.85,0,0,1-1.46.42h-.21c-2,.2-4.49-.52-7.5-2.21h0l-.56-.33-.1,0-.19-.12h0L67,99l-.16-.11-.16-.09-.09-.06-.14-.09-.27-.17h0l-.28-.19h0c-.46-.31-.91-.62-1.38-1h0l-.11-.09c-.32-.23-.65-.47-1-.72l-.1-.07h0L63,96.11h0L62.77,96h0l-.5-.41,0,0h0l-.17-.13-.36-.3h0c-.82-.68-1.66-1.4-2.51-2.17l0,0-.08-.07c-.79-.71-1.58-1.45-2.38-2.23h0l-.49-.47h0L55,88.91l-.15-.16q-1-1-1.92-2l-.22-.23-.13-.15h0l-.51-.54-.08-.1a4.12,4.12,0,0,1-.28-.31c-.11-.11-.22-.23-.32-.35l-.28-.32-.1-.1-.12-.13a.69.69,0,0,0-.11-.13c-.08-.1-.17-.19-.25-.28L50.43,84l-.13-.15-.12-.13-.35-.4c0-.06-.09-.11-.13-.16l-.53-.61h0l0-.06c-.19-.23-.39-.45-.58-.69l-.07-.07-.06-.08L48,81.16,48,81.09a1.34,1.34,0,0,0-.11-.14h0l-.21-.25-.19-.24-.18-.21-.37-.45,0,0-.1-.12-.05-.06-.08-.1L46.25,79a.1.1,0,0,0,0-.05l-.14-.18-.15-.19-.16-.19-.06-.08-.2-.25-.13-.17-.12-.14c-.06-.08-.12-.15-.17-.23L45,77.42a1.56,1.56,0,0,1-.16-.2l-.13-.17-.24-.29-.13-.18h0c-.06-.09-.13-.17-.19-.25L43.9,76l-.11-.14-.55-.72,0,0-.57-.75-.22-.29,0,0-.31-.42-.22-.29-.13-.18-.21-.28-.34-.46-.13-.18-.1-.13-.39-.54-.21-.28-.06-.09,0,0L40.11,71l-.15-.2c-.05-.07-.1-.15-.16-.22l-.11-.16-.12-.16c-.06-.1-.13-.19-.19-.28l-.09-.12c-.09-.13-.19-.26-.28-.4L38.74,69a.35.35,0,0,0-.05-.08l-.18-.26L38.05,68,38,68l-.13-.19,0,0-.28-.41-.05-.06-.59-.87h0c0-.06-.07-.12-.11-.17h0l-.94-1.4,0,0,0,0c-.16-.24-.32-.48-.47-.72q-.57-.86-1.14-1.74c-.35-.53-.69-1.07-1-1.61h0l-.1-.17c-.57-.9-1.14-1.8-1.7-2.72v0h0c-.72-1.17-1.43-2.36-2.13-3.56v0l-.55-.94,0-.05-.3-.51,0,0c-.19-.32-.37-.64-.55-1,0,0-.05-.1-.08-.14l-.22-.39s0,0,0,0c-.28-.49-.55-1-.82-1.47l-.46-.83-.11-.2L26,48.45c-.09-.18-.19-.36-.29-.54l0-.06,0-.06h0c-.12-.22-.24-.44-.35-.66a.31.31,0,0,1-.05-.1,2.69,2.69,0,0,1-.16-.29c-.07-.13-.14-.25-.2-.38a1.19,1.19,0,0,1-.08-.16A1.09,1.09,0,0,1,24.7,46h0l-.27-.51-.14-.26L24,44.72c0-.08-.08-.16-.13-.24s-.09-.2-.14-.29l-.15-.28c0-.08-.08-.16-.12-.24l-.06-.12-.09-.17c-.07-.16-.15-.31-.23-.46L23,42.79l-.21-.41-.12-.25L22.61,42c-.05-.11-.11-.22-.16-.34l-.12-.23c0-.07-.07-.14-.1-.2s-.11-.23-.16-.34a2.4,2.4,0,0,1-.11-.23c-.06-.11-.11-.22-.17-.34h0c-.06-.12-.11-.24-.17-.35l0-.07-.16-.34-.06-.12-.07-.16-.08-.15-.15-.33L21,38.6c0-.09-.09-.18-.13-.28a.08.08,0,0,1,0,0c-.05-.09-.09-.19-.14-.28a.77.77,0,0,0-.07-.16,133.59,133.59,0,0,1-5.31-13.22v0a.56.56,0,0,1,0-.12c-.06-.16-.11-.32-.16-.48a1.59,1.59,0,0,0-.07-.2v-.05L15,23.49s0-.11,0-.16v0l0-.07c-.06-.18-.11-.35-.17-.52l-.05-.17,0-.14-.1-.31a1.21,1.21,0,0,1,0-.18c-.05-.15-.09-.29-.13-.44a.75.75,0,0,1,0-.16c-.06-.19-.11-.39-.17-.58l0-.08c0-.17-.1-.33-.14-.49L13.92,20c0-.13-.07-.26-.11-.39s0-.14-.05-.21-.09-.34-.14-.51a.29.29,0,0,0,0-.09c0-.07,0-.13,0-.2l0-.08c0-.07,0-.13,0-.19a.44.44,0,0,1,0-.1c-.05-.17-.09-.34-.13-.51l0-.14a.94.94,0,0,0,0-.16l0-.12a2,2,0,0,0-.05-.24v0l-.06-.29a.94.94,0,0,0,0-.16.06.06,0,0,0,0,0,.36.36,0,0,0,0-.11s0-.07,0-.1L13,16a.44.44,0,0,1,0-.1l0-.1c0-.11-.05-.21-.07-.32a.36.36,0,0,0,0-.1s0-.06,0-.09v-.08c0-.18-.07-.35-.1-.52h0s0,0,0-.06,0-.26-.07-.39v0s0-.07,0-.1h0c0-.16,0-.33-.08-.49-.9-5.74-.42-10,1.55-12.07h0l0,0,.28-.27L14.69,1h0l.16-.12h0l0,0h0l0,0L2.92,8.33l-.07,0,0,0-.19.12,0,0h0l-.1.08,0,0-.32.28h0l0,0L2,9.11H2l0,0H2C0,11.26-.46,15.47.44,21.18c0,.16,0,.33.08.49s0,.07,0,.1l.09.48s0,.07,0,.1c.07.34.13.68.2,1l0,.1c0,.17.07.34.11.52v.06l.12.53v0l.12.55,0,.09c.05.18.09.36.14.55v0c0,.19.09.38.14.57v0l.12.44,0,.11c0,.05,0,.1,0,.15l.12.44c0,.05,0,.11,0,.16l.14.5a.19.19,0,0,1,0,.08c.06.19.12.39.17.58a1.42,1.42,0,0,1,0,.16c.05.15.09.29.13.44l.06.18c0,.15.09.29.13.44l.06.18c.06.2.12.4.19.59a1.21,1.21,0,0,0,0,.18.49.49,0,0,0,0,.11l.06.2c.09.26.17.52.26.79,0,.1.07.19.1.29l.18.54c0,.09.07.18.1.27s.12.36.19.54.07.22.11.32.13.35.19.52l0,.09a2.77,2.77,0,0,0,.1.26c0,.15.11.3.16.46a3.62,3.62,0,0,1,.13.35l.18.46c0,.13.1.25.14.38s.11.29.17.43l.15.39.18.45,0,.11c0,.11.09.22.13.32s.09.24.14.35l.2.5c0,.1.08.21.13.31s.16.4.25.6l.08.21c.09.2.18.41.26.62l.09.19h0c.41,1,.83,1.93,1.28,2.92h0v0l.24.52c.08.18.17.37.25.56s.13.27.19.41l.13.28c.08.16.15.33.23.49l.15.32a2.92,2.92,0,0,1,.14.31l.06.12.17.34c.06.14.13.28.2.42l.16.35.22.44c.05.1.1.21.16.32s.15.32.23.48l.14.27.05.11c.08.16.16.33.25.49l.09.19.38.76.12.22.29.58.12.24.2.37.09.18c0,.08.09.17.13.26l.27.51c.05.1.11.2.16.31l.28.52c0,.09.09.17.13.25l.36.66.07.14,0,0c.1.17.19.35.29.53l.15.27.45.84.71,1.27a2,2,0,0,1,.11.2l.33.57.54,1,.35.6.29.5c.08.15.17.3.26.45l.33.56.57,1,.33.56c.05.08.09.16.14.23l.47.79c.1.15.19.31.28.46.31.49.61,1,.91,1.47l.92,1.47c.1.16.21.32.31.49s.33.51.49.77l.24.36L22.82,71l.19.27c.22.35.45.69.68,1a.43.43,0,0,0,0,.07h0c.32.49.65,1,1,1.45l.12.17c.31.47.63.93,1,1.39a1,1,0,0,1,.08.11l.06.08c.22.34.45.66.68,1l.06.08.63.89.2.28c.18.25.35.5.53.74.06.08.11.16.17.23.23.33.47.65.7,1v0l.2.27.36.49c.08.12.17.23.26.35l.29.4c.11.13.21.27.31.41l.84,1.1.54.7.11.15.43.55.14.18c.17.22.35.44.52.67l.09.11.42.53.21.25.36.46.15.18.5.62.17.21.37.45.18.22.41.49.12.14c.16.2.33.39.5.59l.19.23.33.39c.07.08.14.15.2.23L38,91.16l.07.08.4.45a2.2,2.2,0,0,0,.2.23l.42.47.19.21c.15.18.31.35.46.52l.14.15.6.66h0l.63.66.17.19.46.48.19.2c.19.2.38.39.56.59a.12.12,0,0,1,0,0l.62.63s0,0,.05,0l.24.24c.06.06.12.13.19.19l.38.38.1.1.48.48.15.13.34.33.18.17.3.3.19.17.29.27.21.2.27.25.2.18.11.1.22.21.1.08.43.39.13.11.31.28.14.12.42.36.1.08.33.29.14.11.38.32,0,0h0l.52.43.19.15.34.27.2.16.34.27.18.13.38.29.11.08,0,0,.32.23.16.12.36.26.11.08.94.64h0l.27.18.15.09.27.18.17.11.26.16.17.1.29.18.14.08h0l.41.24.3.16.06,0,.23.12.07,0,.22.11.09.05.18.09,0,0,.06,0,.25.12.09,0,.32.15h0l.28.13.1,0,.24.1.05,0h0l.31.12.06,0,.25.09.08,0,.24.08.07,0,.29.1H60l.23.07.08,0,.26.07h0l.28.07h.08l.21,0h.07l.27.05h0l.23,0h.08l.21,0h.05l.25,0h1.14l.15,0h.06l.26,0H64l.18,0,.08,0,.17,0,.08,0h0l.09,0,.14,0,.11,0,.14-.06.11,0,.13-.06.11,0,.12-.07,0,0,.14-.08,12.08-7.56Z"/>
        <g class="cls-26">
          <path class="cls-27" d="M78.34,89.41h0c0-.33-.11-.67-.17-1,0-.14,0-.28-.08-.42-.07-.37-.14-.74-.22-1.12s-.19-.89-.3-1.34c-.06-.28-.13-.56-.2-.85-.51-2-1.14-4.16-1.89-6.39A1.83,1.83,0,0,1,75.4,78l0-.07s0-.11-.05-.15a1.42,1.42,0,0,1,0-.16,156.89,156.89,0,0,0-11-24.21c-2.4-4.36-4.94-8.61-7.57-12.67h0q-1.92-3-3.9-5.82l-.59-.85-.56-.8L51,32.45c-.35-.49-.71-1-1.07-1.47-.22-.3-.43-.6-.65-.89-.35-.48-.71-.95-1.06-1.42a1.47,1.47,0,0,1-.1-.13l-.52-.68c-.74-1-1.48-1.93-2.23-2.86s-1.31-1.63-2-2.43l-1-1.19-.74-.88q-1.73-2-3.42-3.83h0C32.67,10.62,27.33,6,22.79,3.47h0C22.4,3.25,22,3,21.63,2.85l-.74-.36-.72-.31L19.82,2a9.13,9.13,0,0,0-5.32-.66L14,1.52a4.83,4.83,0,0,0-.86.4L13.08,2,13,2l-.05,0h0l-.15.11h0l-.32.26-.3.29h0c-2,2.12-2.45,6.34-1.55,12.08A61.6,61.6,0,0,0,11.91,21c.07.23.13.47.2.7l.18.62c.05.2.11.4.17.6.16.55.33,1.09.51,1.65,0,0,0,0,0,.06a.36.36,0,0,0,0,.11l0,.11.06.2a1.18,1.18,0,0,1,.07.2,152.62,152.62,0,0,0,11.48,25.6c2.4,4.36,4.94,8.61,7.57,12.67l1.14,1.74c.72,1.1,1.46,2.19,2.19,3.26l0,.07L36.7,70.1l1.16,1.65.57.79c1,1.31,1.91,2.6,2.87,3.85,1.37,1.79,2.75,3.52,4.11,5.18l1.76,2.09c.82,1,1.64,1.88,2.45,2.78.35.39.69.77,1,1.14h0c5.59,6,10.93,10.65,15.47,13.2h0c3,1.7,5.52,2.41,7.5,2.22l.15,0h.06a5.16,5.16,0,0,0,1.46-.42l.06,0,.08,0,.14-.08h0C78.54,100.83,79.41,96.18,78.34,89.41Z"/>
          <path class="cls-28" d="M78.51,89.3h0c-.05-.33-.1-.67-.16-1,0-.14,0-.28-.08-.42-.07-.37-.14-.74-.22-1.12s-.19-.89-.3-1.34l-.21-.85c-.5-2-1.13-4.16-1.88-6.39l-.09-.25s0,0,0-.07l-.06-.16,0-.15a157.71,157.71,0,0,0-11-24.21c-2.4-4.36-5-8.61-7.57-12.67h0c-1.28-2-2.59-3.93-3.9-5.82L52.37,34l-.57-.8-.6-.85-1.07-1.47L49.47,30l-1-1.42a.64.64,0,0,1-.1-.13l-.52-.68c-.75-1-1.49-1.93-2.23-2.86l-2-2.43-1-1.19-.75-.88q-1.71-2-3.41-3.83h0C32.85,10.51,27.5,5.91,23,3.36h0c-.39-.23-.78-.43-1.16-.62l-.74-.36-.73-.31L20,1.93a9.11,9.11,0,0,0-5.32-.66l-.47.14a5.18,5.18,0,0,0-.86.4l-.08.06-.09,0,0,0h0L13,2.07h0a3.88,3.88,0,0,0-.31.26,2.76,2.76,0,0,0-.3.29h0c-2,2.12-2.45,6.34-1.55,12.08a56.41,56.41,0,0,0,1.33,6.12l.19.7.18.62.18.6c.16.54.34,1.09.51,1.65l0,.06,0,.11s0,.08,0,.11l.06.2.06.19A150.51,150.51,0,0,0,24.85,50.7c2.4,4.36,4.94,8.61,7.57,12.67.37.58.75,1.16,1.13,1.74.73,1.1,1.46,2.19,2.2,3.26l0,.07c.36.52.72,1,1.09,1.55s.77,1.1,1.16,1.65l.57.79c1,1.31,1.91,2.6,2.87,3.85q2.06,2.68,4.11,5.18c.59.71,1.17,1.41,1.76,2.09.82,1,1.63,1.88,2.45,2.78.34.39.69.77,1,1.14h0c5.6,6,10.94,10.65,15.47,13.2h0c3,1.7,5.52,2.42,7.5,2.22l.14,0H74a4.65,4.65,0,0,0,1.46-.41l0,0,.09,0,.14-.08h0C78.72,100.72,79.58,96.07,78.51,89.3Z"/>
          <path class="cls-29" d="M78.69,89.19h0c0-.33-.11-.67-.17-1,0-.14,0-.28-.07-.42-.07-.37-.15-.74-.23-1.12s-.19-.89-.29-1.34l-.21-.85c-.5-2-1.14-4.16-1.89-6.39,0-.08,0-.17-.08-.25l0-.07a.75.75,0,0,0,0-.16l0-.15a156.89,156.89,0,0,0-11-24.21c-2.4-4.36-4.94-8.61-7.57-12.67h0q-1.92-3-3.89-5.82l-.59-.85-.57-.8c-.2-.28-.4-.57-.61-.85-.35-.49-.71-1-1.07-1.47-.21-.3-.43-.6-.65-.89-.35-.48-.7-.95-1.06-1.42l-.1-.13c-.17-.23-.34-.46-.52-.68-.74-1-1.48-1.93-2.22-2.86s-1.32-1.63-2-2.43l-1-1.19L42,20.28q-1.72-2-3.41-3.83h0C33,10.4,27.68,5.79,23.15,3.25h0c-.4-.23-.79-.43-1.16-.62s-.5-.25-.75-.36L20.52,2l-.35-.14a9.13,9.13,0,0,0-5.32-.66l-.47.14a5.18,5.18,0,0,0-.86.4l-.08.05-.09.06,0,0h0L13.14,2h0a4.15,4.15,0,0,0-.32.27l-.3.29h0c-2,2.12-2.45,6.33-1.54,12.08a56.41,56.41,0,0,0,1.33,6.12c.06.23.12.47.19.7l.18.62c.06.2.11.4.17.6q.26.81.51,1.65l0,.06,0,.11,0,.11a1.59,1.59,0,0,1,.07.2l.06.19A151.17,151.17,0,0,0,25,50.59C27.42,55,30,59.2,32.59,63.26L33.73,65c.73,1.1,1.46,2.19,2.19,3.26l0,.07,1.08,1.55c.39.56.78,1.1,1.17,1.65l.57.79c1,1.31,1.91,2.6,2.86,3.85C43,78,44.4,79.69,45.77,81.35c.58.71,1.17,1.41,1.75,2.09.82,1,1.64,1.88,2.45,2.78.35.39.69.77,1,1.14h0c5.59,6,10.93,10.65,15.47,13.2h0c3,1.7,5.52,2.42,7.5,2.22l.14,0h.06a5,5,0,0,0,1.47-.41l0,0,.08,0,.15-.08h0C78.9,100.61,79.76,96,78.69,89.19Z"/>
          <path class="cls-30" d="M78.87,89.08h0c-.05-.33-.11-.67-.17-1,0-.14,0-.28-.08-.42-.07-.37-.14-.74-.22-1.12s-.19-.89-.3-1.34c-.06-.28-.13-.57-.2-.85-.51-2-1.14-4.16-1.89-6.39a2.41,2.41,0,0,1-.08-.25l0-.08a.88.88,0,0,1-.05-.15l-.06-.15a155.87,155.87,0,0,0-11-24.22c-2.4-4.35-5-8.6-7.57-12.66h0q-1.92-3-3.9-5.82l-.59-.85-.56-.8-.61-.85-1.07-1.48-.65-.88-1.06-1.42-.1-.13-.52-.68c-.74-1-1.49-1.93-2.23-2.86S44.61,23,44,22.24l-1-1.19-.75-.88q-1.71-2-3.41-3.84h0C33.2,10.29,27.86,5.68,23.32,3.14h0c-.39-.23-.78-.43-1.16-.62l-.74-.36-.72-.31-.35-.14A9.13,9.13,0,0,0,15,1.05l-.47.14a4.83,4.83,0,0,0-.86.4l-.09,0-.08.06,0,0h0l-.16.12h0a4.15,4.15,0,0,0-.32.27l-.3.29h0c-2,2.12-2.45,6.33-1.55,12.07a56,56,0,0,0,1.33,6.13c.07.23.13.47.2.7s.11.41.17.62l.18.6c.16.54.34,1.09.51,1.65l0,.06,0,.11a.49.49,0,0,1,0,.11l.06.2.07.19A150.38,150.38,0,0,0,25.2,50.48c2.4,4.36,4.94,8.6,7.57,12.67l1.13,1.74c.73,1.1,1.46,2.19,2.2,3.26l0,.07,1.08,1.55c.39.55.77,1.1,1.16,1.64l.57.8c1,1.31,1.91,2.6,2.87,3.85q2.06,2.68,4.11,5.18l1.76,2.09c.82,1,1.64,1.88,2.45,2.78.34.39.69.77,1,1.14h0c5.59,6,10.93,10.65,15.47,13.2h0c3,1.7,5.52,2.42,7.5,2.22l.15,0h.06a4.84,4.84,0,0,0,1.46-.41l.06,0a.2.2,0,0,1,.08,0l.14-.08h0C79.07,100.5,79.93,95.85,78.87,89.08Z"/>
          <path class="cls-31" d="M79,89h0c-.05-.33-.1-.67-.17-1,0-.14-.05-.28-.07-.42-.07-.37-.14-.74-.22-1.12s-.19-.89-.3-1.34l-.21-.85c-.5-2-1.13-4.16-1.88-6.39l-.09-.25a.19.19,0,0,1,0-.08L76,77.36a.88.88,0,0,0,0-.15A159.18,159.18,0,0,0,65,53c-2.4-4.35-4.95-8.6-7.57-12.66h0q-1.94-3-3.9-5.81l-.59-.85-.57-.8-.6-.85-1.07-1.48L50,29.65l-1-1.42a1.13,1.13,0,0,1-.1-.13l-.53-.69Q47.21,26,46.1,24.56l-2-2.43-1-1.19-.75-.88q-1.71-2-3.41-3.84h0C33.38,10.18,28,5.57,23.5,3h0c-.4-.23-.78-.43-1.16-.62l-.74-.36-.73-.31-.35-.14A9,9,0,0,0,15.2.94l-.47.14a5.18,5.18,0,0,0-.86.4l-.08.05-.09.06,0,0h0l-.16.12h0L13.13,2a4,4,0,0,0-.29.29h0c-2,2.12-2.46,6.33-1.55,12.07a56,56,0,0,0,1.33,6.13c.06.23.13.46.19.7l.18.62.18.6q.24.81.51,1.65l0,.06,0,.11a.49.49,0,0,0,0,.11l.06.2.06.19A154,154,0,0,0,25.37,50.37C27.77,54.73,30.32,59,33,63c.37.58.75,1.16,1.13,1.74.73,1.1,1.46,2.19,2.2,3.26l0,.07,1.08,1.55,1.17,1.64.57.8q1.43,2,2.87,3.85,2.06,2.68,4.11,5.18c.59.71,1.17,1.4,1.76,2.09.82,1,1.63,1.88,2.44,2.78l1,1.14h0c5.6,6,10.94,10.65,15.47,13.2h0c3,1.7,5.52,2.42,7.5,2.22l.14,0h.07a5,5,0,0,0,1.46-.41l0,0,.08,0,.15-.08h0C79.25,100.39,80.11,95.74,79,89Z"/>
          <path class="cls-32" d="M79.22,88.86h0c0-.33-.11-.67-.17-1,0-.14,0-.28-.08-.42-.06-.37-.14-.75-.22-1.13s-.19-.88-.3-1.33c-.06-.28-.13-.57-.2-.85-.5-2-1.14-4.16-1.89-6.39,0-.09,0-.17-.08-.25l0-.08a.88.88,0,0,0,0-.15.88.88,0,0,1,0-.15,159.32,159.32,0,0,0-11-24.22c-2.4-4.35-4.94-8.6-7.57-12.67h0q-1.92-3-3.89-5.81l-.59-.85-.57-.8c-.2-.29-.4-.57-.61-.85-.35-.5-.71-1-1.07-1.48l-.65-.88c-.35-.48-.7-.95-1.06-1.42A1.13,1.13,0,0,0,49,28l-.52-.69c-.74-1-1.48-1.92-2.23-2.85S45,22.82,44.3,22c-.33-.4-.66-.8-1-1.19s-.49-.59-.74-.88q-1.73-2-3.42-3.84h0c-5.6-6.05-10.94-10.66-15.47-13.2h0c-.4-.23-.79-.43-1.16-.62s-.5-.25-.75-.36-.48-.22-.72-.31l-.35-.14A9,9,0,0,0,15.38.83L14.91,1a5.18,5.18,0,0,0-.86.4l-.09,0-.08.05-.05,0h0l-.15.11,0,0h0a4.15,4.15,0,0,0-.32.27l-.3.29h0c-2,2.12-2.45,6.33-1.55,12.07a58.66,58.66,0,0,0,1.34,6.13c.06.23.12.46.19.7l.18.62c.06.2.11.4.17.6L13.85,24l0,.06a.49.49,0,0,0,0,.11l0,.11a1.59,1.59,0,0,0,.07.2l.06.19A152.33,152.33,0,0,0,25.55,50.26c2.4,4.36,4.95,8.6,7.57,12.67l1.14,1.74c.72,1.1,1.46,2.19,2.19,3.26l0,.07,1.08,1.55,1.17,1.64.57.8c1,1.31,1.91,2.59,2.86,3.85,1.37,1.79,2.75,3.52,4.12,5.18.58.71,1.17,1.4,1.75,2.09.82,1,1.64,1.88,2.45,2.78l1,1.14h0C57.13,93.08,62.47,97.68,67,100.23h0c3,1.7,5.52,2.42,7.49,2.22l.15,0h.06a5.32,5.32,0,0,0,1.47-.41l0,0,.08,0,.15-.07h0C79.43,100.28,80.29,95.63,79.22,88.86Z"/>
          <path class="cls-33" d="M79.4,88.75h0c-.05-.33-.11-.67-.17-1,0-.14,0-.28-.08-.42-.07-.37-.14-.75-.22-1.13s-.19-.88-.3-1.34c-.06-.27-.13-.56-.2-.84-.51-2-1.14-4.16-1.89-6.39l-.09-.25a.24.24,0,0,0,0-.08.88.88,0,0,1-.05-.15L76.32,77a158.74,158.74,0,0,0-11-24.22c-2.4-4.36-5-8.6-7.57-12.67h0q-1.92-3-3.9-5.81c-.19-.29-.39-.57-.59-.85l-.57-.8-.6-.85L51,30.31l-.65-.88L49.3,28a1.13,1.13,0,0,1-.1-.13l-.52-.69c-.74-1-1.49-1.92-2.23-2.85s-1.32-1.64-2-2.43l-1-1.19-.75-.88c-1.14-1.33-2.28-2.62-3.41-3.84h0C33.73,10,28.39,5.35,23.85,2.81h0c-.39-.23-.78-.43-1.16-.62L22,1.83l-.72-.31-.36-.14A9,9,0,0,0,15.55.72l-.46.14a4.57,4.57,0,0,0-.87.4l-.08.05-.08.05L14,1.4h0a.91.91,0,0,1-.16.11v0h0a3.74,3.74,0,0,0-.31.27,2.76,2.76,0,0,0-.3.29h0c-2,2.12-2.45,6.33-1.55,12.07A56,56,0,0,0,13,20.3c.07.23.13.46.2.7s.11.41.17.62l.18.6q.24.81.51,1.65l0,.06,0,.11s0,.07,0,.11l.06.2.07.19A152.33,152.33,0,0,0,25.73,50.15c2.4,4.36,4.94,8.6,7.57,12.67.37.58.75,1.16,1.13,1.74.73,1.1,1.46,2.19,2.2,3.26l0,.06c.35.53.72,1.05,1.08,1.56s.77,1.1,1.16,1.64l.57.79c.95,1.32,1.91,2.6,2.87,3.86q2.05,2.68,4.11,5.18L48.23,83c.82,1,1.63,1.88,2.45,2.78l1,1.14h0c5.6,6.06,10.94,10.66,15.48,13.21h0c3,1.7,5.52,2.42,7.5,2.21h.21a5.25,5.25,0,0,0,1.46-.41l.06,0,.08,0,.14-.07h0C79.6,100.17,80.46,95.52,79.4,88.75Z"/>
          <path class="cls-34" d="M79.57,88.64h0c0-.33-.11-.67-.17-1,0-.14-.05-.28-.07-.42-.07-.37-.14-.75-.22-1.13s-.2-.88-.3-1.34l-.21-.84c-.5-2-1.13-4.16-1.89-6.39a1.83,1.83,0,0,0-.08-.25l0-.08a.88.88,0,0,0,0-.15.88.88,0,0,0,0-.15,160.71,160.71,0,0,0-11-24.22c-2.4-4.36-4.95-8.6-7.57-12.67h0Q56,37,54,34.18l-.59-.85-.57-.8-.6-.85L51.19,30.2l-.66-.89L49.47,27.9a1.13,1.13,0,0,0-.1-.13l-.52-.69q-1.11-1.45-2.22-2.85c-.66-.83-1.32-1.64-2-2.43l-1-1.19-.75-.88c-1.14-1.33-2.28-2.62-3.41-3.84h0C33.9,9.84,28.56,5.24,24,2.7h0c-.4-.22-.78-.43-1.16-.61s-.5-.25-.75-.36-.48-.22-.72-.31l-.35-.14A9,9,0,0,0,15.73.61a3.64,3.64,0,0,0-.47.14,4.48,4.48,0,0,0-.86.4l-.08.05-.09.05-.05,0h0L14,1.4h0l0,0h0l-.32.26-.3.3h0c-2,2.12-2.46,6.33-1.55,12.07a56,56,0,0,0,1.33,6.13c.06.23.13.46.19.7l.18.62.18.6c.16.54.33,1.09.5,1.65l0,.06a.49.49,0,0,1,0,.11.49.49,0,0,0,0,.11l.06.2.06.19A154,154,0,0,0,25.9,50c2.4,4.36,5,8.6,7.57,12.67l1.14,1.74c.73,1.1,1.46,2.19,2.2,3.26l0,.06q.54.8,1.08,1.56L39.1,71l.57.79c.95,1.32,1.91,2.6,2.87,3.86q2.05,2.68,4.11,5.18c.59.71,1.17,1.4,1.76,2.09.82,1,1.63,1.88,2.44,2.78l1,1.14h0C57.48,92.86,62.83,97.46,67.36,100h0c3,1.7,5.52,2.42,7.5,2.21h.2a5.32,5.32,0,0,0,1.47-.41l0,0a.2.2,0,0,0,.08,0l.15-.07h0C79.78,100.06,80.64,95.41,79.57,88.64Z"/>
          <path class="cls-35" d="M79.75,88.53h0c0-.33-.11-.67-.17-1,0-.13,0-.27-.08-.41-.06-.37-.14-.75-.22-1.13s-.19-.88-.3-1.34c-.06-.28-.13-.56-.2-.84-.5-2-1.14-4.16-1.89-6.39,0-.09,0-.17-.08-.25l0-.08,0-.15a.88.88,0,0,1,0-.15,160.86,160.86,0,0,0-11-24.22c-2.4-4.36-4.94-8.6-7.57-12.67h0q-1.92-3-3.89-5.82l-.59-.84-.57-.8c-.2-.29-.41-.57-.61-.85-.35-.5-.71-1-1.07-1.48l-.65-.89c-.35-.47-.7-.95-1.06-1.41l-.1-.13L49,27c-.74-1-1.48-1.92-2.23-2.85s-1.31-1.64-2-2.43c-.33-.4-.66-.8-1-1.19l-.74-.88q-1.73-2-3.42-3.84h0C34.08,9.73,28.74,5.13,24.2,2.58h0c-.39-.22-.78-.43-1.16-.62l-.74-.35c-.24-.11-.48-.22-.72-.31l-.35-.14A9,9,0,0,0,15.91.5a3.64,3.64,0,0,0-.47.14,4.22,4.22,0,0,0-.86.4l-.09.05-.08,0-.05,0h0l-.15.11h0l0,0h0l-.32.26-.3.3h0C11.57,4,11.09,8.21,12,14a58,58,0,0,0,1.34,6.12c.06.24.12.47.19.71l.18.62c.05.2.11.4.17.6q.24.81.51,1.65l0,.06a.49.49,0,0,0,0,.11l0,.11a1.46,1.46,0,0,0,.07.19l.06.2A152.33,152.33,0,0,0,26.08,49.93c2.4,4.35,5,8.6,7.57,12.67l1.14,1.74c.72,1.1,1.46,2.19,2.19,3.26l.05.06q.54.8,1.08,1.56l1.16,1.64c.2.27.38.53.58.79.95,1.32,1.9,2.6,2.86,3.86,1.37,1.79,2.75,3.52,4.12,5.18.58.71,1.17,1.4,1.75,2.08.82,1,1.64,1.89,2.45,2.79l1,1.14h0C57.66,92.75,63,97.35,67.54,99.9h0c3,1.69,5.52,2.42,7.5,2.21h.21a5.15,5.15,0,0,0,1.46-.41l.06,0,.08,0,.14-.07h0C80,100,80.82,95.3,79.75,88.53Z"/>
          <path class="cls-36" d="M79.93,88.42h0c-.06-.34-.11-.67-.17-1,0-.13-.05-.27-.08-.41-.07-.37-.14-.75-.22-1.13s-.19-.88-.3-1.34c-.07-.28-.13-.56-.21-.84-.5-2-1.13-4.16-1.88-6.39L77,77S77,77,77,77a.88.88,0,0,1,0-.15l-.06-.15a160.71,160.71,0,0,0-11-24.22c-2.4-4.36-5-8.6-7.57-12.67h0c-1.28-2-2.59-3.92-3.9-5.82l-.59-.84-.57-.81-.6-.84L51.54,30l-.66-.89-1.05-1.41a1.13,1.13,0,0,1-.1-.13l-.52-.69c-.75-1-1.49-1.92-2.23-2.85s-1.32-1.64-2-2.43l-1-1.19-.75-.88q-1.71-2-3.41-3.84h0C34.26,9.62,28.92,5,24.38,2.47h0C24,2.25,23.6,2,23.22,1.85l-.74-.35-.72-.31-.36-.14A9,9,0,0,0,16.08.39a4.19,4.19,0,0,0-.47.14,4.48,4.48,0,0,0-.86.4l-.08,0L14.59,1a.1.1,0,0,0-.05,0h0l-.16.11h0l0,0h0a3.88,3.88,0,0,0-.31.26,2.83,2.83,0,0,0-.3.3h0c-2,2.11-2.45,6.33-1.55,12.07A55.4,55.4,0,0,0,13.5,20c.06.24.13.47.2.71s.11.41.17.62l.18.6c.16.54.33,1.09.51,1.64l0,.07,0,.11s0,.07,0,.11l.06.19.07.2A152.68,152.68,0,0,0,26.26,49.82c2.4,4.35,4.94,8.6,7.57,12.67.37.58.75,1.16,1.13,1.74.73,1.1,1.46,2.19,2.2,3.26l0,.06c.36.53.72,1,1.09,1.56s.77,1.1,1.16,1.64l.57.79c.95,1.32,1.91,2.6,2.87,3.86,1.37,1.79,2.74,3.52,4.11,5.17.59.72,1.17,1.41,1.76,2.09.82,1,1.63,1.89,2.45,2.79l1,1.14h0c5.6,6.06,10.94,10.66,15.48,13.21h0c3,1.69,5.52,2.42,7.5,2.21h.21a5.25,5.25,0,0,0,1.46-.41l.06,0,.08,0,.14-.07h0C80.13,99.84,81,95.19,79.93,88.42Z"/>
          <path class="cls-37" d="M80.1,88.31h0c0-.34-.11-.67-.17-1,0-.13-.05-.27-.07-.41-.07-.37-.15-.75-.23-1.13s-.19-.88-.29-1.34l-.21-.84c-.5-2-1.13-4.16-1.89-6.39,0-.09,0-.17-.08-.25l0-.08a.88.88,0,0,0,0-.15l0-.15A161.31,161.31,0,0,0,66,52.33c-2.4-4.36-4.94-8.6-7.57-12.67h0c-1.28-2-2.58-3.93-3.89-5.82L54,33l-.57-.81-.61-.84c-.35-.5-.71-1-1.06-1.48L51.06,29c-.35-.47-.7-.95-1.06-1.41a.64.64,0,0,0-.1-.13l-.52-.69q-1.11-1.45-2.22-2.85-1-1.24-2-2.43l-1-1.19-.75-.88q-1.72-2-3.41-3.84h0C34.43,9.51,29.09,4.91,24.56,2.36h0c-.4-.22-.78-.43-1.16-.62l-.75-.35-.72-.32L21.58.94A9,9,0,0,0,16.26.28a3.64,3.64,0,0,0-.47.14,4.48,4.48,0,0,0-.86.4l-.08.05-.09.05,0,0h0l-.16.11h0l0,0h0l-.32.26c-.1.1-.2.19-.3.3h0c-2,2.11-2.45,6.33-1.54,12.07a55.4,55.4,0,0,0,1.33,6.12c.06.24.13.47.19.71l.18.62.18.6c.16.54.33,1.09.5,1.64l0,.07s0,.07,0,.11l0,.11a1.46,1.46,0,0,1,.07.19l.06.2A153.9,153.9,0,0,0,26.43,49.7c2.4,4.36,4.95,8.61,7.57,12.67q.57.89,1.14,1.74c.73,1.11,1.46,2.19,2.2,3.27l0,.06c.36.53.72,1,1.08,1.56l1.17,1.64.57.79c.95,1.32,1.91,2.6,2.86,3.86,1.38,1.79,2.75,3.52,4.12,5.17.58.71,1.17,1.41,1.76,2.09.81,1,1.63,1.89,2.44,2.79l1,1.14h0C58,92.53,63.36,97.13,67.89,99.68h0c3,1.69,5.52,2.42,7.5,2.21h.2a5.32,5.32,0,0,0,1.47-.41l.05,0,.08,0,.15-.07h0C80.31,99.73,81.17,95.08,80.1,88.31Z"/>
          <path class="cls-3" d="M80.28,88.2h0c0-.34-.11-.68-.17-1,0-.14,0-.27-.08-.41-.07-.37-.14-.75-.22-1.13s-.19-.89-.3-1.34c-.06-.28-.13-.56-.2-.85-.51-2-1.14-4.15-1.89-6.39a2.25,2.25,0,0,1-.08-.24l0-.08a2472505640976.91,2472505640976.91,0,0,0-.1-.3,156.53,156.53,0,0,0-11-24.22c-2.4-4.36-4.94-8.6-7.57-12.67h0c-1.28-2-2.58-3.93-3.9-5.82l-.59-.84-.56-.81L53,31.24c-.35-.5-.71-1-1.07-1.48l-.65-.89-1.06-1.41a1.47,1.47,0,0,0-.1-.13l-.52-.69c-.74-1-1.49-1.92-2.23-2.85s-1.31-1.64-2-2.43l-1-1.19-.75-.88q-1.71-2-3.41-3.84h0C34.61,9.4,29.27,4.8,24.73,2.25h0c-.39-.22-.78-.43-1.16-.62l-.74-.35c-.24-.12-.49-.22-.72-.32L21.76.82A9,9,0,0,0,16.44.17,3.64,3.64,0,0,0,16,.31a4.22,4.22,0,0,0-.86.4L15,.76l-.08.05,0,0h0L14.72,1h0l0,0h0l-.32.26q-.15.14-.3.3h0c-2,2.11-2.45,6.33-1.55,12.07a60.4,60.4,0,0,0,1.33,6.12l.2.71c.06.2.11.41.18.62s.11.4.17.6c.16.54.33,1.09.51,1.64l0,.07,0,.11a.36.36,0,0,1,0,.11l.06.19a1.59,1.59,0,0,1,.07.2,152.27,152.27,0,0,0,11.48,25.6C29,54,31.55,58.2,34.18,62.26q.57.89,1.14,1.74c.72,1.11,1.45,2.19,2.19,3.27l.05.06,1.08,1.56c.39.55.77,1.1,1.16,1.64l.57.79c1,1.32,1.91,2.6,2.87,3.85q2.05,2.7,4.11,5.18l1.76,2.09c.82,1,1.64,1.89,2.45,2.79.35.38.69.76,1,1.13h0c5.59,6,10.93,10.66,15.47,13.21h0c3,1.69,5.52,2.41,7.5,2.21h.21a4.85,4.85,0,0,0,1.46-.42l.06,0,.08,0,.14-.07h0C80.48,99.62,81.34,95,80.28,88.2Z"/>
          <path class="cls-37" d="M80.25,88h0c0-.33-.11-.66-.17-1,0-.14,0-.28-.08-.42-.07-.37-.14-.74-.22-1.12s-.19-.88-.3-1.33l-.21-.85c-.5-2-1.14-4.14-1.89-6.36,0-.09,0-.17-.08-.25l0-.08a.88.88,0,0,0,0-.15l0-.15a161.42,161.42,0,0,0-11-24.13c-2.39-4.35-4.93-8.58-7.54-12.63h0c-1.28-2-2.58-3.92-3.89-5.8l-.59-.84-.56-.81-.6-.84c-.36-.49-.71-1-1.07-1.47l-.65-.89L50.21,27.5a1.13,1.13,0,0,0-.1-.13l-.51-.68q-1.11-1.46-2.22-2.85c-.66-.82-1.31-1.63-2-2.42l-1-1.19-.75-.88c-1.14-1.33-2.27-2.61-3.39-3.82h0c-5.57-6-10.89-10.63-15.4-13.18h0l-1.15-.62L23,1.38l-.72-.32L21.92.92A9,9,0,0,0,16.63.26a3.5,3.5,0,0,0-.46.14,4.45,4.45,0,0,0-.86.39l-.08.06L15.15.9l-.05,0h0l-.16.12h0l-.32.26a4.11,4.11,0,0,0-.29.3h0c-1.95,2.1-2.43,6.3-1.52,12a57.66,57.66,0,0,0,1.34,6.1l.19.7.18.62.18.6c.16.54.33,1.09.51,1.64l0,.06,0,.11s0,.07,0,.11l.06.2a1.46,1.46,0,0,0,.07.19A153.14,153.14,0,0,0,26.85,49.49c2.39,4.34,4.93,8.58,7.55,12.63.37.58.75,1.16,1.13,1.73C36.25,65,37,66,37.72,67.1l0,.07,1.08,1.55c.39.55.77,1.1,1.16,1.64l.57.79q1.43,2,2.86,3.84c1.36,1.79,2.73,3.51,4.09,5.16.59.71,1.17,1.41,1.75,2.09.82,1,1.63,1.88,2.44,2.77l1,1.14h0c5.57,6,10.89,10.63,15.4,13.18h0c3,1.69,5.49,2.42,7.45,2.22l.15,0h.06a5.18,5.18,0,0,0,1.45-.41l.06,0,.08,0,.14-.07h0C80.48,99.4,81.32,94.78,80.25,88Z"/>
          <path class="cls-36" d="M80.22,87.87h0c-.06-.33-.11-.66-.17-1,0-.14-.06-.28-.08-.42-.07-.36-.15-.73-.23-1.11s-.19-.88-.3-1.33c-.06-.28-.13-.56-.2-.84-.51-2-1.14-4.13-1.89-6.34l-.09-.25s0,0,0-.07a.88.88,0,0,1,0-.15l-.06-.15a162,162,0,0,0-11-24c-2.39-4.33-4.92-8.55-7.53-12.59h0c-1.27-2-2.57-3.91-3.87-5.79l-.59-.84-.56-.8L53,31.3,52,29.83,51.3,29l-1-1.41a.64.64,0,0,1-.1-.13l-.52-.68c-.73-1-1.47-1.91-2.21-2.84s-1.3-1.62-2-2.41l-1-1.19-.75-.87q-1.69-2-3.38-3.82h0C34.8,9.58,29.51,5,25,2.45h0l-1.15-.62-.74-.35-.71-.32L22.08,1A8.85,8.85,0,0,0,16.83.35a3.5,3.5,0,0,0-.46.14,4.36,4.36,0,0,0-.85.39l-.08.05-.09,0,0,0h0l-.16.11h0l0,0h0l-.32.26-.29.29h0C12.57,3.8,12.11,8,13,13.67a55.33,55.33,0,0,0,1.34,6.07c.06.23.13.46.19.7l.18.61.18.6c.16.54.33,1.08.5,1.63l0,.07a.42.42,0,0,1,0,.1.36.36,0,0,0,0,.11l.06.2.06.19A154.45,154.45,0,0,0,27.08,49.38C29.47,53.71,32,57.93,34.61,62c.38.58.75,1.16,1.13,1.73.72,1.1,1.45,2.18,2.18,3.24L38,67c.35.52.71,1,1.07,1.54s.77,1.1,1.16,1.64l.56.78q1.43,2,2.85,3.84,2,2.67,4.08,5.15L49.43,82c.82,1,1.63,1.88,2.43,2.77l1,1.14h0c5.55,6,10.84,10.61,15.33,13.16h0c3,1.69,5.46,2.42,7.41,2.23l.14,0h.07a4.79,4.79,0,0,0,1.44-.4l0,0,.08,0,.14-.07h0C80.47,99.19,81.3,94.59,80.22,87.87Z"/>
          <path class="cls-38" d="M80.19,87.71h0c-.06-.33-.11-.66-.18-1,0-.14-.05-.27-.07-.41-.07-.37-.15-.74-.23-1.11s-.19-.88-.3-1.33L79.2,83c-.5-2-1.14-4.11-1.89-6.32,0-.08,0-.16-.08-.25l0-.07,0-.15a.88.88,0,0,1-.05-.15,162.84,162.84,0,0,0-11-24c-2.38-4.31-4.9-8.52-7.5-12.54h0c-1.27-2-2.56-3.9-3.86-5.77L54.19,33l-.56-.8-.6-.83c-.35-.5-.7-1-1.05-1.47L51.33,29l-1-1.4a1.13,1.13,0,0,0-.1-.13l-.51-.68c-.73-1-1.47-1.91-2.2-2.83s-1.3-1.62-1.95-2.41l-1-1.18c-.24-.3-.49-.59-.74-.88q-1.7-2-3.37-3.8h0C34.9,9.67,29.64,5.1,25.17,2.55h0c-.39-.22-.77-.43-1.14-.61s-.49-.25-.73-.36-.48-.22-.71-.31l-.35-.14A8.81,8.81,0,0,0,17,.44a3.5,3.5,0,0,0-.46.14,4,4,0,0,0-.84.39L15.64,1l-.08.05,0,0h0l-.16.1h0l0,0h0A3.88,3.88,0,0,0,15,1.5a4,4,0,0,0-.29.29h0C12.8,3.86,12.35,8,13.28,13.69a57.45,57.45,0,0,0,1.34,6c.07.23.13.46.2.69l.18.62c.05.19.11.39.17.59.17.54.33,1.08.51,1.63l0,.06a.49.49,0,0,0,0,.11l0,.11a1.46,1.46,0,0,0,.07.19l.06.2A153.93,153.93,0,0,0,27.32,49.27c2.38,4.32,4.91,8.53,7.51,12.55L36,63.55c.72,1.09,1.45,2.17,2.18,3.23l0,.07,1.07,1.54L40.39,70l.57.78c.94,1.3,1.89,2.58,2.83,3.82q2,2.67,4.07,5.14.87,1,1.74,2.07c.81,1,1.61,1.87,2.41,2.76l1,1.13h0c5.52,6,10.79,10.59,15.25,13.13h0c3,1.69,5.42,2.42,7.36,2.23h.21a4.81,4.81,0,0,0,1.43-.4l0,0,.08,0,.14-.07h0C80.46,99,81.28,94.4,80.19,87.71Z"/>
          <path class="cls-34" d="M80.15,87.55h0l-.18-1c0-.13,0-.27-.08-.41-.07-.36-.14-.73-.22-1.1l-.3-1.32-.21-.84c-.51-2-1.14-4.09-1.9-6.29a2.25,2.25,0,0,0-.08-.24l0-.08a6181264102428.7,6181264102428.7,0,0,1-.1-.3A163,163,0,0,0,66.12,52.09c-2.37-4.3-4.89-8.49-7.48-12.51h0c-1.26-2-2.55-3.88-3.84-5.74L54.22,33l-.57-.79c-.19-.29-.39-.56-.59-.84-.35-.49-.7-1-1.06-1.46-.21-.3-.43-.59-.64-.88-.35-.47-.69-.94-1-1.4a.64.64,0,0,1-.1-.13l-.51-.68c-.74-1-1.47-1.9-2.2-2.82s-1.29-1.62-1.94-2.4l-1-1.18-.74-.87q-1.68-2-3.35-3.8h0C35,9.76,29.76,5.2,25.32,2.65h0L24.19,2l-.73-.36c-.24-.11-.48-.22-.71-.31l-.34-.14a8.85,8.85,0,0,0-5.19-.7,3.36,3.36,0,0,0-.45.14,4.58,4.58,0,0,0-.84.38l-.08.05-.08,0,0,0h0a.91.91,0,0,0-.16.11h0l-.31.25a4,4,0,0,0-.29.29h0c-1.9,2.06-2.33,6.2-1.4,11.84a56.77,56.77,0,0,0,1.35,6c.06.23.13.46.2.69s.11.41.17.61l.18.59q.24.81.51,1.62l0,.07,0,.1a.76.76,0,0,1,0,.11l.06.2a1.07,1.07,0,0,1,.07.19,154,154,0,0,0,11.4,25.25c2.38,4.3,4.89,8.49,7.48,12.51.38.57.75,1.15,1.12,1.72.72,1.08,1.44,2.16,2.17,3.22l.05.06c.35.52.71,1,1.06,1.54l1.15,1.62.56.79c.94,1.3,1.89,2.57,2.83,3.81Q46,77.1,48,79.56c.58.7,1.15,1.39,1.73,2.07.8.94,1.61,1.86,2.4,2.75l1,1.13h0c5.5,6,10.74,10.56,15.18,13.1h0c2.94,1.69,5.4,2.43,7.32,2.24h.2a5,5,0,0,0,1.43-.39l.05,0,.08,0,.14-.08h0C80.45,98.77,81.25,94.21,80.15,87.55Z"/>
          <path class="cls-33" d="M80.12,87.39h0c-.05-.33-.11-.66-.17-1,0-.14,0-.28-.08-.41-.07-.37-.14-.73-.23-1.1s-.19-.87-.3-1.32c-.06-.27-.14-.55-.21-.83-.51-2-1.14-4.08-1.89-6.27l-.09-.24,0-.07a.88.88,0,0,1,0-.15L77,75.86a162.56,162.56,0,0,0-10.91-23.8c-2.37-4.29-4.88-8.47-7.46-12.47h0c-1.26-2-2.54-3.87-3.83-5.73L54.24,33l-.56-.79-.6-.84L52,30c-.21-.3-.43-.59-.64-.88l-1-1.39a.64.64,0,0,0-.1-.13l-.51-.68c-.73-1-1.45-1.9-2.18-2.81s-1.29-1.62-1.94-2.4c-.32-.4-.65-.79-1-1.18s-.49-.58-.74-.86c-1.12-1.32-2.23-2.59-3.34-3.79h0c-5.47-6-10.69-10.54-15.1-13.07h0l-1.13-.61-.73-.36c-.23-.11-.47-.22-.7-.31l-.34-.14A8.73,8.73,0,0,0,17.42.62,3,3,0,0,0,17,.76a4.16,4.16,0,0,0-.83.38l-.08.05L16,1.24l-.05,0h0l-.15.1h0l0,0h0l-.31.25a3.83,3.83,0,0,0-.28.29h0C13.27,4,12.84,8.11,13.78,13.73a57.2,57.2,0,0,0,1.36,6c.06.22.13.45.19.69l.18.6.18.59q.24.79.51,1.62l0,.06,0,.11s0,.07,0,.11l.06.19.07.19A153.66,153.66,0,0,0,27.8,49.06c2.37,4.29,4.88,8.47,7.46,12.47.37.58.74,1.15,1.12,1.71.71,1.09,1.43,2.16,2.16,3.22l0,.06c.35.52.71,1,1.06,1.53s.77,1.09,1.15,1.62l.56.78q1.4,2,2.81,3.8c1.35,1.77,2.7,3.48,4,5.11.57.7,1.15,1.39,1.72,2.06.8,1,1.6,1.86,2.4,2.75l1,1.12h0c5.48,6,10.7,10.54,15.11,13.08h0c2.92,1.69,5.36,2.43,7.27,2.25h.2a4.89,4.89,0,0,0,1.41-.39l.06,0,.07,0,.14-.07h0C80.45,98.56,81.23,94,80.12,87.39Z"/>
          <path class="cls-32" d="M80.09,87.23h0c0-.33-.11-.66-.17-1,0-.14,0-.27-.08-.41-.07-.36-.15-.73-.23-1.1s-.19-.86-.3-1.3l-.21-.83c-.51-2-1.15-4.06-1.9-6.24,0-.09,0-.17-.08-.25l0-.07c0-.05,0-.1,0-.15a.88.88,0,0,1-.05-.15A163.93,163.93,0,0,0,66.09,52c-2.36-4.27-4.86-8.44-7.44-12.43h0c-1.26-2-2.53-3.86-3.82-5.71l-.57-.83-.56-.79-.59-.84-1-1.45-.64-.87c-.34-.47-.69-.93-1-1.39a1.13,1.13,0,0,1-.1-.13l-.51-.67c-.73-1-1.45-1.89-2.18-2.81s-1.28-1.61-1.92-2.39c-.33-.39-.65-.79-1-1.17L44,19.68c-1.11-1.31-2.23-2.57-3.33-3.78h0c-5.46-6-10.65-10.52-15-13h0c-.38-.22-.75-.42-1.12-.61S24,2,23.77,1.88s-.47-.22-.7-.31l-.34-.14A8.61,8.61,0,0,0,17.62.72c-.16,0-.31.08-.45.12a4.39,4.39,0,0,0-.82.38l-.08.05-.08.05a.1.1,0,0,0-.05,0h0L16,1.47h0a3.88,3.88,0,0,0-.31.26,3.7,3.7,0,0,0-.28.28h0c-1.86,2-2.27,6.13-1.33,11.73a58.61,58.61,0,0,0,1.36,6c.07.23.13.46.2.69l.18.61c.06.19.11.39.17.58l.51,1.61,0,.07a.42.42,0,0,1,0,.1.49.49,0,0,0,0,.11l.06.19.06.19A154.3,154.3,0,0,0,28,49c2.36,4.28,4.86,8.44,7.43,12.43.37.58.75,1.15,1.12,1.71.71,1.08,1.43,2.15,2.15,3.21l0,.06,1.06,1.53c.37.54.75,1.08,1.14,1.61l.55.78c.94,1.29,1.87,2.55,2.81,3.79q2,2.64,4,5.09c.57.7,1.14,1.39,1.71,2.06.8.94,1.6,1.85,2.39,2.74l1,1.12h0c5.45,6,10.64,10.51,15,13h0c2.91,1.69,5.33,2.43,7.23,2.26l.14,0H76a4.53,4.53,0,0,0,1.4-.39l.05,0,.08,0,.14-.07h0C80.44,98.34,81.21,93.83,80.09,87.23Z"/>
          <path class="cls-31" d="M80.06,87.07h0c0-.32-.11-.65-.17-1,0-.13-.06-.27-.08-.4-.07-.36-.15-.73-.23-1.1s-.2-.86-.31-1.3c-.06-.27-.13-.55-.21-.82-.51-2-1.14-4-1.9-6.22a2.25,2.25,0,0,0-.08-.24l0-.08L77,75.77a.78.78,0,0,0,0-.14A162.6,162.6,0,0,0,66.07,52c-2.35-4.26-4.85-8.42-7.41-12.39h0q-1.89-2.93-3.81-5.7l-.57-.83-.56-.78c-.19-.28-.39-.56-.59-.83l-1-1.45-.64-.87c-.34-.47-.68-.93-1-1.39l-.1-.13-.5-.67-2.17-2.8c-.64-.81-1.28-1.6-1.92-2.38l-1-1.17L44,19.75c-1.11-1.31-2.22-2.57-3.31-3.77h0c-5.43-6-10.6-10.49-15-13h0c-.38-.23-.75-.43-1.12-.62L23.93,2l-.69-.31-.34-.14A8.64,8.64,0,0,0,17.81.81c-.15,0-.3.08-.44.12a4.71,4.71,0,0,0-.82.38l-.08.05-.08,0,0,0h0l-.15.1h0l0,0h0a2.48,2.48,0,0,0-.3.25,3.7,3.7,0,0,0-.28.28h0c-1.85,2-2.24,6.1-1.29,11.67a53.41,53.41,0,0,0,1.36,6c.06.23.13.46.2.69s.11.4.17.6l.18.59c.17.52.33,1.06.51,1.6l0,.06,0,.11,0,.1a1.07,1.07,0,0,0,.07.19l.06.2a155.46,155.46,0,0,0,11.34,25c2.36,4.26,4.85,8.41,7.42,12.39l1.11,1.7c.71,1.08,1.43,2.14,2.15,3.19l0,.07c.35.51.7,1,1.06,1.52s.75,1.08,1.13,1.61l.56.78q1.4,1.92,2.79,3.77c1.34,1.76,2.67,3.46,4,5.08.57.7,1.14,1.38,1.7,2.05.8.94,1.59,1.85,2.38,2.74l1,1.12h0c5.43,6,10.59,10.49,15,13h0c2.9,1.69,5.31,2.44,7.19,2.26H76a4.45,4.45,0,0,0,1.39-.37l0,0,.08,0,.13-.07h0C80.43,98.13,81.18,93.64,80.06,87.07Z"/>
          <path class="cls-39" d="M80,86.9h0c0-.32-.11-.65-.18-1,0-.13,0-.26-.08-.4-.07-.36-.14-.72-.23-1.09s-.19-.86-.3-1.3L79,82.31c-.51-2-1.15-4-1.9-6.19a2.25,2.25,0,0,1-.08-.24l0-.08a.58.58,0,0,1,0-.14l-.06-.15A163.69,163.69,0,0,0,66.06,52c-2.35-4.25-4.84-8.39-7.4-12.35h0c-1.25-1.94-2.51-3.84-3.79-5.68l-.57-.83-.56-.78-.58-.83-1-1.44-.64-.87c-.34-.47-.68-.93-1-1.38l-.09-.13L49.85,27q-1.08-1.43-2.16-2.79c-.63-.81-1.27-1.6-1.91-2.38l-1-1.17-.73-.86c-1.11-1.3-2.21-2.56-3.3-3.76h0c-5.4-5.94-10.54-10.47-14.88-13h0c-.38-.23-.75-.43-1.11-.62l-.71-.36-.69-.31-.34-.14A8.46,8.46,0,0,0,18,.9c-.15,0-.3.08-.44.12a4.3,4.3,0,0,0-.81.38l-.08.05-.08,0,0,0h0l-.15.11h0a3.61,3.61,0,0,0-.3.25l-.28.28h0C14,4.2,13.58,8.25,14.54,13.8a55.62,55.62,0,0,0,1.37,5.93c.06.23.13.45.19.68l.18.6.18.59q.24.78.51,1.59l0,.06,0,.11a.49.49,0,0,1,0,.11l.06.19.07.19A154.62,154.62,0,0,0,28.51,48.74c2.35,4.24,4.84,8.39,7.4,12.35.36.57.73,1.14,1.1,1.7.71,1.07,1.42,2.14,2.14,3.18l0,.07,1.06,1.52,1.13,1.6.55.77c.93,1.29,1.86,2.54,2.79,3.77q2,2.63,4,5.06c.57.7,1.14,1.38,1.71,2,.79.94,1.58,1.84,2.36,2.73.34.37.67.75,1,1.11h0c5.4,5.93,10.54,10.47,14.88,13h0c2.87,1.69,5.27,2.44,7.14,2.27H76a4.39,4.39,0,0,0,1.38-.37l0,0,.07,0,.14-.07h0C80.43,97.92,81.16,93.45,80,86.9Z"/>
          <path class="cls-29" d="M80,86.74h0c0-.32-.11-.64-.18-1,0-.14,0-.27-.08-.41-.07-.35-.15-.71-.23-1.08s-.2-.85-.31-1.29c-.06-.27-.13-.54-.21-.82-.51-2-1.15-4-1.9-6.17,0-.08,0-.16-.08-.24l0-.07a.88.88,0,0,0,0-.15c0-.05,0-.1-.05-.15A164.59,164.59,0,0,0,66,51.93c-2.34-4.23-4.82-8.35-7.37-12.31h0Q56.8,36.72,54.89,34l-.57-.82-.55-.78-.59-.83-1-1.44-.63-.86-1-1.38-.1-.13-.5-.67-2.15-2.78c-.64-.8-1.27-1.59-1.91-2.37l-1-1.16-.72-.86c-1.1-1.3-2.2-2.56-3.28-3.75h0c-5.38-5.92-10.5-10.44-14.82-13h0c-.37-.23-.74-.43-1.1-.62s-.47-.25-.71-.36l-.68-.31-.34-.14a8.42,8.42,0,0,0-5-.74l-.44.12a4.18,4.18,0,0,0-.8.37l-.08.05-.08.05,0,0h0l-.15.1h0l0,0h0l-.3.24L16,2.27h0c-1.81,2-2.18,6-1.22,11.56a58.34,58.34,0,0,0,1.37,5.9l.2.68.18.6.18.58q.24.78.51,1.59l0,.06,0,.1s0,.07,0,.11l.06.19.07.19a154.76,154.76,0,0,0,11.3,24.8c2.34,4.23,4.82,8.36,7.37,12.31l1.1,1.7c.71,1.07,1.42,2.13,2.14,3.17l0,.06,1.05,1.52c.37.54.75,1.07,1.13,1.6l.55.77C43.05,71,44,72.29,44.9,73.51q2,2.63,4,5.06c.57.69,1.13,1.37,1.7,2,.79.93,1.57,1.84,2.35,2.71l1,1.12h0c5.38,5.92,10.5,10.44,14.82,13h0c2.86,1.69,5.24,2.44,7.1,2.28H76a4.4,4.4,0,0,0,1.37-.37l0,0,.07,0,.14-.06h0C80.42,97.71,81.14,93.26,80,86.74Z"/>
          <path class="cls-28" d="M80,86.58h0l-.18-1c0-.13-.05-.27-.08-.4-.07-.36-.15-.72-.23-1.08s-.2-.85-.31-1.29L79,82c-.51-1.94-1.15-4-1.9-6.15L77,75.64l0-.07-.06-.15a1.21,1.21,0,0,0,0-.14A164.34,164.34,0,0,0,66,51.9c-2.34-4.21-4.81-8.33-7.35-12.27h0c-1.24-1.92-2.5-3.81-3.76-5.64l-.57-.82-.55-.78-.59-.82c-.34-.49-.68-1-1-1.44l-.63-.86-1-1.38-.09-.12-.51-.67c-.71-.94-1.42-1.87-2.14-2.78S46.52,22.73,45.89,22l-1-1.16-.72-.86c-1.1-1.3-2.19-2.54-3.27-3.74h0C35.58,10.3,30.49,5.79,26.2,3.26h0c-.37-.23-.74-.43-1.1-.62s-.47-.25-.7-.36L23.72,2l-.33-.14a8.46,8.46,0,0,0-5-.75L18,1.2a4.48,4.48,0,0,0-.8.37l-.08.05-.07,0L17,1.7h0l-.15.1h0l0,0h0l-.3.24-.27.28h0c-1.79,2-2.15,6-1.18,11.5a57.6,57.6,0,0,0,1.38,5.88c.06.22.13.45.2.67s.11.4.18.6.11.39.17.58l.51,1.58,0,.06,0,.11,0,.1c0,.07.05.13.07.19l.06.19A156.31,156.31,0,0,0,29,48.53c2.34,4.21,4.81,8.33,7.35,12.27.36.56.73,1.13,1.1,1.68.7,1.07,1.41,2.13,2.12,3.17l0,.06,1,1.51c.37.54.75,1.07,1.12,1.6.19.25.37.51.55.77q1.38,1.91,2.77,3.74,2,2.61,3.95,5c.57.69,1.13,1.37,1.69,2,.79.93,1.57,1.84,2.35,2.71q.49.57,1,1.11h0c5.36,5.91,10.45,10.42,14.74,13h0c2.84,1.68,5.21,2.43,7.05,2.28l.14,0h.06a4.21,4.21,0,0,0,1.35-.37l0,0,.08,0,.13-.07h0C80.41,97.5,81.11,93.07,80,86.58Z"/>
          <path class="cls-27" d="M79.94,86.42h0l-.18-1c0-.13-.05-.26-.08-.4-.07-.35-.15-.71-.24-1.07s-.19-.85-.3-1.28c-.07-.27-.14-.54-.22-.81-.51-1.94-1.15-4-1.9-6.13a2.09,2.09,0,0,1-.08-.23l0-.08s0-.09,0-.14a.88.88,0,0,1,0-.15A161.33,161.33,0,0,0,66,51.87c-2.34-4.2-4.8-8.3-7.33-12.23h0Q56.82,36.76,54.92,34l-.56-.81-.55-.78c-.19-.28-.39-.55-.58-.82l-1-1.43-.63-.86c-.34-.46-.67-.92-1-1.37l-.1-.13-.5-.66c-.71-.95-1.42-1.87-2.13-2.77S46.57,22.79,45.94,22c-.32-.39-.64-.77-.95-1.16L44.27,20Q42.64,18.06,41,16.28h0C35.68,10.39,30.61,5.89,26.35,3.36h0l-1.09-.62-.7-.36-.68-.31-.33-.14a8.34,8.34,0,0,0-4.95-.76l-.43.12a4.38,4.38,0,0,0-.79.37l-.08,0-.07.05-.05,0h0l-.15.1h0a3.47,3.47,0,0,0-.29.25,1.72,1.72,0,0,0-.27.27h0c-1.77,2-2.12,6-1.15,11.44a58.12,58.12,0,0,0,1.39,5.86c.06.22.13.44.19.67l.18.59.18.58c.16.52.33,1.05.51,1.58a.14.14,0,0,1,0,.06l0,.1,0,.11c0,.06,0,.12.07.19l.06.18A155.56,155.56,0,0,0,29.23,48.42c2.33,4.2,4.79,8.3,7.32,12.23l1.1,1.68c.7,1.07,1.41,2.12,2.12,3.16l0,.06c.34.51.69,1,1,1.51L42,68.64l.55.77c.91,1.27,1.83,2.52,2.75,3.73,1.31,1.74,2.63,3.42,3.94,5,.56.69,1.12,1.36,1.68,2q1.17,1.39,2.34,2.7l1,1.11h0c5.33,5.89,10.4,10.39,14.67,12.93h0c2.83,1.68,5.18,2.42,7,2.28h.19a4.79,4.79,0,0,0,1.35-.36l0,0,.08,0,.13-.07h0C80.41,97.28,81.09,92.88,79.94,86.42Z"/>
        </g>
        <g class="cls-40">
          <path class="cls-3" d="M80.28,88.2h0c0-.34-.11-.68-.17-1,0-.14,0-.27-.08-.41-.07-.37-.14-.75-.22-1.13s-.19-.89-.3-1.34c-.06-.28-.13-.56-.2-.85-.51-2-1.14-4.15-1.89-6.39a2.25,2.25,0,0,1-.08-.24l0-.08a2472505640976.91,2472505640976.91,0,0,0-.1-.3,156.53,156.53,0,0,0-11-24.22c-2.4-4.36-4.94-8.6-7.57-12.67h0c-1.28-2-2.58-3.93-3.9-5.82l-.59-.84-.56-.81L53,31.24c-.35-.5-.71-1-1.07-1.48l-.65-.89-1.06-1.41a1.47,1.47,0,0,0-.1-.13l-.52-.69c-.74-1-1.49-1.92-2.23-2.85s-1.31-1.64-2-2.43l-1-1.19-.75-.88q-1.71-2-3.41-3.84h0C34.61,9.4,29.27,4.8,24.73,2.25h0c-.39-.22-.78-.43-1.16-.62l-.74-.35c-.24-.12-.49-.22-.72-.32L21.76.82A9,9,0,0,0,16.44.17,3.64,3.64,0,0,0,16,.31a4.22,4.22,0,0,0-.86.4L15,.76l-.08.05,0,0h0L14.72,1h0l0,0h0l-.32.26q-.15.14-.3.3h0c-2,2.11-2.45,6.33-1.55,12.07a60.4,60.4,0,0,0,1.33,6.12l.2.71c.06.2.11.41.18.62s.11.4.17.6c.16.54.33,1.09.51,1.64l0,.07,0,.11a.36.36,0,0,1,0,.11l.06.19a1.59,1.59,0,0,1,.07.2,152.27,152.27,0,0,0,11.48,25.6C29,54,31.55,58.2,34.18,62.26q.57.89,1.14,1.74c.72,1.11,1.45,2.19,2.19,3.27l.05.06,1.08,1.56c.39.55.77,1.1,1.16,1.64l.57.79c1,1.32,1.91,2.6,2.87,3.85q2.05,2.7,4.11,5.18l1.76,2.09c.82,1,1.64,1.89,2.45,2.79.35.38.69.76,1,1.13h0c5.59,6,10.93,10.66,15.47,13.21h0c3,1.69,5.52,2.41,7.5,2.21h.21a4.85,4.85,0,0,0,1.46-.42l.06,0,.08,0,.14-.07h0C80.48,99.62,81.34,95,80.28,88.2Z"/>
          <path class="cls-37" d="M80.13,88.29h0c0-.33-.11-.67-.17-1,0-.14,0-.28-.08-.42-.07-.37-.14-.74-.22-1.12l-.3-1.34-.21-.85c-.51-2-1.14-4.15-1.9-6.38,0-.08,0-.16-.08-.25l0-.07s0-.11,0-.16a.88.88,0,0,1,0-.15,164,164,0,0,0-11-24.2c-2.4-4.36-5-8.6-7.57-12.67h0c-1.28-2-2.58-3.93-3.9-5.82L53.94,33l-.56-.81-.61-.84c-.35-.5-.71-1-1.07-1.48L51.05,29c-.35-.47-.7-.95-1.06-1.41l-.1-.14-.52-.68c-.74-1-1.48-1.92-2.22-2.86l-2-2.43-1-1.19-.75-.88c-1.14-1.33-2.28-2.62-3.4-3.84h0C34.44,9.51,29.11,4.9,24.59,2.34h0l-1.15-.62-.74-.36L22,1.05,21.63.91a9,9,0,0,0-5.3-.68l-.47.14a5.08,5.08,0,0,0-.85.4l-.08,0-.09.05-.05,0h0L14.63,1h0l0,0h0a3.88,3.88,0,0,0-.31.26,4.11,4.11,0,0,0-.3.29h0c-2,2.11-2.42,6.32-1.5,12.05a58.36,58.36,0,0,0,1.34,6.11l.2.71c.06.2.11.41.18.61s.11.4.17.6c.17.55.33,1.09.51,1.65l0,.06a.76.76,0,0,1,0,.11.49.49,0,0,0,0,.11l.06.2.06.19A154.66,154.66,0,0,0,26.61,49.6C29,54,31.55,58.2,34.18,62.26c.38.59.75,1.17,1.13,1.74.73,1.11,1.46,2.19,2.2,3.27l.05.06c.36.53.72,1,1.08,1.56s.77,1.1,1.16,1.64l.57.79c1,1.32,1.91,2.6,2.87,3.86q2.05,2.68,4.11,5.18c.58.71,1.17,1.41,1.75,2.09.82,1,1.63,1.89,2.44,2.78l1,1.15h0C58.16,92.43,63.49,97,68,99.6h0c3,1.7,5.5,2.43,7.47,2.23h.21a4.86,4.86,0,0,0,1.45-.41l.06,0,.08,0,.14-.07h0C80.37,99.69,81.21,95.05,80.13,88.29Z"/>
          <path class="cls-36" d="M80,88.38h0c0-.33-.11-.67-.17-1,0-.14,0-.27-.08-.41-.07-.37-.15-.75-.23-1.13s-.19-.88-.3-1.33L79,83.65c-.51-2-1.15-4.15-1.91-6.37,0-.09,0-.17-.08-.25L77,77l0-.15a.88.88,0,0,1,0-.15A165.26,165.26,0,0,0,65.81,52.46c-2.4-4.36-5-8.6-7.57-12.67h0c-1.28-2-2.58-3.93-3.89-5.82l-.59-.84-.57-.81-.6-.84c-.35-.5-.71-1-1.07-1.48-.22-.3-.43-.6-.65-.89-.35-.48-.7-.95-1.06-1.42l-.1-.13c-.17-.23-.34-.46-.52-.68C48.44,25.9,47.7,25,47,24s-1.31-1.64-2-2.43l-1-1.2-.75-.88c-1.14-1.33-2.27-2.62-3.4-3.84h0C34.28,9.61,29,5,24.45,2.43h0c-.39-.23-.77-.43-1.15-.63l-.74-.36-.71-.31L21.5,1A9,9,0,0,0,16.22.3l-.46.13a5.08,5.08,0,0,0-.85.4l-.08.05-.08.05L14.7,1h0l-.15.11h0l0,0h0l-.32.26c-.1.09-.19.19-.29.29h0C12,3.76,11.5,8,12.43,13.68a58.56,58.56,0,0,0,1.36,6.1c.06.24.13.47.2.7l.18.62q.08.3.18.6.24.81.51,1.65l0,.06,0,.11a.49.49,0,0,1,0,.11l.06.19c0,.07.05.14.07.2A155,155,0,0,0,26.6,49.6C29,54,31.55,58.2,34.18,62.26c.38.59.75,1.17,1.13,1.74.73,1.11,1.46,2.2,2.2,3.27l0,.06c.36.53.72,1,1.09,1.56s.77,1.1,1.16,1.64l.57.8c1,1.31,1.91,2.6,2.86,3.85q2.06,2.7,4.11,5.18c.58.72,1.17,1.41,1.75,2.1.82,1,1.63,1.88,2.44,2.78.34.39.69.77,1,1.15h0c5.58,6.07,10.9,10.69,15.4,13.25h0c3,1.71,5.48,2.45,7.44,2.26l.14,0h.06a4.77,4.77,0,0,0,1.45-.4l0,0,.08,0,.14-.07h0C80.26,99.76,81.08,95.13,80,88.38Z"/>
          <path class="cls-38" d="M79.83,88.48h0c0-.34-.11-.67-.17-1,0-.14-.06-.28-.08-.42-.07-.37-.15-.74-.23-1.12s-.2-.88-.31-1.33c-.06-.28-.14-.56-.21-.85-.51-2-1.16-4.14-1.92-6.37,0-.08,0-.16-.08-.24l0-.08,0-.15a.88.88,0,0,1,0-.15A165,165,0,0,0,65.62,52.58c-2.41-4.36-5-8.6-7.58-12.67h0q-1.92-3-3.89-5.82l-.59-.84L53,32.44l-.6-.85-1.07-1.47c-.21-.3-.43-.6-.65-.89-.35-.48-.7-.95-1.06-1.42l-.09-.13L49,27q-1.11-1.45-2.22-2.85c-.66-.83-1.32-1.64-2-2.44l-1-1.19-.75-.88q-1.71-2-3.4-3.85h0C34.11,9.72,28.8,5.09,24.31,2.52h0c-.39-.23-.77-.44-1.15-.63s-.49-.25-.73-.36l-.72-.32-.34-.14A9,9,0,0,0,16.12.36L15.66.5a4.36,4.36,0,0,0-.85.39l-.08,0L14.65,1,14.6,1h0a.91.91,0,0,0-.16.11h0l0,0h0a3.56,3.56,0,0,0-.31.26,4,4,0,0,0-.29.29h0C11.88,3.8,11.45,8,12.39,13.7a58.17,58.17,0,0,0,1.37,6.1c.06.24.13.47.2.7l.18.62.18.6c.16.54.33,1.09.51,1.64l0,.07,0,.1,0,.11c0,.07.05.14.07.2l.06.2A157.39,157.39,0,0,0,26.6,49.6c2.41,4.35,5,8.6,7.58,12.66.38.59.75,1.17,1.13,1.74.73,1.11,1.46,2.2,2.2,3.27l0,.06q.54.8,1.08,1.56l1.17,1.64.57.8c1,1.31,1.9,2.6,2.86,3.85q2,2.7,4.1,5.19c.58.71,1.17,1.41,1.75,2.09q1.22,1.44,2.43,2.79l1,1.15h0c5.56,6.07,10.87,10.7,15.36,13.28h0c3,1.71,5.46,2.45,7.4,2.27l.15,0h.06a4.79,4.79,0,0,0,1.44-.4l0,0,.08,0,.14-.08h0C80.14,99.83,81,95.21,79.83,88.48Z"/>
          <path class="cls-34" d="M79.68,88.57h0c-.05-.33-.11-.67-.17-1,0-.14-.06-.27-.08-.41-.08-.37-.15-.74-.24-1.12s-.19-.88-.3-1.33c-.07-.28-.14-.56-.22-.85-.51-2-1.16-4.14-1.93-6.36,0-.08,0-.17-.08-.25l0-.07c0-.06,0-.11,0-.16a.88.88,0,0,1,0-.15A167.22,167.22,0,0,0,65.43,52.7c-2.41-4.36-5-8.6-7.58-12.67h0q-1.92-3-3.89-5.82l-.59-.84-.57-.81-.6-.85c-.35-.49-.71-1-1.07-1.47-.21-.3-.43-.6-.65-.89l-1-1.42a1.13,1.13,0,0,1-.1-.13l-.52-.69c-.74-1-1.48-1.92-2.22-2.86s-1.31-1.64-2-2.43l-1-1.2-.74-.88q-1.71-2-3.39-3.85h0C33.94,9.82,28.65,5.19,24.17,2.61h0C23.78,2.38,23.4,2.17,23,2l-.74-.37-.71-.32-.34-.14A8.94,8.94,0,0,0,16,.43l-.45.13a5.39,5.39,0,0,0-.84.39L14.64,1l-.09.05,0,0h0l-.15.11h0L14,1.48a4,4,0,0,0-.29.29h0c-1.9,2.08-2.32,6.25-1.36,12a55.76,55.76,0,0,0,1.38,6.09c.06.23.13.47.2.7l.18.62.18.6c.16.54.34,1.08.52,1.64l0,.06,0,.11s0,.07,0,.11l.06.2a1.46,1.46,0,0,1,.07.19A157.22,157.22,0,0,0,26.6,49.6c2.41,4.35,5,8.6,7.58,12.66L35.31,64c.73,1.1,1.46,2.19,2.2,3.26l0,.06q.54.8,1.08,1.56l1.16,1.65.57.79c1,1.31,1.91,2.6,2.86,3.86,1.37,1.79,2.73,3.53,4.1,5.19.58.71,1.16,1.41,1.75,2.09q1.22,1.44,2.43,2.79c.34.39.69.77,1,1.15h0c5.56,6.08,10.85,10.71,15.33,13.3h0c3,1.72,5.44,2.47,7.38,2.29h.2a4.94,4.94,0,0,0,1.43-.39l.06,0,.08,0,.14-.07h0C80,99.9,80.81,95.3,79.68,88.57Z"/>
          <path class="cls-33" d="M79.54,88.66h0c-.06-.33-.12-.66-.19-1,0-.14,0-.28-.08-.42-.07-.37-.15-.74-.23-1.12s-.2-.88-.31-1.33c-.07-.27-.14-.56-.21-.84q-.8-3-2-6.36a2.25,2.25,0,0,0-.08-.24l0-.08a.88.88,0,0,0,0-.15.88.88,0,0,1,0-.15A168.56,168.56,0,0,0,65.24,52.82c-2.41-4.36-5-8.6-7.58-12.66h0q-1.92-3-3.89-5.82l-.59-.84-.57-.81-.6-.85-1.07-1.48-.65-.88-1-1.42a1.47,1.47,0,0,0-.1-.13l-.52-.69c-.74-1-1.48-1.93-2.22-2.86s-1.3-1.64-2-2.44l-1-1.19-.74-.89c-1.14-1.33-2.27-2.62-3.39-3.85h0C33.77,9.93,28.49,5.29,24,2.69h0c-.39-.22-.77-.44-1.14-.63l-.73-.36c-.24-.12-.48-.22-.71-.32l-.34-.15A8.78,8.78,0,0,0,15.91.5a3.47,3.47,0,0,0-.46.13,4.8,4.8,0,0,0-.83.38l-.08.05-.08.05-.05,0h0l-.15.11h0l-.3.25-.29.29h0c-1.88,2.06-2.29,6.23-1.32,11.93a59,59,0,0,0,1.4,6.08c.06.23.13.47.2.7l.18.62.18.6c.17.54.34,1.08.52,1.63l0,.07a.76.76,0,0,0,0,.11l0,.11a1.46,1.46,0,0,1,.07.19l.06.2A158.76,158.76,0,0,0,26.6,49.6c2.41,4.35,5,8.6,7.58,12.66L35.31,64c.73,1.1,1.46,2.19,2.2,3.26l0,.06q.54.8,1.08,1.56l1.16,1.65.57.79c1,1.32,1.9,2.6,2.86,3.86,1.36,1.8,2.73,3.53,4.09,5.19q.87,1.07,1.74,2.1,1.23,1.44,2.43,2.79l1,1.15h0c5.55,6.08,10.83,10.73,15.3,13.32h0c3,1.73,5.42,2.48,7.35,2.31h.2a4.32,4.32,0,0,0,1.42-.39l0,0,.08,0a.61.61,0,0,0,.14-.07h0C79.91,100,80.68,95.38,79.54,88.66Z"/>
          <path class="cls-32" d="M79.39,88.76h0c-.06-.32-.12-.66-.19-1,0-.14,0-.27-.08-.41-.07-.37-.15-.74-.23-1.12s-.21-.88-.32-1.33l-.21-.84c-.53-2-1.18-4.13-2-6.35l-.09-.25,0-.07a.88.88,0,0,0-.05-.15.88.88,0,0,1,0-.15A169.92,169.92,0,0,0,65.05,52.94c-2.41-4.35-5-8.6-7.58-12.66h0q-1.92-3-3.88-5.83L53,33.61l-.57-.81-.6-.85-1.07-1.48-.65-.89c-.35-.47-.7-.95-1.05-1.41L49,28l-.52-.68c-.74-1-1.47-1.93-2.21-2.87s-1.31-1.64-2-2.43l-1-1.2L42.53,20q-1.71-2-3.38-3.86h0C33.61,10,28.34,5.38,23.89,2.78h0c-.39-.23-.76-.44-1.13-.63s-.49-.26-.73-.37-.48-.22-.71-.32L21,1.31A8.82,8.82,0,0,0,15.8.56l-.45.13a4.8,4.8,0,0,0-.83.38l-.08.05-.08,0,0,0h0l-.15.11h0a3.73,3.73,0,0,0-.3.26,3.83,3.83,0,0,0-.29.28h0c-1.87,2.06-2.26,6.22-1.27,11.91a58.83,58.83,0,0,0,1.4,6.07l.21.7.18.62.18.59c.17.54.34,1.09.53,1.64l0,.06,0,.11s0,.07,0,.11l.06.2a1.46,1.46,0,0,1,.07.19A159,159,0,0,0,26.6,49.6c2.41,4.35,5,8.6,7.58,12.66L35.31,64c.73,1.1,1.46,2.19,2.19,3.26l0,.07,1.08,1.55,1.16,1.65.57.79q1.43,2,2.85,3.86c1.36,1.8,2.73,3.54,4.09,5.2L49,82.49c.82,1,1.62,1.89,2.43,2.79.34.39.69.77,1,1.15h0C58,92.51,63.31,97.16,67.75,99.76h0c2.95,1.74,5.4,2.5,7.32,2.33h.2a4.58,4.58,0,0,0,1.41-.38l0,0,.08,0,.14-.07h0C79.8,100.05,80.55,95.46,79.39,88.76Z"/>
          <path class="cls-31" d="M79.24,88.85h0c-.06-.33-.12-.67-.19-1,0-.14,0-.28-.08-.42-.07-.36-.15-.74-.24-1.11s-.2-.88-.31-1.33c-.07-.28-.15-.56-.22-.84-.53-2-1.18-4.13-2-6.34l-.09-.25,0-.08a.88.88,0,0,0-.05-.15l0-.15A169.5,169.5,0,0,0,64.86,53.06c-2.42-4.35-5-8.6-7.59-12.66h0c-1.28-2-2.58-3.93-3.88-5.83l-.59-.84-.57-.81-.6-.85-1.07-1.48c-.21-.3-.43-.59-.65-.89l-1-1.42-.1-.13-.52-.69c-.73-1-1.47-1.92-2.21-2.86s-1.3-1.64-2-2.44l-1-1.19-.74-.89c-1.14-1.34-2.26-2.63-3.38-3.86h0C33.44,10.14,28.18,5.48,23.75,2.87h0c-.38-.23-.76-.44-1.13-.64l-.73-.37-.7-.32-.34-.14A8.69,8.69,0,0,0,15.7.63l-.45.13a4.36,4.36,0,0,0-.82.37l-.08.05-.08.05,0,0h0l-.15.11h0a2.55,2.55,0,0,0-.3.26,2.54,2.54,0,0,0-.29.28h0c-1.85,2-2.22,6.19-1.23,11.87a62,62,0,0,0,1.42,6.07l.21.7c.05.2.12.41.18.62l.18.59c.17.54.35,1.08.53,1.64l0,.06,0,.11,0,.11.07.19a1.59,1.59,0,0,0,.07.2A159.88,159.88,0,0,0,26.59,49.6c2.42,4.35,5,8.6,7.59,12.66L35.31,64c.73,1.1,1.46,2.19,2.19,3.26l0,.07,1.08,1.56c.38.55.77,1.1,1.16,1.64l.57.79q1.41,2,2.85,3.87,2,2.7,4.08,5.19.87,1.08,1.74,2.1c.81,1,1.62,1.9,2.42,2.8l1,1.15h0C58,92.53,63.27,97.18,67.7,99.8h0c2.93,1.73,5.38,2.5,7.28,2.34h.2a4.58,4.58,0,0,0,1.41-.38l.05,0,.08,0,.13-.07h0C79.69,100.12,80.42,95.55,79.24,88.85Z"/>
          <path class="cls-39" d="M79.09,88.94h0c-.06-.33-.12-.66-.19-1,0-.14-.05-.27-.08-.41l-.24-1.12c-.1-.43-.21-.87-.32-1.32-.07-.28-.15-.56-.22-.84-.53-2-1.19-4.12-2-6.34L76,77.67l0-.08a.88.88,0,0,0,0-.15l-.05-.15A170.87,170.87,0,0,0,64.67,53.18c-2.42-4.35-5-8.6-7.59-12.66h0q-1.92-3-3.89-5.83l-.58-.84L52,33l-.6-.85-1.07-1.48c-.21-.3-.43-.59-.65-.89l-1-1.42a1.13,1.13,0,0,0-.1-.13l-.51-.69c-.74-1-1.48-1.93-2.21-2.86s-1.31-1.64-2-2.44l-1-1.2-.74-.88c-1.14-1.35-2.26-2.64-3.38-3.87h0C33.27,10.24,28,5.58,23.61,3h0c-.38-.23-.76-.45-1.13-.64S22,2.06,21.76,2l-.7-.33-.34-.14A8.57,8.57,0,0,0,15.59.7a3.74,3.74,0,0,0-.45.12,4,4,0,0,0-.81.38l-.08,0-.08.05-.05,0h0L14,1.44h0l-.3.25L13.35,2h0c-1.83,2-2.19,6.17-1.18,11.84A58.63,58.63,0,0,0,13.6,19.9c.07.23.14.47.2.7l.19.61.18.6c.17.54.35,1.08.53,1.63l0,.07,0,.1s0,.08,0,.11l.06.2a1.46,1.46,0,0,1,.07.19A161.54,161.54,0,0,0,26.59,49.6c2.42,4.35,5,8.6,7.59,12.66L35.31,64c.73,1.1,1.46,2.19,2.19,3.26l0,.07,1.08,1.56c.38.55.77,1.1,1.16,1.64.18.27.37.53.56.8q1.42,2,2.85,3.86,2,2.7,4.08,5.2.87,1.06,1.74,2.1c.81,1,1.62,1.9,2.42,2.8l1,1.15h0C58,92.54,63.23,97.21,67.65,99.83h0c2.93,1.74,5.37,2.52,7.26,2.37h.2a4.51,4.51,0,0,0,1.4-.37l0,0,.07,0,.14-.07h0C79.57,100.19,80.28,95.63,79.09,88.94Z"/>
          <path class="cls-29" d="M78.94,89h0c-.06-.32-.12-.66-.19-1,0-.13,0-.27-.08-.41-.08-.36-.16-.73-.25-1.11s-.2-.88-.32-1.32c-.07-.28-.14-.56-.22-.84-.54-2-1.19-4.12-2-6.33l-.09-.25,0-.07a.88.88,0,0,0,0-.15l0-.15A171.29,171.29,0,0,0,64.47,53.3c-2.41-4.35-5-8.6-7.58-12.66h0Q55,37.66,53,34.81L52.42,34l-.57-.81-.6-.85-1.07-1.48-.64-.89-1-1.42a1.13,1.13,0,0,1-.1-.13l-.52-.69c-.74-1-1.47-1.93-2.21-2.87s-1.3-1.64-1.95-2.44l-1-1.2L42,20.31q-1.69-2-3.36-3.87h0c-5.51-6.1-10.75-10.78-15.15-13.4h0c-.38-.23-.76-.44-1.12-.64L21.62,2l-.69-.32-.34-.15a8.6,8.6,0,0,0-5.1-.8L15,.89a4,4,0,0,0-.81.37l-.08,0-.08.05,0,0h0l-.15.11h0l-.3.25-.28.28h0c-1.82,2-2.17,6.15-1.14,11.82a59.27,59.27,0,0,0,1.44,6.05c.07.23.13.46.2.7l.19.61c.06.2.12.4.19.6l.53,1.63,0,.06,0,.11a.49.49,0,0,1,0,.11l.07.19a1.59,1.59,0,0,0,.07.2A160.37,160.37,0,0,0,26.59,49.61c2.42,4.34,5,8.59,7.59,12.65.37.59.75,1.17,1.13,1.75.73,1.1,1.46,2.19,2.19,3.26l0,.07,1.07,1.56,1.16,1.64.57.8q1.42,2,2.85,3.86,2,2.7,4.07,5.21.87,1.07,1.74,2.1c.81,1,1.61,1.89,2.41,2.8l1,1.15h0C58,92.56,63.19,97.23,67.6,99.86h0c2.92,1.75,5.34,2.53,7.23,2.39H75a4.38,4.38,0,0,0,1.38-.36l0,0,.08,0,.14-.07h0C79.46,100.26,80.15,95.71,78.94,89Z"/>
          <path class="cls-28" d="M78.79,89.13h0c-.06-.33-.12-.66-.19-1,0-.14-.06-.27-.08-.41-.08-.37-.16-.74-.25-1.11s-.21-.88-.33-1.32c-.07-.28-.14-.56-.22-.84-.54-2-1.2-4.12-2-6.33l-.09-.24,0-.08-.06-.15,0-.15A173.16,173.16,0,0,0,64.28,53.42c-2.41-4.35-5-8.6-7.58-12.66h0c-1.27-2-2.57-3.93-3.88-5.83l-.59-.84-.56-.81-.6-.85L50,31l-.65-.89L48.3,28.64l-.1-.13-.52-.69c-.73-1-1.47-1.93-2.2-2.87s-1.3-1.64-1.95-2.44q-.49-.61-1-1.2c-.24-.3-.49-.59-.74-.89q-1.69-2-3.36-3.87h0C32.94,10.45,27.72,5.77,23.33,3.13h0c-.38-.23-.76-.44-1.12-.64s-.48-.26-.72-.37l-.7-.33-.33-.15A8.62,8.62,0,0,0,15.38.83a3.17,3.17,0,0,0-.44.12,4.57,4.57,0,0,0-.81.37l-.07.05-.08,0-.05,0h0l-.15.1h0v0h0a3.47,3.47,0,0,0-.29.25,2.37,2.37,0,0,0-.27.28h0c-1.81,2-2.14,6.13-1.1,11.79a60.15,60.15,0,0,0,1.46,6c.06.23.13.46.2.7s.13.4.19.61.12.4.19.6c.17.53.35,1.07.53,1.62l0,.07,0,.11a.42.42,0,0,0,0,.1l.06.2a1.46,1.46,0,0,1,.07.19A161.23,161.23,0,0,0,26.59,49.61c2.42,4.34,5,8.59,7.59,12.65.37.59.75,1.17,1.13,1.75.73,1.1,1.46,2.19,2.19,3.26l0,.07,1.07,1.56c.39.55.77,1.1,1.16,1.64l.57.8q1.41,2,2.84,3.87,2,2.7,4.07,5.2.87,1.08,1.74,2.1c.81,1,1.61,1.9,2.41,2.81l1,1.15h0c5.5,6.11,10.73,10.79,15.12,13.44h0c2.91,1.76,5.32,2.55,7.2,2.41h.19a4.13,4.13,0,0,0,1.38-.36l.05,0,.08,0,.13-.07h0C79.34,100.33,80,95.8,78.79,89.13Z"/>
          <path class="cls-27" d="M78.64,89.22h0c-.06-.33-.12-.66-.19-1l-.09-.41c-.07-.36-.16-.73-.24-1.11s-.22-.87-.33-1.32c-.07-.27-.15-.55-.23-.83q-.81-3-2-6.32L75.47,78l0-.08-.06-.15,0-.15A167.89,167.89,0,0,0,64.09,53.54c-2.42-4.35-5-8.59-7.59-12.66h0q-1.92-3-3.88-5.83L52,34.21l-.56-.81-.6-.85-1.06-1.48-.65-.89-1-1.42-.1-.14c-.17-.23-.34-.46-.52-.68-.73-1-1.47-1.94-2.2-2.87s-1.3-1.65-1.95-2.45l-1-1.2-.74-.88q-1.69-2-3.35-3.87h0c-5.5-6.12-10.71-10.8-15.08-13.45h0c-.38-.23-.75-.45-1.12-.65l-.71-.37-.7-.33-.33-.15A8.59,8.59,0,0,0,15.27.89L14.84,1a4.18,4.18,0,0,0-.8.37L14,1.43l-.08,0,0,0h0l-.15.1h0l0,0h0a3.47,3.47,0,0,0-.29.25,2.29,2.29,0,0,0-.27.27h0C11.3,4.17,11,8.28,12,13.93a57.58,57.58,0,0,0,1.47,6c.06.23.13.46.2.7s.13.4.19.61.13.39.19.59c.17.54.35,1.08.54,1.63l0,.06,0,.11a.49.49,0,0,1,0,.11c0,.07,0,.13.07.2a1.46,1.46,0,0,0,.07.19A164.07,164.07,0,0,0,26.59,49.61c2.42,4.35,5,8.59,7.59,12.65.37.59.75,1.17,1.13,1.75.73,1.1,1.46,2.19,2.19,3.26l0,.07,1.08,1.56,1.16,1.65.56.79q1.42,2,2.85,3.87c1.35,1.8,2.71,3.54,4.06,5.21q.87,1.06,1.74,2.1c.8,1,1.61,1.9,2.4,2.81l1,1.15h0c5.5,6.11,10.71,10.8,15.08,13.45h0c2.9,1.76,5.3,2.55,7.16,2.42h.2a4.32,4.32,0,0,0,1.37-.36l0,0,.07,0,.14-.06h0C79.23,100.4,79.88,95.88,78.64,89.22Z"/>
        </g>
        <path class="cls-8" d="M44.75,63.62A108.8,108.8,0,0,1,36,50.21c-8.1-14.71-10-26.32-4.31-25.95,3.84.25,10.15,5.84,16.33,13.94a107.91,107.91,0,0,1,8.72,13.4c8.1,14.71,10,26.32,4.31,25.95C57.24,77.3,50.93,71.71,44.75,63.62Z"/>
      </g>
    </g>
  </g>
</svg>
