<svg xmlns="http://www.w3.org/2000/svg" xmlns:xlink="http://www.w3.org/1999/xlink" width="94.27" height="79.33" viewBox="0 0 94.27 79.33">
  <defs>
    <style>
      .cls-1 {
        isolation: isolate;
      }

      .cls-2 {
        fill: #666563;
      }

      .cls-3 {
        fill: url(#linear-gradient);
      }

      .cls-4 {
        fill: url(#linear-gradient-2);
      }

      .cls-5 {
        fill: #767472;
      }

      .cls-6 {
        fill: url(#linear-gradient-3);
      }

      .cls-7 {
        fill: url(#linear-gradient-4);
      }

      .cls-8 {
        fill: #262626;
      }

      .cls-9 {
        fill: #dcddde;
      }

      .cls-10, .cls-35, .cls-47 {
        mix-blend-mode: multiply;
      }

      .cls-11 {
        fill: #bababa;
      }

      .cls-12 {
        opacity: 0.91;
      }

      .cls-13, .cls-46 {
        fill: silver;
      }

      .cls-14 {
        opacity: 0.82;
      }

      .cls-15, .cls-45 {
        fill: #c7c7c7;
      }

      .cls-16 {
        opacity: 0.73;
      }

      .cls-17, .cls-44 {
        fill: #cdcdcd;
      }

      .cls-18 {
        opacity: 0.64;
      }

      .cls-19, .cls-43 {
        fill: #d3d3d3;
      }

      .cls-20 {
        opacity: 0.55;
      }

      .cls-21, .cls-42 {
        fill: #d9d9d9;
      }

      .cls-22 {
        opacity: 0.45;
      }

      .cls-23, .cls-41 {
        fill: #e0e0e0;
      }

      .cls-24 {
        opacity: 0.36;
      }

      .cls-25, .cls-40 {
        fill: #e6e6e6;
      }

      .cls-26 {
        opacity: 0.27;
      }

      .cls-27, .cls-39 {
        fill: #ececec;
      }

      .cls-28 {
        opacity: 0.18;
      }

      .cls-29, .cls-38 {
        fill: #f2f2f2;
      }

      .cls-30 {
        opacity: 0.09;
      }

      .cls-31, .cls-37 {
        fill: #f9f9f9;
      }

      .cls-32, .cls-36 {
        opacity: 0;
      }

      .cls-33, .cls-36 {
        fill: #fff;
      }

      .cls-34 {
        fill: #f4f4f4;
      }

      .cls-35 {
        fill: url(#linear-gradient-5);
      }

      .cls-37 {
        opacity: 0.09;
      }

      .cls-38 {
        opacity: 0.18;
      }

      .cls-39 {
        opacity: 0.27;
      }

      .cls-40 {
        opacity: 0.36;
      }

      .cls-41 {
        opacity: 0.45;
      }

      .cls-42 {
        opacity: 0.55;
      }

      .cls-43 {
        opacity: 0.64;
      }

      .cls-44 {
        opacity: 0.73;
      }

      .cls-45 {
        opacity: 0.82;
      }

      .cls-46 {
        opacity: 0.91;
      }

      .cls-47 {
        opacity: 0.7;
        fill: url(#linear-gradient-6);
      }

      .cls-48 {
        opacity: 0.1;
        mix-blend-mode: screen;
      }

      .cls-49 {
        fill: #171717;
      }

      .cls-50 {
        fill: #2e2e2e;
      }

      .cls-51 {
        fill: #464646;
      }

      .cls-52 {
        fill: #5d5d5d;
      }

      .cls-53 {
        fill: #747474;
      }

      .cls-54 {
        fill: #8b8b8b;
      }

      .cls-55 {
        fill: #a2a2a2;
      }

      .cls-56 {
        fill: #b9b9b9;
      }

      .cls-57 {
        fill: #d1d1d1;
      }

      .cls-58 {
        fill: #e8e8e8;
      }
    </style>
    <linearGradient id="linear-gradient" x1="46.13" y1="-216.06" x2="46.13" y2="-234.71" gradientTransform="matrix(0.79, 0.61, -0.61, 0.79, -83.8, 218.17)" gradientUnits="userSpaceOnUse">
      <stop offset="0" stop-color="#474747"/>
      <stop offset="0.58" stop-color="#3e3e3e"/>
      <stop offset="1" stop-color="#353535"/>
    </linearGradient>
    <linearGradient id="linear-gradient-2" x1="-56.29" y1="-214.97" x2="-56.29" y2="-231.85" xlink:href="#linear-gradient"/>
    <linearGradient id="linear-gradient-3" x1="-30.14" y1="-228.07" x2="-30.14" y2="-245.23" xlink:href="#linear-gradient"/>
    <linearGradient id="linear-gradient-4" x1="22.13" y1="-228.89" x2="22.13" y2="-245.2" xlink:href="#linear-gradient"/>
    <linearGradient id="linear-gradient-5" x1="-57.37" y1="-230.44" x2="48.18" y2="-230.44" gradientTransform="matrix(0.79, 0.61, -0.61, 0.79, -83.8, 218.17)" gradientUnits="userSpaceOnUse">
      <stop offset="0" stop-color="#d2d3d4"/>
      <stop offset="0.04" stop-color="#d9d9da"/>
      <stop offset="0.2" stop-color="#eeeeef"/>
      <stop offset="0.35" stop-color="#fbfbfb"/>
      <stop offset="0.5" stop-color="#fff"/>
      <stop offset="0.65" stop-color="#fbfbfb"/>
      <stop offset="0.8" stop-color="#f0f0f1"/>
      <stop offset="0.94" stop-color="#dddedf"/>
      <stop offset="1" stop-color="#d2d3d4"/>
    </linearGradient>
    <linearGradient id="linear-gradient-6" x1="-4.54" y1="-196.74" x2="-4.54" y2="-234.28" gradientTransform="matrix(0.79, 0.61, -0.61, 0.79, -83.8, 218.17)" gradientUnits="userSpaceOnUse">
      <stop offset="0" stop-color="#fff"/>
      <stop offset="0.19" stop-color="#efefef"/>
      <stop offset="0.57" stop-color="#c5c5c5"/>
      <stop offset="1" stop-color="#8f8f8f"/>
    </linearGradient>
  </defs>
  <g id="Слой_2" data-name="Слой 2">
    <g id="Слой_1-2" data-name="Слой 1">
      <g class="cls-1">
        <path class="cls-2" d="M80.82,57.56c0-.06.09-.12.13-.19S80.86,57.5,80.82,57.56Z"/>
        <path class="cls-2" d="M81,57.29l.08-.12Z"/>
        <path class="cls-2" d="M81.08,57.17l.11-.21Z"/>
        <path class="cls-3" d="M87.08,68.66l0,.16,0,.1,0,.2a.22.22,0,0,0,0,.08l0,.28v0c0,.08,0,.16,0,.24a.34.34,0,0,1,0,.1c0,.06,0,.12,0,.17v.1c0,.06,0,.12,0,.18v.1c0,.06,0,.13,0,.2v.05a2.35,2.35,0,0,1,0,.26v.35a.92.92,0,0,0,0,.16v.1a.76.76,0,0,0,0,.15.41.41,0,0,1,0,.11.66.66,0,0,1,0,.14.34.34,0,0,1,0,.1c0,.06,0,.12,0,.18a.13.13,0,0,0,0,.06l0,.23a.28.28,0,0,0,0,.09l0,.15,0,.09a.77.77,0,0,1,0,.15l0,.09,0,.14a.29.29,0,0,0,0,.09l0,.12,0,.12a.49.49,0,0,1,0,.11.45.45,0,0,1,0,.11l0,.12,0,.09c0,.05,0,.09,0,.13l0,.09,0,.12,0,.09a.61.61,0,0,0,0,.12.69.69,0,0,0,0,.1.54.54,0,0,0,0,.11,1966866193407,1966866193407,0,0,1-.1.2l0,.1,0,.1a.41.41,0,0,0-.07.11l-.05.09-.07.11-.06.09-.06.11-.07.09a.61.61,0,0,1-.07.1.83.83,0,0,1-.08.12v0l6.77-9,.21-.27h0l0-.06,0,0,.07-.11.06-.09.07-.11.06-.09.07-.11a.41.41,0,0,1,0-.09l.06-.12,0-.06v0a.31.31,0,0,0,.05-.1l.06-.11,0-.09a.54.54,0,0,0,0-.11,1.17,1.17,0,0,0,0-.11l0-.1a.49.49,0,0,0,0-.11l0-.07,0,0,0-.09,0-.13,0-.09a.65.65,0,0,0,0-.13l0-.09a.65.65,0,0,1,0-.13l0-.1s0,0,0-.06,0,0,0-.07l0-.09,0-.14s0-.06,0-.09l0-.15s0-.06,0-.09a.88.88,0,0,0,0-.17V63.2h0l0-.23v0c0-.06,0-.13,0-.2s0-.07,0-.1,0-.09,0-.14a.37.37,0,0,1,0-.11v-.15a.34.34,0,0,0,0-.1v-.25a.74.74,0,0,0,0-.21V61.3a1.48,1.48,0,0,1,0-.21s0-.06,0-.09a1.09,1.09,0,0,0,0-.18.28.28,0,0,0,0-.09c0-.06,0-.13,0-.19a.28.28,0,0,1,0-.09v0l0-.23h0c0-.09,0-.19,0-.29v0l0-.23s0-.06,0-.09l0-.09v-.07a2.21,2.21,0,0,0,0-.25A.36.36,0,0,0,94,59c0-.12,0-.25-.07-.37l-.39.52,0,.06-.24.32-1.62,2.15-.17.23-.44.58-.34.46,0,0-.46.61c-.11.16-.23.31-.34.46l-.47.62-.12.17L87.61,67l-.23.31,0,.07-.39.51c0,.13,0,.25.08.37a.43.43,0,0,0,0,.11C87.05,68.5,87.07,68.58,87.08,68.66Z"/>
        <path class="cls-4" d="M1.57,12.56l0,0,.08-.1,0,0,.08-.1,0,0,.08-.08L2,12.08l.18-.18,0,0,.19-.18,0,0,.2-.16h0c.06-.06.14-.11.21-.17l0,0,.21-.15,0,0L3.33,11h0l.23-.14,0,0a1.71,1.71,0,0,1,.23-.13l0,0,.25-.13h0l.25-.12h0l.25-.12h0L5,10.16H5l.27-.1h0L5.59,10h0l.29-.09H6l.3-.08,7-9.3L13,.54h0l-.28.08,0,0-.28.09h0L12,.85h0L11.7,1l0,0-.26.11h0l-.24.12h0l-.24.12,0,0-.22.13-.05,0-.22.14h0l-.21.14,0,0L9.84,2l0,0-.2.15,0,0-.19.16,0,0-.18.16,0,0L9,2.77H9l-.07.08h0l-.05,0L8.77,3l-.06.06-.05.06s0,0-.05,0-.11.14-.16.22h0l-.15.19L1.47,12.69h0Z"/>
        <path class="cls-5" d="M18.61,0h0Z"/>
        <path class="cls-2" d="M37.11,25.93c-.81-.39-1.61-.76-2.39-1.11C35.5,25.16,36.3,25.53,37.11,25.93Z"/>
        <path class="cls-5" d="M44.49,22.17l.19.11a1.18,1.18,0,0,1-.19-.11Z"/>
        <path class="cls-5" d="M44.68,22.28l.41.26Z"/>
        <path class="cls-5" d="M45.09,22.54l.43.28Z"/>
        <path class="cls-6" d="M23.51,11.89l.59.2.09,0,.49.17.19.07.44.16.15.06.58.22.05,0,.55.21.17.07.47.19.13,0,.59.24.13.05.49.2.17.08.57.24.14.06.48.21.18.08.59.27.11.05.58.26.07,0,.62.29.15.07.5.24.18.09.67.32.63.31.78.39.21.11.58.3.29.15.49.26.3.15.59.32.18.09.75.41.21.12.56.31.29.16.45.26.31.17.44.25.31.19.4.22.33.2.42.25.28.17.37.21.33.2.33.21.35.21.68.42,7-9.3-.68-.42h0l-.34-.2L50.11,12l-.35-.2-.35-.21,0,0-.25-.15-.42-.24-.33-.2L48,10.78l-.12-.08-.2-.11-.44-.25-.29-.17-.48-.27-.18-.1-.09-.05-.61-.34-.15-.08-.77-.42,0,0-.15-.07-.59-.32-.27-.15-.53-.27L42.93,8l-.12-.06-.59-.31a1.24,1.24,0,0,1-.2-.1l-.78-.39-.05,0-.58-.29-.67-.32-.18-.09-.32-.15-.19-.09-.13-.06-.64-.3,0,0-.6-.27-.1,0-.08,0-.52-.23L37,5.14l-.5-.22-.13-.06-.5-.21-.08,0-.17-.07-.49-.2-.11,0L34.39,4l-.13,0L34,3.88l-.19-.07-.18-.07-.54-.21,0,0-.59-.23-.15,0-.22-.08-.21-.08L31.65,3l-.47-.17-.11,0-.58-.2-.14,0L30,2.43l-.12,0-.09,0h0c-.67-.22-1.32-.43-2-.62l-7,9.3c.67.2,1.36.42,2.07.65l.4.14Z"/>
        <path class="cls-7" d="M77.19,50.33l.13.15c.11.15.23.29.34.43l.11.14.39.5.15.19.35.46.17.22.11.14.28.38.09.11.35.48.06.08c.09.13.19.26.28.4l.12.16.25.35.1.14c.22.32.45.65.66,1l.22.32.15.23.31.47,0,.07h0l7-9.3c-.11-.18-.23-.36-.35-.54l-.14-.21-.23-.35,0,0-.63-.92-.11-.15-.24-.34L87,44.7a1,1,0,0,1-.08-.11l-.19-.27-.07-.09-.36-.48-.08-.12-.28-.36a1.53,1.53,0,0,1-.11-.16L85.74,43l-.1-.12-.35-.46-.15-.19-.39-.5a.44.44,0,0,1-.08-.11l0,0-.36-.44a1.34,1.34,0,0,0-.11-.14l-.46-.57,0,0-.22-.26c-.25-.31-.51-.62-.77-.92-.11-.12-.21-.24-.31-.37l-.16-.18L82,38.47l-.08-.09-.15-.17-.32-.37-.12-.13-.08-.09-.1-.11-.51-.57-.1-.11,0-.06-.62-.67h0l0-.05-.54-.58-.08-.09-.13-.13-.4-.43-.13-.13-.08-.09-.48-.5-.11-.1,0,0-.61-.63,0-.05-.13-.13-.49-.49-.12-.11-.09-.1-.71-.7h0l0,0L74.82,31l-.1-.09-.07-.07L74,30.15l-7,9.3.67.64.17.16.79.77.05,0,.71.71.21.2.49.49.18.18.62.63.11.12.49.5.21.23.4.42.22.22.54.58,0,.06.62.67.15.17.52.57a2.09,2.09,0,0,0,.14.17c.22.24.44.49.65.74.09.09.17.19.25.28s.12.13.17.2l.31.35a1.83,1.83,0,0,0,.13.16l.63.75.25.3Z"/>
        <path class="cls-8" d="M87.26,71.57h0c0,.11,0,.23,0,.33l-7.34-5.27A2.29,2.29,0,0,1,79,65.4c-.12-2.54-1.21-5.68-3.27-9.23-.26-.45-.12-.71.37-.61l5.79,1.16A96.58,96.58,0,0,0,67,39.45l-4.91-.14a2.81,2.81,0,0,1-1.37-.64l-.26-.21q-3.18-2.85-6.67-5.53c-2.28-1.74-4.63-3.42-7-5l-.29-.2a2.4,2.4,0,0,1-.91-1.12l-1.07-4.44c-3.58-2.22-7.22-4.26-10.86-6A86.81,86.81,0,0,0,23.4,11.87l2.31,5c.2.43-.05.61-.57.46a26.59,26.59,0,0,0-10.43-1.29,2.66,2.66,0,0,1-1.57-.71L6.28,9.76C1.33,11-.93,14.7.36,20.7a13.68,13.68,0,0,1-.31-4L7.39,22a2.21,2.21,0,0,1,.94,1.23c.13,2.55,1.22,5.68,3.27,9.23.26.45.11.71-.37.6L5.44,31.9A96.62,96.62,0,0,0,20.3,49.18l4.92.14a2.91,2.91,0,0,1,1.35.63,2.75,2.75,0,0,1,.26.22c2.13,1.89,4.36,3.74,6.68,5.52s4.63,3.42,7,5l.29.2A2.5,2.5,0,0,1,41.75,62l1.06,4.44c3.58,2.22,7.22,4.25,10.86,6A86.28,86.28,0,0,0,63.9,76.76l-2.32-5.05c-.19-.42.06-.6.58-.45a26.44,26.44,0,0,0,10.43,1.29,2.7,2.7,0,0,1,1.58.72L81,78.87C84.87,77.91,87.06,75.43,87.26,71.57ZM8.17,17.24l-2.38-.79a1.08,1.08,0,0,1-.33-.18A1,1,0,0,1,5.21,16L3.93,14c-.12-.18,0-.26.17-.19l2.38.79a1.08,1.08,0,0,1,.33.18,1,1,0,0,1,.25.26l1.28,2C8.46,17.23,8.38,17.32,8.17,17.24Zm62.7,28.83,2.7,1.69.1.07a.74.74,0,0,1,.32.43L73.9,49.6c0,.12-.2.1-.44-.06l-2.69-1.68-.12-.08c-.18-.14-.31-.31-.3-.41L70.43,46C70.43,45.9,70.64,45.93,70.87,46.07Zm-37-28.63a.83.83,0,0,1,.49.2l.11.09,2.3,2.14c.2.19.27.37.14.4l-1.43.32a.73.73,0,0,1-.48-.2l-.11-.09-2.28-2.13c-.22-.2-.28-.37-.14-.4ZM16.43,42.55l-2.7-1.69-.12-.08c-.18-.14-.31-.31-.3-.41L13.4,39c0-.12.2-.1.44,0l2.69,1.69.12.08c.18.14.31.31.3.4l-.08,1.36C16.87,42.73,16.66,42.7,16.43,42.55Zm37,28.63A.7.7,0,0,1,53,71a.48.48,0,0,1-.11-.09l-2.3-2.14c-.2-.18-.27-.37-.14-.39L51.84,68a.7.7,0,0,1,.49.2.87.87,0,0,1,.11.09l2.28,2.13c.21.19.27.37.15.41Zm20.21-4.09-.12.14-.06.07-.08.08-.07.07-.13.12-.08.07a.27.27,0,0,1-.08.07l-.08.07-.14.11-.07.06-.11.07-.07,0a1.66,1.66,0,0,1-.23.14l-.21.12-.2.11a9.48,9.48,0,0,1-3.87.89H66.3l-.17,0H65.8l-.44,0-.35,0-.45-.06-.38-.05L63.71,69l-.4-.07-.48-.1-.24,0-.17,0-.31-.07-.2,0-.33-.08a47.88,47.88,0,0,1-6.5-2.16l-.59-.25c-.84-.35-1.69-.73-2.64-1.17l-.57-.28-.47-.22A92.9,92.9,0,0,1,39,57.51l-1.49-1-.3-.21-.45-.33-.47-.34c-.55-.4-1.08-.81-1.62-1.22A99.67,99.67,0,0,1,24.14,45L24,44.86c-.09-.09-.18-.18-.35-.37a68.25,68.25,0,0,1-5.13-6L18.11,38a34,34,0,0,1-4.82-8.53,15.6,15.6,0,0,1-.72-2.73,6.69,6.69,0,0,1,.76-4.8l.16-.23.14-.17.12-.14.07-.08a.46.46,0,0,1,.07-.07l.07-.08.13-.12.08-.07.07-.06.09-.07.14-.11.08-.06.1-.07.07-.06.24-.14.2-.12a1.86,1.86,0,0,1,.2-.1,9.32,9.32,0,0,1,3.87-.89h1.93l.19,0h.14l.45,0,.35,0,.45.06.38.06.46.08.4.07.48.09.26.06.16,0,.31.07.19.05.34.08A49.74,49.74,0,0,1,33.3,22.7l.33.15c.66.29,1.34.59,2.12,1l.3.15.44.21a94.74,94.74,0,0,1,11.78,6.94l1.51,1.07.25.17c.11.09.23.18.46.34.71.52,1.41,1,2.1,1.58a99.78,99.78,0,0,1,10.56,9.32l.21.23.2.2.2.21.32.34a67.74,67.74,0,0,1,4.72,5.54c.07.08.13.17.2.26l.19.26a40.41,40.41,0,0,1,3.5,5.51,25,25,0,0,1,1.32,3c0,.11.08.22.13.39a2.25,2.25,0,0,1,.08.24,12.32,12.32,0,0,1,.5,2.09,6.54,6.54,0,0,1-.91,5Zm9.52,7.74L80.82,74a1.19,1.19,0,0,1-.33-.18,1.1,1.1,0,0,1-.26-.27l-1.27-2c-.12-.18,0-.27.17-.2l2.38.79a1.55,1.55,0,0,1,.33.18,1.25,1.25,0,0,1,.25.27l1.28,2C83.49,74.81,83.41,74.9,83.19,74.83Z"/>
        <g>
          <path class="cls-8" d="M46.13,60.56l.28,1.57c1.27.73,2.55,1.41,3.84,2.05A91.74,91.74,0,0,1,39,57.51l.44-1.13a83.91,83.91,0,0,0,10.72,6.31Q48.15,61.7,46.13,60.56Z"/>
          <path class="cls-8" d="M30.5,51c1.36,1.16,2.78,2.31,4.22,3.42l1.6,1.2L34.7,54.36a100.19,100.19,0,0,1-10.48-9.25l1.73,0c1.93,2,4.05,3.94,6.3,5.83l-.63-.54Z"/>
          <path class="cls-8" d="M25.54,21.83c.58.11,1.17.24,1.78.39l-1.6-2.13a49.29,49.29,0,0,1,7.52,2.59l-1-.42,1,1.91A39.83,39.83,0,0,0,25.54,21.83Z"/>
          <path class="cls-8" d="M48.27,31.12l-.44,1.13a84.69,84.69,0,0,0-10.72-6.32c1.36.66,2.71,1.38,4.06,2.14l-.28-1.58c-1.28-.72-2.56-1.4-3.85-2A94,94,0,0,1,48.27,31.12Z"/>
          <path class="cls-8" d="M54.11,64.46a45.18,45.18,0,0,0,5.87,2l1.6,2.13a47.88,47.88,0,0,1-6.5-2.16Z"/>
          <path class="cls-8" d="M17.17,33.55a41,41,0,0,0,4.33,6.51q-.62-.77-1.17-1.53L18.11,38a38.84,38.84,0,0,1-3.85-6.23c.11.24.24.48.36.73Z"/>
          <path class="cls-8" d="M66,67.13a8.52,8.52,0,0,0,3.5-.8l2.49,2.11a9.49,9.49,0,0,1-3.88.89Z"/>
          <path class="cls-8" d="M15.5,24.87a6.76,6.76,0,0,0-.21,3.38l-2.72-1.51a6.69,6.69,0,0,1,.76-4.8,5.35,5.35,0,0,0-.54,1.1l2.7,1.88S15.5,24.89,15.5,24.87Z"/>
          <path class="cls-8" d="M72,60.37l2.72,1.51a7,7,0,0,1-.51,4.37,4.48,4.48,0,0,0,.28-.67l-2.69-1.87v0A6.87,6.87,0,0,0,72,60.37Z"/>
          <path class="cls-8" d="M70.13,55.08a37.09,37.09,0,0,0-3.16-5l2.22.53a39.35,39.35,0,0,1,3.49,5.51Z"/>
          <path class="cls-8" d="M55.05,37.74l.63.54,1.12-.61q-2-1.74-4.22-3.42c-.69-.52-1.39-1-2.09-1.56.71.52,1.41,1,2.1,1.57a100.52,100.52,0,0,1,10.49,9.26l-1.73,0c.4.41.79.82,1.18,1.24A86.25,86.25,0,0,0,55.05,37.74Z"/>
          <path class="cls-8" d="M21.35,21.49a8.68,8.68,0,0,0-3.5.8l-2.49-2.1a9.32,9.32,0,0,1,3.87-.89Z"/>
        </g>
        <path class="cls-9" d="M26.57,50a2.75,2.75,0,0,1,.26.22c2.13,1.89,4.36,3.74,6.68,5.52s4.63,3.42,7,5l.29.2A2.5,2.5,0,0,1,41.75,62l1.06,4.44c-4-2.49-7.93-5.22-11.68-8.09s-7.47-6-10.83-9.2l4.92.15A2.91,2.91,0,0,1,26.57,50Z"/>
        <path class="cls-9" d="M52.33,68.24a.87.87,0,0,1,.11.09l2.28,2.13c.21.19.27.37.15.41l-1.42.31A.7.7,0,0,1,53,71l-.11-.09-2.3-2.14c-.2-.18-.27-.37-.14-.39L51.84,68A.7.7,0,0,1,52.33,68.24Z"/>
        <g class="cls-10">
          <g>
            <polygon class="cls-11" points="49.36 63.73 49.36 63.73 49.36 63.73 49.36 63.73"/>
            <path class="cls-11" d="M32.31,22.43h0l-.08-.17ZM73.84,66.87a5,5,0,0,0,.38-.63h0v0a.83.83,0,0,0,.07-.13h0l0,0,0,0a7.08,7.08,0,0,0,.42-4.2h0a13.29,13.29,0,0,0-.51-2.1,2.25,2.25,0,0,0-.08-.24l0,0a3.38,3.38,0,0,0-.11-.34,23.62,23.62,0,0,0-1.33-3,39.35,39.35,0,0,0-3.49-5.51h0l-.06-.08L69,50.37c-.07-.09-.13-.18-.2-.26l0-.07a68.11,68.11,0,0,0-4.67-5.47L64,44.45l-.21-.22-.2-.21-.2-.2-.21-.23-.07-.07a99.31,99.31,0,0,0-10.49-9.25c-.69-.54-1.39-1.06-2.1-1.58l-.11-.08L50,32.35l-.25-.17-.19-.13-1.32-.93a96.49,96.49,0,0,0-9.22-5.64l-.16-.08h0l-.08,0-.21-.11-.35-.18L38.05,25l-.11-.06h0l-.27-.13-.6-.31h0l-.56-.28L36.05,24l-.3-.15-.09,0c-.69-.33-1.37-.63-2-.92l-.33-.15-.06,0h0a49.72,49.72,0,0,0-7.5-2.58h0l-.11,0-.23,0L25.19,20l-.31-.07-.16,0-.26-.06-.13,0L24,19.71l-.14,0-.26,0-.12,0-.34-.06-.12,0-.26,0h-.12l-.33,0h-.13l-.22,0H21.8l-.31,0h-.14l-.19,0H19.23a9.32,9.32,0,0,0-3.87.89h0l-.18.1-.08,0-.12.08-.07,0-.17.1-.07.06-.1.07-.08.06-.14.11-.09.07-.07.06-.08.07-.13.12-.07.08a.46.46,0,0,0-.07.07l-.07.08-.12.14-.05.06-.09.11,0,.05-.12.18a6.69,6.69,0,0,0-.76,4.8h0v0a16.1,16.1,0,0,0,.71,2.69,23.39,23.39,0,0,0,1.14,2.64A39.6,39.6,0,0,0,18.11,38h0l.21.29.18.24a68.25,68.25,0,0,0,5.13,6l.16.17.19.19h0l.16.16.08.09h0A100.19,100.19,0,0,0,34.7,54.36l1.55,1.16.07.06.47.34L37,56l.29.21.3.21.14.1,1.35.95h0a94.22,94.22,0,0,0,9.27,5.66l0,0,.15.08h0l.06,0,.23.12.34.18.24.12.11.06.26.13,1.19.6.47.22.18.09.39.19.07,0c.88.41,1.73.79,2.57,1.14l.59.25a47.88,47.88,0,0,0,6.5,2.16h0l.1,0,.23.06.2,0,.31.07.17,0,.24,0,.14,0,.34.07.15,0,.25,0,.13,0,.34.06.13,0,.25,0,.12,0,.33,0,.12,0,.23,0,.14,0,.3,0h.33l.17,0h1.76a9.49,9.49,0,0,0,3.88-.89h0l.19-.11.07,0,.14-.09.06,0,.17-.11.07,0,.11-.07.07-.06.14-.11.08-.07a.27.27,0,0,0,.08-.07l.08-.07.13-.12.07-.07.08-.08.06-.07.12-.14,0-.06.1-.12Z"/>
            <path class="cls-11" d="M38,24.9h0Z"/>
            <path class="cls-11" d="M39,25.45l.06,0h0Z"/>
          </g>
          <g class="cls-12">
            <polygon class="cls-13" points="49.36 63.66 49.36 63.66 49.36 63.66 49.36 63.66"/>
            <path class="cls-13" d="M32.34,22.5h0l-.09-.17ZM73.76,66.81a5,5,0,0,0,.38-.63h0v0l.06-.13h0v0a7.14,7.14,0,0,0,.42-4.19h0a13.29,13.29,0,0,0-.51-2.1c0-.07,0-.15-.07-.23l0-.06-.12-.33a23.4,23.4,0,0,0-1.32-3,41.47,41.47,0,0,0-3.49-5.5h0l0-.07a1.33,1.33,0,0,1-.14-.19l-.2-.25,0-.07A67.83,67.83,0,0,0,64,44.58l-.1-.11-.21-.22L63.49,44a1.8,1.8,0,0,0-.19-.2l-.22-.23L63,43.54a99.79,99.79,0,0,0-10.45-9.23c-.69-.53-1.39-1.05-2.1-1.57l-.1-.07L50,32.41l-.24-.18-.19-.13-1.32-.93a94.77,94.77,0,0,0-9.2-5.62l-.16-.08h0l-.08,0-.21-.11-.34-.18L38.06,25,38,25h0l-.27-.14-.59-.3h0l-.56-.28L36.07,24l-.31-.14-.08-.05-2-.92-.33-.14-.06,0h0a43.65,43.65,0,0,0-7.48-2.58h0l-.1,0-.23-.05L25.24,20,24.93,20l-.16,0-.26-.05-.13,0L24,19.79l-.15,0-.25,0-.12,0-.35-.06-.12,0-.25,0h-.13l-.32-.05h-.14l-.22,0h-.13l-.3,0h-.15l-.19,0h-.94c-.15,0-.3,0-.45,0H19.3a9,9,0,0,0-3.86.88h0l-.18.09-.07,0-.13.08-.07,0a.91.91,0,0,0-.16.11l-.08.05-.1.07-.08.06-.14.11-.08.07-.08.06-.08.07-.12.12-.08.08-.06.07a.27.27,0,0,0-.07.08l-.12.13-.05.06-.09.12,0,0-.12.18a6.61,6.61,0,0,0-.75,4.77h0v0a18.3,18.3,0,0,0,.71,2.69,25.23,25.23,0,0,0,1.14,2.63A40.73,40.73,0,0,0,18.19,38h0l.22.29.18.24a67.5,67.5,0,0,0,5.11,5.94,1.2,1.2,0,0,0,.16.16,1.8,1.8,0,0,0,.19.2h0l.16.15.08.09h0a99.66,99.66,0,0,0,10.45,9.23c.51.39,1,.78,1.54,1.16l.08.05.46.35A.91.91,0,0,1,37,56l.3.22.29.21.14.1,1.35.94h0a95.65,95.65,0,0,0,9.24,5.65l0,0,.15.08h0l.06,0,.23.12.34.18.24.13.11,0,.26.14,1.18.59.47.23.19.08.38.19.07,0c.87.41,1.73.79,2.56,1.14l.59.24a47.68,47.68,0,0,0,6.48,2.16h0l.1,0,.23.05.2,0,.31.07.16,0,.24,0,.14,0,.35.07.14,0,.25,0,.13,0,.34,0,.13,0,.25,0,.12,0,.33,0h.12l.23,0h.14l.3,0,.15,0h1.61l.49,0a9.69,9.69,0,0,0,3.87-.88h0l.19-.1.06,0,.14-.08.06,0,.17-.1.07-.05.11-.08.07,0,.15-.12.07-.06.09-.07.07-.07.13-.12.07-.07.08-.08.06-.07.12-.14,0-.06.1-.12Z"/>
            <path class="cls-13" d="M38,25h0Z"/>
            <path class="cls-13" d="M39,25.52l0,0h0Z"/>
          </g>
          <g class="cls-14">
            <polygon class="cls-15" points="49.36 63.6 49.35 63.6 49.35 63.6 49.36 63.6"/>
            <path class="cls-15" d="M32.36,22.58h0l-.08-.17ZM73.68,66.75a5,5,0,0,0,.38-.63v0l0,0,.06-.12h0l0,0,0,0a7.06,7.06,0,0,0,.42-4.17h0A13.35,13.35,0,0,0,74,59.72c0-.08-.05-.15-.07-.23l0-.06-.12-.34a23.92,23.92,0,0,0-1.32-3A40.14,40.14,0,0,0,69,50.62h0L69,50.55l-.14-.19-.19-.26L68.59,50A71.15,71.15,0,0,0,64,44.6l-.11-.11-.21-.22-.2-.22-.19-.2L63,43.63,63,43.56a101.25,101.25,0,0,0-10.42-9.2c-.69-.53-1.39-1-2.1-1.57l-.1-.07L50,32.46l-.24-.17-.19-.14-1.31-.92a95.46,95.46,0,0,0-9.17-5.61l-.16-.08h0l-.08,0-.21-.11-.34-.18-.23-.12L38,25h0l-.27-.14-.59-.3h0l-.56-.28-.43-.21-.3-.14-.09,0c-.68-.33-1.36-.63-2-.92l-.33-.15-.05,0h0a45.48,45.48,0,0,0-7.46-2.57h0l-.1,0-.23-.06-.19-.05L25,20.05l-.16,0L24.56,20l-.13,0-.34-.07-.14,0-.26,0-.12,0-.34-.06-.12,0-.26,0h-.12l-.32,0h-.14l-.22,0h-.13l-.3,0h-.15l-.18,0H19.85l-.48,0a9,9,0,0,0-3.85.87h0l-.18.1-.07,0-.13.07-.07,0-.16.11-.08.05-.1.07-.07.06L14.5,21l-.09.07-.07.06-.08.07-.12.12a.3.3,0,0,0-.08.08l-.07.07a.46.46,0,0,1-.07.07,1.34,1.34,0,0,0-.11.14l-.05.06-.09.12,0,0-.12.18a6.59,6.59,0,0,0-.75,4.76h0v0a16.65,16.65,0,0,0,.71,2.67,23.14,23.14,0,0,0,1.13,2.63A40.6,40.6,0,0,0,18.28,38h0l.21.28.18.24a69,69,0,0,0,5.1,5.93c.06.06.11.12.16.16l.19.2h0l.15.16.09.09h0a98.2,98.2,0,0,0,10.43,9.2c.5.39,1,.78,1.53,1.15l.07.06.47.34L37,56l.29.21.29.21.14.1,1.35.94h0A93.08,93.08,0,0,0,48.3,63l0,0,.15.08h0l0,0,.23.12.34.18.23.12.12.06.26.13c.39.2.78.4,1.18.59l.46.23.19.09.38.18.07,0c.87.41,1.72.79,2.56,1.14l.58.24a48.9,48.9,0,0,0,6.46,2.16h0l.1,0,.23.06.2,0,.3.07.17,0,.24,0,.14,0,.34.07.15,0,.25,0,.12,0,.34.06.13,0,.25,0,.12,0,.33,0,.12,0,.23,0,.14,0,.29,0H66l.17,0h1.75a9.51,9.51,0,0,0,3.85-.87h0l.19-.1.07,0,.14-.08.06,0,.16-.11.08,0,.1-.07.07-.06.15-.11.07-.06.09-.08.07-.06.13-.12a.23.23,0,0,1,.07-.07l.08-.09.06-.06.12-.14,0-.06.09-.12Z"/>
            <path class="cls-15" d="M38,25h0Z"/>
            <path class="cls-15" d="M39,25.59l.05,0h0Z"/>
          </g>
          <g class="cls-16">
            <polygon class="cls-17" points="49.35 63.53 49.35 63.53 49.35 63.53 49.35 63.53"/>
            <path class="cls-17" d="M32.39,22.65h0l-.08-.16Zm41.21,44c.13-.2.26-.41.37-.62h0v0a.83.83,0,0,0,.07-.13h0v0a7,7,0,0,0,.41-4.15h0A14.47,14.47,0,0,0,74,59.69c0-.08,0-.16-.08-.23l0-.06c0-.11-.07-.22-.11-.34a24.59,24.59,0,0,0-1.33-3A40.74,40.74,0,0,0,69,50.62h0l-.06-.08-.14-.18-.19-.26,0-.07a68.87,68.87,0,0,0-4.64-5.42l-.1-.11-.21-.22-.2-.21-.2-.2L63,43.65l-.07-.07a102,102,0,0,0-10.4-9.18l-2.08-1.56-.11-.07L50,32.51l-.24-.17-.19-.14-1.32-.92a93.61,93.61,0,0,0-9.14-5.59l-.15-.08h0l-.08,0-.21-.11-.34-.18-.23-.12L38,25.11h0L37.69,25c-.2-.1-.4-.19-.59-.3h0l-.55-.27-.43-.21L35.79,24l-.08,0c-.69-.32-1.36-.63-2-.92l-.32-.14-.06,0h0a45.23,45.23,0,0,0-7.43-2.57h0l-.11,0-.22-.06-.19,0L25,20.13l-.15,0-.26-.05-.13,0L24.14,20l-.14,0-.26,0-.11,0-.35-.06-.12,0-.25,0h-.12l-.33-.05h-.13l-.22,0H22l-.3,0h-.15l-.18,0H19.92l-.48,0a9.15,9.15,0,0,0-3.84.86h0l-.19.1-.07,0-.13.07-.06,0-.17.11-.07.05-.1.07-.08.06-.14.11-.08.06-.07.07-.09.07-.12.12-.07.07-.07.07L14,21.6l-.11.13-.05.07-.09.11,0,.05-.12.18a6.58,6.58,0,0,0-.74,4.74h0v0a16.65,16.65,0,0,0,.71,2.67,24,24,0,0,0,1.14,2.62A40.17,40.17,0,0,0,18.36,38h0l.22.28c.06.08.11.16.18.24a68.47,68.47,0,0,0,5.08,5.91l.16.16.19.19h0l.15.16.09.08h0a98.8,98.8,0,0,0,10.4,9.18c.5.39,1,.77,1.53,1.15l.07,0,.46.34.16.12.3.21.29.21.13.1,1.35.94h0A94.49,94.49,0,0,0,48.3,63l0,0,.16.08h0l0,0,.23.11.34.18.23.12.11.06.27.14,1.17.59.46.22.19.09.39.18.06,0q1.3.61,2.55,1.14l.58.24a48.55,48.55,0,0,0,6.44,2.15h0l.1,0,.23,0,.2,0,.3.07.17,0,.24,0,.14,0,.34.07.14,0,.25,0,.13,0,.33,0,.13,0,.25,0,.12,0,.33,0H65l.23,0h.14l.29,0,.16,0h.52l.27,0h1.29a9.5,9.5,0,0,0,3.84-.87h0l.19-.1.06,0,.14-.08.06,0,.17-.1.07,0,.1-.08.08,0,.14-.11.08-.07.08-.07a.46.46,0,0,0,.07-.07.49.49,0,0,0,.13-.12l.07-.06.07-.09a.23.23,0,0,0,.07-.07l.11-.13,0-.06.09-.12S73.59,66.7,73.6,66.69Z"/>
            <path class="cls-17" d="M38,25.12h0Z"/>
            <path class="cls-17" d="M39,25.66l.05,0h0Z"/>
          </g>
          <g class="cls-18">
            <polygon class="cls-19" points="49.35 63.47 49.35 63.47 49.35 63.47 49.35 63.47"/>
            <path class="cls-19" d="M32.42,22.73h0l-.09-.16Zm41.09,43.9a4.9,4.9,0,0,0,.38-.62h0v0l.06-.13h0v0a7,7,0,0,0,.4-4.14h0a14.47,14.47,0,0,0-.51-2.07c0-.07-.05-.15-.08-.23l0-.05c0-.11-.07-.23-.11-.34a25.25,25.25,0,0,0-1.32-3,41.63,41.63,0,0,0-3.46-5.43h0l-.06-.08-.13-.18-.2-.26,0-.07a68.31,68.31,0,0,0-4.62-5.4l-.11-.11-.2-.22-.21-.21-.19-.2-.21-.22-.07-.07a102.66,102.66,0,0,0-10.37-9.15c-.69-.53-1.38-1-2.08-1.55l-.11-.08-.35-.26-.24-.17-.19-.13-1.31-.92a93.09,93.09,0,0,0-9.11-5.58l-.16-.08h0l-.08,0-.21-.11-.34-.18-.22-.12L38,25.18h0L37.7,25c-.2-.1-.4-.19-.59-.3h0l-.56-.28-.43-.21-.3-.14-.09,0c-.68-.33-1.35-.63-2-.92L33.39,23l-.06,0h0a46.56,46.56,0,0,0-7.41-2.56h0l-.1,0-.23-.06-.18,0-.32-.07-.15,0-.25-.05-.13,0L24.19,20l-.14,0L23.8,20l-.12,0-.34-.06-.12,0-.26,0-.12,0-.32,0-.13,0-.22,0H22l-.3,0h-.15l-.18,0H19.5a9.24,9.24,0,0,0-3.82.87h0l-.19.1-.07,0-.12.07-.07,0-.16.11-.08.05-.1.07-.07.06-.14.11-.08.06-.08.07-.08.07-.12.12-.08.07-.06.07-.07.08L14,21.8l-.05.06-.08.12,0,0-.12.18A6.53,6.53,0,0,0,13,26.92h0v0a16.83,16.83,0,0,0,.71,2.66,22.78,22.78,0,0,0,1.13,2.6A38.74,38.74,0,0,0,18.45,38h0l.21.29.18.24a69.66,69.66,0,0,0,5.07,5.89,1.2,1.2,0,0,1,.16.16c.06.06.12.13.19.19h0l.15.15.09.09h0A98.21,98.21,0,0,0,34.87,54.2l1.52,1.15.07,0,.47.34.16.12.29.21.29.2.14.1,1.33.94h0a93.24,93.24,0,0,0,9.16,5.6l0,0,.15.08h0l.06,0,.22.12.34.18.23.12.11.05.26.14,1.18.59.46.22.18.09.39.18.06,0c.87.41,1.71.79,2.54,1.14l.58.24a48.35,48.35,0,0,0,6.42,2.15h0l.11,0,.22.06.2,0,.3.07.17,0,.23,0,.14,0,.34.07.14,0,.25,0,.13,0,.34.06.12,0,.25,0,.12,0,.33,0,.12,0,.23,0,.13,0,.3,0h.32l.17,0h1.74a9.29,9.29,0,0,0,3.83-.86h0l.19-.1.06,0,.14-.08,0,0,.17-.11.07,0,.11-.07.07-.06.14-.11.08-.06a.27.27,0,0,1,.08-.07l.07-.07L73,67.2l.07-.07.07-.08a.23.23,0,0,0,.07-.07l.11-.13,0-.06.09-.12Z"/>
            <path class="cls-19" d="M38,25.19h0Z"/>
            <path class="cls-19" d="M39,25.73l0,0h0Z"/>
          </g>
          <g class="cls-20">
            <polygon class="cls-21" points="49.35 63.4 49.35 63.4 49.35 63.4 49.35 63.4"/>
            <path class="cls-21" d="M32.44,22.81h0l-.08-.17Zm41,43.76a4.9,4.9,0,0,0,.38-.62h0l0,0,.06-.12h0l0,0,0,0a6.91,6.91,0,0,0,.4-4.12h0a13.14,13.14,0,0,0-.51-2.06c0-.08,0-.15-.07-.23l0-.06L73.57,59a22.24,22.24,0,0,0-1.32-3,40.4,40.4,0,0,0-3.45-5.42h0l0-.07-.14-.18-.19-.26L68.36,50a64.27,64.27,0,0,0-4.61-5.38l-.1-.11-.21-.22-.2-.21-.19-.2-.22-.22-.06-.07A104.26,104.26,0,0,0,52.43,34.5c-.69-.53-1.38-1-2.08-1.55l-.1-.08-.36-.26-.23-.17-.19-.13-1.31-.92a93.65,93.65,0,0,0-9.08-5.56l-.16-.08h0l-.08,0-.21-.11-.34-.18-.22-.12L38,25.25h0l-.27-.14-.59-.29h0l-.56-.28-.43-.2-.3-.15-.08,0c-.68-.32-1.35-.63-2-.91l-.33-.15-.06,0h0A46.73,46.73,0,0,0,26,20.49h0l-.1,0-.23-.06-.19,0-.31-.07-.15,0-.25-.05-.13,0-.35-.07-.14,0L23.85,20l-.12,0L23.39,20l-.12,0-.25,0-.12,0-.32,0-.13,0-.22,0h-.14l-.29,0h-.15l-.18,0h-1.9a9.52,9.52,0,0,0-3.81.86h0l-.18.09-.07,0-.13.08-.07,0-.16.1-.07.05L15,21l-.08.06-.14.11-.08.06-.07.07a.27.27,0,0,0-.08.07l-.12.11-.08.08-.06.07-.07.07-.12.14-.05.06-.09.11,0,.05-.12.18a6.48,6.48,0,0,0-.73,4.7h0v0a16.35,16.35,0,0,0,.71,2.64,24.7,24.7,0,0,0,1.13,2.6A39.86,39.86,0,0,0,18.53,38h0l.21.28.18.24A66.49,66.49,0,0,0,24,44.43l.15.16.19.2h0l.15.16.09.09h0a97.62,97.62,0,0,0,10.34,9.12c.5.38,1,.77,1.52,1.14l.07.05.46.34.16.12.29.21.29.21.14.1,1.33.93h0a94.68,94.68,0,0,0,9.13,5.59l0,0,.15.09,0,0,.06,0,.22.11.34.18.23.12.11.06.26.13,1.17.59.46.22.18.09.39.18.06,0c.86.41,1.71.78,2.53,1.13L55,66a50,50,0,0,0,6.4,2.14h0l.11,0,.22,0,.2.05.3.07.16,0,.24,0,.14,0,.34.07.14,0,.25,0,.12,0,.34,0,.12,0,.26,0,.11,0,.33,0h.12l.23,0h.13l.29,0,.16,0h.52l.26,0h1.29a9,9,0,0,0,3.81-.86h0l.19-.1.06,0,.14-.08.06,0,.16-.11.08,0,.1-.07.07-.05.14-.11.08-.07.08-.07.07-.06.13-.12.07-.07.07-.08a.46.46,0,0,0,.07-.07,1.71,1.71,0,0,0,.11-.14l0,0,.09-.12Z"/>
            <path class="cls-21" d="M38,25.26h0Z"/>
            <path class="cls-21" d="M39,25.8l.06,0h0Z"/>
          </g>
          <g class="cls-22">
            <polygon class="cls-23" points="49.35 63.33 49.35 63.33 49.35 63.33 49.35 63.33"/>
            <path class="cls-23" d="M32.47,22.88h0l-.08-.16ZM73.35,66.51a3.9,3.9,0,0,0,.37-.62v0s0-.09.07-.13h0v0a7,7,0,0,0,.4-4.1h0a12.77,12.77,0,0,0-.51-2c0-.08,0-.15-.07-.23l0-.06L73.48,59a23.37,23.37,0,0,0-1.31-3,41.29,41.29,0,0,0-3.45-5.4h0l-.06-.07-.14-.19-.19-.25,0-.07a69.82,69.82,0,0,0-4.6-5.37.52.52,0,0,1-.1-.11l-.21-.21-.2-.21-.19-.2-.22-.22-.07-.07a103.85,103.85,0,0,0-10.31-9.1c-.68-.52-1.37-1-2.07-1.54l-.1-.08-.35-.25-.24-.17-.19-.14-1.3-.91a94,94,0,0,0-9.06-5.55l-.15-.08h0l-.08,0-.2-.11-.34-.18-.22-.12L38,25.33h0l-.27-.13-.59-.3h0l-.55-.27-.43-.21-.3-.15-.08,0c-.68-.32-1.35-.62-2-.91l-.33-.14,0,0h0A47.5,47.5,0,0,0,26,20.57h0l-.1,0-.23-.06-.19,0-.31-.07-.16,0-.24-.05-.13,0-.34-.07-.14,0-.26-.05-.11,0L23.45,20l-.12,0-.25,0L23,20l-.32,0-.14,0-.21,0h-.14l-.29,0h-.15l-.18,0H19.64a9.51,9.51,0,0,0-3.8.85h0l-.18.09-.07,0-.13.08-.07,0-.16.1-.07.05-.1.07-.07.06-.14.1-.08.07-.08.06a.6.6,0,0,1-.08.08l-.12.11-.07.08a.46.46,0,0,0-.07.07.46.46,0,0,1-.07.07l-.11.13-.05.07-.09.11,0,.05-.12.17A6.44,6.44,0,0,0,13.14,27h0v0a16.35,16.35,0,0,0,.71,2.64A24.43,24.43,0,0,0,15,32.28a39.19,39.19,0,0,0,3.64,5.77h0l.21.28.18.24a65.76,65.76,0,0,0,5,5.85l.15.16.19.19h0l.15.15.09.09h0A98.22,98.22,0,0,0,35,54.12l1.51,1.14.08.05.46.34a.91.91,0,0,0,.16.11l.29.21.28.21.14.1c.44.31.88.63,1.33.93h0a96.18,96.18,0,0,0,9.1,5.58l0,0,.15.08h0l.06,0,.22.12.34.18.23.12.11,0,.26.14,1.16.58.46.23.18.08.39.19.06,0c.86.41,1.7.78,2.53,1.13L55,66a48.67,48.67,0,0,0,6.37,2.14h0l.1,0,.22.06.2,0,.3.07.16,0,.24.05.14,0,.33.07.14,0,.25.05.13,0,.33.06.13,0,.25,0,.11,0,.33,0,.12,0,.22,0,.14,0,.29,0h.16l.17,0H67.7A9,9,0,0,0,71.5,68h0l.19-.1.06,0,.14-.08,0,0,.17-.1.07-.05.1-.07.07-.06.14-.11.08-.06.08-.07.08-.06.12-.12a.23.23,0,0,1,.07-.07l.07-.08a.46.46,0,0,1,.07-.07,1.71,1.71,0,0,0,.11-.14l0,0,.09-.12Z"/>
            <path class="cls-23" d="M38,25.33h0Z"/>
            <path class="cls-23" d="M39,25.87l0,0h0Z"/>
          </g>
          <g class="cls-24">
            <polygon class="cls-25" points="49.35 63.27 49.35 63.27 49.34 63.27 49.35 63.27"/>
            <path class="cls-25" d="M32.49,23h0l-.08-.16ZM73.27,66.45a5.51,5.51,0,0,0,.37-.61h0v0l.06-.13h0l0,0v0a7,7,0,0,0,.39-4.09h0a13,13,0,0,0-.51-2.05,1.87,1.87,0,0,0-.07-.22l0-.06-.12-.33A23.27,23.27,0,0,0,72.08,56a40.24,40.24,0,0,0-3.43-5.38h0l-.06-.08-.13-.18-.2-.25L68.21,50a65.57,65.57,0,0,0-4.59-5.35l-.1-.11-.21-.22-.2-.21c-.06-.06-.12-.13-.19-.19l-.21-.22-.07-.07a103.07,103.07,0,0,0-10.28-9.07c-.68-.52-1.37-1-2.06-1.54L50.19,33l-.35-.25-.24-.17-.18-.14-1.3-.91a98,98,0,0,0-9-5.53l-.16-.08h0l-.08,0-.21-.11-.33-.18-.23-.11L38,25.4h0l-.26-.13-.59-.3h0l-.55-.27-.43-.21-.3-.14-.08,0c-.67-.32-1.34-.63-2-.91l-.32-.14-.06,0h0A49.79,49.79,0,0,0,26,20.65h0l-.1,0-.22-.06-.19,0-.31-.07-.16,0-.24-.05-.13,0-.34-.07-.14,0L24,20.2l-.12,0-.34-.06-.12,0-.25,0-.12,0-.32,0-.13,0-.21,0-.14,0-.29,0h-.15l-.18,0H19.71a9.46,9.46,0,0,0-3.79.85h0l-.18.1-.07,0-.13.07-.06,0-.16.1-.08.05-.09.07-.08.06-.14.1a.27.27,0,0,1-.08.07l-.07.06-.08.08-.12.11-.08.08-.06.06-.07.08-.11.13-.05.06-.09.11,0,0L14,22.4a6.47,6.47,0,0,0-.71,4.66h0v0A16.53,16.53,0,0,0,14,29.73a23.33,23.33,0,0,0,1.13,2.58,39.37,39.37,0,0,0,3.62,5.75h0l.21.28.18.24a68.63,68.63,0,0,0,5,5.83l.15.16c.06.06.12.13.19.19h0l.15.15.09.09h0A97.44,97.44,0,0,0,35,54.07c.5.39,1,.77,1.51,1.14l.07.06.46.33.16.12.29.21.29.2.13.1c.44.32.88.63,1.33.93h0a92.46,92.46,0,0,0,9.08,5.56l-.05,0,.15.08h0l.06,0,.22.12.34.17.23.12.11.06.26.13,1.16.59.45.22.19.09.38.18.06,0c.86.41,1.7.78,2.52,1.12l.58.25A48.42,48.42,0,0,0,61.31,68h0l.1,0,.22,0,.2,0,.29.07.17,0,.23.05.14,0,.34.07.14,0,.25,0,.12,0,.33.05.13,0,.25,0h.11l.33,0h.12l.22,0,.14,0,.29,0,.15,0h.52l.26,0h1.28A8.58,8.58,0,0,0,71.42,68h0l.19-.09.06,0,.14-.08.06,0,.16-.11.07,0,.11-.07.07,0,.14-.11.07-.06.08-.07.08-.07.12-.12.07-.06.07-.09L73,66.8a1.34,1.34,0,0,1,.11-.14l.05-.06.09-.11Z"/>
            <path class="cls-25" d="M38,25.4h0Z"/>
            <path class="cls-25" d="M39,25.94l.06,0h0Z"/>
          </g>
          <g class="cls-26">
            <polygon class="cls-27" points="49.34 63.2 49.34 63.2 49.34 63.2 49.34 63.2"/>
            <path class="cls-27" d="M32.52,23h0l-.08-.17ZM73.19,66.39c.13-.2.26-.4.37-.61h0l0,0,.06-.12h0v0A6.84,6.84,0,0,0,74,61.56h0a15.19,15.19,0,0,0-.51-2c0-.07,0-.15-.08-.23l0,0c0-.11-.07-.22-.11-.33A23.16,23.16,0,0,0,72,56a40.82,40.82,0,0,0-3.43-5.37h0l-.06-.07-.13-.18-.19-.25,0-.07a67.24,67.24,0,0,0-4.58-5.33l-.1-.11-.21-.22-.2-.21L62.86,44l-.21-.22-.07-.07a103.58,103.58,0,0,0-10.25-9c-.68-.52-1.37-1-2.06-1.54l-.1-.08-.35-.25-.24-.17-.19-.13-1.29-.91a94.23,94.23,0,0,0-9-5.52L38.94,26h0l-.08,0-.21-.11-.33-.18-.23-.11L38,25.47h0l-.26-.13c-.19-.1-.39-.19-.58-.3h0l-.55-.28-.42-.2-.3-.15-.08,0-2-.91-.32-.14-.06,0h0a50,50,0,0,0-7.32-2.55h0l-.1,0-.23-.06-.18,0-.31-.07-.16,0-.24-.05-.13,0-.34-.07-.14,0-.25,0-.12,0-.33-.06h-.12l-.25,0-.12,0-.32,0-.13,0-.21,0-.14,0L22,20h-.15l-.18,0H19.77a9.49,9.49,0,0,0-3.76.84h0l-.18.1-.07,0-.12.07-.07,0-.16.1-.07.05-.1.07-.07.06-.14.1-.08.07-.07.06-.08.07-.12.12-.08.07-.06.07-.07.08a.69.69,0,0,0-.11.13l-.05.06-.09.11,0,.05a1.09,1.09,0,0,0-.13.17,6.45,6.45,0,0,0-.71,4.65h0v0a16.06,16.06,0,0,0,.71,2.61,22.29,22.29,0,0,0,1.12,2.57,40.17,40.17,0,0,0,3.62,5.74h0l.21.28c.06.07.11.15.17.23a66.86,66.86,0,0,0,5,5.82l.15.16.19.19h0l.15.16.09.08h0A96.78,96.78,0,0,0,35,54c.5.39,1,.77,1.51,1.14l.07,0,.46.34.15.11.29.21.29.21.14.09q.64.48,1.32.93h0a93.89,93.89,0,0,0,9.05,5.55l-.05,0,.15.08h0l.06,0,.22.12L49,63l.23.12.1.05.26.14,1.16.58.46.22.18.09.38.18.06,0c.86.41,1.69.78,2.51,1.12l.58.24a48.36,48.36,0,0,0,6.34,2.14h0l.1,0,.22.06.19,0,.3.07.17,0,.23,0,.14,0,.33.07.14,0,.25,0,.12,0,.34.06.12,0,.25,0,.11,0,.33,0,.12,0,.22,0,.14,0,.29,0h.15l.17,0h1.88a8.54,8.54,0,0,0,3.77-.84h0l.19-.1.06,0,.14-.07,0,0,.16-.1.08,0,.1-.07.07-.06.14-.1.07-.07a.27.27,0,0,0,.08-.07l.08-.06L72.7,67a.46.46,0,0,0,.07-.07l.07-.08s0,0,.06-.06L73,66.6l0-.06.09-.11Z"/>
            <path class="cls-27" d="M38,25.47h0Z"/>
            <path class="cls-27" d="M39,26l.05,0h0Z"/>
          </g>
          <g class="cls-28">
            <polygon class="cls-29" points="49.34 63.14 49.34 63.14 49.34 63.14 49.34 63.14"/>
            <path class="cls-29" d="M32.55,23.11h0L32.46,23ZM73.11,66.33a5.41,5.41,0,0,0,.36-.61h0v0a.67.67,0,0,0,.06-.12h0v0a6.86,6.86,0,0,0,.38-4h0a13.7,13.7,0,0,0-.51-2l-.08-.23,0,0c0-.11-.07-.22-.11-.33A22.45,22.45,0,0,0,71.91,56a40.55,40.55,0,0,0-3.42-5.35h0l0-.07-.14-.18a2.35,2.35,0,0,0-.19-.25l0-.07a68.9,68.9,0,0,0-4.56-5.32l-.11-.11-.2-.21-.2-.21L62.8,44l-.22-.21-.06-.07a107,107,0,0,0-10.23-9c-.67-.51-1.36-1-2-1.53l-.1-.08-.35-.25-.24-.17-.18-.13-1.29-.91a95.65,95.65,0,0,0-9-5.5L38.94,26h0l-.08,0-.2-.11-.34-.18-.22-.11L38,25.54h0l-.26-.14-.58-.29,0,0h0l-.54-.27-.43-.21-.29-.15-.09,0c-.67-.33-1.33-.63-2-.91l-.33-.14,0,0h0a49.74,49.74,0,0,0-7.29-2.55h0l-.1,0-.23-.06-.18,0-.31-.07-.16,0-.24,0-.13,0-.34-.06-.14,0-.25-.05-.11,0-.34-.06h-.12l-.25,0-.11,0-.32,0-.13,0-.22,0-.13,0-.29,0h-.15l-.18,0H19.84a9.62,9.62,0,0,0-3.75.83h0l-.18.09-.06,0-.13.07-.07,0-.15.1-.08,0-.1.07-.07.06-.14.1a.27.27,0,0,1-.08.07l-.07.06-.08.07-.12.12-.07.07-.06.07a.46.46,0,0,0-.07.07l-.12.13,0,.06-.09.12,0,0-.12.18a6.37,6.37,0,0,0-.7,4.62h0v0a15,15,0,0,0,.7,2.61,24.05,24.05,0,0,0,1.12,2.56,39.31,39.31,0,0,0,3.61,5.71h0l.21.28.18.24a67.85,67.85,0,0,0,5,5.8l.15.15a1.7,1.7,0,0,0,.19.19h0l.15.15.09.09h0a97.32,97.32,0,0,0,10.22,9l1.5,1.13.07.06.46.33.16.12.29.2.28.21.14.1c.44.31.87.62,1.32.92h0a91.31,91.31,0,0,0,9,5.53l-.05,0,.15.08h0l.06,0,.22.12L49,63l.22.12.11.06.26.13,1.15.58.46.22.18.09.38.18.07,0c.84.41,1.68.77,2.5,1.12l.57.24a47.52,47.52,0,0,0,6.32,2.13h0l.1,0,.22,0,.19,0,.3.07.16,0,.24,0,.13,0,.34.07.14,0,.24,0,.13,0,.33.06.12,0,.25,0h.11l.33.05h.12l.22,0,.13,0,.29,0,.16,0h.33l.18,0h.37l.64,0h.52a8.55,8.55,0,0,0,3.75-.83h0l.18-.1.06,0,.14-.08,0,0,.17-.11.07,0,.1-.07.07,0,.14-.11.08-.06.08-.07L72.5,67l.12-.12.07-.07.07-.08.06-.07.12-.13,0-.06a.44.44,0,0,0,.08-.11Z"/>
            <path class="cls-29" d="M38,25.54h0Z"/>
            <path class="cls-29" d="M39.05,26.08l.05,0h0Z"/>
          </g>
          <g class="cls-30">
            <polygon class="cls-31" points="49.34 63.07 49.34 63.07 49.34 63.07 49.34 63.07"/>
            <path class="cls-31" d="M32.57,23.19h0L32.49,23ZM73,66.27a4.72,4.72,0,0,0,.37-.61v0l.06-.13h0l0,0,0,0a6.78,6.78,0,0,0,.38-4h0a14,14,0,0,0-.51-2l-.07-.22,0-.06-.12-.33a24.21,24.21,0,0,0-1.3-2.91,40.41,40.41,0,0,0-3.42-5.33h0l-.06-.07-.14-.18A2.35,2.35,0,0,0,68,50.1L68,50a66.4,66.4,0,0,0-4.55-5.3l-.1-.11-.21-.21-.2-.21-.19-.2-.21-.21-.07-.07a105,105,0,0,0-10.19-9c-.68-.52-1.36-1-2-1.53l-.1-.07-.35-.26-.23-.16-.19-.14-1.29-.9a93.06,93.06,0,0,0-8.95-5.49L39,26.1h0l-.08,0L38.7,26l-.34-.18-.22-.11L38,25.61h0l-.26-.14-.58-.29h0l-.55-.27-.42-.21-.3-.14-.08,0c-.67-.32-1.33-.62-2-.91l-.32-.14-.06,0h0a51.44,51.44,0,0,0-7.27-2.54h0l-.1,0-.22-.06-.19,0-.3-.07-.16,0L25,20.61l-.13,0-.34-.06-.13,0-.25,0-.12,0-.33-.05-.12,0-.25,0-.12,0-.31,0-.13,0-.22,0-.13,0-.29,0H22l-.17,0H19.91a9.61,9.61,0,0,0-3.74.82h0L16,21l-.07,0-.13.07-.06,0-.16.1-.07,0-.1.07-.07.06-.14.1-.08.07-.07.06-.08.07-.12.11-.07.08a.23.23,0,0,0-.07.07.46.46,0,0,1-.07.07l-.11.13,0,.06-.08.11,0,.05-.12.17a6.4,6.4,0,0,0-.7,4.61h0v0a15.25,15.25,0,0,0,.71,2.6,22.84,22.84,0,0,0,1.12,2.55A39.49,39.49,0,0,0,19,38.08h0c.1.12.16.21.21.28l.18.23a67.76,67.76,0,0,0,5,5.78l.15.16.19.19h0l.15.15.09.09h0a97.88,97.88,0,0,0,10.19,9c.5.38,1,.76,1.5,1.13l.07.05.46.34.15.11.29.21.28.2.14.1,1.31.92h0a95.35,95.35,0,0,0,9,5.52l-.05,0,.15.08h0l.06,0,.22.12.34.18.22.11.11.06.26.13,1.15.58.45.22.18.09.38.18.07,0c.84.41,1.68.77,2.49,1.12l.57.24a47.8,47.8,0,0,0,6.3,2.13h0l.1,0,.22.06.19,0L62,68l.16,0,.23,0,.14,0,.34.07.13,0,.25,0,.12,0,.33.06.12,0,.25,0,.11,0,.33,0,.12,0,.22,0H65l.29,0h.15l.17,0h1.87a8.24,8.24,0,0,0,3.74-.82h0l.19-.09.06,0,.13-.08.06,0,.16-.1.07,0,.1-.07.07,0,.14-.11.08-.06a.27.27,0,0,1,.08-.07l.07-.07.12-.11a.46.46,0,0,1,.07-.07l.07-.08.06-.07.12-.13,0-.06.09-.11Z"/>
            <path class="cls-31" d="M38,25.61h0Z"/>
            <path class="cls-31" d="M39.05,26.15l.05,0h0Z"/>
          </g>
          <g class="cls-32">
            <polygon class="cls-33" points="49.34 63.01 49.34 63.01 49.34 63 49.34 63.01"/>
            <path class="cls-33" d="M32.6,23.27h0l-.08-.17ZM72.94,66.21a4.6,4.6,0,0,0,.37-.6h0l0,0,.06-.12h0v0a6.87,6.87,0,0,0,.38-4h0a12.46,12.46,0,0,0-.51-2l-.07-.22,0-.06L73,58.81a22,22,0,0,0-1.3-2.9,39.38,39.38,0,0,0-3.4-5.31h0l-.06-.08-.13-.18L68,50.1l0-.07a68.24,68.24,0,0,0-4.54-5.29l-.11-.1-.2-.22-.2-.2-.19-.2-.21-.22-.07-.06a96.2,96.2,0,0,0-10.16-9q-1-.78-2-1.53l-.11-.07-.34-.25-.24-.17-.18-.13L48,31.72a94.45,94.45,0,0,0-8.92-5.47L39,26.17h0l-.07,0L38.7,26l-.33-.17-.22-.12L38,25.68h0l-.26-.14-.58-.29h0L36.63,25l-.42-.2-.29-.15-.09,0c-.66-.32-1.32-.62-2-.9l-.32-.14-.06,0h0A48.85,48.85,0,0,0,26.23,21h0l-.1,0-.22-.06-.19,0-.3-.07-.16,0L25,20.69l-.13,0-.33-.06-.14,0-.25-.05-.11,0-.34-.05-.12,0-.24,0-.12,0-.32,0-.13,0-.21,0-.13,0-.29,0H22l-.17,0H20a9,9,0,0,0-3.73.82h0l-.18.1-.07,0-.12.08-.07,0-.16.11-.07.05-.1.06-.07.06-.14.1-.08.07-.07.06-.08.07-.11.11-.08.08-.06.06-.07.08-.11.13,0,.06a.44.44,0,0,0-.08.11l0,0-.12.18a6.34,6.34,0,0,0-.69,4.59h0v0a15.51,15.51,0,0,0,.7,2.59,22.84,22.84,0,0,0,1.12,2.55A39.36,39.36,0,0,0,19,38.09h0l.21.28.18.23a65.52,65.52,0,0,0,5,5.76l.15.16.19.19h0l.15.16L25,45h0a98.51,98.51,0,0,0,10.17,9L36.65,55l.07.05.45.33.16.11.28.21.29.21L38,56l1.31.92h0a92.67,92.67,0,0,0,9,5.5l0,0,.14.08h0l.05,0,.22.12.34.17.22.12.11,0,.26.14,1.14.58.45.22.18.08.38.18.07,0c.84.4,1.67.77,2.48,1.12l.57.24a46,46,0,0,0,6.28,2.12h0l.1,0,.22.05.19,0,.3.07.16,0,.23,0,.14,0,.33.07.14,0,.24,0,.12,0,.33.06.13,0,.24,0h.12l.32,0h.12l.22,0,.13,0,.29,0,.15,0h.17l.16,0h1.7a9,9,0,0,0,3.73-.82h0l.18-.1.06,0,.14-.07,0,0,.16-.1.08,0,.1-.07.07,0,.13-.11.08-.06.08-.07.07-.06.12-.12.07-.06.07-.08.06-.07.12-.13,0-.06.09-.11Z"/>
            <path class="cls-33" d="M38,25.69h0Z"/>
            <path class="cls-33" d="M39.06,26.22l0,0h0Z"/>
          </g>
        </g>
        <path class="cls-9" d="M16.65,40.85c.18.14.31.31.3.4l-.08,1.36c0,.12-.21.09-.44-.06l-2.7-1.69-.12-.08c-.18-.14-.31-.31-.3-.41L13.4,39c0-.13.2-.1.44,0l2.69,1.69Z"/>
        <path class="cls-9" d="M7.39,22a2.21,2.21,0,0,1,.94,1.23c.13,2.55,1.22,5.68,3.27,9.23.26.45.11.71-.37.6L5.44,31.9a35.11,35.11,0,0,1-5.05-11s0-.06,0-.09V20.7a13.68,13.68,0,0,1-.31-4l7.23,5.2Z"/>
        <path class="cls-9" d="M81.84,72.35a1.25,1.25,0,0,1,.25.27l1.28,2c.12.18,0,.27-.18.2L80.82,74a1.19,1.19,0,0,1-.33-.18,1.1,1.1,0,0,1-.26-.27l-1.27-2c-.12-.18,0-.27.17-.2l2.38.79A1.55,1.55,0,0,1,81.84,72.35Z"/>
        <path class="cls-9" d="M6.81,14.77a1,1,0,0,1,.25.26l1.28,2c.12.18,0,.27-.17.19l-2.38-.78a1.4,1.4,0,0,1-.33-.19A1,1,0,0,1,5.21,16L3.93,14c-.12-.18,0-.26.17-.19l2.38.79A1.08,1.08,0,0,1,6.81,14.77Z"/>
        <path class="cls-9" d="M73.67,47.83a.74.74,0,0,1,.32.43L73.9,49.6c0,.12-.2.1-.44-.06l-2.69-1.68-.12-.08c-.18-.14-.31-.31-.3-.41L70.43,46c0-.12.21-.09.44,0l2.7,1.69Z"/>
        <path class="cls-9" d="M34.33,17.64l.11.09,2.3,2.14c.2.19.27.37.14.4l-1.43.32a.73.73,0,0,1-.48-.2l-.11-.09-2.28-2.13c-.22-.2-.28-.37-.14-.4l1.4-.33A.83.83,0,0,1,34.33,17.64Z"/>
        <path class="cls-9" d="M74.06,73.18l.11.09L81,78.87a20.54,20.54,0,0,1-7.57.22,49.65,49.65,0,0,1-9.55-2.32l-2.32-5.06c-.19-.42.05-.6.58-.45a26.44,26.44,0,0,0,10.43,1.29A2.52,2.52,0,0,1,74.06,73.18Z"/>
        <path class="cls-9" d="M56.17,30.26c.67.51,1.33,1,2,1.55,3.12,2.48,6.08,5,8.84,7.64l-4.91-.14a2.81,2.81,0,0,1-1.37-.64l-.26-.21q-3.18-2.85-6.67-5.53c-2.28-1.74-4.63-3.42-7-5l-.29-.2a2.4,2.4,0,0,1-.91-1.12l-1.07-4.44c1,.62,2,1.25,3,1.91l.73.47.73.5.06,0,.66.45.09.05.63.44.1.07.61.43.12.08.6.43.13.08.57.42.15.1.55.4.17.12.54.4.16.12.54.4.17.13.46.34.25.19.2.16Z"/>
        <path class="cls-9" d="M23.39,11.86l2.32,5.05c.2.43-.05.61-.57.46a26.59,26.59,0,0,0-10.43-1.29,2.45,2.45,0,0,1-1.46-.63l-.11-.08L6.28,9.76a16.83,16.83,0,0,1,4.59-.45h.36A43.49,43.49,0,0,1,23.39,11.86Z"/>
        <path class="cls-9" d="M81.86,56.72a35.1,35.1,0,0,1,5,11.08.64.64,0,0,1,0,.07s0,0,0,.06a13.59,13.59,0,0,1,.31,4L80,66.71l-.11-.08A2.25,2.25,0,0,1,79,65.4c-.12-2.54-1.21-5.68-3.27-9.23-.26-.45-.12-.71.37-.61Z"/>
        <g>
          <path class="cls-9" d="M39.47,56.38,39,57.51l-1.35-.95a.71.71,0,0,1-.14-.1l-.3-.21L37,56l-.16-.12-.47-.34-1.6-1.2c-1.44-1.11-2.86-2.26-4.22-3.42l1.12-.61.63.54c1,.88,2.13,1.74,3.23,2.58Q37.43,55,39.47,56.38Z"/>
          <path class="cls-9" d="M54.11,64.45l1,1.93-.59-.25c-.84-.35-1.69-.73-2.57-1.14l-.07,0-.39-.19-.18-.09-.47-.22q-2.2-1.08-4.4-2.33l-.28-1.57q2,1.14,4.06,2.13,1.2.6,2.37,1.11l.09,0,.08,0C53.2,64.08,53.66,64.27,54.11,64.45Z"/>
          <path class="cls-9" d="M65.94,67.13l2.12,2.2H66.3l-.17,0H65.8l-.3,0-.14,0-.23,0-.12,0-.33,0-.12,0-.25,0-.13,0L63.84,69l-.13,0-.25,0-.15,0L63,68.85l-.14,0-.24,0-.17,0-.31-.07-.2,0-.23-.06-.1,0L60,66.41A21.53,21.53,0,0,0,65.94,67.13Z"/>
          <path class="cls-9" d="M74.5,65.58a4.91,4.91,0,0,1-.66,1.29l0,0-.1.12,0,.06-.12.14-.06.07-.08.08-.07.07-.13.12-.08.07a1061568493228.12,1061568493228.12,0,0,0-.16.14l-.14.11-.07.06-.11.07-.07,0-.17.11-.06,0-.14.09-.07,0-.19.11h0l-2.49-2.11a4.92,4.92,0,0,0,1.45-1.07l0,0,.12-.15,0,0,.08-.09a.18.18,0,0,1,0-.07l.06-.09.09-.14,0-.05a2.37,2.37,0,0,0,.19-.35l0,0a.61.61,0,0,1,0-.12.08.08,0,0,0,0,0l.08-.18a.76.76,0,0,1,0-.11v0Z"/>
          <path class="cls-9" d="M25.72,20.09l1.6,2.13c-.61-.15-1.2-.28-1.78-.39l-.14,0-.17,0-.3-.05-.12,0-.25,0h-.09l-.32,0h-.06l-.31,0h0l-.35,0a15.77,15.77,0,0,0-2-.05L19.23,19.3h1.93l.19,0h.14l.31,0h.14l.22,0h.13l.33,0h.12l.26,0,.12,0,.34.06.12,0,.26,0,.14,0,.35.07.13,0,.26.06.16,0,.31.07.19.05.23,0Z"/>
          <path class="cls-9" d="M40.89,26.49l.28,1.58c-1.35-.76-2.7-1.48-4.06-2.14-.81-.4-1.61-.77-2.39-1.11l-.07,0-.09,0-1.37-.58-1-1.91,1,.42.06,0,.33.15c.66.29,1.34.59,2,.92l.09,0,.3.15.44.21C38,24.89,39.43,25.67,40.89,26.49Z"/>
          <path class="cls-9" d="M52.58,34.25q2.18,1.68,4.22,3.42l-1.12.61-.63-.54c-1-.88-2.13-1.74-3.23-2.59q-1.95-1.49-4-2.9l.44-1.13,1.32.92.19.14a2.2,2.2,0,0,0,.25.17l.35.26.11.08C51.19,33.2,51.89,33.73,52.58,34.25Z"/>
          <path class="cls-9" d="M21.63,40.21l-.07-.07-.06-.08q-.62-.77-1.17-1.53L18.11,38l.21.29.18.24a68.25,68.25,0,0,0,5.13,6l.16.17.19.19h0l.16.16.08.09,1.73,0A64.94,64.94,0,0,1,21.63,40.21Z"/>
          <path class="cls-9" d="M15.36,20.19l2.49,2.1a4.92,4.92,0,0,0-1.44,1.07l0,0-.12.14-.05.06-.06.08-.22.32,0,0c-.07.12-.14.24-.2.36v0c-.06.12-.11.23-.16.35s0,.07,0,.11,0,0,0,.05L12.79,23a5.35,5.35,0,0,1,.54-1.1l.13-.18,0-.05.09-.11.05-.06.12-.14.07-.08.07-.07.07-.08.13-.12.08-.07.07-.06.09-.07.14-.11.08-.06.1-.07.07-.06.17-.1.07,0,.12-.08.08,0,.18-.1Z"/>
          <path class="cls-9" d="M72.68,56.14a23.62,23.62,0,0,1,1.33,3,3.38,3.38,0,0,1,.11.34l0,0c0,.08,0,.16.08.24a13.29,13.29,0,0,1,.51,2.1L72,60.37a15.54,15.54,0,0,0-.65-2.51,24.44,24.44,0,0,0-1.23-2.78Z"/>
          <path class="cls-9" d="M63.08,43.52l.07.07.21.23.2.2.2.21.21.22.11.12A68.11,68.11,0,0,1,68.75,50l0,.07c.07.08.13.17.2.26l.13.18.06.08L67,50.1a58.85,58.85,0,0,0-4.44-5.3c-.39-.42-.78-.83-1.18-1.24Z"/>
          <path class="cls-9" d="M15.29,28.25a14.33,14.33,0,0,0,.65,2.51,25.36,25.36,0,0,0,1.23,2.79l-2.55-1a25,25,0,0,1-1.33-3,16.1,16.1,0,0,1-.71-2.69v0Z"/>
        </g>
        <path class="cls-34" d="M59.61,33l.57.48.19.15.82.68.23.2.33.28L62,35l.36.31.2.17.9.78.14.12.89.79.14.13.88.79.11.1.89.82.49.46,7-9.3-.47-.44,0,0-.9-.82a.94.94,0,0,1-.1-.1L71.61,28l-.15-.13-.88-.78-.14-.13-.9-.78-.06-.05L69.34,26,69,25.68l-.25-.21-.33-.29-.16-.13L68.17,25l-.82-.68-.06,0-.13-.11-.58-.47-.11-.09-.07-.06-.59-.48L65.74,23h0l-.6-.48-.07-.05-.66-.52-.17-.14L64,21.65l-.28-.21-.6-.47h0l-.48-.36-.21-.16-.24-.19L61.85,20l-.09-.07-.17-.13-.39-.29-.15-.11-.16-.12L60.58,19l-.24-.17-.16-.12-.24-.17-.31-.23-.15-.1-.17-.13,0,0-.38-.27-.12-.09-.18-.12-.42-.3-.12-.08-.2-.14-.41-.29-.1-.07,0,0-.6-.42-.08-.06L56.21,16,56,15.79l-.06,0-.12-.08,0,0,0,0-.16-.11h0l-.27-.18-.11-.08-.73-.48-.11-.07,0,0-.24-.15-.43-.29-.13-.08-.08-.05,0,0h0L53.25,14l-.09-.06-1-.66-.05,0-.61-.38-7,9.3.66.41,1,.61.28.18,0,0,.78.5.27.19.73.47.38.26h0l.15.11,0,0,0,0,.12.09.06,0,.66.45.09.05.63.44.1.07.61.43.12.08.6.43.13.08h0l.52.37a.1.1,0,0,1,0,0h0l.15.1.55.4.17.12.54.4.16.12.54.4.17.13.46.34.25.19h0l.2.16.48.36.89.69.19.15.91.71.61.49.66.54Z"/>
        <path class="cls-34" d="M11.87,9.35l.36,0h0l.44,0h.12l.45.05h.08l.41,0,.11,0,.48.06.09,0,.43.06H15l.5.09.19,0,.16,0,.18,0,.2,0,.14,0,.23,0,.16,0,.22.05.13,0,.24.05.76.17h0l.4.1.51.13.13,0,.54.14h0l.54.14.15.05.53.15.09,0,.4.12.16,0,.36.11.15,0,1,.32.36.13,7-9.3-.3-.11h0l-.21-.06h0l-.24-.08-.13,0L29,2.09l-.13,0-.38-.11-.13,0-.47-.14h-.06l-.52-.15-.08,0-.54-.15-.09,0L26,1.25h0l-.52-.13h-.11L25.19,1,25,1l-.16,0-.21,0-.18,0-.17,0-.21,0-.15,0L23.62.69h0L22.87.55l-.1,0-.24,0h-.08L22,.41,22,.39,21.5.32h-.06l-.4,0H21L20.53.19h-.1l-.36,0H20l-.41,0h-.1l-.39,0h-.48L18.2,0h-.36a16.71,16.71,0,0,0-4.58.45l-7,9.3a16.83,16.83,0,0,1,4.59-.45h.36l.43,0Z"/>
        <path class="cls-34" d="M87.07,68.61s0,.06,0,.09a.43.43,0,0,0,0,.11.77.77,0,0,0,0,.15s0,.07,0,.1a.77.77,0,0,1,0,.15s0,.08,0,.11,0,.1,0,.14l0,.12s0,.08,0,.13v.13a.41.41,0,0,1,0,.11v.13a.53.53,0,0,1,0,.13.34.34,0,0,0,0,.1v.48a.57.57,0,0,1,0,.13V71a.45.45,0,0,1,0,.11v.24a.45.45,0,0,1,0,.11v.09c0,.1,0,.2,0,.3h0l7-9.3c0-.1,0-.21,0-.31v-1a.34.34,0,0,1,0-.1.61.61,0,0,0,0-.14v-.1s0-.09,0-.14v-.11s0-.09,0-.13v-.17a.28.28,0,0,0,0-.09.45.45,0,0,0,0-.11.59.59,0,0,0,0-.14.31.31,0,0,0,0-.1c0-.06,0-.11,0-.17a.28.28,0,0,1,0-.09l0-.16a.44.44,0,0,0,0-.1v-.1c0-.08,0-.16,0-.24s0-.07,0-.1,0-.22-.07-.33a.13.13,0,0,1,0-.06v0h0v0c0-.07,0-.13,0-.2s0,0,0-.06,0-.07,0-.1,0-.12,0-.18a.36.36,0,0,0,0-.11,1.8,1.8,0,0,1,0-.19l0-.1c0-.09,0-.18-.07-.27h0L93.49,57a.19.19,0,0,0,0-.08,1.87,1.87,0,0,0-.07-.22l0-.12-.06-.18s0-.08,0-.13a.16.16,0,0,0,0-.09.32.32,0,0,0,0-.09l0-.12a1.59,1.59,0,0,0-.07-.2.49.49,0,0,0,0-.11,2,2,0,0,0-.08-.22l0-.09c0-.09-.07-.18-.1-.27s0,0,0-.05h0c-.08-.21-.16-.42-.25-.64l0-.07L92.42,54l0-.08-.07-.18,0-.07-.06-.11-.09-.22-.06-.13L92,53l-.06-.13-.1-.21-.06-.13,0-.09-.06-.13-.06-.13L91.47,52l-.07-.14-.11-.22s-.05-.09-.07-.13l-.12-.23L91,51.15l0-.06-.08-.15-.09-.16c0-.07-.07-.14-.11-.2l-.09-.17-.11-.2a1.62,1.62,0,0,1-.1-.18l-.11-.18-.11-.2,0,0-.08-.13L90,49.28a2,2,0,0,1-.11-.2l-.12-.2a1.74,1.74,0,0,1-.11-.18,2.39,2.39,0,0,1-.13-.21l-.12-.18a2.39,2.39,0,0,0-.13-.21.41.41,0,0,0-.05-.09l0-.06-.33-.51v0h0l-7,9.3.33.53.1.15a2.39,2.39,0,0,0,.13.21,1.74,1.74,0,0,0,.11.18l.13.22.1.17a2.39,2.39,0,0,1,.13.21l.11.19.12.19c0,.06.07.12.1.19a1.18,1.18,0,0,1,.11.19,1.74,1.74,0,0,1,.11.18l.1.18a2,2,0,0,1,.11.2l.09.16a2.12,2.12,0,0,1,.11.21l.09.16.12.21.06.13.12.22.07.14.11.22.07.13c0,.07.07.15.11.22l.07.14.1.21.06.13a2,2,0,0,1,.1.21l.06.13a2,2,0,0,1,.1.21l.06.14.09.2.06.13c0,.08.07.16.1.23l0,.09c0,.08.07.17.11.25l0,.08c.09.22.18.44.26.66h0l.11.3,0,.08.09.24,0,.09.08.21a.56.56,0,0,0,0,.12l.06.19s0,.08,0,.12l.06.2a1,1,0,0,1,0,.1c0,.07,0,.15.07.23l0,.07.09.3h0c0,.09,0,.19.08.28l0,.08a1.46,1.46,0,0,0,.05.2l0,.1c0,.07,0,.13,0,.2a.29.29,0,0,1,0,.09l.06.26v0h0v0s0,0,0,.06,0,.22.07.33l0,.1C87,68.44,87.06,68.53,87.07,68.61Z"/>
        <path class="cls-35" d="M92.6,66.91l.21-.27a.21.21,0,0,1,0-.06l0,0,.07-.11.06-.09.07-.11.06-.09.07-.11,0-.09.06-.12,0-.06s0,0,0,0a.31.31,0,0,0,.05-.1l.06-.11,0-.09a.54.54,0,0,0,0-.11,1.17,1.17,0,0,0,0-.11l0-.1a.49.49,0,0,0,0-.11l0-.07s0,0,0,0l0-.09,0-.13,0-.09a.65.65,0,0,0,0-.13l0-.09a.65.65,0,0,1,0-.13s0-.07,0-.1,0,0,0-.06A.14.14,0,0,1,94,64a.29.29,0,0,1,0-.09l0-.14s0-.06,0-.09l0-.15s0-.06,0-.09a.88.88,0,0,0,0-.17s0,0,0-.06h0l0-.23v0c0-.06,0-.13,0-.2s0-.07,0-.1v-.14a.41.41,0,0,1,0-.11v-.15a.31.31,0,0,0,0-.1v-.25a1.47,1.47,0,0,0,0-.21s0,0,0,0V61.3a1.48,1.48,0,0,1,0-.21V61a1.09,1.09,0,0,0,0-.18.28.28,0,0,0,0-.09v-.32l0-.23h0c0-.09,0-.19,0-.29v0a1.85,1.85,0,0,1,0-.23s0-.06,0-.09,0-.06,0-.09,0,0,0-.07a2.21,2.21,0,0,0,0-.25A.43.43,0,0,0,94,59c0-.12,0-.25-.07-.37a.13.13,0,0,1,0-.06v0h0v0c0-.07,0-.13,0-.2s0,0,0-.06l0-.1c0-.06,0-.12,0-.18a.36.36,0,0,0,0-.11,1.33,1.33,0,0,1,0-.19l0-.1c0-.09,0-.18-.07-.27h0L93.49,57l0-.08a1.87,1.87,0,0,0-.07-.22l0-.12-.06-.18s0-.08,0-.13a.16.16,0,0,0,0-.09.32.32,0,0,0,0-.09.56.56,0,0,0,0-.12l-.07-.2a.3.3,0,0,0,0-.1,1.55,1.55,0,0,0-.08-.23l0-.09-.1-.27a.08.08,0,0,1,0-.05h0c-.08-.21-.16-.42-.25-.64l0-.07c0-.09-.08-.17-.11-.26l0-.08-.07-.18,0-.07-.06-.11-.09-.22-.06-.13L92,53l-.06-.13-.1-.21-.06-.13,0-.09-.06-.13-.06-.13L91.47,52l-.07-.14-.11-.22-.07-.13-.12-.23L91,51.15l0-.06-.08-.15-.09-.16c0-.07-.07-.14-.11-.2l-.09-.17-.11-.2a1.62,1.62,0,0,1-.1-.18l-.11-.18-.11-.2,0,0-.08-.13a1.18,1.18,0,0,0-.11-.19,2,2,0,0,1-.11-.2l-.12-.2a1.74,1.74,0,0,1-.11-.18,2.39,2.39,0,0,1-.13-.21l-.12-.18a2.39,2.39,0,0,0-.13-.21L89.21,48l0-.06-.33-.51v0c-.11-.18-.23-.36-.35-.54l-.14-.21-.23-.35,0,0-.63-.92-.11-.15-.24-.34L87,44.7a1,1,0,0,1-.08-.11l-.19-.27-.07-.09-.36-.48-.08-.12-.28-.36-.11-.16L85.74,43l-.1-.12-.35-.46-.15-.19-.39-.5a.44.44,0,0,1-.08-.11l0,0-.36-.44a1.34,1.34,0,0,0-.11-.14l-.46-.57h0l-.22-.27c-.25-.31-.51-.62-.77-.92-.11-.12-.21-.24-.31-.37l-.16-.18L82,38.47l-.08-.09-.15-.17-.32-.37-.12-.13-.08-.09-.1-.11-.51-.57-.1-.11,0-.06-.62-.67h0l0-.05-.55-.58-.08-.09-.13-.13-.4-.43-.13-.13-.08-.09-.48-.5-.1-.1,0,0-.61-.63,0-.05-.13-.13-.49-.49-.12-.11-.09-.1-.71-.7h0l0,0L74.82,31l-.1-.09a.46.46,0,0,0-.07-.07L74,30.15h0l-.47-.44,0,0c-.3-.27-.6-.54-.89-.82a.52.52,0,0,1-.11-.1L71.61,28l-.15-.13-.88-.78-.14-.13-.9-.78-.06-.05L69.34,26,69,25.68l-.25-.21-.33-.29-.16-.13L68.17,25l-.82-.68-.06,0-.13-.11-.58-.47-.11-.09-.07-.06-.59-.48L65.74,23h0l-.6-.48-.07-.05-.66-.52-.17-.14L64,21.65l-.28-.21-.6-.47h0l-.48-.36-.21-.16-.24-.19L61.85,20l-.09-.07-.17-.13-.39-.29-.15-.11-.16-.12L60.58,19l-.24-.17-.16-.12-.24-.17-.31-.23-.15-.1-.17-.13,0,0-.38-.27-.12-.09-.18-.12-.42-.3-.12-.08-.2-.14-.41-.29-.1-.07,0,0-.6-.42-.08-.05L56.21,16,56,15.79l-.06,0-.12-.08,0,0,0,0-.16-.11h0l-.27-.18-.11-.08-.73-.48-.11-.07,0,0-.24-.15-.43-.29-.13-.07-.08-.06,0,0h0L53.25,14l-.09-.06-1-.66-.05,0-.61-.38h0l-.67-.42h0l-.34-.2L50.11,12l-.35-.2-.35-.21,0,0-.25-.15-.42-.24-.33-.2L48,10.78l-.12-.07-.2-.12-.44-.25-.29-.17-.48-.27-.18-.1-.09-.05-.61-.34-.15-.08-.77-.42,0,0-.15-.07-.59-.32-.27-.15-.53-.27L42.93,8l-.12-.06-.59-.3L42,7.53l-.78-.39-.05,0-.58-.29-.67-.32-.18-.09-.32-.15-.19-.09-.13-.06-.64-.3,0,0-.6-.27-.1,0-.08,0-.52-.23L37,5.14l-.5-.22-.13-.06-.5-.21-.08,0-.17-.08-.49-.2-.11,0L34.38,4l-.12,0L34,3.88l-.19-.07-.18-.07-.54-.21,0,0-.59-.22-.15-.06-.22-.08-.21-.08L31.65,3l-.47-.17-.11,0-.58-.2-.14,0L30,2.43l-.12,0-.09,0-.24-.08-.13,0-.12,0h0L29,2.09l-.12,0L28.66,2l-.18-.05-.07,0-.55-.16h0l-.52-.15-.08,0-.54-.15-.09,0L26,1.25h0l-.52-.13h-.11L25.19,1,25,1l-.16,0-.21,0-.18,0-.17,0-.21,0-.15,0L23.62.69h0L22.87.55l-.1,0-.24,0h-.08L22,.41,22,.39,21.5.32h-.05L21,.26H21L20.53.19h-.1l-.36,0H20l-.41,0h-.1l-.39,0H17.84a16.71,16.71,0,0,0-4.58.45h0L13,.54h0l-.28.08,0,0-.28.09h0L12,.85h0L11.7,1l0,0-.26.11h0l-.24.12h0l-.24.12,0,0-.22.13-.05,0-.22.14h0l-.21.14,0,0L9.84,2l0,0-.2.15,0,0-.19.16,0,0-.18.16,0,0L9,2.77H9l-.07.08h0l-.05,0L8.77,3l-.06.06-.05.06s0,0-.05,0-.11.14-.16.22h0l-.15.19L1.47,12.69h0l.1-.13,0,0,.08-.1,0,0,.08-.1,0,0,.08-.08L2,12.08l.18-.18,0,0,.19-.18h0l.2-.17h0c.06-.06.14-.11.21-.17l0,0,.21-.15,0,0A1.14,1.14,0,0,1,3.33,11h0l.23-.14,0,0a1.71,1.71,0,0,1,.23-.13l0,0,.25-.13h0l.25-.12h0l.25-.12h0L5,10.16H5l.27-.1h0L5.59,10h.06l.28-.09H6l.3-.08a16.83,16.83,0,0,1,4.59-.45h.36l.43,0h.21l.36,0h0l.44,0h.12l.45.05h.08l.41,0,.11,0,.48.06.09,0,.42.06H15l.5.09.19,0,.16,0,.18,0,.2,0,.14,0,.23,0,.16,0,.22.05.13,0,.24.05.76.17h0l.4.1.51.13.13,0,.54.14h0l.54.14.15.05.53.15.09,0,.4.12.17,0,.35.11.15,0,1,.32.36.13h0l.11,0,.59.2.09,0,.49.17.19.07.44.16.15.06.58.22.05,0,.55.21.17.07.47.19.13,0,.59.24.13.05.49.2.17.08.57.24.14.06.48.21.18.08.59.27.11.05.58.26.07,0,.62.29.15.07.5.24.18.09.67.32.63.31.78.39.21.11.58.3.29.15.49.26.3.15.59.32.18.09.75.41.21.12.56.31.29.16.45.26.31.17.44.25.31.19.4.22.33.2.42.25.28.17.37.21.33.2.33.21.35.21.68.42h0l.66.41,1,.61.28.18,0,0,.78.51.27.18.73.47.38.26h0l.15.11,0,0,0,0,.12.09.06,0,.66.45.09.05.63.44.1.07.61.43a.57.57,0,0,0,.13.08l.59.43.13.08h0l.52.37a.1.1,0,0,1,0,0l.15.1.55.4.17.12.54.4.16.12.54.4.17.13.46.34.25.19h0l.2.16.48.36.89.69.19.15.91.71.61.49.66.54.18.14.57.48.19.15.82.68.23.2.33.28L62,35l.36.31.2.17.9.78.14.13.89.78.14.13.88.79.11.1.89.82.49.46h0l.67.64.17.16.79.77.05,0,.71.71.21.2.49.49.18.18.62.63.11.12.49.5.21.23.4.42.22.22.54.58,0,.06.62.67.15.17.52.57a2.09,2.09,0,0,0,.14.17l.66.74c.08.09.16.19.25.28l.16.2.31.35a1.83,1.83,0,0,0,.13.16l.63.75.25.3.46.57.13.15c.11.15.23.29.34.43l.11.14.39.5.15.19.35.46.17.22.11.14.28.38.09.11.35.48.06.08c.09.13.19.26.28.4a1.83,1.83,0,0,0,.13.16l.24.35.1.14c.22.32.45.65.66,1l.22.32.15.23.31.47,0,.07.33.53.1.15.12.21.12.18.13.22.1.17a2.39,2.39,0,0,1,.13.21l.11.19.12.19c0,.06.07.12.1.19l.12.19.1.18.1.18a2,2,0,0,1,.11.2l.09.16a2.12,2.12,0,0,1,.11.21l.09.16.12.21.06.13.12.22.07.14.11.22.07.13c0,.07.07.15.11.22l.07.14.1.21.06.13a2,2,0,0,1,.1.21l.06.13a1.47,1.47,0,0,1,.1.22l.06.13.09.2.06.13c0,.08.07.16.1.23l0,.09c0,.09.07.17.11.25l0,.08c.09.22.18.44.26.66h0l.11.3,0,.09.09.23,0,.09.08.21a.56.56,0,0,0,0,.12l.06.19s0,.08,0,.12l.06.2,0,.1c0,.07,0,.15.07.23l0,.07.09.3h0c0,.09,0,.19.08.28a.24.24,0,0,0,0,.08,1.46,1.46,0,0,0,.05.2.44.44,0,0,1,0,.1,1.46,1.46,0,0,1,0,.2.29.29,0,0,1,0,.09l.06.26v0h0v.1c0,.11,0,.22.07.33l0,.1c0,.08,0,.17,0,.25l0,.09a.36.36,0,0,0,0,.11.77.77,0,0,0,0,.15s0,.07,0,.1a.77.77,0,0,1,0,.15s0,.08,0,.11,0,.1,0,.14,0,.08,0,.12,0,.08,0,.13a.53.53,0,0,1,0,.13V70a.53.53,0,0,1,0,.13v.13s0,.07,0,.1v.13a.49.49,0,0,1,0,.12v.23a.57.57,0,0,1,0,.13v.47a.45.45,0,0,1,0,.11v.09c0,.1,0,.2,0,.3h0v0a.34.34,0,0,1,0,.1c0,.06,0,.12,0,.18v.06l0,.23a.28.28,0,0,0,0,.09l0,.15a.29.29,0,0,1,0,.09.77.77,0,0,1,0,.15.29.29,0,0,0,0,.09l0,.14a.29.29,0,0,0,0,.09l0,.13,0,.11a.49.49,0,0,1,0,.11l0,.11,0,.12a.36.36,0,0,1,0,.09.5.5,0,0,1,0,.13l0,.09,0,.12,0,.09a.61.61,0,0,0,0,.12.69.69,0,0,0,0,.1.54.54,0,0,0,0,.11l0,.1a.47.47,0,0,0-.05.1l0,.1a.31.31,0,0,0,0,.1.41.41,0,0,0-.07.11l-.05.09-.07.11-.06.09-.06.11-.06.09-.08.1a.83.83,0,0,1-.08.12Z"/>
        <g class="cls-10">
          <g>
            <g class="cls-32">
              <path class="cls-36" d="M72.21,66.23a5.05,5.05,0,0,1-1.54,1.15,8.86,8.86,0,0,1-3.66.84,22.6,22.6,0,0,1-6.25-.76,44.68,44.68,0,0,1-6.15-2q-.72-.28-1.44-.6c-1-.44-1.83-.83-2.67-1.24A87.76,87.76,0,0,1,39.27,57c-1.42-1-2.82-2-4.18-3-1.15-.88-2.28-1.79-3.38-2.71-2.36-2-4.58-4-6.6-6.1-1.66-1.7-3.18-3.4-4.53-5.08a42.86,42.86,0,0,1-4.67-7,25,25,0,0,1-1.29-2.91,15,15,0,0,1-.68-2.63,7.18,7.18,0,0,1,.22-3.55.36.36,0,0,0,0-.11l.16-.37a3.76,3.76,0,0,1,.23-.41c.09-.14.17-.25.25-.36l.06-.08,0-.07.13-.14a5.13,5.13,0,0,1,1.54-1.15,9,9,0,0,1,3.67-.84,15.43,15.43,0,0,1,2.13.05l.38,0,.36,0,.4,0,.36.06.43.06.18,0,.15,0a42.31,42.31,0,0,1,8,2.45l1.44.61c1,.43,1.82.82,2.67,1.24A88.37,88.37,0,0,1,48,31.67c1.42,1,2.82,2,4.18,3,1.15.88,2.28,1.79,3.38,2.71a90.14,90.14,0,0,1,7.84,7.39,65.79,65.79,0,0,1,4.65,5.55,38.64,38.64,0,0,1,3.31,5.22,23.53,23.53,0,0,1,1.29,2.92,14.94,14.94,0,0,1,.68,2.62,7.18,7.18,0,0,1-.22,3.55,1.17,1.17,0,0,1,0,.11A1.07,1.07,0,0,1,73,65a.92.92,0,0,1-.08.17,3.79,3.79,0,0,1-.23.42,1,1,0,0,1-.13.19l-.06.09a.35.35,0,0,0,0,.08l-.08.1Z"/>
            </g>
            <path class="cls-37" d="M72.1,66.14a5,5,0,0,1-1.54,1.14,8.85,8.85,0,0,1-3.65.84,22.4,22.4,0,0,1-6.22-.76,45.13,45.13,0,0,1-6.13-2c-.47-.19-1-.4-1.43-.61-1-.44-1.82-.82-2.66-1.23A88.85,88.85,0,0,1,39.29,56.9q-2.13-1.47-4.17-3-1.71-1.32-3.36-2.7c-2.35-2-4.57-4-6.58-6.08C23.54,43.41,22,41.72,20.67,40a42.49,42.49,0,0,1-4.65-7,24.16,24.16,0,0,1-1.28-2.91,13.75,13.75,0,0,1-.67-2.61A7.11,7.11,0,0,1,14.28,24a.76.76,0,0,0,0-.11c0-.13.11-.25.16-.37a3.76,3.76,0,0,1,.23-.41c.09-.14.17-.25.25-.36L15,22.7l.05-.07.13-.14a5.18,5.18,0,0,1,1.54-1.15,9.13,9.13,0,0,1,3.65-.84,17.15,17.15,0,0,1,2.12.06l.37,0,.36,0,.4.05.36.05.43.07.18,0,.15,0a41.27,41.27,0,0,1,8,2.44l1.43.6c1,.44,1.81.82,2.66,1.24A87.66,87.66,0,0,1,48,31.73c1.42,1,2.81,2,4.16,3q1.72,1.32,3.38,2.7a89.19,89.19,0,0,1,7.8,7.36A65.57,65.57,0,0,1,68,50.35a38.74,38.74,0,0,1,3.3,5.2,24,24,0,0,1,1.28,2.9,14,14,0,0,1,.67,2.61A7.23,7.23,0,0,1,73,64.59l0,.12-.07.18c-.05.1-.06.14-.08.18a4.65,4.65,0,0,1-.23.41l-.12.2-.07.09-.05.07-.08.1Z"/>
            <path class="cls-38" d="M72,66.05a5.28,5.28,0,0,1-1.53,1.14,9,9,0,0,1-3.64.83,22.15,22.15,0,0,1-6.19-.75,44.82,44.82,0,0,1-6.1-2l-1.43-.6c-1-.44-1.81-.82-2.65-1.23a88.06,88.06,0,0,1-11.13-6.56q-2.13-1.45-4.15-3C34,53,32.9,52.06,31.81,51.14c-2.34-2-4.55-4-6.55-6-1.64-1.68-3.15-3.36-4.49-5a42.89,42.89,0,0,1-4.64-6.93,26.42,26.42,0,0,1-1.27-2.9,14.46,14.46,0,0,1-.67-2.6,7.06,7.06,0,0,1,.22-3.52.76.76,0,0,1,0-.11,3.92,3.92,0,0,1,.16-.36,2.6,2.6,0,0,1,.22-.41,3.74,3.74,0,0,1,.25-.36l.06-.08,0-.07.12-.14a5.1,5.1,0,0,1,1.54-1.14,8.75,8.75,0,0,1,3.63-.84,17.06,17.06,0,0,1,2.12,0l.37,0,.36,0,.4.05.35,0,.43.07.18,0,.15,0a40.68,40.68,0,0,1,7.94,2.43l1.43.6c1,.43,1.8.81,2.65,1.23A88.06,88.06,0,0,1,48,31.78c1.41,1,2.8,2,4.15,3,1.14.88,2.26,1.77,3.36,2.69a88.34,88.34,0,0,1,7.76,7.33,61.57,61.57,0,0,1,4.62,5.5,39.64,39.64,0,0,1,3.28,5.18,24.64,24.64,0,0,1,1.28,2.89,14.9,14.9,0,0,1,.67,2.6,7.06,7.06,0,0,1-.22,3.52.56.56,0,0,1,0,.12l-.07.18c0,.09-.06.13-.08.17a4.65,4.65,0,0,1-.23.41l-.12.2-.07.09,0,.07-.08.1Z"/>
            <path class="cls-39" d="M71.86,66a5,5,0,0,1-1.52,1.13,9,9,0,0,1-3.62.84,22.4,22.4,0,0,1-6.17-.76,44.48,44.48,0,0,1-6.08-2l-1.42-.6c-1-.43-1.8-.81-2.64-1.22A87.37,87.37,0,0,1,39.32,56.8c-1.4-1-2.78-2-4.13-3-1.13-.87-2.25-1.77-3.33-2.67-2.33-2-4.53-4-6.53-6-1.63-1.67-3.13-3.35-4.47-5a42,42,0,0,1-4.61-6.9A23.7,23.7,0,0,1,15,30.29a15.5,15.5,0,0,1-.67-2.59,7,7,0,0,1,.22-3.5.36.36,0,0,1,0-.11c0-.13.1-.25.16-.37s.15-.28.22-.41a4.16,4.16,0,0,1,.24-.35l.07-.08.05-.07.12-.14A5.06,5.06,0,0,1,17,21.53a8.86,8.86,0,0,1,3.62-.83,16.9,16.9,0,0,1,2.11.05l.36,0,.36,0,.4.05.35.05.43.07.18,0,.15,0a40.27,40.27,0,0,1,7.91,2.41l1.42.6c1,.43,1.79.82,2.64,1.23A88,88,0,0,1,48,31.83q2.12,1.45,4.13,3c1.14.87,2.26,1.77,3.35,2.68a89.08,89.08,0,0,1,7.73,7.29,62.87,62.87,0,0,1,4.6,5.49,38.65,38.65,0,0,1,3.27,5.15,24.4,24.4,0,0,1,1.27,2.88A14.58,14.58,0,0,1,73,60.92a7.1,7.1,0,0,1-.22,3.5s0,.08,0,.12a1.42,1.42,0,0,1-.08.18,1.87,1.87,0,0,0-.07.18,3.32,3.32,0,0,1-.23.4l-.12.2-.07.09,0,.07-.08.1Z"/>
            <path class="cls-40" d="M71.74,65.87A4.87,4.87,0,0,1,70.23,67a9,9,0,0,1-3.61.83,22.54,22.54,0,0,1-6.14-.75,45,45,0,0,1-6-2L53,64.47c-1-.43-1.79-.81-2.63-1.22a86.19,86.19,0,0,1-11-6.51q-2.1-1.44-4.11-3C34.1,52.88,33,52,31.91,51.09a88,88,0,0,1-6.5-6c-1.62-1.66-3.12-3.33-4.45-5a42.37,42.37,0,0,1-4.6-6.87,25.91,25.91,0,0,1-1.26-2.87,14.41,14.41,0,0,1-.66-2.58,7,7,0,0,1,.21-3.49s0-.07,0-.11.1-.24.16-.36.15-.29.22-.41a4.16,4.16,0,0,1,.24-.35l.07-.08,0-.07.12-.14a5.11,5.11,0,0,1,1.52-1.13,8.81,8.81,0,0,1,3.61-.83,16.59,16.59,0,0,1,2.09.05l.37,0,.36,0,.39.06.35.05.43.06.17,0,.16,0a41.37,41.37,0,0,1,7.87,2.41l1.42.6c1,.43,1.79.81,2.62,1.22A86.69,86.69,0,0,1,48,31.88q2.1,1.46,4.11,3,1.7,1.3,3.33,2.67a88.29,88.29,0,0,1,7.7,7.26,61.81,61.81,0,0,1,4.57,5.46,37.47,37.47,0,0,1,3.26,5.14,22.64,22.64,0,0,1,1.27,2.86,15.65,15.65,0,0,1,.67,2.58,7.18,7.18,0,0,1-.22,3.49l0,.12-.08.18-.08.17a3.42,3.42,0,0,1-.22.4l-.12.2L72,65.5l-.05.07-.08.1Z"/>
            <path class="cls-41" d="M71.62,65.78a5.08,5.08,0,0,1-1.5,1.12,8.8,8.8,0,0,1-3.6.83A22,22,0,0,1,60.41,67a43.27,43.27,0,0,1-6-2L53,64.38c-1-.43-1.79-.8-2.61-1.21a87.17,87.17,0,0,1-11-6.48c-1.39-1-2.76-2-4.09-3C34.14,52.85,33,52,32,51.06a87.19,87.19,0,0,1-6.47-6c-1.62-1.66-3.11-3.32-4.44-5a41.89,41.89,0,0,1-4.57-6.84,25.79,25.79,0,0,1-1.26-2.86,14.11,14.11,0,0,1-.66-2.57,7,7,0,0,1,.21-3.48l0-.1c0-.13.1-.25.16-.37l.22-.4a4.16,4.16,0,0,1,.24-.35.27.27,0,0,1,.07-.08l.05-.07.12-.14a5.11,5.11,0,0,1,1.51-1.13,8.92,8.92,0,0,1,3.59-.82,16.55,16.55,0,0,1,2.09.05l.37,0,.35,0,.39.05.35.05.43.07.17,0,.15,0a40.21,40.21,0,0,1,7.85,2.4l1.41.59c1,.43,1.78.81,2.61,1.22a85.9,85.9,0,0,1,11,6.47c1.39,1,2.76,2,4.09,3,1.13.86,2.24,1.75,3.32,2.65A89.19,89.19,0,0,1,63,44.81a61.59,61.59,0,0,1,4.55,5.44,38.12,38.12,0,0,1,3.25,5.11,24.67,24.67,0,0,1,1.26,2.85,14.54,14.54,0,0,1,.66,2.57,7,7,0,0,1-.21,3.47l0,.12-.08.18a.92.92,0,0,1-.08.17c-.08.17-.15.29-.22.41l-.12.19-.07.09,0,.07-.07.1Z"/>
            <path class="cls-42" d="M71.51,65.69A5.12,5.12,0,0,1,70,66.81a8.82,8.82,0,0,1-3.57.82,21.85,21.85,0,0,1-6.1-.75,43.17,43.17,0,0,1-6-2l-1.41-.59c-1-.43-1.78-.81-2.6-1.21a86.38,86.38,0,0,1-10.95-6.45q-2.09-1.44-4.08-3C34.18,52.81,33.08,51.93,32,51c-2.31-1.93-4.47-3.93-6.45-6-1.6-1.65-3.09-3.31-4.41-4.95a41.68,41.68,0,0,1-4.56-6.82,25.42,25.42,0,0,1-1.25-2.84,14.23,14.23,0,0,1-.66-2.56,7.06,7.06,0,0,1,.21-3.46.49.49,0,0,0,0-.11c.05-.12.1-.24.16-.36s.15-.28.22-.4a4.16,4.16,0,0,1,.24-.35l.06-.08.06-.07.12-.14a5,5,0,0,1,1.5-1.12A8.71,8.71,0,0,1,20.87,21a16.43,16.43,0,0,1,2.08.05l.36,0,.35,0,.4.05.35,0,.42.07.17,0,.15,0A40.21,40.21,0,0,1,33,23.73l1.41.6c1,.42,1.77.8,2.6,1.21a86.38,86.38,0,0,1,11,6.45c1.39.95,2.75,1.95,4.08,3q1.68,1.29,3.3,2.64a88.48,88.48,0,0,1,7.64,7.21,61,61,0,0,1,4.53,5.41,37.37,37.37,0,0,1,3.23,5.09A24.55,24.55,0,0,1,72,58.15a15.37,15.37,0,0,1,.66,2.56,7.06,7.06,0,0,1-.21,3.46l0,.12a.87.87,0,0,1-.07.17c0,.1-.06.14-.08.18A4.5,4.5,0,0,1,72,65l-.12.19-.06.09-.06.07a.86.86,0,0,1-.07.1Z"/>
            <path class="cls-43" d="M71.39,65.6a5,5,0,0,1-1.5,1.11,8.73,8.73,0,0,1-3.56.82,21.6,21.6,0,0,1-6.07-.74,43.42,43.42,0,0,1-6-2c-.46-.18-.93-.38-1.4-.59-1-.42-1.77-.8-2.59-1.2a85.59,85.59,0,0,1-10.9-6.42c-1.39-1-2.74-1.94-4.06-3-1.12-.86-2.22-1.73-3.28-2.63-2.3-1.92-4.46-3.92-6.42-5.92-1.6-1.65-3.08-3.3-4.39-4.94a41.27,41.27,0,0,1-4.54-6.78,24.31,24.31,0,0,1-1.25-2.83A15,15,0,0,1,14.8,28,7,7,0,0,1,15,24.53a.42.42,0,0,1,0-.1,1.94,1.94,0,0,1,.15-.36c.08-.16.15-.28.22-.4a4.16,4.16,0,0,1,.24-.35l.06-.08,0-.07.13-.14a4.91,4.91,0,0,1,1.5-1.12A8.74,8.74,0,0,1,21,21.1a16.32,16.32,0,0,1,2.07,0l.36,0,.35,0,.39.05.35.05.42.07.17,0,.15,0A39.22,39.22,0,0,1,33,23.82l1.4.59c1,.42,1.76.8,2.59,1.21A86.28,86.28,0,0,1,47.9,32C49.28,33,50.64,34,52,35c1.12.86,2.22,1.74,3.29,2.63a86.27,86.27,0,0,1,7.61,7.18,60.77,60.77,0,0,1,4.51,5.39,38.48,38.48,0,0,1,3.22,5.07,23.59,23.59,0,0,1,1.25,2.83,14.93,14.93,0,0,1,.66,2.54,7.15,7.15,0,0,1-.21,3.45l-.05.11-.07.18a1.48,1.48,0,0,1-.08.17,3.42,3.42,0,0,1-.22.4l-.12.19-.06.09-.06.07a.86.86,0,0,1-.07.1Z"/>
            <path class="cls-44" d="M71.27,65.51a5,5,0,0,1-1.49,1.11,8.69,8.69,0,0,1-3.55.81,21.45,21.45,0,0,1-6-.74,43.31,43.31,0,0,1-5.94-2l-1.4-.59c-1-.42-1.76-.8-2.58-1.2a85.6,85.6,0,0,1-10.86-6.39c-1.37-.95-2.72-1.94-4-2.95-1.11-.85-2.2-1.73-3.26-2.62a85,85,0,0,1-6.39-5.9c-1.6-1.64-3.07-3.28-4.38-4.91a41.55,41.55,0,0,1-4.52-6.75,25.16,25.16,0,0,1-1.24-2.83,13.88,13.88,0,0,1-.65-2.53,6.82,6.82,0,0,1,.21-3.43.49.49,0,0,1,0-.11c0-.12.1-.24.15-.36l.22-.4c.09-.13.16-.24.24-.34l.06-.08.05-.07.12-.14A5.18,5.18,0,0,1,17.52,22a8.68,8.68,0,0,1,3.54-.81,14.44,14.44,0,0,1,2.06.05l.37,0,.34,0,.39.05.35.05.42.07.17,0,.15,0a39.8,39.8,0,0,1,7.74,2.37c.46.19.92.38,1.39.59,1,.42,1.76.79,2.59,1.2a84.8,84.8,0,0,1,10.85,6.39q2.07,1.42,4,2.94c1.11.86,2.2,1.74,3.27,2.63a85.43,85.43,0,0,1,7.57,7.14,61.61,61.61,0,0,1,4.5,5.37,38.21,38.21,0,0,1,3.21,5A24.28,24.28,0,0,1,71.72,58a14.84,14.84,0,0,1,.66,2.53A6.93,6.93,0,0,1,72.16,64a.56.56,0,0,1,0,.12c0,.06-.05.12-.07.17s-.06.14-.08.18a4.19,4.19,0,0,1-.22.39l-.12.19-.06.09-.06.07a.86.86,0,0,1-.07.1Z"/>
            <path class="cls-45" d="M71.15,65.42a4.81,4.81,0,0,1-1.48,1.1,8.67,8.67,0,0,1-3.53.81,21.6,21.6,0,0,1-6-.73,43.56,43.56,0,0,1-5.92-2c-.46-.19-.92-.38-1.39-.59-1-.42-1.75-.79-2.57-1.19a84.89,84.89,0,0,1-10.81-6.37q-2.05-1.41-4-2.93c-1.11-.85-2.2-1.72-3.25-2.6-2.28-1.91-4.42-3.89-6.37-5.88-1.58-1.63-3.05-3.27-4.35-4.89a40.18,40.18,0,0,1-4.5-6.73,23.24,23.24,0,0,1-1.24-2.81,13.59,13.59,0,0,1-.65-2.52,6.91,6.91,0,0,1,.21-3.42.42.42,0,0,1,0-.1q.07-.2.15-.36c.08-.16.15-.28.22-.4l.24-.35.06-.07,0-.07.12-.14a5.06,5.06,0,0,1,1.49-1.1,8.62,8.62,0,0,1,3.53-.82,18,18,0,0,1,2.05.05l.36,0,.35,0,.39,0,.34.05.42.06.17,0,.15,0A40.19,40.19,0,0,1,33.1,24l1.38.58c1,.42,1.75.79,2.58,1.19a86.09,86.09,0,0,1,10.81,6.37q2.06,1.43,4,2.93c1.11.86,2.2,1.73,3.26,2.62a84.67,84.67,0,0,1,7.54,7.11,61.39,61.39,0,0,1,4.48,5.35,37.74,37.74,0,0,1,3.19,5A24.92,24.92,0,0,1,71.6,58a14,14,0,0,1,.65,2.52A6.91,6.91,0,0,1,72,63.92S72,64,72,64l-.07.18c-.05.09-.06.13-.08.17s-.15.28-.22.4l-.12.19-.06.08-.06.08-.07.09Z"/>
            <path class="cls-46" d="M71,65.33a5.06,5.06,0,0,1-1.47,1.1,8.78,8.78,0,0,1-3.52.8,21.4,21.4,0,0,1-6-.73,41.88,41.88,0,0,1-5.9-2L52.77,64c-1-.42-1.75-.79-2.56-1.19a85.29,85.29,0,0,1-10.76-6.34c-1.36-.94-2.7-1.92-4-2.92-1.1-.84-2.18-1.71-3.23-2.59-2.27-1.9-4.4-3.87-6.34-5.85-1.58-1.63-3-3.26-4.34-4.87a41.08,41.08,0,0,1-4.48-6.7,24.67,24.67,0,0,1-1.23-2.8,14.33,14.33,0,0,1-.65-2.51,6.93,6.93,0,0,1,.21-3.4s0-.07,0-.11l.15-.36.22-.39.24-.35.06-.07.05-.07.12-.14a4.89,4.89,0,0,1,1.48-1.1,8.58,8.58,0,0,1,3.52-.81,17.84,17.84,0,0,1,2,.05l.36,0,.34,0,.39,0,.34.05.42.07.17,0,.15,0a39.49,39.49,0,0,1,7.67,2.34c.46.19.92.38,1.38.59.95.41,1.75.78,2.56,1.18A85.49,85.49,0,0,1,47.85,32.2q2,1.41,4,2.91,1.65,1.28,3.24,2.61a84,84,0,0,1,7.51,7.08,60.79,60.79,0,0,1,4.46,5.32,38.59,38.59,0,0,1,3.18,5,23.8,23.8,0,0,1,1.23,2.79,13.91,13.91,0,0,1,.65,2.51,6.93,6.93,0,0,1-.21,3.4l0,.12c0,.06,0,.12-.07.17s-.06.14-.08.17a4.5,4.5,0,0,1-.22.4l-.12.19-.06.08-.06.08-.07.09Z"/>
            <path class="cls-11" d="M70.92,65.24a4.9,4.9,0,0,1-1.48,1.09,8.43,8.43,0,0,1-3.49.8,21.56,21.56,0,0,1-6-.72,45.18,45.18,0,0,1-5.87-2l-1.38-.59c-.95-.42-1.74-.78-2.54-1.18a83.91,83.91,0,0,1-10.72-6.31q-2-1.41-4-2.91c-1.1-.84-2.18-1.7-3.23-2.58C30,49,27.88,47,26,45.06a64.94,64.94,0,0,1-4.32-4.85,41.1,41.1,0,0,1-4.46-6.66,25.36,25.36,0,0,1-1.23-2.79,14.47,14.47,0,0,1-.65-2.5,6.79,6.79,0,0,1,.21-3.39s0-.07,0-.11.1-.23.16-.35.14-.27.21-.39l.24-.35.06-.08.05-.06.12-.14a4.82,4.82,0,0,1,1.47-1.09,8.52,8.52,0,0,1,3.5-.81,15.77,15.77,0,0,1,2,.05l.35,0,.35,0,.38.05.34.05.42.07.17,0,.14,0a39.83,39.83,0,0,1,7.65,2.34l1.37.58c.94.42,1.74.79,2.55,1.18a84.69,84.69,0,0,1,10.72,6.32q2,1.41,4,2.9c1.1.85,2.18,1.71,3.23,2.59a86.25,86.25,0,0,1,7.48,7.06A58.85,58.85,0,0,1,67,50.1a37.09,37.09,0,0,1,3.16,5,24.44,24.44,0,0,1,1.23,2.78,15.71,15.71,0,0,1,.65,2.5,6.9,6.9,0,0,1-.21,3.39.76.76,0,0,0,0,.11l-.08.18a1.22,1.22,0,0,0-.07.17,4.19,4.19,0,0,1-.22.39l-.12.19-.06.09a.18.18,0,0,0,0,.07l-.08.09Z"/>
          </g>
        </g>
        <path class="cls-8" d="M70.92,65.24a4.9,4.9,0,0,1-1.48,1.09,8.43,8.43,0,0,1-3.49.8,21.56,21.56,0,0,1-6-.72,45.18,45.18,0,0,1-5.87-2l-1.38-.59c-.95-.42-1.74-.78-2.54-1.18a83.91,83.91,0,0,1-10.72-6.31q-2-1.41-4-2.91c-1.1-.84-2.18-1.7-3.23-2.58C30,49,27.88,47,26,45.06a64.94,64.94,0,0,1-4.32-4.85,41.1,41.1,0,0,1-4.46-6.66,25.36,25.36,0,0,1-1.23-2.79,14.47,14.47,0,0,1-.65-2.5,6.79,6.79,0,0,1,.21-3.39s0-.07,0-.11.1-.23.16-.35.14-.27.21-.39l.24-.35.06-.08.05-.06.12-.14a4.82,4.82,0,0,1,1.47-1.09,8.52,8.52,0,0,1,3.5-.81,15.77,15.77,0,0,1,2,.05l.35,0,.35,0,.38.05.34.05.42.07.17,0,.14,0a39.83,39.83,0,0,1,7.65,2.34l1.37.58c.94.42,1.74.79,2.55,1.18a84.69,84.69,0,0,1,10.72,6.32q2,1.41,4,2.9c1.1.85,2.18,1.71,3.23,2.59a86.25,86.25,0,0,1,7.48,7.06A58.85,58.85,0,0,1,67,50.1a37.09,37.09,0,0,1,3.16,5,24.44,24.44,0,0,1,1.23,2.78,15.71,15.71,0,0,1,.65,2.5,6.9,6.9,0,0,1-.21,3.39.76.76,0,0,0,0,.11l-.08.18a1.22,1.22,0,0,0-.07.17,4.19,4.19,0,0,1-.22.39l-.12.19-.06.09a.18.18,0,0,0,0,.07l-.08.09Zm-22-6.17c12.27,6,19.88,4.27,17-3.88C64,49.72,57.77,42.76,50.21,37a71.12,71.12,0,0,0-11.81-7.4c-12.28-6-19.89-4.27-17,3.89,1.94,5.46,8.11,12.42,15.67,18.22a70.71,70.71,0,0,0,11.81,7.4Z"/>
        <path class="cls-9" d="M50.21,37C57.77,42.76,64,49.72,65.89,55.19c2.89,8.15-4.72,9.88-17,3.88a70.71,70.71,0,0,1-11.81-7.4c-7.56-5.8-13.73-12.76-15.67-18.22-2.91-8.16,4.7-9.9,17-3.89A71.12,71.12,0,0,1,50.21,37Z"/>
        <path class="cls-47" d="M86.94,67.93s0,0,0-.06a.64.64,0,0,0,0-.07,35.33,35.33,0,0,0-5-11.08A96.58,96.58,0,0,0,67,39.45h0c-2.76-2.6-5.73-5.16-8.84-7.64-.66-.52-1.32-1-2-1.55l-.48-.36-.2-.16-.25-.19-.46-.34-.17-.13-.54-.4-.16-.12-.54-.4L53.2,28l-.55-.4-.15-.1-.57-.42L51.8,27l-.6-.43a1.25,1.25,0,0,0-.12-.08l-.61-.43-.1-.07-.63-.44-.09-.05L49,25.09l-.06,0-.73-.5-.73-.47c-1-.66-2-1.29-3-1.91h0c-3.58-2.22-7.22-4.26-10.86-6-8.78-4.29-16.31-6.51-22-6.8h-.76a16.83,16.83,0,0,0-4.59.45h0C1.34,11-.93,14.7.35,20.67v.09s0,.06,0,.09a35.11,35.11,0,0,0,5.05,11h0A96.62,96.62,0,0,0,20.3,49.18h0c3.36,3.16,7,6.26,10.83,9.2S38.8,64,42.81,66.46c3.58,2.22,7.22,4.25,10.86,6,7.68,3.76,14.4,5.93,19.78,6.6a44,44,0,0,1-6.38-1.34c-.62-.17-1.24-.36-1.88-.56.64.2,1.26.39,1.88.56a44,44,0,0,0,6.38,1.34A20.54,20.54,0,0,0,81,78.87C86,77.64,88.23,73.92,86.94,67.93Z"/>
        <g class="cls-48">
          <path d="M88,66.53a.13.13,0,0,0,0-.06s0,0,0-.07A34.33,34.33,0,0,0,83.16,55,91,91,0,0,0,68.5,37.5h0c-2.75-2.62-5.7-5.19-8.82-7.68-.65-.52-1.31-1-2-1.55l-.48-.37L57,27.75l-.24-.19-.46-.34-.18-.13c-.17-.14-.35-.27-.53-.4l-.16-.12-.55-.4-.16-.12-.56-.4-.14-.1-.58-.41-.12-.09-.6-.42-.12-.09L52,24.12l-.1-.07-.64-.44-.08-.06-.66-.44-.06,0-.74-.49L49,22.1q-1.5-1-3-1.89h0a116.83,116.83,0,0,0-10.94-5.94C26.2,10.08,18.56,8,12.73,7.9H12a17.93,17.93,0,0,0-4.72.62h0C2.13,10-.31,13.89.81,20.08v.08s0,.07,0,.1A34.81,34.81,0,0,0,5.66,31.62h0A90.71,90.71,0,0,0,20.33,49.14h0a134.42,134.42,0,0,0,10.8,9.23,135.66,135.66,0,0,0,11.71,8.05,116.68,116.68,0,0,0,10.93,5.94C61.52,76,68.34,78.07,73.83,78.6a43.68,43.68,0,0,1-6.5-1.19c-.62-.16-1.26-.34-1.91-.53.65.19,1.29.37,1.91.53a43.68,43.68,0,0,0,6.5,1.19,20.88,20.88,0,0,0,7.76-.48C86.7,76.68,89.14,72.74,88,66.53Z"/>
          <path class="cls-49" d="M87.92,66.66l0-.07v-.07a34.65,34.65,0,0,0-4.84-11.35,91.45,91.45,0,0,0-14.69-17.5h0c-2.75-2.61-5.7-5.18-8.82-7.67-.65-.52-1.31-1-2-1.55l-.48-.36-.2-.16-.25-.19-.46-.34L56,27.27l-.54-.4-.16-.12-.55-.4-.16-.12-.55-.4-.15-.1-.58-.41-.12-.09-.6-.42-.12-.09-.62-.42-.1-.07-.63-.44L51,23.73l-.66-.44-.06,0-.74-.49-.72-.48c-1-.64-2-1.28-3-1.89h0a116.8,116.8,0,0,0-10.93-6C26.07,10.24,18.44,8.15,12.63,8h-.78a17.73,17.73,0,0,0-4.7.61h0C2.06,10.05-.37,14,.77,20.13v0s0,0,0,.06,0,.06,0,.09A34.4,34.4,0,0,0,5.64,31.64h0a91.45,91.45,0,0,0,14.69,17.5h0a134.42,134.42,0,0,0,10.8,9.23,137.07,137.07,0,0,0,11.7,8.05,117,117,0,0,0,10.94,6c7.74,3.68,14.55,5.73,20,6.28a43.86,43.86,0,0,1-6.48-1.21c-.63-.16-1.26-.34-1.91-.53.65.19,1.28.37,1.91.53a43.86,43.86,0,0,0,6.48,1.21,21.08,21.08,0,0,0,7.75-.46C86.63,76.75,89.11,72.83,87.92,66.66Z"/>
          <path class="cls-50" d="M87.82,66.79v-.07l0-.07a34.54,34.54,0,0,0-4.86-11.32A91.54,91.54,0,0,0,68.22,37.85h0c-2.75-2.61-5.7-5.18-8.82-7.67-.65-.52-1.31-1-2-1.55l-.48-.36-.2-.16-.25-.19L56,27.58l-.17-.13-.54-.4-.16-.12-.54-.4-.17-.11L53.9,26l-.15-.1c-.19-.14-.38-.28-.58-.41l-.12-.09-.6-.42-.12-.09-.62-.42-.09-.07L51,24l-.09-.06-.66-.44-.06,0-.73-.49-.73-.48q-1.49-1-3-1.89h0a113.29,113.29,0,0,0-10.92-6C26,10.4,18.33,8.3,12.53,8.16h-.78a17.74,17.74,0,0,0-4.69.59h0C2,10.14-.42,14,.72,20.19v0s0,0,0,.06,0,.06,0,.09A34.72,34.72,0,0,0,5.62,31.67h0A91.5,91.5,0,0,0,20.33,49.14h0a136.36,136.36,0,0,0,10.81,9.23,139.52,139.52,0,0,0,11.7,8.06,116.8,116.8,0,0,0,10.93,5.95c7.73,3.69,14.53,5.76,20,6.31a43.6,43.6,0,0,1-6.47-1.22c-.63-.16-1.26-.34-1.91-.53.65.19,1.28.37,1.91.53a43.6,43.6,0,0,0,6.47,1.22,21,21,0,0,0,7.73-.43C86.56,76.84,89,72.94,87.82,66.79Z"/>
          <path class="cls-51" d="M87.72,66.91v-.13a34.92,34.92,0,0,0-4.89-11.3A92.55,92.55,0,0,0,68.09,38h0c-2.75-2.61-5.71-5.18-8.82-7.67-.66-.52-1.32-1-2-1.55l-.48-.36-.2-.16-.25-.19-.46-.34-.17-.13-.54-.4L55,27.11l-.54-.4-.17-.11-.55-.4-.15-.11c-.19-.14-.38-.28-.58-.41l-.12-.09-.6-.42-.12-.09-.61-.42-.1-.07-.64-.44-.08-.06-.66-.44-.07,0c-.22-.16-.45-.31-.73-.49l-.73-.48c-1-.65-2-1.28-3-1.9h0a120.3,120.3,0,0,0-10.91-6c-8.84-4.22-16.45-6.33-22.24-6.49h-.78A18.12,18.12,0,0,0,7,8.85H7c-5,1.39-7.45,5.26-6.29,11.39v0a.17.17,0,0,0,0,.07.29.29,0,0,0,0,.09A34.7,34.7,0,0,0,5.6,31.7h0A92.87,92.87,0,0,0,20.32,49.15h0a136.57,136.57,0,0,0,10.81,9.22,139.52,139.52,0,0,0,11.7,8.06,119.25,119.25,0,0,0,10.92,6c7.72,3.69,14.52,5.77,20,6.34a43.92,43.92,0,0,1-6.46-1.24c-.62-.16-1.26-.34-1.9-.53.64.19,1.28.37,1.9.53a43.92,43.92,0,0,0,6.46,1.24,20.91,20.91,0,0,0,7.71-.42C86.49,76.92,88.94,73.05,87.72,66.91Z"/>
          <path class="cls-52" d="M87.62,67v-.13a34.91,34.91,0,0,0-4.91-11.27A92.64,92.64,0,0,0,68,38.21h0C65.2,35.6,62.24,33,59.13,30.55c-.66-.53-1.32-1-2-1.56l-.47-.36-.21-.16-.25-.18-.46-.35-.17-.13-.54-.4-.16-.11-.54-.4-.17-.12-.55-.4-.15-.11-.57-.41-.13-.09-.6-.42-.12-.09-.61-.42-.1-.07-.64-.44-.08-.06L50,23.83l-.07,0c-.22-.16-.45-.31-.73-.49l-.72-.48c-1-.65-2-1.28-3-1.9h0a116.58,116.58,0,0,0-10.9-6c-8.83-4.23-16.43-6.36-22.21-6.53h-.78A17.16,17.16,0,0,0,6.89,9h0C1.84,10.33-.54,14.18.64,20.3v0a.13.13,0,0,0,0,.06.29.29,0,0,0,0,.09,34.47,34.47,0,0,0,4.9,11.25h0A92.64,92.64,0,0,0,20.32,49.15h0a136.57,136.57,0,0,0,10.81,9.22,139.52,139.52,0,0,0,11.7,8.06,119.21,119.21,0,0,0,10.91,6c7.72,3.7,14.5,5.79,19.95,6.37a45.15,45.15,0,0,1-6.45-1.24L65.34,77l1.9.54a45.15,45.15,0,0,0,6.45,1.24,20.87,20.87,0,0,0,7.69-.39C86.43,77,88.86,73.16,87.62,67Z"/>
          <path class="cls-53" d="M87.53,67.17l0-.07V67a34.76,34.76,0,0,0-4.93-11.24,93.24,93.24,0,0,0-14.75-17.4h0c-2.76-2.61-5.71-5.18-8.83-7.66-.66-.52-1.32-1-2-1.55-.15-.13-.31-.25-.47-.37l-.21-.16-.25-.18-.46-.35L55.44,28c-.18-.13-.36-.26-.53-.4l-.17-.11-.54-.4L54,27l-.56-.4-.14-.11L52.76,26,52.63,26,52,25.53l-.13-.09L51.3,25,51.2,25l-.64-.44-.08-.06L49.82,24l-.06,0L49,23.48,48.3,23c-1-.65-2-1.28-3-1.9h0a121.89,121.89,0,0,0-10.9-6C25.58,10.88,18,8.74,12.23,8.55h-.77a17.14,17.14,0,0,0-4.66.54h0c-5,1.34-7.39,5.18-6.2,11.27v0s0,0,0,.06,0,.06,0,.1A35.13,35.13,0,0,0,5.56,31.75h0a93.7,93.7,0,0,0,14.76,17.4h0a136.43,136.43,0,0,0,10.82,9.22c3.75,2.87,7.68,5.59,11.69,8.07a120.55,120.55,0,0,0,10.91,6c7.71,3.71,14.49,5.81,19.92,6.41a45.5,45.5,0,0,1-6.44-1.26c-.62-.17-1.25-.35-1.89-.55.64.2,1.27.38,1.89.55a45.5,45.5,0,0,0,6.44,1.26,21.06,21.06,0,0,0,7.68-.37C86.36,77.1,88.78,73.26,87.53,67.17Z"/>
          <path class="cls-54" d="M87.43,67.3v-.07l0-.07a34.66,34.66,0,0,0-5-11.21A93.75,93.75,0,0,0,67.68,38.56h0C64.92,36,62,33.39,58.85,30.91c-.66-.52-1.32-1-2-1.55-.15-.13-.31-.25-.47-.37l-.21-.16-.25-.18-.46-.35-.17-.13-.53-.39-.16-.12-.55-.4-.16-.12-.56-.4-.14-.11-.58-.41-.13-.09-.59-.42-.12-.09-.62-.42-.1-.07-.63-.44-.09-.06-.66-.44-.06,0-.73-.49-.73-.48c-1-.65-2-1.28-3-1.9h0a123,123,0,0,0-10.89-6C25.46,11,17.88,8.89,12.13,8.68h-.77a18,18,0,0,0-4.65.53h0C1.7,10.52-.65,14.33.56,20.4v0a.13.13,0,0,1,0,.06.29.29,0,0,1,0,.09,34.71,34.71,0,0,0,5,11.19h0A93.75,93.75,0,0,0,20.31,49.16h0a138.47,138.47,0,0,0,10.82,9.21,141.13,141.13,0,0,0,11.69,8.07,120.52,120.52,0,0,0,10.9,6c7.71,3.72,14.47,5.83,19.9,6.44a43.86,43.86,0,0,1-6.43-1.27c-.62-.17-1.25-.35-1.89-.55.64.2,1.27.38,1.89.55a43.86,43.86,0,0,0,6.43,1.27,20.8,20.8,0,0,0,7.66-.34C86.29,77.18,88.7,73.37,87.43,67.3Z"/>
          <path class="cls-55" d="M87.33,67.42v-.06l0-.07a34.78,34.78,0,0,0-5-11.19A94.12,94.12,0,0,0,67.54,38.74h0c-2.75-2.61-5.71-5.17-8.83-7.65-.65-.52-1.32-1-2-1.55l-.48-.37L56,29l-.25-.19-.45-.35-.18-.12-.53-.4-.16-.12-.55-.4-.16-.12-.56-.4-.14-.11-.58-.41-.12-.09-.6-.42-.12-.08L51,25.38l-.09-.07-.64-.44-.09-.06-.66-.44-.06,0-.73-.49L48,23.36c-1-.65-2-1.29-3-1.9h0a120.46,120.46,0,0,0-10.88-6C25.34,11.2,17.77,9,12,8.81h-.77a17.4,17.4,0,0,0-4.63.52h0C1.63,10.61-.7,14.4.52,20.46v0a.13.13,0,0,1,0,.06.29.29,0,0,1,0,.09,34.83,34.83,0,0,0,5,11.17h0A94.12,94.12,0,0,0,20.31,49.16h0a138.47,138.47,0,0,0,10.82,9.21,141.13,141.13,0,0,0,11.69,8.07,118.08,118.08,0,0,0,10.89,6c7.7,3.73,14.46,5.85,19.88,6.47a43.58,43.58,0,0,1-6.42-1.28c-.62-.17-1.26-.35-1.9-.55.64.2,1.28.38,1.9.55a43.58,43.58,0,0,0,6.42,1.28,20.76,20.76,0,0,0,7.64-.31C86.23,77.27,88.62,73.48,87.33,67.42Z"/>
          <path class="cls-56" d="M87.24,67.55l0-.07s0,0,0-.06a35,35,0,0,0-5-11.16,94.13,94.13,0,0,0-14.8-17.34h0c-2.76-2.61-5.72-5.17-8.84-7.65-.65-.52-1.32-1-2-1.55l-.48-.37-.21-.15L55.66,29c-.16-.11-.31-.23-.46-.35L55,28.54c-.17-.14-.35-.27-.53-.4L54.33,28l-.55-.4-.16-.12-.55-.4L52.92,27l-.58-.41-.12-.09-.6-.42L51.5,26l-.61-.43-.1-.07-.64-.44L50.07,25l-.66-.44-.07,0c-.22-.16-.45-.31-.73-.49l-.72-.48c-1-.65-2-1.29-3-1.91h0a123,123,0,0,0-10.88-6c-8.8-4.26-16.36-6.44-22.09-6.68h-.77a17.36,17.36,0,0,0-4.62.5h0c-5,1.29-7.3,5.06-6.06,11.09v0s0,0,0,.06a.44.44,0,0,1,0,.1,34.91,34.91,0,0,0,5,11.14h0A94.93,94.93,0,0,0,20.31,49.17h0a138.47,138.47,0,0,0,10.82,9.21c3.75,2.87,7.68,5.6,11.69,8.08a123,123,0,0,0,10.88,6c7.7,3.73,14.45,5.86,19.85,6.5a43.92,43.92,0,0,1-6.41-1.3c-.62-.17-1.25-.35-1.89-.55.64.2,1.27.38,1.89.55A43.92,43.92,0,0,0,73.55,79a20.64,20.64,0,0,0,7.62-.3C86.16,77.36,88.54,73.59,87.24,67.55Z"/>
          <path class="cls-57" d="M87.14,67.68l0-.07s0,0,0-.06a34.75,34.75,0,0,0-5-11.14A94.91,94.91,0,0,0,67.27,39.1h0c-2.76-2.61-5.72-5.17-8.84-7.65-.65-.52-1.31-1-2-1.55L56,29.54l-.21-.16-.24-.19-.46-.34-.17-.13-.54-.4-.16-.12-.55-.4-.16-.12-.55-.4-.15-.1-.58-.42-.12-.09-.6-.42-.12-.08-.61-.43-.1-.07L50,25.23l-.08-.06-.66-.44-.06,0-.74-.49-.72-.48c-1-.65-2-1.29-3-1.91h0a121.81,121.81,0,0,0-10.87-6c-8.8-4.27-16.34-6.47-22.06-6.72h-.77a17.37,17.37,0,0,0-4.61.48h0c-5,1.27-7.27,5-6,11v0s0,0,0,.06,0,.06,0,.09a34.58,34.58,0,0,0,5,11.11h0A95.36,95.36,0,0,0,20.31,49.17h0c3.36,3.16,7,6.26,10.83,9.2s7.68,5.6,11.68,8.08a123.1,123.1,0,0,0,10.88,6c7.69,3.74,14.43,5.89,19.83,6.53a43.64,43.64,0,0,1-6.4-1.31c-.62-.17-1.25-.36-1.89-.55.64.19,1.27.38,1.89.55A43.64,43.64,0,0,0,73.52,79a20.61,20.61,0,0,0,7.6-.27C86.09,77.44,88.46,73.69,87.14,67.68Z"/>
          <path class="cls-58" d="M87,67.81v-.07s0,0,0-.07a35,35,0,0,0-5-11.1,95.86,95.86,0,0,0-14.85-17.3h0c-2.77-2.6-5.73-5.16-8.85-7.64-.65-.52-1.31-1-2-1.55l-.48-.36-.2-.16-.25-.19L54.92,29l-.17-.13-.54-.4-.16-.12-.54-.4-.17-.12-.55-.4-.15-.1-.57-.42-.13-.09-.6-.42-.12-.08-.61-.43-.1-.07-.64-.44-.08-.06-.66-.44-.06,0-.73-.5-.73-.47c-1-.65-2-1.29-3-1.91h0a122.92,122.92,0,0,0-10.86-6C25,11.68,17.44,9.47,11.73,9.2H11a17.19,17.19,0,0,0-4.59.47h0c-5,1.25-7.24,5-6,11v0s0,0,0,.06,0,.06,0,.09a34.93,34.93,0,0,0,5,11.09h0A96.14,96.14,0,0,0,20.3,49.17h0c3.36,3.16,7,6.26,10.83,9.2S38.8,64,42.81,66.45c3.58,2.22,7.23,4.25,10.87,6,7.69,3.75,14.42,5.91,19.8,6.57a44,44,0,0,1-6.39-1.33c-.61-.17-1.24-.36-1.88-.56.64.2,1.27.39,1.88.56a44,44,0,0,0,6.39,1.33,20.8,20.8,0,0,0,7.59-.25C86,77.53,88.38,73.8,87,67.81Z"/>
          <path class="cls-33" d="M86.94,67.93s0,0,0-.06a.64.64,0,0,0,0-.07,35.33,35.33,0,0,0-5-11.08A96.58,96.58,0,0,0,67,39.45h0c-2.76-2.6-5.73-5.16-8.84-7.64-.66-.52-1.32-1-2-1.55l-.48-.36-.2-.16-.25-.19-.46-.34-.17-.13-.54-.4-.16-.12-.54-.4L53.2,28l-.55-.4-.15-.1-.57-.42L51.8,27l-.6-.43a1.25,1.25,0,0,0-.12-.08l-.61-.43-.1-.07-.63-.44-.09-.05L49,25.09l-.06,0-.73-.5-.73-.47c-1-.66-2-1.29-3-1.91h0c-3.58-2.22-7.22-4.26-10.86-6-8.78-4.29-16.31-6.51-22-6.8h-.76a16.83,16.83,0,0,0-4.59.45h0C1.34,11-.93,14.7.35,20.67v.09s0,.06,0,.09a35.11,35.11,0,0,0,5.05,11h0A96.62,96.62,0,0,0,20.3,49.18h0c3.36,3.16,7,6.26,10.83,9.2S38.8,64,42.81,66.46c3.58,2.22,7.22,4.25,10.86,6,7.68,3.76,14.4,5.93,19.78,6.6a44,44,0,0,1-6.38-1.34c-.62-.17-1.24-.36-1.88-.56.64.2,1.26.39,1.88.56a44,44,0,0,0,6.38,1.34A20.54,20.54,0,0,0,81,78.87C86,77.64,88.23,73.92,86.94,67.93Z"/>
          <path class="cls-58" d="M86.93,68l0-.06s0,0,0-.07a35.36,35.36,0,0,0-5.07-11.06A96.63,96.63,0,0,0,67,39.5h0c-2.76-2.6-5.72-5.15-8.84-7.64l-2-1.55L55.65,30l-.2-.16-.25-.18-.46-.35-.17-.13-.54-.4-.16-.12-.54-.4-.17-.11-.55-.41-.14-.1-.58-.42-.13-.08-.59-.43L51,26.58l-.61-.43-.1-.07-.63-.44-.09-.05c-.22-.16-.44-.3-.66-.45l-.06,0-.73-.49-.73-.48c-1-.65-2-1.29-3-1.91h0a123.18,123.18,0,0,0-10.86-6c-8.77-4.29-16.29-6.52-22-6.81h0l-.41,0h-.36a17.13,17.13,0,0,0-4.58.44h0C1.34,11-.92,14.69.37,20.66v0a.13.13,0,0,1,0,.06.29.29,0,0,1,0,.09,34.73,34.73,0,0,0,5.07,11h0A97,97,0,0,0,20.34,49.13h0c3.35,3.15,7,6.25,10.83,9.19s7.67,5.6,11.68,8.09a123,123,0,0,0,10.86,6c7.67,3.76,14.39,5.94,19.76,6.62a43.68,43.68,0,0,1-6.37-1.35c-.62-.17-1.25-.36-1.89-.56.64.2,1.27.39,1.89.56a43.68,43.68,0,0,0,6.37,1.35A20.73,20.73,0,0,0,81,78.86C86,77.62,88.29,73.92,86.93,68Z"/>
          <path class="cls-57" d="M86.91,68v-.06a.64.64,0,0,1,0-.07,35.24,35.24,0,0,0-5.08-11A96.27,96.27,0,0,0,66.92,39.55h0c-2.76-2.6-5.72-5.15-8.84-7.63-.66-.53-1.32-1-2-1.56L55.61,30l-.2-.16-.25-.18-.46-.35-.17-.13-.54-.4-.16-.11-.54-.4-.16-.12-.56-.4-.14-.11-.58-.41-.13-.09-.59-.42L51,26.63l-.62-.43-.09-.07-.64-.43-.09-.06-.66-.45-.06,0c-.22-.16-.45-.31-.73-.49l-.72-.48c-1-.65-2-1.29-3-1.91h0a120.51,120.51,0,0,0-10.85-6.05c-8.77-4.3-16.29-6.54-22-6.84h0l-.42,0h-.36a17.1,17.1,0,0,0-4.57.44h0C1.33,11-.91,14.68.38,20.64v0a.13.13,0,0,0,0,.06.29.29,0,0,0,0,.09,34.78,34.78,0,0,0,5.07,11h0A97.09,97.09,0,0,0,20.37,49.08h0c3.36,3.16,7,6.25,10.84,9.19s7.67,5.6,11.67,8.09c3.58,2.22,7.22,4.26,10.86,6,7.67,3.76,14.38,6,19.75,6.64a45.14,45.14,0,0,1-6.37-1.36c-.62-.17-1.24-.36-1.88-.57.64.21,1.26.4,1.88.57a45.14,45.14,0,0,0,6.37,1.36A20.45,20.45,0,0,0,81,78.84C86,77.62,88.28,73.93,86.91,68Z"/>
          <path class="cls-56" d="M86.89,68v-.07s0,0,0-.06a35.16,35.16,0,0,0-5.09-11A97,97,0,0,0,66.88,39.6h0C64.12,37,61.16,34.45,58,32c-.66-.52-1.32-1-2-1.55l-.47-.37-.21-.16-.25-.18-.46-.35-.17-.13L54,28.84l-.16-.12-.54-.4-.16-.12-.56-.4-.14-.11-.58-.41-.13-.09-.59-.42L51,26.68l-.62-.43-.09-.06-.64-.44-.09-.06-.65-.45-.07,0c-.22-.16-.45-.31-.73-.49l-.72-.48c-1-.65-2-1.29-3-1.91h0c-3.57-2.23-7.21-4.27-10.84-6.06-8.77-4.3-16.28-6.55-22-6.86h0l-.41,0h-.37a17,17,0,0,0-4.56.43h0C1.33,11-.91,14.67.4,20.62v0s0,0,0,.06a.29.29,0,0,1,0,.09,35,35,0,0,0,5.09,11h0A97,97,0,0,0,20.41,49h0c3.36,3.16,7,6.25,10.83,9.19s7.68,5.6,11.68,8.09a120.51,120.51,0,0,0,10.85,6c7.67,3.78,14.38,6,19.73,6.66a45.32,45.32,0,0,1-6.36-1.36l-1.87-.57,1.87.57A45.32,45.32,0,0,0,73.5,79,20.42,20.42,0,0,0,81,78.83C86,77.62,88.27,73.94,86.89,68Z"/>
          <path class="cls-55" d="M86.88,68l0-.07s0,0,0-.06a35.43,35.43,0,0,0-5.11-11A97.42,97.42,0,0,0,66.85,39.65h0C64.08,37.05,61.12,34.5,58,32c-.66-.52-1.32-1-2-1.55l-.47-.37L55.33,30l-.25-.19-.46-.35-.17-.12-.53-.4-.16-.12-.55-.4-.16-.12-.56-.4-.14-.11-.58-.41-.12-.09-.6-.42-.12-.09-.61-.43-.1-.06-.64-.44-.08-.06-.66-.45-.07,0c-.22-.16-.45-.31-.73-.49l-.72-.48c-1-.65-2-1.29-3-1.91h0c-3.58-2.23-7.21-4.27-10.85-6.06C24.73,12,17.23,9.75,11.56,9.43h0l-.41,0H10.8a17.44,17.44,0,0,0-4.56.42h0C1.33,11-.9,14.66.41,20.6v0s0,0,0,.06a.29.29,0,0,0,0,.09,34.61,34.61,0,0,0,5.1,11h0A97.13,97.13,0,0,0,20.45,49h0c3.37,3.15,7,6.24,10.84,9.18S39,63.78,43,66.27c3.58,2.22,7.22,4.26,10.85,6,7.67,3.78,14.37,6,19.72,6.68a47.11,47.11,0,0,1-6.35-1.37l-1.88-.57,1.88.57A47.11,47.11,0,0,0,73.52,79a20.84,20.84,0,0,0,7.53-.18C86,77.62,88.26,74,86.88,68Z"/>
          <path class="cls-54" d="M86.86,68V68s0,0,0-.06a35.58,35.58,0,0,0-5.11-11A97.56,97.56,0,0,0,66.81,39.7h0C64,37.11,61.08,34.55,58,32.07c-.66-.52-1.32-1-2-1.55l-.47-.37L55.29,30,55,29.81l-.46-.35-.17-.12-.53-.4-.16-.12-.55-.4L53,28.3l-.56-.4-.14-.11-.58-.41-.12-.09-.6-.42-.12-.09-.61-.43-.1-.06-.64-.44-.08-.06-.66-.45-.06,0L48,24.81l-.73-.48c-1-.65-2-1.29-3-1.92h0c-3.57-2.23-7.21-4.28-10.84-6.07C24.7,12,17.2,9.78,11.54,9.45h0l-.41,0h-.36a17,17,0,0,0-4.55.41h0C1.33,11-.89,14.65.42,20.58v0s0,0,0,.06a.29.29,0,0,1,0,.09,35.17,35.17,0,0,0,5.11,11h0A97.91,97.91,0,0,0,20.48,48.94h0c3.36,3.15,7,6.24,10.84,9.18S39,63.73,43,66.22a123.15,123.15,0,0,0,10.85,6.06c7.66,3.78,14.35,6,19.7,6.69a45.62,45.62,0,0,1-6.35-1.37c-.61-.18-1.24-.37-1.87-.58.63.21,1.26.4,1.87.58A45.62,45.62,0,0,0,73.54,79a20.6,20.6,0,0,0,7.52-.16C86,77.61,88.25,74,86.86,68Z"/>
          <path class="cls-53" d="M86.84,68.06V68l0-.07a35.6,35.6,0,0,0-5.12-11A97.93,97.93,0,0,0,66.77,39.75h0C64,37.16,61,34.6,57.92,32.12l-2-1.55-.48-.36-.21-.16L55,29.86l-.45-.34-.18-.13-.53-.4-.16-.12-.55-.4L53,28.35l-.55-.4-.15-.11-.58-.41-.12-.09-.6-.42-.12-.09-.61-.42-.1-.07c-.21-.15-.42-.3-.64-.44l-.08-.06-.66-.45-.06,0L48,24.86l-.73-.48c-1-.65-2-1.29-3-1.92h0c-3.57-2.22-7.21-4.27-10.84-6.06-8.75-4.33-16.24-6.59-21.9-6.93h0l-.41,0h-.36a17,17,0,0,0-4.54.4h0C1.33,11-.89,14.64.44,20.56v0s0,0,0,.06a.29.29,0,0,0,0,.09,35.06,35.06,0,0,0,5.12,11h0A97.93,97.93,0,0,0,20.52,48.89h0c3.36,3.15,7,6.24,10.84,9.18S39,63.68,43,66.17c3.57,2.23,7.21,4.27,10.84,6.07,7.66,3.78,14.35,6,19.69,6.71a44,44,0,0,1-6.34-1.39c-.62-.17-1.24-.37-1.88-.57.64.2,1.26.4,1.88.57A44,44,0,0,0,73.56,79a20.79,20.79,0,0,0,7.51-.15C86,77.61,88.25,74,86.84,68.06Z"/>
          <path class="cls-52" d="M86.83,68.08l0-.06V68a35.74,35.74,0,0,0-5.14-11A98,98,0,0,0,66.73,39.8h0C64,37.21,61,34.65,57.88,32.17c-.65-.52-1.32-1-2-1.55l-.48-.36-.21-.16L55,29.91l-.45-.34-.18-.13L53.8,29l-.16-.12-.55-.4-.16-.12-.55-.4-.15-.11-.58-.41-.12-.09-.6-.42-.12-.09-.61-.42-.1-.07L49.46,26l-.08-.06-.66-.45-.06,0-.73-.49-.73-.48c-1-.65-2-1.29-3-1.92h0c-3.57-2.23-7.2-4.27-10.83-6.07C24.64,12.11,17.15,9.84,11.5,9.5h0l-.41,0h-.36a17.35,17.35,0,0,0-4.54.39h0C1.32,11-.88,14.64.45,20.54v.08a.29.29,0,0,1,0,.09,35.23,35.23,0,0,0,5.14,11h0A97.89,97.89,0,0,0,20.55,48.84h0c3.37,3.15,7,6.25,10.84,9.18s7.67,5.61,11.67,8.1c3.57,2.23,7.21,4.28,10.84,6.08,7.65,3.78,14.34,6,19.68,6.72a44,44,0,0,1-6.34-1.39L65.37,77l1.87.57a44,44,0,0,0,6.34,1.39,20.56,20.56,0,0,0,7.5-.13C86,77.61,88.24,74,86.83,68.08Z"/>
          <path class="cls-51" d="M86.81,68.1V68l0-.07A35.72,35.72,0,0,0,81.63,57,98.36,98.36,0,0,0,66.7,39.85h0c-2.77-2.59-5.74-5.15-8.86-7.63-.65-.52-1.32-1-2-1.55l-.48-.36-.21-.16L54.93,30l-.46-.34-.18-.13-.53-.4L53.6,29l-.55-.4-.16-.12-.55-.4-.15-.1-.58-.42-.12-.09-.6-.42-.12-.09-.61-.42-.1-.07L49.42,26l-.08-.06-.66-.45-.06,0L47.89,25l-.72-.48c-1-.65-2-1.29-3-1.92h0c-3.57-2.23-7.21-4.27-10.84-6.07-8.74-4.34-16.22-6.62-21.86-7h0l-.41,0h-.36a17.27,17.27,0,0,0-4.53.39h0C1.32,11-.88,14.63.47,20.52v0l0,.06,0,.09A35.63,35.63,0,0,0,5.65,31.63h0A99.25,99.25,0,0,0,20.59,48.8h0C24,52,27.6,55,31.43,58s7.67,5.61,11.67,8.11c3.57,2.23,7.2,4.27,10.83,6.07,7.65,3.8,14.34,6,19.67,6.75a44,44,0,0,1-6.33-1.4c-.62-.18-1.24-.37-1.87-.58.63.21,1.25.4,1.87.58a44,44,0,0,0,6.33,1.4,20.75,20.75,0,0,0,7.49-.12C86,77.61,88.23,74,86.81,68.1Z"/>
          <path class="cls-50" d="M86.8,68.12l0-.06,0-.07A35.61,35.61,0,0,0,81.6,57.05,98.74,98.74,0,0,0,66.66,39.9h0c-2.77-2.59-5.74-5.15-8.86-7.63-.65-.52-1.32-1-2-1.55l-.48-.36-.21-.16L54.89,30l-.46-.35-.17-.13-.54-.4L53.56,29l-.55-.4-.16-.12-.55-.4-.15-.1-.58-.42-.12-.09-.6-.42L50.73,27l-.61-.43-.1-.07-.63-.44L49.3,26l-.66-.45-.06,0L47.85,25l-.72-.48c-1-.65-2-1.29-3-1.92h0c-3.57-2.23-7.2-4.28-10.83-6.08-8.74-4.34-16.22-6.63-21.85-7h0l-.41,0h-.36a17.34,17.34,0,0,0-4.53.38h0C1.32,11-.87,14.62.48,20.5v.08a.29.29,0,0,1,0,.09A35.56,35.56,0,0,0,5.68,31.59h0a98.87,98.87,0,0,0,15,17.16h0c3.36,3.15,7,6.24,10.84,9.18s7.67,5.6,11.67,8.1c3.56,2.23,7.2,4.28,10.83,6.08,7.64,3.8,14.32,6,19.65,6.77a45.51,45.51,0,0,1-6.33-1.41l-1.87-.58,1.87.58a45.51,45.51,0,0,0,6.33,1.41,20.7,20.7,0,0,0,7.48-.12C86,77.61,88.22,74,86.8,68.12Z"/>
          <path class="cls-49" d="M86.78,68.15l0-.07V68a35.72,35.72,0,0,0-5.18-10.93A98.37,98.37,0,0,0,66.62,40h0c-2.77-2.59-5.74-5.15-8.86-7.62-.65-.53-1.31-1-2-1.55l-.48-.37-.21-.16-.24-.18-.46-.35a1.09,1.09,0,0,1-.17-.13l-.54-.4-.16-.11L53,28.67l-.17-.11-.55-.41-.15-.1-.57-.42-.13-.08-.6-.43L50.69,27l-.61-.43-.1-.07-.63-.44L49.26,26l-.66-.45-.06,0-.73-.49-.72-.48c-1-.65-2-1.29-3-1.92h0c-3.57-2.23-7.2-4.28-10.82-6.08-8.74-4.35-16.21-6.64-21.84-7h0l-.41,0H10.7a17.38,17.38,0,0,0-4.53.36h0C1.32,11-.86,14.61.5,20.48v0l0,0a.29.29,0,0,0,0,.09A35.45,35.45,0,0,0,5.71,31.56h0a99.23,99.23,0,0,0,15,17.14h0c3.37,3.15,7,6.24,10.85,9.18s7.67,5.61,11.66,8.1c3.57,2.23,7.2,4.29,10.83,6.09,7.64,3.8,14.32,6,19.63,6.78a45.71,45.71,0,0,1-6.32-1.41c-.61-.18-1.23-.38-1.86-.59.63.21,1.25.41,1.86.59a45.71,45.71,0,0,0,6.32,1.41,20.51,20.51,0,0,0,7.48-.1C86,77.61,88.22,74,86.78,68.15Z"/>
          <path d="M86.76,68.17s0,0,0-.07,0,0,0-.06a35.51,35.51,0,0,0-5.18-10.91A99.78,99.78,0,0,0,66.58,40h0c-2.77-2.58-5.73-5.13-8.86-7.61-.65-.52-1.31-1-2-1.55l-.48-.37a1.56,1.56,0,0,1-.2-.16l-.25-.18-.46-.35a1.09,1.09,0,0,1-.17-.13l-.54-.4-.16-.11-.54-.4-.17-.12-.55-.41-.15-.1-.57-.41-.13-.09-.59-.43-.13-.08L50,26.66l-.1-.07-.63-.44-.09-.06-.65-.45-.07,0-.73-.49-.72-.48c-1-.65-2-1.29-3-1.92h0c-3.57-2.23-7.19-4.28-10.82-6.09-8.73-4.35-16.2-6.65-21.82-7h0l-.4,0h-.36a16.89,16.89,0,0,0-4.52.36h0C1.31,11-.86,14.6.51,20.46v0s0,0,0,.05a.29.29,0,0,1,0,.09A35.8,35.8,0,0,0,5.73,31.52h0a99.78,99.78,0,0,0,15,17.14h0c3.37,3.15,7,6.24,10.85,9.18s7.66,5.61,11.66,8.1c3.57,2.24,7.2,4.29,10.82,6.1,7.64,3.8,14.31,6,19.62,6.8a44.1,44.1,0,0,1-6.31-1.43c-.61-.18-1.24-.37-1.87-.58.63.21,1.26.4,1.87.58a44.1,44.1,0,0,0,6.31,1.43,20.48,20.48,0,0,0,7.47-.09C86,77.63,88.14,74,86.76,68.17Z"/>
        </g>
      </g>
    </g>
  </g>
</svg>
