<?xml version="1.0" encoding="UTF-8"?>
<svg id="_Слой_2" data-name="Слой 2" xmlns="http://www.w3.org/2000/svg" viewBox="0 0 785.06 299.26">
  <defs>
    <style>
      .cls-1 {
        fill: #e40539;
        stroke-width: 0px;
      }
    </style>
  </defs>
  <g id="_Слой_1-2" data-name="Слой 1">
    <g id="_Слой_2-2" data-name="Слой 2">
      <g id="_Слой_1-2" data-name="Слой 1-2">
        <path class="cls-1" d="m50,124.9H0c1.06-14.45,9.16-22.23,23.37-22.74,8.3-.3,16.65-.42,24.94,0,5.59.31,8-1.38,9.36-7.08,4.55-19.3,9.4-38.55,14.87-57.61,3.67-12.8,12.4-21.88,24.22-28C112.16,1.47,128.37-1.72,145.53,1.47c15.79,2.95,28.83,11.5,30,26.06.38,5.27-.08,10.57-1.37,15.7-10.14,41.38-20.55,82.7-30.84,124-1.41,5.68-3.2,11.62,5,14.29-1.53,6-3,11.69-4.63,18.19-8.11-.66-16-.79-23.62-2.05-10.71-1.75-16.49-13.07-13.48-25.5,3.73-15.43,7.63-30.81,11.75-47.39-10.62,0-20.46-.31-30.23.3-1.68.1-3.9,3.91-4.54,6.36-5.27,20.57-10.29,41.17-15.43,61.72-.49,2-1.16,3.88-1.77,5.9H31.74l18.26-74.15Zm40.8-22.53c10.74,0,20.16.23,29.55-.21,1.63-.08,4-2.7,4.55-4.57,3.63-13.06,7.02-26.21,10.17-39.46,2.19-9.16,4.76-18.35,5.61-27.66.84-9.15-6.46-14.35-15.46-12.41-7.43,1.38-13.52,6.7-15.89,13.87-2.34,6.46-4.07,13.16-5.78,19.82-4.23,16.45-8.3,32.93-12.74,50.62h0Z"/>
        <path class="cls-1" d="m229.4,60.92c-9.92,40.29-19.66,79.88-29.7,120.66,10.91-.35,21.09-5.57,27.74-14.23,3.52-4.55,6.06-9.78,7.48-15.35,7.24-27.92,14-56,20.87-84,.55-2.21,1.21-4.39,1.74-6.27h95.78c-2.52,10.36-4.68,19.61-7,28.81-6.35,24.82-12.75,49.62-19.2,74.41-1.71,6.59-1.79,12.29,5.52,15.84,1.15.57,1.91,3.54,1.61,5.18-.77,4.27-2.23,8.42-3.52,13-10.28.73-20-.16-29-4.94-10.59-5.61-14.64-14.88-11.63-26.8,6.67-26.4,13.53-52.76,20.3-79.14.63-2.44,1.13-4.91,1.92-8.31-7.44,0-14.33-.31-21.16.22-1.57.13-3.75,2.89-4.25,4.81-3.76,14.52-7,29.17-10.73,43.71-8.76,34.53-29.58,58.75-64.14,67.83-16.17,4.25-33.83,2.82-52,4,5.13-21.13,9.92-40.56,14.56-60,5.89-24.69,11.58-49.43,17.63-74.09.5-2.05,3-5.06,4.67-5.14,10.54-.44,21.11-.2,32.51-.2Z"/>
        <path class="cls-1" d="m426.83,188.15c-14.64,11.56-30.92,13.58-48.12,9.13-19.06-4.92-27.28-18.68-22.84-37.73,4.3-18.42,8.8-36.8,13.35-55.16,5.76-23.22,22.74-40.11,46.54-42,23.37-1.83,47-.4,70.74-.4-6.38,26.53-12.89,53.65-19.45,80.75-2,8.29-4.17,16.53-6.19,24.81-1.57,6.48-1.34,12.22,7.67,14.24-1.38,5.9-2.68,11.4-4.1,17.44-13.43-.06-27.1,1.62-37.6-11.08Zm21-109.48c-8.95,0-16.54-.1-24.12,0-8.87.15-13.36,2.84-15.67,11.7-6.67,25.4-12.93,50.9-18.78,76.5-1.87,8.13,2.58,13.57,10.94,14.19,3.88.23,7.76-.46,11.33-2,7.21-3.12,13-8.35,15.06-16.17,7.15-27.53,13.94-55.24,21.21-84.22h.03Z"/>
        <path class="cls-1" d="m629.9,60.89c10.58.12,20.68,1.84,29.3,8.69,8.3,6.59,12.58,15.26,10.31,25.58-5.06,23-9.46,46.24-16.94,68.44-8.07,23.92-28.48,33.36-52.37,35.45-11.87,1-23.58-.2-33.83-7.42-9.63-6.78-14.16-16-11.54-27.55,4.9-21.6,9.88-43.22,15.87-64.53,6.8-24.14,30.21-38.9,59.2-38.66Zm5.21,32.47c-.46-5.68-1-11.06-7.09-13.34s-11.09.19-14.76,4.73c-2.84,3.5-5.52,7.62-6.69,11.9-4.64,16.87-8.78,33.89-12.84,50.92-1.7,7.15-3.59,14.45-3.72,21.71-.06,3.61,2.85,8.92,5.93,10.46s8.53.32,11.93-1.55c6.85-3.78,9.49-11,11.33-18.27,2.58-10.29,5.2-20.57,7.66-30.89,2.83-11.87,5.51-23.78,8.25-35.67h0Z"/>
        <path class="cls-1" d="m537.42,177.17c-1.37,5.37-2.77,10.88-4.39,17.26-8.34-.92-16.31-.91-23.79-2.83-13.2-3.38-18.48-16.21-14.35-32.68,6.06-24.17,12.15-48.33,18.27-72.48.77-3.06,1.39-6.16,2.3-10.23h-16.81c.23-1.77.26-2.69.47-3.57,3-12.81,3-13,15.92-13.28,4.27-.09,5.64-2.13,6.46-5.55l6.19-25.81h34.87c-2.56,10.24-5.1,20.18-7.84,31h15.18c-1.46,5.81-2.15,10.8-4.15,15.19-.66,1.45-4.77,2-7.21,1.84-5.78-.46-8.42,1.38-9.84,7.44-5.92,25.18-12.49,50.21-18.82,75.29-2.66,10.59-1.88,12.63,7.54,18.41Z"/>
        <path class="cls-1" d="m735.15,68.84c16-10.67,32.41-12.06,49.91-10.58-2.83,11-5.45,21.75-8.46,32.36-.4,1.4-2.77,3-4.34,3.15-5,.4-10.11.15-15.68.15l3.85-17.51c-16.63,6.46-28.57,17-34.5,32.24-6.07,15.57-9.58,32.16-14.06,48.35-2.89,10.44-5.35,21-8.43,31.39-.51,1.74-3.13,4-4.84,4.05-10.35.38-20.72.19-32,.19,4-15.57,7.76-30.44,11.58-45.29,7.18-27.91,14.5-55.79,21.48-83.75,1.1-4.41,2.88-6,7.41-5.85,9.65.3,19.33.09,29.75.09-.54,3.45-.96,6.25-1.67,11.01Z"/>
        <path class="cls-1" d="m392.87,238.61h102.65c6.4,0,11.46,1.46,13.15,8.49,1.47,5.67-1.94,11.45-7.61,12.92-.21.05-.43.1-.64.14-1.83.25-3.68.34-5.53.25-68,0-135.94.09-203.91-.19-4.11,0-9.41-1.88-11.94-4.81-2-2.32-2.14-8.6-.35-11.28,2-2.93,7.08-5.21,10.85-5.25,34.46-.43,68.89-.27,103.33-.27Z"/>
        <path class="cls-1" d="m393.57,299.25h-65.19c-6.2,0-10.9-2-12.45-8.59-1.79-7.62,3.39-13.16,12.5-13.17,28.67-.06,57.33-.06,86,0,14.33,0,28.66-.06,43,0,8.3.05,13,4.3,12.81,11.21-.23,6.61-4.82,10.49-12.86,10.51-21.27.08-42.54.04-63.81.04Z"/>
        <path class="cls-1" d="m327.61,20.63c.05-10.85,10.66-20.86,21.87-20.63,8.23.18,15.08,6.93,15.11,14.92.05,11-10.93,21.66-22.2,21.44-8.84-.17-14.82-6.53-14.78-15.73Z"/>
      </g>
    </g>
  </g>
</svg>