<svg xmlns="http://www.w3.org/2000/svg" xmlns:xlink="http://www.w3.org/1999/xlink" width="33.56" height="19.58" viewBox="0 0 33.56 19.58">
  <defs>
    <style>
      .cls-1 {
        fill: none;
      }

      .cls-2 {
        clip-path: url(#clip-path);
      }

      .cls-3 {
        fill: #ea0020;
      }

      .cls-4 {
        fill: #fff;
      }
    </style>
    <clipPath id="clip-path">
      <rect class="cls-1" width="33.56" height="19.58"/>
    </clipPath>
  </defs>
  <g id="Слой_2" data-name="Слой 2">
    <g id="_4" data-name="4">
      <g id="CANADA">
        <g class="cls-2">
          <rect class="cls-3" width="7.9" height="19.58"/>
          <rect class="cls-3" x="25.67" width="7.9" height="19.58"/>
          <rect class="cls-4" x="7.9" width="17.77" height="19.58"/>
          <g class="cls-2">
            <path class="cls-3" d="M16.78,2.54,15.62,4.8c-.14.25-.37.22-.61.08l-.84-.45.63,3.48c.13.63-.3.63-.51.36L12.82,6.55l-.24.87a.28.28,0,0,1-.33.21L10.4,7.22l.48,1.85c.11.41.19.58-.1.69l-.66.32,3.2,2.71a.46.46,0,0,1,.14.46l-.28,1,3.19-.39c.1,0,.27.09.26.21l-.14,3.51H17L16.94,14c0-.11.15-.21.24-.21l3.2.39-.28-1a.46.46,0,0,1,.14-.46l3.2-2.71-.66-.32c-.29-.11-.21-.28-.1-.69l.49-1.85-1.87.41A.29.29,0,0,1,21,7.42l-.23-.87L19.26,8.27c-.2.27-.63.27-.5-.36l.63-3.48-.84.45c-.24.14-.47.17-.6-.08Z"/>
          </g>
        </g>
      </g>
    </g>
  </g>
</svg>
