<svg xmlns="http://www.w3.org/2000/svg" width="1920" height="1080" viewBox="0 0 1920 1080">
  <defs>
    <style>
      .cls-1 {
        opacity: 0.1;
      }

      .cls-2 {
        fill: #fff;
      }
    </style>
  </defs>
  <g id="Слой_2" data-name="Слой 2">
    <g id="Слой_1-2" data-name="Слой 1">
      <g class="cls-1">
        <polygon class="cls-2" points="771.82 1080 990.93 518 708.27 1080 771.82 1080"/>
        <polygon class="cls-2" points="0 669.63 990.93 518 0 575.14 0 669.63"/>
        <polygon class="cls-2" points="898.9 1080 990.93 518 843.49 1080 898.9 1080"/>
        <polygon class="cls-2" points="0 892.44 990.93 518 0 789.09 0 892.44"/>
        <polygon class="cls-2" points="423.01 1080 990.93 518 304.3 1080 423.01 1080"/>
        <polygon class="cls-2" points="1017.43 1080 990.93 518 964.43 1080 1017.43 1080"/>
        <polygon class="cls-2" points="0 1080 115.53 1080 990.93 518 0 1029.46 0 1080"/>
        <polygon class="cls-2" points="621.76 1080 990.93 518 540.68 1080 621.76 1080"/>
        <polygon class="cls-2" points="1920 772.16 990.93 518 1920 869.07 1920 772.16"/>
        <polygon class="cls-2" points="1920 1080 1920 997.53 990.93 518 1866.34 1080 1920 1080"/>
        <polygon class="cls-2" points="1920 571.57 990.93 518 1920 660.17 1920 571.57"/>
        <polygon class="cls-2" points="1273.59 1080 990.93 518 1210.04 1080 1273.59 1080"/>
        <polygon class="cls-2" points="1677.56 1080 990.93 518 1558.85 1080 1677.56 1080"/>
        <polygon class="cls-2" points="1138.37 1080 990.93 518 1082.96 1080 1138.37 1080"/>
        <polygon class="cls-2" points="1441.18 1080 990.93 518 1360.1 1080 1441.18 1080"/>
        <polygon class="cls-2" points="730.4 0 990.93 518 788.97 0 730.4 0"/>
        <polygon class="cls-2" points="0 460.86 990.93 518 0 366.37 0 460.86"/>
        <polygon class="cls-2" points="1514.38 0 990.93 518 1623.8 0 1514.38 0"/>
        <polygon class="cls-2" points="1192.89 0 990.93 518 1251.46 0 1192.89 0"/>
        <polygon class="cls-2" points="1331.19 0 990.93 518 1405.93 0 1331.19 0"/>
        <polygon class="cls-2" points="1920 0 1797.8 0 990.93 518 1920 38.47 1920 0"/>
        <polygon class="cls-2" points="1920 375.83 990.93 518 1920 464.43 1920 375.83"/>
        <polygon class="cls-2" points="1920 166.93 990.93 518 1920 263.84 1920 166.93"/>
        <polygon class="cls-2" points="1075.76 0 990.93 518 1126.82 0 1075.76 0"/>
        <polygon class="cls-2" points="358.06 0 990.93 518 467.48 0 358.06 0"/>
        <polygon class="cls-2" points="0 0 0 6.54 990.93 518 184.06 0 0 0"/>
        <polygon class="cls-2" points="0 246.91 990.93 518 0 143.56 0 246.91"/>
        <polygon class="cls-2" points="575.93 0 990.93 518 650.67 0 575.93 0"/>
        <polygon class="cls-2" points="855.03 0 990.93 518 906.1 0 855.03 0"/>
        <polygon class="cls-2" points="966.5 0 990.93 518 1015.36 0 966.5 0"/>
      </g>
    </g>
  </g>
</svg>
