<?xml version="1.0" encoding="UTF-8"?>
<svg id="_Слой_2" data-name="Слой 2" xmlns="http://www.w3.org/2000/svg" viewBox="0 0 567.66 114.54">
  <defs>
    <style>
      .cls-1 {
        fill: #fff;
      }

      .cls-1, .cls-2 {
        stroke-width: 0px;
      }

      .cls-2 {
        fill: #029df6;
      }
    </style>
  </defs>
  <g id="_Слой_2-2" data-name="Слой 2">
    <g>
      <path class="cls-1" d="m21.82,19.1c3.54,1.61,5.31,4.42,5.31,8.46,0,3.21-1.27,5.81-3.8,7.78-2.53,1.98-5.84,2.97-9.91,2.97s-7.38-.94-9.8-2.83-3.63-4.43-3.63-7.64c0-3.96,1.81-6.81,5.43-8.57-3.24-1.83-4.86-4.46-4.86-7.9S1.78,5.26,4.2,3.33C6.62,1.41,9.69.45,13.42.45s7.03.92,9.45,2.74c2.42,1.83,3.63,4.55,3.63,8.18,0,3.36-1.56,5.94-4.68,7.73Zm-8.34,12.71c1.75,0,3.07-.42,3.97-1.26.89-.84,1.34-1.86,1.34-3.05,0-1.34-.47-2.44-1.4-3.3-.93-.86-2.24-1.29-3.91-1.29s-3,.47-3.86,1.4c-.86.93-1.29,2.04-1.29,3.3,0,1.16.41,2.15,1.23,2.97.82.82,2.12,1.23,3.91,1.23Zm-.06-24.86c-1.52,0-2.65.42-3.37,1.26-.72.84-1.09,1.86-1.09,3.05,0,1.42.44,2.52,1.31,3.3.88.78,1.98,1.18,3.31,1.18s2.38-.39,3.26-1.18c.88-.78,1.31-1.88,1.31-3.3,0-2.87-1.58-4.31-4.74-4.31Z"/>
      <path class="cls-1" d="m52.95,19.1c3.54,1.61,5.31,4.42,5.31,8.46,0,3.21-1.27,5.81-3.8,7.78-2.53,1.98-5.84,2.97-9.91,2.97s-7.38-.94-9.8-2.83-3.63-4.43-3.63-7.64c0-3.96,1.81-6.81,5.43-8.57-3.24-1.83-4.86-4.46-4.86-7.9s1.21-6.11,3.63-8.04c2.42-1.92,5.49-2.88,9.23-2.88s7.03.92,9.45,2.74c2.42,1.83,3.63,4.55,3.63,8.18,0,3.36-1.56,5.94-4.68,7.73Zm-8.34,12.71c1.75,0,3.07-.42,3.97-1.26.89-.84,1.34-1.86,1.34-3.05,0-1.34-.47-2.44-1.4-3.3-.93-.86-2.24-1.29-3.91-1.29s-3,.47-3.86,1.4c-.86.93-1.29,2.04-1.29,3.3,0,1.16.41,2.15,1.23,2.97.82.82,2.12,1.23,3.91,1.23Zm-.06-24.86c-1.52,0-2.65.42-3.37,1.26-.72.84-1.09,1.86-1.09,3.05,0,1.42.44,2.52,1.31,3.3.88.78,1.98,1.18,3.31,1.18s2.38-.39,3.26-1.18c.88-.78,1.31-1.88,1.31-3.3,0-2.87-1.58-4.31-4.74-4.31Z"/>
      <path class="cls-1" d="m62.26,19.26c0-5.82,1.14-10.43,3.43-13.83,2.28-3.4,5.67-5.1,10.17-5.1s7.89,1.7,10.2,5.1c2.3,3.4,3.46,8.01,3.46,13.83s-1.15,10.34-3.46,13.78c-2.3,3.44-5.7,5.15-10.2,5.15s-7.88-1.71-10.17-5.12c-2.29-3.42-3.43-8.02-3.43-13.8Zm8.51,0c0,7.77,1.69,11.65,5.08,11.65s5.14-3.88,5.14-11.65-1.71-11.65-5.14-11.65-5.08,3.88-5.08,11.65Z"/>
      <path class="cls-1" d="m107.79,19.26c0-5.82,1.14-10.43,3.43-13.83,2.28-3.4,5.67-5.1,10.17-5.1s7.89,1.7,10.2,5.1c2.3,3.4,3.46,8.01,3.46,13.83s-1.15,10.34-3.46,13.78c-2.3,3.44-5.7,5.15-10.2,5.15s-7.88-1.71-10.17-5.12c-2.29-3.42-3.43-8.02-3.43-13.8Zm8.51,0c0,7.77,1.69,11.65,5.08,11.65s5.14-3.88,5.14-11.65-1.71-11.65-5.14-11.65-5.08,3.88-5.08,11.65Z"/>
      <path class="cls-1" d="m139.03,19.26c0-5.82,1.14-10.43,3.43-13.83,2.28-3.4,5.67-5.1,10.17-5.1s7.89,1.7,10.2,5.1c2.3,3.4,3.46,8.01,3.46,13.83s-1.15,10.34-3.46,13.78c-2.3,3.44-5.7,5.15-10.2,5.15s-7.88-1.71-10.17-5.12c-2.29-3.42-3.43-8.02-3.43-13.8Zm8.51,0c0,7.77,1.69,11.65,5.08,11.65s5.14-3.88,5.14-11.65-1.71-11.65-5.14-11.65-5.08,3.88-5.08,11.65Z"/>
      <path class="cls-1" d="m170.27,19.26c0-5.82,1.14-10.43,3.43-13.83,2.28-3.4,5.67-5.1,10.17-5.1s7.89,1.7,10.2,5.1c2.3,3.4,3.46,8.01,3.46,13.83s-1.15,10.34-3.46,13.78c-2.3,3.44-5.7,5.15-10.2,5.15s-7.88-1.71-10.17-5.12c-2.29-3.42-3.43-8.02-3.43-13.8Zm8.51,0c0,7.77,1.69,11.65,5.08,11.65s5.14-3.88,5.14-11.65-1.71-11.65-5.14-11.65-5.08,3.88-5.08,11.65Z"/>
      <path class="cls-1" d="m229.11,6.1h-8.85c.95,1.04,1.66,2.18,2.11,3.42h6.74v6.1h-6.17c-.42,2.65-1.5,4.8-3.23,6.44-1.73,1.64-4.08,2.71-7.05,3.19l10.91,12.49h-10.51l-10.11-12.26v-6.44h4.97c3.54,0,5.69-1.14,6.46-3.42h-11.42v-6.1h11.08c-1.14-2.28-3.24-3.42-6.28-3.42h-4.8V0h26.16v6.1Z"/>
      <path class="cls-2" d="m282.17.17v6.27h-5.71v31.3h-8.11v-20.16h-4c-2.59,0-4.56.57-5.91,1.71-1.35,1.14-2.03,2.79-2.03,4.96,0,4.56,2,6.83,6,6.83.42,0,.74-.02.97-.06v6.55c-.91.08-1.68.11-2.29.11-4.04,0-7.18-1.24-9.42-3.72-2.25-2.48-3.37-5.74-3.37-9.77s1.33-7.11,4-9.46c2.67-2.35,6.61-3.53,11.82-3.53h4.23v-4.76h-24.33V.17h38.16Z"/>
      <path class="cls-2" d="m328.38,6.44h-20.79v6.1c1.68-1.46,3.69-2.18,6.05-2.18,3.39,0,6.12,1.04,8.2,3.11,2.08,2.07,3.11,4.71,3.11,7.92,0,3.47-1.18,6.24-3.54,8.32-2.36,2.07-5.39,3.11-9.08,3.11-.57,0-1.01-.02-1.31-.06v-6.33c.23.04.53.06.91.06,1.56,0,2.77-.47,3.63-1.4.86-.93,1.29-2.13,1.29-3.58,0-1.34-.4-2.49-1.2-3.44-.8-.95-1.96-1.43-3.48-1.43-1.33,0-2.43.48-3.28,1.43-.86.95-1.29,2.21-1.29,3.78v15.9h-8.11v-6.5c-1.64,1.42-3.66,2.13-6.05,2.13-3.39,0-6.12-1.04-8.2-3.11-2.08-2.07-3.11-4.71-3.11-7.92,0-3.47,1.18-6.24,3.54-8.32,2.36-2.07,5.39-3.11,9.08-3.11.53,0,.97.02,1.31.06v6.33c-.23-.04-.53-.06-.91-.06-1.56,0-2.77.47-3.63,1.4-.86.93-1.29,2.13-1.29,3.58,0,1.34.4,2.49,1.2,3.44.8.95,1.96,1.43,3.48,1.43,1.33,0,2.43-.48,3.28-1.43.86-.95,1.29-2.21,1.29-3.78V6.44h-20.73V.17h49.64v6.27Z"/>
      <path class="cls-1" d="m372.02,15.12v7.28h-10.45v10.08h-7.65v-10.08h-10.4v-7.28h10.4V4.98h7.65v10.14h10.45Z"/>
      <path class="cls-1" d="m400.58,7.95v6.22c.84-.11,1.67-.17,2.51-.17,4.07,0,7.2,1.03,9.37,3.08,2.17,2.05,3.26,4.85,3.26,8.4,0,3.81-1.29,6.86-3.86,9.16-2.57,2.3-6.22,3.44-10.94,3.44-4.15,0-7.5-.65-10.05-1.96v-7.73c2.59,1.57,5.48,2.35,8.68,2.35,5.1,0,7.65-1.79,7.65-5.38,0-1.34-.52-2.41-1.57-3.19-1.05-.78-2.62-1.18-4.71-1.18-2.93,0-5.75.62-8.45,1.85V1.01h20.96v6.94h-12.85Z"/>
      <path class="cls-1" d="m419.43,19.26c0-5.82,1.14-10.43,3.43-13.83,2.28-3.4,5.67-5.1,10.17-5.1s7.89,1.7,10.2,5.1c2.3,3.4,3.46,8.01,3.46,13.83s-1.15,10.34-3.46,13.78c-2.3,3.44-5.7,5.15-10.2,5.15s-7.88-1.71-10.17-5.12c-2.29-3.42-3.43-8.02-3.43-13.8Zm8.51,0c0,7.77,1.69,11.65,5.08,11.65s5.14-3.88,5.14-11.65-1.71-11.65-5.14-11.65-5.08,3.88-5.08,11.65Z"/>
      <path class="cls-1" d="m461.24,6.44V.17h36.84v6.27h-5.71v31.3h-7.88v-14.62h-9.02v6.83h-6.8l-2.06-4.48c-1.1-2.46-1.66-4.18-1.66-5.15,0-1.6.86-2.63,2.57-3.08V6.44h-6.28Zm23.25,0h-9.02v10.42h9.02V6.44Z"/>
      <path class="cls-1" d="m471.35,48.38v-8.62c2.13,2.17,4.7,4.16,7.71,5.99,3.01,1.83,5.85,2.74,8.51,2.74,1.18,0,2.09-.25,2.74-.76s.97-1.19.97-2.04c0-.71-.32-1.27-.97-1.68-.65-.41-1.5-.62-2.57-.62-1.9,0-3.92.5-6.05,1.51v-6.83c1.98-.67,4.06-1.01,6.23-1.01,3.47,0,6.19.77,8.17,2.32,1.98,1.55,2.97,3.65,2.97,6.3s-.99,4.85-2.97,6.61c-1.98,1.75-4.72,2.63-8.23,2.63-3.16,0-6.21-.68-9.14-2.04-2.93-1.36-5.39-2.87-7.37-4.51Z"/>
      <path class="cls-1" d="m567.66.17v6.27h-5.71v31.3h-8.11v-20.16h-4c-2.59,0-4.56.57-5.91,1.71-1.35,1.14-2.03,2.79-2.03,4.96,0,4.56,2,6.83,6,6.83.42,0,.74-.02.97-.06v6.55c-.91.08-1.68.11-2.29.11-4.04,0-7.18-1.24-9.42-3.72-2.25-2.48-3.37-5.74-3.37-9.77,0-2.2.4-4.14,1.2-5.82-1.11-1.57-2.63-2.35-4.57-2.35-1.49,0-2.71.46-3.66,1.37-.95.92-1.43,2.19-1.43,3.84v16.52h-8.11v-11.87c-1.83,1.53-4.06,2.3-6.68,2.3-3.39,0-6.03-.93-7.91-2.8-1.88-1.87-2.83-4.74-2.83-8.62V6.44h-5.14V.17h73Zm-59.75,6.27v10.64c0,3.21,1.41,4.82,4.23,4.82,1.49,0,2.7-.46,3.66-1.37.95-.92,1.43-2.19,1.43-3.84V6.44h-9.31Zm45.92,4.76v-4.76h-28.5v5.6c1.83-1.53,4.06-2.3,6.68-2.3,3.39,0,6.09,1.14,8.11,3.42,2.47-1.31,5.64-1.96,9.48-1.96h4.23Z"/>
      <path class="cls-1" d="m22.55,54.96c21.89,0,41.45,1.6,58.69,4.8v7.81c-17.02-3.37-36.49-5.06-58.43-5.06-2.57,0-4.36.46-5.38,1.38-1.02.92-1.53,2.29-1.53,4.13v3.58h6.53v7.17h-6.53v35.78H6.69v-35.78H.16v-7.17h6.53v-3.65c0-3.97,1.32-7.12,3.95-9.47,2.63-2.35,6.6-3.52,11.91-3.52Z"/>
      <path class="cls-1" d="m86.85,71.6v7.17h-6.53v35.78h-9.27v-13.57c-2.09,1.75-4.63,2.62-7.64,2.62-4.79,0-8.18-1.54-10.18-4.61h-11.82c-2.48,0-5.2-.17-8.16-.51l12.21,16.06h-11.1l-12.6-17.22v-6.27h4.63c4,0,6.01-1.64,6.01-4.93v-7.36h-13.9v-7.17h68.35Zm-46.67,20.29h11.03c-.04-.3-.07-.75-.07-1.34v-11.78h-9.6v7.3c0,2.26-.46,4.2-1.37,5.82Zm30.88-1.41v-11.71h-10.64v12.16c0,3.67,1.61,5.5,4.83,5.5,1.7,0,3.09-.52,4.18-1.57,1.09-1.04,1.63-2.51,1.63-4.38Z"/>
      <path class="cls-1" d="m82.93,71.6h38.45v7.17h-6.53v35.78h-9.27v-20.22h-8.16c-.78,0-1.35.19-1.7.58-.35.38-.52,1.15-.52,2.3,0,1.24.17,2.71.52,4.42h-7.31c-1.48-2.43-2.22-5.21-2.22-8.32,0-1.92.61-3.42,1.83-4.51,1.22-1.09,3-1.63,5.35-1.63h12.21v-8.38h-22.65v-7.17Z"/>
      <path class="cls-2" d="m177.39,71.6v7.17h-6.53v35.78h-9.27v-23.04h-4.57c-2.96,0-5.21.65-6.76,1.95-1.54,1.3-2.32,3.19-2.32,5.66,0,5.21,2.29,7.81,6.85,7.81.48,0,.85-.02,1.11-.06v7.49c-1.04.09-1.92.13-2.61.13-4.61,0-8.2-1.42-10.77-4.26-2.57-2.84-3.85-6.56-3.85-11.17s1.52-8.13,4.57-10.82c3.05-2.69,7.55-4.03,13.51-4.03h4.83v-5.44h-27.81v-7.17h43.61Z"/>
      <path class="cls-2" d="m230.21,78.77h-23.76v6.98c1.92-1.66,4.22-2.5,6.92-2.5,3.87,0,7,1.18,9.37,3.55s3.56,5.39,3.56,9.06c0,3.97-1.35,7.14-4.05,9.5-2.7,2.37-6.16,3.55-10.38,3.55-.65,0-1.15-.02-1.5-.06v-7.23c.26.04.61.06,1.04.06,1.78,0,3.17-.53,4.14-1.6.98-1.07,1.47-2.43,1.47-4.1,0-1.54-.46-2.85-1.37-3.94-.91-1.09-2.24-1.63-3.98-1.63-1.52,0-2.77.54-3.75,1.63-.98,1.09-1.47,2.53-1.47,4.32v18.18h-9.27v-7.42c-1.87,1.62-4.18,2.43-6.92,2.43-3.87,0-7-1.18-9.37-3.55-2.37-2.37-3.56-5.39-3.56-9.06,0-3.97,1.35-7.14,4.05-9.5,2.7-2.37,6.16-3.55,10.38-3.55.61,0,1.11.02,1.5.06v7.23c-.26-.04-.61-.06-1.04-.06-1.79,0-3.17.53-4.15,1.6-.98,1.07-1.47,2.43-1.47,4.1,0,1.54.46,2.85,1.37,3.94.91,1.09,2.24,1.63,3.98,1.63,1.52,0,2.77-.54,3.75-1.63s1.47-2.53,1.47-4.32v-17.66h-23.7v-7.17h56.73v7.17Z"/>
      <path class="cls-1" d="m312.65,71.6v7.17h-6.53v35.78h-9.27v-8.64c-2.39,2.09-5.42,3.14-9.07,3.14-3.44,0-6.44-.88-9.01-2.66-2.57-1.77-4.18-4.23-4.83-7.39h-8.42c-2.48,0-5.2-.17-8.16-.51l12.21,16.06h-11.1l-12.6-17.22v-6.27h4.63c4,0,6.01-1.64,6.01-4.93v-7.36h-13.9v-7.17h70.04Zm-15.8,24.32v-17.15h-31.2v7.3c0,2.26-.46,4.2-1.37,5.82h9.86c.83-2.9,2.48-5.24,4.96-7.01,2.48-1.77,5.5-2.66,9.07-2.66,1.74,0,3.26.17,4.57.51v7.81c-1.48-.38-2.76-.58-3.85-.58-1.7,0-3.11.51-4.24,1.54-1.13,1.02-1.7,2.39-1.7,4.1,0,2.01.58,3.55,1.73,4.64s2.82,1.63,4.99,1.63c1.74,0,3.37-.57,4.9-1.7,1.52-1.13,2.28-2.55,2.28-4.26Z"/>
      <path class="cls-1" d="m308.74,78.77v-7.17h22.26v7.17h-6.53v35.78h-9.21v-35.78h-6.53Z"/>
      <path class="cls-1" d="m327.08,71.6h42.11v7.17h-6.53v35.78h-9.14v-35.78h-7.25v13.7c0,3.07-.88,5.36-2.64,6.85-1.76,1.49-4.04,2.24-6.82,2.24-2.09,0-4.03-.3-5.81-.9v-7.04c.96.51,2.02.77,3.2.77,1.91,0,2.87-.98,2.87-2.94v-12.67h-9.99v-7.17Z"/>
      <path class="cls-1" d="m408.88,71.6v7.17h-6.53v35.78h-9.27v-23.04h-4.57c-2.96,0-5.21.65-6.76,1.95-1.54,1.3-2.32,3.19-2.32,5.66,0,5.21,2.29,7.81,6.85,7.81.48,0,.85-.02,1.11-.06v7.49c-1.04.09-1.92.13-2.61.13-4.61,0-8.2-1.42-10.77-4.26-2.57-2.84-3.85-6.56-3.85-11.17s1.52-8.13,4.57-10.82c3.05-2.69,7.55-4.03,13.51-4.03h4.83v-5.44h-27.81v-7.17h43.61Z"/>
      <path class="cls-1" d="m466.45,71.6v7.17h-6.53v35.78h-9.27v-8.45c-2.74,2.48-6.12,3.71-10.12,3.71s-7.56-1.32-10.54-3.97c-2.98-2.64-4.47-5.97-4.47-9.98s1.38-7.35,4.14-10.02c2.76-2.67,6.43-4,11-4,2,0,3.76.17,5.29.51v7.81c-1.31-.43-2.81-.64-4.5-.64-.78,0-1.54.11-2.28.32l10.84,8.77c.43-.94.65-1.83.65-2.69v-17.15h-29.38v-7.17h45.17Zm-19.52,29.89l-11.1-9.09c-.65,1.02-.98,2.26-.98,3.71,0,2.01.65,3.62,1.96,4.83,1.31,1.22,2.98,1.82,5.03,1.82,1.78,0,3.48-.43,5.09-1.28Z"/>
      <path class="cls-1" d="m478.27,71.6h6.46v7.17h-6.53v35.78h-9.14v-35.78h-6.53v-7.17h5.88l-4.37-6.27c-1.17-1.75-2.83-2.62-4.96-2.62-1.35,0-2.74.21-4.18.64v-7.55c1.57-.3,3.22-.45,4.96-.45,2.66.04,4.9.51,6.72,1.41,1.83.9,3.44,2.39,4.83,4.48l6.85,10.37Z"/>
      <path class="cls-1" d="m480.82,71.6h38.45v7.17h-6.53v35.78h-9.27v-20.22h-8.16c-.78,0-1.35.19-1.7.58-.35.38-.52,1.15-.52,2.3,0,1.24.17,2.71.52,4.42h-7.31c-1.48-2.43-2.22-5.21-2.22-8.32,0-1.92.61-3.42,1.83-4.51,1.22-1.09,3-1.63,5.35-1.63h12.21v-8.38h-22.65v-7.17Z"/>
      <path class="cls-1" d="m563.79,71.6v7.17h-6.53v35.78h-9.2v-15.55h-9.79c-2.48,0-5.2-.17-8.16-.51l12.21,16.06h-11.1l-12.6-17.22v-6.27h4.63c4,0,6.01-1.64,6.01-4.93v-7.36h-13.9v-7.17h48.44Zm-26.76,20.29h11.03v-13.12h-9.66v7.3c0,2.26-.46,4.2-1.37,5.82Z"/>
    </g>
  </g>
</svg>