<?xml version="1.0" encoding="UTF-8"?>
<svg id="_Слой_2" data-name="Слой 2" xmlns="http://www.w3.org/2000/svg" viewBox="0 0 571.8 93.49">
  <defs>
    <style>
      .cls-1 {
        fill: #fff;
      }

      .cls-1, .cls-2 {
        stroke-width: 0px;
      }

      .cls-2 {
        fill: #029df6;
      }
    </style>
  </defs>
  <g id="_Слой_2-2" data-name="Слой 2">
    <g>
      <path class="cls-1" d="m17.19,51.81c-4.08,0-7.48-.76-10.21-2.28-2.73-1.52-4.67-3.65-5.81-6.38-1.14-2.73-1.34-5.91-.59-9.54L4.91,12.43h13.24l-4.26,20.96c-.26,1.36-.36,2.53-.28,3.52.07.99.33,1.82.76,2.48.43.66,1.02,1.15,1.77,1.46.75.31,1.65.47,2.69.47,1.27,0,2.36-.26,3.28-.77.92-.51,1.68-1.36,2.3-2.53.62-1.17,1.11-2.71,1.49-4.62l4.26-20.96h13.02l-4.43,21.72c-1.16,5.76-3.53,10.14-7.12,13.15-3.59,3.01-8.4,4.51-14.42,4.51Zm1.85-42.08c-1.35,0-2.47-.38-3.37-1.16-.9-.77-1.35-1.83-1.35-3.19,0-1.61.55-2.92,1.66-3.91,1.1-.99,2.36-1.49,3.79-1.49,1.35,0,2.47.39,3.37,1.18.9.79,1.35,1.86,1.35,3.22,0,1.61-.55,2.91-1.65,3.88-1.1.97-2.37,1.46-3.79,1.46Zm12.45,0c-1.35,0-2.47-.38-3.37-1.16-.9-.77-1.35-1.83-1.35-3.19,0-1.61.55-2.92,1.65-3.91,1.1-.99,2.36-1.49,3.79-1.49,1.35,0,2.47.39,3.37,1.18.9.79,1.35,1.86,1.35,3.22,0,1.61-.55,2.91-1.65,3.88-1.1.97-2.37,1.46-3.79,1.46Z"/>
      <path class="cls-1" d="m41.37,50.93l7.85-38.5h17.73c4.15,0,7.72.66,10.71,1.98,2.99,1.32,5.29,3.2,6.9,5.64,1.61,2.44,2.41,5.34,2.41,8.72s-.61,6.47-1.82,9.18c-1.22,2.71-2.92,5.04-5.11,6.99-2.19,1.94-4.78,3.43-7.77,4.46-2.99,1.03-6.28,1.54-9.87,1.54h-21.04Zm15.32-10.12h6.17c2.36,0,4.33-.5,5.92-1.51,1.59-1.01,2.8-2.37,3.62-4.07.82-1.71,1.23-3.6,1.23-5.69,0-1.5-.31-2.77-.93-3.79-.62-1.03-1.53-1.81-2.75-2.37-1.22-.55-2.72-.82-4.52-.82h-5.05l-3.7,18.26Z"/>
      <path class="cls-1" d="m98.65,50.93l-8.75-38.5h13.58l7.07,32.62h-8.64l20.65-32.62h13.58l-24.46,38.5h-13.02Z"/>
      <path class="cls-1" d="m151.1,51.81c-4.08,0-7.6-.73-10.58-2.2-2.97-1.47-5.27-3.49-6.9-6.08-1.63-2.58-2.44-5.56-2.44-8.94s.61-6.52,1.82-9.32c1.21-2.8,2.93-5.23,5.13-7.29,2.21-2.05,4.82-3.64,7.85-4.76,3.03-1.12,6.34-1.68,9.93-1.68,4.08,0,7.6.73,10.58,2.2,2.97,1.47,5.27,3.49,6.9,6.08,1.63,2.58,2.44,5.56,2.44,8.94s-.61,6.52-1.82,9.32c-1.22,2.8-2.93,5.23-5.13,7.29-2.21,2.05-4.82,3.64-7.85,4.76-3.03,1.12-6.34,1.68-9.93,1.68Zm1.12-10.5c1.65,0,3.09-.31,4.35-.94,1.25-.62,2.33-1.48,3.23-2.58.9-1.1,1.57-2.36,2.02-3.77.45-1.41.67-2.91.67-4.48s-.31-2.81-.93-3.93c-.62-1.12-1.5-1.99-2.64-2.61-1.14-.62-2.52-.93-4.12-.93s-3.05.31-4.32.93c-1.27.62-2.36,1.49-3.25,2.58-.9,1.1-1.57,2.36-2.02,3.77-.45,1.41-.67,2.91-.67,4.48,0,1.47.31,2.77.93,3.91.62,1.14,1.5,2.02,2.64,2.64,1.14.62,2.51.94,4.12.94Zm.11-31.57c-1.35,0-2.47-.38-3.37-1.16-.9-.77-1.35-1.83-1.35-3.19,0-1.61.55-2.92,1.66-3.91,1.1-.99,2.36-1.49,3.79-1.49,1.35,0,2.47.39,3.37,1.18.9.79,1.35,1.86,1.35,3.22,0,1.61-.55,2.91-1.66,3.88-1.1.97-2.37,1.46-3.79,1.46Zm12.45,0c-1.35,0-2.47-.38-3.37-1.16-.9-.77-1.35-1.83-1.35-3.19,0-1.61.55-2.92,1.66-3.91,1.1-.99,2.36-1.49,3.79-1.49,1.35,0,2.47.39,3.37,1.18.9.79,1.35,1.86,1.35,3.22,0,1.61-.55,2.91-1.65,3.88-1.1.97-2.37,1.46-3.79,1.46Z"/>
      <path class="cls-1" d="m174.89,50.93l1.63-7.98,26.54-24.97,1.12,4.51h-22.95l2.08-10.06h34.61l-1.63,7.97-26.54,24.97-1.12-4.51h24.4l-2.08,10.07h-36.07Z"/>
      <path class="cls-1" d="m214.83,50.93l7.85-38.5h13.24l-5.78,28.43h17.73l-2.08,10.07h-30.97Z"/>
      <path class="cls-1" d="m270.99,51.81c-4.08,0-7.6-.73-10.58-2.2-2.97-1.47-5.27-3.49-6.9-6.08-1.63-2.58-2.44-5.56-2.44-8.94s.61-6.52,1.82-9.32c1.21-2.8,2.93-5.23,5.13-7.29,2.21-2.05,4.82-3.64,7.85-4.76,3.03-1.12,6.34-1.68,9.93-1.68,4.08,0,7.6.73,10.57,2.2,2.97,1.47,5.27,3.49,6.9,6.08s2.44,5.56,2.44,8.94-.61,6.52-1.82,9.32-2.93,5.23-5.13,7.29c-2.21,2.05-4.82,3.64-7.85,4.76-3.03,1.12-6.34,1.68-9.93,1.68Zm1.12-10.5c1.65,0,3.09-.31,4.35-.94,1.25-.62,2.33-1.48,3.23-2.58.9-1.1,1.57-2.36,2.02-3.77.45-1.41.67-2.91.67-4.48s-.31-2.81-.93-3.93c-.62-1.12-1.5-1.99-2.64-2.61-1.14-.62-2.52-.93-4.12-.93s-3.05.31-4.32.93c-1.27.62-2.36,1.49-3.25,2.58-.9,1.1-1.57,2.36-2.02,3.77-.45,1.41-.67,2.91-.67,4.48,0,1.47.31,2.77.93,3.91.62,1.14,1.5,2.02,2.64,2.64,1.14.62,2.51.94,4.12.94Zm-5.05-32.01l3.93-8.8h11.16l-6.45,8.8h-8.64Zm13.13,0l3.93-8.8h11.16l-6.45,8.8h-8.64Z"/>
      <path class="cls-1" d="m313.29,50.93l7.85-38.5h20.81c4.67,0,8.19.8,10.55,2.39,2.36,1.59,3.53,3.86,3.53,6.79,0,2.38-.7,4.4-2.1,6.05-1.4,1.65-3.33,2.91-5.78,3.77-2.45.86-5.27,1.29-8.44,1.29l1.68-2.97c4,0,7.15.78,9.45,2.34,2.3,1.56,3.45,3.75,3.45,6.57s-.83,5.14-2.5,6.96c-1.67,1.81-3.88,3.15-6.65,4.01-2.77.86-5.83,1.29-9.2,1.29h-22.66Zm14.87-9.08h8.53c1.31,0,2.38-.29,3.22-.88.84-.59,1.26-1.47,1.26-2.64,0-.84-.33-1.47-.98-1.9-.65-.42-1.41-.63-2.27-.63h-9.43l1.74-8.58h7.63c1.01,0,1.84-.14,2.5-.41.65-.27,1.13-.66,1.43-1.15.3-.5.45-1.09.45-1.79,0-.81-.31-1.4-.93-1.79s-1.47-.58-2.55-.58h-6.45l-4.15,20.35Z"/>
      <path class="cls-1" d="m378.76,51.81c-4.08,0-7.6-.73-10.57-2.2-2.97-1.47-5.27-3.49-6.9-6.08s-2.44-5.56-2.44-8.94.61-6.52,1.82-9.32c1.21-2.8,2.93-5.23,5.13-7.29,2.21-2.05,4.82-3.64,7.85-4.76,3.03-1.12,6.34-1.68,9.93-1.68,4.08,0,7.6.73,10.58,2.2,2.97,1.47,5.27,3.49,6.9,6.08s2.44,5.56,2.44,8.94-.61,6.52-1.82,9.32c-1.22,2.8-2.93,5.23-5.13,7.29-2.21,2.05-4.82,3.64-7.85,4.76s-6.34,1.68-9.93,1.68Zm1.12-10.5c1.64,0,3.09-.31,4.35-.94,1.25-.62,2.33-1.48,3.22-2.58.9-1.1,1.57-2.36,2.02-3.77.45-1.41.67-2.91.67-4.48s-.31-2.81-.93-3.93c-.62-1.12-1.5-1.99-2.64-2.61-1.14-.62-2.52-.93-4.12-.93s-3.05.31-4.32.93c-1.27.62-2.36,1.49-3.25,2.58-.9,1.1-1.57,2.36-2.02,3.77-.45,1.41-.67,2.91-.67,4.48,0,1.47.31,2.77.92,3.91.62,1.14,1.5,2.02,2.64,2.64,1.14.62,2.52.94,4.12.94Zm-.22-32.01l8.41-8.8h12.4l-12.06,8.8h-8.75Z"/>
      <path class="cls-1" d="m404.23,50.93l7.85-38.5h10.88l14.75,23.43h-4.6l4.77-23.43h12.9l-7.85,38.5h-10.88l-14.75-23.43h4.6l-4.77,23.43h-12.9Z"/>
      <path class="cls-1" d="m469.14,51.81c-4.08,0-7.48-.76-10.21-2.28-2.73-1.52-4.67-3.65-5.8-6.38-1.14-2.73-1.34-5.91-.59-9.54l4.32-21.17h13.24l-4.26,20.96c-.26,1.36-.36,2.53-.28,3.52.07.99.33,1.82.76,2.48.43.66,1.02,1.15,1.77,1.46s1.65.47,2.69.47c1.27,0,2.37-.26,3.28-.77.92-.51,1.68-1.36,2.3-2.53s1.11-2.71,1.49-4.62l4.26-20.96h13.02l-4.43,21.72c-1.16,5.76-3.54,10.14-7.12,13.15s-8.4,4.51-14.42,4.51Z"/>
      <path class="cls-1" d="m508.91,51.81c-2.32,0-4.54-.17-6.68-.5-2.13-.33-4.07-.8-5.81-1.4-1.74-.61-3.24-1.27-4.52-2.01l5.1-9.57c1.46.81,2.93,1.48,4.4,2.01,1.48.53,2.96.93,4.43,1.18,1.48.26,2.95.38,4.4.38,1.16,0,2.12-.09,2.89-.27.77-.18,1.35-.45,1.74-.8.39-.35.59-.74.59-1.18,0-.59-.34-1.06-1.01-1.43-.67-.37-1.56-.7-2.66-.99-1.1-.29-2.32-.6-3.65-.91-1.33-.31-2.66-.71-4.01-1.21-1.35-.5-2.57-1.13-3.67-1.9-1.1-.77-1.99-1.74-2.66-2.92-.67-1.17-1.01-2.6-1.01-4.29,0-2.93.79-5.48,2.38-7.65,1.59-2.16,3.87-3.84,6.85-5.03,2.97-1.19,6.52-1.79,10.63-1.79,2.92,0,5.64.28,8.16.85,2.52.57,4.7,1.38,6.54,2.45l-4.77,9.46c-1.57-.95-3.28-1.67-5.13-2.15-1.85-.48-3.73-.71-5.64-.71-1.27,0-2.34.12-3.2.36-.86.24-1.51.56-1.93.96-.43.4-.65.83-.65,1.26,0,.59.34,1.07,1.01,1.46.67.38,1.57.71,2.69.99,1.12.27,2.35.57,3.67.88s2.66.7,3.98,1.15c1.33.46,2.55,1.06,3.67,1.82,1.12.75,2.02,1.71,2.69,2.86.67,1.15,1.01,2.58,1.01,4.26,0,2.86-.8,5.36-2.41,7.51-1.61,2.15-3.9,3.82-6.87,5.03-2.97,1.21-6.5,1.82-10.57,1.82Z"/>
      <path class="cls-1" d="m528.77,50.93l1.63-7.98,26.54-24.97,1.12,4.51h-22.95l2.08-10.06h34.61l-1.63,7.97-26.54,24.97-1.12-4.51h24.4l-2.07,10.07h-36.07Z"/>
      <path class="cls-2" d="m0,92.93l15.92-24.5h8.28l5.93,24.5h-8.39l-4.03-20.68h3.28l-12.1,20.68H0Zm7.35-4.27l3.36-5.95h11.5l.93,5.95H7.35Z"/>
      <path class="cls-2" d="m31.49,92.93l5-24.5h8.28l-5,24.5h-8.28Zm8.6-5.04l1.25-9.28,11.14-10.18h9.67l-12.82,11.41-5.71,4.83-3.53,3.22Zm8.28,5.04l-6.03-9.52,6.25-5.53,9.17,15.05h-9.39Z"/>
      <path class="cls-2" d="m54.83,92.93l15.92-24.5h8.28l5.93,24.5h-8.39l-4.03-20.68h3.28l-12.1,20.68h-8.89Zm7.35-4.27l3.36-5.95h11.5l.93,5.95h-15.78Zm9.25-22.23l5.35-5.6h7.89l-7.68,5.6h-5.57Z"/>
      <path class="cls-2" d="m86.32,92.93l5-24.5h11.21c3.31,0,5.87.71,7.68,2.12,1.81,1.41,2.71,3.39,2.71,5.93,0,2.05-.52,3.85-1.55,5.39-1.04,1.54-2.5,2.74-4.39,3.6s-4.12,1.29-6.69,1.29h-8.07l4.5-3.46-1.96,9.62h-8.43Zm10.17-8.64l-2.96-3.75h7.18c1.17,0,2.07-.29,2.71-.86.64-.57.96-1.37.96-2.4,0-.89-.28-1.52-.84-1.91-.56-.38-1.33-.58-2.3-.58h-6.53l4.5-3.85-2.71,13.34Zm5.1,8.64l-5.14-8.92h8.68l5.21,8.92h-8.75Z"/>
      <path class="cls-1" d="m126.06,92.93l4.39-21.53,2.93,3.26h-7.89l1.29-6.23h12.71l-5,24.5h-8.43Z"/>
      <path class="cls-1" d="m141.12,92.93l13.53-21.56,1.82,3.46h-11.85l4.07-3.75-1.5,7.31h-6.96l2.03-9.97h21.38l-1.04,5.08-12,19.42h-9.5Z"/>
      <path class="cls-1" d="m171.25,92.93l1.04-5.08,10.46-7.88c.76-.58,1.35-1.08,1.77-1.5.42-.42.71-.82.87-1.19.17-.37.25-.75.25-1.12,0-.54-.21-.97-.62-1.29-.42-.33-.97-.49-1.66-.49-.74,0-1.45.2-2.12.61s-1.29.99-1.84,1.73l-5.6-3.39c.98-1.66,2.42-2.98,4.34-3.97,1.92-.99,4.09-1.49,6.52-1.49,1.86,0,3.52.3,4.98.91,1.46.61,2.61,1.44,3.44,2.49s1.25,2.25,1.25,3.61c0,1-.18,1.97-.55,2.89-.37.92-.99,1.86-1.86,2.8-.87.94-2.05,1.98-3.55,3.1l-7.71,5.74-1-2.87h12.96l-1.32,6.41h-20.03Z"/>
      <path class="cls-1" d="m201.99,93.49c-1.79,0-3.5-.21-5.16-.63-1.65-.42-3.15-1.06-4.48-1.92l3.82-5.74c.98.61,2.03,1.06,3.16,1.35,1.13.29,2.21.44,3.23.44.79,0,1.45-.08,1.98-.25.54-.16.94-.4,1.21-.72.27-.32.41-.69.41-1.14,0-.49-.2-.86-.61-1.1-.4-.25-1.04-.37-1.89-.37h-3.46l1.04-5.08,7.6-6.44.36,2.77h-12.46l1.29-6.23h18.64l-1.04,5.08-7.6,6.44-3.75-2.17h1.86c1.74,0,3.24.27,4.52.81,1.27.54,2.26,1.29,2.96,2.27.7.98,1.05,2.13,1.05,3.46,0,1.75-.55,3.32-1.66,4.71-1.11,1.39-2.62,2.48-4.53,3.27-1.92.79-4.08,1.19-6.48,1.19Z"/>
      <path class="cls-1" d="m226.8,93.49c-1.95,0-3.65-.38-5.1-1.14-1.45-.76-2.58-1.85-3.37-3.27-.8-1.42-1.2-3.15-1.2-5.18,0-2.31.33-4.44,1-6.39.67-1.95,1.61-3.64,2.82-5.09,1.21-1.45,2.65-2.57,4.3-3.36,1.65-.79,3.46-1.19,5.41-1.19s3.65.37,5.1,1.12c1.45.75,2.58,1.84,3.37,3.27.8,1.44,1.2,3.17,1.2,5.2,0,2.31-.33,4.44-1,6.39-.67,1.95-1.61,3.65-2.82,5.09-1.21,1.45-2.65,2.57-4.3,3.36-1.65.79-3.46,1.19-5.41,1.19Zm.86-6.61c.74,0,1.37-.32,1.91-.96.54-.64.98-1.45,1.32-2.43.34-.98.6-1.99.77-3.03s.25-1.97.25-2.78c0-1.21-.2-2.05-.59-2.5-.39-.46-.9-.68-1.52-.68-.74,0-1.37.32-1.91.96s-.98,1.45-1.32,2.43c-.35.98-.6,1.99-.77,3.03-.17,1.04-.25,1.97-.25,2.78,0,1.21.2,2.05.61,2.5.4.46.9.68,1.5.68Z"/>
      <path class="cls-1" d="m262.22,93.49c-1.95,0-3.65-.38-5.1-1.14-1.45-.76-2.58-1.85-3.37-3.27-.8-1.42-1.2-3.15-1.2-5.18,0-2.31.33-4.44,1-6.39.67-1.95,1.61-3.64,2.82-5.09,1.21-1.45,2.65-2.57,4.3-3.36,1.65-.79,3.46-1.19,5.41-1.19s3.65.37,5.1,1.12c1.45.75,2.58,1.84,3.37,3.27.8,1.44,1.2,3.17,1.2,5.2,0,2.31-.33,4.44-1,6.39s-1.61,3.65-2.82,5.09c-1.21,1.45-2.65,2.57-4.3,3.36-1.65.79-3.46,1.19-5.41,1.19Zm.86-6.61c.74,0,1.37-.32,1.91-.96.54-.64.98-1.45,1.32-2.43.34-.98.6-1.99.77-3.03s.25-1.97.25-2.78c0-1.21-.2-2.05-.59-2.5-.39-.46-.9-.68-1.52-.68-.74,0-1.37.32-1.91.96s-.98,1.45-1.32,2.43c-.35.98-.6,1.99-.77,3.03-.17,1.04-.25,1.97-.25,2.78,0,1.21.2,2.05.61,2.5.4.46.9.68,1.5.68Z"/>
      <path class="cls-1" d="m286.92,93.49c-1.95,0-3.65-.38-5.11-1.14-1.45-.76-2.58-1.85-3.37-3.27-.8-1.42-1.2-3.15-1.2-5.18,0-2.31.33-4.44,1-6.39.67-1.95,1.61-3.64,2.82-5.09,1.21-1.45,2.65-2.57,4.3-3.36,1.65-.79,3.46-1.19,5.41-1.19s3.65.37,5.11,1.12c1.45.75,2.58,1.84,3.37,3.27.8,1.44,1.2,3.17,1.2,5.2,0,2.31-.33,4.44-1,6.39s-1.61,3.65-2.82,5.09c-1.21,1.45-2.65,2.57-4.3,3.36s-3.46,1.19-5.41,1.19Zm.86-6.61c.74,0,1.38-.32,1.91-.96.54-.64.97-1.45,1.32-2.43.35-.98.6-1.99.77-3.03s.25-1.97.25-2.78c0-1.21-.2-2.05-.59-2.5s-.9-.68-1.52-.68c-.74,0-1.38.32-1.91.96s-.98,1.45-1.32,2.43c-.34.98-.6,1.99-.77,3.03-.17,1.04-.25,1.97-.25,2.78,0,1.21.2,2.05.61,2.5s.9.68,1.5.68Z"/>
      <path class="cls-1" d="m311.63,93.49c-1.95,0-3.65-.38-5.11-1.14-1.45-.76-2.58-1.85-3.37-3.27-.8-1.42-1.2-3.15-1.2-5.18,0-2.31.33-4.44,1-6.39.67-1.95,1.61-3.64,2.82-5.09,1.21-1.45,2.65-2.57,4.3-3.36,1.65-.79,3.46-1.19,5.41-1.19s3.65.37,5.11,1.12c1.45.75,2.57,1.84,3.37,3.27.8,1.44,1.2,3.17,1.2,5.2,0,2.31-.33,4.44-1,6.39s-1.61,3.65-2.82,5.09c-1.21,1.45-2.65,2.57-4.3,3.36s-3.46,1.19-5.41,1.19Zm.86-6.61c.74,0,1.38-.32,1.91-.96.54-.64.98-1.45,1.32-2.43.34-.98.6-1.99.77-3.03.17-1.04.25-1.97.25-2.78,0-1.21-.2-2.05-.59-2.5s-.9-.68-1.52-.68c-.74,0-1.38.32-1.91.96s-.98,1.45-1.32,2.43c-.35.98-.6,1.99-.77,3.03s-.25,1.97-.25,2.78c0,1.21.2,2.05.61,2.5.4.46.9.68,1.5.68Z"/>
      <path class="cls-1" d="m344.58,92.93h-8.43l5-24.5h8.42l-5,24.5Zm10.17-9.03h-8.89l1.39-6.79h8.89l-1.39,6.79Zm2.61-15.47h8.43l-5,24.5h-8.43l5-24.5Z"/>
      <path class="cls-1" d="m377.46,93.49c-2.59,0-4.76-.48-6.5-1.45-1.74-.97-2.97-2.32-3.69-4.06-.73-1.74-.85-3.76-.38-6.07l2.75-13.47h8.43l-2.71,13.33c-.17.86-.23,1.61-.18,2.24.05.63.21,1.16.48,1.58s.65.73,1.12.93c.47.2,1.05.3,1.71.3.81,0,1.51-.16,2.09-.49.58-.33,1.07-.86,1.46-1.61s.71-1.73.95-2.94l2.71-13.33h8.28l-2.82,13.83c-.74,3.66-2.25,6.45-4.53,8.37-2.29,1.91-5.34,2.87-9.18,2.87Z"/>
      <path class="cls-1" d="m401.27,92.93h-8.43l5-24.5h20.31l-1.29,6.23h-11.89l-3.71,18.27Zm2.28-14.07h11l-1.29,6.23h-10.96l1.25-6.23Z"/>
      <path class="cls-1" d="m428.36,83.66l1.21-5.95h18.21l-1.21,5.95h-18.21Zm4.75,5.6l3.5-17.15h6.43l-3.5,17.15h-6.43Z"/>
      <path class="cls-1" d="m467.78,93.49c-1.79,0-3.51-.21-5.16-.63s-3.15-1.06-4.48-1.92l3.82-5.74c.98.61,2.03,1.06,3.16,1.35,1.13.29,2.21.44,3.23.44,1.17,0,2.06-.18,2.68-.54s.93-.87.93-1.52c0-.51-.23-.91-.68-1.19-.45-.28-1.26-.42-2.43-.42h-7.6l4.28-14.88h16.6l-1.29,6.23h-13.64l4.96-3.54-2.68,9.48-3.5-3.54h5.14c2.97,0,5.27.58,6.89,1.73,1.62,1.15,2.43,2.88,2.43,5.16,0,1.98-.55,3.69-1.66,5.11-1.11,1.42-2.62,2.51-4.53,3.27-1.92.76-4.08,1.14-6.48,1.14Z"/>
      <path class="cls-1" d="m492.34,93.49c-1.95,0-3.65-.38-5.11-1.14-1.45-.76-2.58-1.85-3.37-3.27-.8-1.42-1.2-3.15-1.2-5.18,0-2.31.33-4.44,1-6.39.67-1.95,1.61-3.64,2.82-5.09,1.21-1.45,2.65-2.57,4.3-3.36,1.65-.79,3.46-1.19,5.41-1.19s3.65.37,5.11,1.12c1.45.75,2.57,1.84,3.37,3.27.8,1.44,1.2,3.17,1.2,5.2,0,2.31-.33,4.44-1,6.39s-1.61,3.65-2.82,5.09c-1.21,1.45-2.65,2.57-4.3,3.36s-3.46,1.19-5.41,1.19Zm.86-6.61c.74,0,1.38-.32,1.91-.96.54-.64.98-1.45,1.32-2.43.34-.98.6-1.99.77-3.03.17-1.04.25-1.97.25-2.78,0-1.21-.2-2.05-.59-2.5s-.9-.68-1.52-.68c-.74,0-1.38.32-1.91.96s-.98,1.45-1.32,2.43c-.35.98-.6,1.99-.77,3.03s-.25,1.97-.25,2.78c0,1.21.2,2.05.61,2.5.4.46.9.68,1.5.68Z"/>
      <path class="cls-1" d="m525.29,92.93h-8.43l5-24.5h20.31l-1.29,6.23h-11.89l-3.71,18.27Zm2.29-14.07h11l-1.29,6.23h-10.96l1.25-6.23Z"/>
      <path class="cls-1" d="m549.78,93.49c-1.48,0-2.89-.1-4.25-.31-1.36-.21-2.59-.51-3.7-.89-1.11-.38-2.06-.81-2.88-1.28l3.25-6.09c.93.51,1.86.94,2.8,1.28.94.34,1.88.59,2.82.75.94.16,1.87.25,2.8.25.74,0,1.35-.06,1.84-.17.49-.12.86-.29,1.11-.51.25-.22.38-.47.38-.75,0-.37-.21-.68-.64-.91-.43-.23-.99-.44-1.7-.63-.7-.19-1.48-.38-2.32-.58-.85-.2-1.7-.45-2.55-.77s-1.64-.72-2.34-1.21c-.7-.49-1.27-1.11-1.7-1.86-.43-.75-.64-1.66-.64-2.73,0-1.87.5-3.49,1.52-4.86s2.46-2.44,4.36-3.2c1.89-.76,4.15-1.14,6.77-1.14,1.86,0,3.59.18,5.2.54,1.61.36,2.99.88,4.16,1.56l-3.04,6.02c-1-.61-2.09-1.06-3.27-1.36-1.18-.3-2.38-.46-3.59-.46-.81,0-1.49.08-2.04.23s-.96.36-1.23.61-.41.53-.41.8c0,.37.21.68.64.93.43.25,1,.46,1.71.63.71.17,1.49.36,2.34.56.84.2,1.69.44,2.54.73.84.29,1.62.68,2.34,1.16.71.48,1.29,1.08,1.71,1.82.43.73.64,1.64.64,2.71,0,1.82-.51,3.41-1.54,4.78-1.02,1.37-2.48,2.43-4.37,3.2-1.89.77-4.13,1.15-6.73,1.15Z"/>
    </g>
  </g>
</svg>