<?xml version="1.0" encoding="UTF-8"?>
<svg id="_Слой_2" data-name="Слой 2" xmlns="http://www.w3.org/2000/svg" viewBox="0 0 566.12 87.02">
  <defs>
    <style>
      .cls-1 {
        fill: #fff;
      }

      .cls-1, .cls-2 {
        stroke-width: 0px;
      }

      .cls-2 {
        fill: #029df6;
      }
    </style>
  </defs>
  <g id="_Слой_2-2" data-name="Слой 2">
    <g>
      <path class="cls-1" d="m9.66,40.81L.59.91h14.07l7.33,33.8h-8.95L34.42.91h14.07l-25.35,39.9h-13.49Z"/>
      <path class="cls-1" d="m57.21,30.67h20.41l-2.09,10.15h-33.84L49.83.91h33.08l-2.09,10.15h-19.59l-4.01,19.61Zm2.15-14.93h18.14l-1.98,9.69h-18.14l1.98-9.69Z"/>
      <path class="cls-1" d="m80.82,40.81L88.96.91h13.72l-5.99,29.47h18.37l-2.15,10.43h-32.09Z"/>
      <path class="cls-1" d="m116.69,40.81L124.83.91h13.49l-8.14,39.9h-13.49Zm14.01-8.21l2.04-15.11L150.88.91h15.76l-20.87,18.58-9.3,7.87-5.76,5.24Zm13.49,8.21l-9.83-15.5,10.17-9.01,14.94,24.51h-15.29Z"/>
      <path class="cls-1" d="m182.62,41.72c-4.22,0-7.88-.76-10.96-2.28-3.08-1.52-5.46-3.62-7.15-6.3-1.69-2.68-2.53-5.77-2.53-9.26s.63-6.75,1.89-9.66c1.26-2.91,3.03-5.42,5.32-7.55,2.29-2.13,5-3.77,8.14-4.93,3.14-1.16,6.57-1.74,10.29-1.74,4.22,0,7.88.76,10.96,2.28,3.08,1.52,5.47,3.62,7.15,6.3,1.69,2.68,2.53,5.77,2.53,9.26s-.63,6.75-1.89,9.66-3.03,5.42-5.32,7.55-5,3.77-8.14,4.93c-3.14,1.16-6.57,1.74-10.29,1.74Zm1.16-10.89c1.71,0,3.21-.32,4.51-.97,1.3-.65,2.41-1.54,3.34-2.68.93-1.14,1.63-2.44,2.09-3.9.46-1.46.7-3.01.7-4.65s-.32-2.92-.96-4.08c-.64-1.16-1.55-2.06-2.73-2.71-1.18-.65-2.61-.97-4.27-.97s-3.16.32-4.48.97c-1.32.65-2.44,1.54-3.37,2.68s-1.63,2.44-2.09,3.9c-.47,1.46-.7,3.01-.7,4.65,0,1.52.32,2.87.96,4.05.64,1.18,1.55,2.09,2.73,2.74,1.18.65,2.61.97,4.27.97Z"/>
      <path class="cls-1" d="m209.02,40.81L217.16.91h11.16l10.87,26.05h-5.93L254.19.91h11.69l-8.02,39.9h-12.5l4.25-21.43,1.98-.11-14.07,17.96h-6.05l-7.91-18.01,2.33.17-4.36,21.43h-12.5Z"/>
      <path class="cls-1" d="m280.65,41.72c-2.4,0-4.71-.17-6.92-.51-2.21-.34-4.21-.83-6.02-1.45s-3.36-1.32-4.68-2.08l5.29-9.92c1.51.84,3.03,1.53,4.56,2.08s3.06.96,4.59,1.23c1.53.27,3.05.4,4.56.4,1.2,0,2.2-.09,2.99-.28.79-.19,1.39-.47,1.8-.83.41-.36.61-.77.61-1.23,0-.61-.35-1.1-1.05-1.48s-1.62-.72-2.76-1.03c-1.14-.3-2.4-.62-3.78-.94-1.38-.32-2.76-.74-4.16-1.25-1.4-.51-2.67-1.17-3.81-1.97-1.14-.8-2.06-1.8-2.76-3.02-.7-1.22-1.05-2.7-1.05-4.45,0-3.04.82-5.68,2.47-7.92s4.01-3.98,7.09-5.22c3.08-1.23,6.75-1.85,11.02-1.85,3.02,0,5.84.29,8.46.88,2.62.59,4.88,1.43,6.77,2.54l-4.94,9.8c-1.63-.99-3.4-1.73-5.32-2.22-1.92-.49-3.87-.74-5.84-.74-1.32,0-2.42.12-3.31.37-.89.25-1.56.58-2.01,1-.45.42-.67.86-.67,1.31,0,.61.35,1.11,1.04,1.51.7.4,1.63.74,2.79,1.03,1.16.29,2.43.59,3.81.91,1.38.32,2.75.72,4.13,1.2,1.38.48,2.64,1.1,3.81,1.88,1.16.78,2.09,1.77,2.79,2.96s1.05,2.67,1.05,4.42c0,2.96-.83,5.56-2.5,7.78-1.67,2.22-4.04,3.96-7.12,5.21-3.08,1.25-6.73,1.88-10.96,1.88Z"/>
      <path class="cls-1" d="m310.94,40.81l5.99-29.47h-11.92l2.15-10.43h37.56l-2.15,10.43h-11.92l-5.99,29.47h-13.72Z"/>
      <path class="cls-1" d="m340.12,40.81L348.26.91h21.57c4.85,0,8.49.83,10.93,2.48,2.44,1.65,3.66,4,3.66,7.04,0,2.47-.73,4.56-2.18,6.27-1.45,1.71-3.45,3.01-5.99,3.9-2.54.89-5.46,1.34-8.75,1.34l1.74-3.08c4.15,0,7.41.81,9.8,2.42,2.38,1.62,3.58,3.89,3.58,6.81s-.86,5.33-2.59,7.21-4.02,3.27-6.89,4.16c-2.87.89-6.05,1.34-9.54,1.34h-23.49Zm15.41-9.41h8.84c1.36,0,2.47-.3,3.34-.91.87-.61,1.31-1.52,1.31-2.74,0-.87-.34-1.53-1.02-1.97-.68-.44-1.46-.66-2.35-.66h-9.77l1.8-8.89h7.91c1.05,0,1.91-.14,2.59-.43.68-.28,1.17-.68,1.48-1.2.31-.51.46-1.13.46-1.85,0-.84-.32-1.45-.96-1.85-.64-.4-1.52-.6-2.65-.6h-6.69l-4.3,21.09Z"/>
      <path class="cls-1" d="m407.97,41.72c-4.23,0-7.88-.76-10.96-2.28-3.08-1.52-5.47-3.62-7.15-6.3-1.69-2.68-2.53-5.77-2.53-9.26s.63-6.75,1.89-9.66c1.26-2.91,3.03-5.42,5.32-7.55,2.29-2.13,5-3.77,8.14-4.93,3.14-1.16,6.57-1.74,10.29-1.74,4.22,0,7.88.76,10.96,2.28,3.08,1.52,5.46,3.62,7.15,6.3,1.69,2.68,2.53,5.77,2.53,9.26s-.63,6.75-1.89,9.66-3.03,5.42-5.32,7.55-5,3.77-8.14,4.93c-3.14,1.16-6.57,1.74-10.29,1.74Zm1.16-10.89c1.71,0,3.21-.32,4.51-.97,1.3-.65,2.41-1.54,3.34-2.68.93-1.14,1.63-2.44,2.09-3.9.47-1.46.7-3.01.7-4.65s-.32-2.92-.96-4.08c-.64-1.16-1.55-2.06-2.73-2.71-1.18-.65-2.61-.97-4.27-.97s-3.16.32-4.48.97c-1.32.65-2.44,1.54-3.37,2.68-.93,1.14-1.63,2.44-2.09,3.9-.46,1.46-.7,3.01-.7,4.65,0,1.52.32,2.87.96,4.05.64,1.18,1.55,2.09,2.73,2.74,1.18.65,2.61.97,4.27.97Z"/>
      <path class="cls-1" d="m434.37,40.81L442.51.91h11.28l15.29,24.28h-4.77l4.94-24.28h13.37l-8.14,39.9h-11.28l-15.29-24.28h4.77l-4.94,24.28h-13.37Z"/>
      <path class="cls-1" d="m501.64,41.72c-4.22,0-7.75-.79-10.58-2.37-2.83-1.58-4.84-3.78-6.02-6.61-1.18-2.83-1.39-6.13-.61-9.89l4.48-21.95h13.72l-4.42,21.72c-.27,1.41-.37,2.62-.29,3.65s.34,1.88.79,2.56c.45.68,1.05,1.19,1.83,1.51.77.32,1.71.48,2.79.48,1.32,0,2.45-.26,3.4-.8.95-.53,1.74-1.41,2.38-2.62.64-1.22,1.15-2.81,1.54-4.79l4.42-21.72h13.49l-4.59,22.52c-1.2,5.97-3.66,10.51-7.38,13.62-3.72,3.12-8.7,4.67-14.94,4.67Z"/>
      <path class="cls-1" d="m542.86,41.72c-2.4,0-4.71-.17-6.92-.51-2.21-.34-4.21-.83-6.02-1.45-1.8-.63-3.36-1.32-4.68-2.08l5.29-9.92c1.51.84,3.03,1.53,4.56,2.08,1.53.55,3.06.96,4.59,1.23,1.53.27,3.05.4,4.56.4,1.2,0,2.2-.09,2.99-.28s1.4-.47,1.8-.83c.41-.36.61-.77.61-1.23,0-.61-.35-1.1-1.05-1.48-.7-.38-1.62-.72-2.76-1.03-1.14-.3-2.4-.62-3.78-.94-1.38-.32-2.76-.74-4.16-1.25-1.39-.51-2.66-1.17-3.81-1.97-1.14-.8-2.06-1.8-2.76-3.02-.7-1.22-1.05-2.7-1.05-4.45,0-3.04.82-5.68,2.47-7.92,1.65-2.24,4.01-3.98,7.09-5.22,3.08-1.23,6.75-1.85,11.02-1.85,3.02,0,5.84.29,8.46.88,2.62.59,4.87,1.43,6.77,2.54l-4.94,9.8c-1.63-.99-3.4-1.73-5.32-2.22-1.92-.49-3.87-.74-5.84-.74-1.32,0-2.42.12-3.31.37-.89.25-1.56.58-2.01,1-.45.42-.67.86-.67,1.31,0,.61.35,1.11,1.05,1.51.7.4,1.63.74,2.79,1.03,1.16.29,2.43.59,3.81.91,1.38.32,2.75.72,4.13,1.2,1.38.48,2.64,1.1,3.81,1.88,1.16.78,2.09,1.77,2.79,2.96.7,1.2,1.04,2.67,1.04,4.42,0,2.96-.83,5.56-2.5,7.78-1.67,2.22-4.04,3.96-7.12,5.21-3.08,1.25-6.73,1.88-10.96,1.88Z"/>
      <path class="cls-2" d="m13.49,87.02c-2.76,0-5.15-.51-7.16-1.52-2.01-1.01-3.57-2.41-4.67-4.2s-1.65-3.84-1.65-6.17.41-4.5,1.24-6.44c.82-1.94,1.98-3.62,3.48-5.04,1.49-1.42,3.27-2.51,5.32-3.29s4.29-1.16,6.73-1.16c2.76,0,5.15.51,7.16,1.52,2.01,1.01,3.57,2.41,4.67,4.2,1.1,1.79,1.65,3.84,1.65,6.17s-.41,4.5-1.23,6.44c-.82,1.94-1.98,3.62-3.48,5.04-1.5,1.42-3.27,2.51-5.32,3.29-2.05.77-4.29,1.16-6.73,1.16Zm.76-7.26c1.12,0,2.1-.21,2.95-.65.85-.43,1.58-1.03,2.19-1.79.61-.76,1.06-1.63,1.37-2.6.3-.98.46-2.01.46-3.1s-.21-1.94-.63-2.72c-.42-.77-1.01-1.37-1.79-1.8-.77-.43-1.7-.65-2.79-.65s-2.06.22-2.93.65-1.6,1.03-2.2,1.79c-.61.76-1.06,1.63-1.37,2.6-.3.98-.46,2.01-.46,3.1,0,1.01.21,1.91.63,2.7.42.79,1.01,1.39,1.79,1.82s1.7.65,2.79.65Z"/>
      <path class="cls-2" d="m30.74,86.41l5.32-26.6h11.82c3.57,0,6.33.77,8.26,2.32,1.94,1.55,2.91,3.71,2.91,6.5,0,2.23-.55,4.19-1.65,5.89s-2.66,3.01-4.67,3.95c-2.01.94-4.39,1.41-7.12,1.41h-8.59l4.79-3.91-2.09,10.45h-8.97Zm10.83-9.39l-3.15-4.07h7.64c1.24,0,2.2-.31,2.89-.93.68-.62,1.03-1.49,1.03-2.6,0-.96-.3-1.65-.89-2.07-.6-.42-1.41-.63-2.45-.63h-6.96l4.79-4.18-2.89,14.48Z"/>
      <path class="cls-2" d="m76.15,86.41l3.91-19.65h-7.79l1.41-6.95h24.55l-1.41,6.95h-7.79l-3.91,19.65h-8.97Z"/>
      <path class="cls-2" d="m95.23,86.41l5.32-26.6h8.97l-5.32,26.6h-8.97Z"/>
      <path class="cls-2" d="m108.53,86.41l5.32-26.6h8.97l-3.91,19.65h12.01l-1.41,6.95h-20.98Z"/>
      <path class="cls-1" d="m151.89,87.02c-1.9,0-3.73-.23-5.49-.68s-3.35-1.15-4.77-2.09l4.07-6.23c1.04.66,2.16,1.15,3.36,1.46,1.2.32,2.35.47,3.44.47.84,0,1.54-.09,2.11-.27.57-.18,1-.44,1.29-.78.29-.34.44-.75.44-1.24,0-.53-.21-.93-.65-1.2-.43-.27-1.1-.4-2.01-.4h-3.69l1.1-5.51,8.09-6.99.38,3h-13.26l1.37-6.76h19.84l-1.1,5.51-8.09,6.99-3.99-2.36h1.98c1.85,0,3.45.29,4.81.87,1.35.58,2.41,1.41,3.15,2.47.75,1.06,1.12,2.32,1.12,3.76,0,1.9-.59,3.6-1.77,5.11-1.18,1.51-2.79,2.69-4.83,3.55-2.04.86-4.34,1.29-6.9,1.29Z"/>
      <path class="cls-1" d="m175.03,87.02c-1.9,0-3.73-.23-5.49-.68s-3.35-1.15-4.77-2.09l4.07-6.23c1.04.66,2.16,1.15,3.36,1.46,1.2.32,2.35.47,3.44.47.84,0,1.54-.09,2.11-.27.57-.18,1-.44,1.29-.78s.44-.75.44-1.24c0-.53-.22-.93-.65-1.2-.43-.27-1.1-.4-2.01-.4h-3.69l1.1-5.51,8.09-6.99.38,3h-13.26l1.37-6.76h19.84l-1.1,5.51-8.09,6.99-3.99-2.36h1.98c1.85,0,3.45.29,4.81.87,1.35.58,2.41,1.41,3.15,2.47.75,1.06,1.12,2.32,1.12,3.76,0,1.9-.59,3.6-1.77,5.11-1.18,1.51-2.79,2.69-4.83,3.55-2.04.86-4.34,1.29-6.9,1.29Z"/>
      <path class="cls-1" d="m202.43,87.02c-2.2,0-4.17-.41-5.89-1.22-1.72-.81-3.07-2.01-4.05-3.61-.98-1.6-1.46-3.58-1.46-5.97,0-1.54.21-3.12.63-4.73.42-1.61,1.07-3.15,1.96-4.62.89-1.47,2.01-2.78,3.36-3.93,1.35-1.15,2.96-2.06,4.83-2.74,1.86-.67,3.98-1.01,6.37-1.01,1.65,0,3.22.18,4.73.55,1.51.37,2.72.88,3.63,1.54l-4.07,6.16c-.71-.48-1.46-.82-2.24-1.01-.79-.19-1.63-.29-2.55-.29-.84,0-1.6.09-2.28.29-.68.19-1.29.47-1.82.84-.53.37-.99.81-1.39,1.33s-.72,1.1-.99,1.75c-.27.65-.47,1.35-.63,2.11-.08.38-.13.75-.15,1.12-.03.37-.05.74-.08,1.12l-1.86-1.1c.58-.99,1.23-1.81,1.94-2.45.71-.65,1.51-1.13,2.39-1.46s1.89-.49,3-.49c1.42,0,2.76.29,4.03.87,1.27.58,2.3,1.44,3.1,2.58.8,1.14,1.2,2.55,1.2,4.22,0,2.05-.5,3.84-1.5,5.36-1,1.52-2.38,2.7-4.14,3.53-1.76.84-3.78,1.25-6.06,1.25Zm-.04-6.19c.81,0,1.51-.27,2.09-.82.58-.54.87-1.29.87-2.22,0-.73-.22-1.32-.67-1.75s-1.06-.65-1.84-.65c-.56,0-1.06.12-1.5.36-.44.24-.8.58-1.06,1.03s-.4.97-.4,1.58c0,.48.09.91.29,1.27.19.37.47.66.85.87.38.22.84.32,1.37.32Z"/>
      <path class="cls-1" d="m237.96,87.02c-2.08,0-3.89-.41-5.43-1.24-1.55-.82-2.74-2.01-3.59-3.55-.85-1.54-1.27-3.42-1.27-5.62,0-2.51.36-4.82,1.06-6.94.71-2.11,1.71-3.96,3-5.53,1.29-1.57,2.82-2.79,4.58-3.65s3.68-1.29,5.76-1.29,3.89.41,5.43,1.22c1.54.81,2.74,2,3.59,3.55.85,1.56,1.27,3.44,1.27,5.64,0,2.51-.35,4.82-1.06,6.93-.71,2.12-1.71,3.96-3,5.53-1.29,1.57-2.82,2.79-4.58,3.65-1.76.86-3.68,1.29-5.76,1.29Zm.91-7.18c.78,0,1.46-.35,2.03-1.04.57-.7,1.04-1.58,1.41-2.64.37-1.06.64-2.16.82-3.29.18-1.13.27-2.13.27-3.02,0-1.32-.21-2.22-.63-2.72s-.96-.74-1.62-.74c-.79,0-1.46.35-2.03,1.04-.57.7-1.04,1.58-1.41,2.64-.37,1.06-.64,2.16-.82,3.29-.18,1.13-.27,2.13-.27,3.02,0,1.32.21,2.22.65,2.72.43.49.96.74,1.6.74Z"/>
      <path class="cls-1" d="m264.25,87.02c-2.08,0-3.89-.41-5.43-1.24s-2.74-2.01-3.59-3.55-1.27-3.42-1.27-5.62c0-2.51.35-4.82,1.06-6.94.71-2.11,1.71-3.96,3-5.53,1.29-1.57,2.82-2.79,4.58-3.65,1.76-.86,3.68-1.29,5.76-1.29s3.89.41,5.43,1.22c1.54.81,2.74,2,3.59,3.55.85,1.56,1.27,3.44,1.27,5.64,0,2.51-.36,4.82-1.06,6.93-.71,2.12-1.71,3.96-3,5.53-1.29,1.57-2.82,2.79-4.58,3.65-1.76.86-3.68,1.29-5.76,1.29Zm.91-7.18c.79,0,1.46-.35,2.03-1.04.57-.7,1.04-1.58,1.41-2.64.37-1.06.64-2.16.82-3.29s.27-2.13.27-3.02c0-1.32-.21-2.22-.63-2.72s-.96-.74-1.62-.74c-.79,0-1.46.35-2.03,1.04-.57.7-1.04,1.58-1.41,2.64-.37,1.06-.64,2.16-.82,3.29-.18,1.13-.27,2.13-.27,3.02,0,1.32.21,2.22.65,2.72.43.49.96.74,1.6.74Z"/>
      <path class="cls-1" d="m290.55,87.02c-2.08,0-3.89-.41-5.43-1.24-1.55-.82-2.74-2.01-3.59-3.55-.85-1.54-1.27-3.42-1.27-5.62,0-2.51.36-4.82,1.06-6.94.71-2.11,1.71-3.96,3-5.53,1.29-1.57,2.82-2.79,4.58-3.65,1.76-.86,3.68-1.29,5.76-1.29s3.89.41,5.43,1.22c1.54.81,2.74,2,3.59,3.55.85,1.56,1.27,3.44,1.27,5.64,0,2.51-.36,4.82-1.06,6.93-.71,2.12-1.71,3.96-3,5.53-1.29,1.57-2.82,2.79-4.58,3.65-1.76.86-3.68,1.29-5.76,1.29Zm.91-7.18c.79,0,1.46-.35,2.03-1.04.57-.7,1.04-1.58,1.4-2.64.37-1.06.64-2.16.82-3.29.18-1.13.27-2.13.27-3.02,0-1.32-.21-2.22-.63-2.72s-.96-.74-1.62-.74c-.79,0-1.46.35-2.03,1.04-.57.7-1.04,1.58-1.41,2.64-.37,1.06-.64,2.16-.82,3.29s-.27,2.13-.27,3.02c0,1.32.21,2.22.65,2.72.43.49.96.74,1.6.74Z"/>
      <path class="cls-1" d="m316.65,86.41l5.32-26.6h12.01c2.81,0,5.23.46,7.26,1.37,2.03.91,3.58,2.21,4.67,3.9s1.63,3.69,1.63,6.02-.41,4.47-1.23,6.35c-.82,1.88-1.98,3.48-3.46,4.83s-3.24,2.37-5.26,3.08c-2.03.71-4.26,1.06-6.69,1.06h-14.25Zm10.38-6.99h4.18c1.6,0,2.93-.35,4.01-1.04,1.08-.7,1.89-1.63,2.45-2.81.56-1.18.84-2.49.84-3.93,0-1.04-.21-1.91-.63-2.62-.42-.71-1.04-1.25-1.86-1.63-.82-.38-1.84-.57-3.06-.57h-3.42l-2.51,12.62Z"/>
      <path class="cls-1" d="m348.04,86.41l5.32-26.6h8.81l-5.32,26.6h-8.81Zm9.16-5.47l1.33-10.07,11.86-11.06h10.3l-13.64,12.39-6.08,5.24-3.76,3.5Zm8.81,5.47l-6.42-10.34,6.65-6,9.77,16.34h-9.99Z"/>
      <path class="cls-1" d="m377.11,86.41l5.32-26.6h8.81l-5.32,26.6h-8.81Zm9.16-5.47l1.33-10.07,11.86-11.06h10.3l-13.64,12.39-6.08,5.24-3.76,3.5Zm8.81,5.47l-6.42-10.34,6.65-6,9.77,16.34h-9.99Z"/>
      <path class="cls-1" d="m419.52,76.34l1.29-6.46h19.38l-1.29,6.46h-19.38Zm5.05,6.08l3.72-18.62h6.84l-3.72,18.62h-6.84Z"/>
      <path class="cls-1" d="m461.47,87.02c-1.9,0-3.73-.23-5.49-.68-1.76-.46-3.35-1.15-4.77-2.09l4.06-6.23c1.04.66,2.16,1.15,3.36,1.46,1.2.32,2.35.47,3.44.47,1.24,0,2.19-.2,2.85-.59s.99-.94.99-1.65c0-.56-.24-.99-.72-1.29-.48-.3-1.34-.46-2.58-.46h-8.09l4.56-16.15h17.67l-1.37,6.76h-14.52l5.28-3.84-2.85,10.3-3.72-3.84h5.47c3.17,0,5.61.63,7.33,1.88,1.72,1.25,2.58,3.12,2.58,5.61,0,2.15-.59,4-1.77,5.55s-2.79,2.73-4.83,3.55-4.34,1.24-6.9,1.24Z"/>
      <path class="cls-1" d="m487.62,87.02c-2.08,0-3.89-.41-5.43-1.24-1.55-.82-2.74-2.01-3.59-3.55-.85-1.54-1.27-3.42-1.27-5.62,0-2.51.36-4.82,1.06-6.94.71-2.11,1.71-3.96,3-5.53,1.29-1.57,2.82-2.79,4.58-3.65,1.76-.86,3.68-1.29,5.76-1.29s3.89.41,5.43,1.22c1.54.81,2.74,2,3.59,3.55.85,1.56,1.27,3.44,1.27,5.64,0,2.51-.36,4.82-1.06,6.93-.71,2.12-1.71,3.96-3,5.53-1.29,1.57-2.82,2.79-4.58,3.65-1.76.86-3.68,1.29-5.76,1.29Zm.91-7.18c.79,0,1.46-.35,2.03-1.04.57-.7,1.04-1.58,1.4-2.64.37-1.06.64-2.16.82-3.29.18-1.13.27-2.13.27-3.02,0-1.32-.21-2.22-.63-2.72s-.96-.74-1.62-.74c-.79,0-1.46.35-2.03,1.04-.57.7-1.04,1.58-1.41,2.64-.37,1.06-.64,2.16-.82,3.29s-.27,2.13-.27,3.02c0,1.32.21,2.22.65,2.72.43.49.96.74,1.6.74Z"/>
      <path class="cls-1" d="m522.69,86.41h-8.97l5.32-26.6h21.62l-1.37,6.76h-12.65l-3.95,19.84Zm2.43-15.28h11.71l-1.37,6.76h-11.66l1.33-6.76Z"/>
      <path class="cls-1" d="m548.76,87.02c-1.57,0-3.08-.11-4.52-.34-1.44-.23-2.75-.55-3.93-.97-1.18-.42-2.2-.88-3.06-1.39l3.46-6.61c.99.56,1.98,1.02,2.98,1.39,1,.37,2,.64,3,.82,1,.18,2,.27,2.98.27.79,0,1.44-.06,1.96-.19s.91-.31,1.18-.55c.27-.24.4-.51.4-.82,0-.41-.23-.73-.68-.99-.46-.25-1.06-.48-1.81-.68-.75-.2-1.57-.41-2.47-.63-.9-.21-1.8-.49-2.72-.84s-1.74-.78-2.49-1.31c-.75-.53-1.35-1.2-1.8-2.01-.46-.81-.68-1.8-.68-2.96,0-2.03.54-3.79,1.62-5.28,1.08-1.49,2.62-2.65,4.63-3.48,2.02-.82,4.41-1.24,7.2-1.24,1.98,0,3.82.2,5.53.59,1.71.39,3.19.96,4.43,1.69l-3.23,6.54c-1.06-.66-2.22-1.15-3.48-1.48s-2.53-.49-3.82-.49c-.86,0-1.58.08-2.17.25-.58.17-1.02.39-1.31.67-.29.28-.44.57-.44.87,0,.41.23.74.68,1.01.46.27,1.06.49,1.82.68.76.19,1.59.39,2.49.61.9.22,1.8.48,2.7.8.9.32,1.73.74,2.49,1.25.76.52,1.37,1.18,1.82,1.98.46.8.68,1.78.68,2.95,0,1.98-.54,3.7-1.63,5.19s-2.64,2.64-4.65,3.48c-2.01.84-4.4,1.25-7.16,1.25Z"/>
    </g>
  </g>
</svg>