<?xml version="1.0" encoding="UTF-8"?>
<svg id="_Слой_2" data-name="Слой 2" xmlns="http://www.w3.org/2000/svg" viewBox="0 0 559.51 88.74">
  <defs>
    <style>
      .cls-1 {
        fill: #fff;
      }

      .cls-1, .cls-2 {
        stroke-width: 0px;
      }

      .cls-2 {
        fill: #029df6;
      }
    </style>
  </defs>
  <g id="_Слой_2-2" data-name="Слой 2">
    <g>
      <path class="cls-1" d="m6.3,40.1L1.51.9h13.31l3.83,33.1h-6.97L29.26.9h12.39l3.37,33.1h-6.57L56,.9h13.25l-20.79,39.2h-14.45l-3.03-27.1h4.11l-14.34,27.1H6.3Z"/>
      <path class="cls-1" d="m79.47,30.13h20.05l-2.06,9.97h-33.24L72.22.9h32.5l-2.06,9.97h-19.25l-3.94,19.26Zm2.11-14.67h17.82l-1.94,9.52h-17.82l1.94-9.52Z"/>
      <path class="cls-1" d="m102.66,40.1L110.66.9h13.48l-5.88,28.95h18.05l-2.11,10.25h-31.53Z"/>
      <path class="cls-1" d="m160.07,40.99c-4.11,0-7.71-.74-10.79-2.21-3.08-1.47-5.47-3.53-7.17-6.16s-2.54-5.68-2.54-9.16.62-6.59,1.86-9.46c1.24-2.87,2.98-5.36,5.23-7.45s4.91-3.71,8-4.84c3.08-1.14,6.47-1.71,10.17-1.71s7.25.67,10.22,2.02,5.18,3.29,6.63,5.82l-9.71,7.45c-.84-1.46-1.92-2.58-3.26-3.39-1.33-.8-2.91-1.2-4.74-1.2-1.6,0-3.06.29-4.37.87-1.31.58-2.45,1.4-3.4,2.46-.95,1.06-1.69,2.32-2.23,3.78s-.8,3.06-.8,4.82c0,1.53.34,2.88,1.03,4.03.69,1.16,1.65,2.05,2.88,2.69,1.24.63,2.67.95,4.31.95s3.09-.35,4.6-1.06c1.5-.71,2.94-1.87,4.31-3.47l7.94,7.45c-2.44,2.91-5.15,4.94-8.14,6.08-2.99,1.14-6.33,1.71-10.03,1.71Z"/>
      <path class="cls-1" d="m201.48,40.99c-4.15,0-7.74-.75-10.77-2.24-3.03-1.49-5.37-3.56-7.03-6.19s-2.48-5.67-2.48-9.1.62-6.64,1.86-9.49c1.24-2.86,2.98-5.33,5.23-7.42s4.91-3.71,8-4.84c3.08-1.14,6.45-1.71,10.11-1.71,4.15,0,7.74.75,10.77,2.24,3.03,1.49,5.37,3.56,7.03,6.19s2.49,5.67,2.49,9.1-.62,6.64-1.86,9.49c-1.24,2.86-2.98,5.33-5.23,7.42-2.25,2.09-4.91,3.71-8,4.84-3.08,1.14-6.46,1.71-10.11,1.71Zm1.14-10.7c1.68,0,3.15-.32,4.43-.95,1.28-.63,2.37-1.51,3.28-2.63.91-1.12,1.6-2.4,2.06-3.84.46-1.44.69-2.96.69-4.56s-.31-2.87-.94-4-1.52-2.03-2.68-2.66c-1.16-.63-2.56-.95-4.2-.95s-3.1.32-4.4.95c-1.29.63-2.4,1.51-3.31,2.63s-1.6,2.4-2.06,3.84c-.46,1.44-.69,2.96-.69,4.56,0,1.49.31,2.82.94,3.98.63,1.16,1.52,2.05,2.68,2.69,1.16.63,2.56.95,4.2.95Z"/>
      <path class="cls-1" d="m227.41,40.1L235.41.9h10.97l10.68,25.59h-5.83L271.8.9h11.48l-7.88,39.2h-12.28l4.17-21.06,1.94-.11-13.82,17.64h-5.94l-7.77-17.7,2.29.17-4.29,21.06h-12.28Z"/>
      <path class="cls-1" d="m297.16,30.13h20.05l-2.05,9.97h-33.24l8-39.2h32.5l-2.06,9.97h-19.25l-3.94,19.26Zm2.11-14.67h17.82l-1.94,9.52h-17.82l1.94-9.52Z"/>
      <path class="cls-1" d="m337.48,40.1l8-39.2h21.19c4.76,0,8.34.81,10.74,2.44,2.4,1.62,3.6,3.93,3.6,6.92,0,2.43-.71,4.48-2.14,6.16-1.43,1.68-3.39,2.96-5.88,3.84-2.49.88-5.36,1.32-8.6,1.32l1.71-3.02c4.07,0,7.28.79,9.62,2.38,2.34,1.59,3.51,3.82,3.51,6.69s-.85,5.24-2.54,7.08-3.95,3.21-6.77,4.09c-2.82.88-5.94,1.32-9.37,1.32h-23.08Zm15.14-9.24h8.68c1.33,0,2.43-.3,3.28-.9.86-.6,1.29-1.49,1.29-2.69,0-.86-.33-1.5-1-1.93-.67-.43-1.44-.64-2.31-.64h-9.6l1.77-8.74h7.77c1.03,0,1.88-.14,2.54-.42.67-.28,1.15-.67,1.46-1.18s.46-1.11.46-1.82c0-.82-.31-1.43-.94-1.82-.63-.39-1.49-.59-2.6-.59h-6.57l-4.23,20.72Z"/>
      <path class="cls-1" d="m404.14,40.99c-4.15,0-7.74-.75-10.77-2.24-3.03-1.49-5.37-3.56-7.03-6.19s-2.48-5.67-2.48-9.1.62-6.64,1.86-9.49c1.24-2.86,2.98-5.33,5.23-7.42s4.91-3.71,8-4.84c3.08-1.14,6.45-1.71,10.11-1.71,4.15,0,7.74.75,10.77,2.24,3.03,1.49,5.37,3.56,7.03,6.19s2.48,5.67,2.48,9.1-.62,6.64-1.86,9.49c-1.24,2.86-2.98,5.33-5.23,7.42-2.25,2.09-4.91,3.71-8,4.84-3.08,1.14-6.45,1.71-10.11,1.71Zm1.14-10.7c1.68,0,3.15-.32,4.43-.95s2.37-1.51,3.29-2.63c.91-1.12,1.6-2.4,2.06-3.84.46-1.44.69-2.96.69-4.56s-.31-2.87-.94-4c-.63-1.14-1.52-2.03-2.68-2.66-1.16-.63-2.56-.95-4.2-.95s-3.1.32-4.4.95-2.4,1.51-3.31,2.63-1.6,2.4-2.06,3.84c-.46,1.44-.69,2.96-.69,4.56,0,1.49.31,2.82.94,3.98.63,1.16,1.52,2.05,2.68,2.69s2.56.95,4.2.95Z"/>
      <path class="cls-1" d="m430.08,40.1l8-39.2h11.08l15.02,23.86h-4.68l4.86-23.86h13.14l-8,39.2h-11.08l-15.02-23.86h4.69l-4.86,23.86h-13.14Z"/>
      <path class="cls-1" d="m496.16,40.99c-4.15,0-7.62-.78-10.39-2.33-2.78-1.55-4.75-3.71-5.91-6.5-1.16-2.78-1.36-6.02-.6-9.72l4.4-21.56h13.48l-4.34,21.34c-.27,1.38-.36,2.58-.29,3.58.08,1.01.33,1.85.77,2.52.44.67,1.04,1.17,1.8,1.48.76.32,1.67.48,2.74.48,1.29,0,2.41-.26,3.34-.78.93-.52,1.71-1.38,2.34-2.58.63-1.19,1.13-2.76,1.51-4.7l4.34-21.34h13.25l-4.51,22.12c-1.18,5.86-3.6,10.32-7.26,13.38-3.65,3.06-8.55,4.59-14.68,4.59Z"/>
      <path class="cls-1" d="m536.66,40.99c-2.36,0-4.62-.17-6.8-.5-2.17-.34-4.14-.81-5.91-1.43-1.77-.62-3.3-1.3-4.6-2.04l5.2-9.74c1.49.82,2.98,1.5,4.48,2.04,1.5.54,3.01.94,4.51,1.2,1.5.26,3,.39,4.48.39,1.18,0,2.16-.09,2.94-.28.78-.19,1.37-.46,1.77-.81.4-.35.6-.76.6-1.2,0-.6-.34-1.08-1.03-1.46-.69-.37-1.59-.71-2.71-1.01-1.12-.3-2.36-.61-3.71-.92-1.35-.32-2.71-.73-4.08-1.23s-2.62-1.15-3.74-1.93-2.03-1.77-2.71-2.97c-.69-1.19-1.03-2.65-1.03-4.37,0-2.99.81-5.58,2.43-7.78,1.62-2.2,3.94-3.91,6.97-5.12,3.03-1.21,6.63-1.82,10.82-1.82,2.97,0,5.74.29,8.31.87,2.57.58,4.79,1.41,6.65,2.49l-4.86,9.63c-1.6-.97-3.34-1.7-5.23-2.18s-3.8-.73-5.74-.73c-1.29,0-2.38.12-3.26.36-.88.24-1.53.57-1.97.98-.44.41-.66.84-.66,1.29,0,.6.34,1.09,1.03,1.48.69.39,1.6.73,2.74,1.01,1.14.28,2.39.58,3.74.9s2.7.71,4.06,1.18c1.35.47,2.6,1.08,3.74,1.85,1.14.77,2.06,1.74,2.74,2.91.69,1.18,1.03,2.62,1.03,4.34,0,2.91-.82,5.46-2.46,7.64-1.64,2.18-3.97,3.89-7,5.12s-6.62,1.85-10.77,1.85Z"/>
      <path class="cls-2" d="m12.16,88.74c-2.91,0-5.33-.55-7.28-1.66-1.95-1.11-3.33-2.65-4.14-4.64-.81-1.99-.95-4.3-.42-6.94l3.08-15.4h9.44l-3.04,15.24c-.19.99-.25,1.84-.2,2.56.05.72.23,1.32.54,1.8.31.48.73.83,1.26,1.06.53.23,1.17.34,1.92.34.91,0,1.69-.19,2.34-.56.65-.37,1.2-.99,1.64-1.84.44-.85.79-1.97,1.06-3.36l3.04-15.24h9.28l-3.16,15.8c-.83,4.19-2.52,7.37-5.08,9.56-2.56,2.19-5.99,3.28-10.28,3.28Z"/>
      <path class="cls-2" d="m29.4,88.1l5.6-28h12.44c3.76,0,6.66.81,8.7,2.44,2.04,1.63,3.06,3.91,3.06,6.84,0,2.35-.58,4.41-1.74,6.2-1.16,1.79-2.8,3.17-4.92,4.16-2.12.99-4.62,1.48-7.5,1.48h-9.04l5.04-4.12-2.2,11h-9.44Zm11.4-9.88l-3.32-4.28h8.04c1.31,0,2.32-.33,3.04-.98.72-.65,1.08-1.57,1.08-2.74,0-1.01-.31-1.74-.94-2.18-.63-.44-1.49-.66-2.58-.66h-7.32l5.04-4.4-3.04,15.24Z"/>
      <path class="cls-2" d="m77.2,88.1l4.12-20.68h-8.2l1.48-7.32h25.84l-1.48,7.32h-8.2l-4.12,20.68h-9.44Z"/>
      <path class="cls-2" d="m112.64,88.74c-2.91,0-5.42-.53-7.54-1.6-2.12-1.07-3.76-2.54-4.92-4.42s-1.74-4.05-1.74-6.5.43-4.74,1.3-6.78c.87-2.04,2.09-3.81,3.66-5.3,1.57-1.49,3.44-2.65,5.6-3.46s4.52-1.22,7.08-1.22c2.91,0,5.42.53,7.54,1.6,2.12,1.07,3.76,2.54,4.92,4.42,1.16,1.88,1.74,4.05,1.74,6.5s-.43,4.74-1.3,6.78c-.87,2.04-2.09,3.81-3.66,5.3-1.57,1.49-3.44,2.65-5.6,3.46s-4.52,1.22-7.08,1.22Zm.8-7.64c1.17,0,2.21-.23,3.1-.68s1.66-1.08,2.3-1.88c.64-.8,1.12-1.71,1.44-2.74.32-1.03.48-2.11.48-3.26s-.22-2.05-.66-2.86c-.44-.81-1.07-1.45-1.88-1.9-.81-.45-1.79-.68-2.94-.68s-2.17.23-3.08.68c-.91.45-1.68,1.08-2.32,1.88-.64.8-1.12,1.71-1.44,2.74-.32,1.03-.48,2.11-.48,3.26,0,1.07.22,2.01.66,2.84.44.83,1.07,1.47,1.88,1.92.81.45,1.79.68,2.94.68Z"/>
      <path class="cls-1" d="m142.4,83.3l1.2-6,15-17.2h10l-14.56,17.2-4.44-1.32h21.68l-1.48,7.32h-27.4Zm13.56,4.8l.96-4.8,1.92-7.32.84-4.28h8.72l-3.28,16.4h-9.16Z"/>
      <path class="cls-1" d="m180.72,88.74c-2,0-3.93-.24-5.78-.72-1.85-.48-3.53-1.21-5.02-2.2l4.28-6.56c1.09.69,2.27,1.21,3.54,1.54,1.27.33,2.47.5,3.62.5,1.31,0,2.31-.21,3-.62.69-.41,1.04-.99,1.04-1.74,0-.59-.25-1.04-.76-1.36-.51-.32-1.41-.48-2.72-.48h-8.52l4.8-17h18.6l-1.44,7.12h-15.28l5.56-4.04-3,10.84-3.92-4.04h5.76c3.33,0,5.91.66,7.72,1.98,1.81,1.32,2.72,3.29,2.72,5.9,0,2.27-.62,4.21-1.86,5.84-1.24,1.63-2.93,2.87-5.08,3.74s-4.57,1.3-7.26,1.3Z"/>
      <path class="cls-1" d="m220.24,88.74c-2.19,0-4.09-.43-5.72-1.3s-2.89-2.11-3.78-3.74c-.89-1.63-1.34-3.6-1.34-5.92,0-2.64.37-5.07,1.12-7.3s1.8-4.17,3.16-5.82c1.36-1.65,2.97-2.93,4.82-3.84,1.85-.91,3.87-1.36,6.06-1.36s4.09.43,5.72,1.28c1.63.85,2.89,2.1,3.78,3.74.89,1.64,1.34,3.62,1.34,5.94,0,2.64-.37,5.07-1.12,7.3-.75,2.23-1.8,4.17-3.16,5.82s-2.97,2.93-4.82,3.84-3.87,1.36-6.06,1.36Zm.96-7.56c.83,0,1.54-.37,2.14-1.1s1.09-1.66,1.48-2.78c.39-1.12.67-2.27.86-3.46s.28-2.25.28-3.18c0-1.39-.22-2.34-.66-2.86-.44-.52-1.01-.78-1.7-.78-.83,0-1.54.37-2.14,1.1-.6.73-1.09,1.66-1.48,2.78-.39,1.12-.67,2.27-.86,3.46-.19,1.19-.28,2.25-.28,3.18,0,1.39.23,2.34.68,2.86.45.52,1.01.78,1.68.78Z"/>
      <path class="cls-1" d="m247.92,88.74c-2.19,0-4.09-.43-5.72-1.3-1.63-.87-2.89-2.11-3.78-3.74-.89-1.63-1.34-3.6-1.34-5.92,0-2.64.37-5.07,1.12-7.3.75-2.23,1.8-4.17,3.16-5.82,1.36-1.65,2.97-2.93,4.82-3.84,1.85-.91,3.87-1.36,6.06-1.36s4.09.43,5.72,1.28c1.63.85,2.89,2.1,3.78,3.74.89,1.64,1.34,3.62,1.34,5.94,0,2.64-.37,5.07-1.12,7.3s-1.8,4.17-3.16,5.82c-1.36,1.65-2.97,2.93-4.82,3.84s-3.87,1.36-6.06,1.36Zm.96-7.56c.83,0,1.54-.37,2.14-1.1.6-.73,1.09-1.66,1.48-2.78s.67-2.27.86-3.46.28-2.25.28-3.18c0-1.39-.22-2.34-.66-2.86-.44-.52-1.01-.78-1.7-.78-.83,0-1.54.37-2.14,1.1-.6.73-1.09,1.66-1.48,2.78s-.67,2.27-.86,3.46c-.19,1.19-.28,2.25-.28,3.18,0,1.39.23,2.34.68,2.86.45.52,1.01.78,1.68.78Z"/>
      <path class="cls-1" d="m275.6,88.74c-2.19,0-4.09-.43-5.72-1.3-1.63-.87-2.89-2.11-3.78-3.74-.89-1.63-1.34-3.6-1.34-5.92,0-2.64.37-5.07,1.12-7.3.75-2.23,1.8-4.17,3.16-5.82,1.36-1.65,2.97-2.93,4.82-3.84,1.85-.91,3.87-1.36,6.06-1.36s4.09.43,5.72,1.28c1.62.85,2.88,2.1,3.78,3.74.89,1.64,1.34,3.62,1.34,5.94,0,2.64-.37,5.07-1.12,7.3-.75,2.23-1.8,4.17-3.16,5.82-1.36,1.65-2.97,2.93-4.82,3.84s-3.88,1.36-6.06,1.36Zm.96-7.56c.83,0,1.54-.37,2.14-1.1.6-.73,1.09-1.66,1.48-2.78s.67-2.27.86-3.46c.19-1.19.28-2.25.28-3.18,0-1.39-.22-2.34-.66-2.86-.44-.52-1.01-.78-1.7-.78-.83,0-1.54.37-2.14,1.1-.6.73-1.09,1.66-1.48,2.78s-.67,2.27-.86,3.46c-.19,1.19-.28,2.25-.28,3.18,0,1.39.23,2.34.68,2.86.45.52,1.01.78,1.68.78Z"/>
      <path class="cls-1" d="m313.76,80.98h14.04l-1.44,7.12h-23.28l5.6-28h22.76l-1.44,7.12h-13.48l-2.76,13.76Zm1.48-10.48h12.48l-1.36,6.8h-12.48l1.36-6.8Z"/>
      <path class="cls-1" d="m344.12,88.74c-2.91,0-5.33-.55-7.28-1.66-1.95-1.11-3.33-2.65-4.14-4.64-.81-1.99-.96-4.3-.42-6.94l3.08-15.4h9.44l-3.04,15.24c-.19.99-.25,1.84-.2,2.56.05.72.23,1.32.54,1.8.31.48.73.83,1.26,1.06.53.23,1.17.34,1.92.34.91,0,1.69-.19,2.34-.56.65-.37,1.2-.99,1.64-1.84.44-.85.79-1.97,1.06-3.36l3.04-15.24h9.28l-3.16,15.8c-.83,4.19-2.52,7.37-5.08,9.56s-5.99,3.28-10.28,3.28Z"/>
      <path class="cls-1" d="m361.36,88.1l5.6-28h12.56c3.71,0,6.57.81,8.6,2.42,2.03,1.61,3.04,3.87,3.04,6.78,0,2.35-.58,4.4-1.74,6.16-1.16,1.76-2.8,3.13-4.92,4.12-2.12.99-4.62,1.48-7.5,1.48h-9.04l5.04-3.96-2.2,11h-9.44Zm11.4-9.88l-3.32-4.28h8.04c1.3,0,2.32-.33,3.04-.98s1.08-1.57,1.08-2.74c0-1.01-.31-1.74-.94-2.18-.63-.44-1.49-.66-2.58-.66h-7.32l5.04-4.4-3.04,15.24Zm5.72,9.88l-5.76-10.2h9.72l5.84,10.2h-9.8Z"/>
      <path class="cls-1" d="m405.2,77.5l1.36-6.8h20.4l-1.36,6.8h-20.4Zm5.32,6.4l3.92-19.6h7.2l-3.92,19.6h-7.2Z"/>
      <path class="cls-1" d="m449.36,88.74c-2,0-3.93-.24-5.78-.72-1.85-.48-3.53-1.21-5.02-2.2l4.28-6.56c1.09.69,2.27,1.21,3.54,1.54,1.27.33,2.47.5,3.62.5,1.31,0,2.31-.21,3-.62.69-.41,1.04-.99,1.04-1.74,0-.59-.25-1.04-.76-1.36-.51-.32-1.41-.48-2.72-.48h-8.52l4.8-17h18.6l-1.44,7.12h-15.28l5.56-4.04-3,10.84-3.92-4.04h5.76c3.33,0,5.91.66,7.72,1.98,1.81,1.32,2.72,3.29,2.72,5.9,0,2.27-.62,4.21-1.86,5.84-1.24,1.63-2.94,2.87-5.08,3.74-2.15.87-4.57,1.3-7.26,1.3Z"/>
      <path class="cls-1" d="m476.88,88.74c-2.19,0-4.09-.43-5.72-1.3s-2.89-2.11-3.78-3.74c-.89-1.63-1.34-3.6-1.34-5.92,0-2.64.37-5.07,1.12-7.3s1.8-4.17,3.16-5.82c1.36-1.65,2.97-2.93,4.82-3.84,1.85-.91,3.87-1.36,6.06-1.36s4.09.43,5.72,1.28c1.63.85,2.89,2.1,3.78,3.74.89,1.64,1.34,3.62,1.34,5.94,0,2.64-.38,5.07-1.12,7.3s-1.8,4.17-3.16,5.82-2.97,2.93-4.82,3.84-3.87,1.36-6.06,1.36Zm.96-7.56c.83,0,1.54-.37,2.14-1.1s1.09-1.66,1.48-2.78c.38-1.12.67-2.27.86-3.46.19-1.19.28-2.25.28-3.18,0-1.39-.22-2.34-.66-2.86-.44-.52-1.01-.78-1.7-.78-.83,0-1.54.37-2.14,1.1-.6.73-1.09,1.66-1.48,2.78s-.67,2.27-.86,3.46c-.19,1.19-.28,2.25-.28,3.18,0,1.39.23,2.34.68,2.86.45.52,1.01.78,1.68.78Z"/>
      <path class="cls-1" d="m513.8,88.1h-9.44l5.6-28h22.76l-1.44,7.12h-13.32l-4.16,20.88Zm2.56-16.08h12.32l-1.44,7.12h-12.28l1.4-7.12Z"/>
      <path class="cls-1" d="m541.24,88.74c-1.65,0-3.24-.12-4.76-.36-1.52-.24-2.9-.58-4.14-1.02-1.24-.44-2.31-.93-3.22-1.46l3.64-6.96c1.04.59,2.09,1.07,3.14,1.46,1.05.39,2.11.67,3.16.86,1.05.19,2.1.28,3.14.28.83,0,1.51-.07,2.06-.2s.96-.33,1.24-.58c.28-.25.42-.54.42-.86,0-.43-.24-.77-.72-1.04-.48-.27-1.11-.51-1.9-.72-.79-.21-1.65-.43-2.6-.66s-1.9-.52-2.86-.88c-.96-.36-1.83-.82-2.62-1.38-.79-.56-1.42-1.27-1.9-2.12-.48-.85-.72-1.89-.72-3.12,0-2.13.57-3.99,1.7-5.56,1.13-1.57,2.76-2.79,4.88-3.66,2.12-.87,4.65-1.3,7.58-1.3,2.08,0,4.02.21,5.82.62,1.8.41,3.35,1.01,4.66,1.78l-3.4,6.88c-1.12-.69-2.34-1.21-3.66-1.56s-2.66-.52-4.02-.52c-.91,0-1.67.09-2.28.26s-1.07.41-1.38.7c-.31.29-.46.6-.46.92,0,.43.24.78.72,1.06s1.12.52,1.92.72,1.67.41,2.62.64c.95.23,1.89.51,2.84.84.95.33,1.82.77,2.62,1.32.8.55,1.44,1.24,1.92,2.08.48.84.72,1.87.72,3.1,0,2.08-.57,3.9-1.72,5.46-1.15,1.56-2.78,2.78-4.9,3.66-2.12.88-4.63,1.32-7.54,1.32Z"/>
    </g>
  </g>
</svg>