<?xml version="1.0" encoding="UTF-8"?>
<svg id="_Слой_2" data-name="Слой 2" xmlns="http://www.w3.org/2000/svg" viewBox="0 0 566.03 84.22">
  <defs>
    <style>
      .cls-1 {
        fill: #fff;
      }

      .cls-1, .cls-2 {
        stroke-width: 0px;
      }

      .cls-2 {
        fill: #029df6;
      }
    </style>
  </defs>
  <g id="_Слой_2-2" data-name="Слой 2">
    <g>
      <path class="cls-1" d="m4.99,34.37l5.04-24.82H0L1.81.77h31.63l-1.81,8.78h-10.04l-5.04,24.82H4.99Z"/>
      <path class="cls-1" d="m42.64,25.82h17.18l-1.76,8.54h-28.49L36.43.77h27.86l-1.76,8.54h-16.5l-3.38,16.51Zm1.81-12.58h15.28l-1.66,8.16h-15.28l1.67-8.16Z"/>
      <path class="cls-1" d="m62.52,34.37L69.38.77h15.37c4.54,0,8.05.97,10.53,2.9,2.48,1.94,3.72,4.65,3.72,8.14,0,2.82-.71,5.28-2.13,7.39-1.42,2.11-3.43,3.76-6.02,4.94-2.6,1.18-5.65,1.78-9.18,1.78h-11.06l6.17-4.75-2.69,13.2h-11.55Zm13.95-11.86l-4.06-5.14h9.84c1.6,0,2.84-.39,3.72-1.18s1.32-1.88,1.32-3.29c0-1.22-.38-2.09-1.15-2.62-.77-.53-1.82-.79-3.16-.79h-8.96l6.17-5.28-3.72,18.29Zm7,11.86l-7.05-12.24h11.9l7.15,12.24h-12Z"/>
      <path class="cls-1" d="m109.77,34.37L102.13.77h11.85l6.17,28.46h-7.54L130.63.77h11.85l-21.35,33.6h-11.36Z"/>
      <path class="cls-1" d="m149.82,25.82h17.18l-1.76,8.54h-28.49L143.6.77h27.86l-1.76,8.54h-16.5l-3.38,16.51Zm1.81-12.58h15.28l-1.66,8.16h-15.28l1.67-8.16Z"/>
      <path class="cls-1" d="m177.14,34.37l5.04-24.82h-10.04l1.81-8.78h31.63l-1.81,8.78h-10.04l-5.04,24.82h-11.55Z"/>
      <path class="cls-1" d="m218.51,35.14c-3.56,0-6.53-.66-8.91-1.99-2.38-1.33-4.07-3.18-5.07-5.57-1-2.38-1.17-5.16-.51-8.33l3.77-18.48h11.55l-3.72,18.29c-.23,1.18-.31,2.21-.24,3.07.06.86.29,1.58.66,2.16.38.58.89,1,1.54,1.27.65.27,1.44.41,2.35.41,1.11,0,2.06-.22,2.86-.67.8-.45,1.47-1.18,2.01-2.21.54-1.02.97-2.37,1.3-4.03l3.72-18.29h11.36l-3.87,18.96c-1.01,5.02-3.08,8.85-6.22,11.47-3.13,2.62-7.33,3.94-12.58,3.94Z"/>
      <path class="cls-1" d="m239.61,34.37L246.46.77h11.55l-5.04,24.82h15.47l-1.81,8.78h-27.03Z"/>
      <path class="cls-1" d="m269.82,34.37l6.85-33.6h11.56l-6.86,33.6h-11.55Z"/>
      <path class="cls-1" d="m283.23,34.37L305.07.77h11.36l8.13,33.6h-11.51l-5.53-28.37h4.5l-16.6,28.37h-12.19Zm10.09-5.86l4.6-8.16h15.76l1.27,8.16h-21.64Z"/>
      <path class="cls-1" d="m326.42,34.37l6.85-33.6h11.55l-6.85,33.6h-11.55Z"/>
      <path class="cls-1" d="m357.16,35.14c-2.02,0-3.97-.14-5.83-.43s-3.55-.7-5.07-1.22c-1.52-.53-2.83-1.11-3.94-1.75l4.46-8.35c1.27.7,2.55,1.29,3.84,1.75,1.29.46,2.58.81,3.87,1.03s2.57.34,3.84.34c1.01,0,1.85-.08,2.52-.24s1.17-.39,1.52-.7c.34-.3.51-.65.51-1.03,0-.51-.29-.93-.88-1.25-.59-.32-1.36-.61-2.33-.86-.96-.26-2.02-.52-3.18-.79-1.16-.27-2.33-.62-3.5-1.06-1.17-.43-2.24-.98-3.21-1.66s-1.74-1.52-2.33-2.54-.88-2.27-.88-3.74c0-2.56.69-4.78,2.08-6.67,1.39-1.89,3.38-3.35,5.97-4.39,2.59-1.04,5.69-1.56,9.28-1.56,2.55,0,4.92.25,7.12.74s4.1,1.21,5.7,2.14l-4.16,8.26c-1.37-.83-2.86-1.46-4.48-1.87-1.62-.42-3.26-.62-4.92-.62-1.11,0-2.04.1-2.79.31-.75.21-1.31.49-1.69.84-.38.35-.56.72-.56,1.1,0,.51.29.94.88,1.27s1.37.62,2.35.86c.98.24,2.05.5,3.21.77,1.16.27,2.32.61,3.48,1.01,1.16.4,2.23.93,3.21,1.58.98.66,1.76,1.49,2.35,2.5.59,1.01.88,2.25.88,3.72,0,2.5-.7,4.68-2.11,6.55-1.4,1.87-3.4,3.34-6,4.39-2.59,1.06-5.67,1.58-9.23,1.58Z"/>
      <path class="cls-1" d="m375.72,34.37l6.85-33.6h18.16c4.08,0,7.15.7,9.21,2.09,2.06,1.39,3.08,3.37,3.08,5.93,0,2.08-.61,3.84-1.84,5.28-1.22,1.44-2.91,2.54-5.04,3.29-2.14.75-4.59,1.13-7.37,1.13l1.47-2.59c3.49,0,6.24.68,8.25,2.04,2.01,1.36,3.01,3.27,3.01,5.74s-.73,4.49-2.18,6.07c-1.45,1.58-3.39,2.75-5.8,3.5-2.42.75-5.09,1.13-8.03,1.13h-19.78Zm12.97-7.92h7.44c1.14,0,2.08-.26,2.81-.77.73-.51,1.1-1.28,1.1-2.3,0-.74-.29-1.29-.86-1.66-.57-.37-1.23-.55-1.98-.55h-8.23l1.52-7.49h6.66c.88,0,1.61-.12,2.18-.36.57-.24.99-.58,1.25-1.01.26-.43.39-.95.39-1.56,0-.7-.27-1.22-.81-1.56-.54-.34-1.28-.5-2.23-.5h-5.63l-3.62,17.76Z"/>
      <path class="cls-1" d="m432.85,35.14c-3.56,0-6.63-.64-9.23-1.92-2.59-1.28-4.6-3.05-6.02-5.3s-2.13-4.86-2.13-7.8.53-5.69,1.59-8.14c1.06-2.45,2.55-4.57,4.48-6.36s4.21-3.18,6.85-4.15c2.64-.98,5.53-1.46,8.67-1.46,3.56,0,6.63.64,9.23,1.92,2.59,1.28,4.6,3.05,6.02,5.3s2.13,4.86,2.13,7.8-.53,5.69-1.59,8.14c-1.06,2.45-2.55,4.57-4.48,6.36-1.93,1.79-4.21,3.18-6.85,4.15-2.64.98-5.53,1.46-8.67,1.46Zm.98-9.17c1.44,0,2.7-.27,3.79-.82,1.09-.54,2.03-1.3,2.81-2.26.78-.96,1.37-2.06,1.76-3.29.39-1.23.59-2.54.59-3.91s-.27-2.46-.81-3.43c-.54-.98-1.31-1.74-2.3-2.28-1-.54-2.2-.82-3.6-.82s-2.66.27-3.77.82c-1.11.54-2.06,1.3-2.84,2.26s-1.37,2.06-1.76,3.29-.59,2.54-.59,3.91c0,1.28.27,2.42.81,3.41.54.99,1.3,1.76,2.3,2.3,1,.54,2.2.82,3.6.82Z"/>
      <path class="cls-1" d="m455.08,34.37l6.85-33.6h9.5l12.88,20.45h-4.01l4.16-20.45h11.26l-6.85,33.6h-9.5l-12.88-20.45h4.01l-4.16,20.45h-11.26Z"/>
      <path class="cls-1" d="m511.73,35.14c-3.56,0-6.53-.66-8.91-1.99-2.38-1.33-4.07-3.18-5.07-5.57s-1.17-5.16-.51-8.33l3.77-18.48h11.55l-3.72,18.29c-.23,1.18-.31,2.21-.25,3.07s.29,1.58.66,2.16c.38.58.89,1,1.54,1.27.65.27,1.44.41,2.35.41,1.11,0,2.06-.22,2.86-.67.8-.45,1.47-1.18,2.01-2.21.54-1.02.97-2.37,1.3-4.03l3.72-18.29h11.36l-3.87,18.96c-1.01,5.02-3.08,8.85-6.22,11.47-3.13,2.62-7.33,3.94-12.58,3.94Z"/>
      <path class="cls-1" d="m546.44,35.14c-2.02,0-3.97-.14-5.83-.43s-3.55-.7-5.07-1.22c-1.52-.53-2.83-1.11-3.94-1.75l4.46-8.35c1.27.7,2.55,1.29,3.84,1.75,1.29.46,2.58.81,3.87,1.03s2.57.34,3.84.34c1.01,0,1.85-.08,2.52-.24s1.17-.39,1.52-.7c.34-.3.51-.65.51-1.03,0-.51-.29-.93-.88-1.25-.59-.32-1.36-.61-2.33-.86-.96-.26-2.02-.52-3.18-.79-1.16-.27-2.33-.62-3.5-1.06-1.17-.43-2.24-.98-3.21-1.66s-1.74-1.52-2.33-2.54-.88-2.27-.88-3.74c0-2.56.69-4.78,2.08-6.67,1.39-1.89,3.38-3.35,5.97-4.39,2.59-1.04,5.69-1.56,9.28-1.56,2.55,0,4.92.25,7.12.74s4.1,1.21,5.7,2.14l-4.16,8.26c-1.37-.83-2.86-1.46-4.48-1.87-1.62-.42-3.26-.62-4.92-.62-1.11,0-2.04.1-2.79.31-.75.21-1.31.49-1.69.84-.38.35-.56.72-.56,1.1,0,.51.29.94.88,1.27s1.37.62,2.35.86c.98.24,2.05.5,3.21.77,1.16.27,2.32.61,3.48,1.01,1.16.4,2.23.93,3.21,1.58.98.66,1.76,1.49,2.35,2.5.59,1.01.88,2.25.88,3.72,0,2.5-.7,4.68-2.11,6.55-1.4,1.87-3.4,3.34-6,4.39-2.59,1.06-5.67,1.58-9.23,1.58Z"/>
      <path class="cls-2" d="m11.11,84.22c-2.41,0-4.48-.37-6.21-1.11-1.74-.74-3.14-1.84-4.2-3.32l6.19-5.86c.63.9,1.31,1.58,2.03,2.03s1.51.68,2.36.68c.93,0,1.69-.27,2.28-.82.59-.55.98-1.33,1.17-2.34l2.25-11.32H7.22l1.48-7.3h19.31l-3.61,18.04c-.55,2.76-1.39,4.97-2.54,6.62-1.15,1.65-2.62,2.85-4.41,3.59-1.79.74-3.9,1.11-6.33,1.11Z"/>
      <path class="cls-2" d="m42.84,84.22c-2.98,0-5.56-.55-7.73-1.64-2.17-1.09-3.85-2.6-5.04-4.53s-1.78-4.15-1.78-6.66.44-4.86,1.33-6.95c.89-2.09,2.14-3.9,3.75-5.43,1.61-1.53,3.53-2.71,5.74-3.55,2.21-.83,4.63-1.25,7.26-1.25,2.98,0,5.56.55,7.73,1.64,2.17,1.09,3.85,2.6,5.04,4.53s1.78,4.15,1.78,6.66-.44,4.86-1.33,6.95-2.14,3.9-3.75,5.43c-1.61,1.53-3.53,2.71-5.74,3.55-2.21.83-4.63,1.25-7.26,1.25Zm.82-7.83c1.2,0,2.26-.23,3.18-.7.92-.46,1.7-1.11,2.36-1.93.66-.82,1.15-1.76,1.48-2.81.33-1.05.49-2.17.49-3.34s-.23-2.1-.68-2.93c-.45-.83-1.09-1.48-1.93-1.95-.83-.46-1.84-.7-3.01-.7s-2.23.23-3.16.7c-.93.46-1.72,1.11-2.38,1.93-.66.82-1.15,1.76-1.48,2.81-.33,1.05-.49,2.17-.49,3.34,0,1.09.23,2.06.68,2.91.45.85,1.09,1.5,1.93,1.97.83.46,1.84.7,3.01.7Z"/>
      <path class="cls-2" d="m61.46,83.57l5.74-28.7h12.75c3.85,0,6.83.83,8.92,2.5,2.09,1.67,3.14,4,3.14,7.01,0,2.41-.59,4.52-1.78,6.36-1.19,1.83-2.87,3.25-5.04,4.26-2.17,1.01-4.74,1.52-7.69,1.52h-9.27l5.17-4.22-2.26,11.28h-9.68Zm11.69-10.13l-3.4-4.39h8.24c1.34,0,2.38-.33,3.12-1,.74-.67,1.11-1.61,1.11-2.81,0-1.04-.32-1.78-.96-2.23s-1.52-.68-2.64-.68h-7.5l5.17-4.51-3.12,15.62Z"/>
      <path class="cls-2" d="m86.96,83.57l18.29-28.7h9.51l6.81,28.7h-9.63l-4.63-24.23h3.77l-13.9,24.23h-10.21Zm8.45-5l3.85-6.97h13.2l1.07,6.97h-18.12Z"/>
      <path class="cls-1" d="m135.01,78.65l1.23-6.15,15.38-17.63h10.25l-14.92,17.63-4.55-1.35h22.22l-1.52,7.5h-28.08Zm13.9,4.92l.98-4.92,1.97-7.5.86-4.39h8.94l-3.36,16.81h-9.39Z"/>
      <path class="cls-1" d="m174.29,84.22c-2.05,0-4.02-.25-5.92-.74-1.9-.49-3.62-1.24-5.15-2.25l4.39-6.72c1.12.71,2.33,1.24,3.63,1.58,1.3.34,2.53.51,3.71.51,1.34,0,2.36-.21,3.07-.64.71-.42,1.07-1.02,1.07-1.78,0-.6-.26-1.07-.78-1.39-.52-.33-1.45-.49-2.79-.49h-8.73l4.92-17.42h19.07l-1.48,7.3h-15.66l5.7-4.14-3.07,11.11-4.02-4.14h5.9c3.42,0,6.05.68,7.91,2.03,1.86,1.35,2.79,3.37,2.79,6.05,0,2.32-.64,4.32-1.91,5.99s-3.01,2.95-5.21,3.83c-2.2.89-4.68,1.33-7.44,1.33Z"/>
      <path class="cls-1" d="m214.8,84.22c-2.24,0-4.2-.45-5.86-1.33-1.67-.89-2.96-2.17-3.87-3.83-.92-1.67-1.37-3.69-1.37-6.07,0-2.71.38-5.2,1.15-7.48.76-2.28,1.85-4.27,3.24-5.97,1.39-1.69,3.04-3.01,4.94-3.94,1.9-.93,3.97-1.39,6.21-1.39s4.2.44,5.86,1.31c1.67.88,2.96,2.15,3.87,3.83.92,1.68,1.37,3.71,1.37,6.09,0,2.71-.38,5.2-1.15,7.48-.77,2.28-1.85,4.27-3.24,5.97-1.39,1.7-3.04,3.01-4.94,3.94-1.9.93-3.97,1.39-6.21,1.39Zm.98-7.75c.85,0,1.58-.38,2.19-1.13.61-.75,1.12-1.7,1.52-2.85.4-1.15.69-2.33.88-3.55.19-1.22.29-2.3.29-3.26,0-1.42-.23-2.4-.68-2.93s-1.03-.8-1.74-.8c-.85,0-1.58.38-2.19,1.13-.61.75-1.12,1.7-1.52,2.85-.4,1.15-.69,2.33-.88,3.55-.19,1.22-.29,2.3-.29,3.26,0,1.42.23,2.4.7,2.93.46.53,1.04.8,1.72.8Z"/>
      <path class="cls-1" d="m243.17,84.22c-2.24,0-4.2-.45-5.86-1.33-1.67-.89-2.96-2.17-3.87-3.83-.92-1.67-1.37-3.69-1.37-6.07,0-2.71.38-5.2,1.15-7.48.76-2.28,1.85-4.27,3.24-5.97,1.39-1.69,3.04-3.01,4.94-3.94,1.9-.93,3.97-1.39,6.21-1.39s4.2.44,5.86,1.31c1.67.88,2.96,2.15,3.87,3.83.92,1.68,1.37,3.71,1.37,6.09,0,2.71-.38,5.2-1.15,7.48-.77,2.28-1.85,4.27-3.24,5.97-1.39,1.7-3.04,3.01-4.94,3.94-1.9.93-3.97,1.39-6.21,1.39Zm.98-7.75c.85,0,1.58-.38,2.19-1.13.61-.75,1.12-1.7,1.52-2.85.4-1.15.69-2.33.88-3.55.19-1.22.29-2.3.29-3.26,0-1.42-.23-2.4-.68-2.93s-1.03-.8-1.74-.8c-.85,0-1.58.38-2.19,1.13-.61.75-1.12,1.7-1.52,2.85-.4,1.15-.69,2.33-.88,3.55-.19,1.22-.29,2.3-.29,3.26,0,1.42.23,2.4.7,2.93.46.53,1.04.8,1.72.8Z"/>
      <path class="cls-1" d="m271.54,84.22c-2.24,0-4.2-.45-5.86-1.33-1.67-.89-2.96-2.17-3.87-3.83-.92-1.67-1.37-3.69-1.37-6.07,0-2.71.38-5.2,1.15-7.48.76-2.28,1.85-4.27,3.24-5.97,1.39-1.69,3.04-3.01,4.94-3.94,1.9-.93,3.97-1.39,6.21-1.39s4.2.44,5.86,1.31c1.67.88,2.96,2.15,3.88,3.83.91,1.68,1.37,3.71,1.37,6.09,0,2.71-.38,5.2-1.15,7.48s-1.85,4.27-3.24,5.97c-1.39,1.7-3.04,3.01-4.94,3.94-1.9.93-3.97,1.39-6.21,1.39Zm.98-7.75c.85,0,1.58-.38,2.19-1.13.61-.75,1.12-1.7,1.52-2.85.4-1.15.69-2.33.88-3.55.19-1.22.29-2.3.29-3.26,0-1.42-.23-2.4-.68-2.93s-1.03-.8-1.74-.8c-.85,0-1.58.38-2.19,1.13-.61.75-1.12,1.7-1.52,2.85-.4,1.15-.69,2.33-.88,3.55-.19,1.22-.29,2.3-.29,3.26,0,1.42.23,2.4.7,2.93.46.53,1.04.8,1.72.8Z"/>
      <path class="cls-1" d="m310.66,76.27h14.39l-1.48,7.3h-23.86l5.74-28.7h23.33l-1.48,7.3h-13.82l-2.83,14.1Zm1.52-10.74h12.79l-1.39,6.97h-12.79l1.39-6.97Z"/>
      <path class="cls-1" d="m341.77,84.22c-2.98,0-5.47-.57-7.46-1.7-2-1.13-3.41-2.72-4.24-4.76-.83-2.04-.98-4.41-.43-7.11l3.16-15.79h9.68l-3.12,15.62c-.19,1.01-.26,1.89-.21,2.62s.24,1.35.55,1.84c.31.49.74.85,1.29,1.09.55.23,1.2.35,1.97.35.93,0,1.73-.19,2.4-.57.67-.38,1.23-1.01,1.68-1.89s.81-2.02,1.09-3.44l3.12-15.62h9.51l-3.24,16.2c-.85,4.29-2.58,7.56-5.21,9.8s-6.14,3.36-10.54,3.36Z"/>
      <path class="cls-1" d="m359.45,83.57l5.74-28.7h12.87c3.8,0,6.74.83,8.81,2.48,2.08,1.65,3.12,3.97,3.12,6.95,0,2.41-.59,4.51-1.78,6.31-1.19,1.8-2.87,3.21-5.04,4.22-2.17,1.01-4.74,1.52-7.69,1.52h-9.27l5.17-4.06-2.25,11.28h-9.68Zm11.68-10.13l-3.4-4.39h8.24c1.34,0,2.38-.33,3.12-1,.74-.67,1.11-1.61,1.11-2.81,0-1.04-.32-1.78-.96-2.23s-1.52-.68-2.64-.68h-7.5l5.17-4.51-3.12,15.62Zm5.86,10.13l-5.9-10.46h9.96l5.99,10.46h-10.04Z"/>
      <path class="cls-1" d="m404.38,72.7l1.39-6.97h20.91l-1.39,6.97h-20.91Zm5.45,6.56l4.02-20.09h7.38l-4.02,20.09h-7.38Z"/>
      <path class="cls-1" d="m449.65,84.22c-2.05,0-4.02-.25-5.92-.74-1.9-.49-3.62-1.24-5.15-2.25l4.39-6.72c1.12.71,2.33,1.24,3.63,1.58s2.54.51,3.71.51c1.34,0,2.36-.21,3.08-.64.71-.42,1.07-1.02,1.07-1.78,0-.6-.26-1.07-.78-1.39-.52-.33-1.45-.49-2.79-.49h-8.73l4.92-17.42h19.07l-1.48,7.3h-15.66l5.7-4.14-3.08,11.11-4.02-4.14h5.9c3.42,0,6.05.68,7.91,2.03,1.86,1.35,2.79,3.37,2.79,6.05,0,2.32-.64,4.32-1.91,5.99-1.27,1.67-3.01,2.95-5.21,3.83s-4.68,1.33-7.44,1.33Z"/>
      <path class="cls-1" d="m477.85,84.22c-2.24,0-4.2-.45-5.86-1.33s-2.96-2.17-3.87-3.83c-.92-1.67-1.37-3.69-1.37-6.07,0-2.71.38-5.2,1.15-7.48.76-2.28,1.84-4.27,3.24-5.97,1.39-1.69,3.04-3.01,4.94-3.94,1.9-.93,3.97-1.39,6.21-1.39s4.2.44,5.86,1.31c1.67.88,2.96,2.15,3.88,3.83.92,1.68,1.37,3.71,1.37,6.09,0,2.71-.38,5.2-1.15,7.48-.76,2.28-1.84,4.27-3.24,5.97-1.39,1.7-3.04,3.01-4.94,3.94-1.9.93-3.97,1.39-6.21,1.39Zm.98-7.75c.85,0,1.58-.38,2.19-1.13.62-.75,1.12-1.7,1.52-2.85.4-1.15.69-2.33.88-3.55.19-1.22.29-2.3.29-3.26,0-1.42-.23-2.4-.68-2.93s-1.03-.8-1.74-.8c-.85,0-1.58.38-2.19,1.13-.62.75-1.12,1.7-1.52,2.85-.4,1.15-.69,2.33-.88,3.55-.19,1.22-.29,2.3-.29,3.26,0,1.42.23,2.4.7,2.93s1.04.8,1.72.8Z"/>
      <path class="cls-1" d="m515.7,83.57h-9.68l5.74-28.7h23.33l-1.48,7.3h-13.65l-4.26,21.4Zm2.62-16.48h12.63l-1.48,7.3h-12.59l1.43-7.3Z"/>
      <path class="cls-1" d="m543.82,84.22c-1.7,0-3.32-.12-4.88-.37-1.56-.25-2.97-.59-4.24-1.05-1.27-.45-2.37-.95-3.3-1.5l3.73-7.13c1.07.6,2.14,1.1,3.22,1.5,1.08.4,2.16.69,3.24.88s2.15.29,3.22.29c.85,0,1.55-.07,2.11-.21s.98-.33,1.27-.59.43-.55.43-.88c0-.44-.25-.79-.74-1.07s-1.14-.52-1.95-.74c-.81-.22-1.7-.44-2.67-.68-.97-.23-1.95-.53-2.93-.9-.98-.37-1.88-.84-2.69-1.42-.81-.57-1.46-1.3-1.95-2.17-.49-.87-.74-1.94-.74-3.2,0-2.19.58-4.09,1.74-5.7,1.16-1.61,2.83-2.86,5-3.75,2.17-.89,4.76-1.33,7.77-1.33,2.13,0,4.12.21,5.97.64,1.84.42,3.44,1.03,4.78,1.82l-3.49,7.05c-1.15-.71-2.4-1.24-3.75-1.6-1.35-.35-2.73-.53-4.12-.53-.93,0-1.71.09-2.34.27-.63.18-1.1.42-1.41.72-.31.3-.47.62-.47.94,0,.44.25.8.74,1.09.49.29,1.15.53,1.97.74s1.71.42,2.69.66c.97.23,1.94.52,2.91.86.97.34,1.87.79,2.69,1.35.82.56,1.48,1.27,1.97,2.13s.74,1.92.74,3.18c0,2.13-.59,4-1.76,5.6-1.18,1.6-2.85,2.85-5.02,3.75-2.17.9-4.75,1.35-7.73,1.35Z"/>
    </g>
  </g>
</svg>