<?xml version="1.0" encoding="UTF-8"?>
<svg id="_Слой_2" data-name="Слой 2" xmlns="http://www.w3.org/2000/svg" viewBox="0 0 568.13 151.56">
  <defs>
    <style>
      .cls-1 {
        fill: #fff;
      }

      .cls-1, .cls-2 {
        stroke-width: 0px;
      }

      .cls-2 {
        fill: #029df6;
      }
    </style>
  </defs>
  <g id="_Слой_2-2" data-name="Слой 2">
    <g>
      <g>
        <path class="cls-1" d="m0,87.12L17.03,1.95h45.14c10.14,0,17.76,1.76,22.87,5.29,5.11,3.53,7.67,8.54,7.67,15.03,0,5.27-1.52,9.73-4.56,13.38-3.04,3.65-7.22,6.43-12.53,8.33-5.31,1.91-11.42,2.86-18.31,2.86l3.65-6.57c8.68,0,15.51,1.72,20.5,5.17,4.99,3.45,7.48,8.29,7.48,14.54s-1.81,11.38-5.42,15.39c-3.61,4.01-8.42,6.98-14.42,8.88-6,1.91-12.65,2.86-19.95,2.86H0Zm32.24-20.08h18.49c2.84,0,5.17-.65,7-1.95,1.83-1.3,2.74-3.24,2.74-5.84,0-1.87-.71-3.26-2.13-4.2-1.42-.93-3.06-1.4-4.93-1.4h-20.44l3.77-18.98h16.55c2.19,0,3.99-.3,5.41-.91,1.42-.61,2.45-1.46,3.1-2.55.65-1.1.97-2.41.97-3.96,0-1.78-.67-3.1-2.01-3.95-1.34-.85-3.18-1.28-5.54-1.28h-13.99l-9,45.02Z"/>
        <path class="cls-1" d="m141.99,89.06c-8.84,0-16.49-1.62-22.94-4.87-6.45-3.24-11.44-7.73-14.96-13.45-3.53-5.72-5.29-12.31-5.29-19.77s1.32-14.42,3.95-20.62c2.64-6.21,6.35-11.58,11.13-16.12,4.79-4.54,10.46-8.05,17.03-10.52,6.57-2.47,13.75-3.71,21.54-3.71,8.84,0,16.49,1.62,22.94,4.87,6.45,3.25,11.44,7.73,14.96,13.44s5.29,12.31,5.29,19.77-1.32,14.42-3.95,20.62c-2.64,6.21-6.35,11.58-11.13,16.12-4.79,4.54-10.46,8.05-17.03,10.52-6.57,2.47-13.75,3.71-21.54,3.71Zm2.43-23.24c3.57,0,6.71-.69,9.43-2.07,2.72-1.38,5.05-3.28,7-5.72,1.95-2.43,3.41-5.21,4.38-8.33.97-3.12,1.46-6.43,1.46-9.92s-.67-6.22-2.01-8.7c-1.34-2.47-3.25-4.4-5.72-5.78-2.48-1.38-5.46-2.07-8.94-2.07s-6.61.69-9.37,2.07c-2.76,1.38-5.11,3.29-7.06,5.72s-3.41,5.21-4.38,8.33c-.97,3.12-1.46,6.43-1.46,9.92,0,3.25.67,6.13,2.01,8.64,1.34,2.52,3.24,4.46,5.72,5.84,2.47,1.38,5.45,2.07,8.94,2.07Z"/>
        <path class="cls-1" d="m197.23,87.12L214.26,1.95h23.6l32,51.83h-9.98l10.34-51.83h27.98l-17.03,85.17h-23.6l-32-51.83h9.98l-10.34,51.83h-27.98Z"/>
        <path class="cls-1" d="m338,89.06c-8.84,0-16.22-1.68-22.14-5.05-5.92-3.37-10.12-8.07-12.59-14.11-2.48-6.04-2.9-13.08-1.28-21.11l9.37-46.84h28.71l-9.25,46.36c-.57,3-.77,5.6-.61,7.79.16,2.19.71,4.02,1.64,5.48.93,1.46,2.21,2.54,3.83,3.22,1.62.69,3.57,1.03,5.84,1.03,2.76,0,5.13-.57,7.12-1.7,1.99-1.13,3.65-3,4.99-5.6,1.34-2.59,2.41-6,3.22-10.22l9.25-46.36h28.23l-9.61,48.06c-2.51,12.74-7.67,22.43-15.45,29.08-7.79,6.65-18.21,9.98-31.27,9.98Z"/>
        <path class="cls-1" d="m424.26,89.06c-5.03,0-9.86-.36-14.48-1.09-4.62-.73-8.82-1.76-12.59-3.1-3.77-1.34-7.04-2.82-9.79-4.44l11.07-21.17c3.16,1.79,6.35,3.27,9.55,4.44,3.2,1.18,6.41,2.05,9.61,2.62,3.2.57,6.39.85,9.55.85,2.51,0,4.6-.2,6.27-.61,1.66-.41,2.92-.99,3.77-1.76.85-.77,1.28-1.64,1.28-2.62,0-1.3-.73-2.35-2.19-3.16-1.46-.81-3.39-1.54-5.78-2.19-2.39-.65-5.03-1.32-7.91-2.01-2.88-.69-5.78-1.58-8.7-2.68s-5.58-2.49-7.97-4.2c-2.39-1.7-4.32-3.85-5.78-6.45-1.46-2.59-2.19-5.76-2.19-9.49,0-6.49,1.72-12.12,5.17-16.91,3.45-4.78,8.4-8.5,14.84-11.13,6.45-2.63,14.13-3.95,23.06-3.95,6.33,0,12.23.63,17.7,1.89,5.47,1.26,10.2,3.06,14.17,5.41l-10.34,20.93c-3.41-2.11-7.12-3.69-11.13-4.75-4.01-1.05-8.09-1.58-12.23-1.58-2.76,0-5.07.26-6.94.79-1.87.53-3.27,1.24-4.2,2.13-.93.89-1.4,1.82-1.4,2.8,0,1.3.73,2.37,2.19,3.22s3.41,1.58,5.84,2.19c2.43.61,5.09,1.26,7.97,1.95,2.88.69,5.76,1.54,8.64,2.55,2.88,1.02,5.54,2.35,7.97,4.02,2.43,1.66,4.38,3.77,5.84,6.33,1.46,2.56,2.19,5.7,2.19,9.43,0,6.33-1.75,11.86-5.23,16.61-3.49,4.75-8.46,8.46-14.91,11.13-6.45,2.68-14.09,4.01-22.93,4.01Z"/>
        <path class="cls-1" d="m3.47,150.72l6.52-32.59,4.35,4.93H2.62l1.91-9.43h18.87l-7.42,37.1H3.47Z"/>
        <path class="cls-1" d="m40.94,112.77c3.11,0,5.86.57,8.24,1.7s4.26,2.81,5.62,5.04c1.36,2.23,2.04,5,2.04,8.32,0,2.16-.29,4.36-.87,6.6-.58,2.24-1.49,4.39-2.73,6.44-1.24,2.05-2.8,3.88-4.69,5.49-1.89,1.61-4.13,2.88-6.71,3.82s-5.55,1.4-8.9,1.4c-2.3,0-4.5-.26-6.6-.77-2.1-.51-3.79-1.23-5.06-2.15l5.67-8.59c.99.67,2.03,1.14,3.13,1.41,1.09.26,2.28.4,3.55.4,1.17,0,2.23-.13,3.18-.4.95-.27,1.8-.65,2.54-1.17.74-.51,1.39-1.13,1.93-1.86.55-.72,1.01-1.54,1.38-2.44.37-.9.66-1.88.88-2.94.11-.53.18-1.05.21-1.56.04-.51.07-1.03.11-1.56l2.6,1.54c-.78,1.38-1.66,2.52-2.65,3.42-.99.9-2.07,1.58-3.23,2.04-1.17.46-2.44.69-3.82.69-2.12,0-4.11-.41-5.96-1.22-1.86-.81-3.35-2.01-4.48-3.6-1.13-1.59-1.7-3.55-1.7-5.88,0-2.9.7-5.4,2.09-7.5,1.39-2.1,3.33-3.74,5.8-4.9s5.28-1.75,8.43-1.75Zm.05,8.64c-1.1,0-2.06.37-2.89,1.11s-1.25,1.79-1.25,3.13c0,1.03.31,1.84.93,2.44.62.6,1.48.9,2.57.9.78,0,1.47-.17,2.09-.5s1.11-.82,1.48-1.46c.37-.64.56-1.36.56-2.17,0-.67-.13-1.26-.4-1.78-.27-.51-.65-.92-1.17-1.22-.51-.3-1.16-.45-1.93-.45Z"/>
        <path class="cls-1" d="m74.59,151.56c-3.07,0-5.81-.57-8.22-1.7-2.4-1.13-4.28-2.81-5.64-5.04-1.36-2.23-2.04-5-2.04-8.32,0-2.15.29-4.35.87-6.6.58-2.24,1.49-4.39,2.73-6.44,1.24-2.05,2.8-3.88,4.69-5.49,1.89-1.61,4.13-2.88,6.73-3.82,2.6-.94,5.56-1.4,8.88-1.4,2.3,0,4.5.26,6.6.77,2.1.51,3.79,1.23,5.06,2.15l-5.67,8.59c-.99-.67-2.03-1.14-3.13-1.4-1.1-.26-2.28-.4-3.55-.4-1.17,0-2.23.13-3.18.4s-1.8.65-2.54,1.17c-.74.51-1.39,1.13-1.93,1.86-.55.72-1.01,1.54-1.38,2.44s-.66,1.88-.88,2.94c-.11.53-.18,1.05-.21,1.56-.04.51-.07,1.03-.11,1.56l-2.6-1.54c.81-1.38,1.71-2.52,2.7-3.42.99-.9,2.1-1.58,3.34-2.04,1.24-.46,2.63-.69,4.19-.69,1.98,0,3.85.41,5.62,1.22,1.77.81,3.21,2.01,4.32,3.6,1.11,1.59,1.67,3.55,1.67,5.88,0,2.86-.7,5.35-2.09,7.47-1.4,2.12-3.32,3.76-5.78,4.93-2.46,1.17-5.27,1.75-8.45,1.75Zm-.05-8.64c1.13,0,2.1-.38,2.92-1.14.81-.76,1.22-1.79,1.22-3.1,0-1.02-.31-1.84-.93-2.44-.62-.6-1.48-.9-2.57-.9-.78,0-1.48.17-2.09.5-.62.34-1.11.81-1.48,1.43-.37.62-.56,1.35-.56,2.2,0,.67.13,1.26.4,1.78.27.51.66.92,1.19,1.22.53.3,1.17.45,1.91.45Z"/>
        <path class="cls-1" d="m124.15,151.56c-2.9,0-5.42-.57-7.58-1.72-2.16-1.15-3.83-2.8-5.01-4.96-1.18-2.15-1.78-4.77-1.78-7.84,0-3.5.49-6.72,1.48-9.67.99-2.95,2.39-5.52,4.19-7.71s3.93-3.89,6.39-5.09c2.46-1.2,5.13-1.8,8.03-1.8s5.42.57,7.58,1.7c2.15,1.13,3.82,2.78,5.01,4.96,1.18,2.17,1.78,4.8,1.78,7.87,0,3.5-.5,6.72-1.48,9.67-.99,2.95-2.38,5.52-4.19,7.71-1.8,2.19-3.93,3.89-6.39,5.09-2.46,1.2-5.13,1.8-8.03,1.8Zm1.27-10.02c1.09,0,2.04-.49,2.84-1.46.79-.97,1.45-2.2,1.96-3.68.51-1.48.89-3.01,1.14-4.58.25-1.57.37-2.98.37-4.21,0-1.84-.29-3.1-.87-3.79-.58-.69-1.33-1.03-2.25-1.03-1.1,0-2.04.49-2.83,1.46-.79.97-1.45,2.2-1.96,3.68-.51,1.48-.89,3.01-1.14,4.58-.25,1.57-.37,2.98-.37,4.21,0,1.84.3,3.1.9,3.79.6.69,1.34,1.03,2.23,1.03Z"/>
        <path class="cls-1" d="m160.82,151.56c-2.9,0-5.42-.57-7.58-1.72-2.16-1.15-3.83-2.8-5.01-4.96-1.18-2.15-1.78-4.77-1.78-7.84,0-3.5.49-6.72,1.48-9.67.99-2.95,2.39-5.52,4.19-7.71s3.93-3.89,6.39-5.09c2.46-1.2,5.13-1.8,8.03-1.8s5.42.57,7.58,1.7c2.15,1.13,3.82,2.78,5.01,4.96,1.18,2.17,1.78,4.8,1.78,7.87,0,3.5-.5,6.72-1.48,9.67-.99,2.95-2.38,5.52-4.19,7.71-1.8,2.19-3.93,3.89-6.39,5.09-2.46,1.2-5.13,1.8-8.03,1.8Zm1.27-10.02c1.09,0,2.04-.49,2.84-1.46.79-.97,1.45-2.2,1.96-3.68.51-1.48.89-3.01,1.14-4.58.25-1.57.37-2.98.37-4.21,0-1.84-.29-3.1-.87-3.79-.58-.69-1.33-1.03-2.25-1.03-1.1,0-2.04.49-2.83,1.46-.79.97-1.45,2.2-1.96,3.68-.51,1.48-.89,3.01-1.14,4.58-.25,1.57-.37,2.98-.37,4.21,0,1.84.3,3.1.9,3.79.6.69,1.34,1.03,2.23,1.03Z"/>
        <path class="cls-1" d="m197.5,151.56c-2.9,0-5.42-.57-7.58-1.72-2.16-1.15-3.83-2.8-5.01-4.96-1.18-2.15-1.78-4.77-1.78-7.84,0-3.5.49-6.72,1.48-9.67.99-2.95,2.39-5.52,4.19-7.71s3.93-3.89,6.39-5.09c2.46-1.2,5.13-1.8,8.03-1.8s5.42.57,7.58,1.7c2.15,1.13,3.82,2.78,5.01,4.96,1.18,2.17,1.78,4.8,1.78,7.87,0,3.5-.5,6.72-1.48,9.67-.99,2.95-2.38,5.52-4.19,7.71-1.8,2.19-3.93,3.89-6.39,5.09-2.46,1.2-5.13,1.8-8.03,1.8Zm1.27-10.02c1.09,0,2.04-.49,2.84-1.46.79-.97,1.45-2.2,1.96-3.68.51-1.48.89-3.01,1.14-4.58.25-1.57.37-2.98.37-4.21,0-1.84-.29-3.1-.87-3.79-.58-.69-1.33-1.03-2.25-1.03-1.1,0-2.04.49-2.83,1.46-.79.97-1.45,2.2-1.96,3.68-.51,1.48-.89,3.01-1.14,4.58-.25,1.57-.37,2.98-.37,4.21,0,1.84.3,3.1.9,3.79.6.69,1.34,1.03,2.23,1.03Z"/>
        <path class="cls-1" d="m233.91,150.72l7.42-37.1h16.48c4.98,0,8.83,1.08,11.53,3.23,2.7,2.16,4.05,5.18,4.05,9.06,0,3.11-.77,5.85-2.31,8.21s-3.71,4.21-6.52,5.51c-2.81,1.31-6.12,1.96-9.94,1.96h-11.98l6.68-5.46-2.92,14.58h-12.51Zm15.1-13.09l-4.4-5.67h10.65c1.73,0,3.07-.43,4.03-1.3.95-.87,1.43-2.08,1.43-3.63,0-1.34-.42-2.3-1.25-2.89-.83-.58-1.97-.88-3.42-.88h-9.7l6.68-5.83-4.03,20.19Z"/>
        <path class="cls-1" d="m272.76,150.72l7.42-37.1h12.51l-5.46,27.4h16.75l-1.96,9.7h-29.26Z"/>
        <path class="cls-1" d="m305.46,150.72l7.42-37.1h10.28l13.94,22.58h-4.35l4.5-22.58h12.19l-7.42,37.1h-10.28l-13.94-22.58h4.35l-4.5,22.58h-12.19Z"/>
        <path class="cls-1" d="m366.68,136.67l1.8-9.01h27.03l-1.8,9.01h-27.03Zm7.05,8.48l5.19-25.97h9.54l-5.19,25.97h-9.54Z"/>
        <path class="cls-1" d="m425.19,151.56c-2.65,0-5.2-.32-7.66-.95-2.46-.64-4.67-1.61-6.65-2.92l5.67-8.69c1.45.92,3.01,1.6,4.69,2.04,1.68.44,3.28.66,4.8.66,1.73,0,3.06-.27,3.97-.82s1.38-1.32,1.38-2.31c0-.78-.34-1.38-1.01-1.8-.67-.42-1.87-.64-3.6-.64h-11.29l6.36-22.52h24.64l-1.91,9.43h-20.25l7.37-5.35-3.97,14.36-5.19-5.35h7.63c4.42,0,7.83.87,10.23,2.62,2.4,1.75,3.6,4.36,3.6,7.82,0,3-.82,5.58-2.46,7.74-1.64,2.16-3.89,3.81-6.73,4.96-2.84,1.15-6.05,1.72-9.62,1.72Z"/>
        <path class="cls-1" d="m461.65,151.56c-2.9,0-5.42-.57-7.58-1.72-2.16-1.15-3.83-2.8-5.01-4.96-1.18-2.15-1.78-4.77-1.78-7.84,0-3.5.49-6.72,1.48-9.67.99-2.95,2.39-5.52,4.19-7.71s3.93-3.89,6.39-5.09c2.46-1.2,5.13-1.8,8.03-1.8s5.42.57,7.58,1.7c2.15,1.13,3.82,2.78,5.01,4.96,1.18,2.17,1.78,4.8,1.78,7.87,0,3.5-.5,6.72-1.48,9.67-.99,2.95-2.38,5.52-4.19,7.71-1.8,2.19-3.93,3.89-6.39,5.09-2.46,1.2-5.13,1.8-8.03,1.8Zm1.27-10.02c1.09,0,2.04-.49,2.84-1.46.79-.97,1.45-2.2,1.96-3.68.51-1.48.89-3.01,1.14-4.58.25-1.57.37-2.98.37-4.21,0-1.84-.29-3.1-.87-3.79-.58-.69-1.33-1.03-2.25-1.03-1.1,0-2.04.49-2.83,1.46-.79.97-1.45,2.2-1.96,3.68-.51,1.48-.89,3.01-1.14,4.58-.25,1.57-.37,2.98-.37,4.21,0,1.84.3,3.1.9,3.79.6.69,1.34,1.03,2.23,1.03Z"/>
        <path class="cls-1" d="m510.57,150.72h-12.51l7.42-37.1h30.16l-1.91,9.43h-17.65l-5.51,27.67Zm3.39-21.31h16.32l-1.91,9.43h-16.27l1.85-9.43Z"/>
        <path class="cls-1" d="m546.93,151.56c-2.19,0-4.29-.16-6.31-.48-2.01-.32-3.84-.77-5.49-1.35-1.64-.58-3.07-1.23-4.27-1.93l4.82-9.22c1.38.78,2.76,1.42,4.16,1.93,1.4.51,2.79.89,4.19,1.14,1.4.25,2.78.37,4.16.37,1.09,0,2-.09,2.73-.26.72-.18,1.27-.43,1.64-.77.37-.33.56-.72.56-1.14,0-.56-.32-1.02-.95-1.38-.64-.35-1.48-.67-2.52-.95-1.04-.28-2.19-.57-3.45-.87-1.25-.3-2.52-.69-3.79-1.17-1.27-.48-2.43-1.09-3.47-1.83-1.04-.74-1.88-1.68-2.52-2.81-.64-1.13-.95-2.51-.95-4.13,0-2.83.75-5.28,2.25-7.37,1.5-2.08,3.66-3.7,6.47-4.85,2.81-1.15,6.16-1.72,10.04-1.72,2.76,0,5.33.27,7.71.82,2.39.55,4.44,1.33,6.17,2.36l-4.5,9.12c-1.48-.92-3.1-1.61-4.85-2.07s-3.52-.69-5.33-.69c-1.2,0-2.21.12-3.02.34-.81.23-1.42.54-1.83.93-.41.39-.61.79-.61,1.22,0,.57.32,1.03.95,1.4.64.37,1.48.69,2.54.95,1.06.26,2.22.55,3.47.85,1.25.3,2.51.67,3.76,1.11,1.25.44,2.41,1.03,3.47,1.75,1.06.72,1.91,1.64,2.54,2.76.64,1.11.95,2.48.95,4.11,0,2.76-.76,5.17-2.28,7.23-1.52,2.07-3.68,3.68-6.49,4.85-2.81,1.17-6.14,1.75-9.99,1.75Z"/>
      </g>
      <g>
        <path class="cls-2" d="m484.49,83.31l6.6-33.02h14.91c3.49,0,6.49.57,9.01,1.7,2.52,1.13,4.45,2.74,5.8,4.83,1.35,2.09,2.03,4.58,2.03,7.48s-.51,5.55-1.53,7.88c-1.02,2.33-2.45,4.33-4.29,5.99-1.84,1.67-4.02,2.94-6.53,3.82-2.52.88-5.28,1.32-8.3,1.32h-17.69Zm12.88-8.68h5.19c1.98,0,3.64-.43,4.98-1.3,1.34-.86,2.35-2.03,3.04-3.49.69-1.46,1.04-3.09,1.04-4.88,0-1.29-.26-2.37-.78-3.25s-1.29-1.56-2.31-2.03c-1.02-.47-2.29-.71-3.8-.71h-4.25l-3.11,15.66Z"/>
        <path class="cls-2" d="m542.04,84.07c-3.43,0-6.39-.63-8.89-1.89s-4.43-3-5.8-5.21c-1.37-2.22-2.05-4.77-2.05-7.67s.51-5.59,1.53-8c1.02-2.41,2.46-4.49,4.32-6.25,1.86-1.76,4.06-3.12,6.6-4.08,2.55-.96,5.33-1.44,8.35-1.44,3.43,0,6.39.63,8.89,1.89s4.43,2.99,5.8,5.21c1.37,2.22,2.05,4.77,2.05,7.67s-.51,5.59-1.53,8c-1.02,2.41-2.46,4.49-4.32,6.25-1.86,1.76-4.06,3.12-6.6,4.08-2.55.96-5.33,1.44-8.35,1.44Zm.94-9.01c1.38,0,2.6-.27,3.66-.8,1.05-.53,1.96-1.27,2.71-2.22s1.32-2.02,1.7-3.23c.38-1.21.57-2.49.57-3.85s-.26-2.41-.78-3.37c-.52-.96-1.26-1.71-2.22-2.24-.96-.53-2.12-.8-3.47-.8s-2.56.27-3.63.8c-1.07.54-1.98,1.27-2.74,2.22-.75.94-1.32,2.02-1.7,3.23-.38,1.21-.57,2.49-.57,3.84,0,1.26.26,2.38.78,3.35s1.26,1.73,2.22,2.26c.96.54,2.12.8,3.47.8Z"/>
      </g>
    </g>
  </g>
</svg>