<?xml version="1.0" encoding="UTF-8"?>
<svg id="_Слой_2" data-name="Слой 2" xmlns="http://www.w3.org/2000/svg" viewBox="0 0 564.97 72.82">
  <defs>
    <style>
      .cls-1 {
        fill: #fff;
      }

      .cls-1, .cls-2 {
        stroke-width: 0px;
      }

      .cls-2 {
        fill: #029df6;
      }
    </style>
  </defs>
  <g id="_Слой_2-2" data-name="Слой 2">
    <g>
      <path class="cls-1" d="m1.66,30.26L6.37,7.16h12.49c2.8,0,4.91.48,6.33,1.44s2.12,2.32,2.12,4.08c0,1.43-.42,2.64-1.26,3.63-.84.99-2,1.74-3.47,2.26-1.47.52-3.16.78-5.07.78l1.01-1.78c2.4,0,4.29.47,5.67,1.4,1.38.94,2.07,2.25,2.07,3.94s-.5,3.09-1.5,4.17-2.33,1.89-3.99,2.41c-1.66.52-3.5.78-5.52.78H1.66Zm8.92-5.44h5.12c.79,0,1.43-.18,1.94-.53.5-.35.76-.88.76-1.58,0-.51-.2-.89-.59-1.14-.39-.25-.85-.38-1.36-.38h-5.66l1.04-5.15h4.58c.61,0,1.1-.08,1.5-.25s.68-.4.86-.69c.18-.3.27-.65.27-1.07,0-.48-.19-.84-.56-1.07-.37-.23-.88-.35-1.53-.35h-3.87l-2.49,12.21Z"/>
      <path class="cls-1" d="m40.94,30.79c-2.45,0-4.56-.44-6.35-1.32-1.78-.88-3.16-2.1-4.14-3.65s-1.46-3.34-1.46-5.36.36-3.91,1.09-5.59c.73-1.68,1.76-3.14,3.08-4.37,1.32-1.23,2.9-2.18,4.71-2.85,1.82-.67,3.8-1.01,5.96-1.01,2.45,0,4.56.44,6.34,1.32,1.78.88,3.16,2.1,4.14,3.65.98,1.55,1.46,3.34,1.46,5.36s-.36,3.91-1.09,5.59c-.73,1.68-1.76,3.14-3.08,4.37-1.32,1.23-2.89,2.18-4.71,2.85-1.82.67-3.8,1.01-5.96,1.01Zm.67-6.3c.99,0,1.86-.19,2.61-.56.75-.37,1.4-.89,1.94-1.55.54-.66.94-1.41,1.21-2.26.27-.85.4-1.74.4-2.69s-.19-1.69-.56-2.36-.9-1.19-1.58-1.57c-.68-.37-1.51-.56-2.47-.56s-1.83.19-2.59.56c-.76.37-1.41.89-1.95,1.55-.54.66-.94,1.41-1.21,2.26-.27.85-.4,1.74-.4,2.69,0,.88.19,1.66.56,2.34.37.68.9,1.21,1.58,1.58.68.37,1.51.56,2.47.56Z"/>
      <path class="cls-1" d="m56.22,30.26l4.71-23.1h6.53l8.85,14.06h-2.76l2.86-14.06h7.74l-4.71,23.1h-6.53l-8.85-14.06h2.76l-2.86,14.06h-7.74Z"/>
      <path class="cls-1" d="m83.29,30.26l4.71-23.1h7.94l-4.71,23.1h-7.94Z"/>
      <path class="cls-1" d="m103.01,30.26h-7.94l4.71-23.1h19.15l-1.21,5.87h-11.21l-3.5,17.23Zm2.15-13.27h10.37l-1.21,5.87h-10.33l1.18-5.87Z"/>
      <path class="cls-1" d="m116.74,30.26l4.71-23.1h7.94l-4.71,23.1h-7.94Z"/>
      <path class="cls-1" d="m141.92,30.79c-2.42,0-4.54-.43-6.36-1.3-1.82-.87-3.23-2.08-4.22-3.63-1-1.55-1.5-3.35-1.5-5.4s.36-3.88,1.09-5.58c.73-1.69,1.76-3.16,3.08-4.39,1.32-1.23,2.9-2.18,4.71-2.85,1.82-.67,3.81-1.01,5.99-1.01s4.27.4,6.02,1.19c1.75.79,3.05,1.94,3.9,3.43l-5.72,4.39c-.49-.86-1.13-1.52-1.92-2-.79-.47-1.72-.71-2.79-.71-.94,0-1.8.17-2.58.51-.77.34-1.44.83-2,1.45-.56.63-1,1.37-1.31,2.23-.31.86-.47,1.8-.47,2.84,0,.9.2,1.69.61,2.38.4.68.97,1.21,1.7,1.58.73.37,1.58.56,2.54.56s1.82-.21,2.71-.63c.89-.42,1.73-1.1,2.54-2.05l4.68,4.39c-1.44,1.72-3.04,2.91-4.8,3.58s-3.73,1.01-5.91,1.01Z"/>
      <path class="cls-1" d="m150.67,30.26l15.01-23.1h7.81l5.59,23.1h-7.91l-3.8-19.5h3.1l-11.41,19.5h-8.38Zm6.93-4.03l3.16-5.61h10.84l.88,5.61h-14.88Z"/>
      <path class="cls-1" d="m193.42,30.79c-2.42,0-4.54-.43-6.36-1.3-1.82-.87-3.23-2.08-4.22-3.63-1-1.55-1.5-3.35-1.5-5.4s.36-3.88,1.09-5.58c.73-1.69,1.76-3.16,3.08-4.39,1.32-1.23,2.9-2.18,4.71-2.85,1.82-.67,3.81-1.01,5.99-1.01s4.27.4,6.02,1.19c1.75.79,3.05,1.94,3.9,3.43l-5.72,4.39c-.49-.86-1.13-1.52-1.92-2-.79-.47-1.72-.71-2.79-.71-.94,0-1.8.17-2.58.51-.77.34-1.44.83-2,1.45-.56.63-1,1.37-1.31,2.23-.31.86-.47,1.8-.47,2.84,0,.9.2,1.69.61,2.38.4.68.97,1.21,1.7,1.58.73.37,1.58.56,2.54.56s1.82-.21,2.71-.63c.89-.42,1.73-1.1,2.54-2.05l4.68,4.39c-1.44,1.72-3.04,2.91-4.8,3.58s-3.73,1.01-5.91,1.01Z"/>
      <path class="cls-1" d="m205.07,30.26l4.71-23.1h7.94l-4.71,23.1h-7.94Z"/>
      <path class="cls-1" d="m230.11,30.79c-2.45,0-4.56-.44-6.35-1.32-1.78-.88-3.16-2.1-4.14-3.65s-1.46-3.34-1.46-5.36.36-3.91,1.09-5.59c.73-1.68,1.76-3.14,3.08-4.37,1.32-1.23,2.9-2.18,4.71-2.85,1.82-.67,3.8-1.01,5.96-1.01,2.45,0,4.56.44,6.34,1.32,1.78.88,3.16,2.1,4.14,3.65.98,1.55,1.46,3.34,1.46,5.36s-.36,3.91-1.09,5.59c-.73,1.68-1.76,3.14-3.08,4.37-1.32,1.23-2.89,2.18-4.71,2.85-1.82.67-3.8,1.01-5.96,1.01Zm.67-6.3c.99,0,1.86-.19,2.61-.56.75-.37,1.4-.89,1.94-1.55.54-.66.94-1.41,1.21-2.26.27-.85.4-1.74.4-2.69s-.19-1.69-.56-2.36-.9-1.19-1.58-1.57c-.68-.37-1.51-.56-2.47-.56s-1.83.19-2.59.56c-.76.37-1.41.89-1.95,1.55-.54.66-.94,1.41-1.21,2.26-.27.85-.4,1.74-.4,2.69,0,.88.19,1.66.56,2.34.37.68.9,1.21,1.58,1.58.68.37,1.51.56,2.47.56Zm-.13-19.21l5.05-5.28h7.44l-7.24,5.28h-5.25Z"/>
      <path class="cls-1" d="m245.39,30.26l4.71-23.1h6.53l8.85,14.06h-2.76l2.86-14.06h7.74l-4.71,23.1h-6.53l-8.85-14.06h2.76l-2.86,14.06h-7.74Z"/>
      <path class="cls-1" d="m272.45,30.26l4.71-23.1h10.64c2.49,0,4.63.4,6.43,1.19,1.79.79,3.17,1.92,4.14,3.38.96,1.46,1.45,3.21,1.45,5.23s-.36,3.88-1.09,5.51c-.73,1.63-1.75,3.03-3.06,4.19-1.31,1.17-2.87,2.06-4.66,2.67-1.79.62-3.77.92-5.92.92h-12.62Zm9.19-6.07h3.7c1.41,0,2.6-.3,3.55-.91.95-.6,1.68-1.42,2.17-2.44.49-1.02.74-2.16.74-3.42,0-.9-.19-1.66-.56-2.28-.37-.62-.92-1.09-1.65-1.42-.73-.33-1.63-.49-2.71-.49h-3.03l-2.22,10.96Z"/>
      <path class="cls-1" d="m309.25,24.39h11.81l-1.21,5.87h-19.59l4.71-23.1h19.15l-1.21,5.87h-11.34l-2.32,11.35Zm1.24-8.65h10.5l-1.14,5.61h-10.5l1.14-5.61Z"/>
      <path class="cls-1" d="m333.01,30.26l4.71-23.1h12.49c2.8,0,4.91.48,6.33,1.44s2.12,2.32,2.12,4.08c0,1.43-.42,2.64-1.26,3.63-.84.99-2,1.74-3.47,2.26-1.47.52-3.16.78-5.07.78l1.01-1.78c2.4,0,4.29.47,5.67,1.4,1.38.94,2.07,2.25,2.07,3.94s-.5,3.09-1.5,4.17c-1,1.09-2.33,1.89-3.99,2.41-1.66.52-3.5.78-5.52.78h-13.6Zm8.92-5.44h5.12c.79,0,1.43-.18,1.94-.53.51-.35.76-.88.76-1.58,0-.51-.2-.89-.59-1.14s-.85-.38-1.36-.38h-5.65l1.04-5.15h4.58c.61,0,1.11-.08,1.5-.25s.68-.4.86-.69c.18-.3.27-.65.27-1.07,0-.48-.18-.84-.55-1.07s-.88-.35-1.53-.35h-3.87l-2.49,12.21Z"/>
      <path class="cls-1" d="m359.03,30.26l4.71-23.1h7.95l-4.71,23.1h-7.94Z"/>
      <path class="cls-1" d="m379.8,24.39h11.81l-1.21,5.87h-19.59l4.71-23.1h19.15l-1.21,5.87h-11.34l-2.32,11.35Zm1.25-8.65h10.5l-1.14,5.61h-10.5l1.14-5.61Z"/>
      <path class="cls-1" d="m393.46,30.26l4.71-23.1h6.53l8.85,14.06h-2.76l2.86-14.06h7.74l-4.71,23.1h-6.53l-8.85-14.06h2.76l-2.86,14.06h-7.74Z"/>
      <path class="cls-1" d="m427.93,30.26l-5.25-23.1h8.15l4.24,19.57h-5.18l12.39-19.57h8.15l-14.68,23.1h-7.81Z"/>
      <path class="cls-1" d="m455.46,24.39h11.81l-1.21,5.87h-19.59l4.71-23.1h19.15l-1.21,5.87h-11.34l-2.32,11.35Zm1.24-8.65h10.5l-1.14,5.61h-10.5l1.14-5.61Z"/>
      <path class="cls-1" d="m469.13,30.26l4.71-23.1h6.53l8.85,14.06h-2.76l2.86-14.06h7.74l-4.71,23.1h-6.53l-8.85-14.06h2.76l-2.86,14.06h-7.74Z"/>
      <path class="cls-1" d="m496.19,30.26l4.71-23.1h7.95l-4.71,23.1h-7.94Z"/>
      <path class="cls-1" d="m507.97,30.26l4.71-23.1h10.64c2.49,0,4.63.4,6.43,1.19s3.18,1.92,4.14,3.38c.96,1.46,1.45,3.21,1.45,5.23s-.37,3.88-1.09,5.51c-.73,1.63-1.75,3.03-3.06,4.19-1.31,1.17-2.87,2.06-4.66,2.67-1.8.62-3.77.92-5.93.92h-12.62Zm9.19-6.07h3.7c1.41,0,2.6-.3,3.55-.91.96-.6,1.68-1.42,2.17-2.44s.74-2.16.74-3.42c0-.9-.19-1.66-.55-2.28-.37-.62-.92-1.09-1.65-1.42-.73-.33-1.63-.49-2.71-.49h-3.03l-2.22,10.96Z"/>
      <path class="cls-1" d="m532.88,30.26l15.01-23.1h7.81l5.59,23.1h-7.91l-3.8-19.5h3.1l-11.41,19.5h-8.38Zm6.93-4.03l3.16-5.61h10.84l.88,5.61h-14.88Z"/>
      <path class="cls-2" d="m0,72.26l4.9-24.5h11.06c2.59,0,4.82.42,6.69,1.26s3.3,2.04,4.31,3.59c1,1.55,1.5,3.4,1.5,5.55s-.38,4.12-1.14,5.85c-.76,1.73-1.82,3.21-3.19,4.44-1.37,1.24-2.98,2.18-4.85,2.83-1.87.65-3.92.98-6.16.98H0Zm9.56-6.44h3.85c1.47,0,2.7-.32,3.69-.96.99-.64,1.74-1.5,2.26-2.59s.77-2.29.77-3.62c0-.96-.19-1.76-.58-2.42-.39-.65-.96-1.15-1.72-1.5-.76-.35-1.7-.52-2.82-.52h-3.15l-2.31,11.62Z"/>
      <path class="cls-2" d="m38.26,66.03h12.29l-1.26,6.23h-20.37l4.9-24.5h19.91l-1.26,6.23h-11.79l-2.42,12.04Zm1.29-9.17h10.92l-1.19,5.95h-10.92l1.19-5.95Z"/>
      <path class="cls-2" d="m71.23,72.26h-8.26l4.9-24.5h8.26l-4.9,24.5Zm9.98-9.03h-8.72l1.37-6.79h8.71l-1.36,6.79Zm2.55-15.47h8.26l-4.9,24.5h-8.26l4.9-24.5Z"/>
      <path class="cls-2" d="m88.45,72.26l15.61-24.5h8.12l5.81,24.5h-8.23l-3.96-20.68h3.22l-11.87,20.68h-8.71Zm7.21-4.27l3.29-5.95h11.27l.91,5.95h-15.47Z"/>
      <path class="cls-2" d="m129.04,72.82c-1.45,0-2.83-.1-4.17-.31-1.33-.21-2.54-.51-3.62-.89s-2.02-.81-2.82-1.28l3.19-6.09c.91.51,1.83.94,2.75,1.28.92.34,1.84.59,2.77.75.92.16,1.84.25,2.75.25.72,0,1.32-.06,1.8-.17.48-.12.84-.29,1.08-.51.25-.22.37-.47.37-.75,0-.37-.21-.68-.63-.91s-.97-.44-1.66-.63c-.69-.19-1.45-.38-2.27-.58-.83-.2-1.66-.45-2.5-.77-.84-.32-1.6-.72-2.29-1.21-.69-.49-1.24-1.11-1.66-1.86-.42-.75-.63-1.66-.63-2.73,0-1.87.5-3.49,1.49-4.86.99-1.38,2.42-2.44,4.27-3.2,1.85-.76,4.07-1.14,6.63-1.14,1.82,0,3.52.18,5.09.54,1.57.36,2.93.88,4.08,1.56l-2.97,6.02c-.98-.61-2.05-1.06-3.2-1.36-1.16-.3-2.33-.46-3.52-.46-.79,0-1.46.08-2,.23-.54.15-.94.36-1.21.61-.27.26-.4.53-.4.8,0,.37.21.68.63.93s.98.46,1.68.63c.7.17,1.46.36,2.29.56.83.2,1.66.44,2.48.73.83.29,1.59.68,2.29,1.16.7.48,1.26,1.08,1.68,1.82.42.73.63,1.64.63,2.71,0,1.82-.5,3.41-1.5,4.78-1,1.37-2.43,2.43-4.29,3.2-1.85.77-4.05,1.15-6.6,1.15Z"/>
      <path class="cls-2" d="m147.28,72.26l3.6-18.09h-7.18l1.3-6.41h22.61l-1.29,6.41h-7.18l-3.6,18.09h-8.26Z"/>
      <path class="cls-2" d="m160.97,72.26l15.61-24.5h8.12l5.81,24.5h-8.23l-3.96-20.68h3.22l-11.87,20.68h-8.71Zm7.21-4.27l3.29-5.95h11.27l.91,5.95h-15.47Z"/>
      <path class="cls-1" d="m201.99,68.06l1.05-5.25,13.12-15.05h8.75l-12.74,15.05-3.88-1.16h18.97l-1.3,6.41h-23.97Zm11.86,4.2l.84-4.2,1.68-6.41.73-3.74h7.63l-2.87,14.35h-8.02Z"/>
      <path class="cls-1" d="m235.52,72.82c-1.75,0-3.44-.21-5.06-.63-1.62-.42-3.09-1.06-4.39-1.92l3.75-5.74c.96.61,1.99,1.06,3.1,1.35,1.11.29,2.16.44,3.17.44,1.14,0,2.02-.18,2.62-.54.61-.36.91-.87.91-1.52,0-.51-.22-.91-.67-1.19s-1.24-.42-2.38-.42h-7.46l4.2-14.88h16.27l-1.26,6.23h-13.37l4.86-3.54-2.62,9.48-3.43-3.54h5.04c2.92,0,5.17.58,6.75,1.73,1.59,1.15,2.38,2.88,2.38,5.16,0,1.98-.54,3.69-1.63,5.11-1.08,1.42-2.57,2.51-4.44,3.27-1.88.76-4,1.14-6.35,1.14Z"/>
      <path class="cls-1" d="m270.1,72.82c-1.91,0-3.58-.38-5-1.14-1.42-.76-2.53-1.85-3.31-3.27-.78-1.42-1.17-3.15-1.17-5.18,0-2.31.33-4.44.98-6.39.65-1.95,1.57-3.64,2.76-5.09,1.19-1.45,2.6-2.57,4.22-3.36,1.62-.79,3.39-1.19,5.3-1.19s3.58.37,5.01,1.12c1.42.75,2.53,1.84,3.31,3.27.78,1.44,1.17,3.17,1.17,5.2,0,2.31-.33,4.44-.98,6.39-.65,1.95-1.58,3.65-2.77,5.09-1.19,1.45-2.6,2.57-4.22,3.36-1.62.79-3.39,1.19-5.3,1.19Zm.84-6.61c.72,0,1.35-.32,1.87-.96.52-.64.96-1.45,1.29-2.43.34-.98.59-1.99.75-3.03.16-1.04.25-1.97.25-2.78,0-1.21-.19-2.05-.58-2.5s-.88-.68-1.49-.68c-.72,0-1.35.32-1.87.96s-.96,1.45-1.29,2.43c-.34.98-.59,1.99-.75,3.03s-.24,1.97-.24,2.78c0,1.21.2,2.05.6,2.5.4.46.89.68,1.47.68Z"/>
      <path class="cls-1" d="m294.32,72.82c-1.91,0-3.58-.38-5.01-1.14-1.42-.76-2.53-1.85-3.31-3.27-.78-1.42-1.17-3.15-1.17-5.18,0-2.31.33-4.44.98-6.39.65-1.95,1.58-3.64,2.77-5.09,1.19-1.45,2.6-2.57,4.22-3.36,1.62-.79,3.39-1.19,5.3-1.19s3.58.37,5.01,1.12c1.42.75,2.53,1.84,3.31,3.27.78,1.44,1.17,3.17,1.17,5.2,0,2.31-.33,4.44-.98,6.39-.65,1.95-1.58,3.65-2.77,5.09-1.19,1.45-2.6,2.57-4.22,3.36-1.62.79-3.39,1.19-5.3,1.19Zm.84-6.61c.72,0,1.35-.32,1.87-.96.53-.64.96-1.45,1.3-2.43.34-.98.59-1.99.75-3.03.16-1.04.24-1.97.24-2.78,0-1.21-.19-2.05-.58-2.5-.39-.46-.88-.68-1.49-.68-.72,0-1.35.32-1.87.96s-.96,1.45-1.29,2.43c-.34.98-.59,1.99-.75,3.03-.16,1.04-.25,1.97-.25,2.78,0,1.21.2,2.05.6,2.5s.89.68,1.47.68Z"/>
      <path class="cls-1" d="m318.53,72.82c-1.91,0-3.58-.38-5-1.14-1.42-.76-2.53-1.85-3.31-3.27-.78-1.42-1.17-3.15-1.17-5.18,0-2.31.33-4.44.98-6.39.65-1.95,1.57-3.64,2.76-5.09,1.19-1.45,2.6-2.57,4.22-3.36,1.62-.79,3.39-1.19,5.3-1.19s3.58.37,5,1.12c1.42.75,2.53,1.84,3.31,3.27.78,1.44,1.17,3.17,1.17,5.2,0,2.31-.33,4.44-.98,6.39s-1.57,3.65-2.77,5.09c-1.19,1.45-2.6,2.57-4.22,3.36s-3.39,1.19-5.3,1.19Zm.84-6.61c.72,0,1.35-.32,1.87-.96.53-.64.96-1.45,1.29-2.43.34-.98.59-1.99.75-3.03.16-1.04.25-1.97.25-2.78,0-1.21-.19-2.05-.58-2.5s-.88-.68-1.49-.68c-.72,0-1.35.32-1.87.96s-.96,1.45-1.29,2.43c-.34.98-.59,1.99-.75,3.03-.16,1.04-.24,1.97-.24,2.78,0,1.21.2,2.05.6,2.5.4.46.89.68,1.47.68Z"/>
      <path class="cls-1" d="m351.93,66.03h12.29l-1.26,6.23h-20.37l4.9-24.5h19.91l-1.26,6.23h-11.79l-2.41,12.04Zm1.29-9.17h10.92l-1.19,5.95h-10.92l1.19-5.95Z"/>
      <path class="cls-1" d="m378.49,72.82c-2.54,0-4.67-.48-6.37-1.45s-2.91-2.32-3.62-4.06-.83-3.76-.37-6.07l2.7-13.47h8.26l-2.66,13.33c-.16.86-.22,1.61-.18,2.24s.21,1.16.47,1.58c.27.42.64.73,1.1.93.47.2,1.03.3,1.68.3.79,0,1.47-.16,2.05-.49.57-.33,1.05-.86,1.44-1.61s.69-1.73.93-2.94l2.66-13.33h8.12l-2.76,13.83c-.72,3.66-2.21,6.45-4.45,8.37s-5.24,2.87-9,2.87Z"/>
      <path class="cls-1" d="m393.58,72.26l4.9-24.5h10.99c3.24,0,5.75.71,7.53,2.12,1.77,1.41,2.66,3.39,2.66,5.93,0,2.05-.51,3.85-1.52,5.39-1.01,1.54-2.45,2.74-4.3,3.6-1.85.86-4.04,1.29-6.56,1.29h-7.91l4.41-3.46-1.92,9.62h-8.26Zm9.97-8.64l-2.91-3.75h7.04c1.14,0,2.03-.29,2.66-.86.63-.57.95-1.37.95-2.4,0-.89-.27-1.52-.82-1.91s-1.3-.58-2.26-.58h-6.4l4.41-3.85-2.66,13.34Zm5,8.64l-5.04-8.92h8.5l5.11,8.92h-8.58Z"/>
      <path class="cls-1" d="m431.94,62.99l1.19-5.95h17.85l-1.19,5.95h-17.85Zm4.65,5.6l3.43-17.15h6.3l-3.43,17.15h-6.3Z"/>
      <path class="cls-1" d="m470.58,72.82c-1.75,0-3.44-.21-5.06-.63s-3.09-1.06-4.39-1.92l3.75-5.74c.96.61,1.99,1.06,3.1,1.35,1.11.29,2.16.44,3.17.44,1.14,0,2.02-.18,2.62-.54.61-.36.91-.87.91-1.52,0-.51-.22-.91-.66-1.19s-1.24-.42-2.38-.42h-7.46l4.2-14.88h16.28l-1.26,6.23h-13.37l4.87-3.54-2.62,9.48-3.43-3.54h5.04c2.92,0,5.17.58,6.76,1.73,1.59,1.15,2.38,2.88,2.38,5.16,0,1.98-.54,3.69-1.63,5.11-1.08,1.42-2.57,2.51-4.45,3.27-1.88.76-4,1.14-6.35,1.14Z"/>
      <path class="cls-1" d="m494.66,72.82c-1.91,0-3.58-.38-5.01-1.14-1.42-.76-2.53-1.85-3.31-3.27-.78-1.42-1.17-3.15-1.17-5.18,0-2.31.33-4.44.98-6.39.65-1.95,1.58-3.64,2.77-5.09,1.19-1.45,2.6-2.57,4.22-3.36,1.62-.79,3.39-1.19,5.3-1.19s3.58.37,5.01,1.12c1.42.75,2.53,1.84,3.31,3.27.78,1.44,1.17,3.17,1.17,5.2,0,2.31-.33,4.44-.98,6.39-.65,1.95-1.58,3.65-2.77,5.09-1.19,1.45-2.6,2.57-4.22,3.36-1.62.79-3.39,1.19-5.3,1.19Zm.84-6.61c.72,0,1.35-.32,1.87-.96.53-.64.96-1.45,1.3-2.43.34-.98.59-1.99.75-3.03.16-1.04.24-1.97.24-2.78,0-1.21-.19-2.05-.58-2.5-.39-.46-.88-.68-1.49-.68-.72,0-1.35.32-1.87.96s-.96,1.45-1.29,2.43c-.34.98-.59,1.99-.75,3.03-.16,1.04-.25,1.97-.25,2.78,0,1.21.2,2.05.6,2.5s.89.68,1.47.68Z"/>
      <path class="cls-1" d="m526.96,72.26h-8.26l4.9-24.5h19.92l-1.26,6.23h-11.66l-3.64,18.27Zm2.24-14.07h10.78l-1.26,6.23h-10.75l1.23-6.23Z"/>
      <path class="cls-1" d="m550.97,72.82c-1.45,0-2.84-.1-4.17-.31s-2.54-.51-3.62-.89c-1.09-.38-2.03-.81-2.82-1.28l3.19-6.09c.91.51,1.82.94,2.75,1.28.92.34,1.84.59,2.76.75.92.16,1.84.25,2.75.25.72,0,1.32-.06,1.8-.17.48-.12.84-.29,1.08-.51.25-.22.37-.47.37-.75,0-.37-.21-.68-.63-.91s-.97-.44-1.66-.63c-.69-.19-1.45-.38-2.28-.58-.83-.2-1.66-.45-2.5-.77s-1.61-.72-2.29-1.21c-.69-.49-1.24-1.11-1.66-1.86-.42-.75-.63-1.66-.63-2.73,0-1.87.5-3.49,1.49-4.86.99-1.38,2.41-2.44,4.27-3.2,1.86-.76,4.06-1.14,6.63-1.14,1.82,0,3.52.18,5.09.54,1.58.36,2.93.88,4.08,1.56l-2.97,6.02c-.98-.61-2.05-1.06-3.2-1.36-1.15-.3-2.33-.46-3.52-.46-.79,0-1.46.08-1.99.23-.54.15-.94.36-1.21.61-.27.26-.4.53-.4.8,0,.37.21.68.63.93s.98.46,1.68.63,1.46.36,2.29.56,1.66.44,2.48.73c.83.29,1.59.68,2.29,1.16.7.48,1.26,1.08,1.68,1.82.42.73.63,1.64.63,2.71,0,1.82-.5,3.41-1.51,4.78-1,1.37-2.43,2.43-4.29,3.2-1.86.77-4.05,1.15-6.6,1.15Z"/>
    </g>
  </g>
</svg>