<?xml version="1.0" encoding="UTF-8"?>
<svg id="_Слой_2" data-name="Слой 2" xmlns="http://www.w3.org/2000/svg" viewBox="0 0 565.12 152.88">
  <defs>
    <style>
      .cls-1 {
        fill: #fff;
      }

      .cls-1, .cls-2 {
        stroke-width: 0px;
      }

      .cls-2 {
        fill: #029df6;
      }
    </style>
  </defs>
  <g id="_Слой_2-2" data-name="Слой 2">
    <g>
      <g>
        <path class="cls-1" d="m1.28,87.12L18.32,1.95h73.85l-4.38,21.66h-45.63l-1.95,9.86h20.32c8.84,0,15.67,2.01,20.5,6.02,4.83,4.02,7.24,9.75,7.24,17.22,0,6.25-1.7,11.64-5.11,16.18-3.41,4.54-8.25,8.05-14.54,10.52-6.29,2.48-13.77,3.71-22.45,3.71H1.28Zm32.24-20.08h14.72c3.24,0,5.82-.73,7.73-2.19,1.91-1.46,2.86-3.41,2.86-5.84,0-1.86-.65-3.26-1.95-4.2-1.3-.93-3.29-1.4-5.96-1.4h-14.72l-2.68,13.63Z"/>
        <path class="cls-1" d="m139.38,89.06c-8.84,0-16.49-1.62-22.93-4.87-6.45-3.24-11.44-7.73-14.97-13.44-3.53-5.72-5.29-12.31-5.29-19.77s1.32-14.42,3.96-20.62c2.63-6.21,6.35-11.58,11.13-16.12,4.78-4.54,10.46-8.05,17.03-10.52,6.57-2.47,13.75-3.71,21.54-3.71,8.84,0,16.49,1.62,22.93,4.87,6.45,3.25,11.44,7.73,14.96,13.44,3.53,5.72,5.29,12.31,5.29,19.77s-1.32,14.42-3.95,20.62c-2.64,6.21-6.35,11.58-11.13,16.12-4.79,4.54-10.46,8.05-17.03,10.52s-13.75,3.71-21.54,3.71Zm2.43-23.24c3.57,0,6.71-.69,9.43-2.07,2.72-1.38,5.05-3.28,7-5.72,1.95-2.43,3.41-5.21,4.38-8.33.97-3.12,1.46-6.43,1.46-9.92s-.67-6.22-2.01-8.7c-1.34-2.47-3.25-4.4-5.72-5.78-2.47-1.38-5.46-2.07-8.94-2.07s-6.61.69-9.37,2.07c-2.76,1.38-5.11,3.29-7.06,5.72-1.95,2.43-3.41,5.21-4.38,8.33-.97,3.12-1.46,6.43-1.46,9.92,0,3.25.67,6.13,2.01,8.64,1.34,2.52,3.24,4.46,5.72,5.84,2.47,1.38,5.45,2.07,8.94,2.07Z"/>
        <path class="cls-1" d="m223.45,87.12h-28.71L211.77,1.95h28.71l-17.03,85.17Zm34.68-31.39h-30.3l4.75-23.6h30.3l-4.75,23.6Zm8.88-53.78h28.71l-17.03,85.17h-28.71L267.01,1.95Z"/>
        <path class="cls-1" d="m303.63,65.22c3.24.89,6.06,1.28,8.46,1.16,2.39-.12,4.58-.71,6.57-1.76,1.99-1.05,3.83-2.6,5.54-4.62l5.23-4.87,3.04-2.68L367.63,1.95h28.35l-47.09,65.09c-5.11,6.98-10.61,12.29-16.49,15.94-5.88,3.65-12.03,5.66-18.43,6.02-6.41.37-12.9-.87-19.47-3.71l9.12-20.08Zm25.31,9.73L303.51,1.95h29.69l14.6,53.17-18.86,19.83Z"/>
        <path class="cls-1" d="m431.27,89.06c-8.76,0-16.42-1.6-23-4.81s-11.66-7.67-15.27-13.38c-3.61-5.72-5.42-12.35-5.42-19.89s1.32-14.31,3.96-20.56c2.63-6.25,6.35-11.64,11.13-16.18,4.78-4.54,10.46-8.05,17.03-10.52,6.57-2.47,13.79-3.71,21.66-3.71s15.45,1.46,21.78,4.38c6.33,2.92,11.03,7.14,14.11,12.65l-20.68,16.18c-1.79-3.16-4.1-5.62-6.94-7.36-2.84-1.74-6.21-2.62-10.1-2.62-3.41,0-6.51.63-9.31,1.89-2.8,1.26-5.21,3.04-7.24,5.35-2.03,2.31-3.61,5.05-4.75,8.21-1.14,3.16-1.7,6.65-1.7,10.46,0,3.33.73,6.25,2.19,8.76,1.46,2.52,3.51,4.46,6.14,5.84,2.63,1.38,5.7,2.07,9.19,2.07s6.59-.77,9.79-2.31c3.2-1.54,6.27-4.06,9.19-7.54l16.91,16.18c-5.19,6.33-10.97,10.73-17.34,13.2-6.37,2.47-13.49,3.71-21.35,3.71Z"/>
        <path class="cls-1" d="m0,145.52l1.62-8.11,20.28-23.25h13.52l-19.69,23.25-6-1.79h29.31l-2,9.9H0Zm18.33,6.49l1.3-6.49,2.6-9.9,1.14-5.79h11.79l-4.43,22.17h-12.38Z"/>
        <path class="cls-1" d="m51.81,152.88c-2.7,0-5.31-.32-7.81-.97-2.51-.65-4.77-1.64-6.79-2.97l5.79-8.87c1.48.94,3.07,1.63,4.79,2.08,1.71.45,3.34.68,4.89.68,1.77,0,3.12-.28,4.06-.84.94-.56,1.41-1.34,1.41-2.35,0-.79-.34-1.41-1.03-1.84-.69-.43-1.91-.65-3.68-.65h-11.52l6.49-22.98h25.15l-1.95,9.63h-20.66l7.52-5.46-4.06,14.66-5.3-5.46h7.79c4.51,0,7.99.89,10.44,2.68s3.68,4.44,3.68,7.98c0,3.07-.84,5.7-2.51,7.9-1.68,2.2-3.97,3.89-6.87,5.06-2.9,1.17-6.17,1.76-9.82,1.76Z"/>
        <path class="cls-1" d="m105.24,152.88c-2.96,0-5.54-.59-7.73-1.76-2.2-1.17-3.9-2.86-5.11-5.06-1.21-2.2-1.81-4.87-1.81-8,0-3.57.5-6.86,1.51-9.87,1.01-3.01,2.43-5.63,4.27-7.87s4.01-3.97,6.52-5.19c2.51-1.22,5.24-1.84,8.19-1.84s5.53.58,7.73,1.73c2.2,1.15,3.9,2.84,5.11,5.06,1.21,2.22,1.81,4.89,1.81,8.03,0,3.57-.5,6.86-1.51,9.87-1.01,3.01-2.43,5.63-4.27,7.87s-4.01,3.97-6.52,5.19c-2.51,1.23-5.24,1.84-8.19,1.84Zm1.3-10.22c1.12,0,2.08-.5,2.89-1.49.81-.99,1.48-2.24,2-3.76.52-1.51.91-3.07,1.16-4.68s.38-3.04.38-4.3c0-1.87-.3-3.16-.89-3.87s-1.36-1.05-2.3-1.05c-1.12,0-2.08.5-2.89,1.49-.81.99-1.48,2.24-2,3.76-.52,1.51-.91,3.07-1.16,4.68s-.38,3.04-.38,4.3c0,1.88.31,3.16.92,3.87s1.37,1.05,2.27,1.05Z"/>
        <path class="cls-1" d="m142.66,152.88c-2.96,0-5.54-.59-7.73-1.76-2.2-1.17-3.9-2.86-5.11-5.06-1.21-2.2-1.81-4.87-1.81-8,0-3.57.5-6.86,1.51-9.87,1.01-3.01,2.43-5.63,4.27-7.87s4.01-3.97,6.52-5.19c2.51-1.22,5.24-1.84,8.19-1.84s5.53.58,7.73,1.73c2.2,1.15,3.9,2.84,5.11,5.06,1.21,2.22,1.81,4.89,1.81,8.03,0,3.57-.5,6.86-1.51,9.87-1.01,3.01-2.43,5.63-4.27,7.87s-4.01,3.97-6.52,5.19c-2.51,1.23-5.24,1.84-8.19,1.84Zm1.3-10.22c1.12,0,2.08-.5,2.89-1.49.81-.99,1.48-2.24,2-3.76.52-1.51.91-3.07,1.16-4.68s.38-3.04.38-4.3c0-1.87-.3-3.16-.89-3.87s-1.36-1.05-2.3-1.05c-1.12,0-2.08.5-2.89,1.49-.81.99-1.48,2.24-2,3.76-.52,1.51-.91,3.07-1.16,4.68s-.38,3.04-.38,4.3c0,1.88.31,3.16.92,3.87s1.37,1.05,2.27,1.05Z"/>
        <path class="cls-1" d="m180.09,152.88c-2.96,0-5.54-.59-7.73-1.76-2.2-1.17-3.9-2.86-5.11-5.06-1.21-2.2-1.81-4.87-1.81-8,0-3.57.5-6.86,1.51-9.87,1.01-3.01,2.43-5.63,4.27-7.87s4.01-3.97,6.52-5.19c2.51-1.22,5.24-1.84,8.19-1.84s5.53.58,7.73,1.73c2.2,1.15,3.9,2.84,5.11,5.06,1.21,2.22,1.81,4.89,1.81,8.03,0,3.57-.5,6.86-1.51,9.87-1.01,3.01-2.43,5.63-4.27,7.87s-4.01,3.97-6.52,5.19c-2.51,1.23-5.24,1.84-8.19,1.84Zm1.3-10.22c1.12,0,2.08-.5,2.89-1.49.81-.99,1.48-2.24,2-3.76.52-1.51.91-3.07,1.16-4.68s.38-3.04.38-4.3c0-1.87-.3-3.16-.89-3.87s-1.36-1.05-2.3-1.05c-1.12,0-2.08.5-2.89,1.49-.81.99-1.48,2.24-2,3.76-.52,1.51-.91,3.07-1.16,4.68s-.38,3.04-.38,4.3c0,1.88.31,3.16.92,3.87s1.37,1.05,2.27,1.05Z"/>
        <path class="cls-1" d="m231.68,142.39h18.98l-1.95,9.63h-31.47l7.57-37.86h30.77l-1.95,9.63h-18.22l-3.73,18.6Zm2-14.17h16.87l-1.84,9.19h-16.87l1.84-9.19Z"/>
        <path class="cls-1" d="m272.73,152.88c-3.93,0-7.21-.75-9.84-2.24-2.63-1.5-4.5-3.59-5.6-6.27-1.1-2.69-1.29-5.81-.57-9.38l4.16-20.82h12.76l-4.11,20.6c-.25,1.33-.34,2.49-.27,3.46.07.97.32,1.78.73,2.43.41.65.98,1.13,1.7,1.43.72.31,1.59.46,2.6.46,1.23,0,2.28-.25,3.16-.76.88-.5,1.62-1.33,2.22-2.49.59-1.15,1.07-2.67,1.43-4.54l4.11-20.6h12.55l-4.27,21.36c-1.12,5.66-3.41,9.97-6.87,12.92-3.46,2.96-8.09,4.43-13.9,4.43Z"/>
        <path class="cls-1" d="m296.03,152.01l7.57-37.86h16.98c5.01,0,8.89,1.09,11.63,3.27,2.74,2.18,4.11,5.24,4.11,9.17,0,3.17-.78,5.95-2.35,8.33-1.57,2.38-3.79,4.24-6.65,5.57s-6.25,2-10.14,2h-12.22l6.81-5.35-2.97,14.87h-12.76Zm15.41-13.36l-4.49-5.79h10.87c1.77,0,3.14-.44,4.11-1.33.97-.88,1.46-2.12,1.46-3.7,0-1.37-.42-2.35-1.27-2.95-.85-.59-2.01-.89-3.49-.89h-9.9l6.81-5.95-4.11,20.6Zm7.73,13.36l-7.79-13.79h13.14l7.9,13.79h-13.25Z"/>
        <path class="cls-1" d="m355.31,137.68l1.84-9.19h27.58l-1.84,9.19h-27.58Zm7.19,8.65l5.3-26.5h9.73l-5.3,26.5h-9.73Z"/>
        <path class="cls-1" d="m415.01,152.88c-2.7,0-5.31-.32-7.81-.97-2.51-.65-4.77-1.64-6.79-2.97l5.79-8.87c1.48.94,3.07,1.63,4.79,2.08,1.71.45,3.34.68,4.89.68,1.77,0,3.12-.28,4.06-.84.94-.56,1.41-1.34,1.41-2.35,0-.79-.34-1.41-1.03-1.84-.69-.43-1.91-.65-3.68-.65h-11.52l6.49-22.98h25.15l-1.95,9.63h-20.66l7.52-5.46-4.06,14.66-5.3-5.46h7.79c4.51,0,7.99.89,10.44,2.68s3.68,4.44,3.68,7.98c0,3.07-.84,5.7-2.51,7.9-1.68,2.2-3.97,3.89-6.87,5.06-2.9,1.17-6.17,1.76-9.82,1.76Z"/>
        <path class="cls-1" d="m452.22,152.88c-2.96,0-5.54-.59-7.73-1.76-2.2-1.17-3.9-2.86-5.11-5.06-1.21-2.2-1.81-4.87-1.81-8,0-3.57.5-6.86,1.51-9.87,1.01-3.01,2.43-5.63,4.27-7.87s4.01-3.97,6.52-5.19c2.51-1.22,5.24-1.84,8.19-1.84s5.53.58,7.73,1.73c2.2,1.15,3.9,2.84,5.11,5.06,1.21,2.22,1.81,4.89,1.81,8.03,0,3.57-.5,6.86-1.51,9.87-1.01,3.01-2.43,5.63-4.27,7.87s-4.01,3.97-6.52,5.19c-2.51,1.23-5.24,1.84-8.19,1.84Zm1.3-10.22c1.12,0,2.08-.5,2.89-1.49.81-.99,1.48-2.24,2-3.76.52-1.51.91-3.07,1.16-4.68s.38-3.04.38-4.3c0-1.87-.3-3.16-.89-3.87s-1.36-1.05-2.3-1.05c-1.12,0-2.08.5-2.89,1.49-.81.99-1.48,2.24-2,3.76-.52,1.51-.91,3.07-1.16,4.68s-.38,3.04-.38,4.3c0,1.88.31,3.16.92,3.87s1.37,1.05,2.27,1.05Z"/>
        <path class="cls-1" d="m502.13,152.01h-12.76l7.57-37.86h30.77l-1.95,9.63h-18.01l-5.62,28.23Zm3.46-21.74h16.66l-1.95,9.63h-16.6l1.89-9.63Z"/>
        <path class="cls-1" d="m539.23,152.88c-2.24,0-4.38-.16-6.44-.49-2.06-.33-3.92-.78-5.6-1.38-1.68-.6-3.13-1.25-4.35-1.97l4.92-9.41c1.41.79,2.82,1.45,4.25,1.97,1.42.52,2.85.91,4.27,1.16,1.42.25,2.84.38,4.25.38,1.12,0,2.05-.09,2.79-.27.74-.18,1.3-.44,1.68-.78.38-.34.57-.73.57-1.16,0-.58-.32-1.05-.97-1.41-.65-.36-1.51-.68-2.57-.97-1.06-.29-2.24-.59-3.52-.89-1.28-.31-2.57-.7-3.87-1.19-1.3-.49-2.48-1.11-3.54-1.87-1.06-.76-1.92-1.71-2.57-2.87-.65-1.15-.97-2.56-.97-4.22,0-2.88.77-5.39,2.3-7.52,1.53-2.13,3.73-3.78,6.6-4.95,2.87-1.17,6.28-1.76,10.25-1.76,2.81,0,5.43.28,7.87.84,2.43.56,4.53,1.36,6.3,2.41l-4.6,9.3c-1.51-.94-3.16-1.64-4.95-2.11-1.79-.47-3.6-.7-5.44-.7-1.23,0-2.25.12-3.08.35-.83.24-1.45.55-1.87.95-.42.4-.62.81-.62,1.24,0,.58.33,1.05.97,1.43.65.38,1.51.7,2.6.97,1.08.27,2.26.56,3.54.87,1.28.31,2.56.68,3.84,1.13,1.28.45,2.46,1.05,3.54,1.79,1.08.74,1.95,1.68,2.6,2.81.65,1.14.97,2.53.97,4.19,0,2.81-.78,5.27-2.33,7.38-1.55,2.11-3.76,3.76-6.62,4.95-2.87,1.19-6.27,1.78-10.19,1.78Z"/>
      </g>
      <g>
        <path class="cls-2" d="m481.95,89.77l3.02-15.09h39.15l-3.02,15.09h-10.19l1.27-6.46h-18.77l-1.27,6.46h-10.19Zm26.09-11.18l3.96-19.67h-7.59l-.66,2.78c-.41,1.73-.83,3.34-1.25,4.84-.42,1.49-.88,2.86-1.37,4.1-.49,1.24-1.02,2.34-1.6,3.3-.58.96-1.23,1.75-1.96,2.38l-12.03-1.65c1.04,0,1.99-.37,2.85-1.11.86-.74,1.65-1.78,2.36-3.11.71-1.34,1.37-2.9,1.98-4.69.61-1.79,1.17-3.74,1.67-5.85l2.31-9.62h27.93l-5.66,28.3h-10.94Z"/>
        <path class="cls-2" d="m544.32,84.07c-3.43,0-6.39-.63-8.89-1.89-2.5-1.26-4.43-3-5.8-5.21-1.37-2.22-2.05-4.77-2.05-7.67s.51-5.59,1.53-8c1.02-2.41,2.46-4.49,4.32-6.25,1.86-1.76,4.06-3.12,6.6-4.08,2.55-.96,5.33-1.44,8.35-1.44,3.43,0,6.39.63,8.89,1.89s4.43,3,5.8,5.21c1.37,2.22,2.05,4.77,2.05,7.67s-.51,5.59-1.53,8c-1.02,2.41-2.46,4.49-4.32,6.25s-4.06,3.12-6.6,4.08c-2.55.96-5.33,1.44-8.35,1.44Zm.94-9.01c1.38,0,2.6-.27,3.66-.8,1.05-.53,1.96-1.27,2.71-2.22.75-.94,1.32-2.02,1.7-3.23.38-1.21.57-2.49.57-3.84s-.26-2.41-.78-3.37c-.52-.96-1.26-1.71-2.22-2.24-.96-.53-2.12-.8-3.47-.8s-2.56.27-3.63.8c-1.07.54-1.98,1.27-2.74,2.22-.75.94-1.32,2.02-1.7,3.23-.38,1.21-.57,2.49-.57,3.84,0,1.26.26,2.37.78,3.35.52.98,1.26,1.73,2.22,2.26.96.54,2.12.8,3.47.8Z"/>
      </g>
    </g>
  </g>
</svg>